<?xml version="1.0" encoding="UTF-8"?><svg xmlns="http://www.w3.org/2000/svg" id="Exhibit__6377eccbb5f79" viewBox="0 0 130 40.36" aria-hidden="true" width="130px" height="40px"><defs><linearGradient class="cerosgradient" data-cerosgradient="true" id="CerosGradient_id074c74d6f" gradientUnits="userSpaceOnUse" x1="50%" y1="100%" x2="50%" y2="0%"><stop offset="0%" stop-color="#d1d1d1"/><stop offset="100%" stop-color="#d1d1d1"/></linearGradient><linearGradient/><style>.cls-1-6377eccbb5f79{fill:#051c2c;}</style></defs><path class="cls-1-6377eccbb5f79" d="M1.91,1.89c0-.31-.87-1.14-1.16-1.14H0V0H4.41l4.53,11.41h.1L13.82,0h3.95V.75h-.75c-.29,0-1.16,.83-1.16,1.14V13.24c0,.31,.87,1.14,1.16,1.14h.75v.75h-5.86v-.75h.75c.29,0,1.16-.83,1.16-1.14V2.22l-5.51,13.18L2.81,2V13.24c0,.31,.87,1.14,1.16,1.14h.75v.75H0v-.75H.75c.29,0,1.16-.83,1.16-1.14V1.89Z"/><path class="cls-1-6377eccbb5f79" d="M24.14,8.67c.27-1.52,.02-2.89-1.66-2.89-1.95,0-2.91,1.56-2.91,3.87,0,2.18,1.39,3.99,3.64,3.99,1.7,0,2.43-.6,3.12-1.75h.6c-.64,2.14-1.95,3.49-4.41,3.49-2.72,0-4.49-2.33-4.49-5.11,0-3.16,2.1-5.24,4.68-5.24,1.54,0,2.58,.48,3.47,1.37l-1.43,2.22-.6,.04Z"/><g><path class="cls-1-6377eccbb5f79" d="M43.92,2.99c.73,0,1.27-.5,1.27-1.27s-.54-1.25-1.27-1.25-1.29,.48-1.29,1.25,.56,1.27,1.29,1.27Z"/><path class="cls-1-6377eccbb5f79" d="M57.85,14.38c-.29,0-1.08-.71-1.08-1.04V7.88c0-1.68-1.21-2.81-2.72-2.81-1.77,0-2.68,1.02-3.87,2.22l-.37-2.02h-3.1v.75h.6c.29,0,1.08,.73,1.08,1.04v6.28c0,.33-.79,1.04-1.08,1.04h-1.21c-.27,0-1.08-.71-1.08-1.04V5.28h-3.51v.75h.6c.29,0,1.08,.73,1.08,1.04v6.28c0,.33-.79,1.04-1.08,1.04h-1.1c-.31,0-1.54-.94-1.79-1.27l-5.3-7.05,3.68-3.95c.21-.23,1.64-1.37,1.93-1.37h.73V0h-5.49V.75h.73c.29,0,1.14,1.04,.91,1.31l-5.4,6.03V1.89c0-.31,.87-1.14,1.16-1.14h.75V0h-5.9V.75h.75c.29,0,1.16,.83,1.16,1.14V13.24c0,.31-.87,1.14-1.16,1.14h-.75v.75h5.9v-.75h-.75c-.29,0-1.16-.83-1.16-1.14v-4.01l1.54-1.66,5.24,7.57h14.05v-.75h-.56c-.29,0-1.08-.71-1.08-1.04v-5.01c0-.67,1.81-2.04,3.2-2.04,1.06,0,1.56,.73,1.56,1.68v5.36c0,.33-.79,1.04-1.08,1.04h-.56v.75h5.03v-.75h-.5Z"/></g><path class="cls-1-6377eccbb5f79" d="M59.68,11.68c0,.91,1.33,2.89,3.45,2.89,1.23,0,1.91-.44,1.91-1.35,0-1.1-.98-1.48-1.85-1.85-.69-.29-1.25-.52-2.04-.87-1.18-.54-2.08-1.33-2.08-2.68,0-1.77,1.06-2.79,2.95-2.79,1.08,0,1.68,.52,2.43,.52,.29,0,.46-.06,.54-.27h.54v3.03h-.6c0-.81-1.14-2.54-2.97-2.54-1.14,0-1.68,.5-1.68,1.31,0,.85,.58,1.16,1.6,1.6,.75,.31,1.31,.56,2.12,.87,1.06,.42,2.27,1.27,2.27,2.85,0,1.87-1.29,2.97-3.14,2.97-1.25,0-1.97-.58-2.83-.58-.39,0-.5,.1-.75,.33h-.48v-3.45h.6Z"/><path class="cls-1-6377eccbb5f79" d="M66.87,10.21c0-2.91,1.97-5.18,4.51-5.15,2.22,.02,3.47,1.54,3.57,3.45l.04,.71-6.55,.52c0,1.97,1.37,3.93,3.6,3.93,1.68,0,2.45-.64,3.06-1.77h.6c-.64,2.14-1.87,3.47-4.28,3.47-2.74,0-4.55-2.39-4.55-5.15Zm6.44-1.6c.17-1.39-.06-2.81-1.97-2.81-2.04,0-2.85,1.68-2.91,3.22l4.88-.42Z"/><path class="cls-1-6377eccbb5f79" d="M76.68,7.15c-.15-.33-1.02-1.12-1.27-1.12h-.44v-.75h5.22v.75h-.6c-.27,0-.87,.69-.87,1.06l2.29,5.26,2.24-5.24c.02-.39-.58-1.08-.85-1.08h-.6v-.75h3.93v.75h-.46c-.23,0-.94,.75-1.14,1.08l-3.35,7.54-2.47,5.45-.89-.42,2.62-5.36-3.35-7.17Z"/><path class="cls-1-6377eccbb5f79" d="M29.23,22.94c0,1.21,.83,2.18,2.14,2.68,1.95,2.1,4.3,4.32,6.36,6.15,.58-.96,.79-1.97,.79-3.22,0-1.39-.91-2.22-2.39-2.27v-.75h5.36v.75h-.58c-.29,0-1.33,1.18-1.35,1.64-.04,1.29-.39,2.89-1.35,4.26,1.1,.96,2.2,1.85,3.08,2.45h.91v.75h-1.64c-1.48,0-2.51-.39-3.76-1.54-1.21,1.16-2.74,1.81-4.97,1.81-2.45,0-4.8-1.81-4.8-4.47,0-2.1,1.06-3.64,2.43-4.59-.73-.94-1.23-1.83-1.23-3.16,0-2.16,1.41-3.37,3.64-3.37,1.39,0,2.12,.46,2.76,.46,.33,0,.54-.02,.71-.27h.64v3.57h-.64c0-1.02-1.5-3.06-3.51-3.06-1.62,0-2.6,.79-2.6,2.16Zm-.64,7.27c0,2.16,2.31,4.24,4.47,4.24,1.35,0,2.43-.37,3.28-1.02-2.2-1.89-4.66-4.26-6.55-6.42-.79,.81-1.21,1.64-1.21,3.2Z"/><path class="cls-1-6377eccbb5f79" d="M57.73,25.63c0-1.56-1.75-4.72-4.59-4.72-2.62,0-4.18,1.45-4.45,4.86-.1,1.33-.06,2.51,.04,3.85,.25,2.64,2.08,4.82,5.15,4.82,2.62,0,3.89-1.1,4.86-3.1h.79c-.98,2.7-3.1,4.32-6.11,4.32-4.34,0-7.15-3.58-7.15-7.9s2.54-7.77,6.78-7.77c1.62,0,2.64,.67,3.82,.67,.48,0,.71-.12,.94-.39h.56v5.36h-.64Z"/><path class="cls-1-6377eccbb5f79" d="M60.56,30.47c0-3.18,2.29-5.18,4.88-5.18s4.88,2,4.88,5.18-2.29,5.2-4.88,5.2-4.88-2.02-4.88-5.2Zm7.79,1.64c.12-1,.12-2.35,0-3.35-.19-1.58-1.06-2.64-2.89-2.64s-2.66,1.06-2.89,2.62c-.15,.96-.15,2.37,0,3.35,.23,1.52,1.08,2.64,2.89,2.64s2.7-1.08,2.89-2.62Z"/><path class="cls-1-6377eccbb5f79" d="M86.27,33.61c0,.33,.75,1.04,1.04,1.04h.46v.75h-4.91v-.75h.56c.29,0,1.04-.71,1.04-1.04v-5.47c0-.96-.48-1.62-1.54-1.62-1.29,0-2.89,1.25-2.89,1.91v5.18c0,.33,.75,1.04,1.04,1.04h.56v.75h-5.01v-.75h.56c.29,0,1.04-.71,1.04-1.04v-5.47c0-.96-.5-1.62-1.56-1.62-1.29,0-2.89,1.31-2.89,1.97v5.11c0,.33,.75,1.04,1.04,1.04h.56v.75h-5.01v-.75h.56c.29,0,1.04-.71,1.04-1.04v-6.28c0-.31-.75-1.04-1.04-1.04h-.56v-.75h3.01l.39,1.89c1.12-1.18,1.85-2.1,3.57-2.1,1.31,0,2.41,.71,2.6,2.08,1.21-1.18,1.97-2.06,3.64-2.06,1.48,0,2.68,1,2.68,2.78v5.47Z"/><path class="cls-1-6377eccbb5f79" d="M90.67,25.54l.33,2.02c.85-1.58,1.93-2.27,3.55-2.27,2.39,0,3.85,2.02,3.85,5.03s-1.66,5.28-4.05,5.28c-1.73,0-2.64-.67-3.35-1.93v4.7c0,.33,.77,1.04,1.04,1.04h.64v.75h-5.2v-.75h.64c.29,0,1.04-.71,1.04-1.04v-11.04c0-.31-.75-1.04-1.04-1.04h-.64v-.75h3.18Zm.31,3.6v2.58c0,1.54,1.18,2.85,2.85,2.85s2.47-1.06,2.68-2.62c.12-.94,.15-2.02,.02-2.93-.21-1.56-1.06-2.56-2.47-2.56-1.66,0-2.6,1.14-3.08,2.68Z"/><path class="cls-1-6377eccbb5f79" d="M119.74,34.65c-.29,0-1.08-.71-1.08-1.04v-5.47c0-1.68-1.21-2.81-2.72-2.81-1.77,0-2.68,1.02-3.87,2.22l-.37-2.02h-3.1v.75h.6c.29,0,1.08,.73,1.08,1.04v6.28c0,.33-.79,1.04-1.08,1.04h-1.18c-.27,0-1.08-.71-1.08-1.04v-5.36c0-1.93-1.56-2.93-3.68-2.93-2,0-3.14,.69-3.95,1.52l1.31,1.97h.71c-.73-1.68-.19-2.76,1.5-2.76,1.77,0,2.33,.79,2.31,2.18l-.02,1.23-2.54,.52c-1.39,.29-3.18,.98-3.18,2.93,0,1.6,1.14,2.68,2.49,2.68,1.45,0,2.49-1.14,3.28-2.16l.25,1.97h8.31v-.75h-.56c-.29,0-1.08-.71-1.08-1.04v-5.01c0-.67,1.81-2.04,3.2-2.04,1.06,0,1.56,.73,1.56,1.68v5.36c0,.33-.79,1.04-1.08,1.04h-.56v.75h5.03v-.75h-.5Zm-14.61-2.14c-.42,.73-1.45,1.73-2.41,1.73s-1.58-.73-1.58-1.58c0-.98,.42-1.64,1.64-1.95l2.35-.6v2.41Z"/><path class="cls-1-6377eccbb5f79" d="M120.96,27.41c-.15-.33-1.02-1.12-1.27-1.12h-.44v-.75h5.22v.75h-.6c-.27,0-.87,.69-.87,1.06l2.29,5.26,2.24-5.24c.02-.39-.58-1.08-.85-1.08h-.6v-.75h3.93v.75h-.46c-.23,0-.94,.75-1.14,1.08l-3.35,7.54-2.47,5.45-.89-.42,2.62-5.36-3.35-7.17Z"/></svg>