<!-- Generator: Adobe Illustrator 25.2.0, SVG Export Plug-In  -->
<svg version="1.1" xmlns="http://www.w3.org/2000/svg" xmlns:xlink="http://www.w3.org/1999/xlink" x="0px" y="0px" width="65.9px"
	 height="65.9px" viewBox="0 0 65.9 65.9" style="overflow:visible;enable-background:new 0 0 65.9 65.9;" xml:space="preserve">
<style type="text/css">
	.st0{fill:#4BBBEB;}
	.st1{fill:#132F3B;}
</style>
<defs>
</defs>
<g>
	<path class="st0" d="M61.3,65.9H4.5c-2.5,0-4.5-2-4.5-4.5V4.5C0,2,2,0,4.5,0h56.8c2.5,0,4.5,2,4.5,4.5v56.8
		C65.9,63.8,63.8,65.9,61.3,65.9z"/>
	<g id="Pray_open_hand_1_">
		<g>
			<path class="st1" d="M50.8,43.2c0-2.7,5.3-5.9,5.3-9.5c0-4.3-2.8-6.4-5.6-9.2l-1.4-7.9c-0.3-1.7-1.9-2.8-3.6-2.5c0,0,0,0,0,0
				c-1.3,0.2-1,0.8-1.2,0.1c-0.3-1.7-1.9-2.8-3.6-2.5c-1.4,0.3-2.4,1.4-2.5,2.8c-1.7-0.4-3.3,0.6-3.7,2.3c-0.1,0.4-0.1,0.8,0,1.3
				l0.3,1.9c-0.7,0-1.4,0.3-1.9,0.8c-0.5-0.5-1.2-0.8-1.9-0.8l0.3-1.9c0.3-1.7-0.8-3.3-2.5-3.6c-0.4-0.1-0.9-0.1-1.3,0
				c-0.1-1.7-1.6-3-3.3-2.9c-1.4,0.1-2.6,1.1-2.8,2.5c-0.1,0.6,0.1,0.1-1.2-0.1c-1.7-0.3-3.3,0.8-3.6,2.5l-1.4,7.9
				c-2.8,2.8-5.6,4.9-5.6,9.2c0,3.6,5.3,6.9,5.3,9.5c0,0.7-0.4,2.9-2.9,9.7c-0.2,0.5,0.1,1.1,0.6,1.2c0.5,0.2,1.1-0.1,1.2-0.6
				c4.2-11.1,3.8-11.4,0.2-15.7c-1.2-1.4-2.5-2.9-2.5-4.1c0-1.7,0.7-3.3,1.8-4.6c3.8-3.8,3.6-3.7,3.7-3.6c1,0.7,1.4,2.1,1,3.2
				c-1.1,2.7-1.2,2.9-1,3.4c0.5,0.9,2,0.2,4.8,2.3c1.2,0.9,2.2,2.1,2.9,3.5c0.3,0.5,0.9,0.6,1.3,0.3c0.4-0.2,0.6-0.8,0.4-1.2
				c-1.5-3-4.1-5.2-7.3-6.1l0.6-1.5c1.1-2.8-0.8-5.6-2.5-5.8l1.2-6.6c0.1-0.6,0.8-1,1.4-0.9c0.3,0.1,0.5,0.2,0.7,0.5
				c0.4,0.5,0.3,0.4-0.7,5.7c-0.1,0.5,0.3,1,0.8,1.1s1-0.3,1.1-0.8l1.4-7.9c0.1-0.6,0.7-1,1.3-0.9c0.6,0.1,1,0.7,0.9,1.3l-1.8,10.4
				c-0.1,0.5,0.3,1,0.8,1.1c0.1,0,0.2,0,0.3,0c1-0.1,0.8-0.4,2.3-9.1c0.1-0.6,0.8-1,1.4-0.9c0.6,0.1,1,0.7,0.9,1.3l-2,11.3
				c-0.1,0.5,0.3,1,0.8,1.1c0.5,0.1,1-0.3,1.1-0.8l1.3-7.4c0.6-0.1,1.2,0.4,1.3,1c0,0,0,0,0,0.1v14.1c0,6.1-4,5.7-5.1,15.9
				c-0.1,0.5,0.3,1,0.9,1.1c0.5,0.1,1-0.3,1.1-0.9c0.3-3.4,1.4-6.6,3.2-9.5c1.7-2.4,0.3-2.4,2,0c1.8,2.9,2.9,6.1,3.2,9.5
				c0.1,0.5,0.5,0.9,1.1,0.9c0.5-0.1,0.9-0.5,0.9-1.1l0,0c-1.2-10.3-5.2-9.8-5.2-15.9V23.1c0-0.6,0.5-1.1,1.2-1.1c0,0,0.1,0,0.1,0
				l1.3,7.4c0.1,0.5,0.6,0.9,1.1,0.8c0.5-0.1,0.9-0.6,0.8-1.1l-2-11.2c-0.1-0.6,0.3-1.2,0.9-1.4s1.2,0.3,1.4,0.9l0,0l1.5,8.4
				c0.1,0.5,0.6,0.9,1.1,0.8c0.5-0.1,0.9-0.6,0.8-1.1l-1.9-10.4c-0.1-0.6,0.3-1.2,0.9-1.3c0.6-0.1,1.2,0.3,1.3,0.9l0,0l1.4,7.9
				c0.1,0.5,0.6,0.9,1.1,0.8s0.9-0.6,0.8-1.1c-1-5.3-1-5.2-0.7-5.7c0.4-0.5,1.1-0.6,1.6-0.3c0.2,0.2,0.4,0.4,0.5,0.7l1.2,6.6
				c-1.7,0.3-3.6,3-2.5,5.8l0.6,1.6c-3.2,1-5.8,3.2-7.3,6.1c-0.2,0.5,0,1.1,0.5,1.3c0.4,0.2,1,0,1.2-0.4c0.7-1.4,1.7-2.6,2.9-3.5
				c2.9-2.2,4.3-1.5,4.8-2.4c0.3-0.5,0.1-0.7-1-3.4c-0.5-1.2-0.1-2.5,1-3.2c0.1-0.1-0.1-0.3,3.7,3.6c1.1,1.3,1.8,2.9,1.8,4.6
				c0,1.2-1.2,2.7-2.4,4.1c-3.7,4.5-3.9,4.8,0.2,15.7c0.2,0.5,0.7,0.8,1.2,0.6c0.5-0.2,0.8-0.7,0.6-1.2l0,0
				C51.2,46.1,50.8,43.9,50.8,43.2z"/>
			<path class="st1" d="M27.8,54.5c0,0-0.1,0-0.1,0c-0.7-0.1-1.2-0.7-1.1-1.4c0.6-5.6,2.1-8.1,3.3-10.1c1-1.7,1.8-3.1,1.8-5.8V23.1
				c0-0.3-0.1-0.5-0.3-0.6c-0.1-0.1-0.3-0.2-0.4-0.2l-1.3,7.1c-0.1,0.3-0.2,0.6-0.5,0.8c-0.3,0.2-0.6,0.3-1,0.2
				c-0.7-0.1-1.2-0.8-1-1.5l2-11.3c0.1-0.4-0.2-0.8-0.7-0.9c-0.5-0.1-0.9,0.2-1,0.6c-0.3,1.8-0.6,3.3-0.8,4.5
				c-0.8,4.6-0.8,4.8-1.8,4.9c-0.1,0-0.2,0-0.4,0c-0.7-0.1-1.2-0.8-1-1.4l1.8-10.4c0-0.2,0-0.5-0.1-0.6c-0.1-0.2-0.3-0.3-0.6-0.4
				c-0.2,0-0.5,0-0.6,0.1c-0.2,0.1-0.3,0.3-0.4,0.6l-1.4,7.9c-0.1,0.3-0.2,0.6-0.5,0.8c-0.3,0.2-0.6,0.3-1,0.2
				c-0.7-0.1-1.2-0.8-1-1.5c0.2-1.1,0.3-1.9,0.5-2.6c0.5-2.5,0.5-2.5,0.2-2.8c-0.1-0.2-0.3-0.3-0.5-0.3c-0.2,0-0.5,0-0.7,0.1
				c-0.2,0.1-0.3,0.3-0.4,0.6l-1.1,6.3c0.8,0.2,1.6,0.9,2.1,1.9c0.8,1.3,0.9,2.9,0.3,4.3l-0.5,1.2c3.1,1,5.7,3.2,7.2,6.2
				c0.3,0.6,0,1.3-0.5,1.6c-0.6,0.4-1.4,0.2-1.7-0.4c-0.7-1.3-1.7-2.5-2.8-3.4c-1.6-1.2-2.7-1.5-3.5-1.7c-0.6-0.2-1.1-0.3-1.4-0.8
				c-0.3-0.6-0.2-0.8,0.5-2.4c0.1-0.3,0.3-0.7,0.5-1.2c0.4-1,0.1-2.1-0.7-2.8c-0.2,0.1-0.5,0.5-1,1c-0.5,0.5-1.3,1.3-2.5,2.5
				C12.6,30.5,12,32,12,33.7c0,1.1,1.1,2.5,2.4,3.9l0.1,0.2c3.7,4.4,3.8,5-0.3,15.9c-0.1,0.3-0.4,0.6-0.7,0.7c-0.3,0.1-0.7,0.2-1,0
				c-0.7-0.2-1-1-0.7-1.6c2.5-6.7,2.9-8.9,2.9-9.6c0-1.1-1.1-2.5-2.3-3.9c-1.4-1.7-3-3.6-3-5.7c0-3.9,2.2-6,4.6-8.3
				c0.3-0.3,0.7-0.6,1-1l1.4-7.8c0.3-1.8,2.1-3,3.9-2.8c0.4,0.1,0.7,0.2,0.8,0.3c0.3-1.5,1.6-2.6,3.1-2.7c0.9-0.1,1.8,0.2,2.4,0.8
				c0.6,0.5,1,1.2,1.1,2c0.4-0.1,0.7,0,1.1,0c0.9,0.2,1.7,0.6,2.2,1.4c0.5,0.7,0.7,1.6,0.6,2.5l-0.3,1.6c0.6,0.1,1.1,0.3,1.6,0.7
				c0.5-0.4,1-0.6,1.6-0.7l-0.3-1.6c-0.1-0.5-0.1-0.9,0-1.4c0.2-0.9,0.8-1.6,1.5-2.1c0.7-0.4,1.5-0.6,2.2-0.5
				c0.2-1.4,1.3-2.5,2.7-2.8c0.9-0.2,1.8,0,2.5,0.5c0.7,0.5,1.2,1.2,1.4,2.1c0.2-0.1,0.5-0.2,0.8-0.3c1.8-0.3,3.6,0.9,3.9,2.7
				l1.4,7.8c0.3,0.3,0.7,0.7,1,1c2.4,2.3,4.6,4.5,4.6,8.3c0,2.1-1.6,4-3,5.7c-1.2,1.4-2.3,2.7-2.3,3.9c0,0.7,0.4,2.9,2.9,9.6
				c0.1,0.3,0.1,0.7,0,1c-0.1,0.3-0.4,0.5-0.7,0.7c-0.3,0.1-0.7,0.1-1,0c-0.3-0.1-0.5-0.4-0.7-0.7c-4.2-11.2-3.9-11.5-0.1-16
				c1.1-1.3,2.4-2.8,2.4-4c0-1.6-0.6-3.2-1.7-4.4l-2.1-2.1c-0.8-0.8-1.2-1.2-1.4-1.4c-0.8,0.7-1.1,1.8-0.7,2.8
				c0.2,0.5,0.4,0.9,0.5,1.3c0.6,1.6,0.7,1.8,0.4,2.3c-0.3,0.5-0.8,0.6-1.4,0.8c-0.8,0.2-1.9,0.5-3.5,1.7c-1.2,0.9-2.1,2.1-2.8,3.4
				c-0.3,0.6-1,0.8-1.6,0.5c-0.3-0.1-0.6-0.4-0.7-0.7c-0.1-0.3-0.1-0.7,0-1c1.5-2.9,4.1-5.2,7.1-6.2l-0.5-1.3
				c-0.6-1.4-0.4-3,0.3-4.3c0.5-0.9,1.3-1.6,2.1-1.9L47,17c0-0.2-0.2-0.4-0.3-0.5c-0.4-0.3-0.9-0.2-1.2,0.2
				c-0.2,0.3-0.2,0.3,0.3,3.4l0.4,2c0.1,0.7-0.3,1.4-1,1.5c-0.3,0.1-0.7,0-1-0.2c-0.3-0.2-0.5-0.5-0.5-0.8l-1.4-7.9
				c-0.1-0.5-0.5-0.8-1-0.7c-0.5,0.1-0.8,0.5-0.7,1l1.9,10.4c0.1,0.7-0.3,1.4-1,1.5c-0.7,0.1-1.4-0.3-1.5-1l-1.5-8.4
				c0-0.2-0.2-0.4-0.4-0.6c-0.2-0.1-0.4-0.2-0.7-0.1c-0.2,0-0.4,0.2-0.6,0.4c-0.1,0.2-0.2,0.4-0.1,0.7l2,11.2c0.1,0.3,0,0.7-0.2,1
				c-0.2,0.3-0.5,0.5-0.8,0.5c-0.3,0.1-0.7,0-1-0.2c-0.3-0.2-0.5-0.5-0.5-0.8L35,22.2c-0.4,0-0.8,0.4-0.8,0.8v14.1
				c0,2.7,0.8,4.1,1.8,5.8c1.2,2,2.7,4.5,3.4,10.1c0,0.3-0.1,0.7-0.3,0.9c-0.2,0.3-0.5,0.4-0.8,0.5c-0.7,0.1-1.3-0.4-1.4-1.1
				c-0.3-3.3-1.4-6.5-3.1-9.4c-0.4-0.6-0.6-1-0.8-1.3c-0.1,0.3-0.4,0.7-0.8,1.3c-1.8,2.8-2.9,6-3.1,9.3C29,54,28.4,54.5,27.8,54.5z
				 M33,41.7c0.2,0,0.3,0.2,0.4,0.4c0.1,0.3,0.3,0.8,0.9,1.6c1.8,2.9,2.9,6.2,3.2,9.6c0,0.4,0.4,0.6,0.7,0.6c0.4,0,0.6-0.4,0.6-0.7
				c-0.7-5.5-2.1-7.9-3.3-9.8c-1-1.7-1.9-3.2-1.9-6.1V23.1c0-0.8,0.7-1.4,1.4-1.4c0.1,0,0.1,0,0.2,0l0.2,0l1.3,7.6
				c0,0.2,0.1,0.3,0.3,0.4c0.2,0.1,0.3,0.1,0.5,0.1c0.2,0,0.3-0.1,0.4-0.3c0.1-0.1,0.1-0.3,0.1-0.5l-2-11.2c-0.1-0.4,0-0.8,0.2-1.1
				c0.2-0.3,0.6-0.5,0.9-0.6c0.4-0.1,0.8,0,1.1,0.2c0.3,0.2,0.5,0.6,0.6,0.9l1.5,8.4c0.1,0.4,0.4,0.6,0.8,0.6
				c0.4-0.1,0.6-0.4,0.6-0.8L39.9,15c-0.1-0.8,0.4-1.5,1.2-1.7c0.8-0.1,1.5,0.4,1.7,1.2l1.4,7.9c0,0.2,0.1,0.3,0.3,0.4
				C44.6,23,44.8,23,45,23c0.4-0.1,0.6-0.4,0.6-0.8l-0.4-2c-0.6-3.3-0.6-3.3-0.3-3.9c0.5-0.7,1.4-0.8,2.1-0.3
				c0.3,0.2,0.5,0.5,0.6,0.9l1.2,6.9l-0.3,0c-0.7,0.1-1.5,0.7-2,1.6c-0.7,1.2-0.8,2.5-0.3,3.8l0.7,1.9l-0.3,0.1
				c-3.1,0.9-5.6,3.1-7.1,6c-0.1,0.1-0.1,0.3,0,0.5c0.1,0.2,0.2,0.3,0.4,0.4c0.3,0.1,0.7,0,0.8-0.3c0.7-1.4,1.7-2.6,3-3.6
				c1.7-1.3,2.9-1.6,3.8-1.8c0.6-0.1,0.8-0.2,1-0.5c0.2-0.3,0.1-0.3-0.5-1.8c-0.1-0.3-0.3-0.8-0.5-1.3c-0.5-1.3-0.1-2.8,1.1-3.6
				c0.2-0.2,0.2-0.2,2,1.6l2.1,2.1c1.2,1.3,1.8,3,1.9,4.8c0,1.4-1.3,2.9-2.5,4.3c-3.6,4.4-3.8,4.6,0.2,15.5c0.1,0.2,0.2,0.3,0.4,0.4
				c0.2,0.1,0.3,0.1,0.5,0c0.2-0.1,0.3-0.2,0.4-0.4c0.1-0.2,0.1-0.3,0-0.5c-2.4-6.4-2.9-8.9-2.9-9.8c0-1.3,1.2-2.8,2.4-4.2
				c1.4-1.7,2.9-3.4,2.9-5.3c0-3.6-2.1-5.6-4.5-7.9c-0.4-0.3-0.7-0.7-1.1-1.1l-0.1-0.1l0-0.1l-1.4-7.9c-0.3-1.5-1.7-2.5-3.2-2.3
				c-0.6,0.1-0.8,0.3-0.9,0.3c-0.1,0.1-0.2,0.1-0.4,0.1c-0.2-0.1-0.2-0.2-0.2-0.4l0-0.2c-0.1-0.7-0.5-1.4-1.2-1.8
				c-0.6-0.4-1.4-0.6-2.1-0.4c-1.3,0.2-2.2,1.3-2.3,2.6l0,0.3l-0.3-0.1c-0.7-0.2-1.5-0.1-2.1,0.3c-0.6,0.4-1.1,1-1.3,1.7
				c-0.1,0.4-0.1,0.8,0,1.1l0.4,2.3l-0.3,0c-0.7,0-1.3,0.3-1.8,0.8l-0.2,0.2l-0.2-0.2c-0.5-0.4-1.1-0.7-1.7-0.8l-0.3,0L31,18
				c0.1-0.7,0-1.5-0.5-2.1c-0.4-0.6-1.1-1-1.8-1.1c-0.4-0.1-0.8-0.1-1.1,0l-0.3,0.1l0-0.3c0-0.7-0.4-1.4-0.9-1.9
				c-0.6-0.5-1.3-0.7-2-0.7c-1.3,0.1-2.3,1-2.6,2.3l0,0.1c0,0.1,0,0.3-0.2,0.4c-0.2,0.1-0.3,0-0.4-0.1c-0.1-0.1-0.3-0.2-0.9-0.3
				c-1.5-0.2-3,0.8-3.2,2.3l-1.4,8l-0.1,0.1c-0.4,0.4-0.7,0.7-1.1,1.1C12.1,28.1,10,30,10,33.7c0,1.8,1.5,3.6,2.9,5.3
				c1.2,1.5,2.4,2.9,2.4,4.2c0,0.9-0.5,3.3-2.9,9.8c-0.1,0.3,0,0.7,0.4,0.9c0.2,0.1,0.4,0.1,0.5,0c0.2-0.1,0.3-0.2,0.4-0.4
				c4.1-10.8,3.8-11.2,0.4-15.3L13.9,38c-1.4-1.6-2.5-3-2.5-4.3c0-1.8,0.7-3.5,1.9-4.8c1.2-1.2,2-2,2.5-2.5c1.3-1.3,1.3-1.3,1.6-1.2
				c1.2,0.8,1.6,2.3,1.1,3.6c-0.2,0.5-0.4,0.9-0.5,1.2c-0.6,1.5-0.6,1.6-0.5,1.9c0.1,0.3,0.4,0.3,1,0.5c0.8,0.2,2.1,0.5,3.7,1.8
				c1.2,1,2.3,2.2,3,3.6c0.2,0.3,0.6,0.4,0.9,0.2c0.3-0.2,0.4-0.5,0.3-0.8c-1.4-2.9-4-5-7.1-5.9L19,31.1l0.7-1.8
				c0.5-1.2,0.4-2.6-0.3-3.8c-0.5-0.9-1.3-1.5-2-1.6l-0.3,0l1.2-6.9c0.1-0.4,0.3-0.7,0.6-0.9c0.3-0.2,0.7-0.3,1.1-0.2
				c0.4,0.1,0.7,0.3,0.9,0.6c0.4,0.5,0.3,0.6-0.1,3.3c-0.1,0.7-0.3,1.5-0.5,2.6c-0.1,0.4,0.2,0.7,0.6,0.8c0.2,0,0.4,0,0.5-0.1
				c0.2-0.1,0.3-0.3,0.3-0.4l1.4-7.9c0.1-0.4,0.3-0.7,0.6-0.9c0.3-0.2,0.7-0.3,1.1-0.2c0.4,0.1,0.7,0.3,0.9,0.6
				c0.2,0.3,0.3,0.7,0.2,1.1l-1.8,10.4c-0.1,0.4,0.2,0.7,0.6,0.8c0.1,0,0.1,0,0.2,0c0.5-0.1,0.5-0.1,1.3-4.4
				c0.2-1.2,0.4-2.6,0.8-4.5c0.2-0.8,1-1.3,1.7-1.1c0.7,0.2,1.2,0.9,1.1,1.6l-2,11.3c-0.1,0.4,0.2,0.7,0.6,0.8c0.2,0,0.4,0,0.5-0.1
				c0.2-0.1,0.3-0.3,0.3-0.4l1.3-7.6l0.2,0c0.4,0,0.8,0.1,1.1,0.3c0.3,0.2,0.5,0.6,0.5,1l0,0.1v14.1c0,2.9-0.9,4.4-1.9,6.1
				c-1.2,2-2.6,4.4-3.2,9.9c0,0.4,0.2,0.7,0.6,0.7c0.4,0,0.7-0.2,0.7-0.6c0.3-3.4,1.4-6.7,3.2-9.6c0.6-0.8,0.8-1.3,0.9-1.6
				C32.7,41.9,32.7,41.7,33,41.7z"/>
		</g>
	</g>
</g>
</svg>
