<?xml version="1.0" encoding="UTF-8"?><svg xmlns="http://www.w3.org/2000/svg" id="Exhibit6410b8735b89c" viewBox="0 0 27 31.66" aria-hidden="true" width="27px" height="31px"><defs><linearGradient class="cerosgradient" data-cerosgradient="true" id="CerosGradient_idf1067259e" gradientUnits="userSpaceOnUse" x1="50%" y1="100%" x2="50%" y2="0%"><stop offset="0%" stop-color="#d1d1d1"/><stop offset="100%" stop-color="#d1d1d1"/></linearGradient><linearGradient/></defs><path d="M10.28,0c2.84,0,5.41,1.15,7.27,3.01,1.86,1.86,3.01,4.43,3.01,7.27,0,.98-.14,1.92-.39,2.82l-.95-.65c.17-.7,.26-1.42,.26-2.17,0-2.54-1.03-4.84-2.69-6.5-1.66-1.67-3.96-2.69-6.5-2.69S5.45,2.12,3.78,3.78c-1.67,1.66-2.69,3.96-2.69,6.5s1.03,4.84,2.69,6.5c1.23,1.23,2.82,2.12,4.59,2.49l.09,1.12c-2.1-.38-3.99-1.4-5.44-2.85-1.87-1.86-3.02-4.43-3.02-7.27S1.15,4.87,3.01,3.01C4.87,1.15,7.44,0,10.28,0h0Zm10.8,31.56c-.23,.11-.48,.12-.71,.06-.25-.07-.47-.22-.61-.46l-2.55-4.4-2.43,2.72c-.34,.38-.72,.66-1.09,.81-.29,.12-.57,.15-.83,.1-.29-.06-.54-.23-.72-.52-.14-.23-.24-.53-.27-.92l-1.35-17.63s0-.03,0-.04c0-.11,.02-.22,.06-.32,.05-.11,.13-.22,.23-.29,.04-.03,.09-.06,.14-.07,.1-.03,.21-.05,.31-.03,.1,.01,.19,.04,.28,.09,.03,.01,.06,.03,.09,.05l14.56,9.97c.32,.22,.54,.46,.66,.7,.16,.3,.18,.6,.09,.88-.08,.26-.26,.48-.5,.67-.31,.24-.75,.44-1.25,.54,0,0-.01,0-.02,0l-3.56,.74,2.54,4.41c.13,.23,.16,.5,.09,.75-.06,.24-.22,.46-.44,.61,0,0-.02,.01-.03,.02l-2.63,1.52s-.04,.02-.06,.03h0Zm-.48-.83s.05,0,.07,0c0,0,.02-.01,.03-.01l2.6-1.5s.04-.04,.05-.07c0-.02,0-.04,0-.06l-2.97-5.09h0s-.04-.09-.05-.14c-.05-.25,.11-.49,.36-.54l4.18-.74s.01,0,.02,0c.36-.07,.66-.2,.87-.36,.1-.08,.17-.16,.19-.23,.02-.05,0-.1-.03-.17-.06-.11-.18-.23-.37-.36L11.6,11.86l1.32,16.85c.02,.23,.06,.4,.13,.5,.04,.06,.09,.1,.13,.11,.08,.02,.18,0,.3-.05,.24-.1,.5-.3,.75-.57l2.6-3.14h0s.07-.07,.11-.09c.22-.13,.5-.05,.63,.17l3,5.07s.03,.03,.05,.03h0Zm.1-.02c.06-.03,.13-.05,.2-.05l-.2,.05h0ZM10.28,7.04c.89,0,1.71,.36,2.29,.95,.06,.06,.12,.12,.17,.19-.03-.01-.06-.02-.09-.03-.17-.05-.35-.1-.54-.12-.06-.01-.12-.02-.18-.03-.27-.03-.55-.03-.83,0-.04,0-.08,.01-.12,.02-.22-.07-.46-.11-.7-.11-.66,0-1.25,.27-1.68,.69h0c-.43,.43-.69,1.03-.69,1.68,0,.33,.03,.35-.04,.69-.04,.18-.06,.37-.06,.59-.01,.14-.01,.29,0,.44l.03,.41c-.49-.57-.79-1.31-.79-2.13,0-.89,.36-1.7,.95-2.29h0c.59-.6,1.4-.96,2.29-.96h0Zm0-3.52c1.87,0,3.56,.76,4.78,1.98,1.22,1.22,1.98,2.91,1.98,4.78,0,.22-.01,.44-.03,.65l-.99-.68c0-1.57-.65-3-1.68-4.03-1.04-1.04-2.47-1.68-4.06-1.68s-3.02,.64-4.06,1.68-1.68,2.47-1.68,4.06,.64,3.02,1.68,4.06c.53,.53,1.15,.95,1.85,1.24l.09,1.13c-1.02-.33-1.92-.9-2.66-1.64-1.22-1.22-1.98-2.91-1.98-4.78s.76-3.56,1.98-4.78c1.22-1.22,2.91-1.98,4.78-1.98h0Z"/></svg>