<!-- Generator: Adobe Illustrator 25.0.1, SVG Export Plug-In  -->
<svg version="1.1" xmlns="http://www.w3.org/2000/svg" xmlns:xlink="http://www.w3.org/1999/xlink" x="0px" y="0px" width="62.1px"
	 height="61.9px" viewBox="0 0 62.1 61.9" style="overflow:visible;enable-background:new 0 0 62.1 61.9;" xml:space="preserve">
<style type="text/css">
	.st0{fill:#FFFFFF;}
</style>
<defs>
</defs>
<path class="st0" d="M48.1,61.9c-0.7,0-1.4-0.2-1.9-0.6L31.1,51L15.9,61.3c-1.2,0.8-2.7,0.8-3.9,0c-1.2-0.8-1.7-2.3-1.4-3.7L15.4,39
	L1.2,26.9c-1.1-0.9-1.5-2.4-1-3.7c0.4-1.3,1.7-2.3,3.1-2.3l18-1L27.8,2c1-2.7,5.5-2.7,6.5,0l6.5,17.8l18,1c1.4,0.1,2.6,1,3.1,2.3
	c0.4,1.3,0,2.8-1,3.7L46.8,39l4.7,18.6c0.4,1.4-0.2,2.9-1.4,3.7C49.5,61.7,48.8,61.9,48.1,61.9z M31.1,43.4c0.7,0,1.4,0.2,1.9,0.6
	l9.5,6.5l-3-11.8c-0.3-1.3,0.1-2.6,1.1-3.5l9.2-7.9l-11.7-0.7c-1.4-0.1-2.6-1-3-2.3l-4.1-11.1L27,24.3c-0.5,1.3-1.7,2.2-3,2.3
	l-11.7,0.7l9.2,7.9c1,0.8,1.4,2.2,1.1,3.5l-3,11.8l9.5-6.5C29.7,43.6,30.4,43.4,31.1,43.4L31.1,43.4z"/>
</svg>
