<!-- Generator: Adobe Illustrator 25.2.0, SVG Export Plug-In  -->
<svg version="1.1" xmlns="http://www.w3.org/2000/svg" xmlns:xlink="http://www.w3.org/1999/xlink" x="0px" y="0px" width="65.9px"
	 height="65.9px" viewBox="0 0 65.9 65.9" style="overflow:visible;enable-background:new 0 0 65.9 65.9;" xml:space="preserve">
<style type="text/css">
	.st0{fill:#4BBBEB;}
	.st1{fill:#132F3B;}
</style>
<defs>
</defs>
<g>
	<path class="st0" d="M61.3,65.9H4.5c-2.5,0-4.5-2-4.5-4.5V4.5C0,2,2,0,4.5,0h56.8c2.5,0,4.5,2,4.5,4.5v56.8
		C65.9,63.8,63.8,65.9,61.3,65.9z"/>
	<g>
		<path class="st1" d="M32.9,11.9c-5.8,0-10.5,4.7-10.5,10.5V27h-1.6c-2.4,0-4.4,2-4.4,4.4v18.2c0,2.4,2,4.4,4.4,4.4H45
			c2.4,0,4.4-2,4.4-4.4V31.4c0-2.4-2-4.4-4.4-4.4h-1.6v-4.7C43.4,16.6,38.7,11.9,32.9,11.9z M25.2,22.3c0-4.2,3.5-7.7,7.7-7.7
			s7.7,3.5,7.7,7.7V27H25.2V22.3z M45,29.8c0.9,0,1.6,0.7,1.6,1.6v18.2c0,0.9-0.7,1.6-1.6,1.6H20.8c-0.9,0-1.6-0.7-1.6-1.6V31.4
			c0-0.9,0.7-1.6,1.6-1.6H45z"/>
		<path class="st1" d="M32.9,47.9c0.8,0,1.4-0.6,1.4-1.4v-4.9l0.1,0c1.8-0.6,2.9-2.3,2.9-4.2c0-2.4-2-4.4-4.4-4.4s-4.4,2-4.4,4.4
			c0,1.9,1.2,3.5,2.9,4.2l0.1,0v4.9C31.5,47.3,32.2,47.9,32.9,47.9z M31.3,37.5c0-0.9,0.7-1.6,1.6-1.6s1.6,0.7,1.6,1.6
			s-0.7,1.6-1.6,1.6S31.3,38.4,31.3,37.5z"/>
	</g>
</g>
</svg>
