<!-- Generator: Adobe Illustrator 25.0.1, SVG Export Plug-In  -->
<svg version="1.1" xmlns="http://www.w3.org/2000/svg" xmlns:xlink="http://www.w3.org/1999/xlink" x="0px" y="0px" width="125.9px"
	 height="125.9px" viewBox="0 0 125.9 125.9" style="overflow:visible;enable-background:new 0 0 125.9 125.9;"
	 xml:space="preserve">
<style type="text/css">
	.st0{fill:#FFFFFF;}
</style>
<defs>
</defs>
<g>
	<path class="st0" d="M72.4,125.9H53.5c-1.7,0-3.1-1.4-3.1-3.1v-7.2c0-1.9-1.2-3.6-2.9-4.1c-2.9-0.9-4.9-2-7.1-3.2l-1.6-0.9
		c-1.6-0.9-3.6-0.5-5,0.8l-5.1,5.1c-1.2,1.2-3.3,1.2-4.5,0l-11.7-11.7c-1.2-1.2-1.2-3.2,0-4.5l5.1-5.1c1.3-1.3,1.7-3.4,0.8-5
		l-0.9-1.6c-1.2-2.1-2.3-4.1-3.2-7.1c-0.5-1.7-2.2-2.9-4.1-2.9H3.1c-1.7,0-3.1-1.4-3.1-3.1V53.5c0-1.7,1.4-3.1,3.1-3.1h7.2
		c1.9,0,3.6-1.2,4.1-2.9c0.9-2.9,2-4.9,3.2-7.1l0.9-1.6c0.9-1.6,0.5-3.6-0.8-5l-5.1-5.1c-1.2-1.2-1.2-3.2,0-4.5l11.7-11.7
		c0.6-0.6,1.4-0.9,2.2-0.9c0.8,0,1.6,0.3,2.2,0.9l5.1,5.1c1.3,1.3,3.4,1.7,5,0.8l1.6-0.9c2.1-1.2,4.1-2.3,7.1-3.2
		c1.7-0.5,2.9-2.2,2.9-4.1V3.1c0-1.7,1.4-3.1,3.1-3.1h18.9c1.7,0,3.1,1.4,3.1,3.1v7.2c0,1.9,1.2,3.6,2.9,4.1c2.9,0.9,4.9,2,7.1,3.2
		l1.6,0.9c1.6,0.9,3.6,0.5,5-0.8l5.1-5.1c1.2-1.2,3.3-1.2,4.5,0l11.7,11.7c1.2,1.2,1.2,3.2,0,4.5l-5.1,5.1c-1.3,1.3-1.7,3.4-0.8,5
		l0.9,1.6c1.2,2.1,2.3,4.1,3.2,7.1c0.5,1.7,2.2,2.9,4.1,2.9h7.2c1.7,0,3.1,1.4,3.1,3.1v18.9c0,1.7-1.4,3.1-3.1,3.1h-7.2
		c-1.9,0-3.6,1.2-4.1,2.9c-0.9,2.9-2,4.9-3.2,7.1l-0.9,1.6c-0.9,1.6-0.5,3.6,0.8,5l5.1,5.1c1.2,1.2,1.2,3.2,0,4.5l-11.7,11.7
		c-0.6,0.6-1.4,0.9-2.2,0.9s-1.6-0.3-2.2-0.9l-5.1-5.1c-1.3-1.3-3.4-1.7-5-0.8l-1.6,0.9c-2.1,1.2-4.1,2.3-7.1,3.2
		c-1.7,0.5-2.9,2.2-2.9,4.1v7.2C75.5,124.5,74.1,125.9,72.4,125.9L72.4,125.9z M56.7,119.6h12.6v-4.1c0-4.7,3.1-8.8,7.4-10.1
		c2.3-0.7,3.7-1.5,5.8-2.6l1.7-0.9c4-2.2,9.1-1.4,12.4,1.9l2.9,2.9l7.2-7.2l-2.9-2.9c-3.3-3.3-4.1-8.4-1.9-12.4l0.9-1.7
		c1.1-2,2-3.5,2.6-5.7c1.3-4.4,5.4-7.4,10.1-7.4h4.1V56.7h-4.1c-4.7,0-8.8-3.1-10.1-7.4c-0.7-2.2-1.5-3.7-2.6-5.7l-0.9-1.7
		c-2.2-4-1.4-9.1,1.9-12.4l2.9-2.9l-7.2-7.2l-2.9,2.9c-3.3,3.3-8.4,4.1-12.4,1.9l-1.7-0.9c-2-1.1-3.5-2-5.8-2.6
		c-4.4-1.3-7.4-5.4-7.4-10.1V6.3H56.7v4.1c0,4.7-3.1,8.8-7.4,10.1c-2.3,0.7-3.7,1.5-5.8,2.6l-1.7,0.9c-4,2.2-9.1,1.4-12.4-1.9
		l-2.9-2.9l-7.2,7.2l2.9,2.9c3.3,3.3,4.1,8.4,1.9,12.4l-0.9,1.7c-1.1,2-2,3.5-2.6,5.7c-1.3,4.4-5.4,7.4-10.1,7.4H6.3v12.6h4.1
		c4.7,0,8.8,3.1,10.1,7.4c0.7,2.2,1.5,3.7,2.6,5.7l0.9,1.7c2.2,4,1.4,9.1-1.9,12.4l-2.9,2.9l7.2,7.2l2.9-2.9
		c3.3-3.3,8.4-4.1,12.4-1.9l1.7,0.9c2,1.1,3.5,2,5.8,2.6c4.4,1.3,7.4,5.4,7.4,10.1L56.7,119.6z"/>
	<path class="st0" d="M63,100.7c-20.8,0-37.8-16.9-37.8-37.8S42.1,25.2,63,25.2s37.8,16.9,37.8,37.8S83.8,100.7,63,100.7z M63,31.5
		c-17.4,0-31.5,14.1-31.5,31.5S45.6,94.4,63,94.4S94.4,80.3,94.4,63S80.3,31.5,63,31.5z"/>
</g>
</svg>
