<svg xmlns="http://www.w3.org/2000/svg" xmlns:xlink="http://www.w3.org/1999/xlink" version="1.1" x="0px" y="0px" viewBox="0 0 100 100" enable-background="new 0 0 100 100" xml:space="preserve" width="100px" height="100px"><rect fill="none" width="100" height="100"/><g><path d="M11.709,33.765c1.899,0,3.599,1.22,4.231,3.037l0,0c0.996,2.868,3.691,4.794,6.709,4.794c3.013,0,5.708-1.927,6.707-4.794   l-1.236-0.431l1.236,0.43c0.629-1.816,2.332-3.036,4.233-3.036c1.899,0,3.602,1.22,4.234,3.037l0,0   c0.996,2.868,3.691,4.794,6.707,4.794c3.016,0,5.711-1.926,6.709-4.794l0,0c0.629-1.817,2.332-3.037,4.23-3.037   c1.902,0,3.602,1.22,4.231,3.036l1.239-0.43l-1.239,0.431c0.998,2.867,3.696,4.794,6.709,4.794c3.019,0,5.714-1.926,6.709-4.794   l0,0c0.63-1.817,2.332-3.037,4.231-3.037c1.902,0,3.602,1.22,4.233,3.036l2.476-0.86c-0.998-2.869-3.691-4.797-6.709-4.797   c-3.013,0-5.711,1.928-6.709,4.796l1.239,0.431l-1.239-0.43c-0.63,1.815-2.329,3.035-4.231,3.035c-1.899,0-3.602-1.22-4.231-3.036   l0,0c-0.998-2.87-3.693-4.796-6.709-4.796c-3.013,0-5.71,1.928-6.708,4.796L50,36.371l-1.239-0.43   c-0.63,1.815-2.33,3.035-4.231,3.035s-3.602-1.22-4.231-3.035l-1.239,0.43l1.239-0.431c-0.999-2.868-3.694-4.796-6.709-4.796   c-3.018,0-5.713,1.926-6.709,4.796l0,0c-0.632,1.816-2.332,3.036-4.231,3.036c-1.902,0-3.604-1.22-4.234-3.035l-1.236,0.43   l1.236-0.431c-0.999-2.868-3.694-4.796-6.707-4.796c-3.015,0-5.711,1.928-6.709,4.796l2.475,0.862   C8.107,34.985,9.81,33.765,11.709,33.765z"/><path d="M92.524,49.569c-0.632,1.816-2.332,3.036-4.23,3.036c-1.899,0-3.602-1.22-4.234-3.036l0,0   c-0.995-2.868-3.691-4.794-6.709-4.794c-3.013,0-5.711,1.927-6.709,4.794L71.881,50l-1.239-0.43   c-0.63,1.814-2.329,3.034-4.231,3.034c-1.899,0-3.602-1.22-4.231-3.036l0,0c-0.998-2.868-3.693-4.794-6.709-4.794   c-3.013,0-5.71,1.927-6.708,4.794L50,50l-1.239-0.43c-0.63,1.814-2.33,3.034-4.231,3.034s-3.602-1.22-4.231-3.034L39.06,50   l1.239-0.432c-0.999-2.867-3.694-4.794-6.709-4.794c-3.018,0-5.713,1.926-6.709,4.794l0,0c-0.632,1.816-2.332,3.036-4.231,3.036   c-1.902,0-3.604-1.22-4.234-3.034l-2.475,0.86c0.996,2.866,3.691,4.797,6.709,4.797c3.013,0,5.708-1.931,6.707-4.796L28.12,50   l1.236,0.43c0.629-1.815,2.332-3.035,4.233-3.035c1.899,0,3.602,1.22,4.234,3.036l0,0c0.996,2.868,3.691,4.796,6.707,4.796   c3.016,0,5.711-1.928,6.709-4.796l0,0c0.629-1.816,2.332-3.036,4.23-3.036c1.902,0,3.602,1.22,4.231,3.035L60.94,50l-1.239,0.431   c0.998,2.865,3.696,4.796,6.709,4.796c3.019,0,5.714-1.928,6.709-4.796l0,0c0.63-1.816,2.332-3.036,4.231-3.036   c1.902,0,3.602,1.22,4.233,3.035L82.821,50l-1.237,0.431c0.999,2.865,3.694,4.796,6.71,4.796c3.013,0,5.708-1.931,6.706-4.796   L92.524,49.569z"/><path d="M77.351,58.404c-3.016,0-5.711,1.927-6.709,4.794c-0.63,1.817-2.329,3.036-4.231,3.036c-1.899,0-3.602-1.219-4.231-3.036   l0,0c-0.998-2.867-3.69-4.794-6.709-4.794c-3.015,0-5.71,1.927-6.708,4.794c-0.63,1.817-2.33,3.036-4.231,3.036   c-1.899,0-3.602-1.219-4.231-3.036c-0.999-2.867-3.694-4.794-6.709-4.794c-3.018,0-5.713,1.927-6.709,4.794   c-0.632,1.817-2.332,3.036-4.231,3.036c-1.902,0-3.604-1.219-4.234-3.036c-0.996-2.867-3.691-4.794-6.707-4.794   c-3.015,0-5.711,1.927-6.709,4.794l2.475,0.86c0.632-1.813,2.332-3.033,4.234-3.033c1.899,0,3.602,1.221,4.231,3.033   c0.996,2.872,3.691,4.797,6.709,4.797c3.013,0,5.708-1.925,6.707-4.792l-1.236-0.436l1.239,0.431   c0.627-1.813,2.329-3.033,4.231-3.033c1.899,0,3.602,1.221,4.234,3.033c0.996,2.872,3.691,4.797,6.707,4.797   c3.016,0,5.711-1.925,6.709-4.797c0.629-1.813,2.329-3.033,4.23-3.033c1.902,0,3.602,1.221,4.231,3.033l1.239-0.431l-1.239,0.436   c0.998,2.867,3.696,4.792,6.709,4.792c3.019,0,5.714-1.925,6.709-4.797c0.63-1.813,2.33-3.033,4.231-3.033   c1.902,0,3.602,1.221,4.233,3.033l2.476-0.86C83.064,60.331,80.368,58.404,77.351,58.404z"/></g></svg>