<!-- Generator: Adobe Illustrator 25.2.0, SVG Export Plug-In  -->
<svg version="1.1" xmlns="http://www.w3.org/2000/svg" xmlns:xlink="http://www.w3.org/1999/xlink" x="0px" y="0px" width="783.7px"
	 height="3182.6px" viewBox="0 0 783.7 3182.6" style="overflow:visible;enable-background:new 0 0 783.7 3182.6;"
	 xml:space="preserve">
<style type="text/css">
	.st0{fill:#E7484E;}
	.st1{fill:#4BBBEB;}
</style>
<defs>
</defs>
<path class="st0" d="M416.1,52c0-3.3,2.7-6,6-6c3.3,0,6,2.7,6,6c0,3.3-2.7,6-6,6C418.8,58,416.1,55.3,416.1,52z M425.8,52
	c0-2.1-1.7-3.8-3.8-3.8c-2.1,0-3.8,1.7-3.8,3.8c0,2.1,1.7,3.8,3.8,3.8C424.1,55.7,425.8,54,425.8,52z"/>
<path class="st0" d="M588.7,675.5c0-3.3,2.7-6,6-6c3.3,0,6,2.7,6,6c0,3.3-2.7,6-6,6C591.4,681.5,588.7,678.8,588.7,675.5z
	 M598.5,675.5c0-2.1-1.7-3.8-3.8-3.8c-2.1,0-3.8,1.7-3.8,3.8c0,2.1,1.7,3.8,3.8,3.8C596.8,679.3,598.5,677.6,598.5,675.5z"/>
<path class="st0" d="M653.1,6c0-3.3,2.7-6,6-6c3.3,0,6,2.7,6,6s-2.7,6-6,6C655.8,12,653.1,9.3,653.1,6z M662.9,6
	c0-2.1-1.7-3.8-3.8-3.8c-2.1,0-3.8,1.7-3.8,3.8s1.7,3.8,3.8,3.8C661.2,9.8,662.9,8.1,662.9,6z"/>
<rect x="673.9" y="604.2" transform="matrix(0.7071 0.7071 -0.7071 0.7071 629.5278 -301.581)" class="st1" width="9.9" height="9.9"/>
<polygon class="st1" points="721.7,731.9 713.3,746.4 730.1,746.4 "/>
<path class="st0" d="M91.1,138.4c0,3.3-2.7,6-6,6c-3.3,0-6-2.7-6-6c0-3.3,2.7-6,6-6C88.4,132.4,91.1,135.1,91.1,138.4z M81.4,138.4
	c0,2.1,1.7,3.8,3.8,3.8c2.1,0,3.8-1.7,3.8-3.8c0-2.1-1.7-3.8-3.8-3.8C83.1,134.7,81.4,136.3,81.4,138.4z"/>
<path class="st1" d="M26.7,807.9c0,3.3-2.7,6-6,6c-3.3,0-6-2.7-6-6c0-3.3,2.7-6,6-6C24,801.9,26.7,804.6,26.7,807.9z M16.9,807.9
	c0,2.1,1.7,3.8,3.8,3.8c2.1,0,3.8-1.7,3.8-3.8c0-2.1-1.7-3.8-3.8-3.8C18.6,804.2,16.9,805.9,16.9,807.9z"/>
<rect x="290.3" y="63.5" transform="matrix(-0.7071 -0.7071 0.7071 -0.7071 455.6349 325.7328)" class="st1" width="9.9" height="9.9"/>
<rect x="27" y="630.1" transform="matrix(-0.7071 -0.7071 0.7071 -0.7071 -394.5209 1106.6324)" class="st1" width="9.9" height="9.9"/>
<rect x="2.1" y="199.8" transform="matrix(-0.7071 -0.7071 0.7071 -0.7071 -132.798 354.5526)" class="st1" width="9.9" height="9.9"/>
<polygon class="st1" points="26.4,67.5 34.7,53 18,53 "/>
<path class="st0" d="M783.7,200.6c0,3.3-2.7,6-6,6c-3.3,0-6-2.7-6-6c0-3.3,2.7-6,6-6C781.1,194.6,783.7,197.3,783.7,200.6z
	 M774,200.6c0,2.1,1.7,3.8,3.8,3.8c2.1,0,3.8-1.7,3.8-3.8c0-2.1-1.7-3.8-3.8-3.8C775.7,196.9,774,198.5,774,200.6z"/>
<rect x="688.7" y="262" transform="matrix(-0.7071 -0.7071 0.7071 -0.7071 995.3594 946.2283)" class="st1" width="9.9" height="9.9"/>
<polygon class="st1" points="719,129.7 727.4,115.2 710.6,115.2 "/>
<rect x="619.7" y="364.5" transform="matrix(-0.7071 -0.7071 0.7071 -0.7071 805.181 1072.509)" class="st1" width="9.9" height="9.9"/>
<path class="st0" d="M745.5,353c0-3.3,2.7-6,6-6c3.3,0,6,2.7,6,6c0,3.3-2.7,6-6,6C748.2,359,745.5,356.3,745.5,353z M755.3,353
	c0-2.1-1.7-3.8-3.8-3.8c-2.1,0-3.8,1.7-3.8,3.8c0,2.1,1.7,3.8,3.8,3.8C753.6,356.7,755.3,355,755.3,353z"/>
<polygon class="st1" points="728.3,456.1 713.8,447.8 713.8,464.5 "/>
<path class="st0" d="M135.4,693.8c0,3.3-2.7,6-6,6c-3.3,0-6-2.7-6-6c0-3.3,2.7-6,6-6C132.7,687.8,135.4,690.5,135.4,693.8z
	 M125.6,693.8c0,2.1,1.7,3.8,3.8,3.8c2.1,0,3.8-1.7,3.8-3.8c0-2.1-1.7-3.8-3.8-3.8C127.3,690,125.6,691.7,125.6,693.8z"/>
<path class="st0" d="M609.7,1531c0-3.3,2.7-6,6-6c3.3,0,6,2.7,6,6s-2.7,6-6,6C612.4,1537,609.7,1534.3,609.7,1531z M619.5,1531
	c0-2.1-1.7-3.8-3.8-3.8c-2.1,0-3.8,1.7-3.8,3.8c0,2.1,1.7,3.8,3.8,3.8C617.8,1534.7,619.5,1533.1,619.5,1531z"/>
<path class="st0" d="M653.1,861.5c0-3.3,2.7-6,6-6c3.3,0,6,2.7,6,6c0,3.3-2.7,6-6,6C655.8,867.5,653.1,864.8,653.1,861.5z
	 M662.9,861.5c0-2.1-1.7-3.8-3.8-3.8c-2.1,0-3.8,1.7-3.8,3.8c0,2.1,1.7,3.8,3.8,3.8C661.2,865.2,662.9,863.5,662.9,861.5z"/>
<rect x="694.9" y="1459.7" transform="matrix(0.7071 0.7071 -0.7071 0.7071 1240.5684 -65.8873)" class="st1" width="9.9" height="9.9"/>
<polygon class="st1" points="96.6,1186.9 82,1178.5 82,1195.3 "/>
<polygon class="st1" points="639.6,1609.3 631.2,1623.9 648,1623.9 "/>
<path class="st0" d="M91.1,993.9c0,3.3-2.7,6-6,6c-3.3,0-6-2.7-6-6s2.7-6,6-6C88.4,987.9,91.1,990.6,91.1,993.9z M81.4,993.9
	c0,2.1,1.7,3.8,3.8,3.8c2.1,0,3.8-1.7,3.8-3.8s-1.7-3.8-3.8-3.8C83.1,990.1,81.4,991.8,81.4,993.9z"/>
<rect x="2.1" y="1055.3" transform="matrix(-0.7071 -0.7071 0.7071 -0.7071 -737.6883 1814.9529)" class="st1" width="9.9" height="9.9"/>
<polygon class="st1" points="53.8,1343.7 62.2,1329.1 45.4,1329.1 "/>
<polygon class="st1" points="26.4,923 34.7,908.5 18,908.5 "/>
<rect x="640.7" y="1220" transform="matrix(-0.7071 -0.7071 0.7071 -0.7071 236.1405 2547.7581)" class="st1" width="9.9" height="9.9"/>
<path class="st0" d="M766.5,1208.4c0-3.3,2.7-6,6-6c3.3,0,6,2.7,6,6c0,3.3-2.7,6-6,6C769.2,1214.4,766.5,1211.7,766.5,1208.4z
	 M776.3,1208.4c0-2.1-1.7-3.8-3.8-3.8c-2.1,0-3.8,1.7-3.8,3.8c0,2.1,1.7,3.8,3.8,3.8C774.6,1212.2,776.3,1210.5,776.3,1208.4z"/>
<polygon class="st1" points="749.3,1311.6 734.8,1303.2 734.8,1320 "/>
<path class="st0" d="M416.1,2022c0-3.3,2.7-6,6-6c3.3,0,6,2.7,6,6c0,3.3-2.7,6-6,6C418.8,2028,416.1,2025.3,416.1,2022z M425.8,2022
	c0-2.1-1.7-3.8-3.8-3.8c-2.1,0-3.8,1.7-3.8,3.8c0,2.1,1.7,3.8,3.8,3.8C424.1,2025.7,425.8,2024,425.8,2022z"/>
<path class="st0" d="M588.7,2604.5c0-3.3,2.7-6,6-6c3.3,0,6,2.7,6,6s-2.7,6-6,6C591.4,2610.5,588.7,2607.8,588.7,2604.5z
	 M598.5,2604.5c0-2.1-1.7-3.8-3.8-3.8c-2.1,0-3.8,1.7-3.8,3.8c0,2.1,1.7,3.8,3.8,3.8C596.8,2608.3,598.5,2606.6,598.5,2604.5z"/>
<path class="st0" d="M653.1,1935c0-3.3,2.7-6,6-6c3.3,0,6,2.7,6,6c0,3.3-2.7,6-6,6C655.8,1941,653.1,1938.3,653.1,1935z M662.9,1935
	c0-2.1-1.7-3.8-3.8-3.8c-2.1,0-3.8,1.7-3.8,3.8s1.7,3.8,3.8,3.8C661.2,1938.8,662.9,1937.1,662.9,1935z"/>
<rect x="673.9" y="2533.2" transform="matrix(0.7071 0.7071 -0.7071 0.7071 1993.4932 263.3665)" class="st1" width="9.9" height="9.9"/>
<polygon class="st1" points="721.7,2660.9 713.3,2675.4 730.1,2675.4 "/>
<path class="st0" d="M91.1,2067.4c0,3.3-2.7,6-6,6c-3.3,0-6-2.7-6-6s2.7-6,6-6C88.4,2061.4,91.1,2064.1,91.1,2067.4z M81.4,2067.4
	c0,2.1,1.7,3.8,3.8,3.8c2.1,0,3.8-1.7,3.8-3.8s-1.7-3.8-3.8-3.8C83.1,2063.7,81.4,2065.3,81.4,2067.4z"/>
<path class="st1" d="M26.7,2736.9c0,3.3-2.7,6-6,6c-3.3,0-6-2.7-6-6s2.7-6,6-6C24,2730.9,26.7,2733.6,26.7,2736.9z M16.9,2736.9
	c0,2.1,1.7,3.8,3.8,3.8c2.1,0,3.8-1.7,3.8-3.8c0-2.1-1.7-3.8-3.8-3.8C18.6,2733.2,16.9,2734.9,16.9,2736.9z"/>
<rect x="290.3" y="2033.5" transform="matrix(-0.7071 -0.7071 0.7071 -0.7071 -937.3209 3688.7776)" class="st1" width="9.9" height="9.9"/>
<rect x="27" y="2559.1" transform="matrix(-0.7071 -0.7071 0.7071 -0.7071 -1758.4863 4399.6851)" class="st1" width="9.9" height="9.9"/>
<rect x="2.1" y="2128.8" transform="matrix(-0.7071 -0.7071 0.7071 -0.7071 -1496.7634 3647.6052)" class="st1" width="9.9" height="9.9"/>
<polygon class="st1" points="31.9,1954.5 40.3,1940 23.5,1940 "/>
<path class="st0" d="M783.7,2129.6c0,3.3-2.7,6-6,6c-3.3,0-6-2.7-6-6s2.7-6,6-6C781.1,2123.6,783.7,2126.3,783.7,2129.6z
	 M774,2129.6c0,2.1,1.7,3.8,3.8,3.8c2.1,0,3.8-1.7,3.8-3.8c0-2.1-1.7-3.8-3.8-3.8C775.7,2125.9,774,2127.5,774,2129.6z"/>
<rect x="688.7" y="2191" transform="matrix(-0.7071 -0.7071 0.7071 -0.7071 -368.606 4239.2808)" class="st1" width="9.9" height="9.9"/>
<polygon class="st1" points="719,2058.7 727.4,2044.2 710.6,2044.2 "/>
<path class="st0" d="M745.5,2282c0-3.3,2.7-6,6-6c3.3,0,6,2.7,6,6s-2.7,6-6,6C748.2,2288,745.5,2285.3,745.5,2282z M755.3,2282
	c0-2.1-1.7-3.8-3.8-3.8c-2.1,0-3.8,1.7-3.8,3.8s1.7,3.8,3.8,3.8C753.6,2285.7,755.3,2284,755.3,2282z"/>
<path class="st0" d="M135.4,2622.8c0,3.3-2.7,6-6,6c-3.3,0-6-2.7-6-6c0-3.3,2.7-6,6-6C132.7,2616.8,135.4,2619.5,135.4,2622.8z
	 M125.6,2622.8c0,2.1,1.7,3.8,3.8,3.8c2.1,0,3.8-1.7,3.8-3.8c0-2.1-1.7-3.8-3.8-3.8C127.3,2619,125.6,2620.7,125.6,2622.8z"/>
<path class="st0" d="M604.1,2749.7c0-3.3,2.7-6,6-6c3.3,0,6,2.7,6,6c0,3.3-2.7,6-6,6C606.8,2755.7,604.1,2753,604.1,2749.7z
	 M613.8,2749.7c0-2.1-1.7-3.8-3.8-3.8c-2.1,0-3.8,1.7-3.8,3.8c0,2.1,1.7,3.8,3.8,3.8C612.2,2753.5,613.8,2751.8,613.8,2749.7z"/>
<polygon class="st1" points="108.6,2254.1 123.1,2262.5 123.1,2245.7 "/>
<path class="st0" d="M114,2447.1c0-3.3,2.7-6,6-6c3.3,0,6,2.7,6,6s-2.7,6-6,6C116.7,2453.1,114,2450.4,114,2447.1z M123.8,2447.1
	c0-2.1-1.7-3.8-3.8-3.8c-2.1,0-3.8,1.7-3.8,3.8c0,2.1,1.7,3.8,3.8,3.8C122.1,2450.9,123.8,2449.2,123.8,2447.1z"/>
<rect x="193.2" y="2375.8" transform="matrix(0.7071 0.7071 -0.7071 0.7071 1741.4144 557.1566)" class="st1" width="9.9" height="9.9"/>
<polygon class="st1" points="151.4,2097.3 143,2111.9 159.8,2111.9 "/>
<polyline class="st1" points="187.2,2532.5 178.8,2518 170.4,2532.5 "/>
<path class="st0" d="M155.2,1192.4c0,3.3-2.7,6-6,6c-3.3,0-6-2.7-6-6c0-3.3,2.7-6,6-6C152.5,1186.4,155.2,1189.1,155.2,1192.4z
	 M145.4,1192.4c0,2.1,1.7,3.8,3.8,3.8c2.1,0,3.8-1.7,3.8-3.8c0-2.1-1.7-3.8-3.8-3.8C147.1,1188.6,145.4,1190.3,145.4,1192.4z"/>
<rect x="194.9" y="1315" transform="matrix(-0.7071 -0.7071 0.7071 -0.7071 -592.0953 2394.7722)" class="st1" width="9.9" height="9.9"/>
<polygon class="st1" points="171,1100.6 179.4,1086.1 162.6,1086.1 "/>
<rect x="151.1" y="1410.3" transform="matrix(0.7071 0.7071 -0.7071 0.7071 1046.3927 304.1547)" class="st1" width="9.9" height="9.9"/>
<path class="st0" d="M79,1494.1c0,3.3-2.7,6-6,6c-3.3,0-6-2.7-6-6c0-3.3,2.7-6,6-6C76.3,1488.1,79,1490.8,79,1494.1z M69.2,1494.1
	c0,2.1,1.7,3.8,3.8,3.8c2.1,0,3.8-1.7,3.8-3.8s-1.7-3.8-3.8-3.8C70.9,1490.3,69.2,1492,69.2,1494.1z"/>
<polygon class="st1" points="717.3,1825.1 708.9,1839.6 725.7,1839.6 "/>
<rect x="610.1" y="1748.6" transform="matrix(-0.7071 -0.7071 0.7071 -0.7071 -189.889 3428.3979)" class="st1" width="9.9" height="9.9"/>
<path class="st0" d="M692.1,1674.7c0-3.3,2.7-6,6-6c3.3,0,6,2.7,6,6c0,3.3-2.7,6-6,6C694.8,1680.7,692.1,1678,692.1,1674.7z
	 M701.9,1674.7c0-2.1-1.7-3.8-3.8-3.8s-3.8,1.7-3.8,3.8s1.7,3.8,3.8,3.8S701.9,1676.8,701.9,1674.7z"/>
<rect x="204.2" y="2834.7" transform="matrix(0.7071 0.7071 -0.7071 0.7071 2069.1531 683.7906)" class="st1" width="9.9" height="9.9"/>
<path class="st0" d="M105.6,2780.9c0-3.3,2.7-6,6-6c3.3,0,6,2.7,6,6s-2.7,6-6,6C108.3,2786.9,105.6,2784.2,105.6,2780.9z
	 M115.4,2780.9c0-2.1-1.7-3.8-3.8-3.8c-2.1,0-3.8,1.7-3.8,3.8c0,2.1,1.7,3.8,3.8,3.8C113.7,2784.7,115.4,2783,115.4,2780.9z"/>
<path class="st0" d="M127,2956.6c0,3.3-2.7,6-6,6c-3.3,0-6-2.7-6-6c0-3.3,2.7-6,6-6C124.3,2950.6,127,2953.3,127,2956.6z
	 M117.3,2956.6c0,2.1,1.7,3.8,3.8,3.8c2.1,0,3.8-1.7,3.8-3.8c0-2.1-1.7-3.8-3.8-3.8C118.9,2952.8,117.3,2954.5,117.3,2956.6z"/>
<rect x="38" y="3018" transform="matrix(-0.7071 -0.7071 0.7071 -0.7071 -2064.2217 5190.9521)" class="st1" width="9.9" height="9.9"/>
<polyline class="st1" points="53.9,2871.2 62.3,2885.7 70.6,2871.2 "/>
<polygon class="st1" points="351.9,1371.5 337.4,1363.2 337.4,1379.9 "/>
<path class="st0" d="M410.6,1377c0,3.3-2.7,6-6,6c-3.3,0-6-2.7-6-6s2.7-6,6-6C407.9,1371,410.6,1373.7,410.6,1377z M400.8,1377
	c0,2.1,1.7,3.8,3.8,3.8c2.1,0,3.8-1.7,3.8-3.8c0-2.1-1.7-3.8-3.8-3.8C402.5,1373.3,400.8,1375,400.8,1377z"/>
<path class="st0" d="M403.1,669.7c0,3.3-2.7,6-6,6c-3.3,0-6-2.7-6-6c0-3.3,2.7-6,6-6C400.4,663.7,403.1,666.4,403.1,669.7z
	 M393.3,669.7c0,2.1,1.7,3.8,3.8,3.8c2.1,0,3.8-1.7,3.8-3.8c0-2.1-1.7-3.8-3.8-3.8C395,665.9,393.3,667.6,393.3,669.7z"/>
<rect x="308" y="731.1" transform="matrix(-0.7071 -0.7071 0.7071 -0.7071 13.8673 1477.8339)" class="st1" width="9.9" height="9.9"/>
<path class="st0" d="M419.8,2660.9c0,3.3-2.7,6-6,6c-3.3,0-6-2.7-6-6s2.7-6,6-6C417.1,2654.9,419.8,2657.6,419.8,2660.9z
	 M410,2660.9c0,2.1,1.7,3.8,3.8,3.8c2.1,0,3.8-1.7,3.8-3.8c0-2.1-1.7-3.8-3.8-3.8C411.7,2657.1,410,2658.8,410,2660.9z"/>
<polygon class="st1" points="508.4,2731.8 516.8,2717.3 500.1,2717.3 "/>
<path class="st1" d="M767.2,3046.7c0-3.3,2.7-6,6-6c3.3,0,6,2.7,6,6s-2.7,6-6,6C769.9,3052.7,767.2,3050,767.2,3046.7z
	 M776.9,3046.7c0-2.1-1.7-3.8-3.8-3.8c-2.1,0-3.8,1.7-3.8,3.8c0,2.1,1.7,3.8,3.8,3.8C775.3,3050.4,776.9,3048.8,776.9,3046.7z"/>
<rect x="579.8" y="2938.9" transform="matrix(-0.7071 -0.7071 0.7071 -0.7071 -1083.3545 5439.0972)" class="st1" width="9.9" height="9.9"/>
<path class="st0" d="M688.2,3002.7c0,3.3-2.7,6-6,6c-3.3,0-6-2.7-6-6s2.7-6,6-6C685.5,2996.7,688.2,2999.4,688.2,3002.7z
	 M678.5,3002.7c0,2.1,1.7,3.8,3.8,3.8c2.1,0,3.8-1.7,3.8-3.8s-1.7-3.8-3.8-3.8C680.2,2998.9,678.5,3000.6,678.5,3002.7z"/>
<path class="st0" d="M666.9,2827c0-3.3,2.7-6,6-6c3.3,0,6,2.7,6,6c0,3.3-2.7,6-6,6C669.5,2833,666.9,2830.3,666.9,2827z M676.6,2827
	c0-2.1-1.7-3.8-3.8-3.8c-2.1,0-3.8,1.7-3.8,3.8c0,2.1,1.7,3.8,3.8,3.8C674.9,2830.8,676.6,2829.1,676.6,2827z"/>
<polyline class="st1" points="740,2912.4 731.6,2897.9 723.2,2912.4 "/>
<rect x="659.7" y="3075.3" transform="matrix(-0.7071 -0.7071 0.7071 -0.7071 -1043.3086 5728.4927)" class="st1" width="9.9" height="9.9"/>
<rect x="615.9" y="3170.6" transform="matrix(0.7071 0.7071 -0.7071 0.7071 2427.2026 491.0449)" class="st1" width="9.9" height="9.9"/>
<path class="st0" d="M133.8,3072.8c0-3.3,2.7-6,6-6c3.3,0,6,2.7,6,6s-2.7,6-6,6C136.5,3078.8,133.8,3076.1,133.8,3072.8z
	 M143.6,3072.8c0-2.1-1.7-3.8-3.8-3.8c-2.1,0-3.8,1.7-3.8,3.8s1.7,3.8,3.8,3.8C141.9,3076.5,143.6,3074.8,143.6,3072.8z"/>
<polyline class="st1" points="207,3158.2 198.6,3143.7 190.2,3158.2 "/>
</svg>
