<!-- Generator: Adobe Illustrator 25.2.0, SVG Export Plug-In  -->
<svg version="1.1" xmlns="http://www.w3.org/2000/svg" xmlns:xlink="http://www.w3.org/1999/xlink" x="0px" y="0px" width="276.6px"
	 height="284px" viewBox="0 0 276.6 284" style="overflow:visible;enable-background:new 0 0 276.6 284;" xml:space="preserve">
<style type="text/css">
	.st0{fill:none;stroke:#E6E6E6;stroke-width:2;stroke-miterlimit:10;}
</style>
<defs>
</defs>
<g>
	<polyline class="st0" points="33.9,124.9 33.9,283 101.3,283 101.3,177.1 126.4,177.1 150.6,177.1 176.3,177.1 176.3,283 
		243.2,283 243.2,124.9 	"/>
	<polygon class="st0" points="30.1,1 1.1,102.1 22,124.9 48.1,124.9 70.4,102.1 84.7,1 	"/>
	<polygon class="st0" points="138.3,101.6 126.4,122.5 86.6,122.5 70.4,102.1 84.7,1 138.3,1 	"/>
	<polygon class="st0" points="246.5,1 275.5,102.1 254.6,124.9 228.5,124.9 206.2,102.1 191.9,1 	"/>
	<polygon class="st0" points="138.3,101.6 150.2,122.5 189.6,122.5 206.2,102.1 191.9,1 138.3,1 	"/>
</g>
</svg>
