<!-- Generator: Adobe Illustrator 25.2.0, SVG Export Plug-In  -->
<svg version="1.1" xmlns="http://www.w3.org/2000/svg" xmlns:xlink="http://www.w3.org/1999/xlink" x="0px" y="0px" width="139.6px"
	 height="129.7px" viewBox="0 0 139.6 129.7" style="overflow:visible;enable-background:new 0 0 139.6 129.7;"
	 xml:space="preserve">
<style type="text/css">
	.st0{fill:none;stroke:#E7484E;stroke-width:2;stroke-miterlimit:10;}
</style>
<defs>
</defs>
<g>
	<path class="st0" d="M63.1,72.8c1.5-0.4,3.1-0.9,4.7-1.5c24.2-9.4,41.4-39.5,41.4-39.5l-17-9"/>
	<path class="st0" d="M94.6,18c-2.6-1.4-5.8-0.4-7.2,2.2c-1.4,2.6-0.4,5.8,2.2,7.2s5.8,0.4,7.2-2.2C98.2,22.6,97.2,19.4,94.6,18
		L94.6,18z"/>
	<g>
		<path class="st0" d="M72,12.2L53.7,1.4c0,0-13.7,24.8-10.6,49.3"/>
	</g>
	<path class="st0" d="M74.7,7.7c2.5,1.5,3.3,4.7,1.9,7.3c-1.5,2.5-4.7,3.3-7.3,1.9c-2.5-1.5-3.3-4.7-1.9-7.3
		C68.9,7,72.2,6.2,74.7,7.7L74.7,7.7z"/>
	<g>
		<path class="st0" d="M45.9,108.7c2.1,5.2,6.1,10.3,12.7,14.7c28.7,18.9,49-18.7,49-18.7l13.7-25.3 M30.8,52.9l-0.4-17.4
			 M29.5,44.1C25.7,33.7,20.1,32,6.8,35.8l0,0C14.6,47.3,19.9,49.7,29.5,44.1 M38.2,57c-2.8,0.4-6.5-2.1-6.5-2.1
			C13.4,43.5-3.5,63.6,2.1,80.1c6.5,19.1,12.6,36,30.9,27.9c18.8,7.1,23.8-10.1,29.3-29.6C67,61.8,49.5,43,32.1,54.5 M138.6,69.9
			c0-6.2-5-11.2-11.2-11.2c-6.2,0-11.2,5-11.2,11.2c0,6.2,5,11.2,11.2,11.2C133.6,81.2,138.6,76.2,138.6,69.9L138.6,69.9z"/>
	</g>
</g>
</svg>
