<!-- Generator: Adobe Illustrator 25.0.1, SVG Export Plug-In  -->
<svg version="1.1" xmlns="http://www.w3.org/2000/svg" xmlns:xlink="http://www.w3.org/1999/xlink" x="0px" y="0px" width="180.1px"
	 height="161.6px" viewBox="0 0 180.1 161.6" style="overflow:visible;enable-background:new 0 0 180.1 161.6;"
	 xml:space="preserve">
<style type="text/css">
	.st0{fill:#FFFFFF;}
</style>
<defs>
</defs>
<path class="st0" d="M158.1,0H22C9.9,0,0,9.9,0,22v81c0,12.2,9.9,22,22,22h38.8v33.1c0,1.9,1.6,3.5,3.5,3.5c0.9,0,1.8-0.4,2.5-1
	l35.5-35.5h55.9c12.2,0,22-9.9,22-22V22C180.1,9.9,170.3,0,158.1,0z M173.2,103c0,8.3-6.8,15.1-15.1,15.1h-57.3
	c-0.9,0-1.8,0.4-2.4,1l-30.6,30.6v-28.2c0-1.9-1.5-3.5-3.5-3.5c0,0,0,0,0,0H22c-8.3,0-15.1-6.8-15.1-15.1V22
	c0-8.3,6.8-15.1,15.1-15.1h136.1c8.3,0,15.1,6.8,15.1,15.1V103z"/>
</svg>
