<svg xmlns:x="http://ns.adobe.com/Extensibility/1.0/" xmlns:i="http://ns.adobe.com/AdobeIllustrator/10.0/" xmlns:graph="http://ns.adobe.com/Graphs/1.0/" xmlns="http://www.w3.org/2000/svg" xmlns:xlink="http://www.w3.org/1999/xlink" version="1.1" x="0px" y="0px" viewBox="0 0 100 100" enable-background="new 0 0 100 100" xml:space="preserve" width="100px" height="100px"><switch><g i:extraneous="self"><path d="M32.5,53.7c0,8.4,0.1,19.3,0.5,25.6c1.3,21.1,32.4,20.8,34.1,0c0.3-8.1,0.4-17.6,0.4-25.6C61.6,57.3,37.9,57.3,32.5,53.7z     M65.1,79.2C64.3,88.7,56.9,93,49.8,93c0,0,0,0,0,0c-7,0-14.3-4.3-14.8-13.9c-0.3-5.5-0.4-14.7-0.4-22.4c5,1.5,12.5,1.7,15.1,1.7    c2.7,0,10.5-0.1,15.8-1.8C65.4,63.3,65.4,71.9,65.1,79.2z M67.9,19C66.2,0.4,33.5,0.2,32.1,19c-0.7,9.8-0.4,33-0.4,33    c3,4.7,32.7,4.7,36.7,0C68.4,44.4,68.5,30.1,67.9,19z M66.4,48.2l0,2.9c-1.8,1.1-7.6,2.4-16.7,2.4c-9.2,0-14.6-1.4-16-2.3    c0-4.1-0.2-23.4,0.4-32C34.7,10.8,42.4,7,49.8,7c7.2,0,15.4,3.8,16.1,12.2C66.4,28.5,66.4,40.4,66.4,48.2z"/></g></switch></svg>