<!-- Generator: Adobe Illustrator 25.0.1, SVG Export Plug-In  -->
<svg version="1.1" xmlns="http://www.w3.org/2000/svg" xmlns:xlink="http://www.w3.org/1999/xlink" x="0px" y="0px" width="80.2px"
	 height="76.6px" viewBox="0 0 80.2 76.6" style="overflow:visible;enable-background:new 0 0 80.2 76.6;" xml:space="preserve">
<style type="text/css">
	.st0{fill:#FFFFFF;}
</style>
<defs>
</defs>
<path class="st0" d="M77.2,26.7l-23.5-3.4L43.2,1.9c-0.8-1.7-2.9-2.4-4.6-1.6c-0.7,0.3-1.2,0.9-1.6,1.6L26.5,23.2L3,26.7
	c-1.9,0.3-3.2,2-2.9,3.9c0.1,0.8,0.5,1.5,1,2l17,16.6l-4,23.4c-0.3,1.9,0.9,3.7,2.8,4c0.8,0.1,1.5,0,2.2-0.3l21-11.1l21,11.1
	c1.7,0.9,3.8,0.2,4.7-1.5c0.4-0.7,0.5-1.4,0.3-2.2l-4-23.4l17-16.6c1.4-1.3,1.4-3.5,0.1-4.9C78.7,27.1,78,26.8,77.2,26.7L77.2,26.7z
	 M56,45.5c-0.8,0.8-1.2,1.9-1,3.1l3.1,18.3l-16.4-8.6c-1-0.5-2.2-0.5-3.2,0l-16.4,8.6l3.1-18.3c0.2-1.1-0.2-2.3-1-3.1l-13.3-13
	l18.4-2.7c1.1-0.2,2.1-0.9,2.6-1.9l8.2-16.6l8.2,16.6c0.5,1,1.5,1.7,2.6,1.9l18.4,2.7L56,45.5z"/>
</svg>
