<!-- Generator: Adobe Illustrator 25.0.0, SVG Export Plug-In  -->
<svg version="1.1" xmlns="http://www.w3.org/2000/svg" xmlns:xlink="http://www.w3.org/1999/xlink" x="0px" y="0px" width="821.7px"
	 height="821.9px" viewBox="0 0 821.7 821.9" style="overflow:visible;enable-background:new 0 0 821.7 821.9;"
	 xml:space="preserve">
<style type="text/css">
	.st0{fill:#0476A8;}
</style>
<defs>
</defs>
<g>
	<path class="st0" d="M392.2,541.2c-9-1.3-17.8-3.5-26.2-6.5v0c-0.5-0.2-1-0.3-1.4-0.5c-0.1,0-0.1,0-0.1,0c-0.2-0.1-0.5-0.2-0.8-0.3
		c-0.1,0-0.1,0-0.1,0c-0.1-0.1-0.3-0.1-0.4-0.2c-0.1,0-0.2,0-0.2-0.1c-0.2-0.1-0.4-0.2-0.6-0.2c-0.1,0-0.2-0.1-0.3-0.1
		c-0.1,0-0.2-0.1-0.4-0.1c-0.2-0.1-0.3-0.1-0.5-0.2c-0.1,0-0.2-0.1-0.2-0.1c-0.1-0.1-0.3-0.1-0.4-0.2c-0.1,0-0.2-0.1-0.2-0.1
		c-0.2-0.1-0.4-0.2-0.6-0.2c-0.1,0-0.1,0-0.2-0.1c-0.2-0.1-0.4-0.1-0.5-0.2c-0.1,0-0.1,0-0.1,0c-0.2-0.1-0.5-0.2-0.6-0.3
		c-0.1,0-0.1-0.1-0.1-0.1c-0.4-0.2-0.9-0.4-1.3-0.6c0,0-0.1,0-0.1,0c-0.2-0.1-0.5-0.2-0.7-0.3c-0.3-0.1-0.5-0.2-0.7-0.3h0
		c-8.2-3.8-16-8.5-23.1-13.9l-14.8,19.8c20.9,15.7,45.6,25.9,71.4,29.5L392.2,541.2z"/>
	<path class="st0" d="M567,411c0-41.8-16.3-81.1-45.9-110.6l-17.4,17.5c22.6,22.5,37,53.2,38.5,87.2c0,0.1,0,0.1,0,0.2
		c0,0.2,0,0.4,0,0.6c0,0.1,0,0.2,0,0.3c0,0.2,0,0.3,0,0.5c0,0.1,0,0.2,0,0.3c0,0.2,0,0.3,0,0.5c0,0.2,0,0.3,0,0.5c0,0.1,0,0.2,0,0.3
		c0,0.1,0,0.1,0,0.2c0,0.8,0,1.6,0,2.3c0,0.3,0,0.5,0,0.8c0,0.1,0,0.2,0,0.3c0,0.2,0,0.4,0,0.6c0,0.1,0,0.2,0,0.3c0,0.2,0,0.3,0,0.5
		c0,0.1,0,0.2,0,0.3c0,0.2,0,0.3,0,0.5c0,0.1,0,0.2,0,0.4c0,0.2,0,0.3,0,0.5c0,0.1,0,0.2,0,0.3c0,0.2,0,0.3,0,0.5c0,0.1,0,0.2,0,0.3
		c0,0.2,0,0.3,0,0.5c0,0.1,0,0.2,0,0.3c0,0.2,0,0.4,0,0.6c0,0.1,0,0.2,0,0.2c0,0.2,0,0.5,0,0.7c0,0,0,0.1,0,0.1
		c0,0.3-0.1,0.6-0.1,0.8c0,0,0,0.1,0,0.1c0,0.2-0.1,0.5-0.1,0.7c0,0.1,0,0.1,0,0.2c0,0.2-0.1,0.4-0.1,0.6c0,0.1,0,0.2,0,0.3
		c0,0.2-0.1,0.4-0.1,0.5c0,0.1,0,0.2,0,0.3c0,0.2-0.1,0.4-0.1,0.5c0,0.1,0,0.2,0,0.3c0,0.2-0.1,0.4-0.1,0.5c0,0.1,0,0.2,0,0.3
		c0,0.2,0,0.4,0,0.5c0,0.1,0,0.2-0.1,0.3c0,0.2,0,0.4-0.1,0.6c0,0.1,0,0.1,0,0.2c0,0.2-0.1,0.5-0.1,0.7v0.1
		c-0.1,0.6-0.1,1.1-0.2,1.7c0,0,0,0,0,0c0,0.3-0.1,0.5-0.1,0.8c0,0,0,0.1,0,0.1c-0.1,0.2-0.1,0.4-0.1,0.7c0,0.1,0,0.1,0,0.2
		c0,0.2-0.1,0.4-0.1,0.6c0,0.1,0,0.1,0,0.2c0,0.2-0.1,0.4-0.1,0.6c0,0.1-0.1,0.1-0.1,0.2c0,0.2-0.1,0.4-0.1,0.6c0,0,0,0.1-0.1,0.2
		c0,0.2-0.1,0.4-0.1,0.6c0,0,0,0.1-0.1,0.2c0,0.2-0.1,0.5-0.1,0.7c0,0,0,0,0,0c-0.2,1.1-0.4,2.1-0.6,3.2c0,0,0,0,0,0
		c-0.1,0.3-0.1,0.5-0.1,0.8c0,0,0,0,0,0.1c0,0.2-0.1,0.5-0.1,0.7c0,0,0,0.1,0,0.1c-0.1,0.2-0.1,0.5-0.2,0.7c0,0,0,0.1,0,0.1
		c-0.1,0.2-0.1,0.5-0.2,0.7l0,0c-4.8,21.5-14.9,41-28.8,57.1l18.6,16.1C553.5,484.8,567,448.5,567,411z"/>
	<path class="st0" d="M283.2,379.1c0.1-0.2,0.1-0.5,0.2-0.7c0,0,0-0.1,0-0.1c0.1-0.2,0.1-0.4,0.1-0.6c0,0,0.1-0.1,0.1-0.1
		c0.1-0.2,0.1-0.4,0.2-0.6c0-0.1,0-0.1,0-0.2c0.1-0.2,0.1-0.4,0.2-0.6c0-0.1,0-0.1,0.1-0.2c0-0.2,0.1-0.4,0.2-0.5
		c0-0.1,0-0.2,0.1-0.2c0-0.2,0.1-0.4,0.1-0.5c0-0.1,0.1-0.2,0.1-0.3c0.1-0.2,0.1-0.3,0.2-0.5c0-0.1,0-0.2,0.1-0.3
		c0-0.2,0.1-0.3,0.2-0.5c0-0.1,0.1-0.2,0.1-0.3c0.1-0.1,0.1-0.3,0.1-0.4c0.1-0.1,0.1-0.2,0.1-0.3c0-0.1,0.1-0.3,0.1-0.5
		c0-0.1,0.1-0.2,0.1-0.3c0-0.1,0.1-0.3,0.2-0.4c0-0.1,0.1-0.2,0.1-0.3c0.1-0.2,0.1-0.3,0.2-0.4c0-0.1,0.1-0.2,0.1-0.3
		c0.1-0.1,0.1-0.3,0.1-0.4c0.1-0.1,0.1-0.2,0.1-0.4c0.1-0.1,0.1-0.3,0.1-0.4c0.1-0.1,0.1-0.3,0.1-0.4c0.1-0.1,0.1-0.2,0.1-0.4
		c0.1-0.1,0.1-0.3,0.1-0.4c0.1-0.1,0.1-0.2,0.1-0.3c0.1-0.1,0.1-0.3,0.2-0.4c0-0.1,0.1-0.2,0.1-0.3c0.1-0.2,0.1-0.4,0.2-0.5
		c0-0.1,0.1-0.1,0.1-0.2c0.1-0.3,0.2-0.5,0.3-0.7c0-0.1,0.1-0.1,0.1-0.2c0.1-0.2,0.1-0.4,0.2-0.5c0-0.1,0.1-0.2,0.1-0.3
		c0.1-0.2,0.1-0.3,0.2-0.5c0.1-0.1,0.1-0.2,0.1-0.3c0.1-0.2,0.1-0.3,0.2-0.5c0-0.1,0.1-0.2,0.1-0.2c0.1-0.2,0.1-0.3,0.2-0.5
		c0.1-0.1,0.1-0.2,0.1-0.2c0.1-0.2,0.1-0.3,0.2-0.5c0-0.1,0.1-0.2,0.1-0.3c0.1-0.2,0.1-0.3,0.2-0.5c0-0.1,0.1-0.2,0.1-0.3
		c0.1-0.2,0.1-0.3,0.2-0.5c0-0.1,0.1-0.2,0.1-0.3c0.1-0.2,0.1-0.3,0.2-0.5c0.1-0.1,0.1-0.2,0.1-0.3c0.1-0.1,0.1-0.3,0.2-0.5
		c0.1-0.1,0.1-0.2,0.1-0.2c0.1-0.2,0.1-0.3,0.2-0.5c0-0.1,0.1-0.2,0.1-0.3c0.1-0.2,0.1-0.3,0.2-0.5c0.1-0.1,0.1-0.2,0.1-0.2
		c0.1-0.2,0.1-0.3,0.2-0.5c0.1-0.1,0.1-0.2,0.1-0.2c0.1-0.2,0.1-0.3,0.2-0.5c0.1-0.1,0.1-0.1,0.1-0.2c0.1-0.2,0.2-0.3,0.2-0.5
		c0-0.1,0.1-0.1,0.1-0.2c0.1-0.2,0.2-0.4,0.2-0.5c0-0.1,0.1-0.1,0.1-0.2c0.1-0.2,0.2-0.4,0.3-0.5c0-0.1,0-0.1,0.1-0.2
		c0.1-0.2,0.2-0.4,0.3-0.6c0-0.1,0.1-0.1,0.1-0.1c0.1-0.2,0.2-0.4,0.3-0.6c0,0,0-0.1,0-0.1c0.1-0.2,0.2-0.4,0.3-0.7c0,0,0,0,0,0
		c0.7-1.4,1.5-2.8,2.2-4.2c0,0,0,0,0,0c0.1-0.2,0.3-0.4,0.4-0.7l0-0.1c0.1-0.2,0.2-0.4,0.4-0.6c0,0,0.1-0.1,0.1-0.1
		c0.1-0.2,0.2-0.4,0.3-0.6c0,0,0.1-0.1,0.1-0.1c0.1-0.2,0.2-0.4,0.3-0.5c0,0,0-0.1,0.1-0.1c0.1-0.2,0.2-0.4,0.4-0.5
		c0-0.1,0-0.1,0.1-0.1c0.1-0.2,0.2-0.3,0.3-0.5c0-0.1,0.1-0.1,0.1-0.1c0.1-0.2,0.2-0.4,0.3-0.5c0.1,0,0.1-0.1,0.1-0.1
		c0.1-0.2,0.2-0.4,0.3-0.5c0,0,0.1-0.1,0.1-0.1c0.1-0.2,0.2-0.3,0.3-0.5c0.1-0.1,0.1-0.1,0.1-0.1c0.1-0.2,0.2-0.4,0.4-0.6
		c0,0,0.1-0.1,0.1-0.1c0.1-0.2,0.3-0.4,0.4-0.5c0-0.1,0-0.1,0.1-0.1c0.1-0.2,0.2-0.4,0.4-0.6c0,0,0-0.1,0.1-0.1
		c0.1-0.2,0.2-0.4,0.4-0.6c0,0,0.1,0,0.1-0.1c0.1-0.2,0.3-0.4,0.4-0.6c0,0,0,0,0,0c1.3-2,2.7-3.9,4.1-5.8c0.2-0.2,0.3-0.4,0.5-0.6
		c0,0,0,0,0-0.1c0.1-0.2,0.3-0.4,0.4-0.6c0,0,0,0,0.1,0c0.1-0.2,0.3-0.4,0.4-0.6c0,0,0,0,0.1-0.1c0.2-0.2,0.3-0.4,0.4-0.5
		c0,0,0.1-0.1,0.1-0.1c0.1-0.2,0.3-0.3,0.4-0.5c0,0,0-0.1,0.1-0.1c0.1-0.2,0.2-0.4,0.4-0.5c0,0,0-0.1,0.1-0.1
		c0.2-0.2,0.3-0.3,0.4-0.5c0,0,0.1-0.1,0.1-0.1c0.2-0.2,0.3-0.3,0.5-0.5c0,0,0.1,0,0.1-0.1c0.1-0.2,0.3-0.3,0.4-0.5
		c0,0,0-0.1,0.1-0.1c0.1-0.2,0.3-0.4,0.4-0.5c0,0,0-0.1,0.1-0.1c0.1-0.2,0.3-0.3,0.4-0.5c0,0,0-0.1,0-0.1c0.2-0.2,0.3-0.4,0.5-0.6
		c0,0,0,0,0.1,0c0.1-0.2,0.3-0.4,0.4-0.6c0,0,0,0,0,0c1.6-1.8,3.2-3.5,4.8-5.2c0.2-0.2,0.4-0.4,0.6-0.5c0,0,0,0,0,0
		c0.2-0.2,0.4-0.4,0.5-0.5c0.1,0,0.1,0,0.1-0.1c0.2-0.2,0.4-0.3,0.5-0.5c0,0,0.1,0,0.1-0.1c0.2-0.2,0.3-0.3,0.5-0.5
		c0,0,0.1-0.1,0.1-0.1c0.2-0.1,0.3-0.3,0.5-0.4c0,0,0.1,0,0.1-0.1c0.1-0.1,0.3-0.3,0.4-0.5c0.1,0,0.1-0.1,0.1-0.1
		c0.1-0.1,0.3-0.3,0.4-0.4c0,0,0.1-0.1,0.1-0.1c0.1-0.1,0.3-0.3,0.4-0.4c0,0,0.1-0.1,0.1-0.1c0.1-0.1,0.3-0.3,0.4-0.4
		c0,0,0.1-0.1,0.1-0.1c0.1-0.1,0.3-0.3,0.5-0.4c0,0,0.1-0.1,0.1-0.1c0.1-0.1,0.3-0.3,0.5-0.4c0.1,0,0.1-0.1,0.1-0.1
		c0.2-0.1,0.3-0.3,0.5-0.4c0,0,0.1,0,0.1-0.1c0.2-0.2,0.3-0.3,0.5-0.5c0,0,0.1,0,0.1,0c0.2-0.2,0.4-0.3,0.6-0.5v0
		c1.4-1.2,2.8-2.4,4.3-3.5c0,0,0,0,0,0c0.2-0.2,0.4-0.3,0.6-0.5c0,0,0.1,0,0.1,0c0.2-0.2,0.4-0.3,0.6-0.4c0,0,0.1-0.1,0.1-0.1
		c0.2-0.1,0.4-0.3,0.5-0.4c0.1,0,0.1-0.1,0.1-0.1c0.2-0.1,0.3-0.2,0.5-0.4c0.1,0,0.1-0.1,0.1-0.1c0.2-0.1,0.3-0.2,0.5-0.4
		c0-0.1,0.1-0.1,0.1-0.1c0.2-0.1,0.3-0.2,0.4-0.3c0.1,0,0.1-0.1,0.2-0.1c0.2-0.1,0.3-0.2,0.5-0.3c0.1-0.1,0.1-0.1,0.2-0.1
		c0.1-0.1,0.3-0.2,0.4-0.3c0.1,0,0.1-0.1,0.2-0.1c0.1-0.1,0.3-0.2,0.4-0.3c0.1,0,0.1-0.1,0.2-0.1c0.1-0.1,0.3-0.2,0.4-0.3
		c0.1,0,0.1-0.1,0.2-0.1c0.1-0.1,0.3-0.2,0.4-0.3c0.1,0,0.1-0.1,0.2-0.1c0.1-0.1,0.3-0.2,0.5-0.3c0.1,0,0.1-0.1,0.2-0.1
		c0.1-0.1,0.3-0.2,0.4-0.3c0.1-0.1,0.1-0.1,0.2-0.1c0.2-0.1,0.3-0.2,0.5-0.3c0,0,0.1-0.1,0.1-0.1c0.2-0.1,0.4-0.2,0.5-0.3
		c0.1,0,0.1-0.1,0.1-0.1c0.2-0.1,0.4-0.2,0.6-0.4c0,0,0.1-0.1,0.1-0.1c0.2-0.1,0.4-0.3,0.6-0.4c0,0,0,0,0.1,0
		c1.1-0.7,2.2-1.4,3.3-2.1c0,0,0.1,0,0.1-0.1c0.2-0.1,0.4-0.2,0.6-0.3c0,0,0.1,0,0.2-0.1c0.2-0.1,0.3-0.2,0.5-0.3
		c0.1,0,0.1-0.1,0.2-0.1c0.2-0.1,0.3-0.2,0.5-0.3c0.1-0.1,0.2-0.1,0.2-0.1c0.1-0.1,0.3-0.2,0.4-0.3c0.1,0,0.2-0.1,0.2-0.1
		c0.2-0.1,0.3-0.2,0.5-0.3c0.1,0,0.1-0.1,0.2-0.1c0.2-0.1,0.3-0.2,0.5-0.3c0.1,0,0.2-0.1,0.3-0.1c0.2-0.1,0.3-0.2,0.4-0.2
		c0.1-0.1,0.2-0.1,0.3-0.1c0.1-0.1,0.3-0.2,0.5-0.2c0.1,0,0.1-0.1,0.3-0.1c0.1-0.1,0.2-0.2,0.4-0.2c0.1,0,0.2-0.1,0.3-0.1
		c0.2-0.1,0.3-0.2,0.4-0.2c0.1,0,0.2-0.1,0.2-0.1c0.2-0.1,0.3-0.2,0.4-0.2c0.1,0,0.2-0.1,0.3-0.1c0.2-0.1,0.3-0.2,0.4-0.2
		c0.1,0,0.2-0.1,0.3-0.1c0.2-0.1,0.3-0.2,0.5-0.2c0.1,0,0.2-0.1,0.2-0.1c0.2-0.1,0.3-0.2,0.5-0.2c0.1,0,0.2-0.1,0.2-0.1
		c0.1-0.1,0.3-0.2,0.5-0.2c0.1,0,0.1-0.1,0.2-0.1c0.2-0.1,0.3-0.2,0.5-0.2c0.1,0,0.1-0.1,0.2-0.1c0.2-0.1,0.4-0.2,0.6-0.3
		c0.1,0,0.1-0.1,0.1-0.1c0.2-0.1,0.4-0.2,0.7-0.3l0.1,0c0.7-0.3,1.5-0.7,2.2-1c0,0,0.1,0,0.1-0.1c0.2-0.1,0.4-0.2,0.6-0.3
		c0.1,0,0.1-0.1,0.2-0.1c0.1-0.1,0.3-0.1,0.5-0.2c0.1,0,0.1-0.1,0.2-0.1c0.2-0.1,0.4-0.1,0.5-0.2c0.1,0,0.2-0.1,0.3-0.1
		c0.1-0.1,0.3-0.1,0.5-0.2c0.1,0,0.2-0.1,0.2-0.1c0.2-0.1,0.3-0.1,0.5-0.2c0.1,0,0.2-0.1,0.2-0.1c0.2-0.1,0.3-0.1,0.4-0.2
		c0.1,0,0.2-0.1,0.3-0.1c0.2-0.1,0.3-0.1,0.4-0.2c0.1,0,0.2-0.1,0.3-0.1c0.2-0.1,0.3-0.1,0.4-0.2c0.1,0,0.2-0.1,0.3-0.1
		c0.1,0,0.3-0.1,0.4-0.1c0.1,0,0.2-0.1,0.3-0.1c0.2,0,0.3-0.1,0.4-0.1c0.1-0.1,0.2-0.1,0.3-0.1c0.1,0,0.3-0.1,0.4-0.2
		c0.1,0,0.2-0.1,0.3-0.1c0.2,0,0.3-0.1,0.5-0.2c0.1,0,0.2-0.1,0.3-0.1c0.2-0.1,0.3-0.1,0.4-0.2c0.1,0,0.2-0.1,0.3-0.1
		c0.1,0,0.3-0.1,0.4-0.1c0.1,0,0.2-0.1,0.3-0.1c0.2-0.1,0.3-0.1,0.4-0.2c0.1,0,0.2-0.1,0.3-0.1c0.2,0,0.3-0.1,0.4-0.1
		c0.1,0,0.2-0.1,0.3-0.1c0.1,0,0.3-0.1,0.4-0.1c0.1,0,0.2-0.1,0.3-0.1c0.1,0,0.3-0.1,0.5-0.1c0.1,0,0.2,0,0.3-0.1
		c0.2-0.1,0.4-0.1,0.5-0.2c0.1,0,0.1,0,0.2,0c0.3-0.1,0.5-0.1,0.7-0.2c0,0,0.1,0,0.1,0c0.3-0.1,0.5-0.1,0.8-0.2l0.1,0
		c0.2-0.1,0.5-0.1,0.7-0.2c0.1,0,0.2-0.1,0.3-0.1c0.2,0,0.4-0.1,0.5-0.1c0.1,0,0.2-0.1,0.3-0.1c0.1,0,0.3-0.1,0.4-0.1
		c0.1,0,0.2-0.1,0.3-0.1c0.2,0,0.3-0.1,0.4-0.1c0.1,0,0.3-0.1,0.4-0.1c0.2,0,0.3-0.1,0.4-0.1c0.1,0,0.2-0.1,0.3-0.1
		c0.2,0,0.3-0.1,0.4-0.1c0.1,0,0.2,0,0.3-0.1c0.2,0,0.3-0.1,0.4-0.1c0.1,0,0.2-0.1,0.4-0.1c0.1,0,0.3-0.1,0.4-0.1
		c0.1,0,0.3-0.1,0.4-0.1c0.1,0,0.2-0.1,0.4-0.1c0.1,0,0.2-0.1,0.3-0.1c0.1,0,0.3-0.1,0.5-0.1c0.1,0,0.2-0.1,0.3-0.1
		c0.2,0,0.3-0.1,0.5-0.1c0.1,0,0.3,0,0.3-0.1c0.2,0,0.3-0.1,0.4-0.1c0.1,0,0.3,0,0.4-0.1c0.1,0,0.3,0,0.4-0.1c0.1,0,0.3-0.1,0.4-0.1
		c0.1,0,0.3-0.1,0.4-0.1c0.1,0,0.2-0.1,0.3-0.1c0.2,0,0.3-0.1,0.4-0.1c0.1,0,0.3,0,0.4-0.1c0.2,0,0.3,0,0.4-0.1c0.1,0,0.3,0,0.4-0.1
		c0.1,0,0.3,0,0.4-0.1c0.1,0,0.2,0,0.3-0.1c0.2,0,0.3,0,0.5-0.1c0.1,0,0.2,0,0.3-0.1c0.1,0,0.3,0,0.5-0.1c0.1,0,0.2,0,0.3-0.1
		c0.2,0,0.4,0,0.5-0.1c0.1,0,0.2,0,0.3,0c0.2,0,0.4-0.1,0.6-0.1c0,0,0.1,0,0.2,0c0.3-0.1,0.5-0.1,0.8-0.1c0,0,0,0,0,0
		c0.3,0,0.5-0.1,0.8-0.1c0.1,0,0.2,0,0.3-0.1c0.2,0,0.4,0,0.5-0.1c0.1,0,0.2,0,0.4,0c0.1,0,0.3,0,0.4-0.1c0.1,0,0.3,0,0.4,0
		c0.2,0,0.3,0,0.4,0c0.1,0,0.3,0,0.4,0c0.2,0,0.3,0,0.4,0c0.1,0,0.3,0,0.4,0c0.2,0,0.3,0,0.4,0c0.1,0,0.3,0,0.4,0
		c0.1,0,0.3,0,0.4-0.1c0.1,0,0.2,0,0.3,0c0.2,0,0.3,0,0.4,0c0.1,0,0.3,0,0.4,0c0.2,0,0.3,0,0.4,0c0.1,0,0.3,0,0.4,0
		c0.1,0,0.3,0,0.4,0c0.1,0,0.3,0,0.4,0c0.2,0,0.3,0,0.4,0c0.1,0,0.3,0,0.4,0c0.2,0,0.3,0,0.4,0c0.1,0,0.3,0,0.4,0c0.2,0,0.3,0,0.4,0
		c0.1,0,0.3,0,0.4,0c0.1,0,0.3,0,0.4,0c0.1,0,0.3,0,0.4,0c0.1,0,0.3,0,0.5,0c0.1,0,0.3,0,0.3,0c0.2,0,0.3,0,0.5,0c0.1,0,0.3,0,0.4,0
		c0.2,0,0.3,0,0.4,0c0.1,0,0.3,0,0.4,0c0.2,0,0.3,0,0.5,0c0.1,0,0.2,0,0.4,0c0.2,0,0.3,0,0.5,0c0.1,0,0.2,0,0.3,0c0.2,0,0.3,0,0.5,0
		c0.1,0,0.2,0,0.3,0c0.2,0,0.4,0,0.5,0c0.1,0,0.2,0,0.3,0c0.2,0,0.6,0,0.8,0v-24.7c-81.7,0-150.1,63.7-155.8,145.1l24.6,1.7
		C280.2,393.9,281.4,386.4,283.2,379.1z"/>
	<path class="st0" d="M324.7,340.9l6.4,5.2c18.8-23.2,47.5-37.9,79.7-37.9c1.2,0,2.4,0,3.6,0.1l0.2-8.2c-1.3,0-2.5-0.1-3.8-0.1
		C376.1,299.9,345,315.9,324.7,340.9z"/>
	<path class="st0" d="M343.2,488.5c-7.9-6.9-14.8-15-20.3-24.1l-7,4.2v0.1c5.9,9.7,13.3,18.5,21.9,26L343.2,488.5z"/>
	<path class="st0" d="M477.9,322.5l-5,6.6c8.5,6.3,15.9,14,21.9,22.6l6.7-4.7C494.9,337.6,487,329.4,477.9,322.5z"/>
	<path class="st0" d="M520.8,426.1l-8.1-1.1c-4.5,32.5-24.1,60.2-51.5,75.6l4,7.1C494.8,491.2,516.1,461.3,520.8,426.1z"/>
	<path class="st0" d="M521.9,411c0-11.7-1.8-23-5.2-33.6l-7.8,2.4c3.1,9.8,4.8,20.2,4.8,31.1L521.9,411z"/>
	<path class="st0" d="M366.5,512.8c10.2,4.5,21.3,7.4,32.9,8.6l0.8-8.2c-10.7-1.1-21-3.8-30.5-8L366.5,512.8L366.5,512.8z"/>
	<path class="st0" d="M595.7,411c0-47.2-17.7-90.3-46.8-122.9l-6.1,5.5c27.8,31.2,44.6,72.3,44.6,117.4H595.7z"/>
	<path class="st0" d="M247.9,498.6l7.3-3.9c-10-18.5-16.8-39.1-19.6-60.8l-8.2,1.1C230.4,457.7,237.4,479.2,247.9,498.6z"/>
	<path class="st0" d="M431.4,235.4c21.9,2.6,42.4,9,61.1,18.8l3.7-7.3c-19.5-10.2-41-17-63.8-19.7L431.4,235.4z"/>
	<path class="st0" d="M238.9,370.1c10.1-42.8,35.8-79.5,70.7-104l-4.7-6.7v-0.1c-36.6,25.6-63.4,64.1-74,108.8L238.9,370.1z"/>
	<path class="st0" d="M575.9,494.3l-7.3-3.7c-9.8,19.2-22.9,36.4-38.6,50.9l5.5,6.1C552,532.4,565.8,514.4,575.9,494.3z"/>
	<path class="st0" d="M478.8,583l-3-7.7c-20.1,8-42.1,12.3-65,12.3c-21.4,0-41.8-3.8-60.7-10.7l-2.8,7.7h-0.1
		c19.9,7.3,41.3,11.2,63.6,11.2C434.8,595.9,457.8,591.3,478.8,583z"/>
	<path class="st0" d="M347.8,411c0,34.8,28.2,63,63,63c34.8,0,63-28.2,63-63c0-34.8-28.2-63-63-63C376,348,347.8,376.2,347.8,411z
		 M449.2,411c0,21.1-17.2,38.4-38.3,38.4c-21.1,0-38.3-17.2-38.3-38.4s17.2-38.3,38.3-38.3C432,372.7,449.2,389.9,449.2,411z"/>
	<path class="st0" d="M170.4,429.4c1.8,24,7.2,47,15.5,68.6l30.7-11.9c-7.2-18.5-11.8-38.4-13.4-59.2L170.4,429.4z"/>
	<path class="st0" d="M301.5,625.9l14.9-29.3c-27.4-13.9-51.2-33.7-69.9-57.7l-25.9,20.2v0.1C242.3,586.9,269.8,609.8,301.5,625.9z"
		/>
	<path class="st0" d="M651.9,411c0-24.2-3.6-47.5-10.2-69.6l-31.5,9.4c5.8,19,8.9,39.2,8.9,60.1L651.9,411z"/>
	<path class="st0" d="M591.3,570.8L566.7,549c-33.2,37.5-79.7,62.9-132.1,68.8l3.7,32.7v-0.1C499,643.6,552.9,614.1,591.3,570.8z"/>
	<path class="st0" d="M611.8,277.8c-19.6-29.4-45.3-54.3-75.6-72.7l-17.1,28c26.1,15.9,48.5,37.4,65.3,62.9L611.8,277.8L611.8,277.8
		z"/>
	<path class="st0" d="M401.6,170.1c-61.5,2.3-117.3,27.7-158.6,67.8l22.9,23.6c35.7-34.6,83.8-56.5,136.9-58.5L401.6,170.1z"/>
	<path class="st0" d="M540.8,638.1l-4.1-7.1c-37.1,21.3-80.1,33.4-125.9,33.4c-32.7,0-63.9-6.2-92.5-17.4l-3,7.7h-0.1
		c29.6,11.6,61.8,18,95.6,18C458.1,672.7,502.5,660.1,540.8,638.1z"/>
	<path class="st0" d="M173.1,520.4l7.4-3.4c-14.9-32.3-23.2-68.2-23.2-106c0-17.8,1.9-35.2,5.4-52l-8.1-1.7
		c-3.6,17.3-5.5,35.3-5.5,53.7C149.2,450.1,157.7,487.1,173.1,520.4z"/>
	<path class="st0" d="M410.8,157.6c140,0.2,253.1,113.4,253.4,253.4c0,2.6,0,5.2-0.2,7.7l8.3,0.3c0.1-2.6,0.1-5.3,0.1-7.9
		c0-144.5-117.2-261.7-261.7-261.7c-78.7,0-149.3,34.7-197.2,89.7l6.1,5.4C266.3,191.2,334.6,157.6,410.8,157.6z"/>
	<path class="st0" d="M137.8,446.6c2.9,22.5,8.5,44.1,16.5,64.5l7.7-3c-7.8-19.8-13.2-40.8-16.1-62.6L137.8,446.6z"/>
	<path class="st0" d="M319.1,661.9c-30.8-11.2-58.9-28-83.1-49l-5.4,6.2h-0.1c25.1,21.7,54,38.9,85.7,50.5L319.1,661.9z"/>
	<path class="st0" d="M570.5,635.3c70-49.9,115.6-131.8,115.6-224.3c0-152-123.3-275.3-275.3-275.3c-118.4,0-219.4,74.7-258.2,179.7
		l7.7,2.8C198,216.4,295.9,143.8,410.8,143.8c147.5,0.3,266.9,119.6,267.1,267.2c0,89.8-44.3,169.1-112.2,217.6L570.5,635.3
		L570.5,635.3z"/>
	<path class="st0" d="M410.8,90.4c-103.4,0-195.4,49-254,125l26,20.1c52.7-68.3,135.1-112.2,228-112.2
		c158.9,0.3,287.4,128.8,287.7,287.7h32.8C731.3,233.9,587.8,90.4,410.8,90.4z"/>
	<path class="st0" d="M722.9,484.5l-32-7.5C661,604,547,698.7,410.8,698.6c-116.6,0.1-217-69.4-262.2-169.1l-30,13.5
		C169,654.2,280.9,731.5,410.8,731.5C562.5,731.5,689.6,626.2,722.9,484.5z"/>
	<path class="st0" d="M130.2,347.1l-32-7.3v-0.1c-5,22.1-7.7,45.1-7.9,68.7l32.9,0.3C123.3,387.6,125.8,366.9,130.2,347.1z"/>
	<path class="st0" d="M559.4,123.8l7.6-14.6c-27.8-14.4-57.8-25.1-89.3-31.4h0c-1.6-0.3-3.3-0.6-4.9-0.9c0,0-0.1,0-0.1,0
		c-0.4-0.1-0.8-0.1-1.2-0.2c0,0-0.1,0-0.1,0c-1.3-0.2-2.5-0.4-3.7-0.6c0,0,0,0-0.1,0c-0.4-0.1-0.8-0.1-1.2-0.2c-0.1,0-0.1,0-0.2,0
		c-0.4-0.1-0.7-0.1-1.1-0.2c-0.1,0-0.1,0-0.2,0c-0.4-0.1-0.8-0.1-1.2-0.2l0,0c-0.8-0.1-1.7-0.3-2.5-0.4c0,0,0,0-0.1,0
		c-0.4,0-0.7-0.1-1.1-0.2c-0.1,0-0.2,0-0.3,0c-0.3,0-0.6-0.1-1-0.1c-0.1,0-0.2,0-0.3-0.1c-0.3,0-0.7-0.1-1-0.1c-0.1,0-0.1,0-0.2,0
		c-0.8-0.1-1.6-0.2-2.4-0.3c-0.1,0-0.1,0-0.2,0c-0.3,0-0.7-0.1-1-0.1c-0.1,0-0.2,0-0.3,0c-0.3,0-0.6-0.1-0.9-0.1c-0.1,0-0.2,0-0.4,0
		c-0.3,0-0.6-0.1-0.9-0.1c-0.1,0-0.2,0-0.3,0c-0.8-0.1-1.6-0.2-2.4-0.3c-0.1,0-0.2,0-0.3,0c-0.3,0-0.6-0.1-1-0.1c-0.1,0-0.2,0-0.4,0
		c-0.3,0-0.6-0.1-0.9-0.1c-0.1,0-0.2,0-0.3,0c-0.4,0-0.7-0.1-1-0.1c-0.1,0-0.2,0-0.2,0c-0.8-0.1-1.6-0.2-2.4-0.2c-0.1,0-0.2,0-0.3,0
		c-0.3,0-0.6,0-0.9-0.1c-0.1,0-0.3,0-0.4,0c-0.3,0-0.5,0-0.8-0.1c-0.1,0-0.3,0-0.4,0c-0.3,0-0.6,0-0.9-0.1c-0.1,0-0.2,0-0.3,0
		c-0.8-0.1-1.6-0.1-2.4-0.2c-0.1,0-0.2,0-0.3,0c-0.3,0-0.6,0-0.9-0.1c-0.2,0-0.3,0-0.4,0c-0.3,0-0.6,0-0.8,0c-0.1,0-0.3,0-0.4,0
		c-0.3,0-0.6,0-0.8,0c-0.1,0-0.3,0-0.4,0c-0.8,0-1.6-0.1-2.4-0.1c-0.1,0-0.2,0-0.3,0c-0.3,0-0.6,0-0.9,0c-0.1,0-0.3,0-0.4,0
		c-0.3,0-0.6,0-0.8,0c-0.1,0-0.3,0-0.5,0c-0.3,0-0.5,0-0.8,0c-0.1,0-0.3,0-0.4,0c-0.8,0-1.6-0.1-2.4-0.1c-0.2,0-0.3,0-0.4,0
		c-0.3,0-0.5,0-0.8,0c-0.2,0-0.3,0-0.5,0c-0.3,0-0.5,0-0.8,0c-0.1,0-0.3,0-0.4,0c-0.3,0-0.6,0-0.9,0c-0.1,0-0.2,0-0.4,0
		c-0.4,0-0.8,0-1.2,0c-0.4,0-0.8,0-1.2,0c-0.2,0-0.3,0-0.4,0c-0.2,0-0.5,0-0.8,0c-0.2,0-0.3,0-0.4,0c-0.3,0-0.5,0-0.8,0
		c-0.1,0-0.3,0-0.5,0c-0.3,0-0.6,0-0.8,0c-0.1,0-0.3,0-0.4,0c-0.4,0-0.8,0-1.2,0c-0.3,0-0.7,0-1,0c-0.1,0-0.2,0-0.4,0
		c-0.2,0-0.4,0-0.7,0c-0.1,0-0.3,0-0.4,0c-0.2,0-0.4,0-0.6,0c-0.1,0-0.3,0-0.4,0c-0.2,0-0.4,0-0.6,0c-0.2,0-0.3,0-0.4,0
		c-0.2,0-0.4,0-0.6,0c-0.1,0-0.3,0-0.4,0c-0.3,0-0.5,0-0.8,0c-0.1,0-0.2,0-0.3,0c-0.3,0-0.6,0-1,0c-0.1,0-0.2,0-0.4,0
		c-0.2,0-0.5,0-0.7,0c-0.2,0-0.3,0-0.4,0c-0.2,0-0.4,0-0.6,0c-0.2,0-0.3,0-0.4,0c-0.2,0-0.4,0-0.6,0c-0.2,0-0.3,0-0.4,0
		c-0.2,0-0.4,0-0.6,0c-0.1,0-0.2,0-0.4,0c-0.3,0-0.5,0-0.7,0c-0.1,0-0.2,0-0.3,0c-0.3,0-0.7,0-1,0c-0.1,0-0.2,0-0.3,0
		c-0.2,0-0.5,0-0.7,0c-0.1,0-0.3,0-0.4,0c-0.2,0-0.4,0-0.6,0c-0.2,0-0.3,0-0.5,0c-0.1,0-0.4,0-0.5,0c-0.2,0-0.4,0-0.6,0
		c-0.1,0-0.3,0-0.5,0c-0.2,0-0.3,0-0.5,0c-0.2,0-0.3,0-0.5,0c-0.2,0-0.5,0-0.7,0.1c-0.2,0-0.4,0-0.7,0c-0.1,0-0.3,0-0.5,0
		c-0.2,0-0.3,0-0.5,0c-0.2,0-0.4,0-0.5,0c-0.2,0-0.4,0-0.5,0c-0.2,0-0.3,0-0.5,0c-0.2,0-0.3,0-0.5,0c-0.2,0-0.3,0-0.5,0
		c-0.1,0-0.3,0-0.5,0c-0.2,0-0.4,0-0.6,0c-0.1,0-0.3,0-0.4,0c-0.4,0-0.9,0.1-1.3,0.1c-0.1,0-0.1,0-0.2,0c-0.2,0-0.3,0-0.5,0
		c-0.1,0-0.3,0-0.5,0c-0.2,0-0.4,0-0.5,0.1c-0.2,0-0.3,0-0.5,0c-0.2,0-0.3,0-0.5,0c-0.2,0-0.3,0-0.5,0c-0.2,0-0.4,0-0.6,0
		c-0.1,0-0.3,0-0.4,0c-0.2,0-0.4,0-0.6,0c-0.1,0-0.2,0-0.3,0c-0.8,0.1-1.6,0.1-2.4,0.2c0,0-0.1,0-0.1,0c-0.3,0-0.4,0.1-0.7,0.1
		c-0.1,0-0.2,0-0.3,0c-0.3,0-0.5,0-0.7,0.1c-0.1,0-0.2,0-0.3,0c-0.3,0-0.4,0-0.7,0.1c-0.1,0-0.2,0-0.3,0c-0.2,0-0.5,0.1-0.7,0.1
		c-0.1,0-0.1,0-0.1,0c-1.2,0.1-2.3,0.3-3.5,0.4c-0.1,0-0.1,0-0.2,0c-0.3,0-0.5,0.1-0.8,0.1c-0.1,0-0.1,0-0.2,0
		c-0.3,0-0.5,0.1-0.8,0.1c0,0-0.1,0-0.2,0c-0.3,0-0.5,0.1-0.8,0.1h-0.1c-1.2,0.2-2.4,0.3-3.5,0.5c0,0-0.1,0-0.1,0
		c-0.3,0.1-0.5,0.1-0.8,0.1c-0.1,0-0.1,0-0.1,0c-0.2,0-0.6,0.1-0.8,0.1l-0.1,0c-1.8,0.3-3.6,0.5-5.4,0.8
		c-51.4,8.4-99,28.5-139.9,57.3v0c-0.2,0.2-0.5,0.3-0.7,0.5c-1.2,0.8-2.4,1.6-3.5,2.5c0,0-0.1,0-0.1,0.1c-0.2,0.1-0.4,0.3-0.6,0.4
		c0,0-0.1,0.1-0.1,0.1c-0.2,0.1-0.4,0.3-0.6,0.4c-0.1,0-0.1,0.1-0.1,0.1c-0.2,0.1-0.4,0.3-0.7,0.4c0,0,0,0-0.1,0.1
		c-0.6,0.5-1.3,1-1.9,1.4c-0.1,0-0.1,0.1-0.1,0.1c-0.2,0.1-0.4,0.3-0.5,0.4c-0.1,0.1-0.2,0.1-0.3,0.2c-0.1,0.1-0.3,0.2-0.4,0.4
		c-0.1,0.1-0.2,0.1-0.3,0.2c-0.2,0.1-0.3,0.2-0.5,0.4c-0.1,0.1-0.2,0.1-0.3,0.2c-0.2,0.1-0.3,0.2-0.5,0.4c-0.1,0.1-0.2,0.1-0.2,0.2
		c-0.6,0.4-1.1,0.8-1.7,1.3c-0.1,0.1-0.2,0.1-0.3,0.2c-0.2,0.1-0.3,0.2-0.4,0.3c-0.1,0.1-0.2,0.2-0.3,0.3c-0.1,0.1-0.3,0.2-0.4,0.3
		c-0.1,0.1-0.3,0.2-0.4,0.3c-0.1,0.1-0.3,0.2-0.4,0.3c-0.1,0.1-0.3,0.2-0.4,0.3c-0.1,0.1-0.2,0.2-0.3,0.3c-0.2,0.1-0.3,0.3-0.5,0.4
		c-0.1,0.1-0.1,0.1-0.2,0.2c-0.2,0.2-0.5,0.4-0.7,0.6l10.3,12.8c58-46.7,128-71.3,202.6-71.3C463.2,87.7,513.2,99.8,559.4,123.8z"/>
	<path class="st0" d="M489.3,724.7l4,16c1-0.3,2-0.5,3-0.8c1-0.3,2-0.5,3-0.8h0c1-0.3,2-0.5,2.9-0.8c0.1,0,0.1,0,0.1-0.1
		c0.2-0.1,0.4-0.1,0.7-0.2l0.1,0c0.4-0.1,1-0.3,1.4-0.4c0,0,0.1,0,0.1,0c0.2-0.1,0.4-0.1,0.7-0.2c0,0,0.1,0,0.2,0
		c0.7-0.2,1.3-0.4,2-0.6c0.1,0,0.1,0,0.2-0.1c0.2-0.1,0.4-0.1,0.6-0.2c0.1,0,0.1,0,0.2-0.1c0.6-0.2,1.3-0.4,2-0.6
		c0.1,0,0.1,0,0.2-0.1c0.2-0.1,0.4-0.1,0.6-0.2c0.1,0,0.1,0,0.2-0.1c0.7-0.2,1.4-0.4,2-0.6c0.1,0,0.1-0.1,0.2-0.1
		c0.2-0.1,0.4-0.1,0.6-0.2c0.1,0,0.1,0,0.2-0.1c0.7-0.2,1.3-0.4,2-0.6c0,0,0.1,0,0.2,0c0.2-0.1,0.4-0.1,0.7-0.2c0.1,0,0.1,0,0.1,0
		c0.7-0.2,1.4-0.5,2.1-0.7c0,0,0.1,0,0.2,0c0.2-0.1,0.4-0.1,0.6-0.2c0,0,0.1,0,0.1,0c0.7-0.2,1.3-0.5,2.1-0.7c0,0,0,0,0.1,0
		c1-0.3,1.9-0.7,2.8-1c0.1,0,0.1,0,0.1,0c3-1,5.8-2.1,8.7-3.2v0c6.5-2.5,12.8-5.2,19.1-8.1c0,0,0,0,0,0c0.9-0.4,1.8-0.9,2.7-1.3
		c0,0,0,0,0.1,0c0.9-0.4,1.8-0.9,2.7-1.3c0.1,0,0.1,0,0.1-0.1c0.2-0.1,0.4-0.2,0.6-0.3c0,0,0,0,0.1,0c0.4-0.2,0.8-0.4,1.3-0.6
		c0,0,0,0,0,0c0.2-0.1,0.4-0.2,0.6-0.3c0.1-0.1,0.1-0.1,0.2-0.1c0.2-0.1,0.4-0.2,0.6-0.3c0,0,0.1,0,0.1-0.1c0.3-0.2,0.7-0.3,1-0.5
		c0.1-0.1,0.2-0.1,0.3-0.1c0.2-0.1,0.3-0.2,0.5-0.2c0.1-0.1,0.2-0.1,0.3-0.2c0.2-0.1,0.3-0.2,0.5-0.2c0.1-0.1,0.3-0.1,0.5-0.2
		c0.2-0.1,0.4-0.2,0.6-0.3c0.2-0.1,0.3-0.1,0.5-0.2c0.1-0.1,0.3-0.1,0.4-0.2c0.2-0.1,0.3-0.2,0.5-0.3c0.1,0,0.2-0.1,0.4-0.2
		c0.2-0.1,0.5-0.3,0.7-0.4c0.1-0.1,0.2-0.1,0.2-0.1c0.2-0.1,0.4-0.2,0.6-0.3c0.1,0,0.2-0.1,0.3-0.1c0.2-0.1,0.4-0.2,0.6-0.3
		c0.1,0,0.2-0.1,0.2-0.1c0.3-0.2,0.5-0.3,0.8-0.4c0.1,0,0.1,0,0.1-0.1c0.3-0.1,0.5-0.3,0.7-0.4c0.1,0,0.1-0.1,0.2-0.1
		c0.3-0.1,0.5-0.3,0.8-0.4c0,0,0,0,0,0c0.6-0.3,1.2-0.6,1.8-1c0,0,0,0,0,0c3.2-1.8,6.4-3.6,9.6-5.5l-8.4-14.1
		C548.8,705.1,519.7,717.1,489.3,724.7z"/>
	<path class="st0" d="M125.6,595.6c0,0,0,0.1,0.1,0.1c0.1,0.2,0.3,0.4,0.4,0.6c0,0,0.1,0.1,0.1,0.2c0.1,0.2,0.2,0.4,0.3,0.6
		c0.1,0.1,0.1,0.2,0.2,0.3c0.1,0.2,0.2,0.4,0.3,0.5c0.1,0.1,0.1,0.2,0.2,0.3c0.1,0.2,0.2,0.3,0.3,0.5c0.1,0.1,0.1,0.2,0.2,0.3
		c0.1,0.2,0.3,0.3,0.4,0.5c0.1,0.1,0.1,0.2,0.2,0.3c0.1,0.2,0.2,0.3,0.3,0.5c0.1,0.1,0.2,0.3,0.3,0.4c0.2,0.3,0.3,0.5,0.5,0.7
		c0.1,0.1,0.1,0.2,0.3,0.4c0.1,0.2,0.2,0.3,0.3,0.5c0.1,0.1,0.1,0.2,0.2,0.3c0.1,0.1,0.2,0.3,0.3,0.5c0.1,0.1,0.1,0.2,0.2,0.3
		c0.1,0.2,0.2,0.3,0.3,0.5c0.1,0.1,0.2,0.2,0.2,0.3c0.1,0.2,0.2,0.3,0.3,0.5c0.1,0.1,0.1,0.2,0.2,0.3c0.1,0.2,0.2,0.3,0.3,0.5
		c0.1,0.1,0.1,0.2,0.2,0.3c0.1,0.2,0.2,0.3,0.4,0.5c0.1,0.1,0.1,0.1,0.1,0.2c0.3,0.3,0.5,0.7,0.7,1c0.1,0.1,0.2,0.2,0.2,0.3
		c0.1,0.2,0.2,0.3,0.4,0.5c0.1,0.1,0.1,0.2,0.2,0.3c0.1,0.2,0.2,0.3,0.3,0.5c0.1,0.1,0.2,0.2,0.3,0.3c0.1,0.2,0.2,0.3,0.3,0.5
		c0.1,0.1,0.1,0.2,0.2,0.3c0.1,0.2,0.2,0.3,0.3,0.4c0.1,0.1,0.2,0.2,0.3,0.4c0.1,0.2,0.2,0.3,0.3,0.4c0.1,0.1,0.2,0.2,0.3,0.4
		c0.1,0.1,0.2,0.3,0.3,0.4c0.1,0.1,0.2,0.3,0.3,0.4c0.1,0.2,0.3,0.4,0.4,0.5c0.2,0.2,0.3,0.4,0.4,0.6c0.1,0.1,0.2,0.2,0.3,0.3
		c0.1,0.2,0.2,0.3,0.3,0.4c0.1,0.1,0.2,0.2,0.3,0.3c0.1,0.1,0.2,0.3,0.3,0.4c0.1,0.1,0.2,0.2,0.2,0.3c0.1,0.1,0.2,0.3,0.3,0.4
		c0.1,0.1,0.2,0.2,0.3,0.4c0.1,0.1,0.2,0.3,0.3,0.4c0.1,0.1,0.2,0.2,0.3,0.4c0.1,0.1,0.2,0.3,0.3,0.4c0,0.1,0.1,0.2,0.2,0.3
		c0.1,0.2,0.3,0.4,0.4,0.5c0.1,0.1,0.1,0.1,0.2,0.2c0.2,0.3,0.4,0.5,0.6,0.8c0.1,0.1,0.1,0.2,0.2,0.3c0.1,0.2,0.2,0.3,0.4,0.5
		c0.1,0.1,0.2,0.2,0.3,0.3c0.1,0.2,0.2,0.3,0.4,0.5c0.1,0.1,0.2,0.2,0.2,0.3c0.1,0.2,0.3,0.3,0.4,0.5c0,0.1,0.1,0.2,0.2,0.3
		c0.1,0.2,0.3,0.3,0.4,0.5c0.1,0.1,0.2,0.2,0.3,0.3c0.1,0.2,0.3,0.3,0.4,0.5c0.1,0.1,0.1,0.2,0.2,0.3c0.2,0.2,0.3,0.4,0.5,0.6
		c0,0,0.1,0.1,0.1,0.1c0.2,0.3,0.4,0.5,0.6,0.8c0,0,0.1,0.1,0.1,0.1c0.2,0.2,0.4,0.4,0.5,0.6c0.1,0.1,0.2,0.2,0.2,0.3
		c0.1,0.2,0.3,0.3,0.4,0.5c0.1,0.1,0.1,0.2,0.2,0.3c0.2,0.2,0.3,0.3,0.4,0.5c0.1,0.1,0.1,0.1,0.2,0.2c0.1,0.2,0.3,0.3,0.4,0.5
		c0.1,0.1,0.2,0.2,0.2,0.3c0.1,0.2,0.2,0.3,0.4,0.5c0.1,0.1,0.2,0.2,0.2,0.3c0.2,0.2,0.3,0.3,0.4,0.5c0.1,0.1,0.1,0.1,0.2,0.2
		c0.4,0.5,0.8,1,1.2,1.5c0.1,0.1,0.2,0.2,0.3,0.3c0.1,0.1,0.3,0.3,0.4,0.4c0.1,0.1,0.2,0.2,0.2,0.3c0.1,0.2,0.3,0.3,0.4,0.5
		c0.1,0.1,0.2,0.2,0.2,0.3c0.1,0.2,0.3,0.4,0.4,0.5c0.1,0.1,0.1,0.1,0.2,0.2c0.1,0.2,0.3,0.3,0.4,0.5c0.1,0.1,0.1,0.1,0.2,0.2
		c0.1,0.2,0.3,0.4,0.5,0.6c0,0.1,0.1,0.1,0.2,0.2c0.4,0.5,0.8,1,1.3,1.5c0,0,0.1,0.1,0.1,0.1c0.2,0.2,0.4,0.4,0.5,0.6
		c0.1,0,0.1,0.1,0.2,0.2c0.2,0.2,0.4,0.4,0.5,0.6c0,0,0.1,0.1,0.2,0.2c0.1,0.2,0.3,0.4,0.5,0.6c0,0.1,0.1,0.1,0.1,0.2
		c0.2,0.2,0.4,0.4,0.5,0.6c0,0,0.1,0.1,0.1,0.1c0.2,0.2,0.4,0.4,0.6,0.6c0.1,0,0.1,0.1,0.1,0.1c0.4,0.5,0.9,1,1.3,1.5
		c0,0,0.1,0,0.1,0.1c0.2,0.2,0.4,0.4,0.6,0.7c0.1,0,0.1,0.1,0.1,0.1c0.2,0.2,0.4,0.4,0.5,0.6c0,0.1,0.1,0.1,0.2,0.2
		c0.2,0.2,0.3,0.4,0.5,0.5c0.1,0.1,0.1,0.1,0.2,0.2c0.1,0.2,0.3,0.3,0.4,0.5c0.1,0.1,0.1,0.1,0.2,0.2c0.2,0.2,0.4,0.4,0.6,0.6
		c0,0,0.1,0.1,0.1,0.1c0.2,0.2,0.4,0.4,0.6,0.7l0,0c0.3,0.2,0.5,0.5,0.7,0.7l0,0c0.2,0.2,0.4,0.4,0.7,0.7c0,0.1,0.1,0.1,0.1,0.2
		c0.2,0.2,0.4,0.4,0.5,0.5c0.1,0.1,0.1,0.1,0.2,0.2c0.2,0.2,0.3,0.3,0.5,0.5c0.1,0.1,0.1,0.1,0.2,0.2c0.2,0.2,0.3,0.3,0.5,0.5
		c0.1,0.1,0.1,0.1,0.2,0.2c0.2,0.2,0.4,0.4,0.6,0.5c0,0,0.1,0.1,0.1,0.1c0.7,0.7,1.4,1.4,2.1,2.1c0,0,0.1,0.1,0.1,0.1
		c0.2,0.2,0.4,0.4,0.6,0.6c0.1,0,0.1,0.1,0.2,0.2c0.2,0.2,0.4,0.4,0.6,0.5c0.1,0,0.1,0.1,0.2,0.1c0.2,0.2,0.4,0.4,0.5,0.5
		c0.1,0.1,0.2,0.1,0.2,0.2c0.2,0.2,0.4,0.4,0.5,0.5c0.1,0,0.1,0.1,0.2,0.1c0.2,0.2,0.4,0.4,0.6,0.6c0.1,0,0.1,0.1,0.1,0.1
		c0.5,0.5,1,0.9,1.5,1.4c0,0,0.1,0.1,0.1,0.1c0.2,0.2,0.5,0.4,0.6,0.6c0.1,0,0.1,0.1,0.2,0.1c0.2,0.2,0.4,0.3,0.5,0.5
		c0.1,0.1,0.1,0.1,0.2,0.2c0.2,0.2,0.4,0.3,0.5,0.5c0.1,0.1,0.1,0.1,0.2,0.2c0.2,0.2,0.4,0.3,0.6,0.5c0,0,0.1,0.1,0.2,0.2
		c0.2,0.2,0.4,0.4,0.6,0.5c0,0,0.1,0.1,0.1,0.1c0.2,0.2,0.4,0.4,0.7,0.6c0,0,0,0.1,0.1,0.1c0.5,0.4,1,0.9,1.5,1.3
		c0,0,0.1,0.1,0.1,0.2c0.2,0.2,0.4,0.3,0.6,0.5c0.1,0.1,0.1,0.1,0.2,0.2c0.2,0.2,0.4,0.3,0.5,0.5c0.1,0.1,0.2,0.1,0.2,0.2
		c0.2,0.2,0.4,0.3,0.5,0.5c0.1,0.1,0.1,0.1,0.2,0.2c0.2,0.2,0.4,0.3,0.5,0.5c0.1,0.1,0.1,0.1,0.2,0.2c0.2,0.2,0.4,0.4,0.6,0.6
		c0.1,0,0.1,0.1,0.1,0.1c0.5,0.4,1,0.9,1.5,1.3c0.1,0.1,0.1,0.1,0.1,0.1c0.2,0.2,0.4,0.3,0.6,0.5c0.1,0.1,0.2,0.1,0.3,0.2
		c0.2,0.1,0.3,0.3,0.5,0.4c0.1,0.1,0.1,0.1,0.2,0.2c0.2,0.1,0.4,0.3,0.5,0.4c0.1,0.1,0.2,0.1,0.2,0.2c0.2,0.1,0.4,0.3,0.6,0.4
		c0,0,0.1,0.1,0.2,0.2c0.2,0.2,0.3,0.3,0.5,0.4c0.1,0.1,0.2,0.1,0.3,0.2c0.2,0.2,0.4,0.4,0.7,0.6c0.2,0.2,0.5,0.4,0.7,0.6
		c0.1,0.1,0.2,0.1,0.2,0.2c0.2,0.1,0.4,0.3,0.6,0.5c0,0,0.1,0.1,0.2,0.2c0.2,0.2,0.4,0.3,0.5,0.4c0.1,0.1,0.2,0.1,0.3,0.2
		c0.2,0.1,0.3,0.3,0.5,0.4c0.1,0.1,0.2,0.1,0.2,0.2c0.2,0.1,0.4,0.3,0.5,0.4c0.1,0,0.1,0.1,0.2,0.2c0.2,0.2,0.5,0.3,0.7,0.5
		c0.1,0,0.1,0.1,0.1,0.1c0.5,0.4,1,0.8,1.5,1.2c0.1,0,0.1,0.1,0.1,0.1c0.2,0.2,0.4,0.3,0.6,0.5c0.1,0.1,0.1,0.1,0.2,0.2
		c0.2,0.1,0.4,0.3,0.5,0.4c0.1,0.1,0.2,0.1,0.2,0.2c0.2,0.1,0.4,0.3,0.5,0.4c0.1,0.1,0.2,0.1,0.3,0.2c0.2,0.1,0.3,0.3,0.5,0.4
		c0.1,0.1,0.2,0.1,0.3,0.2c0.2,0.1,0.3,0.3,0.5,0.4c0.1,0.1,0.2,0.1,0.2,0.2c0.5,0.4,1,0.8,1.6,1.2c0,0,0.1,0.1,0.2,0.1
		c0.2,0.1,0.4,0.3,0.6,0.4c0.1,0.1,0.2,0.1,0.3,0.2c0.2,0.1,0.3,0.3,0.5,0.4c0.1,0.1,0.2,0.1,0.3,0.2c0.2,0.1,0.4,0.3,0.5,0.4
		c0.1,0.1,0.2,0.1,0.2,0.2c0.2,0.1,0.4,0.3,0.5,0.4c0.1,0.1,0.2,0.1,0.3,0.2c0.2,0.1,0.3,0.3,0.5,0.4c0.1,0.1,0.2,0.1,0.3,0.2
		c0.2,0.2,0.4,0.3,0.7,0.5c0,0,0,0,0.1,0.1c0.3,0.2,0.5,0.4,0.8,0.6c0,0,0,0,0.1,0.1c0.2,0.2,0.5,0.3,0.7,0.5
		c0.1,0.1,0.2,0.1,0.2,0.2c0.2,0.1,0.4,0.3,0.6,0.4c0.1,0.1,0.2,0.1,0.2,0.2c0.2,0.1,0.4,0.3,0.5,0.4c0.1,0.1,0.2,0.1,0.3,0.2
		c0.2,0.1,0.4,0.3,0.6,0.4c0.1,0,0.2,0.1,0.2,0.2c0.2,0.1,0.3,0.3,0.5,0.4c0.1,0.1,0.2,0.1,0.3,0.2c0.2,0.1,0.4,0.3,0.6,0.4
		c0.1,0,0.1,0.1,0.2,0.1c0.3,0.2,0.5,0.4,0.8,0.6l0,0c0.3,0.2,0.6,0.4,0.8,0.5c0.1,0.1,0.1,0.1,0.1,0.1c0.2,0.1,0.4,0.3,0.6,0.4
		c0.1,0.1,0.2,0.1,0.3,0.2c0.2,0.1,0.4,0.2,0.5,0.4c0.1,0,0.2,0.1,0.3,0.2c0.2,0.1,0.4,0.3,0.6,0.4c0.1,0,0.1,0.1,0.2,0.2
		c0.2,0.1,0.4,0.3,0.6,0.4c0.1,0,0.1,0.1,0.2,0.1c0.2,0.2,0.5,0.3,0.7,0.5l0.1,0c0.6,0.4,1.1,0.7,1.7,1.1c0.1,0,0.1,0.1,0.2,0.1
		c0.2,0.1,0.4,0.3,0.6,0.4c0.1,0,0.1,0.1,0.2,0.2c0.2,0.1,0.4,0.2,0.5,0.4c0.1,0.1,0.2,0.1,0.3,0.2c0.2,0.1,0.3,0.2,0.5,0.3
		c0.1,0.1,0.2,0.1,0.3,0.2c0.2,0.1,0.4,0.2,0.5,0.4c0.1,0.1,0.2,0.1,0.3,0.2c0.2,0.1,0.4,0.3,0.6,0.4c0.1,0,0.1,0.1,0.2,0.1
		c0.5,0.4,1.1,0.7,1.7,1.1c0,0,0.1,0.1,0.1,0.1c0.2,0.1,0.4,0.3,0.7,0.4c0.1,0,0.2,0.1,0.2,0.1c0.2,0.1,0.4,0.3,0.6,0.4
		c0.1,0,0.1,0.1,0.2,0.1c0.2,0.1,0.4,0.3,0.6,0.4c0.1,0.1,0.2,0.1,0.3,0.2c0.2,0.1,0.4,0.2,0.6,0.4c0.1,0,0.1,0.1,0.2,0.1
		c0.2,0.1,0.5,0.3,0.7,0.4c0.1,0,0.1,0,0.1,0.1c0.9,0.5,1.7,1,2.6,1.6c0.1,0,0.1,0,0.2,0.1c0.2,0.1,0.5,0.3,0.7,0.4
		c0.1,0,0.1,0.1,0.2,0.1c0.3,0.1,0.4,0.3,0.7,0.4c0.1,0,0.1,0.1,0.2,0.1c0.2,0.1,0.4,0.3,0.6,0.4c0.1,0,0.1,0.1,0.2,0.1
		c0.1,0,0.1,0.1,0.2,0.1l8.3-14.2c-63.5-37.2-112.8-95.4-139-163.9l-15.4,5.9c5.3,13.9,11.5,27.4,18.5,40.3c0,0,0,0,0,0
		c0.1,0.3,0.3,0.5,0.4,0.8c1,1.8,2,3.7,3,5.5l0,0.1c0.2,0.2,0.3,0.5,0.4,0.7v0c0.2,0.3,0.3,0.5,0.4,0.8c0.9,1.6,1.8,3.1,2.7,4.6
		c0,0,0,0,0,0c0.1,0.3,0.3,0.5,0.5,0.7c0,0,0,0.1,0,0.1c0.2,0.2,0.3,0.5,0.4,0.7c0,0,0,0,0.1,0.1c0.6,1,1.2,2,1.8,3c0,0,0,0,0,0
		c0.2,0.2,0.3,0.5,0.4,0.7c0,0,0.1,0.1,0.1,0.1c0.1,0.2,0.3,0.4,0.4,0.6c0.1,0.1,0.1,0.1,0.1,0.2c0.1,0.2,0.3,0.4,0.4,0.6
		c0.1,0.1,0.1,0.2,0.1,0.2c0.1,0.2,0.2,0.4,0.4,0.6c0,0.1,0.1,0.1,0.1,0.2c0.1,0.2,0.3,0.4,0.4,0.6c0,0,0,0,0,0
		C124.6,594.2,125.1,594.9,125.6,595.6z"/>
	<path class="st0" d="M676,225.9l13.5-9.4c-11-15.8-23.4-30.6-36.9-44.3c0,0-0.1-0.1-0.1-0.1c-0.7-0.7-1.3-1.3-2.1-2
		c-0.1,0-0.1-0.1-0.2-0.2c-0.4-0.4-0.8-0.8-1.3-1.3c0,0,0,0-0.1-0.1c-0.2-0.2-0.4-0.4-0.6-0.6c-0.1-0.1-0.2-0.2-0.3-0.3
		c-0.3-0.3-0.6-0.6-1-0.9c-0.1-0.1-0.3-0.2-0.4-0.3c-0.2-0.2-0.3-0.4-0.5-0.5c-0.1-0.1-0.3-0.3-0.4-0.4c-0.2-0.2-0.5-0.4-0.7-0.7
		c-0.2-0.2-0.4-0.4-0.6-0.6c-0.1-0.1-0.3-0.3-0.4-0.4c-0.2-0.2-0.4-0.4-0.5-0.5c-0.2-0.2-0.4-0.3-0.5-0.5c-0.2-0.2-0.5-0.5-0.7-0.7
		c-0.1-0.1-0.3-0.2-0.4-0.4c-0.3-0.2-0.5-0.4-0.7-0.7c-0.1-0.1-0.2-0.2-0.3-0.3c-0.3-0.3-0.6-0.6-0.9-0.8c-0.1-0.1-0.2-0.2-0.3-0.2
		c-0.7-0.6-1.4-1.3-2.1-1.9c0,0-0.1-0.1-0.1-0.1c-0.7-0.7-1.5-1.3-2.2-2c0,0,0,0,0,0c-4.2-3.7-8.5-7.4-13-10.9l-10.2,12.9
		C636.4,177.3,658,200.2,676,225.9z"/>
	<path class="st0" d="M72.6,442.8c0,0.1,0,0.2,0,0.3c0,0.2,0,0.4,0.1,0.6c0,0.1,0,0.2,0,0.3c0,0.4,0.1,0.8,0.1,1.1
		c0,0.1,0,0.3,0,0.4c0,0.2,0,0.3,0,0.5c0,0.2,0.1,0.3,0.1,0.5c0,0.2,0,0.3,0.1,0.5c0,0.2,0,0.3,0,0.5c0,0.1,0,0.3,0,0.4
		c0,0.2,0,0.4,0.1,0.6c0,0.1,0,0.3,0,0.4c0,0.3,0.1,0.5,0.1,0.8c0,0,0,0.1,0,0.2c0.1,0.7,0.1,1.4,0.2,2.1l0,0c0,0.3,0.1,0.7,0.1,1
		c0,0,0,0,0,0c0.6,5.2,1.4,10.4,2.3,15.6l16.2-2.8c-3.1-18-4.7-36.5-4.7-55c0-12.9,0.8-25.8,2.3-38.5l-16.3-1.9
		c-0.2,1.5-0.3,3-0.5,4.5c0,0.1,0,0.1,0,0.2c0,0.2-0.1,0.5-0.1,0.7c0,0.2,0,0.3-0.1,0.5c0,0.2,0,0.4-0.1,0.6c0,0.2,0,0.4-0.1,0.6
		c0,0.2,0,0.3,0,0.5c0,0.3,0,0.5-0.1,0.8c0,0.1,0,0.2,0,0.3c-0.1,1.2-0.2,2.4-0.3,3.7c0,0,0,0.1,0,0.1c-0.1,0.4-0.1,0.8-0.1,1.1
		c0,0,0,0.1,0,0.1c0,0.4-0.1,0.8-0.1,1.2c0,0,0,0,0,0c-0.2,2.1-0.3,4.2-0.4,6.3c0,0,0,0,0,0.1c0,0.4,0,0.8-0.1,1.2c0,0,0,0.1,0,0.1
		c-0.1,1.7-0.2,3.3-0.2,5c0,0,0,0.1,0,0.2c0,0.4,0,0.7-0.1,1.1c0,0.1,0,0.2,0,0.2c0,0.4,0,0.7,0,1c0,0.1,0,0.1,0,0.2
		c0,0.4,0,0.7,0,1.1c0,0.1,0,0.1,0,0.2c0,0.8,0,1.6-0.1,2.5c0,0.1,0,0.2,0,0.2c0,0.3,0,0.6,0,1c0,0.1,0,0.2,0,0.4c0,0.3,0,0.5,0,0.8
		c0,0.1,0,0.3,0,0.4c0,0.3,0,0.5,0,0.8c0,0.1,0,0.3,0,0.4c0,0.3,0,0.6,0,0.9c0,0.1,0,0.2,0,0.4c0,0.4,0,0.8,0,1.2c0,0.3,0,0.7,0,1
		c0,0.1,0,0.2,0,0.3c0,0.2,0,0.5,0,0.7c0,0.1,0,0.3,0,0.4c0,0.2,0,0.4,0,0.6c0,0.1,0,0.3,0,0.4c0,0.2,0,0.4,0,0.6c0,0.1,0,0.3,0,0.4
		c0,0.2,0,0.5,0,0.7c0,0.1,0,0.2,0,0.3c0,0.3,0,0.7,0,1c0,0.1,0,0.3,0,0.4c0,0.2,0,0.4,0,0.6c0,0.1,0,0.3,0,0.4c0,0.2,0,0.4,0,0.6
		c0,0.1,0,0.3,0,0.4c0,0.2,0,0.4,0,0.5c0,0.2,0,0.3,0,0.5c0,0.2,0,0.4,0,0.5c0,0.2,0,0.3,0,0.5c0,0.2,0,0.3,0,0.5c0,0.3,0,0.7,0.1,1
		c0,0.2,0,0.3,0,0.4c0,0.2,0,0.4,0,0.6c0,0.1,0,0.3,0,0.4c0,0.2,0,0.4,0,0.6c0,0.1,0,0.3,0,0.4c0,0.2,0,0.4,0,0.6c0,0.1,0,0.2,0,0.3
		c0,0.8,0.1,1.6,0.1,2.4c0,0,0,0.1,0,0.1c0,0.2,0,0.5,0,0.7c0,0.1,0,0.2,0,0.3c0,0.2,0,0.4,0,0.7c0,0.1,0,0.2,0,0.3
		c0,0.2,0,0.5,0,0.7c0,0.1,0,0.1,0,0.2c0.1,1.1,0.1,2.2,0.2,3.3c0,0,0,0.1,0,0.2c0,0.2,0,0.5,0.1,0.7c0,0.1,0,0.1,0,0.2
		c0,0.2,0.1,0.5,0.1,0.7c0,0.1,0,0.2,0,0.2c0.1,1.1,0.2,2.2,0.3,3.3c0,0.1,0,0.1,0,0.2c0,0.2,0,0.4,0.1,0.7c0,0.1,0,0.2,0,0.3
		C72.5,442.4,72.6,442.6,72.6,442.8z"/>
	<path class="st0" d="M637.4,664.2c0.2-0.2,0.4-0.4,0.6-0.5c0.2-0.1,0.3-0.3,0.5-0.4c0.1-0.1,0.2-0.2,0.3-0.2
		c0.1-0.1,0.3-0.3,0.4-0.4c0.1-0.1,0.2-0.1,0.3-0.2c0.2-0.1,0.3-0.3,0.5-0.5c0.1-0.1,0.2-0.1,0.2-0.2c0.2-0.2,0.4-0.3,0.5-0.5
		c0,0,0.1-0.1,0.2-0.1c0.2-0.2,0.4-0.4,0.6-0.6c0,0,0,0,0,0c54.2-50.1,92-117.7,104.5-193.7l-16.2-2.7
		c-11.9,72.3-48.7,139.1-103.7,188.2l11,12.2C637.2,664.3,637.3,664.2,637.4,664.2z"/>
	<path class="st0" d="M75.5,271.8l15.2,6.3C144.6,148.3,270.3,64.4,410.8,64.4l0-16.4c-0.4,0-0.7,0-1.1,0c-0.1,0-0.2,0-0.3,0
		c-0.2,0-0.5,0-0.8,0c-0.1,0-0.2,0-0.3,0c-0.7,0-1.4,0-2.1,0c-0.1,0-0.3,0-0.4,0c-0.2,0-0.5,0-0.7,0c-0.1,0-0.3,0-0.4,0
		c-0.3,0-0.6,0-0.9,0c0,0-0.1,0-0.1,0c-0.3,0-0.7,0-1,0c-0.1,0-0.2,0-0.3,0c-0.3,0-0.5,0-0.7,0c-0.1,0-0.3,0-0.4,0
		c-0.3,0-0.6,0-0.9,0c-0.1,0-0.1,0-0.2,0c-0.4,0-0.7,0-1,0c-0.1,0-0.2,0-0.4,0c-0.2,0-0.5,0-0.7,0c-0.1,0-0.2,0-0.4,0
		c-0.3,0-0.6,0-0.8,0c-0.1,0-0.1,0-0.2,0c-0.3,0-0.7,0-1,0c-0.1,0-0.2,0-0.3,0c-0.2,0-0.5,0-0.8,0c-0.1,0-0.2,0-0.3,0
		c-0.3,0-0.6,0-0.8,0c-0.1,0-0.2,0-0.2,0c-0.4,0-0.7,0-1,0c-0.1,0-0.3,0-0.4,0c-0.2,0-0.4,0-0.7,0c-0.1,0-0.3,0-0.4,0
		c-0.3,0-0.5,0-0.8,0c-0.1,0-0.2,0-0.3,0c-0.3,0-0.7,0.1-1,0.1c-0.1,0-0.2,0-0.3,0c-0.2,0-0.5,0-0.8,0c-0.1,0-0.3,0-0.4,0
		c-0.2,0-0.5,0-0.8,0.1c-0.1,0-0.2,0-0.3,0c-0.3,0-0.7,0-1,0.1c-0.1,0-0.2,0-0.3,0c-0.2,0-0.5,0-0.7,0.1c-0.1,0-0.3,0-0.4,0
		c-0.3,0-0.5,0-0.8,0.1c-0.1,0-0.2,0-0.3,0c-0.3,0-0.7,0-1,0.1c-0.1,0-0.2,0-0.3,0c-0.3,0-0.5,0.1-0.8,0.1c-0.1,0-0.3,0-0.4,0
		c-0.3,0-0.5,0-0.7,0.1c-0.1,0-0.2,0-0.3,0c-0.3,0-0.6,0.1-1,0.1c-0.1,0-0.2,0-0.3,0c-0.2,0-0.5,0-0.7,0.1c-0.1,0-0.2,0-0.4,0
		c-0.2,0-0.5,0.1-0.7,0.1c-0.1,0-0.2,0-0.4,0c-0.3,0-0.6,0.1-1,0.1c-0.1,0-0.3,0-0.4,0c-0.2,0-0.4,0-0.7,0.1c-0.1,0-0.3,0-0.4,0
		c-0.2,0-0.4,0.1-0.6,0.1c-0.1,0-0.3,0-0.4,0.1c-0.3,0-0.6,0.1-1,0.1c-0.1,0-0.2,0-0.4,0c-0.2,0-0.4,0-0.7,0.1c-0.2,0-0.3,0-0.4,0
		c-0.2,0-0.4,0-0.6,0.1c-0.1,0-0.3,0-0.4,0c-0.3,0.1-0.6,0.1-1,0.1c-0.1,0-0.2,0-0.3,0c-0.2,0-0.4,0.1-0.7,0.1c-0.1,0-0.3,0-0.4,0
		c-0.2,0-0.4,0-0.6,0.1c-0.1,0-0.2,0-0.4,0c-0.2,0-0.5,0.1-0.7,0.1c-0.2,0-0.4,0-0.6,0.1c-0.2,0-0.4,0-0.6,0.1c-0.1,0-0.3,0-0.4,0.1
		c-0.2,0-0.4,0.1-0.6,0.1c-0.1,0-0.3,0.1-0.4,0.1c-0.3,0-0.6,0.1-0.8,0.1c-0.2,0-0.3,0.1-0.5,0.1c-0.2,0-0.4,0.1-0.6,0.1
		c-0.1,0-0.3,0-0.4,0.1c-0.2,0-0.4,0.1-0.6,0.1c-0.1,0-0.3,0-0.5,0.1c-0.2,0-0.4,0.1-0.6,0.1c-0.2,0-0.4,0.1-0.7,0.1
		c-0.2,0-0.4,0.1-0.6,0.1c-0.2,0-0.4,0.1-0.5,0.1c-0.2,0-0.4,0-0.5,0.1c-0.2,0-0.3,0.1-0.5,0.1c-0.2,0-0.4,0.1-0.6,0.1
		c-0.2,0-0.5,0.1-0.7,0.1c-0.2,0-0.4,0.1-0.6,0.1c-0.2,0-0.4,0-0.5,0.1c-0.2,0-0.3,0.1-0.5,0.1c-0.2,0-0.4,0.1-0.5,0.1
		c-0.2,0-0.4,0-0.5,0.1c-0.3,0-0.6,0.1-0.9,0.1c-0.2,0-0.3,0-0.5,0.1c-0.2,0-0.3,0.1-0.5,0.1c-0.1,0-0.3,0.1-0.4,0.1
		c-0.2,0-0.4,0.1-0.5,0.1c-0.2,0-0.3,0-0.5,0.1c-0.4,0.1-0.7,0.1-1.1,0.2c-0.1,0-0.2,0.1-0.3,0.1c-0.2,0-0.4,0.1-0.6,0.1
		c-0.1,0-0.3,0-0.4,0.1c-0.2,0-0.4,0.1-0.6,0.1c-0.1,0-0.2,0-0.4,0.1c-0.4,0.1-0.7,0.1-1.1,0.2c-0.1,0-0.2,0-0.4,0.1
		c-0.2,0-0.4,0.1-0.6,0.1c-0.1,0-0.3,0-0.4,0.1c-0.2,0-0.4,0.1-0.6,0.1c-0.1,0-0.3,0-0.4,0.1c-0.4,0.1-0.9,0.2-1.3,0.3l-0.1,0
		c-0.2,0-0.4,0.1-0.7,0.1c-0.1,0-0.2,0.1-0.3,0.1c-0.2,0-0.4,0.1-0.6,0.1c-0.1,0-0.2,0-0.3,0.1c-0.5,0.1-1,0.2-1.5,0.3h0
		c-0.2,0-0.4,0.1-0.6,0.1c-0.1,0-0.2,0-0.3,0c-0.2,0.1-0.4,0.1-0.7,0.1c-0.1,0-0.2,0-0.3,0.1c-0.7,0.1-1.4,0.3-2.1,0.4
		c-0.1,0-0.2,0-0.2,0.1c-0.2,0-0.4,0.1-0.6,0.1c-0.1,0-0.2,0-0.3,0.1c-0.7,0.2-1.4,0.3-2.1,0.5c-0.1,0-0.2,0-0.2,0
		c-0.2,0-0.4,0.1-0.7,0.2c-0.1,0-0.2,0-0.3,0c-0.7,0.2-1.5,0.4-2.2,0.5c-0.1,0-0.1,0-0.2,0c-0.2,0.1-0.5,0.1-0.7,0.2
		c0,0-0.1,0-0.1,0c-0.8,0.2-1.5,0.4-2.3,0.6c0,0-0.1,0-0.1,0c-0.3,0.1-0.5,0.1-0.7,0.2c-0.1,0-0.1,0-0.1,0.1
		c-1.1,0.3-2.1,0.5-3.2,0.8c0,0-0.1,0-0.1,0c-0.8,0.2-1.6,0.4-2.4,0.6c-0.3,0.1-0.5,0.1-0.8,0.2c0,0-0.1,0-0.1,0
		c-1.1,0.3-2.1,0.6-3.1,0.9l-0.1,0c-1.1,0.3-2.1,0.6-3.2,0.9c0,0,0,0,0,0C203,93.5,117.3,171.2,75.5,271.8z"/>
	<path class="st0" d="M768.2,346.8c-25.7-144.5-137-259.4-279.6-290.5l-3.5,16.1c137.4,30,242.2,138.8,266.9,277.3L768.2,346.8z"/>
	<path class="st0" d="M297,738.5C174.9,696,87.2,590.4,68.1,462.7l-16.3,2.4c5.3,35.5,15.8,69.3,30.6,100.7v0c0.3,0.7,0.6,1.4,1,2
		l0,0c0.1,0.2,0.2,0.4,0.3,0.7l0,0c0.2,0.5,0.4,0.9,0.7,1.3v0c0.1,0.2,0.2,0.4,0.3,0.7c0,0,0,0.1,0.1,0.1c0.3,0.6,0.6,1.3,0.9,1.9
		c0,0,0.1,0.1,0.1,0.2c0.3,0.6,0.6,1.3,1,1.9c0,0,0,0.1,0.1,0.1c0.1,0.2,0.2,0.4,0.3,0.6c0,0.1,0.1,0.1,0.1,0.2
		c0.2,0.4,0.4,0.7,0.6,1.1c0,0.1,0,0.1,0.1,0.2c0.1,0.2,0.2,0.4,0.3,0.6c0,0,0.1,0.1,0.1,0.2c0.3,0.6,0.6,1.2,0.9,1.8
		c0.1,0.1,0.1,0.2,0.2,0.3c0.1,0.2,0.2,0.3,0.3,0.5c0.1,0.1,0.1,0.2,0.2,0.3c0.2,0.3,0.3,0.6,0.5,0.9c0.1,0.1,0.1,0.2,0.2,0.3
		c0.1,0.2,0.2,0.3,0.3,0.5c0,0.1,0.1,0.2,0.1,0.3c0.2,0.3,0.3,0.5,0.5,0.8c0.1,0.1,0.2,0.3,0.2,0.4c0.1,0.1,0.2,0.3,0.2,0.4
		c0.1,0.2,0.2,0.3,0.2,0.4c0.1,0.1,0.2,0.3,0.2,0.4c0.1,0.2,0.3,0.5,0.4,0.7c0.1,0.1,0.2,0.3,0.3,0.4c0.1,0.2,0.1,0.3,0.2,0.4
		c0.1,0.1,0.2,0.3,0.2,0.4c0.1,0.2,0.3,0.5,0.4,0.7c0.1,0.1,0.2,0.3,0.2,0.4c0.1,0.1,0.1,0.3,0.2,0.4c0.1,0.1,0.2,0.3,0.3,0.4
		c0.1,0.1,0.2,0.3,0.2,0.4c0.1,0.2,0.3,0.4,0.4,0.7c0.1,0.1,0.1,0.3,0.2,0.5c0.1,0.1,0.2,0.3,0.3,0.4c0.1,0.1,0.2,0.3,0.2,0.5
		c0.1,0.1,0.2,0.2,0.2,0.3c0.2,0.2,0.3,0.5,0.4,0.7c0.1,0.1,0.2,0.3,0.2,0.4c0.1,0.1,0.1,0.3,0.2,0.4c0.1,0.1,0.2,0.3,0.2,0.4
		c0.1,0.1,0.2,0.3,0.3,0.4c0.1,0.2,0.2,0.4,0.4,0.6c0.1,0.2,0.2,0.3,0.3,0.4c0.1,0.1,0.2,0.2,0.2,0.4c0.1,0.2,0.2,0.3,0.3,0.5
		c0.1,0.2,0.2,0.4,0.3,0.5c0.1,0.2,0.2,0.3,0.3,0.5c0.1,0.1,0.1,0.3,0.2,0.4c0.1,0.2,0.2,0.3,0.3,0.5c0.1,0.1,0.1,0.2,0.2,0.4
		c0.2,0.2,0.3,0.5,0.5,0.7c0.1,0.1,0.1,0.2,0.2,0.3c0.1,0.2,0.2,0.3,0.3,0.5c0.1,0.1,0.1,0.2,0.2,0.4c0.2,0.2,0.3,0.5,0.4,0.7
		c0.1,0.1,0.1,0.2,0.2,0.3c0.1,0.2,0.2,0.3,0.3,0.5c0.1,0.1,0.1,0.2,0.2,0.4c0.1,0.2,0.2,0.4,0.4,0.6c0.1,0.1,0.1,0.2,0.2,0.3
		c0.1,0.2,0.3,0.4,0.4,0.6c0.1,0.1,0.2,0.2,0.2,0.4c0.1,0.2,0.2,0.3,0.3,0.4c0.1,0.1,0.2,0.2,0.2,0.3c0.1,0.2,0.3,0.5,0.4,0.7
		c0.1,0.1,0.1,0.2,0.2,0.3c0.1,0.2,0.3,0.4,0.4,0.6c0.1,0.1,0.1,0.2,0.2,0.3c0.2,0.2,0.4,0.5,0.5,0.8c0.1,0.1,0.1,0.1,0.1,0.2
		c0.1,0.2,0.3,0.4,0.4,0.6c0.1,0.1,0.1,0.2,0.2,0.3c0.1,0.2,0.3,0.4,0.4,0.6c0.1,0.1,0.2,0.2,0.2,0.4c0.2,0.2,0.3,0.4,0.4,0.6
		c0.1,0.1,0.1,0.2,0.2,0.3c0.1,0.2,0.3,0.4,0.4,0.6c0.1,0.1,0.1,0.1,0.1,0.2c0.2,0.3,0.4,0.5,0.5,0.8c0,0.1,0.1,0.1,0.1,0.2
		c0.2,0.2,0.3,0.4,0.5,0.7c0,0.1,0.1,0.1,0.1,0.2c0.2,0.3,0.4,0.6,0.6,0.8c0,0,0.1,0.1,0.1,0.1c0.2,0.2,0.3,0.4,0.4,0.7
		c0.1,0.1,0.1,0.2,0.2,0.3c0.2,0.2,0.3,0.5,0.5,0.7c0,0,0,0,0,0.1c0.2,0.3,0.4,0.5,0.5,0.8c0.1,0.1,0.1,0.2,0.2,0.2
		c0.2,0.2,0.3,0.4,0.5,0.7c0,0,0,0.1,0.1,0.1c0.2,0.3,0.4,0.5,0.6,0.8c0,0.1,0.1,0.1,0.2,0.2c0.1,0.2,0.3,0.4,0.4,0.6
		c0.1,0.1,0.1,0.1,0.2,0.2c0.2,0.3,0.4,0.5,0.5,0.8c0,0,0.1,0.1,0.1,0.1c0.2,0.3,0.3,0.5,0.5,0.7c0,0.1,0.1,0.1,0.1,0.2
		c0.2,0.2,0.4,0.5,0.5,0.7c0,0,0.1,0.1,0.1,0.1c0.2,0.2,0.4,0.5,0.6,0.7c0,0.1,0.1,0.1,0.2,0.2c0.1,0.2,0.3,0.4,0.4,0.6
		c0,0.1,0.1,0.1,0.1,0.2c0.2,0.2,0.4,0.5,0.5,0.7c0.1,0.1,0.1,0.2,0.2,0.2c0.2,0.2,0.3,0.4,0.4,0.6c0.1,0.1,0.1,0.1,0.2,0.2
		c0.2,0.3,0.4,0.5,0.5,0.8c0.1,0,0.1,0.1,0.1,0.1c0.1,0.2,0.3,0.4,0.4,0.6c0.1,0.1,0.1,0.2,0.2,0.2c0.2,0.2,0.4,0.5,0.5,0.7
		c0,0,0,0,0,0c0.2,0.3,0.4,0.5,0.6,0.8c0.1,0.1,0.1,0.2,0.2,0.3c0.1,0.2,0.3,0.4,0.4,0.6c0,0.1,0.1,0.1,0.2,0.2
		c0.2,0.2,0.4,0.5,0.5,0.7c0.1,0.1,0.1,0.1,0.2,0.2c0.2,0.2,0.3,0.4,0.4,0.6c0.1,0.1,0.1,0.1,0.2,0.2c0.2,0.2,0.4,0.5,0.5,0.7
		c0.1,0.1,0.1,0.2,0.2,0.2c0.1,0.2,0.3,0.4,0.5,0.5c0.1,0.1,0.1,0.2,0.2,0.3c0.2,0.2,0.3,0.4,0.4,0.6c0.1,0.1,0.1,0.2,0.2,0.3
		c0.2,0.2,0.4,0.4,0.5,0.7c0,0.1,0.1,0.1,0.2,0.2c0.2,0.2,0.3,0.4,0.5,0.6c0,0,0.1,0.1,0.1,0.2c0.2,0.2,0.4,0.5,0.6,0.7
		c0.1,0.1,0.1,0.1,0.2,0.2c0.2,0.2,0.3,0.4,0.4,0.6c0.1,0.1,0.1,0.2,0.2,0.2c0.2,0.3,0.4,0.5,0.6,0.7c0.1,0.1,0.1,0.1,0.1,0.2
		c0.2,0.2,0.3,0.4,0.5,0.6c0.1,0.1,0.1,0.2,0.2,0.3c0.2,0.2,0.3,0.4,0.5,0.6c0,0,0.1,0.1,0.1,0.1c0.2,0.2,0.4,0.4,0.5,0.7
		c0.1,0.1,0.2,0.2,0.2,0.3c0.1,0.2,0.3,0.4,0.4,0.6c0.1,0,0.1,0.1,0.1,0.2c0.2,0.2,0.4,0.5,0.6,0.7c0.1,0.1,0.2,0.2,0.3,0.3
		c0.1,0.2,0.3,0.3,0.4,0.5c0.1,0.1,0.2,0.2,0.3,0.3c0.2,0.2,0.4,0.4,0.5,0.7c0.1,0.1,0.2,0.2,0.2,0.2c0.1,0.2,0.3,0.3,0.4,0.5
		c0.1,0.1,0.2,0.2,0.2,0.3c0.1,0.2,0.3,0.4,0.4,0.5c0.1,0.1,0.2,0.2,0.3,0.3c0.2,0.2,0.3,0.4,0.5,0.5c0.1,0.1,0.1,0.2,0.2,0.3
		c0.2,0.2,0.3,0.3,0.5,0.5c0.1,0.1,0.1,0.1,0.2,0.2c0.2,0.2,0.4,0.5,0.6,0.7c0.1,0.1,0.2,0.2,0.2,0.3c0.2,0.1,0.3,0.3,0.4,0.5
		c0.1,0.1,0.2,0.2,0.3,0.3c0.2,0.2,0.4,0.4,0.6,0.7c0.1,0.1,0.1,0.2,0.2,0.2c0.1,0.2,0.3,0.3,0.4,0.5c0.1,0.1,0.2,0.2,0.3,0.3
		c0.2,0.2,0.3,0.4,0.5,0.5c0.1,0.1,0.1,0.1,0.2,0.2c0.2,0.2,0.4,0.4,0.5,0.6c0.1,0.1,0.2,0.2,0.3,0.3c0.1,0.1,0.3,0.3,0.4,0.4
		c0.1,0.1,0.1,0.2,0.2,0.3c0.2,0.2,0.4,0.4,0.6,0.7c0.1,0.1,0.1,0.2,0.2,0.3c0.2,0.2,0.3,0.3,0.4,0.5c0.1,0.1,0.2,0.2,0.2,0.2
		c0.2,0.2,0.4,0.4,0.6,0.7c0.1,0.1,0.1,0.2,0.2,0.2c0.2,0.2,0.3,0.3,0.4,0.5c0.1,0.1,0.2,0.2,0.2,0.3c0.1,0.1,0.3,0.3,0.4,0.4
		c0.1,0.1,0.3,0.3,0.4,0.4c0.1,0.2,0.2,0.3,0.4,0.5c0.1,0.1,0.2,0.2,0.3,0.3c0.2,0.1,0.3,0.3,0.4,0.4c0.1,0.1,0.2,0.2,0.3,0.3
		c0.2,0.2,0.4,0.4,0.6,0.6c0.1,0.1,0.2,0.2,0.3,0.3c0.1,0.1,0.2,0.3,0.4,0.4c0.1,0.1,0.2,0.2,0.3,0.3c0.2,0.2,0.4,0.4,0.5,0.6
		c0.1,0.1,0.3,0.2,0.4,0.4c0.1,0.1,0.2,0.2,0.3,0.3c0.1,0.1,0.3,0.3,0.4,0.4c0.1,0.1,0.2,0.2,0.3,0.3c0.2,0.2,0.4,0.4,0.5,0.6
		c0.1,0.1,0.2,0.2,0.4,0.4c0.1,0.1,0.2,0.2,0.4,0.4c0.1,0.1,0.2,0.2,0.3,0.3c0.1,0.1,0.2,0.2,0.3,0.3c0.2,0.2,0.4,0.4,0.6,0.6
		c0.1,0.1,0.2,0.2,0.3,0.4c0.1,0.1,0.2,0.2,0.3,0.3c0.1,0.1,0.3,0.2,0.4,0.4c0.2,0.2,0.4,0.4,0.5,0.6c0.1,0.1,0.2,0.2,0.3,0.3
		c0.1,0.1,0.3,0.2,0.4,0.4c0.1,0.1,0.2,0.2,0.3,0.3c0.1,0.1,0.3,0.3,0.4,0.4c0.2,0.2,0.4,0.4,0.5,0.5c0.1,0.1,0.2,0.2,0.3,0.3
		c0.1,0.1,0.3,0.2,0.4,0.3c0.1,0.1,0.2,0.2,0.3,0.3c0.3,0.2,0.5,0.5,0.8,0.8c0,0,0.1,0.1,0.2,0.1c0.2,0.1,0.3,0.3,0.4,0.4
		c0.1,0.1,0.2,0.2,0.3,0.3c0.1,0.1,0.3,0.3,0.4,0.4c0.1,0.1,0.1,0.1,0.2,0.2c0.2,0.2,0.5,0.5,0.8,0.7c0.1,0.1,0.2,0.2,0.3,0.3
		c0.1,0.1,0.3,0.2,0.4,0.4c0.1,0.1,0.2,0.2,0.3,0.3c0.2,0.2,0.4,0.4,0.6,0.6c0.1,0.1,0.2,0.2,0.3,0.3c0.2,0.1,0.3,0.2,0.4,0.4
		c0.1,0,0.1,0.1,0.2,0.2c0.4,0.4,1,0.9,1.4,1.3c0.1,0.1,0.2,0.1,0.2,0.2c0.5,0.5,1,0.9,1.5,1.4c0,0,0.1,0.1,0.1,0.1
		c0.2,0.2,0.4,0.3,0.5,0.5c0,0,0,0,0,0.1c0.4,0.3,0.7,0.6,1,0.9c0,0,0.1,0.1,0.1,0.1c0.2,0.1,0.3,0.3,0.5,0.4c0.1,0,0.1,0.1,0.1,0.1
		c0.5,0.5,1.1,1,1.6,1.4c0,0,0.1,0.1,0.1,0.1c0.6,0.5,1.1,1,1.7,1.5v0c0.8,0.7,1.5,1.3,2.3,2l0,0c0.6,0.5,1.2,1,1.7,1.5c0,0,0,0,0,0
		c34.1,29.3,73.8,52.4,117.1,67.4L297,738.5z"/>
	<path class="st0" d="M410.8,789.1c-60.9,0-118.4-14.4-169.3-40l-14.7,29.4c55.3,27.8,117.9,43.4,184,43.4c4.9,0,9.8-0.1,14.6-0.3
		l-1.1-32.9C419.8,789,415.3,789.1,410.8,789.1z"/>
	<path class="st0" d="M630.1,719l19.1,26.7c55.7-39.7,101.1-93,131.3-155.2L751,576.2C723.2,633.3,681.3,682.4,630.1,719z"/>
	<path class="st0" d="M753.8,184.7l-27.4,18.2c39.5,59.7,62.4,131.1,62.4,208.1l32.9,0C821.7,327.4,796.8,249.6,753.8,184.7z"/>
	<path class="st0" d="M603.5,47.9L603.5,47.9L603.5,47.9L603.5,47.9C603.5,47.9,603.5,47.9,603.5,47.9z"/>
	<path class="st0" d="M410.8,32.9c64.1,0,124.3,15.9,177.2,44l15.4-29C546.1,17.4,480.4,0,410.8,0c-1.7,0-3.3,0.1-4.9,0.1l0.3,32.9
		C407.8,32.9,409.3,32.9,410.8,32.9z"/>
	<path class="st0" d="M198.9,97.9l-18.5-27.3v0.1c-56.7,38.4-103.3,90.7-135,152l29.2,15.1C103.8,181.4,146.7,133.2,198.9,97.9z"/>
	<path class="st0" d="M0,420.7c1.9,83.3,28.7,160.7,73.2,224.6l27-18.8c-41-58.8-65.6-129.8-67.4-206.6L0,420.7z"/>
	<polygon class="st0" points="226.8,778.6 226.8,778.5 226.8,778.5 	"/>
</g>
</svg>
