<!-- Generator: Adobe Illustrator 25.2.1, SVG Export Plug-In  --><svg xmlns="http://www.w3.org/2000/svg" xmlns:xlink="http://www.w3.org/1999/xlink" version="1.1" x="0px" y="0px" width="310px" height="207px" viewBox="0 0 310.4 207.4" style="overflow:visible;enable-background:new 0 0 310.4 207.4;" xml:space="preserve" aria-hidden="true">
<style type="text/css">
	.st0-609465060e2f8{fill:none;stroke:#E6E7E8;stroke-width:1.6;stroke-linecap:round;stroke-linejoin:round;stroke-miterlimit:10;}
</style>
<defs><linearGradient class="cerosgradient" data-cerosgradient="true" id="CerosGradient_id0b3a212c1" gradientUnits="userSpaceOnUse" x1="50%" y1="100%" x2="50%" y2="0%"><stop offset="0%" stop-color="#d1d1d1"/><stop offset="100%" stop-color="#d1d1d1"/></linearGradient><linearGradient/>
</defs>
<g>
	<path class="st0-609465060e2f8" d="M0.8,171l101.3-58.2c6.1-3.5,13.2-4.9,20.2-3.8l77.4,11.3c3.6,0.5,6.9,2.5,9,5.5c2.1,3,2.8,6.8,2.1,10.4   c-1.4,6.7-7.5,11.4-14.3,11.1l-43.4-1.7l-19.8,10.9"/>
	<g>
		<path class="st0-609465060e2f8" d="M223.7,132.3l57.6-18.6c8.2-2.7,17.2-1.8,24.8,2.4c2.2,1.2,3.5,3.5,3.5,6c0,2.5-1.4,4.7-3.6,5.9l-91.3,48.1    c-6.8,3.6-14.3,5.4-22,5.3l-77.7-0.7c-4.9,0-9.9,1.1-14.2,3.5c-13.8,7.3-41.4,22.6-41.4,22.6 M258.4,48.3    c0,26.2-21.2,47.5-47.4,47.5c-26.2,0-47.5-21.2-47.5-47.5c0-26.2,21.3-47.5,47.5-47.5C237.2,0.8,258.4,22,258.4,48.3L258.4,48.3z     M224.2,33.3c-4.7-8.2-22.7-10-26.5,0.2c-3.4,9.1,7.6,13.3,14.4,13.8c6,0.4,13.8,3.2,13.5,10.5c-0.2,5.8-6.1,11-11.8,11.3    c-12.9,0.7-17.6-8.4-17.6-8.4"/>
	</g>
	<line class="st0-609465060e2f8" x1="211.1" y1="17.4" x2="211.1" y2="25.2"/>
	<line class="st0-609465060e2f8" x1="211.1" y1="69.4" x2="211.1" y2="79.1"/>
</g>
</svg>