<!-- Generator: Adobe Illustrator 25.0.1, SVG Export Plug-In  -->
<svg version="1.1" xmlns="http://www.w3.org/2000/svg" xmlns:xlink="http://www.w3.org/1999/xlink" x="0px" y="0px" width="146.1px"
	 height="57.2px" viewBox="0 0 146.1 57.2" style="overflow:visible;enable-background:new 0 0 146.1 57.2;" xml:space="preserve">
<style type="text/css">
	.st0{fill:#5FB9E4;}
</style>
<defs>
</defs>
<g>
	<path class="st0" d="M129.5,5l-0.9,0.5c-3-3.8-8.4-5.3-12.5-3.3c0,0,0,0,0,0l-2,1.1c-4.4-3.8-10.7-4.4-15.7-1.5l-9.9,5.4H75.3
		c-2.9,0-5.7-0.7-8.3-1.9l-1.8-0.9C54.8-0.6,42.5,0.6,33.3,7.5c0,0-0.1,0.1-0.1,0.1l-4.3,3.9c-1.6,1.4-17.9,10-27.9,15.1
		c-0.9,0.4-1.2,1.5-0.8,2.3c0.4,0.9,1.5,1.2,2.3,0.8c4.4-2.2,26.2-13.5,28.6-15.6l4.3-3.8c8.2-6.1,19.1-7.2,28.2-2.7l1.8,0.9
		c3.1,1.5,6.4,2.2,9.8,2.2h17.5c5.5,0,10.2,4,11.1,9.4l-12.9-0.6c-4.6-0.2-9.2,0-13.7,0.6c-1,0.1-1.6,1-1.5,2c0.1,1,1,1.6,2,1.5
		c0,0,0,0,0,0C82,23,86.4,22.8,90.8,23l14.9,0.7c1,0,1.8-0.7,1.8-1.7c0,0,0-0.1,0-0.1c0-0.4,0-0.7,0-1.1l2.2-1.1l21.6-11.6
		c3.6-1.9,8-1.2,10.7,1.9L98.1,40c-5.8,2.8-12.3,3.7-18.6,2.6l-26.2-4.8c-2.8-0.7-5.8-0.3-8.4,1.1l-26.2,15
		c-0.8,0.5-1.1,1.5-0.7,2.4c0.5,0.8,1.5,1.1,2.4,0.7c0,0,0,0,0,0l26.2-15c1.8-1,3.9-1.3,5.9-0.8c0,0,0.1,0,0.1,0L78.9,46
		c7.1,1.3,14.4,0.2,20.9-2.9c0.1,0,0.1-0.1,0.2-0.1l45.4-31.2c0.8-0.5,1-1.5,0.5-2.3C142.4,3.9,135.3,1.9,129.5,5z M100,4.9L100,4.9
		c3.4-1.9,7.5-1.8,10.7,0.3l-9.2,4.9c-1.8-1.4-3.9-2.3-6.2-2.7L100,4.9z M107.9,16.6l-1.2,0.6c-0.6-1.7-1.4-3.3-2.6-4.7l13.5-7.3
		c2.4-1.2,5.7-0.3,7.8,1.8L107.9,16.6z"/>
</g>
</svg>
