<!-- Generator: Adobe Illustrator 25.2.0, SVG Export Plug-In  -->
<svg version="1.1" xmlns="http://www.w3.org/2000/svg" xmlns:xlink="http://www.w3.org/1999/xlink" x="0px" y="0px" width="65.9px"
	 height="65.9px" viewBox="0 0 65.9 65.9" style="overflow:visible;enable-background:new 0 0 65.9 65.9;" xml:space="preserve">
<style type="text/css">
	.st0{fill:#4BBBEB;}
	.st1{fill:#132F3B;}
</style>
<defs>
</defs>
<g>
	<path class="st0" d="M61.3,65.9H4.5c-2.5,0-4.5-2-4.5-4.5V4.5C0,2,2,0,4.5,0h56.8c2.5,0,4.5,2,4.5,4.5v56.8
		C65.9,63.8,63.8,65.9,61.3,65.9z"/>
	<path class="st1" d="M41.7,31.2L41.7,31.2L41.7,31.2c-1-0.7-1.9-1.2-2.9-1.5c-1-0.3-2.3-0.5-4.1-0.7c-1.7-0.1-2.9-0.3-3.5-0.4
		c-0.4-0.1-0.8-0.3-1.1-0.6c-0.1-0.1-0.3-0.3-0.3-0.8v-1c0-1.7,0.3-2.1,0.4-2.1c0.1-0.1,0.4-0.4,1.8-0.4h1.6c1.5,0,1.8,0.3,1.9,0.3
		c0.1,0.1,0.3,0.4,0.3,1.7v0.3c0,1.4,0.9,2.2,2.2,2.2h4.2c1.4,0,2.2-0.9,2.2-2.2v-0.9c0-2.8-0.8-5-2.3-6.7c-1.3-1.4-3.1-2.3-5.3-2.5
		v-2.7c0-1.4-0.9-2.2-2.2-2.2h-2.9c-1.4,0-2.2,0.9-2.2,2.2v2.7c-1.5,0.1-2.7,0.4-3.6,0.8c0,0-0.1,0-0.1,0.1
		c-2.8,1.3-3.5,3.4-3.5,3.4s0,0,0,0c-0.7,1.4-1.1,3-1.1,4.9v1.8c0,3.9,1.1,6.5,3.3,7.9c1,0.7,2,1.1,2.9,1.4c0.9,0.3,2.3,0.5,4.1,0.7
		c1.6,0.2,2.8,0.3,3.3,0.4c0.5,0.1,0.8,0.3,1.2,0.6c0.2,0.2,0.4,0.6,0.4,1v0.7c0,1.4-0.3,1.8-0.4,1.9c-0.1,0.1-0.5,0.4-1.8,0.4h-2
		c-1.4,0-1.8-0.3-1.9-0.4c-0.1-0.1-0.4-0.4-0.4-1.7v-0.3c0-1.4-0.9-2.2-2.2-2.2h-4.2c-1.4,0-2.2,0.9-2.2,2.2v0.9
		c0,2.8,0.8,5.1,2.4,6.8c1.4,1.5,3.4,2.3,5.8,2.5v2.6c0,1.4,0.9,2.2,2.2,2.2h2.9c1.4,0,2.2-0.9,2.2-2.2v-2.6c2.3-0.2,4.1-1,5.5-2.4
		c1.7-1.6,2.5-3.9,2.5-6.8v-1.9C44.8,35.2,43.8,32.7,41.7,31.2z M42.4,40.7c0,2.2-0.6,3.9-1.8,5.1c-1.2,1.2-2.8,1.8-5,1.8h-0.1
		c-0.7,0-1.2,0.5-1.2,1.2l0,3.6l-2.6,0v-3.6c0-0.7-0.5-1.2-1.2-1.2h-0.3c-2.2,0-3.8-0.6-4.9-1.8c-1.2-1.2-1.7-2.9-1.7-5.1l0-0.7
		l3.8,0v0.2c0,1.6,0.4,2.7,1.1,3.4c0.7,0.7,1.9,1,3.5,1h2c1.6,0,2.8-0.4,3.5-1.1c0.8-0.7,1.1-1.9,1.1-3.6v-0.7
		c0-1.2-0.4-2.1-1.1-2.8c-0.6-0.6-1.4-1-2.3-1.2c-0.6-0.1-1.8-0.3-3.6-0.5c-1.6-0.2-2.9-0.3-3.6-0.6c-0.7-0.2-1.5-0.6-2.3-1.1
		c-1.5-0.9-2.2-2.9-2.2-5.9v-1.8c0-1.7,0.3-3.1,1-4.1c1.7-2.5,5-2.7,5.9-2.7h0.2c0.7,0,1.2-0.5,1.2-1.2l0-3.7l2.6,0v3.7
		c0,0.7,0.5,1.2,1.2,1.2h0.1c2,0,3.5,0.6,4.6,1.8c1.1,1.2,1.7,2.9,1.7,5.1l0,0.7l-3.8,0v-0.2c0-1.6-0.4-2.7-1.1-3.4
		c-0.7-0.7-1.9-1-3.6-1h-1.6c-1.7,0-2.9,0.4-3.6,1.1c-0.7,0.7-1,2-1,3.8v1c0,1.1,0.4,2,1.2,2.6c0.6,0.5,1.4,0.9,2.2,1.1
		c0.8,0.1,2,0.3,3.8,0.4c1.6,0.1,2.8,0.3,3.6,0.6c0.7,0.2,1.5,0.6,2.2,1.1c1.4,1,2.1,2.9,2.1,5.7V40.7z"/>
</g>
</svg>
