<svg xmlns="http://www.w3.org/2000/svg" xmlns:xlink="http://www.w3.org/1999/xlink" version="1.1" x="0px" y="0px" viewBox="0 0 64 64" enable-background="new 0 0 64 64" xml:space="preserve" width="64px" height="64px"><g><g><path fill="#000000" d="M32,48.3c-4.4,0-8.5-1.7-11.5-4.8c-6.4-6.4-6.4-16.7,0-23.1c6.4-6.4,16.7-6.4,23.1,0    c3.1,3.1,4.8,7.2,4.8,11.5c0,4.4-1.7,8.5-4.8,11.5l0,0C40.5,46.6,36.4,48.3,32,48.3z M32,17.3c-3.8,0-7.5,1.4-10.4,4.3    c-5.7,5.7-5.7,15.1,0,20.8c2.8,2.8,6.5,4.3,10.4,4.3s7.6-1.5,10.4-4.3l0,0c2.8-2.8,4.3-6.5,4.3-10.4s-1.5-7.6-4.3-10.4    C39.5,18.7,35.8,17.3,32,17.3z"/><path fill="#000000" d="M25,39.8c-0.2,0-0.4-0.1-0.6-0.2c-0.3-0.3-0.3-0.8,0-1.1l14-14c0.3-0.3,0.8-0.3,1.1,0    c0.3,0.3,0.3,0.8,0,1.1l-14,14C25.4,39.7,25.2,39.8,25,39.8z"/><path fill="#000000" d="M39,39.8c-0.2,0-0.4-0.1-0.6-0.2l-14-14c-0.3-0.3-0.3-0.8,0-1.1c0.3-0.3,0.8-0.3,1.1,0l14,14    c0.3,0.3,0.3,0.8,0,1.1C39.4,39.7,39.2,39.8,39,39.8z"/></g></g></svg>