<svg xmlns="http://www.w3.org/2000/svg" xmlns:xlink="http://www.w3.org/1999/xlink" version="1.1" x="0px" y="0px" viewBox="0 0 100 100" style="enable-background:new 0 0 100 100;" xml:space="preserve" width="100px" height="100px"><path d="M77.1,39.2h5.2c0.8,0,1.5-0.7,1.5-1.5s-0.7-1.5-1.5-1.5H77C76.4,24.3,66.8,14.7,54.8,14V8.7c0-0.8-0.7-1.5-1.5-1.5  s-1.5,0.7-1.5,1.5V14c-11.9,0.7-21.5,10.3-22.3,22.2h-5.3c-0.8,0-1.5,0.7-1.5,1.5s0.7,1.5,1.5,1.5h5.2c0.7,12,10.3,21.6,22.3,22.3  v5.2c0,0.8,0.7,1.5,1.5,1.5s1.5-0.7,1.5-1.5v-5.2C66.8,60.8,76.4,51.2,77.1,39.2z M54.8,58.5v-5.1c0-0.8-0.7-1.5-1.5-1.5  s-1.5,0.7-1.5,1.5v5.1c-10.3-0.7-18.5-9-19.3-19.3h5.1c0.8,0,1.5-0.7,1.5-1.5s-0.7-1.5-1.5-1.5h-5.1c0.7-10.3,9-18.5,19.2-19.2v5.1  c0,0.8,0.7,1.5,1.5,1.5s1.5-0.7,1.5-1.5V17c10.3,0.7,18.5,9,19.2,19.2H69c-0.8,0-1.5,0.7-1.5,1.5s0.7,1.5,1.5,1.5h5.1  C73.4,49.5,65.1,57.8,54.8,58.5z M53.3,29.5c-4.5,0-8.2,3.7-8.2,8.2s3.7,8.2,8.2,8.2s8.2-3.7,8.2-8.2S57.9,29.5,53.3,29.5z   M53.3,42.9c-2.9,0-5.2-2.3-5.2-5.2s2.3-5.2,5.2-5.2s5.2,2.3,5.2,5.2S56.2,42.9,53.3,42.9z M85.1,62.4c-5.4,7.3-7.4,16.5-5.5,25.2  l1.3,5.8c0.2,0.8-0.3,1.6-1.1,1.8c-0.8,0.2-1.6-0.3-1.8-1.1l-1.3-5.8c-2.1-9.6,0-19.7,6-27.7c5-6.7,7.2-13.1,7.1-20.7  c0-20.1-16.4-36.5-36.5-36.5S16.9,19.9,16.9,40c0,5.9-2.7,8.4-4.7,10.3c-1.3,1.3-2,2-2,3.1c0,2.5,2.7,5.2,5.2,5.2  c0.8,0,1.5,0.7,1.5,1.5c0,0,0,7.5,0,8.9c0,2,0.4,3.4,1.2,4.2c1.4,1.4,4,1.4,6.8,1.4h3.9c2.6,0,5.1,1,7,2.7c2,1.8,3.3,4.2,3.7,6.9  l1.9,13.6c0.1,0.8-0.5,1.6-1.3,1.7c-0.1,0-0.1,0-0.2,0c-0.7,0-1.4-0.5-1.5-1.3l-1.9-13.6c-0.3-2-1.2-3.8-2.7-5.1  c-1.4-1.3-3.2-1.9-5-1.9h-3.9c-3.2,0-6.6,0-8.9-2.2c-1.4-1.4-2.1-3.5-2.1-6.3c0-1.1,0-5.4,0-7.6c-3.6-0.8-6.7-4.3-6.7-8  c0-2.5,1.5-3.9,3-5.3c1.8-1.7,3.7-3.5,3.7-8.1c0-21.8,17.7-39.5,39.5-39.5S92.8,18.2,92.8,40C92.9,48.1,90.4,55.3,85.1,62.4z"/></svg>