<!-- Generator: Adobe Illustrator 25.2.3, SVG Export Plug-In  -->
<svg version="1.1" xmlns="http://www.w3.org/2000/svg" xmlns:xlink="http://www.w3.org/1999/xlink" x="0px" y="0px" width="47.1px"
	 height="54.4px" viewBox="0 0 47.1 54.4" style="overflow:visible;enable-background:new 0 0 47.1 54.4;" xml:space="preserve">
<style type="text/css">
	.st0{fill:#FFFFFF;stroke:#E11B22;stroke-width:1.5;stroke-miterlimit:10;}
	.st1{fill:#E11B22;}
</style>
<defs>
</defs>
<polygon class="st0" points="46.3,40.4 46.3,14 23.5,0.9 0.8,14 0.8,40.4 23.5,53.5 "/>
<g>
	<g>
		<g>
			<path class="st1" d="M22.1,13.1c0-0.3-0.3-0.5-0.5-0.4c-3.2,0.4-6.2,1.9-8.5,4.2c-2,2-3.3,4.5-3.9,7.2L8.5,23
				c-0.1-0.2-0.4-0.3-0.7-0.2c-0.2,0.1-0.3,0.4-0.2,0.7L9,25.8C9.1,25.9,9.2,26,9.3,26c0,0,0,0,0,0c0,0,0,0,0,0c0,0,0,0,0,0
				c0,0,0,0,0.1,0c0,0,0,0,0,0c0,0,0,0,0,0c0,0,0,0,0.1,0c0,0,0,0,0,0c0,0,0,0,0.1,0c0,0,0,0,0,0c0.1,0,0.1,0,0.1-0.1l2.1-1.5
				c0.2-0.2,0.3-0.5,0.1-0.7c-0.2-0.2-0.5-0.3-0.7-0.1l-1.1,0.8c0.5-2.6,1.8-5,3.7-6.9c2.1-2.2,4.9-3.6,7.9-4
				C21.9,13.6,22.1,13.3,22.1,13.1z"/>
		</g>
	</g>
	<g>
		<g>
			<path class="st1" d="M22.3,41.1L20.8,39c-0.2-0.2-0.5-0.3-0.7-0.1c-0.2,0.2-0.3,0.5-0.1,0.7l0.8,1.2c-2.6-0.5-5-1.8-6.9-3.7
				c-2.1-2.1-3.5-4.8-3.9-7.7c0-0.3-0.3-0.4-0.6-0.4c-0.3,0-0.4,0.3-0.4,0.6c0.5,3.2,1.9,6,4.2,8.3c2,2,4.5,3.3,7.2,3.9l-1,0.6
				c-0.2,0.1-0.3,0.4-0.2,0.7c0.1,0.2,0.3,0.2,0.4,0.2c0.1,0,0.2,0,0.2-0.1l2.2-1.3c0.1-0.1,0.2-0.2,0.2-0.3
				C22.4,41.3,22.3,41.2,22.3,41.1z"/>
		</g>
	</g>
	<g>
		<g>
			<path class="st1" d="M39.4,30.8l-1.3-2.2c-0.1-0.1-0.2-0.2-0.3-0.2c-0.1,0-0.3,0-0.4,0.1L35.3,30c-0.2,0.2-0.3,0.5-0.1,0.7
				c0.2,0.2,0.5,0.3,0.7,0.1L37,30c-0.5,2.7-1.9,5.1-3.8,7c-2.1,2.1-4.8,3.4-7.8,3.8c-0.3,0-0.5,0.3-0.4,0.5c0,0.2,0.2,0.4,0.5,0.4
				c0,0,0,0,0.1,0c3.2-0.4,6-1.8,8.3-4.1c2.1-2.1,3.5-4.6,4.1-7.5l0.6,1.1c0.1,0.2,0.3,0.2,0.4,0.2c0.1,0,0.2,0,0.2-0.1
				C39.5,31.4,39.5,31.1,39.4,30.8z"/>
		</g>
	</g>
	<g>
		<g>
			<path class="st1" d="M38.1,25.4c-0.4-3.2-1.9-6.2-4.1-8.6c-2-2.1-4.6-3.5-7.4-4.1l1.1-0.7c0.2-0.1,0.3-0.4,0.2-0.7
				c-0.1-0.2-0.4-0.3-0.7-0.2L25,12.6c-0.1,0.1-0.2,0.2-0.2,0.3c0,0.1,0,0.3,0.1,0.4l1.5,2.1c0.1,0.1,0.2,0.2,0.4,0.2
				c0.1,0,0.2,0,0.3-0.1c0.2-0.2,0.3-0.5,0.1-0.7l-0.8-1.1c2.6,0.5,5.1,1.9,7,3.8c2.1,2.2,3.5,5,3.9,8c0,0.2,0.2,0.4,0.5,0.4
				c0,0,0,0,0.1,0C38,26,38.2,25.7,38.1,25.4z"/>
		</g>
	</g>
	<g>
		<g>
			<path class="st1" d="M25.5,30.4c-0.2-0.2-0.5-0.1-0.7,0.1l-2,2.9l1.6-4.8c0.1-0.1,0-0.3-0.1-0.4C24.3,28,24.2,28,24,28h-4.6
				l1.3-1.9c0.2-0.2,0.1-0.5-0.1-0.7c-0.2-0.2-0.5-0.1-0.7,0.1l-1.9,2.7c-0.1,0.1-0.1,0.3,0,0.5c0.1,0.2,0.2,0.3,0.4,0.3h4.8
				l-2.6,7.4c-0.1,0.2,0,0.5,0.2,0.6c0.1,0,0.1,0.1,0.2,0.1c0.2,0,0.3-0.1,0.4-0.2l4-5.7C25.8,30.8,25.7,30.5,25.5,30.4z"/>
		</g>
	</g>
	<g>
		<g>
			<path class="st1" d="M29,25.7c-0.1-0.2-0.2-0.3-0.4-0.3h-4.8l2.6-7.4c0.1-0.2,0-0.5-0.2-0.6c-0.2-0.1-0.5,0-0.6,0.2l-4.2,6
				c-0.2,0.2-0.1,0.5,0.1,0.7c0.2,0.2,0.5,0.1,0.7-0.1l2.2-3.2l-1.6,4.8c-0.1,0.1,0,0.3,0.1,0.4c0.1,0.1,0.2,0.2,0.4,0.2h4.6
				l-1.5,2.2c-0.2,0.2-0.1,0.5,0.1,0.7c0.1,0.1,0.2,0.1,0.3,0.1c0.2,0,0.3-0.1,0.4-0.2l2-2.9C29.1,26.1,29.1,25.9,29,25.7z"/>
		</g>
	</g>
</g>
</svg>
