<!-- Generator: Adobe Illustrator 25.2.0, SVG Export Plug-In  --><svg xmlns="http://www.w3.org/2000/svg" xmlns:xlink="http://www.w3.org/1999/xlink" version="1.1" x="0px" y="0px" width="287px" height="287px" viewBox="0 0 287.7 287.7" style="overflow:visible;enable-background:new 0 0 287.7 287.7;" xml:space="preserve" aria-hidden="true">
<style type="text/css">
	.st0-605a3a367a62b{fill:none;stroke:#E6E6E6;stroke-width:2;stroke-miterlimit:10;}
</style>
<defs><linearGradient class="cerosgradient" data-cerosgradient="true" id="CerosGradient_id33c5aaa81" gradientUnits="userSpaceOnUse" x1="50%" y1="100%" x2="50%" y2="0%"><stop offset="0%" stop-color="#d1d1d1"/><stop offset="100%" stop-color="#d1d1d1"/></linearGradient><linearGradient/>
</defs>
<g>
	<g>
		<polygon class="st0-605a3a367a62b" points="137,52.9 137,1 37.2,1 37.2,52.9 1,52.9 1,286.7 286.7,286.7 286.7,52.9   "/>
		<line class="st0-605a3a367a62b" x1="1" y1="83.7" x2="286.7" y2="83.7"/>
		<line class="st0-605a3a367a62b" x1="1" y1="117.4" x2="286.7" y2="117.4"/>
		<rect x="70.5" y="165.8" class="st0-605a3a367a62b" width="146.3" height="120.8"/>
		<line class="st0-605a3a367a62b" x1="143.8" y1="165.8" x2="143.8" y2="286.7"/>
	</g>
	<polygon class="st0-605a3a367a62b" points="137,52.9 137,1 37.2,1 37.2,52.9 1,52.9 1,286.7 286.7,286.7 286.7,52.9  "/>
	<line class="st0-605a3a367a62b" x1="1" y1="83.7" x2="286.7" y2="83.7"/>
	<line class="st0-605a3a367a62b" x1="1" y1="117.4" x2="286.7" y2="117.4"/>
	<rect x="70.5" y="165.8" class="st0-605a3a367a62b" width="146.3" height="120.8"/>
	<line class="st0-605a3a367a62b" x1="143.8" y1="165.8" x2="143.8" y2="286.7"/>
</g>
</svg>