<?xml version="1.0" encoding="UTF-8"?><svg xmlns="http://www.w3.org/2000/svg" id="Exhibit63851ebd98efe" viewBox="0 0 319.77 312.88" aria-hidden="true" width="319px" height="312px"><defs><linearGradient class="cerosgradient" data-cerosgradient="true" id="CerosGradient_idf64c3942a" gradientUnits="userSpaceOnUse" x1="50%" y1="100%" x2="50%" y2="0%"><stop offset="0%" stop-color="#d1d1d1"/><stop offset="100%" stop-color="#d1d1d1"/></linearGradient><linearGradient/><style>.cls-1-63851ebd98efe{fill:#051c2c;}.cls-2-63851ebd98efe{fill:#00a9f3;}.cls-3-63851ebd98efe{fill:#e6e6e6;}.cls-4-63851ebd98efe{fill:#f7921e;}.cls-5-63851ebd98efe{fill:#e479e4;}.cls-6-63851ebd98efe{fill:#f17e7e;}.cls-7-63851ebd98efe{fill:#108980;}.cls-8-63851ebd98efe{fill:#14b8ab;}.cls-9-63851ebd98efe{fill:#2251ff;}.cls-10-63851ebd98efe{fill:#0679c3;}.cls-11-63851ebd98efe{fill:#9c217d;}.cls-12-63851ebd98efe{fill:#75f0e7;}.cls-13-63851ebd98efe,.cls-14-63851ebd98efe{stroke-width:.75px;}.cls-13-63851ebd98efe,.cls-14-63851ebd98efe,.cls-15-63851ebd98efe{fill:none;stroke-linejoin:round;}.cls-13-63851ebd98efe,.cls-15-63851ebd98efe{stroke:#fff;}.cls-14-63851ebd98efe{stroke:#000;}.cls-15-63851ebd98efe{stroke-width:.25px;}</style></defs><g><path class="cls-1-63851ebd98efe" d="M93.32,274.55H.38v31.92H93.32v-31.92Zm-15.36-44.64H.38v31.92H77.96v-31.92Zm116.4-44.64H.38v31.92H194.36v-31.92ZM5.72,140.4H.38v31.92H5.72v-31.92Zm223.2-44.64H.38v31.92H228.92v-31.92ZM105.32,51.11H.38v31.92H105.32v-31.92Zm-5.28-44.64H.38v31.92H100.04V6.47Z"/><path class="cls-15-63851ebd98efe" d="M93.32,274.55H.38v31.92H93.32v-31.92Zm-15.36-44.64H.38v31.92H77.96v-31.92Zm116.4-44.64H.38v31.92H194.36v-31.92ZM5.72,140.39H.38v31.92H5.72v-31.92Zm223.2-44.64H.38v31.92H228.92v-31.92ZM105.32,51.11H.38v31.92H105.32v-31.92Zm-5.28-44.64H.38v31.92H100.04V6.47Z"/></g><g><path class="cls-2-63851ebd98efe" d="M257,274.55H93.32v31.92h163.68v-31.92Zm-104.88-44.64H77.96v31.92h74.16v-31.92Zm148.08-44.64h-105.84v31.92h105.84v-31.92ZM11.24,140.4H5.72v31.92h5.52v-31.92Zm230.64-44.64h-12.96v31.92h12.96v-31.92Zm-99.6-44.64h-36.96v31.92h36.96v-31.92ZM213.8,6.47H100.04v31.92h113.76V6.47Z"/><path class="cls-15-63851ebd98efe" d="M257,274.55H93.32v31.92h163.68v-31.92Zm-104.88-44.64H77.96v31.92h74.16v-31.92Zm148.08-44.64h-105.84v31.92h105.84v-31.92ZM11.24,140.39H5.72v31.92h5.52v-31.92Zm230.64-44.64h-12.96v31.92h12.96v-31.92Zm-99.6-44.64h-36.96v31.92h36.96v-31.92ZM213.8,6.47H100.04v31.92h113.76V6.47Z"/></g><g><path class="cls-12-63851ebd98efe" d="M248.36,95.76h-6.48v31.92h6.48v-31.92ZM276.68,6.47h-62.88v31.92h62.88V6.47Z"/><path class="cls-15-63851ebd98efe" d="M248.36,95.75h-6.48v31.92h6.48v-31.92ZM276.68,6.47h-62.88v31.92h62.88V6.47Z"/></g><g><path class="cls-4-63851ebd98efe" d="M11.72,140.4h-.48v31.92h.48v-31.92Zm237.84-44.64h-1.2v31.92h1.2v-31.92Z"/><path class="cls-15-63851ebd98efe" d="M11.72,140.39h-.48v31.92h.48v-31.92Zm237.84-44.64h-1.2v31.92h1.2v-31.92Z"/></g><g><path class="cls-9-63851ebd98efe" d="M155.24,229.91h-3.12v31.92h3.12v-31.92Zm145.44-44.64h-.48v31.92h.48v-31.92Zm-50.16-89.52h-.96v31.92h.96v-31.92ZM276.68,6.47h.24v31.92h-.24V6.47Z"/><path class="cls-15-63851ebd98efe" d="M155.24,229.91h-3.12v31.92h3.12v-31.92Zm145.44-44.64h-.48v31.92h.48v-31.92Zm-50.16-89.52h-.96v31.92h.96v-31.92ZM276.68,6.47h.24v31.92h-.24V6.47Z"/></g><g><path class="cls-8-63851ebd98efe" d="M187.64,229.91h-32.4v31.92h32.4v-31.92Zm116.64-44.64h-3.6v31.92h3.6v-31.92ZM12.68,140.4h-.96v31.92h.96v-31.92Zm275.52-44.64h-37.68v31.92h37.68v-31.92Z"/><path class="cls-15-63851ebd98efe" d="M187.64,229.91h-32.4v31.92h32.4v-31.92Zm116.64-44.64h-3.6v31.92h3.6v-31.92ZM12.68,140.39h-.96v31.92h.96v-31.92Zm275.52-44.64h-37.68v31.92h37.68v-31.92Z"/></g><g><path class="cls-10-63851ebd98efe" d="M228.68,229.91h-41.04v31.92h41.04v-31.92Zm80.4-44.64h-4.8v31.92h4.8v-31.92Zm-5.04-89.52h-15.84v31.92h15.84v-31.92Z"/><path class="cls-15-63851ebd98efe" d="M228.68,229.91h-41.04v31.92h41.04v-31.92Zm80.4-44.64h-4.8v31.92h4.8v-31.92Zm-5.04-89.52h-15.84v31.92h15.84v-31.92Z"/></g><g><path class="cls-11-63851ebd98efe" d="M319.4,274.55h-62.4v31.92h62.4v-31.92Zm-82.8-44.64h-7.92v31.92h7.92v-31.92Zm73.2-44.64h-.72v31.92h.72v-31.92Zm8.4-89.52h-14.16v31.92h14.16v-31.92Z"/><path class="cls-15-63851ebd98efe" d="M319.4,274.55h-62.4v31.92h62.4v-31.92Zm-82.8-44.64h-7.92v31.92h7.92v-31.92Zm73.2-44.64h-.72v31.92h.72v-31.92Zm8.4-89.52h-14.16v31.92h14.16v-31.92Z"/></g><g><rect class="cls-6-63851ebd98efe" x="12.68" y="140.4" width="13.68" height="31.92"/><rect class="cls-15-63851ebd98efe" x="12.68" y="140.39" width="13.68" height="31.92"/></g><g><path class="cls-7-63851ebd98efe" d="M301.4,229.91h-64.8v31.92h64.8v-31.92Zm15.84-44.64h-7.44v31.92h7.44v-31.92ZM44.36,140.4H26.36v31.92h18v-31.92Z"/><path class="cls-15-63851ebd98efe" d="M301.4,229.91h-64.8v31.92h64.8v-31.92Zm15.84-44.64h-7.44v31.92h7.44v-31.92ZM44.36,140.39H26.36v31.92h18v-31.92Z"/></g><g><path class="cls-5-63851ebd98efe" d="M290.12,140.4H44.36v31.92h245.76v-31.92Zm29.28-44.64h-1.2v31.92h1.2v-31.92Z"/><path class="cls-15-63851ebd98efe" d="M290.12,140.39H44.36v31.92h245.76v-31.92Zm29.28-44.64h-1.2v31.92h1.2v-31.92Z"/></g><g><path class="cls-3-63851ebd98efe" d="M319.4,229.91h-18v31.92h18v-31.92Zm0-44.64h-2.16v31.92h2.16v-31.92Zm0-44.88h-29.28v31.92h29.28v-31.92Zm0-89.28H142.28v31.92h177.12v-31.92Zm0-44.64h-42.48v31.92h42.48V6.47Z"/><path class="cls-13-63851ebd98efe" d="M319.4,229.91h-18v31.92h18v-31.92Zm0-44.64h-2.16v31.92h2.16v-31.92Zm0-44.88h-29.28v31.92h29.28v-31.92Zm0-89.28H142.28v31.92h177.12v-31.92Zm0-44.64h-42.48v31.92h42.48V6.47Z"/></g><line class="cls-14-63851ebd98efe" x1=".38" y1="0" x2=".38" y2="312.88"/><line class="cls-13-63851ebd98efe" x1="301.5" y1="229.88" x2="301.5" y2="261.75"/><line class="cls-13-63851ebd98efe" x1="317.38" y1="185.13" x2="317.38" y2="217.13"/><line class="cls-13-63851ebd98efe" x1="290.12" y1="140.5" x2="290.13" y2="172.38"/><line class="cls-13-63851ebd98efe" x1="142.38" y1="51.13" x2="142.38" y2="83"/><line class="cls-13-63851ebd98efe" x1="277" y1="6.38" x2="277" y2="38.38"/></svg>