<!-- Generator: Adobe Illustrator 25.2.0, SVG Export Plug-In  --><svg xmlns="http://www.w3.org/2000/svg" xmlns:xlink="http://www.w3.org/1999/xlink" version="1.1" x="0px" y="0px" width="295px" height="186px" viewBox="0 0 295.1 186.7" style="overflow:visible;enable-background:new 0 0 295.1 186.7;" xml:space="preserve" aria-hidden="true">
<style type="text/css">
	.st0-605a3a367a607{fill:none;stroke:#E6E6E6;stroke-width:2;stroke-miterlimit:10;}
</style>
<defs><linearGradient class="cerosgradient" data-cerosgradient="true" id="CerosGradient_id0b2592b2c" gradientUnits="userSpaceOnUse" x1="50%" y1="100%" x2="50%" y2="0%"><stop offset="0%" stop-color="#d1d1d1"/><stop offset="100%" stop-color="#d1d1d1"/></linearGradient><linearGradient/>
</defs>
<g>
	<path class="st0-605a3a367a607" d="M65.4,1H207c12.3,0,11.4,8.5,9.5,17c-1.9,8.5-17.5,70.1-17.5,70.1h73.9l6.2,3.3c9.5,4.7,15.2,14.2,15.2,24.6   v26.5c0,7.1-2.8,10.9-10.9,10.9h-43.6"/>
	<line class="st0-605a3a367a607" x1="21.8" y1="153" x2="57.8" y2="153"/>
	<line class="st0-605a3a367a607" x1="108.9" y1="153" x2="188" y2="153"/>
	<path class="st0-605a3a367a607" d="M209.8,44.6h22.7c4.3,0,8.1,1.9,10.9,5.2l29.4,38.4"/>
	<line class="st0-605a3a367a607" x1="141.6" y1="44.6" x2="21.8" y2="44.6"/>
	<line class="st0-605a3a367a607" x1="119.8" y1="88.1" x2="0" y2="88.1"/>
	<path class="st0-605a3a367a607" d="M107.5,158.7c-4.3,15.2-18,26-33.6,27c-14.7,0-22.7-11.8-18.5-27c4.3-15.2,18-26,33.6-27   C103.2,131.2,112.2,143.5,107.5,158.7z"/>
	<path class="st0-605a3a367a607" d="M238.2,158.7c-4.3,15.2-18,26-33.6,27c-14.7,0-22.7-11.8-18.5-27c4.3-15.2,18-26,33.6-27   C233.9,131.2,242.5,143.5,238.2,158.7z"/>
</g>
</svg>