<svg xmlns="http://www.w3.org/2000/svg" xmlns:xlink="http://www.w3.org/1999/xlink" version="1.1" x="0px" y="0px" viewBox="0 0 100 100" enable-background="new 0 0 100 100" xml:space="preserve" width="100px" height="100px"><path d="M50,90.2c-0.3,0-0.6-0.1-0.8-0.2c-1.3-0.5-33-13.4-33-42.1V22.6c0-0.6,0.2-1.2,0.7-1.6c0.4-0.4,1-0.7,1.6-0.7c0,0,0,0,0,0  c1.8,0,16.9-0.3,30.2-10.1c0.8-0.6,1.9-0.6,2.7,0C64.6,20,79.7,20.3,81.4,20.3c0.6,0,1.3,0.2,1.7,0.7c0.4,0.4,0.7,1,0.7,1.6v25.4  c0,28.7-31.7,41.6-33,42.1C50.6,90.1,50.3,90.2,50,90.2z M20.7,24.8v23.1c0,23.1,24.4,35.3,29.3,37.5c4.9-2.2,29.3-14.4,29.3-37.5  V24.8c-5.1-0.3-17.7-1.9-29.3-9.9C38.4,22.9,25.8,24.5,20.7,24.8z M55.4,69.5H44.6c-1.3,0-2.3-1-2.3-2.3V56.5H31.5  c-1.3,0-2.3-1-2.3-2.3V43.4c0-1.3,1-2.3,2.3-2.3h10.8V30.3c0-1.3,1-2.3,2.3-2.3h10.8c1.3,0,2.3,1,2.3,2.3v10.8h10.8  c1.3,0,2.3,1,2.3,2.3v10.8c0,1.3-1,2.3-2.3,2.3H57.7v10.8C57.7,68.5,56.7,69.5,55.4,69.5z M46.9,65h6.3V54.2c0-1.3,1-2.3,2.3-2.3  h10.8v-6.3H55.4c-1.3,0-2.3-1-2.3-2.3V32.6h-6.3v10.8c0,1.3-1,2.3-2.3,2.3H33.8v6.3h10.8c1.3,0,2.3,1,2.3,2.3V65z"/></svg>