<svg xmlns="http://www.w3.org/2000/svg" xmlns:xlink="http://www.w3.org/1999/xlink" version="1.1" x="0px" y="0px" viewBox="0 0 100 100" enable-background="new 0 0 100 100" xml:space="preserve" width="100px" height="100px"><g><path d="M89.04,27.74c-0.002-0.065-0.013-0.128-0.038-0.187c-0.002-0.005-0.006-0.008-0.008-0.013   c-0.004-0.009-0.011-0.017-0.016-0.026c-0.008-0.014-0.016-0.026-0.025-0.04c-0.017-0.026-0.033-0.052-0.054-0.075   c-0.016-0.017-0.034-0.028-0.052-0.043c-0.022-0.018-0.04-0.039-0.065-0.053L50.259,5.063l-0.001,0   c-0.043-0.025-0.09-0.039-0.138-0.051c-0.031-0.008-0.062-0.01-0.093-0.012C50.008,5,49.991,5,49.972,5.001   c-0.031,0.002-0.061,0.004-0.092,0.011c-0.048,0.012-0.096,0.026-0.139,0.051c0,0-0.001,0-0.001,0L11.217,27.305   c-0.025,0.014-0.043,0.036-0.065,0.053c-0.018,0.014-0.036,0.026-0.052,0.043c-0.022,0.023-0.037,0.049-0.054,0.075   c-0.009,0.014-0.017,0.025-0.024,0.04c-0.005,0.009-0.012,0.016-0.016,0.026c-0.002,0.005-0.006,0.008-0.008,0.013   c-0.025,0.059-0.036,0.122-0.038,0.187c0,0.005-0.003,0.009-0.003,0.014v44.484c0,0.005,0.003,0.009,0.003,0.014   c0.002,0.065,0.013,0.128,0.038,0.187c0.002,0.005,0.006,0.008,0.008,0.013c0.004,0.009,0.011,0.017,0.016,0.026   c0.007,0.014,0.016,0.026,0.024,0.04c0.017,0.026,0.033,0.052,0.054,0.075c0.016,0.017,0.034,0.028,0.052,0.042   c0.022,0.018,0.04,0.039,0.065,0.053L49.74,94.93c0.006,0.003,0.013,0.002,0.019,0.005c0.008,0.004,0.014,0.012,0.022,0.016   C49.849,94.983,49.924,95,49.999,95L50,95l0,0c0.001,0,0.003-0.001,0.004-0.001c0.074-0.001,0.146-0.017,0.214-0.048   c0.008-0.004,0.013-0.011,0.021-0.016c0.007-0.003,0.014-0.002,0.021-0.006l38.523-22.242c0.025-0.014,0.043-0.036,0.065-0.053   c0.018-0.014,0.036-0.026,0.052-0.042c0.021-0.023,0.037-0.049,0.054-0.075c0.009-0.014,0.017-0.025,0.025-0.04   c0.005-0.009,0.012-0.016,0.016-0.026c0.002-0.005,0.006-0.008,0.008-0.013c0.025-0.059,0.036-0.122,0.038-0.187   c0-0.005,0.003-0.009,0.003-0.014V27.754C89.043,27.749,89.04,27.745,89.04,27.74z"/></g></svg>