<svg xmlns="http://www.w3.org/2000/svg" xmlns:xlink="http://www.w3.org/1999/xlink" version="1.1" x="0px" y="0px" viewBox="0 0 100 100" enable-background="new 0 0 100 100" xml:space="preserve" width="100px" height="100px"><g><path fill="#000000" d="M52.1,26c-1.1-1.1-3.2-1.1-4.3,0L29.1,44.8c-1.2,1.2-1.2,3.1,0,4.3c1.2,1.2,3.1,1.2,4.3,0L47,35.5v37   c0,1.7,1.4,3,3,3s3-1.4,3-3v-37L66.6,49c0.6,0.6,1.4,0.9,2.1,0.9c0.8,0,1.6-0.3,2.1-0.9c1.2-1.2,1.2-3.1,0-4.3L52.1,26z"/><path fill="#000000" d="M95,49.7C94.8,25.1,74.7,5,50,5h-0.3C37.7,5.1,26.4,9.8,18,18.4C9.5,26.9,4.9,38.3,5,50.3   C5.2,74.9,25.3,95,50,95C75.1,94.8,95.2,74.5,95,49.7z M50.3,88.9c-21.6,0-39.1-17.4-39.2-38.7C11,39.8,15,30,22.2,22.7   c7.4-7.4,17.1-11.5,27.5-11.6H50c21.3,0,38.8,17.3,39,38.6C89.1,71.2,71.8,88.8,50.3,88.9z"/></g></svg>