<!-- Generator: Adobe Illustrator 25.2.0, SVG Export Plug-In  -->
<svg version="1.1" xmlns="http://www.w3.org/2000/svg" xmlns:xlink="http://www.w3.org/1999/xlink" x="0px" y="0px" width="988.7px"
	 height="228.6px" viewBox="0 0 988.7 228.6" style="overflow:visible;enable-background:new 0 0 988.7 228.6;"
	 xml:space="preserve">
<style type="text/css">
	.st0{fill:#E7484E;}
	.st1{fill:#4BBBEB;}
</style>
<defs>
</defs>
<g>
	<g>
		<path class="st0" d="M979.7,224.3c-6.6,0-41.3-8-77.2-29.1c-33.5-19.7-75.2-55.5-83.4-114.1l-0.2-1.5l1.5,0.2
			c0.9,0.1,2.1,0.3,3.6,0.5c13,1.6,47.5,5.8,81.6,21.1c42.9,19.2,70.3,48.7,81.6,87.7l0,0.1c5.5,30.1-6.1,34.9-6.6,35.1l-0.3,0.1
			C980.2,224.3,980,224.3,979.7,224.3z M821.6,82.3c8.6,56.8,49.3,91.6,82.1,110.9c37.4,22,72.3,28.9,76.1,28.8
			c1.1-0.6,9.9-6.1,5-32.4c-21.7-74.8-99.7-99.5-161.2-107C822.9,82.5,822.3,82.4,821.6,82.3z"/>
		<path class="st0" d="M979.1,223.6c-0.5-0.6-46.8-60.3-159.5-141.7l1.4-1.9c59.1,42.6,99.4,79,122.8,102c25.4,24.9,37,40,37.2,40.2
			L979.1,223.6z"/>
		
			<rect x="904.4" y="133.8" transform="matrix(0.2709 -0.9626 0.9626 0.2709 490.5897 1000.2369)" class="st0" width="2.4" height="84.9"/>
		
			<rect x="874.9" y="111.7" transform="matrix(0.1888 -0.982 0.982 0.1888 567.3511 978.6292)" class="st0" width="2.4" height="68.3"/>
		
			<rect x="851.1" y="95.5" transform="matrix(0.1791 -0.9838 0.9838 0.1791 582.9756 935.8812)" class="st0" width="2.4" height="46.3"/>
		
			<rect x="832.1" y="86.5" transform="matrix(0.1198 -0.9928 0.9928 0.1198 637.6423 912.1631)" class="st0" width="2.4" height="20"/>
		
			<rect x="847.9" y="97.3" transform="matrix(3.322147e-02 -0.9994 0.9994 3.322147e-02 731.6711 953.2914)" class="st0" width="21.3" height="2.4"/>
		
			<rect x="876.8" y="116.5" transform="matrix(0.2555 -0.9668 0.9668 0.2555 552.3506 952.6439)" class="st0" width="35.7" height="2.4"/>
		
			<rect x="904" y="139.9" transform="matrix(0.1166 -0.9932 0.9932 0.1166 680.0828 1046.6831)" class="st0" width="48.8" height="2.4"/>
		
			<rect x="918.8" y="154.4" transform="matrix(0.1257 -0.9921 0.9921 0.1257 671.0938 1072.6331)" class="st0" width="50.5" height="2.4"/>
	</g>
	<g>
		<g>
			<path class="st0" d="M757.7,147.4c0.9-0.2,2.1-0.6,3.6-1c12.1-3.4,42.8-11.9,78-12.1c0.3,0.8,0.6,1.6,1,2.4
				c-35.2,0.1-66.2,8.7-78.3,12.1c-0.8,0.2-1.4,0.4-2.1,0.6c30.5,50.5,82.8,67.5,121.4,72.9c31.9,4.4,59.4,2,73.6-0.4
				c0.3,0.8,0.6,1.6,0.9,2.3c-4.7,0.8-10.8,1.6-17.9,2.1c-15.2,1.2-35.3,1.3-57-1.7c-39.5-5.5-93.1-23.1-124-75.4l-0.8-1.4
				L757.7,147.4z"/>
		</g>
		<g>
			<path class="st0" d="M895,188.5c0.8,0.8,1.5,1.6,2.3,2.2c0.8,0.7,1.6,1.3,2.4,1.8c-33.8-12.9-81-28.4-142-42.8l0.6-2.4
				c56.7,13.4,101.6,27.8,134.9,40.1C893.8,187.8,894.4,188.1,895,188.5z"/>
		</g>
		<g>
			<path class="st0" d="M911.1,200c1.5,0.7,3.1,1.4,4.8,1.9l-82.6,9.8l-0.3-2.4L911.1,200z"/>
		</g>
		<g>
			
				<rect x="801.4" y="187" transform="matrix(0.9795 -0.2015 0.2015 0.9795 -20.7636 172.3631)" class="st0" width="70.2" height="2.4"/>
		</g>
		<g>
			
				<rect x="779.5" y="170.4" transform="matrix(0.9774 -0.2112 0.2112 0.9774 -18.1357 173.4864)" class="st0" width="47.5" height="2.4"/>
		</g>
		<g>
			
				<rect x="766.2" y="156.9" transform="matrix(0.963 -0.2693 0.2693 0.963 -13.8985 214.9769)" class="st0" width="20.5" height="2.4"/>
		</g>
		<g>
			
				<rect x="800" y="139.1" transform="matrix(0.9361 -0.3517 0.3517 0.9361 -1.5871 291.3601)" class="st0" width="2.4" height="21.9"/>
		</g>
		<g>
			<path class="st0" d="M842.5,140.9l4.2,31.2l-2.4,0.3l-4.9-36.4l0.5-0.1C840.7,137.7,841.5,139.3,842.5,140.9z"/>
		</g>
		<g>
			<path class="st0" d="M892.1,186.8l-2.2,0.6l-0.8-2.7C890.1,185.5,891,186.2,892.1,186.8z"/>
		</g>
	</g>
	<g>
		<g>
			<path class="st0" d="M957.9,131l0.3,0.1c-0.2-0.1-0.4-0.2-0.6-0.2c-0.4-0.2-0.8-0.3-1.3-0.5c0.6-32-12.8-61.2-39.9-87
				c-22.7-21.6-48.8-34.7-58.7-39.6c-0.6-0.3-1.1-0.6-1.6-0.8c-6.5,34,3,63.7,16.5,86.9c-0.8-0.1-1.6-0.2-2.4-0.2
				C856.8,66,847.5,35.8,854.5,1.3l0.3-1.3l1.2,0.6c0.7,0.4,1.6,0.8,2.7,1.4c9.9,5,36.3,18.1,59.1,39.9
				c27.7,26.4,41.3,56.4,40.5,89.2C958.2,131.1,958,131,957.9,131z"/>
		</g>
		<g>
			<path class="st0" d="M921.8,111.1c-0.7-0.5-1.5-0.9-2.2-1.3c-13.6-26.9-34.3-63.5-64.8-107.7l1.6-1.1
				c31.6,45.8,52.8,83.5,66.4,110.7C922.4,111.5,922.1,111.3,921.8,111.1z"/>
		</g>
		<g>
			<path class="st0" d="M884.6,94.5l-17.9-12.7l1.2-1.6l26.4,18.7C890.9,97.6,887.7,96.2,884.6,94.5z"/>
		</g>
		<g>
			
				<rect x="880.6" y="40.2" transform="matrix(0.5067 -0.8621 0.8621 0.5067 375.2664 794.1927)" class="st0" width="2" height="57.9"/>
		</g>
		<g>
			
				<rect x="869.4" y="21.1" transform="matrix(0.4979 -0.8672 0.8672 0.4979 401.7962 775.2684)" class="st0" width="2" height="39.2"/>
		</g>
		<g>
			<rect x="860.5" y="9.1" transform="matrix(0.4454 -0.8953 0.8953 0.4454 462.008 781.0485)" class="st0" width="2" height="17"/>
		</g>
		<g>
			
				<rect x="872.1" y="25.3" transform="matrix(0.366 -0.9306 0.9306 0.366 534.1643 836.7298)" class="st0" width="18.1" height="2"/>
		</g>
		<g>
			
				<rect x="889.4" y="50.9" transform="matrix(0.5644 -0.8255 0.8255 0.5644 351.1679 769.3535)" class="st0" width="30.3" height="2"/>
		</g>
		<g>
			
				<rect x="904.2" y="79.2" transform="matrix(0.4424 -0.8968 0.8968 0.4424 443.8011 874.0903)" class="st0" width="41.3" height="2"/>
		</g>
		<g>
			<path class="st0" d="M923.9,112.4l18-35.8l1.8,0.9l-18.1,35.9C925.1,113.1,924.5,112.8,923.9,112.4z"/>
		</g>
	</g>
</g>
<g>
	<g>
		<path class="st1" d="M9,225.8c-0.3,0-0.5,0-0.6,0l-0.3-0.1c-0.5-0.2-12.2-5-6.6-35.1l0-0.1c11.3-39,38.8-68.5,81.6-87.7
			c34.1-15.2,68.6-19.5,81.6-21.1c1.4-0.2,2.7-0.3,3.6-0.5l1.5-0.2l-0.2,1.5c-8.3,58.6-49.9,94.4-83.5,114.1
			C50.3,217.8,15.6,225.8,9,225.8z M8.8,223.5c3.9,0.2,38.7-6.8,76.2-28.8c32.8-19.3,73.4-54.1,82.1-110.9c-0.6,0.1-1.3,0.2-2.1,0.3
			c-61.6,7.5-139.5,32.2-161.2,107C-1.1,217.6,7.7,222.9,8.8,223.5z"/>
		<path class="st1" d="M9.6,225.1l-1.9-1.4c0.5-0.6,46.9-60.5,160-142.1l1.4,1.9C110.2,125.9,70,162.2,46.6,185.1
			C21.3,210,9.8,224.9,9.6,225.1z"/>
		
			<rect x="40.7" y="176.6" transform="matrix(0.9625 -0.2712 0.2712 0.9625 -45.1002 29.2137)" class="st1" width="84.9" height="2.4"/>
		
			<rect x="78.5" y="146.2" transform="matrix(0.9819 -0.1892 0.1892 0.9819 -25.8516 23.9778)" class="st1" width="68.3" height="2.4"/>
		
			<rect x="113.3" y="118.9" transform="matrix(0.9838 -0.1792 0.1792 0.9838 -19.3151 26.3903)" class="st1" width="46.3" height="2.4"/>
		
			<rect x="145.5" y="96.8" transform="matrix(0.9928 -0.1195 0.1195 0.9928 -10.5949 19.2812)" class="st1" width="20" height="2.4"/>
		
			<rect x="128.9" y="89.3" transform="matrix(0.9994 -3.334497e-02 3.334497e-02 0.9994 -3.2604 4.3944)" class="st1" width="2.4" height="21.3"/>
		
			<rect x="92.8" y="101.3" transform="matrix(0.9668 -0.2555 0.2555 0.9668 -27.3317 27.9695)" class="st1" width="2.4" height="35.7"/>
		
			<rect x="59.1" y="118.2" transform="matrix(0.9932 -0.1167 0.1167 0.9932 -16.2209 8.0099)" class="st1" width="2.4" height="48.8"/>
		
			<rect x="43.4" y="131.8" transform="matrix(0.992 -0.1259 0.1259 0.992 -19.4155 6.8649)" class="st1" width="2.4" height="50.5"/>
	</g>
	<g>
		<g>
			<path class="st1" d="M231,148.9c-0.9-0.2-2.1-0.6-3.6-1c-12.1-3.4-42.8-11.9-78-12.1c-0.3,0.8-0.6,1.6-1,2.4
				c35.2,0.1,66.2,8.7,78.3,12.1c0.8,0.2,1.4,0.4,2.1,0.6c-30.5,50.5-82.8,67.5-121.4,72.9c-31.9,4.4-59.4,2-73.6-0.4
				c-0.3,0.8-0.6,1.6-0.9,2.3c4.7,0.8,10.8,1.6,17.9,2.1c15.2,1.2,35.3,1.3,57-1.7c39.5-5.5,93.1-23.1,124-75.4l0.8-1.4L231,148.9z"
				/>
		</g>
		<g>
			<path class="st1" d="M93.7,190c-0.8,0.8-1.5,1.6-2.3,2.2c-0.8,0.7-1.6,1.3-2.4,1.8c33.8-12.9,81-28.4,142-42.8l-0.6-2.4
				c-56.7,13.4-101.6,27.8-134.9,40.1C94.9,189.3,94.3,189.6,93.7,190z"/>
		</g>
		<g>
			<path class="st1" d="M77.6,201.5c-1.5,0.7-3.1,1.4-4.8,1.9l82.6,9.8l0.3-2.4L77.6,201.5z"/>
		</g>
		<g>
			
				<rect x="151" y="154.6" transform="matrix(0.2015 -0.9795 0.9795 0.2015 -64.2243 300.6129)" class="st1" width="2.4" height="70.2"/>
		</g>
		<g>
			
				<rect x="184.3" y="149.4" transform="matrix(0.2112 -0.9774 0.9774 0.2112 -22.9166 317.9146)" class="st1" width="2.4" height="47.5"/>
		</g>
		<g>
			
				<rect x="211.1" y="149.4" transform="matrix(0.2693 -0.963 0.963 0.2693 1.3513 321.0537)" class="st1" width="2.4" height="20.5"/>
		</g>
		<g>
			
				<rect x="176.5" y="150.3" transform="matrix(0.3517 -0.9361 0.9361 0.3517 -20.3375 273.7342)" class="st1" width="21.9" height="2.4"/>
		</g>
		<g>
			<path class="st1" d="M146.2,142.4l-4.2,31.2l2.4,0.3l4.9-36.4l-0.5-0.1C148,139.2,147.2,140.8,146.2,142.4z"/>
		</g>
		<g>
			<path class="st1" d="M96.6,188.3l2.2,0.6l0.8-2.7C98.7,187,97.7,187.7,96.6,188.3z"/>
		</g>
	</g>
	<g>
		<g>
			<path class="st1" d="M30.8,132.5l-0.3,0.1c0.2-0.1,0.4-0.2,0.6-0.2c0.4-0.2,0.8-0.3,1.3-0.5c-0.6-32,12.8-61.2,39.9-87
				C94.9,23.3,121,10.2,130.9,5.3c0.6-0.3,1.1-0.6,1.6-0.8c6.5,34-3,63.7-16.5,86.9c0.8-0.1,1.6-0.2,2.4-0.2
				c13.5-23.7,22.8-53.8,15.8-88.4l-0.3-1.3l-1.2,0.6c-0.7,0.4-1.6,0.8-2.7,1.4c-9.9,5-36.3,18.1-59.1,39.9
				c-27.7,26.4-41.3,56.4-40.5,89.2C30.5,132.6,30.7,132.5,30.8,132.5z"/>
		</g>
		<g>
			<path class="st1" d="M67,112.6c0.7-0.5,1.5-0.9,2.2-1.3C82.8,84.4,103.5,47.7,134,3.6l-1.6-1.1C100.8,48.2,79.6,86,66,113.2
				C66.3,113,66.6,112.8,67,112.6z"/>
		</g>
		<g>
			<path class="st1" d="M104.1,96L122,83.3l-1.2-1.6l-26.4,18.7C97.8,99.1,101,97.7,104.1,96z"/>
		</g>
		<g>
			
				<rect x="78.1" y="69.7" transform="matrix(0.8621 -0.5067 0.5067 0.8621 -21.0463 63.9967)" class="st1" width="57.9" height="2"/>
		</g>
		<g>
			
				<rect x="98.7" y="41.2" transform="matrix(0.8672 -0.4979 0.4979 0.8672 -5.2806 64.4934)" class="st1" width="39.2" height="2"/>
		</g>
		<g>
			<rect x="118.7" y="18.1" transform="matrix(0.8953 -0.4455 0.4455 0.8953 4.8228 58.6692)" class="st1" width="17" height="2"/>
		</g>
		<g>
			<rect x="106.5" y="18.8" transform="matrix(0.9306 -0.366 0.366 0.9306 -2.727 41.289)" class="st1" width="2" height="18.1"/>
		</g>
		<g>
			
				<rect x="83.2" y="38.3" transform="matrix(0.8255 -0.5644 0.5644 0.8255 -15.4788 56.8205)" class="st1" width="2" height="30.3"/>
		</g>
		<g>
			<rect x="62.9" y="61" transform="matrix(0.8968 -0.4424 0.4424 0.8968 -29.5312 36.6884)" class="st1" width="2" height="41.3"/>
		</g>
		<g>
			<path class="st1" d="M64.8,113.9l-18-35.8L45,79.1L63.1,115C63.7,114.6,64.2,114.3,64.8,113.9z"/>
		</g>
	</g>
</g>
</svg>
