<!-- Generator: Adobe Illustrator 25.2.1, SVG Export Plug-In  -->
<svg version="1.1" xmlns="http://www.w3.org/2000/svg" xmlns:xlink="http://www.w3.org/1999/xlink" x="0px" y="0px" width="144.4px"
	 height="175.7px" viewBox="0 0 144.4 175.7" style="overflow:visible;enable-background:new 0 0 144.4 175.7;"
	 xml:space="preserve">
<style type="text/css">
	.st0{fill:#5FB9E4;}
</style>
<defs>
</defs>
<g>
	<g>
		<path class="st0" d="M117.2,134.2H99.1c-2.9,0-5.3,2.4-5.3,5.3v7.1c0,2.9,2.4,5.3,5.3,5.3h18.1c2.9,0,5.3-2.4,5.3-5.3v-7.1
			C122.5,136.6,120.1,134.2,117.2,134.2z M117.3,146.6c0,0.1-0.1,0.1-0.1,0.1H99.1c-0.1,0-0.1-0.1-0.1-0.1v-7.1
			c0-0.1,0.1-0.1,0.1-0.1h18.1c0.1,0,0.1,0.1,0.1,0.1V146.6z"/>
	</g>
	<path class="st0" d="M127.8,109.2c-8.3-3.7-23.6-6.1-32.5-7.3c-1.3-0.2-2.3-1.3-2.3-2.6V85.8c7.2-5.5,11.6-13.4,12.4-22.2h1.2
		c4.5,0,8.1-3.7,8.1-8.1v-6.2c0-3.2-1.9-6-4.5-7.3l0-10.5c0-1.4-1.2-2.6-2.6-2.6h0c-1.4,0-2.6,1.2-2.6,2.6l0,9.6h-3.8
		c-1-0.7-1.6-1.8-1.6-3v-5.6c0-4.9-4.2-8.7-8.6-8.5L91,24c-2.7,0-4.8,0.4-7.2,1.2c-7.7,2.6-15.4,2.5-22.5,0
		c-3.1-1.1-4.9-1.2-8.1-1.2c-4.7,0-8.6,3.8-8.6,8.6v5.6c0,1.2-0.6,2.3-1.6,3h-3.8V20.6c0-4.7,4.1-8.5,9.1-7.8
		c3.8,0.6,7.2-1.9,7.5-5.7c0.8-1.2,2.2-2,3.7-2l31.2,0c7.8,0,14.2,6.4,14.2,14.2c0,1.4,1.2,2.6,2.6,2.6h0c1.4,0,2.6-1.2,2.6-2.6
		C110.2,8.7,101.6,0,90.9,0L59.7,0c-3.6,0-6.9,2-8.5,5.2c-0.6,1.1,0,1.7-0.7,2.3c-0.3,0.2-0.7,0.3-1.2,0.3
		c-8-1.2-15.1,4.9-15.1,12.8V42c-2.7,1.3-4.5,4.1-4.5,7.3v6.2c0,4.5,3.7,8.1,8.1,8.1H39c0.9,9,5.3,16.9,12.4,22.2v13.4
		c0,1.4-1,2.5-2.3,2.6c-9.1,1.2-24.2,3.6-32.5,7.3C6.5,113.7,0,123.7,0,134.7v6.7c0,1.4,1.2,2.6,2.6,2.6s2.6-1.2,2.6-2.6v-6.7
		c0-9,5.3-17.2,13.5-20.8c5.4-2.4,14.1-4.3,21.8-5.5l6,15.5c1.8,4.7,7.4,6.8,11.9,4.5l3-1.5l3.4,7.2l-5.9,36.5H27.1v-10.7
		c0-1.4-1.2-2.6-2.6-2.6s-2.6,1.2-2.6,2.6v10.7h-12c-2.6,0-4.8-2.1-4.8-4.8v-12.3c0-1.4-1.2-2.6-2.6-2.6S0,152,0,153.5v12.3
		c0,5.5,4.4,9.9,9.9,9.9h124.6c5.5,0,9.9-4.4,9.9-9.9v-31.1C144.4,123.7,137.9,113.7,127.8,109.2L127.8,109.2z M105.6,46.3
		c0,0,1.3,0,1.2,0c1.6,0.1,2.8,1.4,2.8,3v6.2c0,1.7-1.3,3-3,3h-1.1L105.6,46.3z M37.8,58.5c-1.7,0-3-1.3-3-3v-6.2
		c0-1.6,1.3-2.9,2.8-3c0.2,0,0.2,0,1.2,0l0,12.2H37.8z M94.6,107c1.2,0.2,2.6,0.3,4.1,0.6l-5.6,14.4c-0.7,1.9-2.9,2.7-4.7,1.8
		L77,118l15.2-11.8C92.9,106.6,93.7,106.9,94.6,107z M88.6,102.5l-16.4,12.7l-16.4-12.7c0.5-1,0.7-2.1,0.7-3.3V89
		c5,2.5,10.2,3.8,15.6,3.8h0.1c5.5-0.1,10.9-1.4,15.6-3.8v10.2C87.8,100.4,88.1,101.5,88.6,102.5L88.6,102.5z M78.4,124.5l-3.1,6.6
		h-6.3l-3.1-6.6l6.2-3.1L78.4,124.5z M44,61l0-14.7c1.9-0.1,5.9-3.3,5.9-8.1v-5.6c0-1.9,1.5-3.4,3.4-3.4c1,0,3.1-0.2,6,0.8
		c8.6,2.9,17.2,3.2,26.3,0.1c1.7-0.6,3.2-0.9,5.5-0.9c2.4,0,3.6,1.7,3.6,3.4v5.6c0,4.8,3.9,8,5.9,8.1l0,14.7
		c-0.3,15.5-13.3,26.5-28.2,26.7C57.4,87.5,44.3,76.7,44,61L44,61z M56.1,123.7c-1.8,0.9-4,0.1-4.7-1.8l-5.6-14.4
		c1.5-0.2,2.8-0.4,4.1-0.6c0.9-0.1,1.7-0.4,2.5-0.7L67.4,118L56.1,123.7z M64.1,170.5l5.6-34.3h5.2l5.6,34.3H64.1z M139.3,165.8
		c0,2.6-2.1,4.8-4.8,4.8h-12v-10.7c0-1.4-1.2-2.6-2.6-2.6c-1.4,0-2.6,1.2-2.6,2.6v10.7H85.6l-5.9-36.5l3.4-7.2l3,1.5
		c4.5,2.3,10,0.2,11.9-4.5l6-15.5c7.7,1.3,16.5,3.2,21.8,5.5c8.2,3.7,13.5,11.8,13.5,20.8L139.3,165.8L139.3,165.8z"/>
</g>
</svg>
