<?xml version="1.0" encoding="UTF-8"?><svg xmlns="http://www.w3.org/2000/svg" id="Text6410bb695b917" viewBox="0 0 62.7 63" aria-hidden="true" width="62px" height="63px"><defs><linearGradient class="cerosgradient" data-cerosgradient="true" id="CerosGradient_id29ce48c85" gradientUnits="userSpaceOnUse" x1="50%" y1="100%" x2="50%" y2="0%"><stop offset="0%" stop-color="#d1d1d1"/><stop offset="100%" stop-color="#d1d1d1"/></linearGradient><linearGradient/><style>.cls-1-6410bb695b917{fill:none;stroke:#051c2c;stroke-miterlimit:10;}</style></defs><circle class="cls-1-6410bb695b917" cx="31.3" cy="31.5" r="14.2"/><path class="cls-1-6410bb695b917" d="m8.3,37.7H.5v-13h7.8c.5-1.7,1.2-3.5,2.1-5l-5.6-5.7L14.2,4.9l5.5,5.6c1.6-.9,3.4-1.6,5.2-2.1V.5h13.1v8c1.6.4,3.3,1.1,4.8,1.9l5.4-5.5,9.4,9.2-5.4,5.6c.9,1.6,1.6,3.4,2.1,5.2l7.9-.1v13.1h-7.9c-.5,1.7-1.2,3.5-2.1,5.1l5.4,5.6-9.4,9.2-5.3-5.4c-1.5.9-3.3,1.5-5,2v8.1h-13v-8.2c-1.8-.5-3.7-1.2-5.3-2.2l-5.4,5.5-9.4-9.2,5.5-5.6.1-.1c-.9-1.6-1.6-3.3-2.1-5h0Z"/></svg>