<?xml version="1.0" encoding="UTF-8"?><svg id="Text" xmlns="http://www.w3.org/2000/svg" viewBox="0 0 63.38 48.65"><defs><style>.cls-1{fill:#051c2c;stroke:#2251ff;stroke-miterlimit:10;}.cls-2{isolation:isolate;}</style></defs><g class="cls-2"><path class="cls-1" d="m5.33,11.9V3.33c-.5.49-1.61.68-2.52.68h-.5v-.88h.2c.91,0,1.51-.19,2.01-.49.6-.39.8-1.07.91-1.95h.91v11.21h-1.01Z"/></g><g class="cls-2"><path class="cls-1" d="m5.33,48.05v-8.58c-.5.49-1.61.68-2.52.68h-.5v-.88h.2c.91,0,1.51-.19,2.01-.49.6-.39.8-1.07.91-1.95h.91v11.21h-1.01Z"/></g><g class="cls-2"><path class="cls-1" d="m.5,23.79c0-3.31,1.41-5.85,4.33-5.85s4.33,2.53,4.33,5.85c0,3.02-1.21,5.75-4.33,5.75-3.12.1-4.33-2.73-4.33-5.75Zm1.21,0c0,2.53.7,4.87,3.22,4.87s3.12-2.34,3.12-4.87c0-2.73-1.01-4.87-3.12-4.87-2.21,0-3.22,2.14-3.22,4.87Z"/></g><g class="cls-2"><path class="cls-1" d="m58.96,11.9V3.33c-.5.49-1.61.68-2.52.68h-.5v-.88h.3c.91,0,1.51-.19,2.01-.49.6-.39.8-1.07.91-1.95h.91v11.21h-1.11Z"/></g><g class="cls-2"><path class="cls-1" d="m58.96,48.05v-8.58c-.5.49-1.61.68-2.52.68h-.5v-.88h.3c.91,0,1.51-.19,2.01-.49.6-.39.8-1.07.91-1.95h.91v11.21h-1.11Z"/></g><g class="cls-2"><path class="cls-1" d="m54.23,23.79c0-3.31,1.41-5.85,4.33-5.85s4.33,2.53,4.33,5.85c0,3.02-1.21,5.75-4.33,5.75-3.22.1-4.33-2.73-4.33-5.75Zm1.11,0c0,2.53.7,4.87,3.22,4.87s3.12-2.34,3.12-4.87c0-2.73-1.01-4.87-3.12-4.87-2.11,0-3.22,2.14-3.22,4.87Z"/></g><g class="cls-2"><path class="cls-1" d="m13.88,6.35c0-3.31,1.41-5.85,4.33-5.85s4.33,2.53,4.33,5.85c0,3.02-1.21,5.75-4.33,5.75s-4.33-2.73-4.33-5.75Zm1.21,0c0,2.53.7,4.87,3.22,4.87s3.12-2.34,3.12-4.87c0-2.73-1.01-4.87-3.12-4.87-2.21-.1-3.22,2.14-3.22,4.87Z"/></g><g class="cls-2"><path class="cls-1" d="m13.88,42.4c0-3.31,1.41-5.85,4.33-5.85s4.33,2.53,4.33,5.85c0,3.02-1.21,5.75-4.33,5.75-3.12.1-4.33-2.73-4.33-5.75Zm1.21,0c0,2.53.7,4.87,3.22,4.87s3.12-2.34,3.12-4.87c0-2.73-1.01-4.87-3.12-4.87s-3.22,2.14-3.22,4.87Z"/></g><g class="cls-2"><path class="cls-1" d="m18.71,29.44v-8.58c-.5.49-1.61.68-2.52.68h-.5v-.88h.3c.91,0,1.51-.19,2.01-.49.6-.39.8-1.07.91-1.95h.91v11.21h-1.11Z"/></g><g class="cls-2"><path class="cls-1" d="m32.2,11.9V3.33c-.5.49-1.61.68-2.52.68h-.5v-.88h.3c.91,0,1.51-.19,2.01-.49.6-.39.8-1.07.91-1.95h.91v11.21h-1.11Z"/></g><g class="cls-2"><path class="cls-1" d="m32.2,48.05v-8.58c-.5.49-1.61.68-2.52.68h-.5v-.88h.3c.91,0,1.51-.19,2.01-.49.6-.39.8-1.07.91-1.95h.91v11.21h-1.11Z"/></g><g class="cls-2"><path class="cls-1" d="m27.37,23.79c0-3.31,1.41-5.85,4.33-5.85s4.33,2.53,4.33,5.85c0,3.02-1.21,5.75-4.33,5.75-3.22.1-4.33-2.73-4.33-5.75Zm1.11,0c0,2.53.7,4.87,3.22,4.87s3.12-2.34,3.12-4.87c0-2.73-1.01-4.87-3.12-4.87-2.11,0-3.22,2.14-3.22,4.87Z"/></g><g class="cls-2"><path class="cls-1" d="m40.75,6.35c0-3.31,1.41-5.85,4.33-5.85s4.33,2.53,4.33,5.85c0,3.02-1.21,5.75-4.33,5.75s-4.33-2.73-4.33-5.75Zm1.21,0c0,2.53.7,4.87,3.22,4.87s3.12-2.34,3.12-4.87c0-2.73-1.01-4.87-3.12-4.87s-3.22,2.14-3.22,4.87Z"/></g><g class="cls-2"><path class="cls-1" d="m40.75,42.4c0-3.31,1.41-5.85,4.33-5.85s4.33,2.53,4.33,5.85c0,3.02-1.21,5.75-4.33,5.75-3.12.1-4.33-2.73-4.33-5.75Zm1.21,0c0,2.53.7,4.87,3.22,4.87s3.12-2.34,3.12-4.87c0-2.73-1.01-4.87-3.12-4.87s-3.22,2.14-3.22,4.87Z"/></g><g class="cls-2"><path class="cls-1" d="m45.58,29.44v-8.58c-.5.49-1.61.68-2.52.68h-.5v-.88h.3c.91,0,1.51-.19,2.01-.49.6-.39.8-1.07.91-1.95h.91v11.21h-1.11Z"/></g></svg>