<svg xmlns:x="http://ns.adobe.com/Extensibility/1.0/" xmlns:i="http://ns.adobe.com/AdobeIllustrator/10.0/" xmlns:graph="http://ns.adobe.com/Graphs/1.0/" xmlns="http://www.w3.org/2000/svg" xmlns:xlink="http://www.w3.org/1999/xlink" version="1.1" x="0px" y="0px" viewBox="0 0 100 100" style="enable-background:new 0 0 100 100;" xml:space="preserve" width="100px" height="100px"><switch><g i:extraneous="self"><path d="M96.3,44.8L51.7,12.6c-1-0.7-2.4-0.7-3.5,0L3.7,44.8c-1.3,1-1.6,2.8-0.7,4.1c1,1.3,2.8,1.6,4.1,0.7l7.3-5.3V85    c0,1.6,1.3,3,3,3h65.1c1.6,0,3-1.3,3-3V44.3l7.3,5.3c0.5,0.4,1.1,0.6,1.7,0.6c0.9,0,1.8-0.4,2.4-1.2    C97.9,47.6,97.6,45.7,96.3,44.8z M57.1,82H42.9V56.8h14.2V82z M79.6,82H63V53.8c0-1.6-1.3-3-3-3H40c-1.6,0-3,1.3-3,3V82H20.4V40    L50,18.7L79.6,40V82z"/></g></switch></svg>