<svg xmlns="http://www.w3.org/2000/svg" xmlns:xlink="http://www.w3.org/1999/xlink" version="1.1" x="0px" y="0px" viewBox="0 0 90 90" enable-background="new 0 0 90 90" xml:space="preserve" aria-hidden="true" width="90px" height="90px" style="fill:url(#CerosGradient_idcbb92e5ec);"><defs><linearGradient class="cerosgradient" data-cerosgradient="true" id="CerosGradient_idcbb92e5ec" gradientUnits="userSpaceOnUse" x1="50%" y1="100%" x2="50%" y2="0%"><stop offset="0%" stop-color="#051C2C"/><stop offset="100%" stop-color="#051C2C"/></linearGradient><linearGradient/></defs><path d="M45,77.156c17.733,0,32.159-14.426,32.159-32.158S62.732,12.841,45,12.841c-17.733,0-32.159,14.427-32.159,32.158  C12.841,62.731,27.268,77.156,45,77.156z M45,14.841c16.63,0,30.159,13.528,30.159,30.158S61.63,75.156,45,75.156  c-16.629,0-30.159-13.527-30.159-30.157C14.841,28.37,28.371,14.841,45,14.841z" style="fill:url(#CerosGradient_idcbb92e5ec);"/><polygon points="45,35.264 61.228,55 63.718,55 45,32.234 26.283,55 28.773,55 " style="fill:url(#CerosGradient_idcbb92e5ec);"/></svg>