<!-- Generator: Adobe Illustrator 25.1.0, SVG Export Plug-In  -->
<svg version="1.1" xmlns="http://www.w3.org/2000/svg" xmlns:xlink="http://www.w3.org/1999/xlink" x="0px" y="0px" width="53.2px"
	 height="53.2px" viewBox="0 0 53.2 53.2" style="overflow:visible;enable-background:new 0 0 53.2 53.2;" xml:space="preserve">
<style type="text/css">
	.st0{fill:#FFFFFF;}
</style>
<defs>
</defs>
<g>
	<path class="st0" d="M14.4,24v-4c0-1.9-1.3-3.5-3.1-4v-2.7c0-1.9-1.3-3.6-3.2-4C7.7,7.5,6,6.2,4.1,6.2C1.8,6.2,0,8,0,10.3v18.6
		c0,1,0.4,2.5,1,3.4l10.3,14.5v5.3c0,0.6,0.5,1,1,1H25c0.6,0,1-0.5,1-1V38.7c0-1.9-0.7-3.7-2.1-5.1L14.4,24z M8.2,22.2V11.6
		c0.6,0.4,1,1,1,1.8v8.4C8.9,21.9,8.5,22,8.2,22.2z M13.2,45.9L2.7,31.2C2.4,30.7,2,29.6,2,28.9V10.3C2,9.2,3,8.2,4.1,8.2
		c1.1,0,2.1,0.9,2.1,2.1l0,15.5c0,1.1,0.5,2.1,1.2,2.8l10.8,10.8c0.4,0.4,1,0.4,1.4,0c0.2-0.2,0.3-0.5,0.3-0.7
		c0-0.3-0.1-0.5-0.3-0.7L8.8,27.2c-0.4-0.4-0.6-0.9-0.6-1.5s0.2-1.1,0.6-1.5c0.4-0.4,0.9-0.6,1.4-0.6l0.1,0c0.5,0,1,0.2,1.4,0.6
		L22.5,35c1,1,1.5,2.3,1.5,3.6v12.5H13.4v-4.6C13.4,46.3,13.3,46.1,13.2,45.9z M11.3,21.8v-3.5c0.6,0.4,1,1,1,1.8v2.1
		C12,22,11.7,21.9,11.3,21.8z"/>
	<path class="st0" d="M49.1,6.2c-1.9,0-3.6,1.3-4,3.2c-1.9,0.4-3.2,2.1-3.2,4v2.7c-1.8,0.5-3.1,2.1-3.1,4v4l-9.6,9.6
		c-1.4,1.4-2.1,3.2-2.1,5.1v13.5c0,0.6,0.5,1,1,1h12.7c0.6,0,1-0.5,1-1v-5.3l10.3-14.5c0.6-0.9,1-2.5,1-3.4V10.3
		C53.2,8,51.4,6.2,49.1,6.2z M43.9,21.8v-8.4c0-0.7,0.4-1.4,1-1.8v10.6C44.7,22,44.3,21.9,43.9,21.8z M40,45.9
		c-0.1,0.2-0.2,0.4-0.2,0.6v4.6H29.2V38.7c0-1.4,0.5-2.7,1.5-3.6l10.8-10.8c0.8-0.8,2.1-0.8,2.9,0c0.4,0.4,0.6,0.9,0.6,1.5
		s-0.2,1.1-0.6,1.5L33.6,38c-0.2,0.2-0.3,0.4-0.3,0.7c0,0.3,0.1,0.5,0.3,0.7c0.4,0.4,1,0.4,1.4,0l10.8-10.8c0.8-0.8,1.2-1.7,1.2-2.9
		V10.3c0-1.1,0.9-2.1,2.1-2.1s2.1,0.9,2.1,2.1v18.6c0,0.7-0.3,1.8-0.6,2.3L40,45.9z M40.8,22.2v-2.1c0-0.7,0.4-1.4,1-1.8v3.5
		C41.5,21.9,41.2,22,40.8,22.2z"/>
	<path class="st0" d="M27.5,24.7l3.5-7.2l7.9-1.1c0.4-0.1,0.7-0.3,0.8-0.7c0.1-0.4,0-0.8-0.3-1l-5.7-5.6l1.3-7.9
		c0.1-0.4-0.1-0.8-0.4-1C34.4,0,34-0.1,33.7,0.1l-7.1,3.7l-7.1-3.7c-0.3-0.2-0.8-0.2-1.1,0.1c-0.3,0.2-0.5,0.6-0.4,1L19,6.5
		c0,0.3,0.2,0.5,0.4,0.7c0.2,0.2,0.5,0.2,0.8,0.2c0.6-0.1,0.9-0.6,0.8-1.2l-0.6-3.3l5.7,3c0.3,0.2,0.7,0.2,1,0l5.7-3l-1.1,6.4
		c-0.1,0.3,0.1,0.7,0.3,0.9l4.6,4.5l-6.4,0.9c-0.3,0-0.6,0.3-0.8,0.6l-2.9,5.8l-2.9-5.8c-0.1-0.3-0.4-0.5-0.8-0.6l-6.4-0.9l4.6-4.5
		c0.2-0.2,0.3-0.4,0.3-0.7s-0.1-0.5-0.3-0.7c-0.2-0.2-0.4-0.3-0.7-0.3c-0.3,0-0.5,0.1-0.7,0.3l-6.1,5.9c-0.3,0.3-0.4,0.7-0.3,1
		c0.1,0.4,0.4,0.6,0.8,0.7l7.9,1.1l3.5,7.2c0.2,0.4,0.5,0.6,0.9,0.6C27,25.2,27.3,25,27.5,24.7z"/>
</g>
</svg>
