<!-- Generator: Adobe Illustrator 25.2.1, SVG Export Plug-In  -->
<svg version="1.1" xmlns="http://www.w3.org/2000/svg" xmlns:xlink="http://www.w3.org/1999/xlink" x="0px" y="0px" width="183.7px"
	 height="161.8px" viewBox="0 0 183.7 161.8" style="overflow:visible;enable-background:new 0 0 183.7 161.8;"
	 xml:space="preserve">
<style type="text/css">
	.st0{fill:none;stroke:#E6E7E8;stroke-width:1.6;stroke-linecap:round;stroke-linejoin:round;stroke-miterlimit:10;}
	.st1{fill:none;stroke:#E6E7E8;stroke-width:1.6;stroke-linecap:round;stroke-miterlimit:10;}
</style>
<defs>
</defs>
<path class="st0" d="M10.3,161c-3.4,0-6.5-1.8-8.2-4.7c-1.7-2.9-1.7-6.6,0-9.5L83.6,5.5c1.7-2.9,4.8-4.7,8.2-4.7
	c3.4,0,6.5,1.8,8.2,4.7l81.5,141.2c1.7,2.9,1.7,6.6,0,9.5c-1.7,2.9-4.8,4.7-8.2,4.7H10.3L10.3,161z"/>
<path class="st1" d="M92.7,105.6c0,0.1-0.1,0.1-0.2,0.1h-1.8c-0.1,0-0.2-0.1-0.2-0.1v-46c0-0.1,0.1-0.1,0.2-0.1h1.8
	c0.1,0,0.2,0.1,0.2,0.1V105.6L92.7,105.6z M92.7,131c0,0-0.1,0-0.2,0h-1.8c-0.1,0-0.2,0-0.2,0v-5.8c0,0,0.1,0,0.2,0h1.8
	c0.1,0,0.2,0,0.2,0V131L92.7,131z"/>
</svg>
