<svg xmlns="http://www.w3.org/2000/svg" xmlns:xlink="http://www.w3.org/1999/xlink" version="1.1" x="0px" y="0px" viewBox="0 0 48 48" enable-background="new 0 0 48 48" xml:space="preserve" width="48px" height="48px"><g><g><path d="M24.2,31.3c-0.5,0-1-0.399-1-1V6.8c0-0.5,0.4-1,1-1c0.5,0,1,0.4,1,1v23.5C25.2,30.8,24.7,31.3,24.2,31.3z"/></g></g><g><path d="M46.3,42.3H2.1c-0.5,0-1-0.399-1-1V24.9c0-0.5,0.4-1,1-1c0.5,0,1,0.4,1,1v15.5h42.3V24.9c0-0.5,0.399-1,1-1   c0.5,0,1,0.4,1,1v16.5C47.2,41.8,46.8,42.3,46.3,42.3z"/></g><g><path d="M24.1,32.1L24.1,32.1c-0.3,0-0.5-0.1-0.7-0.3L14,22.2c-0.4-0.4-0.4-1,0-1.3c0.4-0.4,1-0.4,1.3,0l8.7,9l8.9-8.7   c0.399-0.4,1-0.4,1.3,0c0.399,0.4,0.399,1,0,1.3L24.6,31.9C24.6,32,24.3,32.1,24.1,32.1z"/></g></svg>