<?xml version="1.0" encoding="UTF-8"?><svg xmlns="http://www.w3.org/2000/svg" id="Text63ed47b894ba4" viewBox="0 0 86.1 66.33" aria-hidden="true" width="86px" height="66px"><defs><linearGradient class="cerosgradient" data-cerosgradient="true" id="CerosGradient_ida178e9cde" gradientUnits="userSpaceOnUse" x1="50%" y1="100%" x2="50%" y2="0%"><stop offset="0%" stop-color="#d1d1d1"/><stop offset="100%" stop-color="#d1d1d1"/></linearGradient><linearGradient/><style>.cls-1-63ed47b894ba4{fill:none;stroke:#051c2c;stroke-miterlimit:10;}</style></defs><path class="cls-1-63ed47b894ba4" d="m30.13,35.74l13.32-28.75,12.6,28.75.57,1.53c2.42,7.51-1.7,15.59-9.21,17.93-7.51,2.42-15.59-1.7-17.93-9.21-1.05-3.15-.89-6.54.32-9.61l.32-.65Z"/><polygon class="cls-1-63ed47b894ba4" points="43.66 30.13 36.74 40.24 43.05 40.24 42.44 46.55 49.36 36.44 43.05 36.44 43.66 30.13"/><g><path class="cls-1-63ed47b894ba4" d="m75.38,28.98c2.34,17.88-10.46,34.26-28.48,36.59-9.91,1.24-20.09-2.06-27.1-9.36"/><path class="cls-1-63ed47b894ba4" d="m10.45,36.82C8.24,18.93,21.31,2.7,39.2.64c1.24-.14,2.48-.14,3.71-.14,8.67,0,17.06,3.44,23.11,9.49"/><polyline class="cls-1-63ed47b894ba4" points=".4 23.2 10.45 36.82 23.1 25.95"/><polyline class="cls-1-63ed47b894ba4" points="85.7 43.01 75.38 28.98 63 40.26"/></g></svg>