<!-- Generator: Adobe Illustrator 25.0.1, SVG Export Plug-In  -->
<svg version="1.1" xmlns="http://www.w3.org/2000/svg" xmlns:xlink="http://www.w3.org/1999/xlink" x="0px" y="0px" width="198px"
	 height="154.1px" viewBox="0 0 198 154.1" style="overflow:visible;enable-background:new 0 0 198 154.1;" xml:space="preserve">
<style type="text/css">
	.st0{fill:#5FB9E4;}
	.st1{fill:#60B9E4;}
</style>
<defs>
</defs>
<g>
	<g>
		<path class="st0" d="M163,38.4h-14.6c-1,0-1.8-0.8-1.8-1.8c0-10.1-8.2-18.3-18.3-18.3c-1,0-1.8-0.8-1.8-1.8V1.8
			c0-1,0.8-1.8,1.8-1.8c20.1,0,36.5,16.4,36.5,36.5C164.8,37.5,164,38.4,163,38.4z M150.1,34.7h11c-0.9-16.7-14.3-30.1-31-31v11
			C140.7,15.6,149.2,24.1,150.1,34.7z"/>
		<path class="st0" d="M119.1,84C99,84,82.6,67.6,82.6,47.5S99,11,119.1,11c1,0,1.8,0.8,1.8,1.8v14.6c0,1-0.8,1.8-1.8,1.8
			c-10.1,0-18.3,8.2-18.3,18.3s8.2,18.3,18.3,18.3c4.9,0,9.5-1.9,12.9-5.3c0.3-0.3,0.8-0.5,1.3-0.5s0.9,0.2,1.3,0.5L145,70.8
			c0.7,0.7,0.7,1.9,0,2.6C138.1,80.2,128.9,84,119.1,84L119.1,84z M117.3,14.7C100,15.6,86.2,30,86.2,47.5
			c0,18.1,14.8,32.9,32.9,32.9c8.2,0,15.9-3,21.9-8.4l-7.8-7.8c-4,3.4-8.9,5.2-14.2,5.2c-12.1,0-21.9-9.8-21.9-21.9
			c0-11.5,8.9-20.9,20.1-21.8V14.7z"/>
		<path class="st0" d="M158.3,72c-0.5,0-0.9-0.2-1.3-0.5l-10.3-10.3c-0.3-0.3-0.5-0.8-0.5-1.3c0-0.5,0.2-0.9,0.5-1.3
			c3.4-3.4,5.3-8,5.3-12.9c0-1,0.8-1.8,1.8-1.8h14.6c1,0,1.8,0.8,1.8,1.8c0,9.8-3.8,19-10.7,25.8C159.2,71.9,158.8,72,158.3,72
			L158.3,72z M150.5,59.8l7.8,7.8c5-5.6,7.9-12.6,8.3-20.1h-11C155.2,52.1,153.4,56.3,150.5,59.8z"/>
	</g>
	<g>
		<g>
			<path class="st0" d="M122.5,141.9h-14.3c-1,0-1.8-0.8-1.8-1.8v-27.9c0-1,0.8-1.8,1.8-1.8h14.3c1,0,1.8,0.8,1.8,1.8v27.9
				C124.3,141.1,123.5,141.9,122.5,141.9z M110,138.3h10.7v-24.3H110V138.3z"/>
			<path class="st0" d="M147.1,141.9h-14.3c-1,0-1.8-0.8-1.8-1.8v-38.6c0-1,0.8-1.8,1.8-1.8h14.3c1,0,1.8,0.8,1.8,1.8v38.6
				C148.9,141.1,148.1,141.9,147.1,141.9z M134.5,138.4h10.7v-35.1h-10.7V138.4z"/>
			<path class="st0" d="M196.2,141.9h-14.3c-1,0-1.8-0.8-1.8-1.8V73.1c0-1,0.8-1.8,1.8-1.8h14.3c1,0,1.8,0.8,1.8,1.8v66.9
				C198,141.1,197.2,141.9,196.2,141.9z M183.7,138.3h10.7V74.9h-10.7V138.3z"/>
			<path class="st0" d="M173.4,110.1C173.4,110.1,173.4,110.1,173.4,110.1C173.4,110.1,173.4,110.1,173.4,110.1l0-14.2V84.2
				c0-1-0.8-1.8-1.8-1.8h-14.3c-1,0-1.8,0.8-1.8,1.8v55.8c0,1,0.8,1.8,1.8,1.8h14.3c1,0,1.8-0.8,1.8-1.8v-17.6h0V110.1z
				 M169.9,138.3h-10.7V86h10.7v9.8v6.3v14.9v5.4V138.3z"/>
		</g>
	</g>
	<g>
		<g>
			<path class="st1" d="M65,62.7c1.4-1.1,2.4-2.9,2.4-4.9c0-3.5-2.8-6.3-6.3-6.3h-4.3l8.8-20c0.5-1.3,0.3-2.7-0.5-3.9
				c-1.1-1.6-3.2-2.2-5-1.5l-5.3,2.1l-8.9-3.6c-1-0.4-2.1-0.4-3.1,0l-8.9,3.6l-5.3-2.1c-1.8-0.7-3.9-0.1-5,1.5c-0.8,1.1-1,2.5-0.4,4
				l8.7,19.9h-4.3c-3.5,0-6.3,2.8-6.3,6.3c0,2,0.9,3.7,2.3,4.9C9.6,75.5,0,102.6,0,120.7c0,29.9,25.3,33.4,44.3,33.4
				s44.3-3.5,44.3-33.4C88.6,102.6,79,75.5,65,62.7z M27,30.1l5.3,2.1c1,0.4,2.1,0.4,3.1,0l8.9-3.6l8.9,3.6c1,0.4,2.1,0.4,3.1,0
				l5.4-2.2l-9.5,21.6H36.4L27,30.1z M27.6,55.7h33.5c1.1,0,2.1,0.9,2.1,2.1s-0.9,2.1-2.1,2.1H27.6c-1.1,0-2.1-0.9-2.1-2.1
				C25.5,56.7,26.4,55.7,27.6,55.7z M44.3,149.9c-27.8,0-40.1-9-40.1-29.2c0-18,9.9-45.4,24.1-56.6h32
				c14.2,11.1,24.1,38.5,24.1,56.6C84.4,140.9,72.1,149.9,44.3,149.9z"/>
		</g>
	</g>
</g>
</svg>
