<svg xmlns="http://www.w3.org/2000/svg" data-name="Layer 2" viewBox="0 0 128 128" x="0px" y="0px" width="128px" height="128px"><title>Artboard 15</title><path d="M51.0498,11.64893A27.86028,27.86028,0,1,0,11.64941,51.04932L76.9502,116.35059A27.86028,27.86028,0,1,0,116.35059,76.9502ZM30.33441,62.66412,62.66449,30.334,96.36237,64.03217,64.03229,96.36224ZM8.48828,31.34912a22.86151,22.86151,0,0,1,39.02637-16.165L59.12933,26.79889,26.79926,59.129,15.18457,47.51416A22.71343,22.71343,0,0,1,8.48828,31.34912Zm104.32715,81.46631a22.85958,22.85958,0,0,1-32.33008,0L67.56744,99.8974,99.89752,67.56732l12.91791,12.918a22.85958,22.85958,0,0,1,0,32.33008Z"/><path d="M45.38379,59.46387A3.49365,3.49365,0,1,0,48.877,62.958,3.498,3.498,0,0,0,45.38379,59.46387Zm0,5A1.5061,1.5061,0,1,1,46.88965,62.958,1.50779,1.50779,0,0,1,45.38379,64.46387Z"/><path d="M63.332,47.55566a3.49414,3.49414,0,1,0-3.49414,3.49365A3.49789,3.49789,0,0,0,63.332,47.55566ZM59.83789,49.062a1.50635,1.50635,0,1,1,1.50586-1.50635A1.508,1.508,0,0,1,59.83789,49.062Z"/><path d="M82.04492,57.43311a3.4939,3.4939,0,1,0,3.49414,3.49414A3.49779,3.49779,0,0,0,82.04492,57.43311Zm0,5a1.5061,1.5061,0,1,1,1.50684-1.50586A1.50758,1.50758,0,0,1,82.04492,62.43311Z"/><path d="M65.9873,78.25977a3.49414,3.49414,0,1,0,3.49414,3.49414A3.49779,3.49779,0,0,0,65.9873,78.25977Zm0,5a1.50586,1.50586,0,1,1,1.50684-1.50586A1.50789,1.50789,0,0,1,65.9873,83.25977Z"/><path d="M65.37891,67.72363a3.4939,3.4939,0,1,0-3.49414-3.49414A3.49779,3.49779,0,0,0,65.37891,67.72363Zm0-5a1.50635,1.50635,0,1,1-1.50684,1.50586A1.50758,1.50758,0,0,1,65.37891,62.72363Z"/><path d="M51.0498,116.35059l7.46582-7.46582a2.49973,2.49973,0,0,0-3.53516-3.53516l-7.46582,7.46582A22.86082,22.86082,0,1,1,15.18457,80.48535L23.37891,72.291a2.49973,2.49973,0,0,0-3.53516-3.53516L11.64941,76.9502A27.86028,27.86028,0,1,0,51.0498,116.35059Z"/><path d="M104.86133,55.46875a2.49973,2.49973,0,1,0,3.53516,3.53516l7.9541-7.95459A27.86028,27.86028,0,1,0,76.9502,11.64893l-7.22461,7.22461a2.49973,2.49973,0,0,0,3.53516,3.53516l7.22461-7.22461a22.86082,22.86082,0,1,1,32.33008,32.33008Z"/></svg>