<!-- Generator: Adobe Illustrator 25.1.0, SVG Export Plug-In  -->
<svg version="1.1" xmlns="http://www.w3.org/2000/svg" xmlns:xlink="http://www.w3.org/1999/xlink" x="0px" y="0px" width="40px"
	 height="55.2px" viewBox="0 0 40 55.2" style="overflow:visible;enable-background:new 0 0 40 55.2;" xml:space="preserve">
<style type="text/css">
	.st0{fill:#FFFFFF;}
</style>
<defs>
</defs>
<g>
	<path class="st0" d="M17.1,13.4h10.5v1.9H17.1V13.4z"/>
	<path class="st0" d="M17.1,8.6h18.1v1.9H17.1V8.6z"/>
	<path class="st0" d="M0,50.5c0,2.6,2.1,4.8,4.8,4.8h30.5c2.6,0,4.8-2.1,4.8-4.8V4.8C40,2.1,37.9,0,35.2,0H12.4
		c-0.3,0-0.5,0.1-0.7,0.3L0.3,11.7C0.1,11.9,0,12.1,0,12.4V50.5z M12.4,13.3c0.5,0,1-0.4,1-1V1.9h21.9c1.6,0,2.9,1.3,2.9,2.9v45.7
		c0,1.6-1.3,2.9-2.9,2.9H4.8c-1.6,0-2.9-1.3-2.9-2.9V13.3H12.4z M11.4,3.2v8.2H3.2L11.4,3.2z"/>
	<path class="st0" d="M35.2,34.8l-3.5-9.5l1.2-0.8l-1-1.6L31,23.4c-2.2-1.5-4.9-1.8-8-0.8c-0.3-0.3-0.7-0.6-1.1-0.7v-2.1H20v2.1
		c-0.4,0.1-0.8,0.4-1.1,0.7c-3.1-1-5.8-0.7-8,0.8L10,22.9l-1,1.6l1.2,0.8l-3.5,9.5c0,0.1-0.1,0.2-0.1,0.3c0,2.6,2.1,4.8,4.8,4.8
		s4.8-2.1,4.8-4.8c0-0.1,0-0.2-0.1-0.3l-3.6-10c1.7-0.9,3.8-1,5.6-0.4v0.2c0,0.6,0.2,1.2,0.5,1.6l-0.5,17.4h-4.8c-0.5,0-1,0.4-1,1
		v2.9c0,0.5,0.4,1,1,1h15.2c0.5,0,1-0.4,1-1v-2.9c0-0.5-0.4-1-1-1h-4.8l-0.5-17.4c0.3-0.5,0.5-1.1,0.5-1.6c0-0.1,0-0.2,0-0.2
		c1.8-0.6,3.9-0.5,5.6,0.4l-3.7,10c0,0.1-0.1,0.2-0.1,0.3c0,2.6,2.1,4.8,4.8,4.8s4.8-2.1,4.8-4.8C35.2,35,35.2,34.9,35.2,34.8
		L35.2,34.8z M11.4,27.4l2.4,6.7H9L11.4,27.4z M8.7,36h5.4c-0.5,1.5-2.2,2.3-3.6,1.7C9.7,37.5,9,36.8,8.7,36z M20.9,23.7
		c0.5,0,1,0.4,1,1c0,0.5-0.4,1-1,1c-0.5,0-1-0.4-1-1C20,24.1,20.4,23.7,20.9,23.7z M27.6,46.5H14.3v-1h13.3V46.5z M20,43.6l0.5-16.2
		c0.3,0.1,0.6,0.1,1,0l0.5,16.2H20z M32.9,34.1H28l2.4-6.7L32.9,34.1z M27.8,36h5.4c-0.5,1.5-2.2,2.3-3.6,1.7
		C28.7,37.5,28.1,36.8,27.8,36z"/>
</g>
</svg>
