<!-- Generator: Adobe Illustrator 25.0.0, SVG Export Plug-In  -->
<svg version="1.1" xmlns="http://www.w3.org/2000/svg" xmlns:xlink="http://www.w3.org/1999/xlink" x="0px" y="0px" width="49.5px"
	 height="57.2px" viewBox="0 0 49.5 57.2" style="overflow:visible;enable-background:new 0 0 49.5 57.2;" xml:space="preserve">
<style type="text/css">
	.st0{fill:#5FB9E4;stroke:#FFFFFF;stroke-width:0.5;stroke-miterlimit:10;}
	.st1{fill:#FFFFFF;}
	.st2{fill:none;}
	.st3{font-family:'PreloSlab-Bold';}
	.st4{font-size:30px;}
</style>
<defs>
</defs>
<polygon class="st0" points="49.3,42.8 49.3,14.4 24.8,0.3 0.2,14.4 0.2,42.8 24.8,56.9 "/>
<g>
	<g>
		<g>
			<path class="st1" d="M32,34v5H17.5v-3.7c7.9-5,9.5-7.8,9.5-10c0-3.1-2.3-3.4-3.6-3.4c-0.9,0-1.7,0.1-2.7,0.4v1.5h-3.2v-4.1
				c2.5-1,4.2-1.5,6.8-1.5c4.6,0,6.8,2.7,6.8,6.2c0,4.2-3,7.4-8.1,11v0.1h5.7V34H32z"/>
		</g>
	</g>
</g>
</svg>
