<!-- Generator: Adobe Illustrator 25.2.1, SVG Export Plug-In  -->
<svg version="1.1" xmlns="http://www.w3.org/2000/svg" xmlns:xlink="http://www.w3.org/1999/xlink" x="0px" y="0px" width="243.3px"
	 height="252.3px" viewBox="0 0 243.3 252.3" style="overflow:visible;enable-background:new 0 0 243.3 252.3;"
	 xml:space="preserve">
<style type="text/css">
	.st0{opacity:0.2;}
	.st1{fill:#C9C9C7;}
</style>
<defs>
</defs>
<g class="st0">
	<g>
		<path class="st1" d="M198.1,252.3h-34.7c-1.9,0-3.6-1.2-4.2-3l-8.9-24.8c-0.8-2.3,0.4-4.9,2.7-5.8c2.3-0.8,4.9,0.4,5.8,2.7
			l7.8,21.8h25.1L179,207.8c-0.6-1.8-0.1-3.8,1.4-5c13.4-10.9,17.7-17.7,27.1-32.6c1-1.7,2.1-3.4,3.3-5.3c0.8-1.3,2.3-2.1,3.8-2.1
			h15.9c1.3-0.9,3.8-7,3.8-17.7s-2.5-16.8-3.8-17.7h-13.9c-0.1,0-0.1,0-0.2,0c-2.4,0.5-4.8-1.1-5.3-3.5c-1.9-9.8-5.7-19.2-11.3-27.8
			c-0.5-0.8-0.8-1.7-0.7-2.6l1.1-24.2c-6.4,3-13,6-13.9,6.5c-0.2,0.1-0.5,0.2-0.8,0.3c-1.5,0.5-3.1,0.2-4.3-0.8
			c-8.5-7.1-18.2-12.8-28.8-17c-2.9,9.9-9,18.7-17.6,24.8c-2,1.4-4.8,0.9-6.3-1.1c-1.4-2-0.9-4.8,1.1-6.3
			c9.8-6.9,15.6-18.1,15.6-30.1c0-20.3-16.5-36.8-36.8-36.8C88.1,9,71.6,25.5,71.6,45.8c0,12.8,6.5,24.4,17.3,31.2
			c2.1,1.3,2.7,4.1,1.4,6.2c-1.3,2.1-4.1,2.7-6.2,1.4c-13.5-8.4-21.5-23-21.5-38.8C62.6,20.5,83.2,0,108.4,0
			c25.2,0,45.8,20.5,45.8,45.8c0,1.2,0,2.4-0.1,3.6c11.3,4.3,21.6,10,30.7,17.2c0.2-0.1,0.5-0.2,0.7-0.3c2-0.9,4.6-2.1,7.2-3.4
			c5.2-2.4,10.5-4.9,10.5-4.9c1.4-0.7,3.1-0.5,4.4,0.3c1.3,0.9,2.1,2.4,2,3.9l-1.4,30.2c5.1,8.1,8.7,16.9,11,26h11.5
			c9.4,0,12.7,13.8,12.7,26.7s-3.3,26.7-12.7,26.7H217c-0.7,1.1-1.4,2.1-2,3.1c-9.1,14.3-13.9,22-26.6,32.7l13.9,38.5
			c0.5,1.4,0.3,2.9-0.6,4.1S199.6,252.3,198.1,252.3z M65,252.3H30.4c-2,0-3.7-1.3-4.3-3.1c-1.1-3.4-10.8-33.4-11.7-37.2
			c-1-4.2-2.1-8.4-3.2-12.7C-0.3,154.1-13.3,103,30.3,67.9c3.9-3.1,8.2-6.1,12.9-8.8c2.2-1.2,4.9-0.5,6.1,1.6s0.5,4.9-1.6,6.1
			c-4.3,2.5-8.3,5.2-11.8,8c-39.1,31.4-27.4,77.5-16,122.1c1.1,4.3,2.2,8.6,3.2,12.8c0.6,2.5,6.3,20.3,10.6,33.5h25.2L51.7,221
			c-0.6-1.7,0-3.6,1.3-4.8c1.4-1.2,3.3-1.4,4.9-0.6c15.5,7.6,33.2,11.5,51.1,11.5c8.9,0,17.7-1,26.2-2.9c2.4-0.5,4.8,1,5.4,3.4
			c0.5,2.4-1,4.8-3.4,5.4c-9.2,2-18.6,3.1-28.2,3.1c-15.8,0-31.4-2.9-45.7-8.4l6,18.7c0.4,1.4,0.2,2.9-0.6,4
			C67.8,251.6,66.5,252.3,65,252.3z M109.7,68.4c-12.8,0-17.8-9.4-18.1-9.8c-1.1-2.2-0.3-4.9,1.9-6.1c2.2-1.1,4.9-0.3,6.1,1.9
			c0.3,0.5,3.2,5.4,11.1,4.9c2.8-0.2,5.9-3,6-5.5c0.1-3.8-7.3-4.4-7.6-4.5c-5.1-0.4-12.2-2.6-15.5-7.7c-1.4-2.1-2.7-5.7-0.9-10.3
			c1.9-5.1,6.7-8.4,13-9c7.6-0.6,15,2.7,18.1,8.1c1.2,2.2,0.5,4.9-1.7,6.1c-2.2,1.2-4.9,0.5-6.1-1.7c-1.3-2.3-5.6-4-9.6-3.6
			c-1.6,0.1-4.5,0.7-5.3,3.1c-0.5,1.3-0.2,1.9,0.1,2.3c1.1,1.7,5,3.4,8.6,3.6c9.8,0.7,16.2,6.3,15.9,13.7c-0.3,7.1-7,13.7-14.5,14.2
			C110.7,68.4,110.2,68.4,109.7,68.4z"/>
	</g>
	<path class="st1" d="M108.5,30.2c-2.5,0-4.5-2-4.5-4.5v-6.8c0-2.5,2-4.5,4.5-4.5s4.5,2,4.5,4.5v6.8C113,28.2,111,30.2,108.5,30.2z"
		/>
	<path class="st1" d="M170.8,99.7c-0.9,0-1.8-0.3-2.6-0.9c-9.9-7.1-29.9-15.5-53.9-15.5c-24.9,0-47.7,6-56.8,15
		c-1.8,1.7-4.6,1.7-6.4,0c-1.7-1.8-1.7-4.6,0-6.4c9.5-9.4,29.9-15.9,53.4-17.3c-0.3-0.6-0.5-1.3-0.5-2v-8.5c0-2.5,2-4.5,4.5-4.5
		s4.5,2,4.5,4.5v8.5c0,0.6-0.1,1.2-0.4,1.8c0.5,0,1.1,0,1.6,0c26.2,0,48.3,9.3,59.2,17.2c2,1.5,2.5,4.3,1,6.3
		C173.6,99.1,172.2,99.7,170.8,99.7z"/>
</g>
</svg>
