<svg xmlns="http://www.w3.org/2000/svg" xmlns:xlink="http://www.w3.org/1999/xlink" version="1.1" x="0px" y="0px" viewBox="0 0 100 100" enable-background="new 0 0 100 100" xml:space="preserve" aria-hidden="true" width="100px" height="100px" style="fill:url(#CerosGradient_ide388f813a);"><defs><linearGradient class="cerosgradient" data-cerosgradient="true" id="CerosGradient_ide388f813a" gradientUnits="userSpaceOnUse" x1="50%" y1="100%" x2="50%" y2="0%"><stop offset="0%" stop-color="#D1D1D1"/><stop offset="100%" stop-color="#D1D1D1"/></linearGradient><linearGradient/></defs><path d="M59.1,50l34.6-34.6c2.4-2.4,2.4-6.3,0-8.7c-2.4-2.4-6.3-2.4-8.7,0L50.4,41.3L15.8,6.8  c-2.4-2.4-6.3-2.4-8.7,0c-2.4,2.4-2.4,6.3,0,8.7L41.7,50L7.2,84.6c-2.4,2.4-2.4,6.3,0,8.7c2.4,2.4,6.3,2.4,8.7,0l34.6-34.6  l34.6,34.6c2.4,2.4,6.3,2.4,8.7,0c2.4-2.4,2.4-6.3,0-8.7L59.1,50z" style="fill:url(#CerosGradient_ide388f813a);"/></svg>