<!-- Generator: Adobe Illustrator 25.2.1, SVG Export Plug-In  -->
<svg version="1.1" xmlns="http://www.w3.org/2000/svg" xmlns:xlink="http://www.w3.org/1999/xlink" x="0px" y="0px" width="92.4px"
	 height="13.9px" viewBox="0 0 92.4 13.9" style="overflow:visible;enable-background:new 0 0 92.4 13.9;" xml:space="preserve">
<style type="text/css">
	.st0{fill:none;stroke:#5FB9E4;stroke-width:1.6;stroke-linecap:round;stroke-linejoin:round;stroke-miterlimit:10;}
</style>
<defs>
</defs>
<g>
	<path class="st0" d="M85.2,0.8l2,4l4.5,0.6l-3.2,3.1l0.8,4.4l-4-2.1l-4,2.1l0.8-4.4l-3.2-3.1l4.5-0.6L85.2,0.8L85.2,0.8z M65.7,0.8
		l2,4l4.5,0.6l-3.2,3.1l0.8,4.4l-4-2.1l-4,2.1l0.8-4.4l-3.2-3.1l4.5-0.6L65.7,0.8L65.7,0.8z M46.2,0.8l2,4l4.5,0.6l-3.2,3.1l0.8,4.4
		l-4-2.1l-4,2.1L43,8.6l-3.2-3.1l4.5-0.6L46.2,0.8L46.2,0.8z M26.7,0.8l2,4l4.5,0.6L30,8.6l0.8,4.4l-4-2.1l-4,2.1l0.8-4.4l-3.2-3.1
		l4.5-0.6L26.7,0.8L26.7,0.8z M7.2,0.8l2,4l4.5,0.6l-3.2,3.1l0.8,4.4l-4-2.1l-4,2.1L4,8.6L0.8,5.5l4.5-0.6L7.2,0.8L7.2,0.8z"/>
</g>
</svg>
