<svg xmlns="http://www.w3.org/2000/svg" xmlns:xlink="http://www.w3.org/1999/xlink" version="1.0" x="0px" y="0px" viewBox="0 0 100 100" enable-background="new 0 0 100 100" xml:space="preserve" width="100px" height="100px"><path d="M61.6,57.9c-0.5,0-1-0.2-1.3-0.6c-0.7-0.7-0.6-1.8,0.1-2.5l5.2-4.8l-5.2-4.8c-0.7-0.7-0.8-1.8-0.1-2.5  c0.7-0.7,1.8-0.8,2.5-0.1l6.6,6.1c0.4,0.3,0.6,0.8,0.6,1.3s-0.2,1-0.6,1.3l-6.6,6.1C62.5,57.7,62,57.9,61.6,57.9z"/><path d="M65.5,51.7H31.8c-1,0-1.8-0.8-1.8-1.8s0.8-1.8,1.8-1.8h33.7c1,0,1.8,0.8,1.8,1.8S66.5,51.7,65.5,51.7z"/></svg>