<!-- Generator: Adobe Illustrator 25.2.3, SVG Export Plug-In  -->
<svg version="1.1" xmlns="http://www.w3.org/2000/svg" xmlns:xlink="http://www.w3.org/1999/xlink" x="0px" y="0px" width="47.1px"
	 height="54.4px" viewBox="0 0 47.1 54.4" style="overflow:visible;enable-background:new 0 0 47.1 54.4;" xml:space="preserve">
<style type="text/css">
	.st0{fill:#FFFFFF;stroke:#E11B22;stroke-width:1.5;stroke-miterlimit:10;}
	.st1{fill:#E11B22;}
</style>
<defs>
</defs>
<polygon class="st0" points="46.3,40.4 46.3,14 23.5,0.9 0.8,14 0.8,40.4 23.5,53.5 "/>
<g>
	<path class="st1" d="M23,11.9h1v2h-1V11.9z"/>
	<path class="st1" d="M13.1,16.4l0.7-0.7l1.4,1.4l-0.7,0.7L13.1,16.4z"/>
	<path class="st1" d="M9.3,25.7h2v1h-2V25.7z"/>
	<path class="st1" d="M13.1,35.9l1.4-1.4l0.7,0.7l-1.4,1.4L13.1,35.9z"/>
	<path class="st1" d="M31.8,35.2l0.7-0.7l1.4,1.4l-0.7,0.7L31.8,35.2z"/>
	<path class="st1" d="M35.8,25.7h2v1h-2V25.7z"/>
	<path class="st1" d="M31.8,17.1l1.4-1.4l0.7,0.7l-1.4,1.4L31.8,17.1z"/>
	<path class="st1" d="M23,30.8L23,30.8l0.1,0.5c0,0.3,0.2,0.5,0.5,0.5c0.3,0,0.5-0.2,0.5-0.5v-0.5h0.1c1.4,0,2.5-1.1,2.5-2.5v-0.5
		c0-0.9-0.5-1.7-1.2-2.1l-3.2-1.9c-0.7-0.4-0.9-1.3-0.5-2c0.3-0.4,0.7-0.7,1.2-0.7h1.2c0.8,0,1.4,0.6,1.4,1.4v0.6
		c0,0.3,0.2,0.5,0.5,0.5c0.3,0,0.5-0.2,0.5-0.5v-0.6c0-1.4-1.1-2.5-2.5-2.5h-0.1v-0.5c0-0.3-0.2-0.5-0.5-0.5c-0.3,0-0.5,0.2-0.5,0.5
		V20H23c-1.4,0-2.5,1.1-2.5,2.5c0,0.9,0.5,1.7,1.2,2.1l3.2,1.9c0.4,0.3,0.7,0.7,0.7,1.2v0.5c0,0.8-0.6,1.4-1.4,1.4H23
		c-0.8,0-1.4-0.6-1.4-1.4v-0.6c0-0.3-0.2-0.5-0.5-0.5c-0.3,0-0.5,0.2-0.5,0.5v0.6C20.5,29.7,21.6,30.8,23,30.8z"/>
	<path class="st1" d="M17.7,34.5c1.1,0.7,1.7,1.9,1.7,3.2v2.7c0,1.1,0.9,2,2,2h4.1c1.1,0,2-0.9,2-2v-2.6c0-1.3,0.7-2.6,1.8-3.3
		c4.6-3.2,5.7-9.6,2.5-14.2c-3.2-4.6-9.6-5.7-14.2-2.5c-4.6,3.2-5.7,9.6-2.5,14.2C15.9,33,16.7,33.9,17.7,34.5z M25.6,41.5h-4.1
		c-0.6,0-1-0.5-1-1h6.1C26.6,41,26.2,41.5,25.6,41.5z M26.6,39.4h-6.1v-1h6.1V39.4z M14.4,25.2c0.5-5,5-8.7,10.1-8.2
		c5,0.5,8.7,5,8.2,10.1c-0.3,2.6-1.7,5.1-3.8,6.6c-1.2,0.9-2.1,2.2-2.2,3.7h-2.6v-2.6c0-0.6,0.5-1,1-1c0.3,0,0.5-0.2,0.5-0.5
		c0-0.3-0.2-0.5-0.5-0.5c-0.6,0-1.1,0.3-1.5,0.7c-0.4-0.4-0.9-0.7-1.5-0.7c-0.3,0-0.5,0.2-0.5,0.5c0,0.3,0.2,0.5,0.5,0.5
		c0.6,0,1,0.5,1,1v2.6h-2.6c-0.1-1.5-0.9-2.8-2.2-3.7C15.6,31.8,14.1,28.6,14.4,25.2z"/>
</g>
</svg>
