<!-- Generator: Adobe Illustrator 25.2.0, SVG Export Plug-In  -->
<svg version="1.1" xmlns="http://www.w3.org/2000/svg" xmlns:xlink="http://www.w3.org/1999/xlink" x="0px" y="0px"
	 width="1035.2px" height="456.6px" viewBox="0 0 1035.2 456.6" style="overflow:visible;enable-background:new 0 0 1035.2 456.6;"
	 xml:space="preserve">
<style type="text/css">
	.st0{fill:#4BBBEB;}
	.st1{fill:#EEF0FB;}
	.st2{fill:#FFFFFF;}
	.st3{fill:#E7484E;}
	.st4{opacity:0.4;}
	.st5{fill:#A8B2D9;}
	.st6{fill:#6D82D7;}
	.st7{opacity:0.31;fill:#FFFFFF;}
	.st8{opacity:0.31;fill:#E0E2F7;}
	.st9{fill:url(#SVGID_1_);}
	.st10{fill:#E0E2F7;}
	.st11{fill:url(#SVGID_2_);}
</style>
<defs>
</defs>
<rect y="452.1" class="st0" width="899" height="4.5"/>
<g id="bg_x5F_obj_1_">
	<g>
		<path class="st1" d="M1,342.4c86.9-8.7,154.7-82,154.7-171.2C155.8,82,87.9,8.7,1,0L1,342.4z"/>
		<g>
			<path class="st2" d="M8,0.8C7,0.7,5.9,0.6,4.8,0.4L1,19.4v16.2L8,0.8z"/>
			<path class="st2" d="M20.3,3c-1-0.2-2.1-0.4-3.1-0.6L1,82.6l0,16.2L20.3,3z"/>
			<path class="st2" d="M32.3,6.1c-1-0.3-2-0.6-3.1-0.9L1,145.7v16.2L32.3,6.1z"/>
			<path class="st2" d="M44.2,10.1c-1-0.4-2-0.7-3-1.1L1,208.9v16.2L44.2,10.1z"/>
			<path class="st2" d="M55.9,15c-1-0.5-2-0.9-3-1.3L1,272v16.2L55.9,15z"/>
			<path class="st2" d="M64.5,19.3L1,335.2v7.2c0.6-0.1,1.2-0.1,1.8-0.2L67.4,20.8C66.4,20.3,65.5,19.8,64.5,19.3z"/>
			<path class="st2" d="M78.7,27.7c-1-0.6-1.9-1.3-2.9-1.9l-63.3,315c1.1-0.2,2.2-0.4,3.4-0.6L78.7,27.7z"/>
			<path class="st2" d="M89.8,35.7c-0.9-0.7-1.9-1.4-2.8-2.2L25.8,338.1c1.1-0.3,2.3-0.6,3.4-0.9L89.8,35.7z"/>
			<path class="st2" d="M100.6,45c-0.9-0.8-1.8-1.7-2.7-2.5L39.3,334.1c1.2-0.4,2.3-0.8,3.5-1.2L100.6,45z"/>
			<path class="st2" d="M111.2,55.6c-0.9-1-1.8-1.9-2.7-2.9L53.1,328.7c1.2-0.5,2.4-1.1,3.6-1.6L111.2,55.6z"/>
			<path class="st2" d="M121.4,68c-0.8-1.1-1.7-2.2-2.6-3.3L67.2,321.7c1.2-0.7,2.5-1.4,3.7-2.1L121.4,68z"/>
			<path class="st2" d="M131.1,82.5c-0.8-1.3-1.6-2.6-2.5-4l-47,234.1c1.3-0.9,2.5-1.8,3.8-2.7L131.1,82.5z"/>
			<path class="st2" d="M140.3,99.9c-0.7-1.6-1.5-3.2-2.3-4.8L96.7,301c1.3-1.2,2.7-2.4,4-3.6L140.3,99.9z"/>
			<path class="st2" d="M148.6,121.9c-0.6-2.1-1.3-4.2-2-6.2l-34.1,169.5c1.4-1.6,2.9-3.3,4.2-5L148.6,121.9z"/>
			<path class="st2" d="M154.9,153.8c-0.3-3.3-0.8-6.6-1.3-9.8l-23.7,118c1.7-2.8,3.4-5.6,5-8.5L154.9,153.8z"/>
		</g>
	</g>
	<g>
		<g>
			<path class="st3" d="M121.7,452L9.3,452.1c1.3-7.5,4.5-16.3,11-26.5c67.8-49.7,134.7-40.7,158.5-30
				C160.6,421.2,140.9,439.3,121.7,452z"/>
			<path class="st2" d="M167.6,399.4c-3.7,1.1-7.4,2.3-11.1,3.4c3.2,3.1,6.7,5.8,10.5,8c-0.3,0.4-0.6,0.8-1,1.1
				c-4-2.4-7.8-5.3-11.2-8.7c-4.8,1.5-9.5,2.9-14.3,4.4c-0.1,0.1-0.4,0.2-0.6,0.2c-4.1,1.3-8.1,2.5-12.2,3.8
				c-0.4,0.1-0.9,0.3-1.3,0.4c3.7,6.3,9.7,10.5,16.1,13.7c2.4,1.2,4.8,2.4,7.3,3.4c-0.4,0.4-0.9,0.8-1.3,1.2
				c-9.4-3.9-18.6-9.3-23.6-17.9c-8.2,2.6-16.2,5.3-24.3,8.2c8,11.3,21,17.2,33.8,21.9c-0.5,0.4-0.9,0.7-1.4,1.1
				c-12.9-4.8-25.9-10.9-33.9-22.4c-3.5,1.3-7,2.6-10.4,4c0,0,0,0-0.1,0.1c-0.2,0.3-0.5,0.3-0.8,0.2c-2.1,0.8-4.2,1.7-6.4,2.6
				c8.5,9.3,18.3,17.3,29,24l-2.8,0c-10.2-6.5-19.5-14.4-27.7-23.3c-5.7,2.4-11.4,4.9-17,7.5c-1.3,0.6-2.6,1.3-4,1.9
				c2.6,5.3,6.2,9.9,10.3,14l-2.1,0c-3.8-3.9-7.1-8.3-9.6-13.3c-5.7,2.8-11.3,5.7-16.9,8.7c0.6,1.6,1.2,3.1,1.9,4.6l-1.6,0
				c-0.6-1.3-1.1-2.6-1.6-3.9c-2.3,1.3-4.7,2.6-7,3.9l-3,0c1.9-1.1,3.9-2.2,5.8-3.3c8.6-4.8,17.3-9.3,26.2-13.5
				c8.5-15.3,18.4-29.8,29.6-43.2c0.8-0.2,1.6-0.4,2.4-0.6c-11.2,13.2-21.2,27.5-29.7,42.7c5.1-2.4,10.3-4.7,15.5-6.9
				c0.2-0.3,0.6-0.6,1-0.4c2.5-1.1,5-2.1,7.6-3.1c10.7-12.7,22.1-24.8,34.1-36.3c0.8,0,1.5-0.1,2.3-0.1
				c-11.8,11.2-23,22.9-33.5,35.3c2.1-0.8,4.3-1.6,6.4-2.4c13.8-5.1,27.8-9.5,41.9-13.8c0.5-7.1,3.4-13.1,7.4-18.4
				c0.6,0.1,1.2,0.1,1.7,0.2c-4.1,5.1-7.1,11-7.7,17.8c8.7-2.7,17.5-5.3,26.2-8C168,397.7,168.6,399.1,167.6,399.4z"/>
		</g>
		<g>
			<path class="st3" d="M1,300.1c9.4-14.4,19.4-24.3,26.8-29.5c46.5,105.7-8.4,174.6-10.3,177.5c0,0-7,1.3-16.4-2.9L1,300.1z"/>
			<path class="st2" d="M1.1,413.8c0.3-9,0.9-18,1.7-26.9c-0.6-1-1.2-2.1-1.8-3.1l0-2.9c0.7,1.2,1.3,2.4,2,3.6
				c0.6-5.4,1.2-10.8,2-16.2c-0.2-0.3-0.2-0.8,0.1-1c0.4-2.6,0.8-5.2,1.2-7.8c-1.9-5.5-3.7-11.1-5.4-16.7l0-5.1
				c1.8,6.3,3.8,12.6,5.9,18.8c0.4-2.2,0.7-4.3,1.2-6.5c2.6-13.9,5.9-27.7,9.3-41.4c-5.6-3.9-9.1-9.2-11.5-15.3
				c0.3-0.5,0.7-0.9,1-1.3c2.2,5.9,5.6,11.2,10.9,15.1c2.1-8.5,4.3-17,6.4-25.5c0.2-0.9,1.6-0.7,1.4,0.2c-0.9,3.6-1.8,7.2-2.6,10.8
				c4.1-1.1,8.1-2.7,11.8-4.7c0.2,0.5,0.3,0.9,0.5,1.4c-4,2.2-8.2,3.8-12.7,4.9c-1.1,4.7-2.3,9.3-3.4,14c0,0.2,0,0.4-0.1,0.6
				c-1,4-1.9,7.9-2.9,11.9c-0.1,0.4-0.2,0.9-0.3,1.3c7,0.1,13.5-2.9,19.3-6.5c2.2-1.4,4.3-2.8,6.4-4.4c0.1,0.6,0.3,1.1,0.4,1.7
				c-7.9,5.9-16.9,10.8-26.5,10.6c-1.9,8-3.7,16-5.2,24.1c13.3-1,24.6-8.9,34.8-17.1c0.1,0.6,0.1,1.1,0.2,1.7
				c-10.3,8.3-21.8,16-35.3,16.9c-0.7,3.5-1.3,7-1.9,10.6c0,0,0,0.1,0,0.1c0.1,0.3,0,0.6-0.2,0.7c-0.4,2.2-0.7,4.3-1,6.5
				c14-2.9,27.4-8.1,39.7-15.2c0,0.5,0,1.1,0,1.6c-12.4,7.1-25.9,12.2-39.9,15c-0.9,5.9-1.6,11.8-2.2,17.8c-0.1,1.4-0.3,2.8-0.4,4.2
				c14.7,1.2,28.7-5.2,40.9-12.7c-0.1,0.6-0.2,1.2-0.3,1.8c-12.3,7.4-26.2,13.5-40.8,12.3C3.4,397.8,3,403.9,2.7,410
				c12.1,2.3,24.2,0.6,35.6-3.5c-0.2,0.6-0.4,1.2-0.6,1.7c-11.3,3.9-23.2,5.5-35.1,3.2c-0.3,8.9-0.4,17.7-0.2,26.6
				c3.4-0.2,6.7,0,10.1-0.1c3.8-0.1,7.5-0.8,11.1-1.8c0.7-0.2,1.3-0.4,2-0.6c-0.3,0.6-0.7,1.2-1,1.8c-0.4,0.1-0.8,0.2-1.3,0.4
				c-7,1.8-13.8,1.4-20.9,1.8c0.1,2.2,0.1,4.3,0.2,6.5c-0.5-0.2-1-0.4-1.5-0.6c0-1-0.1-2-0.1-3L1.1,413.8z"/>
		</g>
		<g>
			<path class="st0" d="M31.4,452.1l-30.3,0L1.1,385c41.2-44.5,89.8-55.8,111.4-55C96.4,397.5,60,433.5,31.4,452.1z"/>
			<path class="st2" d="M3.2,430.8c-0.7,0.9-1.4,1.7-2.1,2.6l0-2.4c5.7-7,11.6-13.8,17.7-20.4c2.1-17.4,5.9-34.5,11.3-51.2
				c0.7-0.5,1.3-0.9,2-1.4c-5.5,16.5-9.4,33.5-11.6,50.7c3.8-4.1,7.8-8.2,11.8-12.1c0-0.4,0.3-0.7,0.8-0.8c1.9-1.9,3.9-3.8,5.9-5.7
				c5.2-15.8,11.2-31.3,18.1-46.4c0.7-0.3,1.4-0.6,2.1-1c-6.7,14.7-12.7,29.8-17.9,45.2c1.7-1.6,3.3-3.1,5-4.7
				c10.9-9.9,22.2-19.2,33.7-28.5c-2.2-6.7-1.8-13.4,0-19.9c0.6-0.2,1.1-0.3,1.7-0.5c-1.9,6.3-2.4,12.8-0.5,19.4
				c7.1-5.7,14.2-11.4,21.3-17.2c0.7-0.6,1.8,0.5,1,1.1c-3,2.4-6,4.9-9,7.3c4.1,1.7,8.4,2.9,12.8,3.5c-0.2,0.5-0.3,0.9-0.5,1.4
				c-4.6-0.7-9.2-2-13.6-3.9c-3.9,3.2-7.7,6.3-11.6,9.5c-0.1,0.2-0.3,0.3-0.5,0.4c-3.3,2.7-6.6,5.4-9.9,8c-0.4,0.3-0.7,0.6-1.1,0.9
				c5.8,4.5,13,6.1,20.1,6.7c2.7,0.2,5.4,0.4,8.1,0.4c-0.2,0.5-0.5,1.1-0.7,1.6c-10.2-0.1-20.7-1.6-28.6-7.8
				c-6.6,5.4-13.1,11-19.4,16.7c11.7,7.5,26,8.1,39.6,7.7c-0.3,0.5-0.6,1-0.9,1.5c-13.7,0.4-28.1-0.4-39.8-8.1
				c-2.8,2.5-5.5,5-8.2,7.6c0,0,0,0.1,0,0.1c-0.1,0.3-0.3,0.5-0.6,0.5c-1.7,1.6-3.3,3.2-4.9,4.8c13.4,6.4,27.7,10.5,42.4,12.3
				c-0.3,0.5-0.7,0.9-1,1.4c-14.7-1.9-29.1-6.1-42.5-12.6c-4.4,4.3-8.7,8.8-13,13.3c-1,1.1-2,2.2-3,3.2c11.4,10.2,27,13.7,41.9,15.1
				c-0.5,0.5-0.9,0.9-1.4,1.3c-14.8-1.6-30.2-5.2-41.5-15.4c-4.2,4.7-8.4,9.5-12.4,14.4c8.5,9.5,19.7,15.7,31.7,19.5
				c-0.5,0.4-1,0.7-1.5,1.1C22.6,446.3,11.7,440.1,3.2,430.8z"/>
		</g>
	</g>
	<g>
		<path class="st3" d="M219.7,383.7c0-3.8,3.1-6.8,6.8-6.8c3.8,0,6.8,3.1,6.8,6.8c0,3.8-3.1,6.8-6.8,6.8
			C222.8,390.6,219.7,387.5,219.7,383.7z M222.8,383.7c0,2.1,1.7,3.8,3.8,3.8c2.1,0,3.8-1.7,3.8-3.8c0-2.1-1.7-3.8-3.8-3.8
			C224.5,379.9,222.8,381.6,222.8,383.7z"/>
	</g>
	<g>
		<path class="st3" d="M520.8,429c0-3.8,3.1-6.8,6.8-6.8c3.8,0,6.8,3.1,6.8,6.8c0,3.8-3.1,6.8-6.8,6.8
			C523.9,435.9,520.8,432.8,520.8,429z M523.8,429c0,2.1,1.7,3.8,3.8,3.8c2.1,0,3.8-1.7,3.8-3.8c0-2.1-1.7-3.8-3.8-3.8
			C525.5,425.2,523.8,426.9,523.8,429z"/>
	</g>
	<g>
		<path class="st0" d="M533.6,74.2l0-11.6c0-0.5-0.4-0.9-0.9-0.9s-0.9,0.4-0.9,0.9l0,11.6c0,0.5,0.4,0.9,0.9,0.9
			C533.2,75.1,533.6,74.7,533.6,74.2z"/>
		<path class="st0" d="M538.5,67.6h-11.6c-0.5,0-0.9,0.4-0.9,0.9c0,0.5,0.4,0.9,0.9,0.9h11.6c0.5,0,0.9-0.4,0.9-0.9
			C539.4,68,539,67.6,538.5,67.6z"/>
	</g>
	<g>
		<path class="st0" d="M346.3,411.6v-9c0-0.4-0.3-0.7-0.7-0.7c-0.4,0-0.7,0.3-0.7,0.7v9c0,0.4,0.3,0.7,0.7,0.7
			C346,412.3,346.3,412,346.3,411.6z"/>
		<path class="st0" d="M350.2,406.4h-9c-0.4,0-0.7,0.3-0.7,0.7c0,0.4,0.3,0.7,0.7,0.7h9c0.4,0,0.7-0.3,0.7-0.7
			C350.9,406.7,350.5,406.4,350.2,406.4z"/>
	</g>
	<g>
		<path class="st3" d="M593.7,24.1c0-3.8,3.1-6.8,6.8-6.8c3.8,0,6.8,3.1,6.8,6.8s-3.1,6.8-6.8,6.8C596.8,31,593.7,27.9,593.7,24.1z
			 M596.8,24.1c0,2.1,1.7,3.8,3.8,3.8c2.1,0,3.8-1.7,3.8-3.8c0-2.1-1.7-3.8-3.8-3.8C598.5,20.3,596.8,22,596.8,24.1z"/>
	</g>
</g>
<g id="city_1_" class="st4">
	<path class="st5" d="M565.7,136h-50.4l0-33.6c0-0.8,0.6-1.4,1.4-1.4h47.6c0.8,0,1.4,0.6,1.4,1.4V136z"/>
	<path class="st6" d="M589.5,136h-50.4v-33.6c0-0.8,0.6-1.4,1.4-1.4h47.6c0.8,0,1.4,0.6,1.4,1.4V136z"/>
	<rect x="582.2" y="100.8" class="st7" width="2.8" height="226.4"/>
	<rect x="571.9" y="100.8" class="st7" width="2.8" height="226.4"/>
	<rect x="561.7" y="100.8" class="st7" width="2.8" height="226.4"/>
	<rect x="551.5" y="100.8" class="st7" width="2.8" height="226.4"/>
	<polygon class="st7" points="544,327.3 544,100.8 541.2,100.8 541.2,327.3 543.7,327.3 	"/>
	<rect x="531" y="100.8" class="st7" width="2.8" height="226.4"/>
	<rect x="520.7" y="100.8" class="st7" width="2.8" height="226.4"/>
	<path class="st5" d="M502.2,376.9l0-224.7c0-0.9-0.8-1.7-1.7-1.7h-83c-1,0-1.7,0.8-1.7,1.7v224.7H502.2z"/>
	<rect x="418.2" y="150.4" class="st7" width="3.7" height="225.5"/>
	<path class="st6" d="M550.6,376.9l0-224.7c0-0.9-0.8-1.7-1.7-1.7h-83c-1,0-1.7,0.8-1.7,1.7l0,224.7H550.6z"/>
	<rect x="520.7" y="150.5" class="st7" width="2.8" height="226.4"/>
	<rect x="510.5" y="150.5" class="st7" width="2.8" height="226.4"/>
	<rect x="500.2" y="150.5" class="st7" width="2.8" height="226.4"/>
	<rect x="490" y="150.5" class="st7" width="2.8" height="226.4"/>
	<rect x="479.8" y="150.5" class="st7" width="2.8" height="226.4"/>
	<rect x="469.5" y="150.5" class="st7" width="2.8" height="226.4"/>
	<rect x="459.3" y="150.5" class="st7" width="2.8" height="226.4"/>
	<rect x="449" y="150.5" class="st7" width="2.8" height="226.4"/>
	<polygon class="st7" points="441.6,376.9 441.6,150.5 438.8,150.5 438.8,376.9 441.2,376.9 	"/>
	<rect x="428.5" y="150.5" class="st7" width="2.8" height="226.4"/>
	<path class="st5" d="M664.8,376.9V179.4c0-0.8-0.6-1.4-1.4-1.4l-66.6,0c-0.8,0-1.4,0.6-1.4,1.4l0,197.5H664.8z"/>
	<rect x="595.4" y="185.3" class="st7" width="69.4" height="2.8"/>
	<rect x="595.4" y="195.6" class="st7" width="69.4" height="2.8"/>
	<rect x="595.4" y="205.8" class="st7" width="69.4" height="2.8"/>
	<rect x="595.4" y="216.1" class="st7" width="69.4" height="2.8"/>
	<rect x="595.4" y="226.3" class="st7" width="69.4" height="2.8"/>
	<rect x="595.4" y="236.6" class="st7" width="69.4" height="2.8"/>
	<rect x="595.4" y="246.8" class="st7" width="69.4" height="2.8"/>
	<rect x="595.4" y="257" class="st7" width="69.4" height="2.8"/>
	<rect x="595.4" y="267.3" class="st7" width="69.4" height="2.8"/>
	<rect x="595.4" y="277.5" class="st7" width="69.4" height="2.8"/>
	<rect x="595.4" y="287.8" class="st7" width="69.4" height="2.8"/>
	<rect x="595.4" y="298" class="st7" width="69.4" height="2.8"/>
	<rect x="595.4" y="308.3" class="st7" width="69.4" height="2.8"/>
	<rect x="595.4" y="318.5" class="st7" width="69.4" height="2.8"/>
	<rect x="595.4" y="328.7" class="st7" width="69.4" height="2.8"/>
	<rect x="595.4" y="339" class="st7" width="69.4" height="2.8"/>
	<rect x="595.4" y="349.2" class="st7" width="69.4" height="2.8"/>
	<rect x="595.4" y="349.2" class="st7" width="69.4" height="2.8"/>
	<rect x="595.4" y="359.5" class="st7" width="69.4" height="2.8"/>
	<rect x="595.4" y="369.7" class="st7" width="69.4" height="2.8"/>
	<path class="st6" d="M688.6,376.9V179.4c0-0.8-0.6-1.4-1.4-1.4h-66.6c-0.8,0-1.4,0.6-1.4,1.4v197.5H688.6z"/>
	<rect x="619.2" y="185.3" class="st7" width="69.4" height="2.8"/>
	<rect x="619.2" y="195.6" class="st7" width="69.4" height="2.8"/>
	<rect x="619.2" y="205.8" class="st7" width="69.4" height="2.8"/>
	<rect x="619.2" y="216.1" class="st7" width="69.4" height="2.8"/>
	<rect x="619.2" y="226.3" class="st7" width="69.4" height="2.8"/>
	<rect x="619.2" y="236.6" class="st7" width="69.4" height="2.8"/>
	<rect x="619.2" y="246.8" class="st7" width="69.4" height="2.8"/>
	<rect x="619.2" y="257" class="st7" width="69.4" height="2.8"/>
	<rect x="619.2" y="267.3" class="st7" width="69.4" height="2.8"/>
	<rect x="619.2" y="277.5" class="st7" width="69.4" height="2.8"/>
	<rect x="619.2" y="287.8" class="st7" width="69.4" height="2.8"/>
	<rect x="619.2" y="298" class="st7" width="69.4" height="2.8"/>
	<rect x="619.2" y="308.3" class="st7" width="69.4" height="2.8"/>
	<rect x="619.2" y="318.5" class="st7" width="69.4" height="2.8"/>
	<rect x="619.2" y="328.7" class="st7" width="69.4" height="2.8"/>
	<rect x="619.2" y="339" class="st7" width="69.4" height="2.8"/>
	<rect x="619.2" y="349.2" class="st7" width="69.4" height="2.8"/>
	<rect x="619.2" y="359.5" class="st7" width="69.4" height="2.8"/>
	<rect x="619.2" y="369.7" class="st7" width="69.4" height="2.8"/>
	<path class="st5" d="M575.2,376.9l0-255.6c0-0.8-0.6-1.4-1.4-1.4h-66.6c-0.8,0-1.4,0.6-1.4,1.4l0,255.6H575.2z"/>
	<g>
		<rect x="505.8" y="121.1" class="st7" width="69.4" height="2.8"/>
		<rect x="505.8" y="131.4" class="st7" width="69.4" height="2.8"/>
		<rect x="505.8" y="141.6" class="st7" width="69.4" height="2.8"/>
		<rect x="505.8" y="151.9" class="st7" width="69.4" height="2.8"/>
		<rect x="505.8" y="162.1" class="st7" width="69.4" height="2.8"/>
		<rect x="505.8" y="172.3" class="st7" width="69.4" height="2.8"/>
		<rect x="505.8" y="182.6" class="st7" width="69.4" height="2.8"/>
		<rect x="505.8" y="192.8" class="st7" width="69.4" height="2.8"/>
		<rect x="505.8" y="203.1" class="st7" width="69.4" height="2.8"/>
		<rect x="505.8" y="213.3" class="st7" width="69.4" height="2.8"/>
		<rect x="505.8" y="223.6" class="st7" width="69.4" height="2.8"/>
		<rect x="505.8" y="233.8" class="st7" width="69.4" height="2.8"/>
		<rect x="505.8" y="244" class="st7" width="69.4" height="2.8"/>
		<rect x="505.8" y="254.3" class="st7" width="69.4" height="2.8"/>
		<rect x="505.8" y="264.5" class="st7" width="69.4" height="2.8"/>
		<rect x="505.8" y="274.8" class="st7" width="69.4" height="2.8"/>
		<rect x="505.8" y="285" class="st7" width="69.4" height="2.8"/>
		<rect x="505.8" y="295.3" class="st7" width="69.4" height="2.8"/>
		<rect x="505.8" y="305.5" class="st7" width="69.4" height="2.8"/>
	</g>
	<path class="st6" d="M599,376.9l0-255.6c0-0.8-0.6-1.4-1.4-1.4H531c-0.8,0-1.4,0.6-1.4,1.4v255.6L599,376.9z"/>
	<rect x="529.7" y="121.1" class="st7" width="69.4" height="2.8"/>
	<rect x="529.7" y="131.4" class="st7" width="69.4" height="2.8"/>
	<rect x="529.7" y="141.6" class="st7" width="69.4" height="2.8"/>
	<rect x="529.7" y="151.9" class="st7" width="69.4" height="2.8"/>
	<rect x="529.7" y="162.1" class="st7" width="69.4" height="2.8"/>
	<rect x="529.7" y="172.3" class="st7" width="69.4" height="2.8"/>
	<rect x="529.7" y="182.6" class="st7" width="69.4" height="2.8"/>
	<rect x="529.7" y="192.8" class="st7" width="69.4" height="2.8"/>
	<rect x="529.7" y="203.1" class="st7" width="69.4" height="2.8"/>
	<rect x="529.7" y="213.3" class="st7" width="69.4" height="2.8"/>
	<rect x="529.7" y="223.6" class="st7" width="69.4" height="2.8"/>
	<rect x="529.7" y="233.8" class="st7" width="69.4" height="2.8"/>
	<rect x="529.7" y="244" class="st7" width="69.4" height="2.8"/>
	<rect x="529.7" y="254.3" class="st7" width="69.4" height="2.8"/>
	<rect x="529.7" y="264.5" class="st7" width="69.4" height="2.8"/>
	<rect x="529.7" y="274.8" class="st7" width="69.4" height="2.8"/>
	<rect x="529.7" y="285" class="st7" width="69.4" height="2.8"/>
	<rect x="529.7" y="295.3" class="st7" width="69.4" height="2.8"/>
	<rect x="529.7" y="305.5" class="st7" width="69.4" height="2.8"/>
	<path class="st5" d="M880.9,376.9V181.2c0-0.9-0.8-1.7-1.7-1.7l-83,0c-1,0-1.7,0.8-1.7,1.7l0,195.7H880.9z"/>
	<path class="st8" d="M929.3,376.9V181.2c0-0.9-0.8-1.7-1.7-1.7l-83,0c-1,0-1.7,0.8-1.7,1.7l0,195.7H929.3z"/>
	<path class="st6" d="M929.3,376.9V181.2c0-0.9-0.8-1.7-1.7-1.7l-83,0c-1,0-1.7,0.8-1.7,1.7l0,195.7H929.3z"/>
	<rect x="922.3" y="179.5" class="st7" width="2.8" height="197.4"/>
	<rect x="912.1" y="179.5" class="st7" width="2.8" height="197.4"/>
	<rect x="901.8" y="179.5" class="st7" width="2.8" height="197.4"/>
	<rect x="891.6" y="179.5" class="st7" width="2.8" height="197.4"/>
	<rect x="881.3" y="179.5" class="st7" width="2.8" height="197.4"/>
	<rect x="871.1" y="179.5" class="st7" width="2.8" height="197.4"/>
	<rect x="860.9" y="179.5" class="st7" width="2.8" height="197.4"/>
	<rect x="850.6" y="179.5" class="st7" width="2.8" height="197.4"/>
	<polygon class="st7" points="843.2,376.9 843.2,179.5 840.4,179.5 840.4,376.9 842.8,376.9 	"/>
	<rect x="830.1" y="179.5" class="st7" width="2.8" height="197.4"/>
	<rect x="819.9" y="179.5" class="st7" width="2.8" height="197.4"/>
	<path class="st5" d="M727.4,376.9l0-224.7c0-0.9-0.8-1.7-1.7-1.7h-83c-1,0-1.7,0.8-1.7,1.7l0,224.7H727.4z"/>
	<path class="st6" d="M775.8,376.9l0-224.7c0-0.9-0.8-1.7-1.7-1.7h-83c-1,0-1.7,0.8-1.7,1.7l0,224.7H775.8z"/>
	<rect x="745.9" y="150.5" class="st7" width="2.8" height="226.4"/>
	<rect x="735.6" y="150.5" class="st7" width="2.8" height="226.4"/>
	<rect x="725.4" y="150.5" class="st7" width="2.8" height="226.4"/>
	<rect x="715.2" y="150.5" class="st7" width="2.8" height="226.4"/>
	<rect x="704.9" y="150.5" class="st7" width="2.8" height="226.4"/>
	<rect x="694.7" y="150.5" class="st7" width="2.8" height="226.4"/>
	<rect x="684.4" y="150.5" class="st7" width="2.8" height="226.4"/>
	<rect x="674.2" y="150.5" class="st7" width="2.8" height="226.4"/>
	<polygon class="st7" points="666.7,376.9 666.7,150.5 663.9,150.5 663.9,376.9 666.4,376.9 	"/>
	<rect x="653.7" y="150.5" class="st7" width="2.8" height="226.4"/>
	<rect x="643.5" y="150.5" class="st7" width="2.8" height="226.4"/>
	<path class="st5" d="M800.6,376.9l0-279.8c0-0.8-0.6-1.4-1.4-1.4h-66.6c-0.8,0-1.4,0.6-1.4,1.4v279.8H800.6z"/>
	<rect x="731.2" y="103.1" class="st7" width="69.4" height="2.8"/>
	<rect x="731.2" y="113.3" class="st7" width="69.4" height="2.8"/>
	<rect x="731.2" y="123.6" class="st7" width="69.4" height="2.8"/>
	<rect x="731.2" y="133.8" class="st7" width="69.4" height="2.8"/>
	<rect x="731.2" y="144" class="st7" width="69.4" height="2.8"/>
	<rect x="731.2" y="154.3" class="st7" width="69.4" height="2.8"/>
	<rect x="731.2" y="164.5" class="st7" width="69.4" height="2.8"/>
	<rect x="731.2" y="174.8" class="st7" width="69.4" height="2.8"/>
	<rect x="731.2" y="185" class="st7" width="69.4" height="2.8"/>
	<rect x="731.2" y="195.3" class="st7" width="69.4" height="2.8"/>
	<rect x="731.2" y="205.5" class="st7" width="69.4" height="2.8"/>
	<rect x="731.2" y="215.7" class="st7" width="69.4" height="2.8"/>
	<rect x="731.2" y="226" class="st7" width="69.4" height="2.8"/>
	<rect x="731.2" y="236.2" class="st7" width="69.4" height="2.8"/>
	<rect x="731.2" y="246.5" class="st7" width="69.4" height="2.8"/>
	<rect x="731.2" y="256.7" class="st7" width="69.4" height="2.8"/>
	<rect x="731.2" y="267" class="st7" width="69.4" height="2.8"/>
	<rect x="731.2" y="267" class="st7" width="69.4" height="2.8"/>
	<rect x="731.2" y="277.2" class="st7" width="69.4" height="2.8"/>
	<rect x="731.2" y="287.4" class="st7" width="69.4" height="2.8"/>
	<rect x="731.2" y="297.7" class="st7" width="69.4" height="2.8"/>
	<rect x="731.2" y="307.9" class="st7" width="69.4" height="2.8"/>
	<rect x="731.2" y="318.2" class="st7" width="69.4" height="2.8"/>
	<rect x="731.2" y="328.4" class="st7" width="69.4" height="2.8"/>
	<rect x="731.2" y="338.7" class="st7" width="69.4" height="2.8"/>
	<rect x="731.2" y="348.9" class="st7" width="69.4" height="2.8"/>
	<rect x="731.2" y="359.1" class="st7" width="69.4" height="2.8"/>
	<path class="st6" d="M824.4,376.9l0-279.8c0-0.8-0.6-1.4-1.4-1.4h-66.6c-0.8,0-1.4,0.6-1.4,1.4l0,279.8H824.4z"/>
	<rect x="755" y="103.1" class="st7" width="69.4" height="2.8"/>
	<rect x="755" y="113.3" class="st7" width="69.4" height="2.8"/>
	<rect x="755" y="123.6" class="st7" width="69.4" height="2.8"/>
	<rect x="755" y="133.8" class="st7" width="69.4" height="2.8"/>
	<rect x="755" y="144" class="st7" width="69.4" height="2.8"/>
	<rect x="755" y="154.3" class="st7" width="69.4" height="2.8"/>
	<rect x="755" y="164.5" class="st7" width="69.4" height="2.8"/>
	<rect x="755" y="174.8" class="st7" width="69.4" height="2.8"/>
	<rect x="755" y="185" class="st7" width="69.4" height="2.8"/>
	<rect x="755" y="195.3" class="st7" width="69.4" height="2.8"/>
	<rect x="755" y="205.5" class="st7" width="69.4" height="2.8"/>
	<rect x="755" y="215.7" class="st7" width="69.4" height="2.8"/>
	<rect x="755" y="226" class="st7" width="69.4" height="2.8"/>
	<rect x="755" y="236.2" class="st7" width="69.4" height="2.8"/>
	<rect x="755" y="246.5" class="st7" width="69.4" height="2.8"/>
	<rect x="755" y="256.7" class="st7" width="69.4" height="2.8"/>
	<rect x="755" y="267" class="st7" width="69.4" height="2.8"/>
	<rect x="755" y="277.2" class="st7" width="69.4" height="2.8"/>
	<rect x="755" y="287.4" class="st7" width="69.4" height="2.8"/>
	<rect x="755" y="297.7" class="st7" width="69.4" height="2.8"/>
	<rect x="755" y="307.9" class="st7" width="69.4" height="2.8"/>
	<rect x="755" y="318.2" class="st7" width="69.4" height="2.8"/>
	<rect x="755" y="328.4" class="st7" width="69.4" height="2.8"/>
	<rect x="755" y="338.7" class="st7" width="69.4" height="2.8"/>
	<rect x="755" y="348.9" class="st7" width="69.4" height="2.8"/>
	<rect x="755" y="359.1" class="st7" width="69.4" height="2.8"/>
	<rect x="755" y="369.4" class="st7" width="69.4" height="2.8"/>
	<path class="st2" d="M604.9,315.5c0.1,0,0.2,0,0.4,0.1c-0.2-0.3-0.4-0.6-0.6-1c-0.1-0.1-0.1-0.2-0.2-0.3c0,0.1-0.1,0.3-0.1,0.4
		c0,0.1,0.1,0.1,0.1,0.2C604.6,315.1,604.7,315.3,604.9,315.5z"/>
	<path class="st2" d="M601.3,314.7c0,0.1,0,0.1,0,0.2c0.2,0,0.4,0.1,0.5,0.1C601.7,314.9,601.5,314.8,601.3,314.7z"/>
	<g>
		<linearGradient id="SVGID_1_" gradientUnits="userSpaceOnUse" x1="611.0825" y1="160.2166" x2="611.0825" y2="159.3147">
			<stop  offset="0" style="stop-color:#EC6D72"/>
			<stop  offset="1" style="stop-color:#EA9173"/>
		</linearGradient>
		<path class="st9" d="M611.1,160.2c0.6,0,0.6-0.9,0-0.9C610.5,159.3,610.5,160.2,611.1,160.2L611.1,160.2z"/>
	</g>
</g>
<path id="floor_1_" class="st6" d="M1035.2,375.2c-63.9-1.2-161.9-2-271.8-2c-192.5,0-347.6,0.8-347.6,3.7
	c0,2.9,155.1,6.9,347.6,6.9c109.9,0,207.9-0.8,271.8-2V375.2z"/>
<g id="cloud_1_">
	<path class="st10" d="M205.7,98.9c2.5,0,4.8,1.1,6.3,2.9c2.2-6,7.9-10.2,14.7-10.2c1.6,0,3.2,0.2,4.6,0.7c2.2-6.8,8.5-11.6,16-11.6
		c6.6,0,12.3,3.8,15,9.3c2.3-1.2,5-1.8,7.8-1.8c4.4,0,8.5,1.7,11.6,4.4c2.7-4.5,7.5-7.5,13.1-7.5c8.4,0,15.2,6.8,15.2,15.2
		c0,2.4-0.5,4.6-1.5,6.6h-21H281h-19.8h-8.6h-10.5h-9h-19.3H211h-13.6C197.6,102.4,201.2,98.9,205.7,98.9z"/>
	<g>
		<path class="st2" d="M197.4,106.8h0.8l1-4.8C198.2,103.3,197.5,105,197.4,106.8z"/>
		<path class="st2" d="M204.8,99c-0.5,0.1-1,0.2-1.5,0.3l-1.6,7.5h1.4L204.8,99z"/>
		<path class="st2" d="M209.5,99.9c-0.4-0.2-0.9-0.4-1.3-0.6l-1.6,7.5h1.4L209.5,99.9z"/>
		<path class="st2" d="M215,96.7c-0.8,0.9-1.5,1.8-2,2.8l-1.5,7.3h1.4L215,96.7z"/>
		<path class="st2" d="M220.8,92.7c-0.6,0.2-1.1,0.5-1.6,0.8l-2.8,13.4h1.4L220.8,92.7z"/>
		<path class="st2" d="M225.9,91.6c-0.5,0-1,0.1-1.5,0.1l-3.2,15.1h1.4L225.9,91.6z"/>
		<path class="st2" d="M230.7,92.1c-0.5-0.1-0.9-0.2-1.4-0.3l-3.2,15h1.4L230.7,92.1z"/>
		<path class="st2" d="M237.3,83.9c-0.6,0.5-1.2,1-1.8,1.5l-4.5,21.4h1.4L237.3,83.9z"/>
		<path class="st2" d="M242.8,81.3c-0.5,0.1-1,0.3-1.6,0.5l-5.3,25.1h1.4L242.8,81.3z"/>
		<path class="st2" d="M247.3,80.7c-0.3,0-0.6,0-0.9,0l-5.5,26.1h1.4h0.1l5.5-26.2C247.6,80.7,247.4,80.7,247.3,80.7z"/>
		<path class="st2" d="M252.5,81.5c-0.4-0.1-0.9-0.3-1.4-0.4l-5.4,25.7h1.4L252.5,81.5z"/>
		<path class="st2" d="M256.9,83.7c-0.4-0.3-0.8-0.6-1.3-0.8l-5.1,23.9h1.4L256.9,83.7z"/>
		<path class="st2" d="M261,87.7c-0.4-0.5-0.7-1-1.1-1.4l-4.3,20.5h1.4L261,87.7z"/>
		<path class="st2" d="M264.2,89.1l-3.7,17.7h0.9h0.6l3.8-18.2C265.2,88.8,264.7,88.9,264.2,89.1z"/>
		<path class="st2" d="M270.7,88.1c-0.2,0-0.4,0-0.6,0c-0.3,0-0.6,0-0.8,0l-4,18.7h1.4L270.7,88.1z"/>
		<path class="st2" d="M275.4,88.9c-0.4-0.1-0.9-0.3-1.4-0.4l-3.9,18.3h1.4L275.4,88.9z"/>
		<path class="st2" d="M279.9,91.1c-0.4-0.3-0.8-0.5-1.3-0.8l-3.5,16.6h1.4L279.9,91.1z"/>
		<path class="st2" d="M283.6,89.9l-3.6,16.9h1h0.4l3.9-18.6C284.7,88.8,284.1,89.3,283.6,89.9z"/>
		<path class="st2" d="M290.8,85.5c-0.5,0.1-1,0.3-1.6,0.5l-4.4,20.8h1.4L290.8,85.5z"/>
		<path class="st2" d="M295.8,85c-0.3,0-0.7,0-1.1,0c-0.1,0-0.3,0-0.4,0l-4.6,21.8h1.4L295.8,85z"/>
		<path class="st2" d="M300.5,86.1c-0.4-0.2-0.9-0.3-1.3-0.5l-4.5,21.2h1.4L300.5,86.1z"/>
		<path class="st2" d="M304.8,88.8c-0.4-0.3-0.8-0.7-1.2-1l-4,19h1.4L304.8,88.8z"/>
		<path class="st2" d="M308.6,93.9c-0.3-0.7-0.6-1.3-1-1.9l-3.1,14.8h1.4L308.6,93.9z"/>
	</g>
	<path class="st10" d="M716.3,57.2c1-7.8,7.7-13.9,15.8-13.9c1.1,0,2.2,0.1,3.3,0.3c1.4-12.6,12.1-22.3,25-22.3
		c13.2,0,24,10.1,25.1,23c1.2-0.2,2.4-0.4,3.7-0.4c4.3,0,8.2,1.4,11.4,3.8c3.2-5.6,9.2-9.5,16.1-9.5c10.2,0,18.5,8.3,18.5,18.5
		c0,0.2,0,0.3,0,0.5H716.3z"/>
	<g>
		<path class="st2" d="M719.9,57.2h1.3l2.4-11.5c-0.5,0.3-1,0.7-1.5,1.1L719.9,57.2z"/>
		<path class="st2" d="M728.5,43.8c-0.5,0.1-0.9,0.2-1.4,0.4l-2.8,13.1h1.3L728.5,43.8z"/>
		<path class="st2" d="M732.9,43.4c-0.3,0-0.6,0-0.8,0c-0.2,0-0.3,0-0.5,0l-2.9,13.9h1.3L732.9,43.4z"/>
		<path class="st2" d="M739.6,32.2c-0.8,1.1-1.5,2.3-2,3.5l-4.5,21.4h1.3L739.6,32.2z"/>
		<path class="st2" d="M745.3,26.4c-0.5,0.4-1.1,0.8-1.6,1.3l-6.2,29.6h1.3L745.3,26.4z"/>
		<path class="st2" d="M750.3,23.5c-0.5,0.2-1,0.4-1.4,0.7l-7,33.1h1.3L750.3,23.5z"/>
		<path class="st2" d="M755,21.9c-0.5,0.1-0.9,0.2-1.4,0.3l-7.4,35h1.3L755,21.9z"/>
		<path class="st2" d="M759.5,21.4c-0.4,0-0.9,0-1.3,0.1l-7.6,35.8h1.3L759.5,21.4z"/>
		<path class="st2" d="M763.8,21.6c-0.4-0.1-0.8-0.1-1.3-0.1L755,57.2h1.3L763.8,21.6z"/>
		<path class="st2" d="M768,22.5c-0.4-0.1-0.8-0.2-1.2-0.4l-7.4,35.1h1.3L768,22.5z"/>
		<path class="st2" d="M772,24.2c-0.4-0.2-0.8-0.4-1.2-0.6l-7.1,33.6h1.3L772,24.2z"/>
		<path class="st2" d="M775.9,26.7c-0.4-0.3-0.7-0.6-1.1-0.8l-6.6,31.4h1.3L775.9,26.7z"/>
		<path class="st2" d="M779.5,30.2c-0.3-0.4-0.7-0.8-1-1.2l-6,28.2h1.3L779.5,30.2z"/>
		<path class="st2" d="M782.8,35.2c-0.3-0.6-0.6-1.1-0.9-1.7l-5,23.8h1.3L782.8,35.2z"/>
		<path class="st2" d="M785.4,43.8c-0.1-1.1-0.3-2.3-0.6-3.3l-3.5,16.8h1.3L785.4,43.8z"/>
		<path class="st2" d="M789.7,44c-0.2,0-0.4,0-0.6,0c-0.2,0-0.4,0-0.7,0l-2.8,13.3h1.3L789.7,44z"/>
		<path class="st2" d="M794,44.6c-0.4-0.1-0.8-0.2-1.2-0.3L790,57.2h1.3L794,44.6z"/>
		<path class="st2" d="M798,46.2c-0.4-0.2-0.8-0.4-1.2-0.6l-2.5,11.6h1.3L798,46.2z"/>
		<path class="st2" d="M802.7,44.6c-0.7,0.8-1.3,1.6-1.8,2.4l-2.2,10.2h1.3L802.7,44.6z"/>
		<path class="st2" d="M808,40.4c-0.5,0.3-1,0.6-1.5,0.9l-3.4,15.9h1.3L808,40.4z"/>
		<path class="st2" d="M812.7,38.7c-0.5,0.1-0.9,0.2-1.4,0.3l-3.8,18.2h1.3L812.7,38.7z"/>
		<path class="st2" d="M817.2,38.3c-0.2,0-0.4,0-0.6,0c-0.2,0-0.5,0-0.7,0l-4,18.9h1.3L817.2,38.3z"/>
		<path class="st2" d="M821.4,38.9c-0.4-0.1-0.8-0.2-1.2-0.3l-3.9,18.6h1.3L821.4,38.9z"/>
		<path class="st2" d="M825.5,40.6c-0.4-0.2-0.8-0.4-1.2-0.6l-3.6,17.2h1.3L825.5,40.6z"/>
		<path class="st2" d="M829.3,43.3c-0.4-0.3-0.7-0.7-1.1-1L825,57.2h1.3L829.3,43.3z"/>
		<path class="st2" d="M832.7,47.8c-0.3-0.5-0.6-1-1-1.5l-2.3,11h1.3L832.7,47.8z"/>
		<path class="st2" d="M835.1,56.8c0-1.3-0.1-2.5-0.4-3.7l-0.9,4.2h1.3C835.1,57.1,835.1,56.9,835.1,56.8z"/>
	</g>
</g>
</svg>
