<?xml version="1.0" encoding="UTF-8"?><svg xmlns="http://www.w3.org/2000/svg" id="Text6410ba2c5b8ff" viewBox="0 0 62.38 47.65" aria-hidden="true" width="62px" height="47px"><defs><linearGradient class="cerosgradient" data-cerosgradient="true" id="CerosGradient_id8fedd9f03" gradientUnits="userSpaceOnUse" x1="50%" y1="100%" x2="50%" y2="0%"><stop offset="0%" stop-color="#d1d1d1"/><stop offset="100%" stop-color="#d1d1d1"/></linearGradient><linearGradient/><style>.cls-1-6410ba2c5b8ff{fill:#051c2c;}.cls-2-6410ba2c5b8ff{isolation:isolate;}</style></defs><g class="cls-2-6410ba2c5b8ff"><path class="cls-1-6410ba2c5b8ff" d="m4.83,11.4V2.83c-.5.49-1.61.68-2.52.68h-.5v-.88h.2c.91,0,1.51-.19,2.01-.49.6-.39.8-1.07.91-1.95h.91v11.21h-1.01Z"/></g><g class="cls-2-6410ba2c5b8ff"><path class="cls-1-6410ba2c5b8ff" d="m4.83,47.55v-8.58c-.5.49-1.61.68-2.52.68h-.5v-.88h.2c.91,0,1.51-.19,2.01-.49.6-.39.8-1.07.91-1.95h.91v11.21h-1.01Z"/></g><g class="cls-2-6410ba2c5b8ff"><path class="cls-1-6410ba2c5b8ff" d="m0,23.29c0-3.31,1.41-5.85,4.33-5.85s4.33,2.53,4.33,5.85c0,3.02-1.21,5.75-4.33,5.75-3.12.1-4.33-2.73-4.33-5.75Zm1.21,0c0,2.53.7,4.87,3.22,4.87s3.12-2.34,3.12-4.87c0-2.73-1.01-4.87-3.12-4.87-2.21,0-3.22,2.14-3.22,4.87Z"/></g><g class="cls-2-6410ba2c5b8ff"><path class="cls-1-6410ba2c5b8ff" d="m58.46,11.4V2.83c-.5.49-1.61.68-2.52.68h-.5v-.88h.3c.91,0,1.51-.19,2.01-.49.6-.39.8-1.07.91-1.95h.91v11.21h-1.11Z"/></g><g class="cls-2-6410ba2c5b8ff"><path class="cls-1-6410ba2c5b8ff" d="m58.46,47.55v-8.58c-.5.49-1.61.68-2.52.68h-.5v-.88h.3c.91,0,1.51-.19,2.01-.49.6-.39.8-1.07.91-1.95h.91v11.21h-1.11Z"/></g><g class="cls-2-6410ba2c5b8ff"><path class="cls-1-6410ba2c5b8ff" d="m53.73,23.29c0-3.31,1.41-5.85,4.33-5.85s4.33,2.53,4.33,5.85c0,3.02-1.21,5.75-4.33,5.75-3.22.1-4.33-2.73-4.33-5.75Zm1.11,0c0,2.53.7,4.87,3.22,4.87s3.12-2.34,3.12-4.87c0-2.73-1.01-4.87-3.12-4.87-2.11,0-3.22,2.14-3.22,4.87Z"/></g><g class="cls-2-6410ba2c5b8ff"><path class="cls-1-6410ba2c5b8ff" d="m13.38,5.85c0-3.31,1.41-5.85,4.33-5.85s4.33,2.53,4.33,5.85c0,3.02-1.21,5.75-4.33,5.75s-4.33-2.73-4.33-5.75Zm1.21,0c0,2.53.7,4.87,3.22,4.87s3.12-2.34,3.12-4.87c0-2.73-1.01-4.87-3.12-4.87-2.21-.1-3.22,2.14-3.22,4.87Z"/></g><g class="cls-2-6410ba2c5b8ff"><path class="cls-1-6410ba2c5b8ff" d="m13.38,41.9c0-3.31,1.41-5.85,4.33-5.85s4.33,2.53,4.33,5.85c0,3.02-1.21,5.75-4.33,5.75-3.12.1-4.33-2.73-4.33-5.75Zm1.21,0c0,2.53.7,4.87,3.22,4.87s3.12-2.34,3.12-4.87c0-2.73-1.01-4.87-3.12-4.87s-3.22,2.14-3.22,4.87Z"/></g><g class="cls-2-6410ba2c5b8ff"><path class="cls-1-6410ba2c5b8ff" d="m18.21,28.94v-8.58c-.5.49-1.61.68-2.52.68h-.5v-.88h.3c.91,0,1.51-.19,2.01-.49.6-.39.8-1.07.91-1.95h.91v11.21h-1.11Z"/></g><g class="cls-2-6410ba2c5b8ff"><path class="cls-1-6410ba2c5b8ff" d="m31.7,11.4V2.83c-.5.49-1.61.68-2.52.68h-.5v-.88h.3c.91,0,1.51-.19,2.01-.49.6-.39.8-1.07.91-1.95h.91v11.21h-1.11Z"/></g><g class="cls-2-6410ba2c5b8ff"><path class="cls-1-6410ba2c5b8ff" d="m31.7,47.55v-8.58c-.5.49-1.61.68-2.52.68h-.5v-.88h.3c.91,0,1.51-.19,2.01-.49.6-.39.8-1.07.91-1.95h.91v11.21h-1.11Z"/></g><g class="cls-2-6410ba2c5b8ff"><path class="cls-1-6410ba2c5b8ff" d="m26.87,23.29c0-3.31,1.41-5.85,4.33-5.85s4.33,2.53,4.33,5.85c0,3.02-1.21,5.75-4.33,5.75-3.22.1-4.33-2.73-4.33-5.75Zm1.11,0c0,2.53.7,4.87,3.22,4.87s3.12-2.34,3.12-4.87c0-2.73-1.01-4.87-3.12-4.87-2.11,0-3.22,2.14-3.22,4.87Z"/></g><g class="cls-2-6410ba2c5b8ff"><path class="cls-1-6410ba2c5b8ff" d="m40.25,5.85c0-3.31,1.41-5.85,4.33-5.85s4.33,2.53,4.33,5.85c0,3.02-1.21,5.75-4.33,5.75s-4.33-2.73-4.33-5.75Zm1.21,0c0,2.53.7,4.87,3.22,4.87s3.12-2.34,3.12-4.87c0-2.73-1.01-4.87-3.12-4.87s-3.22,2.14-3.22,4.87Z"/></g><g class="cls-2-6410ba2c5b8ff"><path class="cls-1-6410ba2c5b8ff" d="m40.25,41.9c0-3.31,1.41-5.85,4.33-5.85s4.33,2.53,4.33,5.85c0,3.02-1.21,5.75-4.33,5.75-3.12.1-4.33-2.73-4.33-5.75Zm1.21,0c0,2.53.7,4.87,3.22,4.87s3.12-2.34,3.12-4.87c0-2.73-1.01-4.87-3.12-4.87s-3.22,2.14-3.22,4.87Z"/></g><g class="cls-2-6410ba2c5b8ff"><path class="cls-1-6410ba2c5b8ff" d="m45.08,28.94v-8.58c-.5.49-1.61.68-2.52.68h-.5v-.88h.3c.91,0,1.51-.19,2.01-.49.6-.39.8-1.07.91-1.95h.91v11.21h-1.11Z"/></g></svg>