<!-- Generator: Adobe Illustrator 25.0.1, SVG Export Plug-In  -->
<svg version="1.1" xmlns="http://www.w3.org/2000/svg" xmlns:xlink="http://www.w3.org/1999/xlink" x="0px" y="0px" width="847.2px"
	 height="481.1px" viewBox="0 0 847.2 481.1" style="overflow:visible;enable-background:new 0 0 847.2 481.1;"
	 xml:space="preserve">
<style type="text/css">
	.st0{fill:#0476A8;}
	.st1{opacity:0.33;}
</style>
<defs>
</defs>
<g>
	<path class="st0" d="M574.6,382.9H705L770.1,270L705,157.2H574.6L509.5,270L574.6,382.9z M592.6,188.2H687l47.2,81.8L687,351.8
		h-94.4L545.4,270L592.6,188.2z"/>
	<path class="st0" d="M604.4,331.3h70.8l35.4-61.3l-35.4-61.3h-70.8L569,270L604.4,331.3z M614.1,225.6h51.3l25.7,44.4l-25.7,44.4
		h-51.3L588.5,270L614.1,225.6z"/>
	<path class="st0" d="M626.9,292.4h25.8l12.9-22.4l-12.9-22.4h-25.8L614,270L626.9,292.4z M630.4,253.8h18.7l9.4,16.2l-9.4,16.2
		h-18.7l-9.4-16.2L630.4,253.8z"/>
	<g>
		<path class="st0" d="M563.2,137.4h153.2L793,270l-76.6,132.6H563.2L486.6,270L563.2,137.4z M714,141.6H565.6L491.5,270l74.2,128.5
			H714L788.1,270L714,141.6z"/>
	</g>
	<g>
		<polygon class="st0" points="560.1,395 563,398 555.1,405.9 266.5,405.9 266.5,401.7 553.4,401.7 		"/>
	</g>
	<polygon class="st0" points="273.5,391.7 280.5,403.8 273.5,415.8 259.6,415.8 252.6,403.8 259.6,391.7 	"/>
	<polygon class="st0" points="372,345.2 379,357.3 372,369.4 358.1,369.4 351.1,357.3 358.1,345.2 	"/>
	<polygon class="st0" points="406.4,440.8 413.3,452.8 406.4,464.9 392.4,464.9 385.4,452.8 392.4,440.8 	"/>
	<polygon class="st0" points="406.4,440.8 413.3,452.8 406.4,464.9 392.4,464.9 385.4,452.8 392.4,440.8 	"/>
	<polygon class="st0" points="124,257.9 131,270 124,282.1 110,282.1 103.1,270 110,257.9 	"/>
	<polygon class="st0" points="254.2,200.5 261.1,212.6 254.2,224.6 240.2,224.6 233.2,212.6 240.2,200.5 	"/>
	<polygon class="st0" points="259.6,314.4 266.5,326.5 259.6,338.6 245.6,338.6 238.6,326.5 245.6,314.4 	"/>
	<polygon class="st0" points="178.7,105.5 185.7,117.6 178.7,129.7 164.8,129.7 157.8,117.6 164.8,105.5 	"/>
	<polygon class="st0" points="351.7,71.5 358.7,83.6 351.7,95.7 337.8,95.7 330.8,83.6 337.8,71.5 	"/>
	<g>
		<polygon class="st0" points="519.4,323.6 522.3,326.5 490.1,358.8 365,358.8 365,354.6 488.4,354.6 		"/>
	</g>
	<g>
		<rect x="117" y="267.9" class="st0" width="372" height="4.2"/>
	</g>
	<g>
		
			<rect x="452.2" y="347.7" transform="matrix(0.7071 -0.7071 0.7071 0.7071 -136.0309 432.6833)" class="st0" width="4.2" height="65.7"/>
	</g>
	<g>
		<polygon class="st0" points="509.1,402.3 512.1,405.2 462.4,454.9 399.4,454.9 399.4,450.7 460.6,450.7 		"/>
	</g>
	<g>
		<polygon class="st0" points="247.2,210.5 380.8,210.5 438.8,268.5 435.9,271.5 379,214.7 247.2,214.7 		"/>
	</g>
	<g>
		<polygon class="st0" points="171.8,115.5 415.9,115.5 416.5,116.1 519.2,218.8 516.3,221.8 414.2,119.7 171.8,119.7 		"/>
	</g>
	<g>
		
			<rect x="376" y="187.5" transform="matrix(0.707 -0.7072 0.7072 0.707 -10.5045 353.8631)" class="st0" width="91.8" height="4.2"/>
	</g>
	<g>
		<polygon class="st0" points="500.5,290.9 503.4,293.9 468.7,328.6 252.6,328.6 252.6,324.4 467,324.4 		"/>
	</g>
	<g>
		<polygon class="st0" points="342.3,81.5 481.5,81.5 555.7,155.7 552.7,158.6 479.8,85.7 342.3,85.7 		"/>
	</g>
	<g>
		<g class="st1">
			<polygon class="st0" points="643.2,472.8 645.6,476.9 643.2,481.1 638.4,481.1 636,476.9 638.4,472.8 			"/>
			<polygon class="st0" points="628.8,472.8 631.2,476.9 628.8,481.1 624.1,481.1 621.7,476.9 624.1,472.8 			"/>
			<polygon class="st0" points="614.5,472.8 616.9,476.9 614.5,481.1 609.7,481.1 607.3,476.9 609.7,472.8 			"/>
			<polygon class="st0" points="600.1,472.8 602.5,476.9 600.1,481.1 595.3,481.1 593,476.9 595.3,472.8 			"/>
			<polygon class="st0" points="585.8,472.8 588.1,476.9 585.8,481.1 581,481.1 578.6,476.9 581,472.8 			"/>
			<polygon class="st0" points="571.4,472.8 573.8,476.9 571.4,481.1 566.6,481.1 564.2,476.9 566.6,472.8 			"/>
			<polygon class="st0" points="557,472.8 559.4,476.9 557,481.1 552.2,481.1 549.9,476.9 552.2,472.8 			"/>
			<polygon class="st0" points="542.7,472.8 545,476.9 542.7,481.1 537.9,481.1 535.5,476.9 537.9,472.8 			"/>
			<polygon class="st0" points="528.3,472.8 530.7,476.9 528.3,481.1 523.5,481.1 521.1,476.9 523.5,472.8 			"/>
			<polygon class="st0" points="513.9,472.8 516.3,476.9 513.9,481.1 509.2,481.1 506.8,476.9 509.2,472.8 			"/>
			<polygon class="st0" points="499.6,472.8 502,476.9 499.6,481.1 494.8,481.1 492.4,476.9 494.8,472.8 			"/>
		</g>
		<g class="st1">
			<polygon class="st0" points="496,472.8 498.4,476.9 496,481.1 491.3,481.1 488.9,476.9 491.3,472.8 			"/>
			<polygon class="st0" points="481.7,472.8 484.1,476.9 481.7,481.1 476.9,481.1 474.5,476.9 476.9,472.8 			"/>
			<polygon class="st0" points="467.3,472.8 469.7,476.9 467.3,481.1 462.5,481.1 460.2,476.9 462.5,472.8 			"/>
			<polygon class="st0" points="453,472.8 455.3,476.9 453,481.1 448.2,481.1 445.8,476.9 448.2,472.8 			"/>
			<polygon class="st0" points="438.6,472.8 441,476.9 438.6,481.1 433.8,481.1 431.4,476.9 433.8,472.8 			"/>
			<polygon class="st0" points="424.2,472.8 426.6,476.9 424.2,481.1 419.5,481.1 417.1,476.9 419.5,472.8 			"/>
			<polygon class="st0" points="409.9,472.8 412.2,476.9 409.9,481.1 405.1,481.1 402.7,476.9 405.1,472.8 			"/>
			<polygon class="st0" points="395.5,472.8 397.9,476.9 395.5,481.1 390.7,481.1 388.3,476.9 390.7,472.8 			"/>
			<polygon class="st0" points="381.1,472.8 383.5,476.9 381.1,481.1 376.4,481.1 374,476.9 376.4,472.8 			"/>
			<polygon class="st0" points="366.8,472.8 369.2,476.9 366.8,481.1 362,481.1 359.6,476.9 362,472.8 			"/>
			<polygon class="st0" points="352.4,472.8 354.8,476.9 352.4,481.1 347.6,481.1 345.2,476.9 347.6,472.8 			"/>
		</g>
	</g>
	<g>
		<g class="st1">
			<polygon class="st0" points="643.2,50.3 645.6,54.4 643.2,58.5 638.4,58.5 636,54.4 638.4,50.3 			"/>
			<polygon class="st0" points="628.8,50.3 631.2,54.4 628.8,58.5 624.1,58.5 621.7,54.4 624.1,50.3 			"/>
			<polygon class="st0" points="614.5,50.3 616.9,54.4 614.5,58.5 609.7,58.5 607.3,54.4 609.7,50.3 			"/>
			<polygon class="st0" points="600.1,50.3 602.5,54.4 600.1,58.5 595.3,58.5 593,54.4 595.3,50.3 			"/>
			<polygon class="st0" points="585.8,50.3 588.1,54.4 585.8,58.5 581,58.5 578.6,54.4 581,50.3 			"/>
			<polygon class="st0" points="571.4,50.3 573.8,54.4 571.4,58.5 566.6,58.5 564.2,54.4 566.6,50.3 			"/>
			<polygon class="st0" points="557,50.3 559.4,54.4 557,58.5 552.2,58.5 549.9,54.4 552.2,50.3 			"/>
			<polygon class="st0" points="542.7,50.3 545,54.4 542.7,58.5 537.9,58.5 535.5,54.4 537.9,50.3 			"/>
			<polygon class="st0" points="528.3,50.3 530.7,54.4 528.3,58.5 523.5,58.5 521.1,54.4 523.5,50.3 			"/>
			<polygon class="st0" points="513.9,50.3 516.3,54.4 513.9,58.5 509.2,58.5 506.8,54.4 509.2,50.3 			"/>
			<polygon class="st0" points="499.6,50.3 502,54.4 499.6,58.5 494.8,58.5 492.4,54.4 494.8,50.3 			"/>
		</g>
		<g class="st1">
			<polygon class="st0" points="496,50.3 498.4,54.4 496,58.5 491.3,58.5 488.9,54.4 491.3,50.3 			"/>
			<polygon class="st0" points="481.7,50.3 484.1,54.4 481.7,58.5 476.9,58.5 474.5,54.4 476.9,50.3 			"/>
			<polygon class="st0" points="467.3,50.3 469.7,54.4 467.3,58.5 462.5,58.5 460.2,54.4 462.5,50.3 			"/>
			<polygon class="st0" points="453,50.3 455.3,54.4 453,58.5 448.2,58.5 445.8,54.4 448.2,50.3 			"/>
			<polygon class="st0" points="438.6,50.3 441,54.4 438.6,58.5 433.8,58.5 431.4,54.4 433.8,50.3 			"/>
			<polygon class="st0" points="424.2,50.3 426.6,54.4 424.2,58.5 419.5,58.5 417.1,54.4 419.5,50.3 			"/>
			<polygon class="st0" points="409.9,50.3 412.2,54.4 409.9,58.5 405.1,58.5 402.7,54.4 405.1,50.3 			"/>
			<polygon class="st0" points="395.5,50.3 397.9,54.4 395.5,58.5 390.7,58.5 388.3,54.4 390.7,50.3 			"/>
			<polygon class="st0" points="381.1,50.3 383.5,54.4 381.1,58.5 376.4,58.5 374,54.4 376.4,50.3 			"/>
			<polygon class="st0" points="366.8,50.3 369.2,54.4 366.8,58.5 362,58.5 359.6,54.4 362,50.3 			"/>
			<polygon class="st0" points="352.4,50.3 354.8,54.4 352.4,58.5 347.6,58.5 345.2,54.4 347.6,50.3 			"/>
		</g>
	</g>
	<g>
		<g class="st1">
			<polygon class="st0" points="769.5,0 771.9,4.1 769.5,8.3 764.7,8.3 762.3,4.1 764.7,0 			"/>
			<polygon class="st0" points="755.1,0 757.5,4.1 755.1,8.3 750.3,8.3 747.9,4.1 750.3,0 			"/>
			<polygon class="st0" points="740.7,0 743.1,4.1 740.7,8.3 736,8.3 733.6,4.1 736,0 			"/>
			<polygon class="st0" points="726.4,0 728.8,4.1 726.4,8.3 721.6,8.3 719.2,4.1 721.6,0 			"/>
			<polygon class="st0" points="712,0 714.4,4.1 712,8.3 707.2,8.3 704.8,4.1 707.2,0 			"/>
			<polygon class="st0" points="697.6,0 700,4.1 697.6,8.3 692.9,8.3 690.5,4.1 692.9,0 			"/>
			<polygon class="st0" points="683.3,0 685.7,4.1 683.3,8.3 678.5,8.3 676.1,4.1 678.5,0 			"/>
			<polygon class="st0" points="668.9,0 671.3,4.1 668.9,8.3 664.1,8.3 661.8,4.1 664.1,0 			"/>
			<polygon class="st0" points="654.6,0 656.9,4.1 654.6,8.3 649.8,8.3 647.4,4.1 649.8,0 			"/>
			<polygon class="st0" points="640.2,0 642.6,4.1 640.2,8.3 635.4,8.3 633,4.1 635.4,0 			"/>
			<polygon class="st0" points="625.8,0 628.2,4.1 625.8,8.3 621.1,8.3 618.7,4.1 621.1,0 			"/>
		</g>
		<g class="st1">
			<polygon class="st0" points="622.3,0 624.7,4.1 622.3,8.3 617.5,8.3 615.1,4.1 617.5,0 			"/>
			<polygon class="st0" points="607.9,0 610.3,4.1 607.9,8.3 603.2,8.3 600.8,4.1 603.2,0 			"/>
			<polygon class="st0" points="593.6,0 596,4.1 593.6,8.3 588.8,8.3 586.4,4.1 588.8,0 			"/>
			<polygon class="st0" points="579.2,0 581.6,4.1 579.2,8.3 574.4,8.3 572.1,4.1 574.4,0 			"/>
			<polygon class="st0" points="564.9,0 567.2,4.1 564.9,8.3 560.1,8.3 557.7,4.1 560.1,0 			"/>
			<polygon class="st0" points="550.5,0 552.9,4.1 550.5,8.3 545.7,8.3 543.3,4.1 545.7,0 			"/>
			<polygon class="st0" points="536.1,0 538.5,4.1 536.1,8.3 531.3,8.3 529,4.1 531.3,0 			"/>
			<polygon class="st0" points="521.8,0 524.1,4.1 521.8,8.3 517,8.3 514.6,4.1 517,0 			"/>
			<polygon class="st0" points="507.4,0 509.8,4.1 507.4,8.3 502.6,8.3 500.2,4.1 502.6,0 			"/>
			<polygon class="st0" points="493,0 495.4,4.1 493,8.3 488.3,8.3 485.9,4.1 488.3,0 			"/>
			<polygon class="st0" points="478.7,0 481.1,4.1 478.7,8.3 473.9,8.3 471.5,4.1 473.9,0 			"/>
		</g>
	</g>
	<g>
		<g class="st1">
			<polygon class="st0" points="506.5,288.3 508.9,292.4 506.5,296.5 501.7,296.5 499.3,292.4 501.7,288.3 			"/>
			<polygon class="st0" points="492.1,288.3 494.5,292.4 492.1,296.5 487.4,296.5 485,292.4 487.4,288.3 			"/>
			<polygon class="st0" points="477.8,288.3 480.2,292.4 477.8,296.5 473,296.5 470.6,292.4 473,288.3 			"/>
			<polygon class="st0" points="463.4,288.3 465.8,292.4 463.4,296.5 458.6,296.5 456.2,292.4 458.6,288.3 			"/>
			<polygon class="st0" points="449,288.3 451.4,292.4 449,296.5 444.3,296.5 441.9,292.4 444.3,288.3 			"/>
			<polygon class="st0" points="434.7,288.3 437.1,292.4 434.7,296.5 429.9,296.5 427.5,292.4 429.9,288.3 			"/>
			<polygon class="st0" points="420.3,288.3 422.7,292.4 420.3,296.5 415.5,296.5 413.2,292.4 415.5,288.3 			"/>
			<polygon class="st0" points="406,288.3 408.3,292.4 406,296.5 401.2,296.5 398.8,292.4 401.2,288.3 			"/>
			<polygon class="st0" points="391.6,288.3 394,292.4 391.6,296.5 386.8,296.5 384.4,292.4 386.8,288.3 			"/>
			<polygon class="st0" points="377.2,288.3 379.6,292.4 377.2,296.5 372.4,296.5 370.1,292.4 372.4,288.3 			"/>
			<polygon class="st0" points="362.9,288.3 365.2,292.4 362.9,296.5 358.1,296.5 355.7,292.4 358.1,288.3 			"/>
		</g>
		<g class="st1">
			<polygon class="st0" points="359.3,288.3 361.7,292.4 359.3,296.5 354.6,296.5 352.2,292.4 354.6,288.3 			"/>
			<polygon class="st0" points="345,288.3 347.4,292.4 345,296.5 340.2,296.5 337.8,292.4 340.2,288.3 			"/>
			<polygon class="st0" points="330.6,288.3 333,292.4 330.6,296.5 325.8,296.5 323.4,292.4 325.8,288.3 			"/>
			<polygon class="st0" points="316.2,288.3 318.6,292.4 316.2,296.5 311.5,296.5 309.1,292.4 311.5,288.3 			"/>
			<polygon class="st0" points="301.9,288.3 304.3,292.4 301.9,296.5 297.1,296.5 294.7,292.4 297.1,288.3 			"/>
			<polygon class="st0" points="287.5,288.3 289.9,292.4 287.5,296.5 282.7,296.5 280.4,292.4 282.7,288.3 			"/>
			<polygon class="st0" points="273.2,288.3 275.5,292.4 273.2,296.5 268.4,296.5 266,292.4 268.4,288.3 			"/>
			<polygon class="st0" points="258.8,288.3 261.2,292.4 258.8,296.5 254,296.5 251.6,292.4 254,288.3 			"/>
			<polygon class="st0" points="244.4,288.3 246.8,292.4 244.4,296.5 239.7,296.5 237.3,292.4 239.7,288.3 			"/>
			<polygon class="st0" points="230.1,288.3 232.4,292.4 230.1,296.5 225.3,296.5 222.9,292.4 225.3,288.3 			"/>
			<polygon class="st0" points="215.7,288.3 218.1,292.4 215.7,296.5 210.9,296.5 208.5,292.4 210.9,288.3 			"/>
		</g>
	</g>
	<g>
		<g class="st1">
			<polygon class="st0" points="844.8,411.7 847.2,415.8 844.8,420 840,420 837.6,415.8 840,411.7 			"/>
			<polygon class="st0" points="830.4,411.7 832.8,415.8 830.4,420 825.7,420 823.3,415.8 825.7,411.7 			"/>
			<polygon class="st0" points="816.1,411.7 818.5,415.8 816.1,420 811.3,420 808.9,415.8 811.3,411.7 			"/>
			<polygon class="st0" points="801.7,411.7 804.1,415.8 801.7,420 796.9,420 794.6,415.8 796.9,411.7 			"/>
			<polygon class="st0" points="787.4,411.7 789.7,415.8 787.4,420 782.6,420 780.2,415.8 782.6,411.7 			"/>
			<polygon class="st0" points="773,411.7 775.4,415.8 773,420 768.2,420 765.8,415.8 768.2,411.7 			"/>
			<polygon class="st0" points="758.6,411.7 761,415.8 758.6,420 753.8,420 751.5,415.8 753.8,411.7 			"/>
			<polygon class="st0" points="744.3,411.7 746.6,415.8 744.3,420 739.5,420 737.1,415.8 739.5,411.7 			"/>
			<polygon class="st0" points="729.9,411.7 732.3,415.8 729.9,420 725.1,420 722.7,415.8 725.1,411.7 			"/>
			<polygon class="st0" points="715.5,411.7 717.9,415.8 715.5,420 710.8,420 708.4,415.8 710.8,411.7 			"/>
			<polygon class="st0" points="701.2,411.7 703.6,415.8 701.2,420 696.4,420 694,415.8 696.4,411.7 			"/>
		</g>
		<g class="st1">
			<polygon class="st0" points="697.6,411.7 700,415.8 697.6,420 692.9,420 690.5,415.8 692.9,411.7 			"/>
			<polygon class="st0" points="683.3,411.7 685.7,415.8 683.3,420 678.5,420 676.1,415.8 678.5,411.7 			"/>
			<polygon class="st0" points="668.9,411.7 671.3,415.8 668.9,420 664.1,420 661.8,415.8 664.1,411.7 			"/>
			<polygon class="st0" points="654.6,411.7 656.9,415.8 654.6,420 649.8,420 647.4,415.8 649.8,411.7 			"/>
			<polygon class="st0" points="640.2,411.7 642.6,415.8 640.2,420 635.4,420 633,415.8 635.4,411.7 			"/>
			<polygon class="st0" points="625.8,411.7 628.2,415.8 625.8,420 621.1,420 618.7,415.8 621.1,411.7 			"/>
			<polygon class="st0" points="611.5,411.7 613.9,415.8 611.5,420 606.7,420 604.3,415.8 606.7,411.7 			"/>
			<polygon class="st0" points="597.1,411.7 599.5,415.8 597.1,420 592.3,420 589.9,415.8 592.3,411.7 			"/>
			<polygon class="st0" points="582.7,411.7 585.1,415.8 582.7,420 578,420 575.6,415.8 578,411.7 			"/>
			<polygon class="st0" points="568.4,411.7 570.8,415.8 568.4,420 563.6,420 561.2,415.8 563.6,411.7 			"/>
			<polygon class="st0" points="554,411.7 556.4,415.8 554,420 549.2,420 546.8,415.8 549.2,411.7 			"/>
		</g>
	</g>
	<g>
		<g class="st1">
			<polygon class="st0" points="512.2,22.1 514.6,26.2 512.2,30.4 507.4,30.4 505,26.2 507.4,22.1 			"/>
			<polygon class="st0" points="497.8,22.1 500.2,26.2 497.8,30.4 493,30.4 490.6,26.2 493,22.1 			"/>
			<polygon class="st0" points="483.4,22.1 485.8,26.2 483.4,30.4 478.7,30.4 476.3,26.2 478.7,22.1 			"/>
			<polygon class="st0" points="469.1,22.1 471.5,26.2 469.1,30.4 464.3,30.4 461.9,26.2 464.3,22.1 			"/>
			<polygon class="st0" points="454.7,22.1 457.1,26.2 454.7,30.4 449.9,30.4 447.6,26.2 449.9,22.1 			"/>
			<polygon class="st0" points="440.3,22.1 442.7,26.2 440.3,30.4 435.6,30.4 433.2,26.2 435.6,22.1 			"/>
			<polygon class="st0" points="426,22.1 428.4,26.2 426,30.4 421.2,30.4 418.8,26.2 421.2,22.1 			"/>
			<polygon class="st0" points="411.6,22.1 414,26.2 411.6,30.4 406.8,30.4 404.5,26.2 406.8,22.1 			"/>
			<polygon class="st0" points="397.3,22.1 399.6,26.2 397.3,30.4 392.5,30.4 390.1,26.2 392.5,22.1 			"/>
			<polygon class="st0" points="382.9,22.1 385.3,26.2 382.9,30.4 378.1,30.4 375.7,26.2 378.1,22.1 			"/>
			<polygon class="st0" points="368.5,22.1 370.9,26.2 368.5,30.4 363.8,30.4 361.4,26.2 363.8,22.1 			"/>
		</g>
		<g class="st1">
			<polygon class="st0" points="365,22.1 367.4,26.2 365,30.4 360.2,30.4 357.8,26.2 360.2,22.1 			"/>
			<polygon class="st0" points="350.6,22.1 353,26.2 350.6,30.4 345.9,30.4 343.5,26.2 345.9,22.1 			"/>
			<polygon class="st0" points="336.3,22.1 338.7,26.2 336.3,30.4 331.5,30.4 329.1,26.2 331.5,22.1 			"/>
			<polygon class="st0" points="321.9,22.1 324.3,26.2 321.9,30.4 317.1,30.4 314.8,26.2 317.1,22.1 			"/>
			<polygon class="st0" points="307.6,22.1 309.9,26.2 307.6,30.4 302.8,30.4 300.4,26.2 302.8,22.1 			"/>
			<polygon class="st0" points="293.2,22.1 295.6,26.2 293.2,30.4 288.4,30.4 286,26.2 288.4,22.1 			"/>
			<polygon class="st0" points="278.8,22.1 281.2,26.2 278.8,30.4 274,30.4 271.7,26.2 274,22.1 			"/>
			<polygon class="st0" points="264.5,22.1 266.8,26.2 264.5,30.4 259.7,30.4 257.3,26.2 259.7,22.1 			"/>
			<polygon class="st0" points="250.1,22.1 252.5,26.2 250.1,30.4 245.3,30.4 242.9,26.2 245.3,22.1 			"/>
			<polygon class="st0" points="235.7,22.1 238.1,26.2 235.7,30.4 231,30.4 228.6,26.2 231,22.1 			"/>
			<polygon class="st0" points="221.4,22.1 223.8,26.2 221.4,30.4 216.6,30.4 214.2,26.2 216.6,22.1 			"/>
		</g>
	</g>
	<g>
		<g class="st1">
			<polygon class="st0" points="429,153 431.4,157.2 429,161.3 424.2,161.3 421.8,157.2 424.2,153 			"/>
			<polygon class="st0" points="414.6,153 417,157.2 414.6,161.3 409.9,161.3 407.5,157.2 409.9,153 			"/>
			<polygon class="st0" points="400.3,153 402.7,157.2 400.3,161.3 395.5,161.3 393.1,157.2 395.5,153 			"/>
			<polygon class="st0" points="385.9,153 388.3,157.2 385.9,161.3 381.1,161.3 378.7,157.2 381.1,153 			"/>
			<polygon class="st0" points="371.5,153 373.9,157.2 371.5,161.3 366.8,161.3 364.4,157.2 366.8,153 			"/>
			<polygon class="st0" points="357.2,153 359.6,157.2 357.2,161.3 352.4,161.3 350,157.2 352.4,153 			"/>
			<polygon class="st0" points="342.8,153 345.2,157.2 342.8,161.3 338,161.3 335.7,157.2 338,153 			"/>
			<polygon class="st0" points="328.5,153 330.8,157.2 328.5,161.3 323.7,161.3 321.3,157.2 323.7,153 			"/>
			<polygon class="st0" points="314.1,153 316.5,157.2 314.1,161.3 309.3,161.3 306.9,157.2 309.3,153 			"/>
			<polygon class="st0" points="299.7,153 302.1,157.2 299.7,161.3 294.9,161.3 292.6,157.2 294.9,153 			"/>
			<polygon class="st0" points="285.4,153 287.7,157.2 285.4,161.3 280.6,161.3 278.2,157.2 280.6,153 			"/>
		</g>
		<g class="st1">
			<polygon class="st0" points="281.8,153 284.2,157.2 281.8,161.3 277.1,161.3 274.7,157.2 277.1,153 			"/>
			<polygon class="st0" points="267.5,153 269.9,157.2 267.5,161.3 262.7,161.3 260.3,157.2 262.7,153 			"/>
			<polygon class="st0" points="253.1,153 255.5,157.2 253.1,161.3 248.3,161.3 245.9,157.2 248.3,153 			"/>
			<polygon class="st0" points="238.7,153 241.1,157.2 238.7,161.3 234,161.3 231.6,157.2 234,153 			"/>
			<polygon class="st0" points="224.4,153 226.8,157.2 224.4,161.3 219.6,161.3 217.2,157.2 219.6,153 			"/>
			<polygon class="st0" points="210,153 212.4,157.2 210,161.3 205.2,161.3 202.9,157.2 205.2,153 			"/>
			<polygon class="st0" points="195.7,153 198,157.2 195.7,161.3 190.9,161.3 188.5,157.2 190.9,153 			"/>
			<polygon class="st0" points="181.3,153 183.7,157.2 181.3,161.3 176.5,161.3 174.1,157.2 176.5,153 			"/>
			<polygon class="st0" points="166.9,153 169.3,157.2 166.9,161.3 162.2,161.3 159.8,157.2 162.2,153 			"/>
			<polygon class="st0" points="152.6,153 155,157.2 152.6,161.3 147.8,161.3 145.4,157.2 147.8,153 			"/>
			<polygon class="st0" points="138.2,153 140.6,157.2 138.2,161.3 133.4,161.3 131,157.2 133.4,153 			"/>
		</g>
	</g>
	<g>
		<g class="st1">
			<polygon class="st0" points="298,365.3 300.4,369.4 298,373.5 293.2,373.5 290.8,369.4 293.2,365.3 			"/>
			<polygon class="st0" points="283.6,365.3 286,369.4 283.6,373.5 278.8,373.5 276.4,369.4 278.8,365.3 			"/>
			<polygon class="st0" points="269.2,365.3 271.6,369.4 269.2,373.5 264.5,373.5 262.1,369.4 264.5,365.3 			"/>
			<polygon class="st0" points="254.9,365.3 257.3,369.4 254.9,373.5 250.1,373.5 247.7,369.4 250.1,365.3 			"/>
			<polygon class="st0" points="240.5,365.3 242.9,369.4 240.5,373.5 235.7,373.5 233.3,369.4 235.7,365.3 			"/>
			<polygon class="st0" points="226.1,365.3 228.5,369.4 226.1,373.5 221.4,373.5 219,369.4 221.4,365.3 			"/>
			<polygon class="st0" points="211.8,365.3 214.2,369.4 211.8,373.5 207,373.5 204.6,369.4 207,365.3 			"/>
			<polygon class="st0" points="197.4,365.3 199.8,369.4 197.4,373.5 192.6,373.5 190.3,369.4 192.6,365.3 			"/>
			<polygon class="st0" points="183.1,365.3 185.4,369.4 183.1,373.5 178.3,373.5 175.9,369.4 178.3,365.3 			"/>
			<polygon class="st0" points="168.7,365.3 171.1,369.4 168.7,373.5 163.9,373.5 161.5,369.4 163.9,365.3 			"/>
			<polygon class="st0" points="154.3,365.3 156.7,369.4 154.3,373.5 149.5,373.5 147.2,369.4 149.5,365.3 			"/>
		</g>
		<g class="st1">
			<polygon class="st0" points="150.8,365.3 153.2,369.4 150.8,373.5 146,373.5 143.6,369.4 146,365.3 			"/>
			<polygon class="st0" points="136.4,365.3 138.8,369.4 136.4,373.5 131.7,373.5 129.3,369.4 131.7,365.3 			"/>
			<polygon class="st0" points="122.1,365.3 124.5,369.4 122.1,373.5 117.3,373.5 114.9,369.4 117.3,365.3 			"/>
			<polygon class="st0" points="107.7,365.3 110.1,369.4 107.7,373.5 102.9,373.5 100.5,369.4 102.9,365.3 			"/>
			<polygon class="st0" points="93.3,365.3 95.7,369.4 93.3,373.5 88.6,373.5 86.2,369.4 88.6,365.3 			"/>
			<polygon class="st0" points="79,365.3 81.4,369.4 79,373.5 74.2,373.5 71.8,369.4 74.2,365.3 			"/>
			<polygon class="st0" points="64.6,365.3 67,369.4 64.6,373.5 59.8,373.5 57.5,369.4 59.8,365.3 			"/>
			<polygon class="st0" points="50.3,365.3 52.6,369.4 50.3,373.5 45.5,373.5 43.1,369.4 45.5,365.3 			"/>
			<polygon class="st0" points="35.9,365.3 38.3,369.4 35.9,373.5 31.1,373.5 28.7,369.4 31.1,365.3 			"/>
			<polygon class="st0" points="21.5,365.3 23.9,369.4 21.5,373.5 16.8,373.5 14.4,369.4 16.8,365.3 			"/>
			<polygon class="st0" points="7.2,365.3 9.6,369.4 7.2,373.5 2.4,373.5 0,369.4 2.4,365.3 			"/>
		</g>
	</g>
	<polygon class="st0" points="406.4,440.8 413.3,452.8 406.4,464.9 392.4,464.9 385.4,452.8 392.4,440.8 	"/>
	<polygon class="st0" points="406.4,440.8 413.3,452.8 406.4,464.9 392.4,464.9 385.4,452.8 392.4,440.8 	"/>
	<polygon class="st0" points="406.4,440.8 413.3,452.8 406.4,464.9 392.4,464.9 385.4,452.8 392.4,440.8 	"/>
	<g>
		<polygon class="st0" points="407.6,269.1 409.2,270.9 369,305.4 204.6,305.4 204.6,303 368.1,303 		"/>
	</g>
	<g>
		<polygon class="st0" points="391.8,403.1 393.5,404.8 341,457.2 250.2,457.2 250.2,454.8 340.1,454.8 		"/>
	</g>
	<g>
		<polygon class="st0" points="159.2,383.8 319.9,383.8 339,402.9 337.3,404.6 318.9,386.2 159.2,386.2 		"/>
	</g>
	<g>
		<polygon class="st0" points="342.1,212.8 343.8,214.5 312,246.2 149,246.2 149,243.8 311,243.8 		"/>
	</g>
	<g>
		<polygon class="st0" points="149,178.6 340.1,178.6 372.5,211 370.8,212.7 339.2,181 149,181 		"/>
	</g>
</g>
</svg>
