<svg xmlns="http://www.w3.org/2000/svg" xmlns:xlink="http://www.w3.org/1999/xlink" version="1.1" x="0px" y="0px" viewBox="0 0 100 100" enable-background="new 0 0 100 100" xml:space="preserve" width="100px" height="100px"><g><path d="M50,16.7c-18.4,0-33.3,14.9-33.3,33.3c0,5.5,1.3,10.7,3.7,15.3l-3.7,18.1l18-3.7c4.6,2.4,9.8,3.7,15.3,3.7   c18.4,0,33.3-14.9,33.3-33.3C83.3,31.5,68.4,16.7,50,16.7z M50,81.2c-5,0-9.8-1.2-14.2-3.5l-0.7-0.4l-0.7,0.1l-14.8,3l3-14.7   l0.1-0.7l-0.4-0.7C20,59.8,18.8,55,18.8,50c0-17.2,13.9-31.1,31.1-31.1C67.1,18.8,81,32.8,81,50C81.1,67.2,67.2,81.2,50,81.2z"/><path d="M50.7,57.5h-1.5c-0.4,0-0.6,0.3-0.6,0.6v1.5c0,0.4,0.3,0.6,0.6,0.6h1.5c0.4,0,0.6-0.3,0.6-0.6v-1.5   C51.4,57.8,51.1,57.5,50.7,57.5z"/><path d="M54.7,41.3c-1.2-1.1-2.8-1.6-4.7-1.6c-1.9,0-3.4,0.5-4.5,1.5c-1,0.9-1.6,2.1-1.9,3.7c0,0.2,0,0.4,0.1,0.5s0.3,0.2,0.4,0.3   l1.3,0.2c0.3,0,0.6-0.2,0.7-0.5c0.2-1.1,0.7-2,1.3-2.5c0.7-0.7,1.6-1,2.7-1c1.1,0,2,0.4,2.8,1.1c0.8,0.7,1.1,1.6,1.1,2.6   c0,0.5-0.1,1-0.4,1.5c-0.3,0.5-0.8,1.1-1.7,1.8c-0.9,0.8-1.5,1.3-1.8,1.7c-0.4,0.5-0.8,1.1-1,1.6c-0.3,0.7-0.4,1.6-0.4,2.7   c0,0.4,0.3,0.6,0.6,0.6h1.1c0.3,0,0.6-0.3,0.6-0.6c0-0.7,0.1-1.2,0.2-1.5c0.1-0.4,0.3-0.8,0.6-1.2c0.2-0.3,0.8-0.9,1.6-1.6   c1.2-1.1,2-2,2.4-2.7c0.4-0.7,0.6-1.6,0.6-2.5C56.5,43.7,55.9,42.4,54.7,41.3z"/></g></svg>