<!-- Generator: Adobe Illustrator 25.2.1, SVG Export Plug-In  -->
<svg version="1.1" xmlns="http://www.w3.org/2000/svg" xmlns:xlink="http://www.w3.org/1999/xlink" x="0px" y="0px" width="988px"
	 height="482.3px" viewBox="0 0 988 482.3" style="overflow:visible;enable-background:new 0 0 988 482.3;" xml:space="preserve">
<style type="text/css">
	.st0{fill:#FFFFFF;}
	.st1{fill:#2E54F5;}
	.st2{fill:#E6E6E6;}
	.st3{fill:none;stroke:#D0D0D0;stroke-miterlimit:10;}
</style>
<defs>
</defs>
<path class="st0" d="M0,242.7v204.7c0,19.3,15.7,35,35,35h227.6V242.7H0z"/>
<path class="st1" d="M30,243H0v204.7c0,17.6,13.1,32.2,30,34.6V243z"/>
<path class="st2" d="M262.6,241.7V0H35C15.7,0,0,15.7,0,35v206.7H262.6z"/>
<line class="st3" x1="0" y1="242.2" x2="262.5" y2="242.2"/>
<path class="st0" d="M952.5,0H251.2v482.3h701.3c19.6,0,35.6-15.7,35.6-35V35C988,15.7,972.1,0,952.5,0z"/>
</svg>
