<?xml version="1.0" encoding="UTF-8"?><svg xmlns="http://www.w3.org/2000/svg" id="Text6410b8f55b8c2" viewBox="0 0 63 63" aria-hidden="true" width="63px" height="63px"><defs><linearGradient class="cerosgradient" data-cerosgradient="true" id="CerosGradient_id317ffeb4c" gradientUnits="userSpaceOnUse" x1="50%" y1="100%" x2="50%" y2="0%"><stop offset="0%" stop-color="#d1d1d1"/><stop offset="100%" stop-color="#d1d1d1"/></linearGradient><linearGradient/><style>.cls-1-6410b8f55b8c2{stroke-dasharray:0 0 3.14 3.14;}.cls-1-6410b8f55b8c2,.cls-2-6410b8f55b8c2,.cls-3-6410b8f55b8c2{fill:none;stroke:#051c2c;stroke-miterlimit:10;}.cls-2-6410b8f55b8c2{stroke-dasharray:0 0 4 4;}</style></defs><circle class="cls-3-6410b8f55b8c2" cx="31.5" cy="31.5" r="31"/><polyline class="cls-3-6410b8f55b8c2" points="31.5 .5 31.5 31.5 62.5 31.5"/><line class="cls-3-6410b8f55b8c2" x1="31.5" y1="31.5" x2="10.8" y2="54.5"/><circle class="cls-3-6410b8f55b8c2" cx="39.5" cy="23.1" r="1.8"/><circle class="cls-3-6410b8f55b8c2" cx="38.8" cy="10.2" r="1.7"/><circle class="cls-3-6410b8f55b8c2" cx="47.1" cy="15.2" r="1.7"/><circle class="cls-3-6410b8f55b8c2" cx="52.2" cy="23.2" r="1.8"/><path class="cls-3-6410b8f55b8c2" d="m43.4,36.4c-.3.6-.6,1.2-.9,1.8"/><path class="cls-1-6410b8f55b8c2" d="m40.6,40.6c-2.3,2.3-5.5,3.7-9.1,3.7h-.9"/><path class="cls-3-6410b8f55b8c2" d="m29,44.2c-.7-.1-1.3-.3-1.9-.5"/><path class="cls-3-6410b8f55b8c2" d="m53.2,37.2c-.2.6-.4,1.3-.6,1.9"/><path class="cls-2-6410b8f55b8c2" d="m50.9,42.8c-3.9,6.6-11,11-19.4,11-2.3,0-4.6-.4-6.7-1"/><path class="cls-3-6410b8f55b8c2" d="m23,52.2c-.6-.3-1.2-.5-1.8-.8"/></svg>