<svg xmlns="http://www.w3.org/2000/svg" data-name="Layer 1" viewBox="0 0 64 64" x="0px" y="0px" width="64px" height="64px"><title>hurricane-storm-tornado-cyclone-whirlwind</title><path d="M32,42A10,10,0,1,0,22,32,10,10,0,0,0,32,42Zm0-18a8,8,0,1,1-8,8A8,8,0,0,1,32,24Z"/><path d="M32,11a20.84,20.84,0,0,0-12,3.8C26,8.23,35.44,4,46,4V2C26.7,2,11,15.46,11,32h0a20.84,20.84,0,0,0,3.8,12C8.23,38,4,28.56,4,18H2C2,37.3,15.46,53,32,53h0a20.84,20.84,0,0,0,12-3.8C38,55.77,28.56,60,18,60v2c19.3,0,35-13.46,35-30h0a20.84,20.84,0,0,0-3.8-12C55.77,26,60,35.44,60,46h2C62,26.7,48.54,11,32,11ZM51,32a19,19,0,0,1-38,0h0a19,19,0,0,1,38,0Z"/></svg>