<?xml version="1.0" encoding="UTF-8"?>
<svg width="376px" height="376px" viewBox="0 0 376 376" version="1.1" xmlns="http://www.w3.org/2000/svg" xmlns:xlink="http://www.w3.org/1999/xlink">
    <!-- Generator: Sketch 52.6 (67491) - http://www.bohemiancoding.com/sketch -->
    <title>windmil-blue</title>
    <desc>Created with Sketch.</desc>
    <g id="windmil-blue" stroke="none" stroke-width="1" fill="none" fill-rule="evenodd">
        <g id="Group-11" fill="#C1EDFF">
            <path d="M188,182 C191.3132,182 194,184.6868 194,188 C194,191.3132 191.3132,194 188,194 C184.6868,194 182,191.3132 182,188 C182,184.6868 184.6868,182 188,182 M343.328866,277.526085 L201.178748,195.58169 C202.50749,193.288163 203.281187,190.632374 203.281187,187.790657 C203.281187,184.742617 202.392156,181.909296 200.8784,179.506611 L200.8784,175.795224 C209.186038,167.500383 213.038908,155.750857 211.252435,144.157272 L190.290516,8.11947538 C190.041828,6.50848885 187.663068,6.68961987 187.663068,8.3197991 L187.663068,172.196595 C181.670515,172.196595 176.473286,175.56971 173.854247,180.515427 L170.651331,182.361524 C159.302965,179.32548 147.185707,181.868512 138.022677,189.210916 L30.5087429,275.353712 C29.2364669,276.374524 30.5832294,278.340575 31.9972699,277.526085 L174.147387,195.58169 C176.848121,200.241915 181.883162,203.384718 187.663068,203.384718 C187.855291,203.384718 188.042708,203.363127 188.23373,203.355929 L191.459472,205.215221 C194.5002,216.546106 202.765789,225.752601 213.715293,230.004981 L342.188743,279.898782 C343.710909,280.488957 344.742906,278.340575 343.328866,277.526085" id="Fill-1-Copy-6"></path>
        </g>
    </g>
</svg>