<svg xmlns="http://www.w3.org/2000/svg" xmlns:xlink="http://www.w3.org/1999/xlink" version="1.1" x="0px" y="0px" viewBox="0 0 100 100" style="enable-background:new 0 0 100 100;" xml:space="preserve" width="100px" height="100px"><path d="M22.5,52.5C32.1,52.5,40,44.6,40,35s-7.9-17.5-17.5-17.5S5,25.4,5,35S12.9,52.5,22.5,52.5z M22.5,22.5  C29.4,22.5,35,28.1,35,35s-5.6,12.5-12.5,12.5S10,41.9,10,35S15.6,22.5,22.5,22.5z"/><path d="M22.5,37.5h5c1.4,0,2.5-1.1,2.5-2.5s-1.1-2.5-2.5-2.5H25v-5c0-1.4-1.1-2.5-2.5-2.5S20,26.1,20,27.5V35  C20,36.4,21.1,37.5,22.5,37.5z"/><path d="M77.5,37.5H80v5h-5c-1.4,0-2.5,1.1-2.5,2.5s1.1,2.5,2.5,2.5h5V50c0,1.4,1.1,2.5,2.5,2.5S85,51.4,85,50v-2.5h2.5  c4.1,0,7.5-3.4,7.5-7.5s-3.4-7.5-7.5-7.5H85v-5h5c1.4,0,2.5-1.1,2.5-2.5s-1.1-2.5-2.5-2.5h-5V20c0-1.4-1.1-2.5-2.5-2.5  S80,18.6,80,20v2.5h-2.5c-4.1,0-7.5,3.4-7.5,7.5S73.4,37.5,77.5,37.5z M85,37.5h2.5c1.4,0,2.5,1.1,2.5,2.5s-1.1,2.5-2.5,2.5H85V37.5  z M77.5,27.5H80v5h-2.5c-1.4,0-2.5-1.1-2.5-2.5S76.1,27.5,77.5,27.5z"/><path d="M92.5,55h-85C6.1,55,5,56.1,5,57.5S6.1,60,7.5,60h85c1.4,0,2.5-1.1,2.5-2.5S93.9,55,92.5,55z"/><path d="M52.2,63.8c-0.4-0.8-1.3-1.3-2.2-1.3s-1.7,0.5-2.2,1.3l-8.7,15c-0.4,0.8-0.4,1.7,0,2.5s1.3,1.3,2.2,1.3h17.3  c0.9,0,1.7-0.5,2.2-1.3s0.4-1.7,0-2.5L52.2,63.8z M45.7,77.5L50,70l4.3,7.5H45.7z"/></svg>