<svg xmlns="http://www.w3.org/2000/svg" xmlns:xlink="http://www.w3.org/1999/xlink" version="1.1" x="0px" y="0px" viewBox="0 0 100 100" enable-background="new 0 0 100 100" xml:space="preserve" width="100px" height="100px"><path d="M36.298,41.464c-0.452-0.278-1.038-0.134-1.314,0.312c-0.279,0.453-0.137,1.039,0.312,1.317  c2.82,1.737,3.774,4.706,2.622,8.153c-0.168,0.504,0.102,1.041,0.603,1.209c0.102,0.033,0.205,0.049,0.304,0.049  c0.398,0,0.771-0.251,0.907-0.652C41.169,47.558,39.885,43.674,36.298,41.464z M32.469,31.354c-3.975,1.288-6.331,3.99-6.622,7.606  c-0.041,0.524,0.349,0.985,0.878,1.032c0.027,0.001,0.053,0.004,0.079,0.004c0.494,0,0.912-0.383,0.952-0.878  c0.16-1.979,1.208-4.613,5.303-5.939c0.506-0.165,0.778-0.703,0.616-1.204C33.51,31.466,32.969,31.19,32.469,31.354z M25.253,49.22  c-1.088-0.097-1.892-0.578-2.405-1.431c-0.61-1.023-0.65-2.383-0.336-3.109c0.209-0.485-0.014-1.049-0.5-1.257  c-0.486-0.212-1.047,0.013-1.257,0.499c-0.495,1.144-0.564,3.149,0.45,4.851c0.577,0.97,1.721,2.165,3.88,2.356  c0.027,0.005,0.058,0.005,0.083,0.005c0.492,0,0.909-0.376,0.952-0.875C26.169,49.729,25.782,49.265,25.253,49.22z M70.684,34.554  c-1.945,0.178-3.678,1.151-4.871,2.749c-1.232,1.648-1.768,3.821-1.399,5.667c0.589,2.939,0.247,4.459-1.176,5.242  c-0.462,0.25-0.631,0.832-0.376,1.299c0.174,0.316,0.502,0.496,0.837,0.496c0.156,0,0.312-0.036,0.457-0.118  c2.866-1.575,2.644-4.727,2.131-7.295c-0.262-1.31,0.152-2.938,1.056-4.147c0.61-0.817,1.719-1.827,3.511-1.989  c0.524-0.047,0.917-0.513,0.869-1.037C71.676,34.892,71.195,34.499,70.684,34.554z M49.102,21.101  c-19.961,0-33.363,13.265-33.363,25.653c0,9.92,6.174,11.351,13.32,13.01c0,0,0.75,0.195,0.818,0.213  c6.261,1.521,10.4,3.504,12.875,4.689c3.94,1.737,7.205,4.058,9.963,7.088c1.77,1.941,4.563,6.632,4.596,6.68  c0.177,0.294,0.494,0.466,0.825,0.466c0.085,0,0.176-0.01,0.262-0.035l7.35-2.091c0.259-0.078,0.476-0.254,0.598-0.501  c0.12-0.241,0.133-0.521,0.03-0.772c-1.187-2.99-1.503-5.941-1.583-7.214l0.242-0.095c2.071-0.796,4.546-1.756,7.021-2.972  c0.005-0.004,0.013-0.007,0.018-0.011c6.02-2.965,11.997-7.504,11.997-15.208C84.064,33.794,68.708,21.101,49.102,21.101z   M71.508,63.347c-3.204-0.198-4.068-2.716-4.759-4.759c-0.183-0.538-0.35-1.043-0.556-1.461c-1.137-2.305-3.854-2.965-5.944-2.424  c-2.365,0.609-3.763,2.52-3.651,4.98c0.027,0.527,0.477,0.949,1,0.913c0.528-0.024,0.935-0.472,0.912-0.999  c-0.098-2.206,1.517-2.857,2.215-3.043c1.309-0.337,3.076,0.045,3.75,1.418c0.146,0.297,0.293,0.725,0.457,1.223  c0.563,1.684,1.418,4.223,3.845,5.422c-1.571,0.682-3.097,1.271-4.438,1.783l-0.888,0.345c-0.371,0.142-0.612,0.501-0.611,0.898  c0.002,0.158,0.036,3.651,1.383,7.568l-5.654,1.608c-0.852-1.391-2.933-4.702-4.44-6.354c-2.557-2.807-5.515-5.035-8.991-6.779  c0,0-3.211-1.516-4.201-1.969c-2.076-0.953-4.796-2.002-8.255-2.979c-0.807-0.838-1.391-2.051-1.512-3.304  c-0.099-1.016,0.04-2.507,1.255-3.834c0.359-0.388,0.334-0.995-0.055-1.354c-0.389-0.356-1.009-0.324-1.35,0.062  c-1.319,1.439-1.946,3.328-1.752,5.312c0.081,0.835,0.322,1.646,0.665,2.399l-1.223-0.303c-6.693-1.566-11.07-2.877-11.07-10.967  c0-12.249,12.703-21.24,25.846-23.294c-1.274,0.989-2.271,2.146-2.724,3.208c-0.207,0.49,0.02,1.048,0.506,1.252  c0.122,0.052,0.247,0.079,0.374,0.079c0.372,0,0.723-0.219,0.877-0.583c0.77-1.818,3.833-4.126,6.626-4.396  c4.038,0.005,7.9,0.609,11.481,1.7c0.053,2.9-1.131,5.303-3.269,6.495c-0.459,0.257-0.624,0.84-0.371,1.302  c0.179,0.314,0.505,0.494,0.836,0.494c0.157,0,0.317-0.04,0.462-0.123c2.559-1.42,4.12-4.226,4.256-7.52  C74.083,29.581,82.142,39.034,82.142,50C82.15,56.538,76.937,60.606,71.508,63.347z M74.436,44.728  c1.214,1.569,2.212,4.224,0.081,7.962c-0.26,0.458-0.101,1.041,0.359,1.302c0.146,0.083,0.309,0.128,0.469,0.128  c0.336,0,0.66-0.174,0.831-0.483c2.792-4.905,1.05-8.425-0.235-10.079c-0.314-0.416-0.915-0.495-1.334-0.174  C74.19,43.707,74.112,44.309,74.436,44.728z M52.119,38.081c0.08,0.017,0.152,0.026,0.232,0.026c0.43,0,0.824-0.292,0.93-0.73  c0.127-0.51-0.186-1.032-0.704-1.153c-2.424-0.599-3.426-2.328-3.802-3.31c-0.528-1.358-0.422-2.641-0.042-3.211  c0.293-0.438,0.18-1.034-0.263-1.328c-0.44-0.292-1.036-0.176-1.327,0.263c-0.8,1.198-0.86,3.145-0.151,4.969  C47.863,35.865,49.734,37.495,52.119,38.081z M46.479,44.625c-0.525,0.055-0.909,0.525-0.854,1.051s0.536,0.9,1.048,0.854  c2.053-0.215,5.82-0.061,7.97,3.322c0.186,0.287,0.494,0.445,0.811,0.445c0.178,0,0.352-0.051,0.511-0.147  c0.448-0.286,0.577-0.878,0.293-1.321C53.46,44.415,48.484,44.42,46.479,44.625z M49.46,53.48c-0.53-0.037-0.986,0.359-1.021,0.89  c-0.073,1.091-0.537,1.903-1.378,2.435c-1.009,0.632-2.367,0.701-3.102,0.402c-0.489-0.197-1.048,0.037-1.246,0.529  c-0.201,0.49,0.035,1.046,0.526,1.244c1.153,0.47,3.161,0.496,4.84-0.555c0.957-0.597,2.127-1.766,2.272-3.93  c0.004-0.026,0.004-0.058,0.003-0.082C50.345,53.922,49.96,53.513,49.46,53.48z"/></svg>