<!-- Generator: Adobe Illustrator 25.0.1, SVG Export Plug-In  -->
<svg version="1.1" xmlns="http://www.w3.org/2000/svg" xmlns:xlink="http://www.w3.org/1999/xlink" x="0px" y="0px" width="969.9px"
	 height="1005.1px" viewBox="0 0 969.9 1005.1" style="overflow:visible;enable-background:new 0 0 969.9 1005.1;"
	 xml:space="preserve">
<style type="text/css">
	.st0{fill:none;stroke:#14A2DC;stroke-width:3;stroke-miterlimit:10;}
</style>
<defs>
</defs>
<path class="st0" d="M923.4,108.3h33.3c6.5,0,11.7,5.3,11.7,11.7l-5.6,872.1c0,6.4-5.2,11.6-11.7,11.6h-938
	c-6.4,0-11.7-5.2-11.7-11.7V121.2c0-6.4,5.2-11.7,11.7-11.7h86.5h46.8h391.6c6.4,0,11.7-5.2,11.7-11.7V13.2
	c0-6.4,5.2-11.7,11.7-11.7h338.7c6.4,0,11.7,5.2,11.7,11.7v83.5C911.8,103.1,917,108.3,923.4,108.3"/>
</svg>
