<?xml version="1.0" encoding="UTF-8"?><svg xmlns="http://www.w3.org/2000/svg" id="Text63ed48d594bbc" viewBox="0 0 72.95 67.8" aria-hidden="true" width="72px" height="67px"><defs><linearGradient class="cerosgradient" data-cerosgradient="true" id="CerosGradient_idb5249fb97" gradientUnits="userSpaceOnUse" x1="50%" y1="100%" x2="50%" y2="0%"><stop offset="0%" stop-color="#d1d1d1"/><stop offset="100%" stop-color="#d1d1d1"/></linearGradient><linearGradient/><style>.cls-1-63ed48d594bbc{fill:none;stroke:#051c2c;stroke-miterlimit:10;}</style></defs><g><rect class="cls-1-63ed48d594bbc" x="29.97" y="12.56" width="13.33" height="5.39"/><path class="cls-1-63ed48d594bbc" d="m41.53,17.95s-.44,6.44.71,8.65c1.15,2.21,4.41,9.8,4.41,15.19v25.51h-19.86v-25.51c0-5.47,3.35-13.07,4.41-15.19s.62-8.65.62-8.65"/><line class="cls-1-63ed48d594bbc" x1="26.79" y1="43.11" x2="46.56" y2="43.11"/><line class="cls-1-63ed48d594bbc" x1="26.79" y1="56.35" x2="46.56" y2="56.35"/></g><g><rect class="cls-1-63ed48d594bbc" x="55.77" y=".5" width="13.33" height="5.39"/><path class="cls-1-63ed48d594bbc" d="m67.33,5.89s-.44,6.44.71,8.65c1.15,2.21,4.41,9.8,4.41,15.19v25.51h-19.86v-25.51c0-5.47,3.35-13.07,4.41-15.19,1.06-2.12.62-8.65.62-8.65"/><line class="cls-1-63ed48d594bbc" x1="52.59" y1="31.05" x2="72.36" y2="31.05"/><line class="cls-1-63ed48d594bbc" x1="52.59" y1="44.29" x2="72.36" y2="44.29"/></g><g><rect class="cls-1-63ed48d594bbc" x="3.68" y=".5" width="13.33" height="5.39"/><path class="cls-1-63ed48d594bbc" d="m15.24,5.89s-.44,6.44.71,8.65c1.15,2.21,4.41,9.8,4.41,15.19v25.51H.5v-25.51c0-5.47,3.35-13.07,4.41-15.19,1.06-2.12.62-8.65.62-8.65"/><line class="cls-1-63ed48d594bbc" x1=".5" y1="31.05" x2="20.28" y2="31.05"/><line class="cls-1-63ed48d594bbc" x1=".5" y1="44.29" x2="20.28" y2="44.29"/></g></svg>