<svg xmlns="http://www.w3.org/2000/svg" xmlns:xlink="http://www.w3.org/1999/xlink" version="1.1" x="0px" y="0px" viewBox="0 0 100 100" style="enable-background:new 0 0 100 100;" xml:space="preserve" width="100px" height="100px"><g><path d="M50.2,19.7c-18.8,0-34,15.3-34,34c0,18.8,15.3,34,34,34c18.8,0,34-15.3,34-34C84.2,34.9,69,19.7,50.2,19.7z M50.2,85   C32.9,85,18.8,71,18.8,53.7c0-17.3,14.1-31.3,31.3-31.3c17.3,0,31.3,14.1,31.3,31.3C81.5,71,67.5,85,50.2,85z"/><path d="M51,43.7c-0.5-0.4-1.1-0.4-1.6,0L32.8,56.1c-0.6,0.4-0.7,1.3-0.3,1.9c0.3,0.4,0.7,0.5,1.1,0.5c0.3,0,0.6-0.1,0.8-0.3   l15.7-11.8l15.7,11.8c0.6,0.4,1.4,0.3,1.9-0.3c0.4-0.6,0.3-1.4-0.3-1.9L51,43.7z"/></g></svg>