<!-- Generator: Adobe Illustrator 25.2.0, SVG Export Plug-In  -->
<svg version="1.1" xmlns="http://www.w3.org/2000/svg" xmlns:xlink="http://www.w3.org/1999/xlink" x="0px" y="0px" width="102.1px"
	 height="143.6px" viewBox="0 0 102.1 143.6" style="overflow:visible;enable-background:new 0 0 102.1 143.6;"
	 xml:space="preserve">
<style type="text/css">
	.st0{fill:none;stroke:#4BBBEB;stroke-width:2;stroke-miterlimit:10;}
</style>
<defs>
</defs>
<path class="st0" d="M52.5,56.4L36.9,26.6C32.4,18.1,35.7,7.5,44.3,3c8.6-4.5,19.2-1.2,23.6,7.4L79.3,32 M83.5,40.2L99.1,70
	c4.5,8.6,1.2,19.2-7.4,23.6c-8.6,4.5-19.2,1.2-23.6-7.4L52.5,56.4L83.5,40.2L83.5,40.2z M80.3,54.4L80.3,54.4L80.3,54.4L80.3,54.4
	L80.3,54.4L80.3,54.4z M80.6,64.1L80.6,64.1L80.6,64.1L80.6,64.1L80.6,64.1L80.6,64.1z M88.2,69.5L88.2,69.5L88.2,69.5L88.2,69.5
	L88.2,69.5L88.2,69.5z M88.6,79.6L88.6,79.6L88.6,79.6L88.6,79.6L88.6,79.6L88.6,79.6z M81,83.6L81,83.6L81,83.6L81,83.6L81,83.6
	L81,83.6z M80.6,73.5L80.6,73.5L80.6,73.5L80.6,73.5L80.6,73.5L80.6,73.5z M73,77.4L73,77.4L73,77.4L73,77.4L73,77.4L73,77.4z
	 M73,68.1L73,68.1L73,68.1L73,68.1L73,68.1L73,68.1z M72.7,58.3L72.7,58.3L72.7,58.3L72.7,58.3L72.7,58.3L72.7,58.3z M65.1,62.3
	L65.1,62.3L65.1,62.3L65.1,62.3L65.1,62.3L65.1,62.3z"/>
<path class="st0" d="M35,119L8,98.8C0.3,93-1.3,82.1,4.5,74.3c5.8-7.8,16.8-9.3,24.5-3.5l19.5,14.6 M55.9,90.9l26.9,20.1
	c7.8,5.8,9.3,16.8,3.5,24.5c-5.8,7.8-16.8,9.3-24.5,3.5L35,119L55.9,90.9L55.9,90.9z M59.1,105.1L59.1,105.1L59.1,105.1L59.1,105.1
	L59.1,105.1L59.1,105.1z M63.6,113.8L63.6,113.8L63.6,113.8L63.6,113.8L63.6,113.8L63.6,113.8z M72.8,115.3L72.8,115.3L72.8,115.3
	L72.8,115.3L72.8,115.3L72.8,115.3z M77.6,124.2L77.6,124.2L77.6,124.2L77.6,124.2L77.6,124.2L77.6,124.2z M72.5,131.1L72.5,131.1
	L72.5,131.1L72.5,131.1L72.5,131.1L72.5,131.1z M67.7,122.2L67.7,122.2L67.7,122.2L67.7,122.2L67.7,122.2L67.7,122.2z M62.6,129
	L62.6,129L62.6,129L62.6,129L62.6,129L62.6,129z M58.5,120.6L58.5,120.6L58.5,120.6L58.5,120.6L58.5,120.6L58.5,120.6z M54,111.9
	L54,111.9L54,111.9L54,111.9L54,111.9L54,111.9z M48.9,118.8L48.9,118.8L48.9,118.8L48.9,118.8L48.9,118.8L48.9,118.8z"/>
</svg>
