<!-- Generator: Adobe Illustrator 25.2.0, SVG Export Plug-In  -->
<svg version="1.1" xmlns="http://www.w3.org/2000/svg" xmlns:xlink="http://www.w3.org/1999/xlink" x="0px" y="0px" width="237.4px"
	 height="239.1px" viewBox="0 0 237.4 239.1" style="overflow:visible;enable-background:new 0 0 237.4 239.1;"
	 xml:space="preserve">
<style type="text/css">
	.st0{fill:none;stroke:#E6E6E6;stroke-width:2;stroke-miterlimit:10;}
</style>
<defs>
</defs>
<g>
	<circle class="st0" cx="191" cy="23" r="22"/>
	<polyline class="st0" points="180.7,59.3 218.2,59.3 236.1,73.7 236.1,138.3 225.4,138.3 	"/>
	<polyline class="st0" points="215,88.8 236.1,191 145.1,191 157.1,131.5 	"/>
	<polyline class="st0" points="215,191 215,238.1 165.1,238.1 165.1,191 	"/>
	<line class="st0" x1="190.2" y1="191" x2="190.2" y2="238.1"/>
	<circle class="st0" cx="46.1" cy="23" r="22"/>
	<polyline class="st0" points="68.5,59.3 19,59.3 1,73.7 1,138.3 22.2,138.3 	"/>
	<polyline class="st0" points="22.2,84 22.2,238.1 72.1,238.1 72.1,170.7 	"/>
	<line class="st0" x1="46.9" y1="151.9" x2="46.9" y2="238.1"/>
	<polygon class="st0" points="97.6,62.9 97.6,102 134.3,102 134.3,126.4 187,82.4 134.3,37.7 134.3,62.5 	"/>
	<polygon class="st0" points="133.9,102.4 133.9,141.5 97.6,141.5 97.6,165.9 45.3,122 97.6,77.3 97.6,102 	"/>
</g>
</svg>
