<svg xmlns="http://www.w3.org/2000/svg" xmlns:xlink="http://www.w3.org/1999/xlink" version="1.1" x="0px" y="0px" viewBox="0 0 100 100" enable-background="new 0 0 100 100" xml:space="preserve" width="100px" height="100px"><path d="M50,5C25.147,5,5,25.147,5,50s20.147,45,45,45s45-20.147,45-45S74.853,5,50,5z M50,91.5C27.08,91.5,8.5,72.92,8.5,50  C8.5,27.08,27.08,8.5,50,8.5S91.5,27.08,91.5,50C91.5,72.92,72.92,91.5,50,91.5z"/><path d="M51.237,30.513c-0.081-0.081-0.171-0.154-0.267-0.218c-0.043-0.029-0.09-0.049-0.135-0.073  c-0.055-0.03-0.108-0.064-0.167-0.088c-0.058-0.024-0.118-0.038-0.178-0.055c-0.05-0.015-0.097-0.034-0.149-0.044  c-0.226-0.045-0.459-0.045-0.686,0c-0.051,0.01-0.099,0.029-0.149,0.044c-0.06,0.017-0.12,0.031-0.178,0.055  c-0.059,0.024-0.112,0.058-0.167,0.088c-0.045,0.025-0.092,0.044-0.135,0.073c-0.096,0.064-0.186,0.137-0.267,0.218L34.62,44.655  c-0.683,0.683-0.683,1.792,0,2.475s1.791,0.683,2.475,0L48.25,35.975c0,9.67,0,32.275,0,32.275l0,0v0c0,0.966,0.784,1.75,1.75,1.75  s1.75-0.784,1.75-1.75v0l0,0c0,0,0-22.603,0-32.275L62.905,47.13c0.683,0.683,1.791,0.683,2.475,0s0.683-1.792,0-2.475  L51.237,30.513z"/></svg>