<!-- Generator: Adobe Illustrator 25.2.1, SVG Export Plug-In  -->
<svg version="1.1" xmlns="http://www.w3.org/2000/svg" xmlns:xlink="http://www.w3.org/1999/xlink" x="0px" y="0px" width="72.1px"
	 height="58.6px" viewBox="0 0 72.1 58.6" style="overflow:visible;enable-background:new 0 0 72.1 58.6;" xml:space="preserve">
<style type="text/css">
	.st0{fill:none;stroke:#5FB9E4;stroke-width:1.6;stroke-linecap:round;stroke-linejoin:round;stroke-miterlimit:10;}
</style>
<defs>
</defs>
<g>
	<g>
		<path class="st0" d="M41.7,37.9v19.9H0.8v-57h40.9v8.5 M55.6,33.6l14.2,10.7c0.9,0.7,1.5,1.7,1.6,2.9c0.1,1.1-0.3,2.3-1,3.1
			L69,51.7c-0.7,0.8-1.8,1.3-2.9,1.4c-1.1,0-2.2-0.4-3-1.1L46.8,36.2 M48.1,12.7c6,5.4,6.5,14.7,1.1,20.8c-5.4,6-14.7,6.5-20.8,1.1
			c-6-5.4-6.5-14.7-1.1-20.8C32.8,7.7,42.1,7.2,48.1,12.7L48.1,12.7z M46.9,19.6c1.6,3.3,1.1,7.5-1.5,10.4c-1.8,1.9-4.1,3-6.6,3.1"
			/>
	</g>
	<line class="st0" x1="28.4" y1="52.3" x2="28.4" y2="34.5"/>
	<line class="st0" x1="18.9" y1="52.3" x2="18.9" y2="14.6"/>
	<line class="st0" x1="9.4" y1="52.3" x2="9.4" y2="7.1"/>
</g>
</svg>
