<!-- Generator: Adobe Illustrator 25.1.0, SVG Export Plug-In  -->
<svg version="1.1" xmlns="http://www.w3.org/2000/svg" xmlns:xlink="http://www.w3.org/1999/xlink" x="0px" y="0px" width="40px"
	 height="55.2px" viewBox="0 0 40 55.2" style="overflow:visible;enable-background:new 0 0 40 55.2;" xml:space="preserve">
<style type="text/css">
	.st0{fill:#FFFFFF;}
</style>
<defs>
</defs>
<g>
	<path class="st0" d="M22.5,19.1H7.3c-0.5,0-1-0.4-1-1c0-0.5,0.4-1,1-1h15.2c0.5,0,1,0.4,1,1C23.5,18.6,23,19.1,22.5,19.1z"/>
	<path class="st0" d="M22.5,22.9H7.3c-0.5,0-1-0.4-1-1s0.4-1,1-1h15.2c0.5,0,1,0.4,1,1S23,22.9,22.5,22.9z"/>
	<path class="st0" d="M30.4,21.9h-1c-1.3,0-2.5-0.8-2.9-2c-0.2-0.5,0.1-1,0.6-1.2c0.5-0.2,1,0.1,1.2,0.6c0.2,0.5,0.6,0.7,1.1,0.7h1
		c0.8,0.1,1.5-0.5,1.6-1.3c0-0.3-0.1-0.6-0.3-0.8c-0.2-0.2-0.5-0.4-0.8-0.5l-2.1-0.5c-1.5-0.3-2.5-1.6-2.6-3.2c0-0.9,0.4-1.7,1-2.3
		c0.6-0.6,1.5-0.9,2.4-0.9h1.2c1.3,0,2.5,0.8,2.9,2c0.2,0.5-0.1,1-0.6,1.2c-0.5,0.2-1-0.1-1.2-0.6l0,0c-0.2-0.5-0.6-0.7-1.1-0.7
		h-1.2c-0.4,0-0.8,0.1-1,0.4c-0.3,0.2-0.4,0.6-0.4,0.9c0,0.6,0.5,1.2,1.1,1.3l2.1,0.5c0.7,0.2,1.4,0.6,1.8,1.1
		c0.5,0.6,0.8,1.3,0.7,2.1C33.8,20.6,32.2,22,30.4,21.9L30.4,21.9z"/>
	<path class="st0" d="M30.1,12.4c-0.5,0-1-0.4-1-1V9.5c0-0.5,0.4-1,1-1s1,0.4,1,1v1.9C31.1,12,30.7,12.4,30.1,12.4z"/>
	<path class="st0" d="M30.1,23.8c-0.5,0-1-0.4-1-1V21c0-0.5,0.4-1,1-1s1,0.4,1,1v1.9C31.1,23.4,30.7,23.8,30.1,23.8z"/>
	<path class="st0" d="M32,50.5H9.2c-1.6,0-2.9-1.3-2.9-2.9v-19c0-1.6,1.3-2.9,2.9-2.9H32c1.6,0,2.9,1.3,2.9,2.9v19
		C34.9,49.2,33.6,50.5,32,50.5z M9.2,27.6c-0.5,0-1,0.4-1,1v19c0,0.5,0.4,1,1,1H32c0.5,0,1-0.4,1-1v-19c0-0.5-0.4-1-1-1H9.2z"/>
	<path class="st0" d="M33.9,33.3H7.3c-0.5,0-1-0.4-1-1c0-0.5,0.4-1,1-1h26.7c0.5,0,1,0.4,1,1C34.9,32.9,34.5,33.3,33.9,33.3z"/>
	<path class="st0" d="M33.9,39.1H7.3c-0.5,0-1-0.4-1-1c0-0.5,0.4-1,1-1h26.7c0.5,0,1,0.4,1,1C34.9,38.6,34.5,39.1,33.9,39.1z"/>
	<path class="st0" d="M33.9,44.8H7.3c-0.5,0-1-0.4-1-1c0-0.5,0.4-1,1-1h26.7c0.5,0,1,0.4,1,1C34.9,44.3,34.5,44.8,33.9,44.8z"/>
	<path class="st0" d="M13,50.5c-0.5,0-1-0.4-1-1V26.7c0-0.5,0.4-1,1-1s1,0.4,1,1v22.8C13.9,50.1,13.5,50.5,13,50.5z"/>
	<path class="st0" d="M28.2,50.5c-0.5,0-1-0.4-1-1V26.7c0-0.5,0.4-1,1-1s1,0.4,1,1v22.8C29.2,50.1,28.8,50.5,28.2,50.5z"/>
	<path class="st0" d="M0,50.5c0,2.6,2.1,4.8,4.8,4.8h30.5c2.6,0,4.8-2.1,4.8-4.8V4.8C40,2.1,37.9,0,35.2,0H12.4
		c-0.3,0-0.5,0.1-0.7,0.3L0.3,11.7C0.1,11.9,0,12.1,0,12.4V50.5z M12.4,13.3c0.5,0,1-0.4,1-1V1.9h21.9c1.6,0,2.9,1.3,2.9,2.9v45.7
		c0,1.6-1.3,2.9-2.9,2.9H4.8c-1.6,0-2.9-1.3-2.9-2.9V13.3H12.4z M11.4,3.2v8.2H3.2L11.4,3.2z"/>
</g>
</svg>
