<?xml version="1.0" encoding="UTF-8"?><svg xmlns="http://www.w3.org/2000/svg" id="Exhibit_631f5db8ee9f2" viewBox="0 0 79.09 136.25" aria-hidden="true" width="79px" height="136px"><defs><linearGradient class="cerosgradient" data-cerosgradient="true" id="CerosGradient_id9b5ac33b6" gradientUnits="userSpaceOnUse" x1="50%" y1="100%" x2="50%" y2="0%"><stop offset="0%" stop-color="#d1d1d1"/><stop offset="100%" stop-color="#d1d1d1"/></linearGradient><linearGradient/><style>.cls-1-631f5db8ee9f2{fill:none;stroke:#2251ff;stroke-miterlimit:10;}</style></defs><path class="cls-1-631f5db8ee9f2" d="M51.11,120.04v-12.22h0c8.07,0,14.62-6.33,14.62-14.62h0v-13.09"/><path class="cls-1-631f5db8ee9f2" d="M33.22,42.82l-20.29,22.03c-1.96,1.96-2.84,4.58-2.84,7.42v47.77"/><path class="cls-1-631f5db8ee9f2" d="M24.71,80.56l24.87-24.87c3.05-3.27,8.07-3.71,11.56-.65h0c3.05,3.27,2.84,8.73-.44,11.56h0l-14.62,14.4h0c4.36,4.36,4.36,11.34,0,15.71l-2.18,2.18"/><polyline class="cls-1-631f5db8ee9f2" points="46.96 80.12 78.59 80.12 78.59 .5 33.22 .5 33.22 72.05"/><rect class="cls-1-631f5db8ee9f2" x=".5" y="120.04" width="59.77" height="15.71"/><polyline class="cls-1-631f5db8ee9f2" points="55.25 72.05 64.41 72.05 70.52 65.29 70.52 15.12 64.41 8.35 47.62 8.35 41.29 15.12 41.29 63.98"/><circle class="cls-1-631f5db8ee9f2" cx="55.91" cy="39.98" r="6.76"/></svg>