<!-- Generator: Adobe Illustrator 25.1.0, SVG Export Plug-In  -->
<svg version="1.1" xmlns="http://www.w3.org/2000/svg" xmlns:xlink="http://www.w3.org/1999/xlink" x="0px" y="0px" width="90.6px"
	 height="57px" viewBox="0 0 90.6 57" style="overflow:visible;enable-background:new 0 0 90.6 57;" xml:space="preserve">
<style type="text/css">
	.st0{fill:#DF1F26;}
</style>
<defs>
</defs>
<g>
	<path class="st0" d="M31.3,0l5.2,37.5h-8.3l-3.7-26.2l-0.1-0.1l-6.3,11.9h6.7l1,6.9H14.6l-3.9,7.4H1.5l3.6-7.4H0l3.6-6.9h5.2L21,0
		H31.3z M90.6,8.7l-5,28.8h-8.3L71,23c-1,4.8-1.7,9.7-2.6,14.5h-8.4c0.3-2.2,0.8-4.5,1-6.6c-2.7,4.8-7.5,7.6-12.9,7.5
		c-3.9-0.1-8.7-2.5-10.9-5.7l-2.1-15c1.9-5.1,7.2-9,12.5-9.4c5.5-0.3,10.1,2,13.3,6.5c1.1,1.7,1.7,3.5,2.1,5.5L65,8.7h8.1l6.4,14.5
		c0.9-4.8,1.8-9.7,2.5-14.5H90.6z M53.2,17.9c-1.6-2-4.2-2.7-6.6-1.9c-2,0.6-3.6,2.7-4.2,4.5c-1.2,3.1,0.2,7.4,2.3,8.8
		c1.5,0.9,3.2,1.4,4.9,0.9c1.8-0.6,3.5-2,4.3-3.8C55.1,23.9,55.3,20.1,53.2,17.9"/>
	<polygon points="1.5,54.3 1.5,46.8 5.6,46.8 5.6,47.9 3,47.9 3,49.9 5.5,49.9 5.5,50.9 3,50.9 3,53.3 6,53.3 6,54.3 	"/>
	<path d="M14,54.3v-3c0-0.5,0-0.8-0.2-1c-0.2-0.3-0.4-0.4-0.8-0.4c-0.4,0-0.8,0.2-0.9,0.6c-0.1,0.2-0.1,0.4-0.1,0.9v3h-1.4v-3
		c0-0.5,0-0.8-0.1-1c-0.1-0.3-0.4-0.5-0.8-0.5c-0.5,0-0.8,0.3-1,0.7c-0.1,0.2-0.1,0.5-0.1,0.9v2.9H7.2V49h1.4v0.8
		c0.4-0.6,0.9-0.9,1.7-0.9c0.8,0,1.3,0.3,1.5,1c0.4-0.6,1-1,1.8-1c0.8,0,1.3,0.3,1.6,0.9c0.2,0.3,0.2,0.6,0.2,1.5v3.1H14z"/>
	<path d="M18.4,53.5V57H17v-8h1.4v0.8c0.5-0.6,1-1,1.8-1c1.4,0,2.4,1.1,2.4,2.7c0,1.6-1.1,2.9-2.5,2.9
		C19.4,54.4,18.9,54.1,18.4,53.5 M21.1,51.6c0-1.2-0.6-1.9-1.3-1.9c-0.7,0-1.4,0.6-1.4,2c0,1.1,0.5,1.9,1.3,1.9
		C20.6,53.6,21.1,52.6,21.1,51.6"/>
	<path d="M23.5,51.6c0-1.7,1.2-2.8,2.8-2.8c1.6,0,2.8,1.1,2.8,2.8c0,1.8-1.3,2.8-2.8,2.8C24.8,54.4,23.5,53.4,23.5,51.6 M27.6,51.6
		c0-1.3-0.6-2-1.3-2c-0.8,0-1.3,0.8-1.3,2c0,1.3,0.6,2.1,1.3,2.1C27,53.7,27.6,53,27.6,51.6"/>
	<polygon points="36,54.3 35.1,54.3 33.7,50.7 32.3,54.3 31.4,54.3 29.5,49.1 30.9,48.9 32.1,52.6 33.4,49 34.4,49 35.7,52.6 
		36.9,48.9 38.1,49 	"/>
	<path d="M43.5,53.8c-0.7,0.4-1.4,0.6-2.1,0.6c-0.8,0-1.4-0.2-1.9-0.6c-0.7-0.5-1-1.4-1-2.3c0-0.8,0.3-1.6,0.9-2.1
		c0.5-0.4,1.1-0.6,1.8-0.6c0.8,0,1.4,0.3,1.8,0.8c0.4,0.4,0.5,1.1,0.5,1.7c0,0.1,0,0.2,0,0.4H40c0,1.1,0.6,1.8,1.7,1.8
		c0.5,0,1-0.2,1.4-0.5L43.5,53.8z M42.3,50.9c0-0.8-0.4-1.3-1.1-1.3C40.5,49.6,40,50,40,51h2.2V50.9z"/>
	<path d="M48,50.3c-0.2-0.2-0.5-0.2-0.7-0.2c-0.4,0-0.8,0.3-0.9,0.8c-0.1,0.3-0.1,0.6-0.1,1.2v2.2h-1.4V49h1.4v1
		c0-0.1,0.1-0.2,0.1-0.3c0.2-0.5,0.6-0.9,1.1-0.9c0.3,0,0.6,0.1,1,0.4L48,50.3z"/>
	<path d="M55.6,54.4l-1.5-3.2h-1v3.1h-1.5v-7.5h2.1c1.1,0,1.7,0.1,2.1,0.4c0.5,0.3,0.8,0.9,0.8,1.6c0,0.9-0.6,1.6-1.3,2l1.8,3.2
		L55.6,54.4z M54.8,48.1c-0.3-0.2-0.6-0.3-1.2-0.3h-0.5v2.6h0.7c0.6,0,0.9-0.1,1.1-0.4c0.2-0.3,0.3-0.7,0.3-0.9
		C55.2,48.6,55.1,48.3,54.8,48.1"/>
	<path d="M62.7,53.8c-0.7,0.4-1.4,0.6-2.1,0.6c-0.8,0-1.4-0.2-1.9-0.6c-0.7-0.5-1-1.4-1-2.3c0-0.8,0.4-1.6,0.9-2.1
		c0.5-0.4,1.1-0.6,1.8-0.6c0.8,0,1.4,0.3,1.8,0.8c0.4,0.4,0.5,1.1,0.5,1.7c0,0.1,0,0.2,0,0.4h-3.5c0,1.1,0.6,1.8,1.7,1.8
		c0.5,0,1-0.2,1.4-0.5L62.7,53.8z M61.5,50.9c0-0.8-0.4-1.3-1.1-1.3c-0.7,0-1.2,0.5-1.2,1.5h2.2V50.9z"/>
	<path d="M63.6,53.8l0.4-0.8c0.4,0.3,0.8,0.5,1.1,0.5c0.5,0,0.8-0.3,0.8-0.7c0-0.3-0.2-0.6-0.9-1.1c-0.6-0.4-1.2-0.9-1.2-1.6
		c0-0.9,0.7-1.4,1.8-1.4c0.6,0,1.1,0.2,1.5,0.4L66.8,50c-0.3-0.2-0.6-0.3-0.9-0.3c-0.5,0-0.7,0.3-0.7,0.6c0,0.3,0.2,0.5,0.8,0.9
		c1,0.8,1.3,1.1,1.3,1.7c0,0.9-0.9,1.5-2,1.5C64.6,54.4,64,54.2,63.6,53.8"/>
	<path d="M72,54.3v-0.8c-0.5,0.7-1,0.9-1.7,0.9c-0.8,0-1.4-0.4-1.7-1c-0.1-0.3-0.2-0.6-0.2-1.4v-3h1.4v3c0,0.5,0,0.8,0.1,1
		c0.1,0.3,0.4,0.5,0.9,0.5c0.5,0,0.8-0.2,1-0.6c0.1-0.3,0.1-0.6,0.1-1V49h1.4v5.3H72z"/>
	<rect x="75" y="46.5" width="1.4" height="7.8"/>
	<path d="M81.2,54.1c-0.5,0.2-0.9,0.3-1.4,0.3c-0.7,0-1.1-0.2-1.4-0.6c-0.2-0.3-0.3-0.6-0.3-1.4v-2.8h-0.7V49h0.7v-1.3l1.4-0.3V49
		h1.4v0.7h-1.4v2.4c0,1,0.2,1.5,0.7,1.5c0.2,0,0.4-0.1,0.6-0.2L81.2,54.1z"/>
	<path d="M81.8,53.8l0.4-0.8c0.3,0.3,0.8,0.5,1.1,0.5c0.5,0,0.8-0.3,0.8-0.7c0-0.3-0.2-0.6-0.9-1.1c-0.6-0.4-1.2-0.9-1.2-1.6
		c0-0.9,0.7-1.4,1.8-1.4c0.6,0,1.1,0.2,1.5,0.4L85.1,50c-0.3-0.2-0.6-0.3-0.9-0.3c-0.5,0-0.7,0.3-0.7,0.6c0,0.3,0.2,0.5,0.8,0.9
		c1,0.8,1.3,1.1,1.3,1.7c0,0.9-0.9,1.5-2,1.5C82.9,54.4,82.3,54.2,81.8,53.8"/>
	<path d="M86.6,48.9c0-1.2,0.9-2,2.1-2c1.1,0,2,0.9,2,2c0,1.1-0.9,2-2,2C87.5,50.9,86.6,50,86.6,48.9 M90.1,48.9
		c0-0.9-0.7-1.6-1.6-1.6c-0.8,0-1.5,0.7-1.5,1.6c0,0.9,0.7,1.6,1.6,1.6C89.4,50.5,90.1,49.8,90.1,48.9 M88.9,49.9l-0.4-0.9h-0.2v0.9
		h-0.5v-2.1h0.7c0.2,0,0.4,0,0.6,0.1c0.2,0.1,0.3,0.2,0.3,0.5c0,0.3-0.1,0.5-0.4,0.6l0.5,0.9L88.9,49.9z M88.5,48.7
		c0.2,0,0.3-0.1,0.3-0.3c0-0.2-0.2-0.3-0.3-0.3h-0.2v0.6H88.5z"/>
</g>
</svg>
