<!-- Generator: Adobe Illustrator 25.2.1, SVG Export Plug-In  -->
<svg version="1.1" xmlns="http://www.w3.org/2000/svg" xmlns:xlink="http://www.w3.org/1999/xlink" x="0px" y="0px" width="50.4px"
	 height="72.4px" viewBox="0 0 50.4 72.4" style="overflow:visible;enable-background:new 0 0 50.4 72.4;" xml:space="preserve">
<style type="text/css">
	.st0{fill:none;stroke:#5FB9E4;stroke-width:1.6;stroke-linecap:round;stroke-linejoin:round;stroke-miterlimit:10;}
</style>
<defs>
</defs>
<g>
	<path class="st0" d="M42.7,11.3h4.2c1.5,0,2.7,1.2,2.7,2.7v54.8c0,1.5-1.2,2.7-2.7,2.7H3.5c-1.5,0-2.7-1.2-2.7-2.7V14
		c0-1.5,1.2-2.7,2.7-2.7h4.1 M30.2,7.7c0.2-0.5,0.3-1.1,0.3-1.7c0-2.9-2.3-5.2-5.2-5.2S20,3.1,20,6c0,0.6,0.1,1.1,0.3,1.7h-3.8
		c-1.5,0-2.7,1.2-2.7,2.7v4.7h23v-4.7c0-1.5-1.2-2.7-2.7-2.7H30.2L30.2,7.7z M19,60.5h22.1 M19,49.6h22.1 M9.2,38.2l1.6,1.6l4.1-4.1
		 M19,38.6h22.1 M9.2,27.2l1.6,1.6l4.1-4.1 M19,27.7h22.1 M12.3,49.6c0,0.1-0.1,0.2-0.2,0.2s-0.2-0.1-0.2-0.2c0-0.1,0.1-0.2,0.2-0.2
		S12.3,49.5,12.3,49.6L12.3,49.6z M12.3,60.5c0,0.1-0.1,0.2-0.2,0.2s-0.2-0.1-0.2-0.2c0-0.1,0.1-0.2,0.2-0.2S12.3,60.4,12.3,60.5
		L12.3,60.5z"/>
</g>
</svg>
