<!-- Generator: Adobe Illustrator 25.2.0, SVG Export Plug-In  -->
<svg version="1.1" xmlns="http://www.w3.org/2000/svg" xmlns:xlink="http://www.w3.org/1999/xlink" x="0px" y="0px" width="287.7px"
	 height="287.7px" viewBox="0 0 287.7 287.7" style="overflow:visible;enable-background:new 0 0 287.7 287.7;"
	 xml:space="preserve">
<style type="text/css">
	.st0{fill:none;stroke:#E6E6E6;stroke-width:2;stroke-miterlimit:10;}
</style>
<defs>
</defs>
<g>
	<g>
		<polygon class="st0" points="137,52.9 137,1 37.2,1 37.2,52.9 1,52.9 1,286.7 286.7,286.7 286.7,52.9 		"/>
		<line class="st0" x1="1" y1="83.7" x2="286.7" y2="83.7"/>
		<line class="st0" x1="1" y1="117.4" x2="286.7" y2="117.4"/>
		<rect x="70.5" y="165.8" class="st0" width="146.3" height="120.8"/>
		<line class="st0" x1="143.8" y1="165.8" x2="143.8" y2="286.7"/>
	</g>
	<polygon class="st0" points="137,52.9 137,1 37.2,1 37.2,52.9 1,52.9 1,286.7 286.7,286.7 286.7,52.9 	"/>
	<line class="st0" x1="1" y1="83.7" x2="286.7" y2="83.7"/>
	<line class="st0" x1="1" y1="117.4" x2="286.7" y2="117.4"/>
	<rect x="70.5" y="165.8" class="st0" width="146.3" height="120.8"/>
	<line class="st0" x1="143.8" y1="165.8" x2="143.8" y2="286.7"/>
</g>
</svg>
