<?xml version="1.0" encoding="UTF-8"?><svg xmlns="http://www.w3.org/2000/svg" xmlns:xlink="http://www.w3.org/1999/xlink" id="Layer_163f68b7937cfa" viewBox="0 0 160 160" aria-hidden="true" width="160px" height="160px"><defs><linearGradient class="cerosgradient" data-cerosgradient="true" id="CerosGradient_id8f6f9b37b" gradientUnits="userSpaceOnUse" x1="50%" y1="100%" x2="50%" y2="0%"><stop offset="0%" stop-color="#d1d1d1"/><stop offset="100%" stop-color="#d1d1d1"/></linearGradient><style>.cls-1-63f68b7937cfa{fill:none;}.cls-2-63f68b7937cfa{fill:url(#linear-gradient63f68b7937cfa);}.cls-2-63f68b7937cfa,.cls-3-63f68b7937cfa,.cls-4-63f68b7937cfa,.cls-5-63f68b7937cfa{opacity:.2;}.cls-6-63f68b7937cfa{clip-path:url(#clippath63f68b7937cfa);}.cls-7-63f68b7937cfa{fill:#eb0017;}.cls-8-63f68b7937cfa{fill:#fff;}.cls-9-63f68b7937cfa{fill:#e5eff0;}.cls-10-63f68b7937cfa{fill:#e8bdba;}.cls-11-63f68b7937cfa{fill:#875c59;}.cls-12-63f68b7937cfa{fill:#cddbde;}.cls-13-63f68b7937cfa{fill:#c3c4c5;}.cls-14-63f68b7937cfa{fill:#acc0c4;}.cls-15-63f68b7937cfa{fill:#47535e;}.cls-16-63f68b7937cfa{fill:#30201e;}.cls-17-63f68b7937cfa{fill:#262836;}.cls-18-63f68b7937cfa{fill:#4d3633;}.cls-19-63f68b7937cfa{fill:#5d6d78;}.cls-20-63f68b7937cfa{fill:#82939a;}.cls-3-63f68b7937cfa{fill:url(#linear-gradient-363f68b7937cfa);}.cls-4-63f68b7937cfa{fill:url(#linear-gradient-463f68b7937cfa);}.cls-5-63f68b7937cfa{fill:url(#linear-gradient-263f68b7937cfa);}</style><clipPath id="clippath63f68b7937cfa"><circle class="cls-1-63f68b7937cfa" cx="80" cy="80" r="80"/></clipPath><linearGradient id="linear-gradient63f68b7937cfa" x1="135.15" y1="90.24" x2="149.51" y2="90.24" gradientUnits="userSpaceOnUse"><stop offset="0" stop-color="#161630"/><stop offset="1" stop-color="#2d2d4d"/></linearGradient><linearGradient id="linear-gradient-263f68b7937cfa" x1="122.64" y1="88.17" x2="130.95" y2="88.17" xlink:href="#linear-gradient63f68b7937cfa"/><linearGradient id="linear-gradient-363f68b7937cfa" x1="-11.09" y1="55.77" x2="-7.82" y2="55.77" gradientTransform="translate(21.27 26.86) rotate(-1.95)" xlink:href="#linear-gradient63f68b7937cfa"/><linearGradient id="linear-gradient-463f68b7937cfa" x1="10.19" y1="54.12" x2="20.5" y2="54.12" gradientTransform="translate(21.27 26.86) rotate(-1.95)" xlink:href="#linear-gradient63f68b7937cfa"/></defs><circle class="cls-8-63f68b7937cfa" cx="80" cy="80" r="80"/><g class="cls-6-63f68b7937cfa"><g><path class="cls-19-63f68b7937cfa" d="m115.6,129.43c-.21,0-.43-.01-.67-.04h-48.71c-4.14,0-7.59-3.1-8.04-7.21l-1.9-17.56,4.19-.45,1.9,17.56c.21,1.97,1.87,3.46,3.85,3.46h49.02l.16.03s.07.01.1.01c.17-.55.09-1.91-.19-2.98l-.05-.19-.02-.2-6.58-89.34,4.2-.31,6.56,89.15c.32,1.31.96,4.8-.85,6.8-.46.51-1.41,1.27-2.99,1.27Z"/><path class="cls-20-63f68b7937cfa" d="m86.46,133.36c-.13,0-.24,0-.33-.01h-44.48l-.16-.03c-2.07-.33-3.1-1.48-3.59-2.38-1.25-2.28-.32-5.14.07-6.15l3.59-21.74,4.16.69-3.67,22.24-.1.24c-.38.88-.61,2.24-.35,2.71.06.11.24.17.42.21h44.54c.56-.11,1.76-1.18,1.96-5.26l.02-.2,3.31-23.28,4.17.59-3.29,23.19c-.2,3.83-1.23,6.53-3.07,8.01-1.23,1-2.47,1.17-3.18,1.17Z"/><path class="cls-12-63f68b7937cfa" d="m54.85,30.48h52.45s4.11-.34,3.54,3.43l-12.01,69.65s.57,3.43-4.91,3.31h-53.59s-4.23,0-3.66-4.11l14.72-67.94s.48-4.34,3.45-4.34Z"/><path class="cls-8-63f68b7937cfa" d="m93.92,104.39h-53.59c-.31,0-.91-.16-1.11-.39-.1-.12-.14-.43-.1-.82l14.73-67.96v-.13c.13-.9.63-2.13,1-2.13h52.65s.05,0,.05,0c.41,0,.72.09.85.15,0,.07.01.2-.02.41l-12.1,70.22.07.16s-.02.04-.03.04c-.05.05-.5.45-2.14.45h-.26Z"/><g><path class="cls-13-63f68b7937cfa" d="m102.4,42.25c-.1.57-.63,1.03-1.2,1.03h-35.37c-.57,0-.95-.46-.85-1.03h0c.1-.57.63-1.03,1.2-1.03h35.37c.57,0,.95.46.85,1.03h0Z"/><path class="cls-13-63f68b7937cfa" d="m61.1,42.25c-.1.57-.63,1.03-1.2,1.03h-2.67c-.57,0-.95-.46-.85-1.03h0c.1-.57.63-1.03,1.2-1.03h2.67c.57,0,.95.46.85,1.03h0Z"/><path class="cls-13-63f68b7937cfa" d="m101.03,50.33c-.1.57-.63,1.03-1.2,1.03h-35.37c-.57,0-.95-.46-.85-1.03h0c.1-.57.63-1.03,1.2-1.03h35.37c.57,0,.95.46.85,1.03h0Z"/><path class="cls-13-63f68b7937cfa" d="m59.73,50.33c-.1.57-.63,1.03-1.2,1.03h-2.67c-.57,0-.95-.46-.85-1.03h0c.1-.57.63-1.03,1.2-1.03h2.67c.57,0,.95.46.85,1.03h0Z"/><path class="cls-13-63f68b7937cfa" d="m99.67,58.41c-.1.57-.63,1.03-1.2,1.03h-35.37c-.57,0-.95-.46-.85-1.03h0c.1-.57.63-1.03,1.2-1.03h35.37c.57,0,.95.46.85,1.03h0Z"/><path class="cls-13-63f68b7937cfa" d="m58.37,58.41c-.09.57-.63,1.03-1.2,1.03h-2.67c-.57,0-.95-.46-.85-1.03h0c.1-.57.63-1.03,1.2-1.03h2.67c.57,0,.95.46.85,1.03h0Z"/><path class="cls-13-63f68b7937cfa" d="m98.3,66.48c-.1.57-.63,1.03-1.2,1.03h-35.37c-.57,0-.95-.46-.85-1.03h0c.1-.57.63-1.03,1.2-1.03h35.37c.57,0,.95.46.85,1.03h0Z"/><path class="cls-13-63f68b7937cfa" d="m57,66.48c-.1.57-.63,1.03-1.2,1.03h-2.67c-.57,0-.95-.46-.85-1.03h0c.1-.57.63-1.03,1.2-1.03h2.67c.57,0,.95.46.85,1.03h0Z"/><path class="cls-13-63f68b7937cfa" d="m96.93,74.56c-.1.57-.63,1.03-1.2,1.03h-35.37c-.57,0-.95-.46-.85-1.03h0c.1-.57.63-1.03,1.2-1.03h35.37c.57,0,.95.46.85,1.03h0Z"/><path class="cls-13-63f68b7937cfa" d="m55.63,74.56c-.1.57-.63,1.03-1.2,1.03h-2.67c-.57,0-.95-.46-.85-1.03h0c.1-.57.63-1.03,1.2-1.03h2.67c.57,0,.95.46.85,1.03h0Z"/><path class="cls-13-63f68b7937cfa" d="m95.57,82.63c-.1.57-.63,1.03-1.2,1.03h-35.37c-.57,0-.95-.46-.85-1.03h0c.1-.57.63-1.03,1.2-1.03h35.37c.57,0,.95.46.85,1.03h0Z"/><path class="cls-13-63f68b7937cfa" d="m54.27,82.63c-.1.57-.63,1.03-1.2,1.03h-2.67c-.57,0-.95-.46-.85-1.03h0c.1-.57.63-1.03,1.2-1.03h2.67c.57,0,.95.46.85,1.03h0Z"/></g><path class="cls-14-63f68b7937cfa" d="m86.05,28.55c-.44,2.92-3.17,5.29-6.1,5.29h0c-2.92,0-4.93-2.37-4.49-5.29v-.07c.45-2.92,3.18-5.29,6.11-5.29h0c2.92,0,4.93,2.37,4.49,5.29v.07Z"/><path class="cls-14-63f68b7937cfa" d="m90.72,31.53c-.29,1.93-2.1,3.49-4.03,3.49h-14.74c-1.93,0-3.26-1.56-2.96-3.49h0c.29-1.93,2.09-3.49,4.02-3.49h14.74c1.93,0,3.26,1.56,2.96,3.49h0Z"/><path class="cls-17-63f68b7937cfa" d="m88.64,31.09c-.08.5-.54.9-1.03.9h0c-.5,0-.84-.4-.76-.9h0c.07-.51.54-.91,1.03-.91h0c.5,0,.84.4.76.9h0Z"/><path class="cls-17-63f68b7937cfa" d="m72.75,31.09c-.07.5-.54.9-1.03.9h0c-.5,0-.84-.4-.76-.9h0c.08-.51.54-.91,1.03-.91h0c.5,0,.84.4.76.9h0Z"/><path class="cls-7-63f68b7937cfa" d="m54.05,70.34c-2.48,0-4.92,2.03-5.45,4.53-.53,2.5,1.06,4.53,3.54,4.53s4.92-2.03,5.45-4.53c.53-2.5-1.06-4.53-3.54-4.53Zm-1.74,8.25c-2.04,0-3.35-1.67-2.91-3.72.43-2.06,2.44-3.72,4.48-3.72s3.35,1.67,2.91,3.72c-.43,2.06-2.44,3.72-4.48,3.72Z"/></g><path class="cls-9-63f68b7937cfa" d="m140.89,127.45s2.05,18.22,1.88,19.44c-.17,1.22-2.27,3.6-1.88,4.16.39.55,6.54-1.44,6.04-2.88-.5-1.44-.61-4.43-.66-5.48-.06-1.05.28-16.01.28-16.01l-5.65.78Z"/><path class="cls-9-63f68b7937cfa" d="m130.17,125.65s1.62,18.36,1.29,19.91c-.33,1.54-2.52,5.04-2.52,5.04,0,0,5.04-1.14,5.85-2.6.81-1.46-.16-3.17,0-4.47.16-1.3,1.87-17.87,1.87-17.87h-6.5Z"/><path class="cls-17-63f68b7937cfa" d="m135.08,145.98s1.03,1.53.98,3.11c-.05,1.58-.49,3.94-.49,3.94h-1.03s.11-3.21-.26-3.21-1.05,3.52-4.78,3.94c-3.73.42-5.41.21-4.62-.58.79-.79,4.36-3.84,4.73-3.68.37.16,2.47.21,3.68-.84,1.21-1.05,1.8-2.69,1.8-2.69Z"/><path class="cls-17-63f68b7937cfa" d="m146.47,147.14s1.03,1.53.98,3.11c-.05,1.58-.49,3.94-.49,3.94h-1.03s.1-3.21-.26-3.21-1.05,3.52-4.78,3.94c-3.73.42-5.41.21-4.63-.58.79-.79,4.36-3.84,4.73-3.68.37.16,2.47.21,3.68-.84,1.21-1.05,1.8-2.69,1.8-2.69Z"/><path class="cls-17-63f68b7937cfa" d="m130.02,103.93s-2.16,18.43-1.53,20.4c.63,1.97,1.47,6,1.88,11.83.41,5.84.41,8.76.41,8.76,0,0-.25,1.06,2.02,1.06s2.55-.59,2.63-.83c.08-.24,1.58-7.25,1.74-13.84.16-6.59-.5-4.64-.5-4.64l2.09-22.15s-6.33.14-8.73-.6Z"/><path class="cls-17-63f68b7937cfa" d="m136.67,104.53s-.74,16.82,0,18.23,1.69,6.17,3.67,12.1c1.98,5.93,2.44,12.03,2.44,12.03,0,0-1.61.7,2.2.25,3.82-.45,2.47-.43,2.47-.43,0,0,1.93-11.89.66-16.54-.81-2.95-2.5-5.22-2.5-5.22l.91-7.35s2.89-2.17,2.47-7.05c-.41-4.88-2.04-7.13-2.04-7.13l-10.29,1.11Z"/><path class="cls-16-63f68b7937cfa" d="m131.29,63.6s-1.69.57-1.35,2.83c.34,2.27.79,3.4-.28,4.59-1.08,1.19-2.72,4.54.51,6.18,3.23,1.64,7.35-2.04,7.43-4.42.08-2.38-6.3-9.18-6.3-9.18Z"/><path class="cls-11-63f68b7937cfa" d="m131.38,65.08s-.2.76,0,1.35c.2.6.64.68.56,1.63-.08.95-.32,2.11.24,3.34.56,1.23,1.35,3.3,2.43,3.42,1.07.12,3.82-.2,4.81-1.47.99-1.27-1.07-8.04-2.82-8.79-1.75-.76-5.21.52-5.21.52Z"/><path class="cls-16-63f68b7937cfa" d="m130.62,63.88s-.06,2.72,2.66,3.52c2.72.79,3.69-.45,4.25,1.42.57,1.87-.96,4.13,2.38,6.03,3.35,1.9,6.18,1.9,7.31,4.8,1.13,2.89.91,6.35,3.46,7.37,2.55,1.02,7.48-2.32,5.95-8.51-1.53-6.18-9.53-6.07-11.51-8-1.98-1.93-1.76-8.9-6.69-9.87-4.93-.96-7.6,1.81-7.82,3.23Z"/><path class="cls-7-63f68b7937cfa" d="m134.5,75.87s-4.16.74-5.11,1.83c-.95,1.09-6.71,12.78-8.32,14.01-1.6,1.23-2.04,1.3-2.04,1.3,0,0,3.16,2.44,3.95,2.13.79-.31,5.49-5.38,5.49-5.38,0,0,1.65.84,1.58,1.64-.07.8-1.31,10.94-.22,12.33,1.09,1.39,6.56,1.61,11.67,1.17,5.11-.44,5.98-1.31,5.4-2.33-.58-1.02.16-3.94.16-3.94,0,0,5.82-.8,6.12-2.99.29-2.19-4.48-16.68-5.45-17.66-.97-.98-6.11-2.75-6.11-2.75l-7.11.64Z"/><path class="cls-18-63f68b7937cfa" d="m134.6,74.82v1.1s1.39.28,2.99.09c1.61-.18,3.12-.74,3.12-.74l-2-1.31s-2.24,1.03-4.11.86Z"/><path class="cls-2-63f68b7937cfa" d="m144.83,82.41s-.59,1.36,0,3.42c.59,2.06,1.42,6.6,2.42,7.31,1,.71,2,1.06,2.24,1.24.24.18-1.83-.53-3.36-.47-1.53.06-10.98,4.18-10.98,4.18,0,0,9.8-4.01,10.16-5.66.35-1.65-1.24-6.6-1.47-8.07-.24-1.47,1-1.94,1-1.94Z"/><path class="cls-5-63f68b7937cfa" d="m130.95,81.19s-2.94,4.22-2.48,6.1c.46,1.88.76,2.96.76,2.96l-.76-.48-5.83,5.38s4.74-6.37,4.9-8.34c.16-1.97,3.41-5.62,3.41-5.62Z"/><polygon class="cls-14-63f68b7937cfa" points="121.98 91.71 136.11 98.36 116.44 101.62 102.64 93.21 121.98 91.71"/><polygon class="cls-17-63f68b7937cfa" points="116.44 101.62 122.64 112.22 107.32 103.42 102.64 93.21 116.44 101.62"/><polygon class="cls-20-63f68b7937cfa" points="136.11 98.36 136.11 98.85 117.39 102.01 122.95 111.71 122.64 112.22 116.44 101.62 136.11 98.36"/><path class="cls-11-63f68b7937cfa" d="m134.82,98.3s1.05.49,1.29,1.53c.24,1.04.14,1.8.14,1.8,0,0-4.81.93-7.99.74-3.18-.2-5.29-1.82-5.08-1.85.2-.03,5.34-.61,5.16-.86-.18-.25-.66-.93-1.15-1.16-.49-.23-.91-.26-1.3-.41-.39-.14-.49-.47-.49-.47,0,0,1.78-.29,2.92,0,1.15.29,2.28,1.14,3.83,1.01,1.56-.13,2.66-.33,2.66-.33Z"/><path class="cls-14-63f68b7937cfa" d="m17.24,146.56s-.49,3.86.49,5.02c.99,1.16,4.13-.88,4.28-1.69.15-.81.1-3.79.1-3.79l-4.87.46Z"/><path class="cls-17-63f68b7937cfa" d="m17.09,149.89c-.39,0-.52.38-.49,1.46.03,1.07.05,2.26.39,2.44.34.18,13.6.46,13.5-.11-.1-.57-.05-2.37-1.8-2.42-1.75-.04-3.6-.71-4.2-1.18-.61-.47-1.44-1.09-1.85-.69-.41.41-2.01,1.16-3.25,1.12-1.24-.03-2.3-.62-2.3-.62Z"/><path class="cls-14-63f68b7937cfa" d="m27.86,146.64s-.5,3.98.49,5.18c.99,1.2,4.13-.92,4.28-1.75.15-.83.1-3.91.1-3.91l-4.87.48Z"/><path class="cls-17-63f68b7937cfa" d="m27.64,150.7c-.39,0-.52.38-.49,1.46.03,1.07.06,2.26.39,2.44.33.18,13.6.46,13.5-.11-.1-.57-.05-2.37-1.8-2.42-1.75-.04-3.6-.71-4.2-1.18-.61-.47-1.44-1.09-1.85-.69-.41.41-2.01,1.16-3.25,1.12-1.24-.03-2.3-.62-2.3-.62Z"/><path class="cls-17-63f68b7937cfa" d="m15.68,98.08s-.99,3.39-.78,6.07c.2,2.68,1.71,5.74,1.71,5.74l2.13,17.17s-2.09,1.78-1.94,9.13c.16,7.35-.2,11.61-.2,11.61,0,0,.13,1.19,2.79.87,2.66-.33,3.25-1.12,3.25-1.12,0,0-.83-10.33,1.6-17.51,2.43-7.18,1.83-29.42,1.83-29.42l-10.4-2.55Z"/><path class="cls-17-63f68b7937cfa" d="m21.54,100.64s-.54,3.98,1.51,7.1c2.05,3.12,2.7,3.15,2.7,3.15l1.95,15.61s-1.93,3.78-1.56,9.17,1.01,11.61,1.01,11.61c0,0,1.17,1.45,3.34.54l2.17-.9s.07-14.52,1.43-19.84c1.36-5.33.57-28.99.57-28.99l-13.13,2.55Z"/><g><path class="cls-10-63f68b7937cfa" d="m31.81,55.87s.54,3.31.27,3.57c-.26.27-.52.67-.52.67,0,0,.66.79.52,1.82-.15,1.13-.85,3.93-1.48,4.16-.63.23-2.15.21-2.63.76s-.41,2.15-.41,2.15l-6.52-1.04s.74-5.25.89-5.81,1.85-5.37,1.85-5.37l8.03-.91Z"/><path class="cls-17-63f68b7937cfa" d="m31.61,57.01c-1.72,1.01-1.61,1.92-2.09,2.83-.48.91.21,2.19-.27,2.6-.48.41-.52-2.33-1.29-2.24s-1.51,1.14-.94,1.95c.57.81-.56,2.31-1.95,2.31s-4.03.49-4.24-1.5c-.21-1.99-2.05-3.79-1.86-5.95s1.48-2.42,1.48-2.42c0,0-.97-4.09,5.85-3.68,9.18.55,7.03,5.09,5.31,6.1Z"/><path class="cls-7-63f68b7937cfa" d="m47.83,75.83c-.15.48-2.12,3.18-4.19,5.58-1.77,2.05-3.62,3.89-4.47,3.92-1.79.06-4.69-2.85-4.87-3.04h0s-.59,9.64.32,12.28c.91,2.64-.36,4.73-4.94,5.71-4.59.98-14.73.25-14.58-2.89.15-3.14.02-5.44.02-5.44,0,0-4.94-.19-5.05-3.42-.11-3.23,1.39-13.35,1.39-13.35,0,0,1.32-6.44,4.2-6.43,2.88,0,2.49-.7,3.93-.7,1.44,0,8.01-.27,8.7.22.69.49.08.82,1.67.82,1.59,0,1.73-.26,3.76,2.03,2.03,2.29,4.99,7.76,6.41,7.1,1.41-.67,5.53-4.86,5.89-4.93.35-.06,2.11,1.68,1.83,2.56Z"/><path class="cls-17-63f68b7937cfa" d="m47.7,70.85l-5.47-4.33,1.27-1.35,8.39,6.67s.39.83.05,1.35c-.35.52-.72.39-.72.39l-3.51-2.73Z"/><path class="cls-10-63f68b7937cfa" d="m46.18,73.32s-.24-1.09-.07-1.94c.17-.84.52-1.49.52-1.49,0,0,.38.32.4.75.01.43,1.13-.24,1.55-.82.41-.58.7-2.07,1.18-1.63.48.45.8,2.66-.07,4.39-.87,1.73-1.89,2.66-1.89,2.66,0,0-.88-1.54-1.62-1.93Z"/><path class="cls-15-63f68b7937cfa" d="m43.43,66.28c-.34.39-.83.51-1.09.28-.27-.23-.21-.73.13-1.12.34-.39.83-.51,1.09-.28.27.23.21.73-.13,1.12Z"/><path class="cls-3-63f68b7937cfa" d="m15.1,91.95s-.28-13.36-.08-15.57c.2-2.22-.09-2.57-.09-2.57,0,0-.7,5.82-1.22,9.12-.52,3.29-1.46,4.68-1.46,4.68,0,0,1.44-.86,1.64.03.2.89,1.22,4.31,1.22,4.31Z"/><path class="cls-4-63f68b7937cfa" d="m43.64,81.41c-1.77,2.05-3.62,3.89-4.47,3.92-1.79.06-4.69-2.85-4.87-3.04h0s-.93-4.04-1.05-5.33l-.11-1.29s2.05,5.4,3.52,6.52c1.47,1.12,3.24,1.93,5.31.34.54-.42,1.13-.8,1.69-1.13Z"/></g></g></svg>