<svg xmlns="http://www.w3.org/2000/svg" xmlns:xlink="http://www.w3.org/1999/xlink" version="1.1" x="0px" y="0px" viewBox="0 0 100 100" enable-background="new 0 0 100 100" xml:space="preserve" width="100px" height="100px"><path d="M79.419,53.396c-1.028-1.168-2.278-1.991-3.61-2.593c4.981-2.685,6.227-10.698,4.157-17.072  c-1.695-5.215-8.721-6.803-12.144-7.271c0.062-0.58,0.102-1.164,0.102-1.754c0-9.218-7.5-16.718-16.718-16.718  c-9.218,0-16.718,7.5-16.718,16.718c0,0.537,0.034,1.066,0.084,1.593c-1.349,0.119-3.266,0.455-5.574,1.322  c-5.404,2.03-6.793,9.835-7.105,12.352c-3.023,2.17-3.578,6.946-3.098,10.109c0.151,1.001,0.669,1.78,1.497,2.252  c0.381,0.217,0.81,0.349,1.275,0.422c0.389,1.773,1.417,4.983,3.997,7.065c0.259,0.209,0.528,0.398,0.804,0.574  c-0.425,2.333-2.515,13.812-2.843,15.941c-0.301,1.957-1.217,7.913,3.78,9.986l4.264,1.659c-0.331,0.985-0.518,2.036-0.523,3.129  c-0.021,0.39-0.016,1.683,0.846,2.613c0.528,0.57,1.247,0.872,2.079,0.872h13.986c0.853,0,1.944-0.335,2.696-1.127  c0.063,0.086,0.124,0.174,0.199,0.255c0.527,0.57,1.246,0.872,2.079,0.872h13.986c1.435,0,3.568-0.915,3.568-3.438  c0-1.03-0.158-2.025-0.45-2.963l4.837-1.881c4.976-2.065,4.059-8.021,3.758-9.979c-0.278-1.806-1.775-10.076-2.477-13.929  c0.066,0.002,0.129,0.013,0.195,0.013c0.563,0,1.163-0.093,1.781-0.323c1.405-0.525,2.431-1.701,2.813-3.226  C81.407,57.021,80.852,55.024,79.419,53.396z M57.867,36.701c-0.049,0.027-0.09,0.063-0.135,0.094  c-3.903-0.041-7.964,0.264-11.689,0.647c-0.058-0.034-0.114-0.07-0.177-0.097c-2.326-0.983-4.269-2.558-5.701-4.5l21.86,0.29  C60.911,34.568,59.506,35.789,57.867,36.701z M30.054,30.428c2.229-0.837,3.982-1.091,5.074-1.161  c0.983,3.479,3.071,6.543,5.954,8.735c-0.362,0.044-0.727,0.088-1.074,0.13c-2.873,0.349-5.59,0.677-6.464,0.581l-0.585-0.066  c-2.823-0.318-4.805-0.538-7.839,0.099C25.703,35.749,27.134,31.525,30.054,30.428z M24.6,41.95  c3.259-0.859,4.952-0.667,8.023-0.321l0.59,0.066c1.17,0.131,3.259-0.111,7.157-0.584c7.778-0.944,19.533-2.37,26.846-0.131  c0.791,0.244,1.631-0.203,1.874-0.995c0.242-0.792-0.203-1.631-0.995-1.873c-1.706-0.522-3.614-0.855-5.628-1.06  c2.265-2.069,3.917-4.717,4.777-7.65c3.26,0.413,8.747,1.804,9.869,5.257c1.733,5.335,0.666,12.363-3.357,13.783  c-0.942,0.333-2.512,0.613-4.513,0.818c-0.012,0.001-0.023,0.002-0.035,0.004c-7.557,0.769-21.292,0.447-31.354-2.379  c-0.614-0.227-3.529-1.13-7.39,0.394l-1.058,0.423c-1.298,0.524-4.667,1.882-6.508,2.129c-0.068-0.003-0.137-0.008-0.208-0.002  c-0.064,0.006-0.124,0.023-0.186,0.038c-0.317,0.013-0.571-0.019-0.714-0.123c0,0-0.017-0.031-0.029-0.113  C21.341,46.862,21.944,42.648,24.6,41.95z M49.523,85.176c-1.866-2.502-4.859-4.136-8.239-4.136c-2.415,0-4.633,0.834-6.386,2.221  V61.192c1.369-0.247,3.466-0.535,6.335-0.679c2.038-0.1,5.021-0.021,8.29,0.096V85.176z M47.939,91.596l-13.866-0.002  c-0.022-0.099-0.037-0.229-0.032-0.318l0.004-0.117c0-3.925,3.248-7.118,7.239-7.118c3.992,0,7.24,3.193,7.24,7.118  C48.524,91.313,48.524,91.573,47.939,91.596z M52.523,84.533V60.719c5.315,0.196,10.688,0.37,14.07-0.016l0.234-0.046  c0.01-0.003,0.302-0.078,0.757-0.155L66.77,83.367c-1.772-1.452-4.047-2.327-6.524-2.327C57.164,81.04,54.402,82.397,52.523,84.533z   M66.899,91.596l-13.866-0.002c-0.022-0.099-0.036-0.229-0.032-0.318l0.005-0.117c0-3.925,3.247-7.118,7.239-7.118  s7.239,3.193,7.239,7.118C67.484,91.313,67.484,91.573,66.899,91.596z M78.032,58.141c-0.139,0.554-0.486,0.971-0.953,1.146  c-1.351,0.505-2.708-0.62-2.712-0.624l-0.202-0.148c-3.069-1.892-7.215-0.98-8.015-0.779c-3.361,0.365-8.979,0.156-14.416-0.047  c-4.141-0.153-8.051-0.299-10.65-0.17c-5.315,0.266-8.195,1.005-8.889,1.204c-1.918,0.192-3.467-0.208-4.735-1.226  c-1.703-1.367-2.503-3.556-2.862-4.967c1.719-0.395,3.713-1.15,5.93-2.045l1.037-0.416c3.065-1.209,5.161-0.405,5.232-0.377  l0.178,0.063c9.927,2.803,24.06,3.348,32.395,2.512c2.814,0.327,5.908,0.966,7.797,3.111C77.938,56.254,78.253,57.262,78.032,58.141  z"/></svg>