<!-- Generator: Adobe Illustrator 25.0.1, SVG Export Plug-In  -->
<svg version="1.1" xmlns="http://www.w3.org/2000/svg" xmlns:xlink="http://www.w3.org/1999/xlink" x="0px" y="0px" width="695.9px"
	 height="593.4px" viewBox="0 0 695.9 593.4" style="overflow:visible;enable-background:new 0 0 695.9 593.4;"
	 xml:space="preserve">
<style type="text/css">
	.st0{fill:none;stroke:#FFFFFF;stroke-width:2;stroke-miterlimit:10;}
</style>
<defs>
</defs>
<line class="st0" x1="450.3" y1="592.4" x2="343" y2="584.1"/>
<line class="st0" x1="518.6" y1="386" x2="536.8" y2="498.6"/>
<line class="st0" x1="296.3" y1="154.3" x2="221.3" y2="394"/>
<line class="st0" x1="91.9" y1="281.2" x2="121.5" y2="392.4"/>
<line class="st0" x1="158.4" y1="136.3" x2="231.5" y2="100.5"/>
<g>
	<line class="st0" x1="103" y1="85.4" x2="113.6" y2="58.5"/>
	<circle class="st0" cx="118.2" cy="46" r="13.5"/>
</g>
<g>
	<line class="st0" x1="18.6" y1="300.8" x2="27.8" y2="277.2"/>
	<circle class="st0" cx="14.5" cy="313.2" r="13.5"/>
</g>
<g>
	<line class="st0" x1="422.8" y1="26.2" x2="465.1" y2="16.8"/>
	<circle class="st0" cx="477.6" cy="14.5" r="13.5"/>
</g>
<g>
	<line class="st0" x1="464.4" y1="377.9" x2="426.9" y2="458.7"/>
	<circle class="st0" cx="419.2" cy="469.8" r="13.5"/>
</g>
<g>
	<line class="st0" x1="645.3" y1="554" x2="670" y2="539.7"/>
	<circle class="st0" cx="681.4" cy="533.2" r="13.5"/>
</g>
<g>
	<line class="st0" x1="373.4" y1="146" x2="387.8" y2="170.6"/>
	<circle class="st0" cx="394.2" cy="182.1" r="13.5"/>
</g>
</svg>
