<!-- Generator: Adobe Illustrator 25.0.1, SVG Export Plug-In  -->
<svg version="1.1" xmlns="http://www.w3.org/2000/svg" xmlns:xlink="http://www.w3.org/1999/xlink" x="0px" y="0px" width="168.6px"
	 height="127.9px" viewBox="0 0 168.6 127.9" style="overflow:visible;enable-background:new 0 0 168.6 127.9;"
	 xml:space="preserve">
<style type="text/css">
	.st0{fill:#FFFFFF;}
</style>
<defs>
</defs>
<g>
	<path class="st0" d="M130.8,0C109.9,0,93,16.9,93,37.8c0,16.8,11,31,26.2,35.9v33.8c0,6.4,5.2,11.6,11.6,11.6
		c6.4,0,11.6-5.2,11.6-11.6V73.7c15.2-4.9,26.2-19.2,26.2-35.9C168.6,16.9,151.6,0,130.8,0z M130.8,113.3c-3.2,0-5.8-2.6-5.8-5.8
		V87.2h11.6v20.3C136.6,110.7,134,113.3,130.8,113.3z M136.6,81.4H125v-6.3c1.9,0.3,3.8,0.5,5.8,0.5s3.9-0.2,5.8-0.5V81.4z
		 M130.8,69.8c-17.6,0-32-14.3-32-32s14.3-32,32-32s32,14.3,32,32S148.4,69.8,130.8,69.8z"/>
	<path class="st0" d="M131.9,23.3c2.6,0,4.7,2.1,4.7,4.7c0,1.6-0.8,3-2.1,3.9l-5.3,3.6c-0.8,0.5-1.3,1.4-1.3,2.4v5.8h5.8v-4.3
		l4.1-2.7c2.9-2,4.7-5.2,4.7-8.7c0-5.8-4.7-10.5-10.5-10.5h-2.3c-5.8,0-10.5,4.7-10.5,10.5h5.8c0-2.6,2.1-4.7,4.7-4.7H131.9z"/>
	<path class="st0" d="M127.9,49.4h5.8v5.8h-5.8V49.4z"/>
	<path class="st0" d="M110.2,71.1l-18.1,28c-0.7-0.2-1.3-0.3-2-0.3c-2.1,0-4,0.8-5.5,2L55,83.1c0.1-0.6,0.2-1.1,0.2-1.7
		c0-4.8-3.9-8.7-8.7-8.7s-8.7,3.9-8.7,8.7c0,1.3,0.3,2.6,0.9,3.7l-26.2,26.2l0.1,0.1c-1.2-0.6-2.5-0.9-3.8-0.9
		c-4.8,0-8.7,3.9-8.7,8.7c0,4.8,3.9,8.7,8.7,8.7s8.7-3.9,8.7-8.7c0-1.4-0.4-2.7-0.9-3.8l0.1,0.1l26.2-26.2c1.1,0.5,2.4,0.9,3.7,0.9
		c2.1,0,4-0.8,5.5-2l29.5,17.7c-0.1,0.6-0.2,1.1-0.2,1.7c0,4.8,3.9,8.7,8.7,8.7s8.7-3.9,8.7-8.7c0-2-0.7-3.8-1.8-5.3l18.1-28
		L110.2,71.1z M8.7,122.1c-1.6,0-2.9-1.3-2.9-2.9s1.3-2.9,2.9-2.9s2.9,1.3,2.9,2.9S10.3,122.1,8.7,122.1z M46.5,84.3
		c-1.6,0-2.9-1.3-2.9-2.9s1.3-2.9,2.9-2.9c1.6,0,2.9,1.3,2.9,2.9S48.1,84.3,46.5,84.3z M90.1,110.4c-1.6,0-2.9-1.3-2.9-2.9
		s1.3-2.9,2.9-2.9s2.9,1.3,2.9,2.9S91.7,110.4,90.1,110.4z"/>
	<path class="st0" d="M130.8,8.7v5.8c12.8,0,23.3,10.4,23.3,23.3S143.6,61,130.8,61v5.8c16,0,29.1-13,29.1-29.1S146.8,8.7,130.8,8.7
		z"/>
</g>
</svg>
