<!-- Generator: Adobe Illustrator 25.0.1, SVG Export Plug-In  -->
<svg version="1.1" xmlns="http://www.w3.org/2000/svg" xmlns:xlink="http://www.w3.org/1999/xlink" x="0px" y="0px" width="847.2px"
	 height="481.1px" viewBox="0 0 847.2 481.1" style="overflow:visible;enable-background:new 0 0 847.2 481.1;"
	 xml:space="preserve">
<style type="text/css">
	.st0{fill:#0476A8;}
	.st1{opacity:0.33;}
</style>
<defs>
</defs>
<g>
	<path class="st0" d="M272.5,98.2H142.2L77.1,211l65.2,112.8h130.3L337.7,211L272.5,98.2z M254.6,292.8h-94.4L113,211l47.2-81.8
		h94.4l47.2,81.8L254.6,292.8z"/>
	<path class="st0" d="M242.8,149.7H172L136.6,211l35.4,61.3h70.8l35.4-61.3L242.8,149.7z M233.1,255.5h-51.3L156.1,211l25.7-44.4
		h51.3l25.7,44.4L233.1,255.5z"/>
	<path class="st0" d="M220.3,188.7h-25.8L181.6,211l12.9,22.4h25.8l12.9-22.4L220.3,188.7z M216.8,227.3H198l-9.4-16.2l9.4-16.2
		h18.7l9.4,16.2L216.8,227.3z"/>
	<g>
		<path class="st0" d="M284,343.7H130.8L54.2,211l76.6-132.6H284L360.6,211L284,343.7z M133.2,339.5h148.3L355.7,211L281.6,82.6
			H133.2L59.1,211L133.2,339.5z"/>
	</g>
	<g>
		<polygon class="st0" points="287.1,86.1 284.2,83.1 292.1,75.2 580.7,75.2 580.7,79.4 293.8,79.4 		"/>
	</g>
	<polygon class="st0" points="573.7,89.4 566.7,77.3 573.7,65.2 587.6,65.2 594.6,77.3 587.6,89.4 	"/>
	<polygon class="st0" points="475.2,135.8 468.2,123.7 475.2,111.6 489.1,111.6 496.1,123.7 489.1,135.8 	"/>
	<polygon class="st0" points="440.8,40.3 433.8,28.2 440.8,16.1 454.8,16.1 461.8,28.2 454.8,40.3 	"/>
	<polygon class="st0" points="440.8,40.3 433.8,28.2 440.8,16.1 454.8,16.1 461.8,28.2 454.8,40.3 	"/>
	<polygon class="st0" points="723.2,223.1 716.2,211 723.2,199 737.2,199 744.1,211 737.2,223.1 	"/>
	<polygon class="st0" points="593,280.6 586.1,268.5 593,256.4 607,256.4 614,268.5 607,280.6 	"/>
	<polygon class="st0" points="587.6,166.6 580.7,154.5 587.6,142.5 601.6,142.5 608.6,154.5 601.6,166.6 	"/>
	<polygon class="st0" points="668.4,375.5 661.5,363.4 668.4,351.4 682.4,351.4 689.4,363.4 682.4,375.5 	"/>
	<polygon class="st0" points="495.5,409.5 488.5,397.5 495.5,385.4 509.4,385.4 516.4,397.5 509.4,409.5 	"/>
	<g>
		<polygon class="st0" points="327.8,157.5 324.9,154.5 357.1,122.3 482.2,122.3 482.2,126.5 358.8,126.5 		"/>
	</g>
	<g>
		<rect x="358.1" y="209" class="st0" width="372" height="4.2"/>
	</g>
	<g>
		
			<rect x="390.8" y="67.7" transform="matrix(0.7071 -0.7071 0.7071 0.7071 44.0079 307.2727)" class="st0" width="4.2" height="65.7"/>
	</g>
	<g>
		<polygon class="st0" points="338.1,78.8 335.1,75.8 384.8,26.1 447.8,26.1 447.8,30.3 386.6,30.3 		"/>
	</g>
	<g>
		<polygon class="st0" points="600,270.6 466.4,270.6 408.4,212.5 411.3,209.6 468.2,266.4 600,266.4 		"/>
	</g>
	<g>
		<polygon class="st0" points="675.4,365.5 431.3,365.5 430.7,364.9 328,262.2 330.9,259.3 433,361.3 675.4,361.3 		"/>
	</g>
	<g>
		
			<rect x="379.5" y="289.4" transform="matrix(0.707 -0.7072 0.7072 0.707 -81.4923 386.1877)" class="st0" width="91.8" height="4.2"/>
	</g>
	<g>
		<polygon class="st0" points="346.7,190.2 343.7,187.2 378.5,152.4 594.6,152.4 594.6,156.6 380.2,156.6 		"/>
	</g>
	<g>
		<polygon class="st0" points="504.9,399.6 365.7,399.6 291.5,325.4 294.5,322.4 367.4,395.4 504.9,395.4 		"/>
	</g>
	<g>
		<g class="st1">
			<polygon class="st0" points="204,8.3 201.6,4.1 204,0 208.8,0 211.2,4.1 208.8,8.3 			"/>
			<polygon class="st0" points="218.4,8.3 216,4.1 218.4,0 223.1,0 225.5,4.1 223.1,8.3 			"/>
			<polygon class="st0" points="232.7,8.3 230.3,4.1 232.7,0 237.5,0 239.9,4.1 237.5,8.3 			"/>
			<polygon class="st0" points="247.1,8.3 244.7,4.1 247.1,0 251.9,0 254.2,4.1 251.9,8.3 			"/>
			<polygon class="st0" points="261.4,8.3 259.1,4.1 261.4,0 266.2,0 268.6,4.1 266.2,8.3 			"/>
			<polygon class="st0" points="275.8,8.3 273.4,4.1 275.8,0 280.6,0 283,4.1 280.6,8.3 			"/>
			<polygon class="st0" points="290.2,8.3 287.8,4.1 290.2,0 294.9,0 297.3,4.1 294.9,8.3 			"/>
			<polygon class="st0" points="304.5,8.3 302.1,4.1 304.5,0 309.3,0 311.7,4.1 309.3,8.3 			"/>
			<polygon class="st0" points="318.9,8.3 316.5,4.1 318.9,0 323.7,0 326.1,4.1 323.7,8.3 			"/>
			<polygon class="st0" points="333.3,8.3 330.9,4.1 333.3,0 338,0 340.4,4.1 338,8.3 			"/>
			<polygon class="st0" points="347.6,8.3 345.2,4.1 347.6,0 352.4,0 354.8,4.1 352.4,8.3 			"/>
		</g>
		<g class="st1">
			<polygon class="st0" points="351.1,8.3 348.8,4.1 351.1,0 355.9,0 358.3,4.1 355.9,8.3 			"/>
			<polygon class="st0" points="365.5,8.3 363.1,4.1 365.5,0 370.3,0 372.7,4.1 370.3,8.3 			"/>
			<polygon class="st0" points="379.9,8.3 377.5,4.1 379.9,0 384.7,0 387,4.1 384.7,8.3 			"/>
			<polygon class="st0" points="394.2,8.3 391.9,4.1 394.2,0 399,0 401.4,4.1 399,8.3 			"/>
			<polygon class="st0" points="408.6,8.3 406.2,4.1 408.6,0 413.4,0 415.8,4.1 413.4,8.3 			"/>
			<polygon class="st0" points="423,8.3 420.6,4.1 423,0 427.7,0 430.1,4.1 427.7,8.3 			"/>
			<polygon class="st0" points="437.3,8.3 434.9,4.1 437.3,0 442.1,0 444.5,4.1 442.1,8.3 			"/>
			<polygon class="st0" points="451.7,8.3 449.3,4.1 451.7,0 456.5,0 458.9,4.1 456.5,8.3 			"/>
			<polygon class="st0" points="466.1,8.3 463.7,4.1 466.1,0 470.8,0 473.2,4.1 470.8,8.3 			"/>
			<polygon class="st0" points="480.4,8.3 478,4.1 480.4,0 485.2,0 487.6,4.1 485.2,8.3 			"/>
			<polygon class="st0" points="494.8,8.3 492.4,4.1 494.8,0 499.6,0 502,4.1 499.6,8.3 			"/>
		</g>
	</g>
	<g>
		<g class="st1">
			<polygon class="st0" points="204,430.8 201.6,426.6 204,422.5 208.8,422.5 211.2,426.6 208.8,430.8 			"/>
			<polygon class="st0" points="218.4,430.8 216,426.6 218.4,422.5 223.1,422.5 225.5,426.6 223.1,430.8 			"/>
			<polygon class="st0" points="232.7,430.8 230.3,426.6 232.7,422.5 237.5,422.5 239.9,426.6 237.5,430.8 			"/>
			<polygon class="st0" points="247.1,430.8 244.7,426.6 247.1,422.5 251.9,422.5 254.2,426.6 251.9,430.8 			"/>
			<polygon class="st0" points="261.4,430.8 259.1,426.6 261.4,422.5 266.2,422.5 268.6,426.6 266.2,430.8 			"/>
			<polygon class="st0" points="275.8,430.8 273.4,426.6 275.8,422.5 280.6,422.5 283,426.6 280.6,430.8 			"/>
			<polygon class="st0" points="290.2,430.8 287.8,426.6 290.2,422.5 294.9,422.5 297.3,426.6 294.9,430.8 			"/>
			<polygon class="st0" points="304.5,430.8 302.1,426.6 304.5,422.5 309.3,422.5 311.7,426.6 309.3,430.8 			"/>
			<polygon class="st0" points="318.9,430.8 316.5,426.6 318.9,422.5 323.7,422.5 326.1,426.6 323.7,430.8 			"/>
			<polygon class="st0" points="333.3,430.8 330.9,426.6 333.3,422.5 338,422.5 340.4,426.6 338,430.8 			"/>
			<polygon class="st0" points="347.6,430.8 345.2,426.6 347.6,422.5 352.4,422.5 354.8,426.6 352.4,430.8 			"/>
		</g>
		<g class="st1">
			<polygon class="st0" points="351.1,430.8 348.8,426.6 351.1,422.5 355.9,422.5 358.3,426.6 355.9,430.8 			"/>
			<polygon class="st0" points="365.5,430.8 363.1,426.6 365.5,422.5 370.3,422.5 372.7,426.6 370.3,430.8 			"/>
			<polygon class="st0" points="379.9,430.8 377.5,426.6 379.9,422.5 384.7,422.5 387,426.6 384.7,430.8 			"/>
			<polygon class="st0" points="394.2,430.8 391.9,426.6 394.2,422.5 399,422.5 401.4,426.6 399,430.8 			"/>
			<polygon class="st0" points="408.6,430.8 406.2,426.6 408.6,422.5 413.4,422.5 415.8,426.6 413.4,430.8 			"/>
			<polygon class="st0" points="423,430.8 420.6,426.6 423,422.5 427.7,422.5 430.1,426.6 427.7,430.8 			"/>
			<polygon class="st0" points="437.3,430.8 434.9,426.6 437.3,422.5 442.1,422.5 444.5,426.6 442.1,430.8 			"/>
			<polygon class="st0" points="451.7,430.8 449.3,426.6 451.7,422.5 456.5,422.5 458.9,426.6 456.5,430.8 			"/>
			<polygon class="st0" points="466.1,430.8 463.7,426.6 466.1,422.5 470.8,422.5 473.2,426.6 470.8,430.8 			"/>
			<polygon class="st0" points="480.4,430.8 478,426.6 480.4,422.5 485.2,422.5 487.6,426.6 485.2,430.8 			"/>
			<polygon class="st0" points="494.8,430.8 492.4,426.6 494.8,422.5 499.6,422.5 502,426.6 499.6,430.8 			"/>
		</g>
	</g>
	<g>
		<g class="st1">
			<polygon class="st0" points="77.7,481.1 75.3,476.9 77.7,472.8 82.5,472.8 84.9,476.9 82.5,481.1 			"/>
			<polygon class="st0" points="92.1,481.1 89.7,476.9 92.1,472.8 96.9,472.8 99.3,476.9 96.9,481.1 			"/>
			<polygon class="st0" points="106.5,481.1 104.1,476.9 106.5,472.8 111.2,472.8 113.6,476.9 111.2,481.1 			"/>
			<polygon class="st0" points="120.8,481.1 118.4,476.9 120.8,472.8 125.6,472.8 128,476.9 125.6,481.1 			"/>
			<polygon class="st0" points="135.2,481.1 132.8,476.9 135.2,472.8 140,472.8 142.3,476.9 140,481.1 			"/>
			<polygon class="st0" points="149.5,481.1 147.2,476.9 149.5,472.8 154.3,472.8 156.7,476.9 154.3,481.1 			"/>
			<polygon class="st0" points="163.9,481.1 161.5,476.9 163.9,472.8 168.7,472.8 171.1,476.9 168.7,481.1 			"/>
			<polygon class="st0" points="178.3,481.1 175.9,476.9 178.3,472.8 183.1,472.8 185.4,476.9 183.1,481.1 			"/>
			<polygon class="st0" points="192.6,481.1 190.3,476.9 192.6,472.8 197.4,472.8 199.8,476.9 197.4,481.1 			"/>
			<polygon class="st0" points="207,481.1 204.6,476.9 207,472.8 211.8,472.8 214.2,476.9 211.8,481.1 			"/>
			<polygon class="st0" points="221.4,481.1 219,476.9 221.4,472.8 226.1,472.8 228.5,476.9 226.1,481.1 			"/>
		</g>
		<g class="st1">
			<polygon class="st0" points="224.9,481.1 222.5,476.9 224.9,472.8 229.7,472.8 232.1,476.9 229.7,481.1 			"/>
			<polygon class="st0" points="239.3,481.1 236.9,476.9 239.3,472.8 244,472.8 246.4,476.9 244,481.1 			"/>
			<polygon class="st0" points="253.6,481.1 251.2,476.9 253.6,472.8 258.4,472.8 260.8,476.9 258.4,481.1 			"/>
			<polygon class="st0" points="268,481.1 265.6,476.9 268,472.8 272.8,472.8 275.1,476.9 272.8,481.1 			"/>
			<polygon class="st0" points="282.3,481.1 280,476.9 282.3,472.8 287.1,472.8 289.5,476.9 287.1,481.1 			"/>
			<polygon class="st0" points="296.7,481.1 294.3,476.9 296.7,472.8 301.5,472.8 303.9,476.9 301.5,481.1 			"/>
			<polygon class="st0" points="311.1,481.1 308.7,476.9 311.1,472.8 315.8,472.8 318.2,476.9 315.8,481.1 			"/>
			<polygon class="st0" points="325.4,481.1 323,476.9 325.4,472.8 330.2,472.8 332.6,476.9 330.2,481.1 			"/>
			<polygon class="st0" points="339.8,481.1 337.4,476.9 339.8,472.8 344.6,472.8 347,476.9 344.6,481.1 			"/>
			<polygon class="st0" points="354.2,481.1 351.8,476.9 354.2,472.8 358.9,472.8 361.3,476.9 358.9,481.1 			"/>
			<polygon class="st0" points="368.5,481.1 366.1,476.9 368.5,472.8 373.3,472.8 375.7,476.9 373.3,481.1 			"/>
		</g>
	</g>
	<g>
		<g class="st1">
			<polygon class="st0" points="340.7,192.8 338.3,188.7 340.7,184.5 345.5,184.5 347.9,188.7 345.5,192.8 			"/>
			<polygon class="st0" points="355.1,192.8 352.7,188.7 355.1,184.5 359.8,184.5 362.2,188.7 359.8,192.8 			"/>
			<polygon class="st0" points="369.4,192.8 367,188.7 369.4,184.5 374.2,184.5 376.6,188.7 374.2,192.8 			"/>
			<polygon class="st0" points="383.8,192.8 381.4,188.7 383.8,184.5 388.6,184.5 391,188.7 388.6,192.8 			"/>
			<polygon class="st0" points="398.2,192.8 395.8,188.7 398.2,184.5 402.9,184.5 405.3,188.7 402.9,192.8 			"/>
			<polygon class="st0" points="412.5,192.8 410.1,188.7 412.5,184.5 417.3,184.5 419.7,188.7 417.3,192.8 			"/>
			<polygon class="st0" points="426.9,192.8 424.5,188.7 426.9,184.5 431.7,184.5 434,188.7 431.7,192.8 			"/>
			<polygon class="st0" points="441.2,192.8 438.9,188.7 441.2,184.5 446,184.5 448.4,188.7 446,192.8 			"/>
			<polygon class="st0" points="455.6,192.8 453.2,188.7 455.6,184.5 460.4,184.5 462.8,188.7 460.4,192.8 			"/>
			<polygon class="st0" points="470,192.8 467.6,188.7 470,184.5 474.7,184.5 477.1,188.7 474.7,192.8 			"/>
			<polygon class="st0" points="484.3,192.8 481.9,188.7 484.3,184.5 489.1,184.5 491.5,188.7 489.1,192.8 			"/>
		</g>
		<g class="st1">
			<polygon class="st0" points="487.9,192.8 485.5,188.7 487.9,184.5 492.6,184.5 495,188.7 492.6,192.8 			"/>
			<polygon class="st0" points="502.2,192.8 499.8,188.7 502.2,184.5 507,184.5 509.4,188.7 507,192.8 			"/>
			<polygon class="st0" points="516.6,192.8 514.2,188.7 516.6,184.5 521.4,184.5 523.7,188.7 521.4,192.8 			"/>
			<polygon class="st0" points="530.9,192.8 528.6,188.7 530.9,184.5 535.7,184.5 538.1,188.7 535.7,192.8 			"/>
			<polygon class="st0" points="545.3,192.8 542.9,188.7 545.3,184.5 550.1,184.5 552.5,188.7 550.1,192.8 			"/>
			<polygon class="st0" points="559.7,192.8 557.3,188.7 559.7,184.5 564.5,184.5 566.8,188.7 564.5,192.8 			"/>
			<polygon class="st0" points="574,192.8 571.7,188.7 574,184.5 578.8,184.5 581.2,188.7 578.8,192.8 			"/>
			<polygon class="st0" points="588.4,192.8 586,188.7 588.4,184.5 593.2,184.5 595.6,188.7 593.2,192.8 			"/>
			<polygon class="st0" points="602.8,192.8 600.4,188.7 602.8,184.5 607.5,184.5 609.9,188.7 607.5,192.8 			"/>
			<polygon class="st0" points="617.1,192.8 614.7,188.7 617.1,184.5 621.9,184.5 624.3,188.7 621.9,192.8 			"/>
			<polygon class="st0" points="631.5,192.8 629.1,188.7 631.5,184.5 636.3,184.5 638.7,188.7 636.3,192.8 			"/>
		</g>
	</g>
	<g>
		<g class="st1">
			<polygon class="st0" points="2.4,69.4 0,65.2 2.4,61.1 7.2,61.1 9.6,65.2 7.2,69.4 			"/>
			<polygon class="st0" points="16.8,69.4 14.4,65.2 16.8,61.1 21.5,61.1 23.9,65.2 21.5,69.4 			"/>
			<polygon class="st0" points="31.1,69.4 28.7,65.2 31.1,61.1 35.9,61.1 38.3,65.2 35.9,69.4 			"/>
			<polygon class="st0" points="45.5,69.4 43.1,65.2 45.5,61.1 50.3,61.1 52.6,65.2 50.3,69.4 			"/>
			<polygon class="st0" points="59.8,69.4 57.5,65.2 59.8,61.1 64.6,61.1 67,65.2 64.6,69.4 			"/>
			<polygon class="st0" points="74.2,69.4 71.8,65.2 74.2,61.1 79,61.1 81.4,65.2 79,69.4 			"/>
			<polygon class="st0" points="88.6,69.4 86.2,65.2 88.6,61.1 93.3,61.1 95.7,65.2 93.3,69.4 			"/>
			<polygon class="st0" points="102.9,69.4 100.5,65.2 102.9,61.1 107.7,61.1 110.1,65.2 107.7,69.4 			"/>
			<polygon class="st0" points="117.3,69.4 114.9,65.2 117.3,61.1 122.1,61.1 124.5,65.2 122.1,69.4 			"/>
			<polygon class="st0" points="131.7,69.4 129.3,65.2 131.7,61.1 136.4,61.1 138.8,65.2 136.4,69.4 			"/>
			<polygon class="st0" points="146,69.4 143.6,65.2 146,61.1 150.8,61.1 153.2,65.2 150.8,69.4 			"/>
		</g>
		<g class="st1">
			<polygon class="st0" points="149.5,69.4 147.2,65.2 149.5,61.1 154.3,61.1 156.7,65.2 154.3,69.4 			"/>
			<polygon class="st0" points="163.9,69.4 161.5,65.2 163.9,61.1 168.7,61.1 171.1,65.2 168.7,69.4 			"/>
			<polygon class="st0" points="178.3,69.4 175.9,65.2 178.3,61.1 183.1,61.1 185.4,65.2 183.1,69.4 			"/>
			<polygon class="st0" points="192.6,69.4 190.3,65.2 192.6,61.1 197.4,61.1 199.8,65.2 197.4,69.4 			"/>
			<polygon class="st0" points="207,69.4 204.6,65.2 207,61.1 211.8,61.1 214.2,65.2 211.8,69.4 			"/>
			<polygon class="st0" points="221.4,69.4 219,65.2 221.4,61.1 226.1,61.1 228.5,65.2 226.1,69.4 			"/>
			<polygon class="st0" points="235.7,69.4 233.3,65.2 235.7,61.1 240.5,61.1 242.9,65.2 240.5,69.4 			"/>
			<polygon class="st0" points="250.1,69.4 247.7,65.2 250.1,61.1 254.9,61.1 257.3,65.2 254.9,69.4 			"/>
			<polygon class="st0" points="264.5,69.4 262.1,65.2 264.5,61.1 269.2,61.1 271.6,65.2 269.2,69.4 			"/>
			<polygon class="st0" points="278.8,69.4 276.4,65.2 278.8,61.1 283.6,61.1 286,65.2 283.6,69.4 			"/>
			<polygon class="st0" points="293.2,69.4 290.8,65.2 293.2,61.1 298,61.1 300.4,65.2 298,69.4 			"/>
		</g>
	</g>
	<g>
		<g class="st1">
			<polygon class="st0" points="335,459 332.6,454.8 335,450.7 339.8,450.7 342.2,454.8 339.8,459 			"/>
			<polygon class="st0" points="349.4,459 347,454.8 349.4,450.7 354.2,450.7 356.6,454.8 354.2,459 			"/>
			<polygon class="st0" points="363.8,459 361.4,454.8 363.8,450.7 368.5,450.7 370.9,454.8 368.5,459 			"/>
			<polygon class="st0" points="378.1,459 375.7,454.8 378.1,450.7 382.9,450.7 385.3,454.8 382.9,459 			"/>
			<polygon class="st0" points="392.5,459 390.1,454.8 392.5,450.7 397.3,450.7 399.6,454.8 397.3,459 			"/>
			<polygon class="st0" points="406.8,459 404.5,454.8 406.8,450.7 411.6,450.7 414,454.8 411.6,459 			"/>
			<polygon class="st0" points="421.2,459 418.8,454.8 421.2,450.7 426,450.7 428.4,454.8 426,459 			"/>
			<polygon class="st0" points="435.6,459 433.2,454.8 435.6,450.7 440.3,450.7 442.7,454.8 440.3,459 			"/>
			<polygon class="st0" points="449.9,459 447.6,454.8 449.9,450.7 454.7,450.7 457.1,454.8 454.7,459 			"/>
			<polygon class="st0" points="464.3,459 461.9,454.8 464.3,450.7 469.1,450.7 471.5,454.8 469.1,459 			"/>
			<polygon class="st0" points="478.7,459 476.3,454.8 478.7,450.7 483.4,450.7 485.8,454.8 483.4,459 			"/>
		</g>
		<g class="st1">
			<polygon class="st0" points="482.2,459 479.8,454.8 482.2,450.7 487,450.7 489.3,454.8 487,459 			"/>
			<polygon class="st0" points="496.6,459 494.2,454.8 496.6,450.7 501.3,450.7 503.7,454.8 501.3,459 			"/>
			<polygon class="st0" points="510.9,459 508.5,454.8 510.9,450.7 515.7,450.7 518.1,454.8 515.7,459 			"/>
			<polygon class="st0" points="525.3,459 522.9,454.8 525.3,450.7 530.1,450.7 532.4,454.8 530.1,459 			"/>
			<polygon class="st0" points="539.6,459 537.3,454.8 539.6,450.7 544.4,450.7 546.8,454.8 544.4,459 			"/>
			<polygon class="st0" points="554,459 551.6,454.8 554,450.7 558.8,450.7 561.2,454.8 558.8,459 			"/>
			<polygon class="st0" points="568.4,459 566,454.8 568.4,450.7 573.1,450.7 575.5,454.8 573.1,459 			"/>
			<polygon class="st0" points="582.7,459 580.3,454.8 582.7,450.7 587.5,450.7 589.9,454.8 587.5,459 			"/>
			<polygon class="st0" points="597.1,459 594.7,454.8 597.1,450.7 601.9,450.7 604.3,454.8 601.9,459 			"/>
			<polygon class="st0" points="611.5,459 609.1,454.8 611.5,450.7 616.2,450.7 618.6,454.8 616.2,459 			"/>
			<polygon class="st0" points="625.8,459 623.4,454.8 625.8,450.7 630.6,450.7 633,454.8 630.6,459 			"/>
		</g>
	</g>
	<g>
		<g class="st1">
			<polygon class="st0" points="418.2,328 415.8,323.9 418.2,319.8 423,319.8 425.4,323.9 423,328 			"/>
			<polygon class="st0" points="432.6,328 430.2,323.9 432.6,319.8 437.3,319.8 439.7,323.9 437.3,328 			"/>
			<polygon class="st0" points="446.9,328 444.5,323.9 446.9,319.8 451.7,319.8 454.1,323.9 451.7,328 			"/>
			<polygon class="st0" points="461.3,328 458.9,323.9 461.3,319.8 466.1,319.8 468.4,323.9 466.1,328 			"/>
			<polygon class="st0" points="475.7,328 473.3,323.9 475.7,319.8 480.4,319.8 482.8,323.9 480.4,328 			"/>
			<polygon class="st0" points="490,328 487.6,323.9 490,319.8 494.8,319.8 497.2,323.9 494.8,328 			"/>
			<polygon class="st0" points="504.4,328 502,323.9 504.4,319.8 509.2,319.8 511.5,323.9 509.2,328 			"/>
			<polygon class="st0" points="518.7,328 516.4,323.9 518.7,319.8 523.5,319.8 525.9,323.9 523.5,328 			"/>
			<polygon class="st0" points="533.1,328 530.7,323.9 533.1,319.8 537.9,319.8 540.3,323.9 537.9,328 			"/>
			<polygon class="st0" points="547.5,328 545.1,323.9 547.5,319.8 552.2,319.8 554.6,323.9 552.2,328 			"/>
			<polygon class="st0" points="561.8,328 559.4,323.9 561.8,319.8 566.6,319.8 569,323.9 566.6,328 			"/>
		</g>
		<g class="st1">
			<polygon class="st0" points="565.4,328 563,323.9 565.4,319.8 570.1,319.8 572.5,323.9 570.1,328 			"/>
			<polygon class="st0" points="579.7,328 577.3,323.9 579.7,319.8 584.5,319.8 586.9,323.9 584.5,328 			"/>
			<polygon class="st0" points="594.1,328 591.7,323.9 594.1,319.8 598.9,319.8 601.2,323.9 598.9,328 			"/>
			<polygon class="st0" points="608.4,328 606.1,323.9 608.4,319.8 613.2,319.8 615.6,323.9 613.2,328 			"/>
			<polygon class="st0" points="622.8,328 620.4,323.9 622.8,319.8 627.6,319.8 630,323.9 627.6,328 			"/>
			<polygon class="st0" points="637.2,328 634.8,323.9 637.2,319.8 642,319.8 644.3,323.9 642,328 			"/>
			<polygon class="st0" points="651.5,328 649.2,323.9 651.5,319.8 656.3,319.8 658.7,323.9 656.3,328 			"/>
			<polygon class="st0" points="665.9,328 663.5,323.9 665.9,319.8 670.7,319.8 673.1,323.9 670.7,328 			"/>
			<polygon class="st0" points="680.3,328 677.9,323.9 680.3,319.8 685,319.8 687.4,323.9 685,328 			"/>
			<polygon class="st0" points="694.6,328 692.2,323.9 694.6,319.8 699.4,319.8 701.8,323.9 699.4,328 			"/>
			<polygon class="st0" points="709,328 706.6,323.9 709,319.8 713.8,319.8 716.2,323.9 713.8,328 			"/>
		</g>
	</g>
	<g>
		<g class="st1">
			<polygon class="st0" points="549.2,115.8 546.8,111.6 549.2,107.5 554,107.5 556.4,111.6 554,115.8 			"/>
			<polygon class="st0" points="563.6,115.8 561.2,111.6 563.6,107.5 568.4,107.5 570.8,111.6 568.4,115.8 			"/>
			<polygon class="st0" points="578,115.8 575.6,111.6 578,107.5 582.7,107.5 585.1,111.6 582.7,115.8 			"/>
			<polygon class="st0" points="592.3,115.8 589.9,111.6 592.3,107.5 597.1,107.5 599.5,111.6 597.1,115.8 			"/>
			<polygon class="st0" points="606.7,115.8 604.3,111.6 606.7,107.5 611.5,107.5 613.9,111.6 611.5,115.8 			"/>
			<polygon class="st0" points="621.1,115.8 618.7,111.6 621.1,107.5 625.8,107.5 628.2,111.6 625.8,115.8 			"/>
			<polygon class="st0" points="635.4,115.8 633,111.6 635.4,107.5 640.2,107.5 642.6,111.6 640.2,115.8 			"/>
			<polygon class="st0" points="649.8,115.8 647.4,111.6 649.8,107.5 654.6,107.5 656.9,111.6 654.6,115.8 			"/>
			<polygon class="st0" points="664.1,115.8 661.8,111.6 664.1,107.5 668.9,107.5 671.3,111.6 668.9,115.8 			"/>
			<polygon class="st0" points="678.5,115.8 676.1,111.6 678.5,107.5 683.3,107.5 685.7,111.6 683.3,115.8 			"/>
			<polygon class="st0" points="692.9,115.8 690.5,111.6 692.9,107.5 697.6,107.5 700,111.6 697.6,115.8 			"/>
		</g>
		<g class="st1">
			<polygon class="st0" points="696.4,115.8 694,111.6 696.4,107.5 701.2,107.5 703.6,111.6 701.2,115.8 			"/>
			<polygon class="st0" points="710.8,115.8 708.4,111.6 710.8,107.5 715.5,107.5 717.9,111.6 715.5,115.8 			"/>
			<polygon class="st0" points="725.1,115.8 722.7,111.6 725.1,107.5 729.9,107.5 732.3,111.6 729.9,115.8 			"/>
			<polygon class="st0" points="739.5,115.8 737.1,111.6 739.5,107.5 744.3,107.5 746.6,111.6 744.3,115.8 			"/>
			<polygon class="st0" points="753.8,115.8 751.5,111.6 753.8,107.5 758.6,107.5 761,111.6 758.6,115.8 			"/>
			<polygon class="st0" points="768.2,115.8 765.8,111.6 768.2,107.5 773,107.5 775.4,111.6 773,115.8 			"/>
			<polygon class="st0" points="782.6,115.8 780.2,111.6 782.6,107.5 787.4,107.5 789.7,111.6 787.4,115.8 			"/>
			<polygon class="st0" points="796.9,115.8 794.6,111.6 796.9,107.5 801.7,107.5 804.1,111.6 801.7,115.8 			"/>
			<polygon class="st0" points="811.3,115.8 808.9,111.6 811.3,107.5 816.1,107.5 818.5,111.6 816.1,115.8 			"/>
			<polygon class="st0" points="825.7,115.8 823.3,111.6 825.7,107.5 830.4,107.5 832.8,111.6 830.4,115.8 			"/>
			<polygon class="st0" points="840,115.8 837.6,111.6 840,107.5 844.8,107.5 847.2,111.6 844.8,115.8 			"/>
		</g>
	</g>
	<polygon class="st0" points="440.8,40.3 433.8,28.2 440.8,16.1 454.8,16.1 461.8,28.2 454.8,40.3 	"/>
	<polygon class="st0" points="440.8,40.3 433.8,28.2 440.8,16.1 454.8,16.1 461.8,28.2 454.8,40.3 	"/>
	<polygon class="st0" points="440.8,40.3 433.8,28.2 440.8,16.1 454.8,16.1 461.8,28.2 454.8,40.3 	"/>
	<g>
		<polygon class="st0" points="439.6,212 438,210.1 478.2,175.7 642.6,175.7 642.6,178.1 479.1,178.1 		"/>
	</g>
	<g>
		<polygon class="st0" points="455.4,78 453.7,76.3 506.2,23.9 597,23.9 597,26.3 507.1,26.3 		"/>
	</g>
	<g>
		<polygon class="st0" points="688,97.3 527.3,97.3 508.2,78.1 509.9,76.5 528.3,94.9 688,94.9 		"/>
	</g>
	<g>
		<polygon class="st0" points="505.1,268.3 503.4,266.6 535.2,234.8 698.2,234.8 698.2,237.2 536.2,237.2 		"/>
	</g>
	<g>
		<polygon class="st0" points="698.2,302.5 507,302.5 474.7,270.1 476.4,268.4 508,300.1 698.2,300.1 		"/>
	</g>
</g>
</svg>
