<svg xmlns="http://www.w3.org/2000/svg" xmlns:xlink="http://www.w3.org/1999/xlink" version="1.1" x="0px" y="0px" viewBox="0 0 100 100" enable-background="new 0 0 100 100" xml:space="preserve" width="100px" height="100px"><path fill="#000000" d="M73.355,55.252c-0.057,0.023-0.09,0.026-0.09,0.026l6.542-0.463c0,0,4.408-0.49,3.192-17.686  s-5.271-16.729-5.271-16.729l-6.896,0.488c0,0,0.032,0,0.092,0.014c-1.783,0.475-2.348,6.617-1.587,17.373  C70.101,49.037,71.519,55.031,73.355,55.252z M71.387,22.165c0.216-0.09,0.369-0.287,0.404-0.518  c0.986,1.377,2.489,5.264,3.265,16.225c0.776,10.961-0.165,15.02-0.948,16.523c-0.067-0.225-0.247-0.397-0.474-0.457  c-0.236-0.19-1.983-2.047-2.953-15.756C69.71,24.472,71.179,22.386,71.387,22.165z"/><path fill="#000000" d="M17.15,55.207c0.643,2.319,2.132,4.188,4.201,5.265c0.853,0.443,1.908,0.648,3.332,0.648  c2.496,0,6.112-0.664,9.205-1.356c-4.363,10.896-5.182,17.937-2.601,21.942c1.335,2.072,3.515,3.214,6.134,3.214  c1.371,0,2.432-0.321,2.628-0.385c1.298-0.42,2.153-1.657,2.089-3.021l-0.078-1.674c0.304-0.934,1.988-5.121,9.72-13.351  c9.06-9.645,13.891-10.521,14.377-10.587c0.021,0.001,0.038,0.001,0.059,0.001c0.789,0,1.524-0.312,2.092-0.873  c0.612-0.603,0.903-1.439,0.863-2.298l-1.332-28.465c-0.049-1.027-0.612-1.955-1.497-2.474c-1.156-0.676-3.688-1.772-12.29-3.519  c-3.82-0.776-7.278-1.358-8.399-1.543c-2.607-1.098-5.163-1.653-7.604-1.653c-7.439,0-11.359,5.082-11.939,5.896  c-2.732,3.652-3.229,7.443-3.023,9.865c-1.531,2.484-2.452,5.168-2.679,7.83c-0.099,1.125-0.06,2.07,0.018,2.779  C17.242,46.929,16.141,51.552,17.15,55.207z M26.253,31.532c0,0-1.131-4.213,2.302-8.775c0,0,3.106-4.65,9.494-4.65  c1.944,0,4.191,0.433,6.749,1.554c0,0,16.401,2.639,20.018,4.75l1.333,28.467c0,0-0.006,0-0.021,0  c-0.378,0-5.899,0.201-16.553,11.542c-10.044,10.692-10.558,15.13-10.558,15.13l0.1,2.109c0,0-0.731,0.236-1.694,0.236  c-3.259,0-9.169-2.718,1.656-26.554c0,0-9.755,2.754-14.396,2.754c-0.848,0-1.521-0.091-1.938-0.308  c-0.848-0.441-6.641-3.565,0.844-15.733C23.591,42.054,22.245,37.235,26.253,31.532z"/></svg>