<!-- Generator: Adobe Illustrator 25.0.1, SVG Export Plug-In  -->
<svg version="1.1" xmlns="http://www.w3.org/2000/svg" xmlns:xlink="http://www.w3.org/1999/xlink" x="0px" y="0px" width="712.2px"
	 height="367.8px" viewBox="0 0 712.2 367.8" style="overflow:visible;enable-background:new 0 0 712.2 367.8;"
	 xml:space="preserve">
<style type="text/css">
	.st0{opacity:0.3;}
	.st1{opacity:0.3;fill:#FFFFFF;}
</style>
<defs>
</defs>
<g class="st0">
	<path class="st1" d="M538.3,338.7c0,13.5-10.9,24.4-24.4,24.4c-13.5,0-24.4-10.9-24.4-24.4c0-13.5,10.9-24.4,24.4-24.4
		C527.4,314.3,538.3,325.2,538.3,338.7z"/>
	<circle class="st1" cx="660.5" cy="286.7" r="24.4"/>
	<path class="st1" d="M44.7,266.4c0,7-5.7,12.7-12.7,12.7c-7,0-12.7-5.7-12.7-12.7c0-7,5.7-12.7,12.7-12.7
		C39,253.6,44.7,259.3,44.7,266.4z"/>
	<path class="st1" d="M25.4,272c0,7-5.7,12.7-12.7,12.7C5.7,284.7,0,279,0,272c0-7,5.7-12.7,12.7-12.7C19.8,259.3,25.4,265,25.4,272
		z"/>
	<path class="st1" d="M516.6,286c0,7-5.7,12.7-12.7,12.7c-7,0-12.7-5.7-12.7-12.7c0-7,5.7-12.7,12.7-12.7
		C511,273.3,516.6,279,516.6,286z"/>
	<path class="st1" d="M481.1,191.5c0,7-5.7,12.7-12.7,12.7c-7,0-12.7-5.7-12.7-12.7c0-7,5.7-12.7,12.7-12.7
		C475.4,178.8,481.1,184.4,481.1,191.5z"/>
	<circle class="st1" cx="349.2" cy="166" r="12.7"/>
	<path class="st1" d="M603.4,355.1c0,7-5.7,12.7-12.7,12.7c-7,0-12.7-5.7-12.7-12.7c0-7,5.7-12.7,12.7-12.7
		C597.7,342.4,603.4,348.1,603.4,355.1z"/>
	<path class="st1" d="M196,52.6c0,7-5.7,12.7-12.7,12.7c-7,0-12.7-5.7-12.7-12.7c0-7,5.7-12.7,12.7-12.7
		C190.3,39.9,196,45.6,196,52.6z"/>
	<path class="st1" d="M208.7,12.7c0,7-5.7,12.7-12.7,12.7c-7,0-12.7-5.7-12.7-12.7C183.3,5.7,189,0,196,0
		C203,0,208.7,5.7,208.7,12.7z"/>
	<path class="st1" d="M125.1,71.7c0,7-5.7,12.7-12.7,12.7c-7,0-12.7-5.7-12.7-12.7c0-7,5.7-12.7,12.7-12.7
		C119.4,58.9,125.1,64.6,125.1,71.7z"/>
	<circle class="st1" cx="345.4" cy="247" r="12.7"/>
	<path class="st1" d="M492,254.9c0,7-5.7,12.7-12.7,12.7c-7,0-12.7-5.7-12.7-12.7c0-7,5.7-12.7,12.7-12.7
		C486.3,242.1,492,247.8,492,254.9z"/>
	<path class="st1" d="M524.2,87c0,7-5.7,12.7-12.7,12.7c-7,0-12.7-5.7-12.7-12.7c0-7,5.7-12.7,12.7-12.7
		C518.5,74.3,524.2,80,524.2,87z"/>
	<circle class="st1" cx="566.9" cy="173.2" r="12.7"/>
	<path class="st1" d="M495.2,175c0,7-5.7,12.7-12.7,12.7c-7,0-12.7-5.7-12.7-12.7s5.7-12.7,12.7-12.7
		C489.5,162.3,495.2,168,495.2,175z"/>
	<circle class="st1" cx="505.1" cy="203.5" r="12.7"/>
	<path class="st1" d="M712.2,87c0,7-5.7,12.7-12.7,12.7c-7,0-12.7-5.7-12.7-12.7c0-7,5.7-12.7,12.7-12.7
		C706.5,74.3,712.2,80,712.2,87z"/>
	<circle class="st1" cx="485.7" cy="294" r="12.7"/>
	<path class="st1" d="M337.4,316.9c0,7-5.7,12.7-12.7,12.7c-7,0-12.7-5.7-12.7-12.7c0-7,5.7-12.7,12.7-12.7
		C331.7,304.2,337.4,309.9,337.4,316.9z"/>
	<path class="st1" d="M93.8,342.4c0,7-5.7,12.7-12.7,12.7c-7,0-12.7-5.7-12.7-12.7c0-7,5.7-12.7,12.7-12.7
		C88.1,329.6,93.8,335.3,93.8,342.4z"/>
	<path class="st1" d="M51.6,286.7c0,7-5.7,12.7-12.7,12.7c-7,0-12.7-5.7-12.7-12.7c0-7,5.7-12.7,12.7-12.7
		C45.9,274,51.6,279.7,51.6,286.7z"/>
	<circle class="st1" cx="192.2" cy="146.5" r="12.7"/>
	<path class="st1" d="M406.9,140.2c0,7-5.7,12.7-12.7,12.7c-7,0-12.7-5.7-12.7-12.7c0-7,5.7-12.7,12.7-12.7
		C401.2,127.4,406.9,133.1,406.9,140.2z"/>
	<path class="st1" d="M457.5,154.6c0,7-5.7,12.7-12.7,12.7c-7,0-12.7-5.7-12.7-12.7c0-7,5.7-12.7,12.7-12.7
		C451.8,141.9,457.5,147.6,457.5,154.6z"/>
	<path class="st1" d="M548.9,56.4c0,7-5.7,12.7-12.7,12.7c-7,0-12.7-5.7-12.7-12.7s5.7-12.7,12.7-12.7
		C543.2,43.6,548.9,49.3,548.9,56.4z"/>
	<path class="st1" d="M548.9,12.7c0,7-5.7,12.7-12.7,12.7c-7,0-12.7-5.7-12.7-12.7c0-7,5.7-12.7,12.7-12.7
		C543.2,0,548.9,5.7,548.9,12.7z"/>
</g>
</svg>
