<!-- Generator: Adobe Illustrator 25.0.1, SVG Export Plug-In  -->
<svg version="1.1" xmlns="http://www.w3.org/2000/svg" xmlns:xlink="http://www.w3.org/1999/xlink" x="0px" y="0px" width="165.7px"
	 height="89.7px" viewBox="0 0 165.7 89.7" style="overflow:visible;enable-background:new 0 0 165.7 89.7;" xml:space="preserve">
<style type="text/css">
	.st0{fill:#FFFFFF;}
</style>
<defs>
</defs>
<path class="st0" d="M162.2,55.2h-44.9V3.5c0-1.9-1.5-3.5-3.5-3.5H51.8c-1.9,0-3.5,1.5-3.5,3.5v38H3.5C1.5,41.4,0,43,0,44.9v41.4
	c0,1.9,1.5,3.5,3.5,3.5h48.3h62.1h48.3c1.9,0,3.5-1.5,3.5-3.5V58.7C165.7,56.8,164.1,55.2,162.2,55.2z M6.9,48.3h41.4v34.5H6.9V48.3
	z M55.2,44.9v-38h55.2v51.8v24.2H55.2V44.9z M158.8,82.8h-41.4V62.1h41.4V82.8z"/>
</svg>
