<!-- Generator: Adobe Illustrator 25.2.1, SVG Export Plug-In  -->
<svg version="1.1" xmlns="http://www.w3.org/2000/svg" xmlns:xlink="http://www.w3.org/1999/xlink" x="0px" y="0px" width="147.3px"
	 height="175.7px" viewBox="0 0 147.3 175.7" style="overflow:visible;enable-background:new 0 0 147.3 175.7;"
	 xml:space="preserve">
<style type="text/css">
	.st0{fill:#5FB9E4;}
</style>
<defs>
</defs>
<g>
	<g>
		<path class="st0" d="M130.4,107.8c-5.2-2.3-13.7-4.4-25.1-6.3c-0.7-0.3-1.4-0.5-2.1-0.6l-8-1.7c-0.3-0.4-0.5-1-0.5-1.5V83.7
			c5.9-5.5,9.8-12.7,10.6-19.8h1.2c4.5,0,8.2-3.7,8.2-8.2v-6.2c0-2.5-1.1-4.8-3-6.3c0-1.5,0-4.4,0-8.9c0-1.4-1.2-2.6-2.6-2.6
			c-1.4,0-2.6,1.2-2.6,2.6c0,3.5,0,6,0,7.7c-1.5,0-2,0.1-2.9-0.2c0,0,0,0,0,0c-1.5-0.5-2.6-1.9-2.6-3.5V26.4c0-4.7-3.8-8.6-8.6-8.6
			H92c-6.7,0-8.5,3.1-18,3.1c-9.4,0-11.4-3.1-18-3.1h-1.3c-4.7,0-8.6,3.8-8.6,8.6v11.9c0,1.6-1,3-2.6,3.5c0,0,0,0,0,0
			c-0.8,0.3-1.4,0.1-2.9,0.2V25.5c0-11.2,9.1-20.3,20.3-20.3h25.5c10.1,0,18.7,7.5,20.1,17.5c0.2,1.4,1.5,2.4,2.9,2.2
			c1.4-0.2,2.4-1.5,2.2-2.9C109.9,9.4,99,0,86.4,0H60.9c-14,0-25.5,11.4-25.5,25.5v17.7c-1.9,1.5-3,3.8-3,6.3v6.2
			c0,4.5,3.7,8.2,8.2,8.2h1.2c0.8,7.9,4.6,15.3,10.7,20.5v13.2c0,0.6-0.2,1.1-0.5,1.5l-8,1.7c-0.7,0.2-1.4,0.4-2.1,0.6
			c-11.4,1.8-19.8,3.9-25.1,6.3C6.6,112.4,0,122.6,0,133.8v7.6c0,1.4,1.2,2.6,2.6,2.6s2.6-1.2,2.6-2.6v-7.6
			c0-9.2,5.4-17.6,13.8-21.3c3.6-1.6,9.1-3.1,16.2-4.6c-0.4,0.9-0.7,1.8-0.9,2.8l-1.8,9.2c-0.8,4.2,2.1,8.2,6.3,8.7
			c1.5,0.2,2.1,2,1,3.1l-1.6,1.5c-3.1,3-2.9,7.9-0.1,10.5l29,26.7H30.7v-11c0-1.4-1.2-2.6-2.6-2.6c-1.4,0-2.6,1.2-2.6,2.6v11H10.1
			c-2.7,0-4.9-2.2-4.9-4.9v-12.1c0-1.4-1.2-2.6-2.6-2.6S0,152.1,0,153.5v12.1c0,5.5,4.5,10.1,10.1,10.1h127.2
			c5.5,0,10.1-4.5,10.1-10.1v-31.8C147.3,122.6,140.7,112.4,130.4,107.8L130.4,107.8z M102.2,105.9c2.9,0.6,5.2,2.9,5.7,5.8l1.8,9.2
			c0.2,1.2-0.6,2.4-1.9,2.6c-5.8,0.7-8.2,7.9-3.9,11.9l1.6,1.5c0.9,0.8,0.9,2.2,0.1,3.1l-25.9,23.9l14.3-38.5c0,0,0,0,0,0
			c2.3-6.6,3.2-13.7,2.8-20.7L102.2,105.9z M73.6,93.2L73.6,93.2C73.7,93.2,73.7,93.2,73.6,93.2c7.4-0.1,12.2-2.4,16-5.3v9.7
			c0,1.2,0.3,2.3,0.7,3.3l-16.8,13l-16.8-13c0.5-1,0.7-2.2,0.7-3.3v-9.2C61.7,91.1,66.6,93.2,73.6,93.2L73.6,93.2z M70.4,130.2
			l-3.2-6.8l6.4-3.2l6.4,3.2l-3.2,6.8H70.4z M82.8,141.2l-1.5-8.1l3.5-7.4l3.2,1.6L82.8,141.2z M89.7,122.5l-11.2-5.7l13.3-10.4
			C92,111.8,91.3,117.3,89.7,122.5z M68.9,116.8l-11.2,5.7c-1.6-5.2-2.3-10.6-2.1-16L68.9,116.8z M62.6,125.7l3.5,7.4l-1.5,8.1
			l-5.1-13.9L62.6,125.7z M70.9,135.4h5.5l2.9,15.2l-5.6,15.2L68,150.5L70.9,135.4z M108.5,47.1c0.7,0.6,1.2,1.4,1.2,2.4v6.2
			c0,1.7-1.4,3-3,3h-1.1l0-11.6L108.5,47.1L108.5,47.1z M37.6,55.7v-6.2c0-1,0.4-1.8,1.2-2.4l2.9,0l0,11.6h-1.1
			C39,58.7,37.6,57.4,37.6,55.7L37.6,55.7z M46.8,61.3l0-15.4c2.7-1.6,4.4-4.4,4.4-7.6V26.4c0-1.9,1.5-3.4,3.4-3.4h1.3
			c5,0,8.2,3.1,18,3.1c9.9,0,12.9-3.1,18-3.1h0.7c1.9,0,3.4,1.5,3.4,3.4v11.9c0,3.2,1.7,6.1,4.4,7.6l0,15.4
			c-0.2,6.9-3.9,14.1-9.9,19.3c-4.8,4.1-8.6,7.4-16.9,7.5C66,88,61.1,85.1,56,80.6C50.3,75.8,47,68.7,46.8,61.3L46.8,61.3z
			 M41.7,137l1.6-1.5c4.3-4,1.9-11.2-3.9-11.9c-1.3-0.2-2.1-1.3-1.9-2.6l1.8-9.2c0.6-2.9,2.8-5.2,5.7-5.8l5.4-1.2
			c-0.5,7,0.5,14.1,2.8,20.7c0,0,0,0,0,0l14.3,38.5l-25.9-23.9C40.8,139.2,40.8,137.8,41.7,137L41.7,137z M142.2,165.6
			c0,2.7-2.2,4.9-4.9,4.9h-15.5v-11c0-1.4-1.2-2.6-2.6-2.6s-2.6,1.2-2.6,2.6v11H80.2l29-26.7c2.8-2.6,3.1-7.6-0.1-10.5l-1.6-1.5
			c-1.1-1-0.5-2.9,1-3.1c4.2-0.5,7.1-4.5,6.3-8.7l-1.8-9.2c-0.2-1-0.5-1.9-0.9-2.8c7.1,1.4,12.6,3,16.2,4.6
			c8.4,3.7,13.8,12.1,13.8,21.3L142.2,165.6L142.2,165.6z"/>
	</g>
</g>
</svg>
