<svg xmlns="http://www.w3.org/2000/svg" xmlns:xlink="http://www.w3.org/1999/xlink" version="1.1" x="0px" y="0px" viewBox="0 0 100 100" enable-background="new 0 0 100 100" xml:space="preserve" width="100px" height="100px"><path fill="#000000" d="M54.509,31.429c-0.781-0.781-2.047-0.781-2.828,0s-0.781,2.047,0,2.828L65.424,48H31c-1.104,0-2,0.896-2,2  s0.896,2,2,2h33.912L51.681,65.231c-0.781,0.781-0.781,2.048,0,2.829c0.391,0.39,0.902,0.585,1.414,0.585s1.023-0.195,1.414-0.585  l16.902-16.902c0.781-0.781,0.781-2.047,0-2.829L54.509,31.429z"/><path fill="#000000" d="M50,8C27.233,8,8,27.233,8,50s19.233,42,42,42s42-19.233,42-42S72.767,8,50,8z M50,88  c-20.598,0-38-17.402-38-38s17.402-38,38-38s38,17.402,38,38S70.598,88,50,88z"/></svg>