<!-- Generator: Adobe Illustrator 25.2.0, SVG Export Plug-In  -->
<svg version="1.1" xmlns="http://www.w3.org/2000/svg" xmlns:xlink="http://www.w3.org/1999/xlink" x="0px" y="0px" width="242.1px"
	 height="294.6px" viewBox="0 0 242.1 294.6" style="overflow:visible;enable-background:new 0 0 242.1 294.6;"
	 xml:space="preserve">
<style type="text/css">
	.st0{fill:none;stroke:#E6E6E6;stroke-width:2;stroke-miterlimit:10;}
</style>
<defs>
</defs>
<g>
	<g>
		<line class="st0" x1="20.1" y1="293.6" x2="242.1" y2="293.6"/>
		<polyline class="st0" points="75.8,114.9 75.8,80 162.4,80 162.4,167 		"/>
		<line class="st0" x1="162.4" y1="125.1" x2="113.6" y2="125.1"/>
		<line class="st0" x1="162.4" y1="151.7" x2="113.6" y2="151.7"/>
		<line class="st0" x1="141.6" y1="178.6" x2="113.6" y2="178.6"/>
		<line class="st0" x1="141.6" y1="205.2" x2="113.6" y2="205.2"/>
		<path class="st0" d="M142.4,167v126.7h79.7V167H142.4z M175.1,247.8h-13.8v-14.2h13.8V247.8z M175.1,221.6h-13.8V211h13.8V221.6z
			 M175.1,198.6h-13.8v-14.2h13.8V198.6z M203.2,247.8h-13.8v-14.2h13.8V247.8z M203.2,221.6h-13.8V211h13.8V221.6z M203.2,198.6
			h-13.8v-14.2h13.8V198.6z"/>
		<path class="st0" d="M75.8,114.9H40.8v178.7h20.7v-42.2h31.3v42.2h20.7V114.9H75.8z M74,222.3H56.5v-10.6H74V222.3z M74,200.4
			H56.5v-10.6H74V200.4z M74,178.6H56.5v-17.8H74V178.6z M74,149.9H56.5V132H74V149.9z M98.3,222.6H87.8v-10.6h10.6V222.6z
			 M98.3,200.8H87.8v-10.9h10.6V200.8z M98.3,179H87.8v-17.8h10.6V179z M98.3,149.9H87.8V132h10.6V149.9z"/>
	</g>
	<g>
		<path class="st0" d="M103.3,1l27,5.4l-2.4,27"/>
		<path class="st0" d="M130.3,6.4L0.6,109.1"/>
	</g>
</g>
</svg>
