<svg xmlns="http://www.w3.org/2000/svg" version="1.1" viewBox="0 0 34 34" x="0px" y="0px" width="34px" height="34px"><title>tear</title><path d="M16.999 1.563c-1.952 0-3.982 0.554-6.045 1.67-1.614 0.874-3.254 2.094-4.863 3.629-2.718 2.593-4.407 5.18-4.457 5.258-0.093 0.144-0.093 0.326 0 0.471v0.002c0.070 0.108 1.741 2.668 4.457 5.26 1.609 1.535 3.249 2.755 4.863 3.629 1.507 0.815 2.996 1.326 4.451 1.545l0.801 0.119-0.467 0.662c-0.161 0.229-0.328 0.474-0.494 0.738-0.983 1.567-1.451 2.932-1.451 4.014 0 1.341 0.33 2.309 0.926 2.959 0.55 0.598 1.311 0.918 2.279 0.918s1.729-0.319 2.279-0.918c0.596-0.648 0.926-1.618 0.926-2.959 0-1.082-0.467-2.447-1.451-4.014-0.166-0.265-0.333-0.51-0.494-0.738l-0.467-0.662 0.801-0.119c1.455-0.219 2.946-0.73 4.453-1.545 1.614-0.874 3.252-2.094 4.861-3.629 2.717-2.592 4.39-5.154 4.459-5.26 0.094-0.145 0.094-0.328 0-0.473-0.047-0.072-1.742-2.665-4.459-5.258-1.609-1.535-3.247-2.756-4.861-3.629-2.063-1.116-4.095-1.67-6.047-1.67zM16.999 2.429c3.514 0 6.71 1.929 9.211 4.074s4.322 4.528 5.063 5.562l0.209 0.291-0.209 0.291c-0.74 1.035-2.557 3.418-5.057 5.562s-5.697 4.074-9.217 4.074c-3.514 0-6.71-1.929-9.211-4.074s-4.322-4.528-5.063-5.562l-0.209-0.291 0.209-0.291c0.74-1.035 2.557-3.418 5.057-5.562s5.697-4.074 9.217-4.074zM16.999 5.528c-3.751 0-6.797 3.058-6.797 6.828s3.046 6.826 6.797 6.826c3.751 0 6.797-3.056 6.797-6.826s-3.046-6.828-6.797-6.828zM16.999 6.397c3.266 0 5.928 2.678 5.928 5.959s-2.662 5.959-5.928 5.959c-3.266 0-5.928-2.679-5.928-5.959s2.662-5.959 5.928-5.959zM16.999 23.54l0.404 0.559c0.837 1.155 1.934 2.875 1.934 4.461 0 0.569-0.036 1.265-0.357 1.889s-1.014 1.121-1.982 1.121c-0.449 0-1.069-0.079-1.561-0.551s-0.777-1.256-0.777-2.459c0-1.583 1.097-3.305 1.936-4.461z"/></svg>