<svg xmlns:dc="http://purl.org/dc/elements/1.1/" xmlns:cc="http://creativecommons.org/ns#" xmlns:rdf="http://www.w3.org/1999/02/22-rdf-syntax-ns#" xmlns:svg="http://www.w3.org/2000/svg" xmlns="http://www.w3.org/2000/svg" xmlns:sodipodi="http://sodipodi.sourceforge.net/DTD/sodipodi-0.dtd" xmlns:inkscape="http://www.inkscape.org/namespaces/inkscape" version="1.1" x="0px" y="0px" viewBox="0 0 100 100" width="100px" height="100px"><g transform="translate(0,-952.36218)"><path style="font-size:medium;font-style:normal;font-variant:normal;font-weight:normal;font-stretch:normal;text-indent:0;text-align:start;text-decoration:none;line-height:normal;letter-spacing:normal;word-spacing:normal;text-transform:none;direction:ltr;block-progression:tb;writing-mode:lr-tb;text-anchor:start;baseline-shift:baseline;opacity:1;color:#000000;fill:#000000;fill-opacity:1;stroke:none;stroke-width:3.99999976000000010;marker:none;visibility:visible;display:inline;overflow:visible;enable-background:accumulate;font-family:Sans;-inkscape-font-specification:Sans" d="m 40,6 c -0.942809,0 -2,1.0113318 -2,2 l 0,10 c -0.01494,1.056625 0.943269,2.028484 2,2.028484 1.056731,0 2.014943,-0.971859 2,-2.028484 L 42,8 C 42,6.8651864 40.942809,6 40,6 z m -13.15625,4.96875 c -1.384701,0.09738 -2.293584,1.933695 -1.53125,3.09375 l 5,8 c 0.511515,0.972986 1.905962,1.347573 2.836183,0.761879 0.930221,-0.585695 1.195138,-2.005067 0.538817,-2.886879 l -5,-8 c -0.37506,-0.62652 -1.115033,-1.015319 -1.84375,-0.96875 z m 26.0625,0 c -0.645544,0.03952 -1.261445,0.413896 -1.59375,0.96875 l -5,8 c -0.656321,0.881812 -0.391404,2.301184 0.538817,2.886879 0.930221,0.585694 2.324668,0.211107 2.836183,-0.761879 l 5,-8 c 0.402996,-0.614838 0.427351,-1.457427 0.06054,-2.094517 C 54.381233,11.330894 53.640311,10.928919 52.90625,10.96875 z M 40,24 c -3.843405,0 -7,3.15658 -7,7 l 0,15.15625 C 30.870612,46.34482 28.672659,47.01654 26.8125,48.4375 24.660803,50.0812 23,52.7331 23,56 l 0,14 c 0,6.3543 3.765856,10.6743 7.09375,14 1.663947,1.6628 3.236172,3.13275 4.3125,4.46875 C 35.482578,89.80465 36,90.9158 36,92 c 1.05e-4,1.047169 0.952831,1.999895 2,2 l 26,0 c 0.313643,-5.14e-4 0.626909,-0.07613 0.90625,-0.21875 C 73.556928,89.45595 77,81.6118 77,74 l 0,-16 c 0,-3.8434 -3.156595,-7 -7,-7 -1.106974,0 -2.128484,0.2853 -3.0625,0.75 C 66.795819,48.0281 63.7543,45 60,45 58.893025,45 57.871516,45.2853 56.9375,45.75 56.795819,42.02811 53.754296,39 50,39 c -1.082119,0 -2.081894,0.27342 -3,0.71875 L 47,31 c 0,-3.84342 -3.156595,-7 -7,-7 z m 0,4 c 1.696595,0 3,1.30338 3,3 l 0,15 c 0.01467,1.037772 0.962124,1.971921 2,1.971921 1.037876,0 1.985327,-0.934149 2,-1.971921 0,-1.69659 1.303405,-3 3,-3 1.696595,0 3,1.30341 3,3 l 0,6 c 0.01467,1.037772 0.962124,1.971921 2,1.971921 1.037876,0 1.985327,-0.934149 2,-1.971921 0,-1.6966 1.30341,-3 3,-3 1.69659,0 3,1.3034 3,3 l 0,6 c 0.01467,1.037772 0.962124,1.971921 2,1.971921 1.037876,0 1.985327,-0.934149 2,-1.971921 0,-1.6966 1.303405,-3 3,-3 1.696595,0 3,1.3034 3,3 l 0,16 c 0,6.3787 -2.527751,12.3104 -9.625,16 L 39.5625,90 C 39.14681,88.5181 38.477614,87.14335 37.53125,85.96875 36.170078,84.27915 34.492303,82.7725 32.90625,81.1875 29.734144,78.0175 27,74.8003 27,70 l 0,-14 c 0,-1.9724 0.880016,-3.3285 2.25,-4.375 1.0859,-0.8295 2.46882,-1.28245 3.75,-1.46875 L 33,53 c -0.01494,1.056623 0.943272,2.028477 2,2.028477 1.056728,0 2.01494,-0.971854 2,-2.028477 l 0,-22 c 0,-1.69662 1.303405,-3 3,-3 z" transform="translate(0,952.36218)"/></g></svg>