<!-- Generator: Adobe Illustrator 25.2.1, SVG Export Plug-In  -->
<svg version="1.1" xmlns="http://www.w3.org/2000/svg" xmlns:xlink="http://www.w3.org/1999/xlink" x="0px" y="0px" width="487.4px"
	 height="487.4px" viewBox="0 0 487.4 487.4" style="overflow:visible;enable-background:new 0 0 487.4 487.4;"
	 xml:space="preserve">
<style type="text/css">
	.st0{opacity:0.2;}
	.st1{fill:#C9C9C7;}
</style>
<defs>
</defs>
<g class="st0">
	<g>
		<g>
			<path class="st1" d="M289.4,289.4H99c-2,0-4,0.8-5.4,2.2L2.2,383L13,393.8l89.2-89.2H281c-1.6,9-6.6,22.8-22.1,22.8h-83.8v15.2
				h83.8c30.1,0,38.1-29.9,38.1-45.7C297,292.8,293.6,289.4,289.4,289.4z"/>
		</g>
	</g>
	<g>
		<g>
			<path class="st1" d="M386.2,238.3c-3-3-7.8-3-10.8,0l-68.5,68.5l10.8,10.8l62.6-62.5c10.3,13.7,8.2,33-4.8,44.2l-89.2,89.2H129.5
				c-2,0-4,0.8-5.4,2.2l-53.3,53.3l10.8,10.8l51.1-51.1h156.8c2,0,4-0.8,5.4-2.2l91.4-91.4C414.5,281.7,398.6,250.7,386.2,238.3z"/>
		</g>
	</g>
	<g>
		<g>
			<path class="st1" d="M243.7,0C109.1,0,0,109.1,0,243.7h15.2c0-126.2,102.3-228.5,228.5-228.5s228.5,102.3,228.5,228.5
				S369.9,472.2,243.7,472.2v15.2c134.6,0,243.7-109.1,243.7-243.7S378.3,0,243.7,0z"/>
		</g>
	</g>
	<g>
		<g>
			<path class="st1" d="M319.9,144.7h-53.3v15.2h34.9l-76.2,76.2h-34.9v15.2h38.1c2,0,4-0.8,5.4-2.2l78.4-78.4V198h15.2v-45.7
				C327.5,148.1,324.1,144.7,319.9,144.7z"/>
		</g>
	</g>
	<g>
		<g>
			<path class="st1" d="M83.8,236.1c-2,0-4,0.8-5.4,2.2l-22.8,22.8l10.8,10.8l20.6-20.6h57.8v-15.2H83.8z"/>
		</g>
	</g>
	<g>
		<g>
			<rect x="159.9" y="236.1" class="st1" width="15.2" height="15.2"/>
		</g>
	</g>
	<g>
		<g>
			<path class="st1" d="M61.7,173.7l14.5,4.6c21.7-70,86.6-117.6,159.9-117.3V45.7C156.1,45.4,85.4,97.4,61.7,173.7z"/>
		</g>
	</g>
</g>
</svg>
