<?xml version="1.0" encoding="UTF-8"?><svg xmlns="http://www.w3.org/2000/svg" id="Text6410b35a01e63" viewBox="0 0 63 63" aria-hidden="true" width="63px" height="63px"><defs><linearGradient class="cerosgradient" data-cerosgradient="true" id="CerosGradient_id1294eb30f" gradientUnits="userSpaceOnUse" x1="50%" y1="100%" x2="50%" y2="0%"><stop offset="0%" stop-color="#d1d1d1"/><stop offset="100%" stop-color="#d1d1d1"/></linearGradient><linearGradient/><style>.cls-1-6410b35a01e63{fill:none;stroke:#051c2c;stroke-miterlimit:10;}</style></defs><rect class="cls-1-6410b35a01e63" x="27.5" y="54.5" width="8" height="8"/><rect class="cls-1-6410b35a01e63" x="27.5" y=".5" width="8" height="8"/><polygon class="cls-1-6410b35a01e63" points="31.5 16 17.5 24 17.5 39 31.5 47 45.5 39 45.5 24 31.5 16"/><polyline class="cls-1-6410b35a01e63" points="31.5 47 31.5 32 45.5 24 31.5 32 17.5 24"/><rect class="cls-1-6410b35a01e63" x="54.5" y="15" width="8" height="8"/><polyline class="cls-1-6410b35a01e63" points="54.5 19 48.5 19 42.8 22.5"/><polyline class="cls-1-6410b35a01e63" points="54.5 44.5 48.3 44.5 42.2 40.9"/><rect class="cls-1-6410b35a01e63" x="54.5" y="40.5" width="8" height="8"/><rect class="cls-1-6410b35a01e63" x=".5" y="15" width="8" height="8"/><polyline class="cls-1-6410b35a01e63" points="8.5 19 14.5 19 20.4 22.3"/><polyline class="cls-1-6410b35a01e63" points="8.5 44.5 14.7 44.5 20.7 40.9"/><rect class="cls-1-6410b35a01e63" x=".5" y="40.5" width="8" height="8"/><line class="cls-1-6410b35a01e63" x1="31.5" y1="54.5" x2="31.5" y2="46.5"/><line class="cls-1-6410b35a01e63" x1="31.5" y1="16" x2="31.5" y2="8.5"/></svg>