<svg xmlns="http://www.w3.org/2000/svg" xmlns:xlink="http://www.w3.org/1999/xlink" version="1.1" x="0px" y="0px" viewBox="0 0 100 100" enable-background="new 0 0 100 100" xml:space="preserve" width="100px" height="100px"><g><g><path d="M58.623,48.565H53.81c-0.462,0-0.877-0.177-1.2-0.512c-0.312-0.316-0.48-0.728-0.48-1.181    c0-0.342,0.116-0.688,0.336-0.998c0.034-0.048,0.071-0.092,0.113-0.133l4.588-4.543h-4.037c-0.553,0-1-0.447-1-1s0.447-1,1-1    h4.823c0.46,0,0.887,0.185,1.203,0.52c0.306,0.323,0.468,0.729,0.468,1.174c0,0.339-0.096,0.662-0.276,0.934    c-0.037,0.056-0.08,0.107-0.129,0.155l-4.63,4.584h4.035c0.553,0,1,0.448,1,1S59.176,48.565,58.623,48.565z"/></g></g><g><g><path d="M67.284,43.122h-3.85c-0.417,0-0.808-0.166-1.102-0.468c-0.288-0.293-0.442-0.67-0.442-1.087    c0-0.313,0.104-0.628,0.3-0.909c0.035-0.049,0.074-0.096,0.117-0.139l3.324-3.291h-2.741c-0.553,0-1-0.447-1-1    c0-0.552,0.447-1,1-1h3.858c0.42,0,0.812,0.169,1.104,0.475c0.283,0.297,0.432,0.67,0.432,1.08c0,0.312-0.088,0.608-0.254,0.857    c-0.037,0.057-0.08,0.108-0.129,0.156l-3.359,3.325h2.742c0.553,0,1,0.448,1,1S67.837,43.122,67.284,43.122z"/></g></g><g><g><path d="M74.797,37.973h-3.08c-0.389,0-0.753-0.154-1.025-0.438c-0.261-0.262-0.409-0.622-0.409-1.006    c0-0.297,0.098-0.59,0.282-0.85c0.033-0.047,0.07-0.09,0.11-0.13l2.313-2.291h-1.706c-0.553,0-1-0.448-1-1s0.447-1,1-1h3.087    c0.393,0,0.758,0.157,1.029,0.442c0.261,0.277,0.398,0.623,0.398,1c0,0.294-0.084,0.572-0.243,0.806    c-0.036,0.053-0.077,0.103-0.122,0.147l-2.342,2.318h1.707c0.553,0,1,0.448,1,1C75.797,37.525,75.35,37.973,74.797,37.973z"/></g></g><g><path d="M45.467,71.247C45.467,71.247,45.467,71.247,45.467,71.247c-8.198-0.001-15.75-4.79-19.24-12.201   c-4.992-10.602-0.43-23.288,10.17-28.282c3.387-1.594,7.088-2.252,10.836-1.934c0.355,0.03,0.668,0.248,0.819,0.57   s0.12,0.701-0.083,0.995c-3.904,5.642-4.523,12.985-1.611,19.167c2.909,6.178,8.966,10.381,15.808,10.968   c0.354,0.03,0.667,0.247,0.818,0.57c0.152,0.322,0.121,0.701-0.082,0.994c-2.123,3.071-5.025,5.534-8.393,7.122   C51.646,70.564,48.605,71.247,45.467,71.247z M45.38,30.752c-2.833,0.002-5.568,0.615-8.131,1.822   c-9.603,4.522-13.735,16.016-9.213,25.62c3.161,6.714,10.003,11.052,17.43,11.053c0.001,0,0.001,0,0.001,0   c2.842,0,5.597-0.619,8.189-1.839c2.542-1.199,4.792-2.949,6.584-5.109c-6.819-1.163-12.731-5.597-15.693-11.885   C41.585,44.125,41.932,36.744,45.38,30.752z"/></g></svg>