<!-- Generator: Adobe Illustrator 25.1.0, SVG Export Plug-In  -->
<svg version="1.1" xmlns="http://www.w3.org/2000/svg" xmlns:xlink="http://www.w3.org/1999/xlink" x="0px" y="0px" width="135.1px"
	 height="135.1px" viewBox="0 0 135.1 135.1" style="overflow:visible;enable-background:new 0 0 135.1 135.1;"
	 xml:space="preserve">
<style type="text/css">
	.st0{fill:#5FB9E4;}
	.st1{fill:none;stroke:#5FB9E4;stroke-width:3;stroke-miterlimit:10;}
</style>
<defs>
</defs>
<g>
	<g>
		<path class="st0" d="M100.4,102H34.8c-4.8,0-8.6-3.8-8.6-8.6V52c0-4.8,3.8-8.6,8.6-8.6h65.5c4.8,0,8.6,3.8,8.6,8.6v41.4
			C109,98.2,105.2,102,100.4,102z M34.8,46.9c-2.8,0-5.2,2.4-5.2,5.2v41.4c0,2.8,2.4,5.2,5.2,5.2h65.5c2.8,0,5.2-2.4,5.2-5.2V52
			c0-2.8-2.4-5.2-5.2-5.2H34.8z"/>
	</g>
	<g>
		<path class="st0" d="M79.7,46.9c-1,0-1.7-0.7-1.7-1.7v-6.9c0-1-0.7-1.7-1.7-1.7H59c-1,0-1.7,0.7-1.7,1.7v6.9c0,1-0.7,1.7-1.7,1.7
			s-1.7-0.7-1.7-1.7v-6.9c0-2.8,2.4-5.2,5.2-5.2h17.2c2.8,0,5.2,2.4,5.2,5.2v6.9C81.4,46.2,80.7,46.9,79.7,46.9z"/>
	</g>
	<g>
		<path class="st0" d="M67.6,74.5c-0.3,0-0.3,0-0.7,0L27.2,60.7c-0.7-0.3-1.4-1.4-1-2.4c0.3-0.7,1.4-1.4,2.4-1l39,13.8l39-13.8
			c1-0.3,1.7,0,2.1,1c0.3,1,0,1.7-1,2.1L67.9,74.1C67.9,74.5,67.9,74.5,67.6,74.5L67.6,74.5z"/>
	</g>
</g>
<circle class="st1" cx="67.6" cy="67.6" r="66.1"/>
</svg>
