<?xml version="1.0" encoding="UTF-8"?><svg xmlns="http://www.w3.org/2000/svg" id="Exhibit_632ccafd4ae4a" viewBox="0 0 51.66 52.5" aria-hidden="true" width="51px" height="52px"><defs><linearGradient class="cerosgradient" data-cerosgradient="true" id="CerosGradient_idc9888d89d" gradientUnits="userSpaceOnUse" x1="50%" y1="100%" x2="50%" y2="0%"><stop offset="0%" stop-color="#d1d1d1"/><stop offset="100%" stop-color="#d1d1d1"/></linearGradient><linearGradient/><style>.cls-1-632ccafd4ae4a{fill:none;stroke:#2251ff;stroke-miterlimit:10;}</style></defs><line class="cls-1-632ccafd4ae4a" x1="6.87" y1="46.38" x2="6.87" y2="52.5"/><line class="cls-1-632ccafd4ae4a" x1="13.16" y1="46.38" x2="13.16" y2="52.5"/><line class="cls-1-632ccafd4ae4a" x1="19.54" y1="46.38" x2="19.54" y2="52.5"/><line class="cls-1-632ccafd4ae4a" x1="25.83" y1="46.38" x2="25.83" y2="52.5"/><line class="cls-1-632ccafd4ae4a" x1="32.12" y1="46.38" x2="32.12" y2="52.5"/><line class="cls-1-632ccafd4ae4a" x1="38.49" y1="46.38" x2="38.49" y2="52.5"/><line class="cls-1-632ccafd4ae4a" x1="44.78" y1="46.38" x2="44.78" y2="52.5"/><polyline class="cls-1-632ccafd4ae4a" points="22.31 35.73 22.31 10.15 29.27 10.15 29.27 35.73"/><polyline class="cls-1-632ccafd4ae4a" points="22.31 10.15 19.12 10.15 19.12 .5 32.45 .5 32.45 10.15 29.27 10.15"/><path class="cls-1-632ccafd4ae4a" d="M.5,46.38H51.16"/><path class="cls-1-632ccafd4ae4a" d="M.5,52.5v-14.43c0-1.26,1.01-2.35,2.35-2.35H48.81c1.26,0,2.35,1.09,2.35,2.35v14.43"/></svg>