<!-- Generator: Adobe Illustrator 25.2.0, SVG Export Plug-In  -->
<svg version="1.1" xmlns="http://www.w3.org/2000/svg" xmlns:xlink="http://www.w3.org/1999/xlink" x="0px" y="0px" width="186.5px"
	 height="210.7px" viewBox="0 0 186.5 210.7" style="overflow:visible;enable-background:new 0 0 186.5 210.7;"
	 xml:space="preserve">
<style type="text/css">
	.st0{fill:none;stroke:#E6E6E6;stroke-width:2;stroke-miterlimit:10;}
</style>
<defs>
</defs>
<g>
	<circle class="st0" cx="95.1" cy="21.4" r="20.4"/>
	<path class="st0" d="M64.5,117.6h-7.5v-52c0-8.2,6.5-14.6,14.6-14.6l0,0h42.5c8.2,0,14.6,6.5,14.6,14.6v52.7H121"/>
	<circle class="st0" cx="42.1" cy="26.5" r="18.7"/>
	<path class="st0" d="M17.7,130.5H1V69.3C1,61.5,7.5,55,15.3,55l0,0h28.5"/>
	<polyline class="st0" points="73.7,70.7 56.1,163.1 130.1,163.1 112.1,70.7 	"/>
	<polyline class="st0" points="71.3,163.1 71.3,209.7 113.5,209.7 113.5,163.1 	"/>
	<line class="st0" x1="92.4" y1="163.1" x2="92.4" y2="210"/>
	<polyline class="st0" points="17.7,78.8 17.7,203.2 58.8,203.2 	"/>
	<line class="st0" x1="40.1" y1="126.1" x2="40.1" y2="203.2"/>
	<circle class="st0" cx="144.7" cy="26.5" r="18.7"/>
	<path class="st0" d="M168.9,130.5h16.7V69.3c0-7.8-6.5-14.3-14.3-14.3h-28.5"/>
	<polyline class="st0" points="168.9,78.8 168.9,203.2 127.8,203.2 	"/>
	<line class="st0" x1="146.4" y1="126.1" x2="146.4" y2="203.2"/>
</g>
</svg>
