<?xml version="1.0" encoding="UTF-8"?><svg xmlns="http://www.w3.org/2000/svg" xmlns:xlink="http://www.w3.org/1999/xlink" id="Layer_163f68a5a37ced" viewBox="0 0 160 165.47" aria-hidden="true" width="160px" height="165px"><defs><linearGradient class="cerosgradient" data-cerosgradient="true" id="CerosGradient_iddce511666" gradientUnits="userSpaceOnUse" x1="50%" y1="100%" x2="50%" y2="0%"><stop offset="0%" stop-color="#d1d1d1"/><stop offset="100%" stop-color="#d1d1d1"/></linearGradient><style>.cls-1-63f68a5a37ced{fill:none;}.cls-2-63f68a5a37ced{fill:url(#linear-gradient63f68a5a37ced);}.cls-2-63f68a5a37ced,.cls-3-63f68a5a37ced{opacity:.2;}.cls-4-63f68a5a37ced{clip-path:url(#clippath63f68a5a37ced);}.cls-5-63f68a5a37ced{fill:#f7dedb;}.cls-6-63f68a5a37ced{fill:#eb0017;}.cls-7-63f68a5a37ced{fill:#fff;}.cls-8-63f68a5a37ced{fill:#c2c3bf;}.cls-9-63f68a5a37ced{fill:#d14900;}.cls-10-63f68a5a37ced{fill:#c78a82;}.cls-11-63f68a5a37ced{fill:#dcdcda;}.cls-12-63f68a5a37ced{fill:#dad8d4;}.cls-13-63f68a5a37ced{fill:#6c862a;}.cls-14-63f68a5a37ced{fill:#47535e;}.cls-15-63f68a5a37ced{fill:#262836;}.cls-16-63f68a5a37ced{fill:#5d6d78;}.cls-17-63f68a5a37ced{fill:#82939a;}.cls-18-63f68a5a37ced{fill:url(#linear-gradient-363f68a5a37ced);}.cls-19-63f68a5a37ced{fill:url(#linear-gradient-463f68a5a37ced);}.cls-3-63f68a5a37ced{fill:url(#linear-gradient-263f68a5a37ced);}</style><clipPath id="clippath63f68a5a37ced"><circle class="cls-1-63f68a5a37ced" cx="80" cy="80" r="80"/></clipPath><linearGradient id="linear-gradient63f68a5a37ced" x1="13.26" y1="78.74" x2="25.85" y2="78.74" gradientUnits="userSpaceOnUse"><stop offset="0" stop-color="#161630"/><stop offset="1" stop-color="#2d2d4d"/></linearGradient><linearGradient id="linear-gradient-263f68a5a37ced" x1="38.61" y1="75.02" x2="47.56" y2="75.02" xlink:href="#linear-gradient63f68a5a37ced"/><linearGradient id="linear-gradient-363f68a5a37ced" x1="119.03" y1="78.31" x2="134.29" y2="78.31" gradientUnits="userSpaceOnUse"><stop offset="0" stop-color="#5ba9a6"/><stop offset="1" stop-color="#606378"/></linearGradient><linearGradient id="linear-gradient-463f68a5a37ced" x1="115.72" y1="76.8" x2="120.56" y2="76.8" gradientUnits="userSpaceOnUse"><stop offset="0" stop-color="#5d6f80"/><stop offset="1" stop-color="#1b1e27"/></linearGradient></defs><circle class="cls-7-63f68a5a37ced" cx="80" cy="80" r="80"/><g class="cls-4-63f68a5a37ced"><path class="cls-8-63f68a5a37ced" d="m121.49,142.57h-44.89c-3.68,0-6.76-2.78-7.17-6.46l-9.84-88.08,60.51,1.93,7.99,85.31c.18,1.87-.45,3.75-1.71,5.13-1.25,1.37-3.03,2.16-4.88,2.16Zm-55.83-88.93l9.15,81.87c.1.94.88,1.65,1.79,1.65h44.89c.45,0,.74-.25.88-.39.14-.16.37-.49.33-.98l-7.54-80.56-49.49-1.58Z"/><path class="cls-11-63f68a5a37ced" d="m114.67,142.57h-46.82c-4.24,0-7.56-4.17-7.56-9.49v-14.09h5.41v14.09c0,2.49,1.27,4.08,2.15,4.08h46.82c.88,0,2.15-1.59,2.15-4.08v-14.09h5.41v14.09c0,5.32-3.32,9.49-7.56,9.49Z"/><g><rect class="cls-7-63f68a5a37ced" x="59.37" y="42.94" width="63.78" height="83.24" rx="4.3" ry="4.3"/><path class="cls-13-63f68a5a37ced" d="m118.85,42.94c2.36,0,4.29,1.92,4.29,4.29v74.64c0,2.36-1.92,4.29-4.29,4.29h-55.18c-2.36,0-4.29-1.92-4.29-4.29V47.23c0-2.36,1.92-4.29,4.29-4.29h55.18m0-.02h-55.18c-2.38,0-4.31,1.93-4.31,4.31v74.64c0,2.38,1.93,4.31,4.31,4.31h55.18c2.38,0,4.31-1.93,4.31-4.31V47.23c0-2.38-1.93-4.31-4.31-4.31h0Z"/></g><path class="cls-17-63f68a5a37ced" d="m123.16,47.23v4.16h-63.79v-4.16c0-2.38,1.93-4.31,4.31-4.31h55.18c2.38,0,4.31,1.93,4.31,4.31Z"/><g><g><g><rect class="cls-12-63f68a5a37ced" x="82.91" y="55.93" width="34.83" height="1.81" rx=".59" ry=".59"/><rect class="cls-12-63f68a5a37ced" x="82.91" y="60.56" width="34.83" height="1.81" rx=".59" ry=".59"/><rect class="cls-12-63f68a5a37ced" x="82.91" y="65.2" width="26.68" height="1.81" rx=".59" ry=".59"/></g><path class="cls-14-63f68a5a37ced" d="m75.77,67.95h-8.52c-1.36,0-2.46-1.11-2.46-2.46v-7.62c0-1.36,1.11-2.46,2.46-2.46h8.52c1.36,0,2.46,1.11,2.46,2.46v7.62c0,1.36-1.11,2.46-2.46,2.46Zm-8.52-11.51c-.78,0-1.42.64-1.42,1.42v7.62c0,.78.64,1.42,1.42,1.42h8.52c.78,0,1.42-.64,1.42-1.42v-7.62c0-.78-.64-1.42-1.42-1.42h-8.52Z"/></g><g><g><rect class="cls-12-63f68a5a37ced" x="82.91" y="76.34" width="34.83" height="1.81" rx=".59" ry=".59"/><rect class="cls-12-63f68a5a37ced" x="82.91" y="80.98" width="34.83" height="1.81" rx=".59" ry=".59"/><rect class="cls-12-63f68a5a37ced" x="82.91" y="85.61" width="26.68" height="1.81" rx=".59" ry=".59"/></g><path class="cls-14-63f68a5a37ced" d="m75.77,88.37h-8.52c-1.36,0-2.46-1.11-2.46-2.46v-7.62c0-1.36,1.11-2.46,2.46-2.46h8.52c1.36,0,2.46,1.11,2.46,2.46v7.62c0,1.36-1.11,2.46-2.46,2.46Zm-8.52-11.51c-.78,0-1.42.64-1.42,1.42v7.62c0,.78.64,1.42,1.42,1.42h8.52c.78,0,1.42-.64,1.42-1.42v-7.62c0-.78-.64-1.42-1.42-1.42h-8.52Z"/></g><g><g><rect class="cls-12-63f68a5a37ced" x="82.91" y="96.75" width="34.83" height="1.81" rx=".59" ry=".59"/><rect class="cls-12-63f68a5a37ced" x="82.91" y="101.39" width="34.83" height="1.81" rx=".59" ry=".59"/><rect class="cls-12-63f68a5a37ced" x="82.91" y="106.03" width="26.68" height="1.81" rx=".59" ry=".59"/></g><path class="cls-14-63f68a5a37ced" d="m75.77,108.78h-8.52c-1.36,0-2.46-1.11-2.46-2.46v-7.62c0-1.36,1.11-2.46,2.46-2.46h8.52c1.36,0,2.46,1.11,2.46,2.46v7.62c0,1.36-1.11,2.46-2.46,2.46Zm-8.52-11.51c-.78,0-1.42.64-1.42,1.42v7.62c0,.78.64,1.42,1.42,1.42h8.52c.78,0,1.42-.64,1.42-1.42v-7.62c0-.78-.64-1.42-1.42-1.42h-8.52Z"/></g></g><polygon class="cls-6-63f68a5a37ced" points="67.28 59.82 70.66 64.8 76.7 59.8 75.52 58.62 71 62.25 68.81 58.86 67.28 59.82"/><g><path class="cls-15-63f68a5a37ced" d="m17.38,97.64s-3.54,3.58-1.14,11.05c2.4,7.47,2.4,19.84,2.4,19.84,0,0-1.72,3.29-1.62,11.12.11,7.83.55,13.52.55,13.52,0,0,1.33,1.96,4,1.51,2.67-.44,2.67-.89,2.67-.89,0,0,1.16-19.12,3.38-24.19,2.22-5.07,2.49-23.12,2.49-23.12l5.34,18.94s-2.05,9.16-.8,17.88c1.25,8.72,1.51,10.5,1.51,10.5,0,0,2.31.89,4.27.36l1.96-.53s0-22.15,1.6-26.51c1.6-4.36-5.38-30.8-5.38-30.8l-21.23,1.34Z"/><path class="cls-6-63f68a5a37ced" d="m20.54,63.31h15.71c1.08,0,2.1.46,2.82,1.26l7.83,8.71,9.8-8.63s1.09-.5,2.01.84c.92,1.34,1,2.43,1,2.43,0,0-11.89,12.22-13.31,12.31-1.42.08-7.79-4.12-7.79-4.12v20.19s-7.54,2.79-13.56,2.36-8.29-1.19-8.29-1.19v-6.53s-7.12,1.99-7.28-1.78c-.17-3.77,2.61-16.39,3.38-20.02.38-1.77,1.44-2.86,2.37-3.87,1.18-1.29,3.57-1.96,5.32-1.96Z"/><path class="cls-5-63f68a5a37ced" d="m33.7,48.07s.82,2.64.78,3.46c-.04.82-.39,1.12-.39,1.12,0,0,.48,1.38.39,2.41-.09,1.03-.13,4.13-.78,4.82-.65.69-3.14.56-3.49.69-.34.13.18,2.85.18,2.85,0,0,.29,1.8-2.77,2.36-3.06.56-5.57-2.22-5.57-2.22l.49-11.56s2.67-3.62,3.1-3.66c.43-.04,8.05-.27,8.05-.27Z"/><path class="cls-9-63f68a5a37ced" d="m26.94,49.25s1.98.99,5.17.47c3.19-.52,3.7-4.61,3.27-4.82-.43-.22-12.1-.6-13.78.22-1.68.82-.69,3.92-.69,3.92,0,0-2.24.47-1.9,3.96.34,3.49,3.32,6.16,4.31,6.2.99.04,1.42-1.55.78-3.1-.65-1.55.56-2.33,1.16-1.98.6.34.47,2.5,1.03,2.54s.86-.95.65-2.37c-.22-1.42.6-1.08.65-2.11.04-1.03-.65-2.93-.65-2.93Z"/><path class="cls-16-63f68a5a37ced" d="m25.85,65.67l-2.38,2.72s-3.9-3.65-3.51-4.41c.39-.75,2.05-.66,2.05-.66l3.84,2.35Z"/><path class="cls-16-63f68a5a37ced" d="m29.96,63.31l-2.2,2.53,2.73,1.8s2.91-4.3,2.73-4.61c-.18-.31-1.72-.97-2.07-.97s-1.19,1.24-1.19,1.24Z"/><path class="cls-15-63f68a5a37ced" d="m18.57,154.08s-1.28,4.9-.43,5.87,10.78,1.01,11.68.23c.9-.78-1.24-2.21-3.53-3.18s-2.04-3.21-2.04-3.21c0,0-3.03,1.34-5.68.3Z"/><path class="cls-15-63f68a5a37ced" d="m41.96,153.72s-.35,1.22,2.45,1.76c2.79.54,5.32.62,5.39,2.06.08,1.44-5.74.85-8.03.85s-3.96,1.32-4.7-.35c-.74-1.67-.4-4.09-.4-4.09,0,0,3.65.61,5.29-.23Z"/><path class="cls-5-63f68a5a37ced" d="m26.51,83.37s1.83-1.91,2.84-1.94c1.01-.04,2.95,0,2.95,0,0,0,.6.64-.75.78-1.34.15-2.47,1.08-1.16,1.31,1.31.22,4.63-1.87,5.31-1.46.67.41.07,2.43-2.84,4-2.91,1.57-6.35,1.87-6.35,1.87,0,0-1.87-3.25,0-4.56Z"/><path class="cls-5-63f68a5a37ced" d="m59.71,67.31s2.63-.55,3.57-2.44c.93-1.89.82-3.35.82-3.35,0,0-.78-1-1.64.79-.86,1.79-1.34,1.01-1.34,1.01,0,0,1.27-2.58,2.73-2.4,1.46.19,2.09.07,1.83-.75s-2.69-1.12-4.41-.19c-1.72.93-3.9,4.59-3.9,4.59,0,0,1.78,1.13,2.35,2.74Z"/><path class="cls-15-63f68a5a37ced" d="m62.8,61.71l-9.23-4.74-1.09,2.23,9.05,4.26s1.34-.17,1.26-1.75Z"/><path class="cls-15-63f68a5a37ced" d="m54.08,57.92l8.68,4.34-.14.41-.24.33-8.7-4.19s.43-.51.4-.89Z"/><path class="cls-15-63f68a5a37ced" d="m53.66,57.02s-.04-.01-.06-.02h0s-.84-.42-.84-.42l-1.08,2.24.77.38s.02.01.03.02c.01,0,.02,0,.03.01l.03.02h0c.45.16,1.03-.15,1.34-.73.32-.61.22-1.28-.24-1.5Z"/><path class="cls-15-63f68a5a37ced" d="m53.04,58.1c-.32.61-.95.92-1.41.71-.45-.22-.56-.89-.24-1.5.32-.61.95-.92,1.41-.71.45.22.56.89.24,1.5Z"/><path class="cls-15-63f68a5a37ced" d="m64.05,62.41l1.24.55,1.55,1.96-2.53-.12-.81-.41s.46-.98.55-1.98Z"/><path class="cls-15-63f68a5a37ced" d="m65.29,62.96s.2.59-.12,1.15c-.32.56-.86.7-.86.7l2.53.12-1.55-1.96Z"/><path class="cls-15-63f68a5a37ced" d="m66.17,64.08s.11.24,0,.48c-.11.23-.35.32-.35.32l1.01.05-.66-.84Z"/><path class="cls-15-63f68a5a37ced" d="m63.98,62.84l1.35.74s.07.29-.17.57c-.24.27-.18.2-.18.2l-1.25-.59s.19-.55.25-.91Z"/><path class="cls-2-63f68a5a37ced" d="m16.99,69.8s.62,2.23.43,4.59c-.19,2.36-.93,9.56-2.02,10.74-1.09,1.18-2.14,2.55-2.14,2.55,0,0,2.11-2.23,3.41-2.3,1.3-.06,9.18-1.92,9.18-1.92,0,0-7.75,1.15-7.93.42-.19-.73.37-8.61.12-11.41-.25-2.79-1.06-2.67-1.06-2.67Z"/><path class="cls-3-63f68a5a37ced" d="m38.61,76.11l.23-6.31s.43,4.02,3.17,6.31c2.74,2.3,5.55,3.43,5.55,3.43,0,0-.63,1.05-1.77.58s-7.18-4.01-7.18-4.01Z"/></g><g><g><rect class="cls-18-63f68a5a37ced" x="119.03" y="68.39" width="15.26" height="19.83"/><path class="cls-19-63f68a5a37ced" d="m115.72,85.21v-15.23c0-.88.71-1.59,1.59-1.59h1.72c.84,0,1.53.68,1.53,1.53v15.3h-4.84Z"/></g><path class="cls-10-63f68a5a37ced" d="m126.52,59.12s-1.32,2.11-1.08,3.14c.25,1.03.2,5.2,1.08,5.59.88.39,3.14-.34,3.43.2.29.54,0,3.48,0,3.48h9.27l-2.5-13-10.2.59Z"/><path class="cls-15-63f68a5a37ced" d="m124.41,54.53c-.7,3.54-.05,5.23,2.94,6.8,2.99,1.57,3.78,1.03,3.78,1.03,0,0,.29-3.38,1.47-3.04,1.18.34-.64,2.75.83,4.56,1.47,1.81,4.17,2.21,6.06.44,1.89-1.77,3.7-11.38-.81-13.44-4.51-2.06-13.54-.06-14.27,3.65Z"/><path class="cls-10-63f68a5a37ced" d="m113.15,88.22s-2.85,4.96-1.71,6.36c1.14,1.41,10.48.89,10.85.89s-.81-5.04-.81-5.04l-8.32-2.22Z"/><path class="cls-10-63f68a5a37ced" d="m146.57,90.56s.79,1.58,0,3.53c-.79,1.95-2.97,2.16-2.97,2.16v-5.7h2.97Z"/><path class="cls-15-63f68a5a37ced" d="m138.18,159.53s-.15,1.59-3.24,2.29c-3.09.71-7.85,1.15-5.56,2.21,2.29,1.06,7.24.35,9.18,0,1.94-.35,4.85,1.15,5.38-.18.53-1.32-.21-4.46-.21-4.46,0,0-3.64.57-5.55.13Z"/><path class="cls-15-63f68a5a37ced" d="m120.97,105.14s-1.22,24.28-1.22,26.72,2.56,10.63,3.2,17.67c.64,7.04,0,10.37,0,10.37,0,0,.9,1.41,2.82,1.41s3.93-1.02,3.93-1.02c0,0,1.19-11.39,1.06-19.2-.13-7.81-1.06-10.63-1.06-10.63,0,0,.55-10.63,1.83-13.31,1.28-2.69,1.79-3.97,1.79-3.97,0,0,.38,15.87,1.41,19.07,1.02,3.2,2.82,11.14,3.07,15.23.26,4.1,0,11.65,0,11.65,0,0,.9,1.41,3.2,1.15s3.58-1.79,3.58-1.79c0,0,2.82-17.01,1.28-23.16-1.54-6.15-1.79-6.79-1.79-6.79,0,0,1.54-4.99.9-12.55s-1.38-11.21-1.38-11.21l-22.62.37Z"/><path class="cls-15-63f68a5a37ced" d="m124.15,160.41s-.15,1.59-3.24,2.29c-3.09.71-7.85,1.15-5.56,2.21,2.29,1.06,7.24.35,9.18,0,1.94-.35,4.85,1.15,5.38-.18.53-1.32-.21-4.46-.21-4.46,0,0-3.64.57-5.55.13Z"/><path class="cls-6-63f68a5a37ced" d="m128.86,70.28s11.58.21,11.79,0c.21-.21,1.47,2.37,1.99,2.49.52.11,4.77.42,5.2,2.22.43,1.8-.43,15.58-.43,15.58h-3.81v14.22s-3.29,1.21-12.31,1.39c-9.01.17-11.09-1.39-11.09-1.39v-13.35s-.64.25-3.93-.56c-3.29-.81-4.12-2.96-4.12-2.96,0,0,8.4-16.12,9.87-16.38,1.47-.26,4.5-.3,5.37-.3s1.47-.95,1.47-.95Z"/><path class="cls-15-63f68a5a37ced" d="m140.98,51.96c-1.97-.9-3.87.99-4.46,3.13-.59,2.14.88,3.23.88,3.23,0,0-2.14,3.23-1.02,9.6,1.12,6.38,8.23,7.06,8.23,7.06,0,0-2.7-3.71-2.01-9.64.69-5.93.92-12.23-1.62-13.39Z"/></g></g></svg>