<!-- Generator: Adobe Illustrator 25.2.1, SVG Export Plug-In  -->
<svg version="1.1" xmlns="http://www.w3.org/2000/svg" xmlns:xlink="http://www.w3.org/1999/xlink" x="0px" y="0px" width="74.1px"
	 height="83.6px" viewBox="0 0 74.1 83.6" style="overflow:visible;enable-background:new 0 0 74.1 83.6;" xml:space="preserve">
<style type="text/css">
	.st0{fill:none;stroke:#5FB9E4;stroke-width:1.6;stroke-linecap:round;stroke-linejoin:round;stroke-miterlimit:10;}
</style>
<defs>
</defs>
<g>
	<g>
		<path class="st0" d="M11.2,21.3l21-12.2 M6.4,54V29.6 M25.5,70.5l-14.3-8.3 M62.9,62.3L41.9,74.4 M67.8,29.6V54 M48.9,13.1l14,8.1
			"/>
		<path class="st0" d="M42.6,6.4c0,3.1-2.5,5.6-5.6,5.6c-3.1,0-5.6-2.5-5.6-5.6c0-3.1,2.5-5.6,5.6-5.6C40.1,0.8,42.6,3.3,42.6,6.4
			L42.6,6.4z M11.9,24c0,3.1-2.5,5.6-5.6,5.6c-3.1,0-5.6-2.5-5.6-5.6c0-3.1,2.5-5.6,5.6-5.6C9.4,18.5,11.9,21,11.9,24L11.9,24z
			 M11.9,59.5c0,3.1-2.5,5.6-5.6,5.6c-3.1,0-5.6-2.5-5.6-5.6S3.3,54,6.4,54C9.4,54,11.9,56.5,11.9,59.5L11.9,59.5z M73.3,59.5
			c0,3.1-2.5,5.6-5.6,5.6c-3.1,0-5.6-2.5-5.6-5.6s2.5-5.6,5.6-5.6C70.8,54,73.3,56.5,73.3,59.5L73.3,59.5z M73.3,24
			c0,3.1-2.5,5.6-5.6,5.6c-3.1,0-5.6-2.5-5.6-5.6c0-3.1,2.5-5.6,5.6-5.6C70.8,18.5,73.3,21,73.3,24L73.3,24z M42.6,77.3
			c0,3.1-2.5,5.6-5.6,5.6c-3.1,0-5.6-2.5-5.6-5.6c0-3.1,2.5-5.6,5.6-5.6C40.1,71.7,42.6,74.2,42.6,77.3L42.6,77.3z"/>
	</g>
</g>
</svg>
