<!-- Generator: Adobe Illustrator 25.1.0, SVG Export Plug-In  -->
<svg version="1.1" xmlns="http://www.w3.org/2000/svg" xmlns:xlink="http://www.w3.org/1999/xlink" x="0px" y="0px" width="135.1px"
	 height="135.1px" viewBox="0 0 135.1 135.1" style="overflow:visible;enable-background:new 0 0 135.1 135.1;"
	 xml:space="preserve">
<style type="text/css">
	.st0{fill:#5FB9E4;}
	.st1{fill:none;stroke:#5FB9E4;stroke-width:3;stroke-miterlimit:10;}
</style>
<defs>
</defs>
<g id="real_estate_office_1_">
	<g>
		<path class="st0" d="M106.9,63.1L86.8,52.3V34c0-1-0.6-1.6-1.6-1.6h-1.6V26c0-1-0.6-1.6-1.6-1.6H53.1c-1,0-1.6,0.6-1.6,1.6v6.4
			h-1.6c-1,0-1.6,0.6-1.6,1.6v12.9H28.9c-1,0-1.6,0.6-1.6,1.6v54.7c0,1,0.6,1.6,1.6,1.6h77.2c1,0,1.6-0.6,1.6-1.6
			C107.7,61.5,108,63.7,106.9,63.1z M54.7,27.6h25.7v4.8H54.7V27.6z M48.2,90.3H37v-3.2h11.3V90.3z M48.2,75.8H37v-3.2h11.3V75.8z
			 M48.2,61.3H37v-3.2h11.3V61.3z M30.6,50.1h17.7v4.8H35.4c-1,0-1.6,0.6-1.6,1.6v6.4c0,1,0.6,1.6,1.6,1.6h12.9v4.8H35.4
			c-1,0-1.6,0.6-1.6,1.6v6.4c0,1,0.6,1.6,1.6,1.6h12.9v4.8H35.4c-1,0-1.6,0.6-1.6,1.6v6.4c0,1,0.6,1.6,1.6,1.6h12.9v8H30.6V50.1z
			 M51.5,35.6h32.2v65.9h-4.8V85.5c0-1-0.6-1.6-1.6-1.6H57.9c-1,0-1.6,0.6-1.6,1.6v16.1h-4.8C51.5,81.4,51.5,57.3,51.5,35.6z
			 M59.5,101.5V87.1h16.1v14.5H59.5z M104.5,101.5H86.8V56l17.7,9.5V101.5z"/>
		<path class="st0" d="M57.9,50.1h6.4c1,0,1.6-0.6,1.6-1.6V42c0-1-0.6-1.6-1.6-1.6h-6.4c-1,0-1.6,0.6-1.6,1.6v6.4
			C56.3,49.4,56.9,50.1,57.9,50.1z M59.5,43.7h3.2v3.2h-3.2V43.7z"/>
		<path class="st0" d="M70.7,50.1h6.4c1,0,1.6-0.6,1.6-1.6V42c0-1-0.6-1.6-1.6-1.6h-6.4c-1,0-1.6,0.6-1.6,1.6v6.4
			C69.1,49.4,69.8,50.1,70.7,50.1z M72.4,43.7h3.2v3.2h-3.2V43.7z"/>
		<path class="st0" d="M57.9,64.6h6.4c1,0,1.6-0.6,1.6-1.6v-6.4c0-1-0.6-1.6-1.6-1.6h-6.4c-1,0-1.6,0.6-1.6,1.6v6.4
			C56.3,63.9,56.9,64.6,57.9,64.6z M59.5,58.1h3.2v3.2h-3.2V58.1z"/>
		<path class="st0" d="M70.7,64.6h6.4c1,0,1.6-0.6,1.6-1.6v-6.4c0-1-0.6-1.6-1.6-1.6h-6.4c-1,0-1.6,0.6-1.6,1.6v6.4
			C69.1,63.9,69.8,64.6,70.7,64.6z M72.4,58.1h3.2v3.2h-3.2V58.1z"/>
		<path class="st0" d="M57.9,79h6.4c1,0,1.6-0.6,1.6-1.6V71c0-1-0.6-1.6-1.6-1.6h-6.4c-1,0-1.6,0.6-1.6,1.6v6.4
			C56.3,78.4,56.9,79,57.9,79z M59.5,72.6h3.2v3.2h-3.2V72.6z"/>
		<path class="st0" d="M70.7,79h6.4c1,0,1.6-0.6,1.6-1.6V71c0-1-0.6-1.6-1.6-1.6h-6.4c-1,0-1.6,0.6-1.6,1.6v6.4
			C69.1,78.4,69.8,79,70.7,79z M72.4,72.6h3.2v3.2h-3.2V72.6z"/>
		<path class="st0" d="M91.6,79h6.4c1,0,1.6-0.6,1.6-1.6V71c0-1-0.6-1.6-1.6-1.6h-6.4c-1,0-1.6,0.6-1.6,1.6v6.4
			C90,78.4,90.7,79,91.6,79z M93.3,72.6h3.2v3.2h-3.2V72.6z"/>
		<path class="st0" d="M91.6,93.5h6.4c1,0,1.6-0.6,1.6-1.6v-6.4c0-1-0.6-1.6-1.6-1.6h-6.4c-1,0-1.6,0.6-1.6,1.6v6.4
			C90,92.8,90.7,93.5,91.6,93.5z M93.3,87.1h3.2v3.2h-3.2V87.1z"/>
	</g>
</g>
<circle class="st1" cx="67.6" cy="67.6" r="66.1"/>
</svg>
