<svg xmlns="http://www.w3.org/2000/svg" xmlns:xlink="http://www.w3.org/1999/xlink" version="1.1" x="0px" y="0px" viewBox="0 0 67.625 65.958" enable-background="new 0 0 67.625 65.958" xml:space="preserve" width="67px" height="65px"><g><path fill="none" d="M30.947,49.831c-0.025,0-0.05,0-0.075,0c-0.723,0-1.42-0.318-1.893-0.869l-13.749-16   c-0.9-1.047-0.782-2.626,0.267-3.526c1.046-0.9,2.624-0.78,3.526,0.266l11.738,13.66l21.492-28.131   c-4.975-5.383-12.09-8.758-20.002-8.772C17.201,6.485,5.027,18.66,5,33.708c0.027,15.049,12.201,27.223,27.251,27.249   C47.299,60.931,59.474,48.757,59.5,33.708c-0.009-5.271-1.513-10.186-4.104-14.353L32.862,48.851   C32.406,49.446,31.698,49.81,30.947,49.831z"/><path fill="#000000" d="M66.645,0.514c-1.099-0.838-2.668-0.63-3.506,0.469l-7.805,10.215c-5.856-6.005-14.031-9.739-23.083-9.74   C14.439,1.46,0.002,15.896,0,33.708c0.002,17.813,14.439,32.249,32.251,32.25c17.811-0.002,32.247-14.438,32.249-32.25   c-0.001-6.914-2.184-13.314-5.888-18.564l8.5-11.126C67.949,2.921,67.74,1.352,66.645,0.514z M59.5,33.708   c-0.026,15.049-12.201,27.223-27.249,27.249C17.201,60.931,5.027,48.757,5,33.708C5.027,18.66,17.201,6.485,32.251,6.458   c7.912,0.014,15.027,3.39,20.002,8.772L30.761,43.362l-11.738-13.66c-0.902-1.046-2.479-1.166-3.526-0.266   c-1.049,0.9-1.167,2.479-0.267,3.526l13.749,16c0.473,0.551,1.17,0.869,1.893,0.869c0.025,0,0.05,0,0.075,0   c0.751-0.021,1.459-0.385,1.916-0.98l22.533-29.496C57.987,23.522,59.491,28.437,59.5,33.708z"/></g></svg>