<!-- Generator: Adobe Illustrator 25.2.3, SVG Export Plug-In  -->
<svg version="1.1" xmlns="http://www.w3.org/2000/svg" xmlns:xlink="http://www.w3.org/1999/xlink" x="0px" y="0px" width="44.1px"
	 height="35.5px" viewBox="0 0 44.1 35.5" style="overflow:visible;enable-background:new 0 0 44.1 35.5;" xml:space="preserve">
<style type="text/css">
	.st0{fill:#5FB9E4;}
</style>
<defs>
</defs>
<g>
	<path class="st0" d="M32.1,18.8H21.9v-1.5h10.2c3.6,0,6.5-2.9,6.5-6.5c0-1.7-0.7-3.3-1.9-4.6c-1.2-1.2-2.8-1.9-4.6-1.9h-4.9V3h4.9
		c2.1,0,4.1,0.8,5.6,2.3c1.5,1.5,2.3,3.5,2.3,5.6C40,15.3,36.5,18.8,32.1,18.8L32.1,18.8z"/>
	<path class="st0" d="M16.8,31.7H35v1.5H16.8V31.7z"/>
	<path class="st0" d="M11.5,33.2H9.4c-4.4,0-7.9-3.5-7.9-7.9c0-2.1,0.8-4.1,2.3-5.6c1.5-1.5,3.5-2.3,5.6-2.3h7.2v1.5H9.4
		c-1.7,0-3.4,0.7-4.6,1.9C3.6,22,3,23.6,3,25.3c0,3.6,2.9,6.5,6.5,6.5h2.1L11.5,33.2L11.5,33.2z"/>
	<path class="st0" d="M6,3h15.9v1.5H6V3z"/>
	<path class="st0" d="M3.4,6.8C1.5,6.8,0,5.2,0,3.4S1.5,0,3.4,0s3.4,1.5,3.4,3.4S5.2,6.8,3.4,6.8z M3.4,1.5c-1.1,0-1.9,0.9-1.9,1.9
		s0.9,1.9,1.9,1.9s1.9-0.9,1.9-1.9S4.4,1.5,3.4,1.5z"/>
	<path class="st0" d="M24.5,6.7c-1.7,0-3.1-1.2-3.3-2.9c0-0.1,0-0.3,0-0.5c0-1.9,1.5-3.4,3.4-3.4c1.9,0,3.4,1.5,3.4,3.4
		c0,0.2,0,0.3,0,0.5C27.6,5.5,26.2,6.7,24.5,6.7z M24.5,1.5c-1.1,0-1.9,0.9-1.9,1.9c0,0.1,0,0.2,0,0.3c0.1,1,1,1.7,1.9,1.7
		c0.9,0,1.8-0.7,1.9-1.6c0-0.1,0-0.2,0-0.3C26.5,2.3,25.6,1.5,24.5,1.5z"/>
	<path class="st0" d="M19.2,21.1c-1.7,0-3.1-1.2-3.3-2.9c0-0.1,0-0.3,0-0.5c0-1.9,1.5-3.4,3.4-3.4c1.9,0,3.4,1.5,3.4,3.4
		c0,0.2,0,0.3,0,0.5C22.4,19.9,20.9,21.1,19.2,21.1z M19.2,15.8c-1.1,0-1.9,0.9-1.9,1.9c0,0.1,0,0.2,0,0.3c0.1,1,1,1.7,1.9,1.7
		c0.9,0,1.8-0.7,1.9-1.6c0-0.1,0-0.2,0-0.3C21.2,16.7,20.3,15.8,19.2,15.8z"/>
	<path class="st0" d="M14.1,35.5c-1.7,0-3.1-1.2-3.3-2.9c0-0.1,0-0.3,0-0.5c0-1.9,1.5-3.4,3.4-3.4c1.9,0,3.4,1.5,3.4,3.4
		c0,0.2,0,0.3,0,0.5C17.3,34.2,15.8,35.5,14.1,35.5z M14.1,30.2c-1.1,0-1.9,0.9-1.9,1.9c0,0.1,0,0.2,0,0.2c0.1,1,0.9,1.7,1.9,1.7
		c1,0,1.8-0.7,1.9-1.6c0-0.1,0-0.2,0-0.3C16.1,31,15.2,30.2,14.1,30.2L14.1,30.2z"/>
	<path class="st0" d="M36.6,34.7c-1.3,0-2.3-1-2.3-2.3c0-1.3,1-2.3,2.3-2.3c1.3,0,2.3,1,2.3,2.3C39,33.7,37.9,34.7,36.6,34.7z
		 M36.6,31.5c-0.5,0-0.9,0.4-0.9,0.9c0,0.5,0.4,0.9,0.9,0.9c0.5,0,0.9-0.4,0.9-0.9C37.5,31.9,37.1,31.5,36.6,31.5z"/>
	<path class="st0" d="M36.6,22.1c-0.4,0-0.7-0.3-0.7-0.7v-0.9c0-0.4,0.3-0.7,0.7-0.7s0.7,0.3,0.7,0.7v0.9
		C37.4,21.8,37,22.1,36.6,22.1z"/>
	<path class="st0" d="M36.6,31.5c-0.4,0-0.7-0.3-0.7-0.7V26c0-0.4,0.3-0.7,0.7-0.7s0.7,0.3,0.7,0.7v4.8C37.4,31.2,37,31.5,36.6,31.5
		z"/>
	<path class="st0" d="M43.4,26.7h-6.8c-0.4,0-0.7-0.3-0.7-0.7v-4.6c0-0.4,0.3-0.7,0.7-0.7h6.8c0.3,0,0.5,0.2,0.6,0.4
		c0.1,0.2,0.1,0.5,0,0.8l-1.3,1.9l1.3,1.9c0.2,0.2,0.2,0.5,0,0.8C43.9,26.6,43.7,26.7,43.4,26.7L43.4,26.7z M37.4,25.3H42l-0.8-1.2
		c-0.2-0.3-0.2-0.6,0-0.8l0.8-1.2h-4.6L37.4,25.3L37.4,25.3z"/>
</g>
</svg>
