<!-- Generator: Adobe Illustrator 25.2.3, SVG Export Plug-In  -->
<svg version="1.1" xmlns="http://www.w3.org/2000/svg" xmlns:xlink="http://www.w3.org/1999/xlink" x="0px" y="0px" width="43.8px"
	 height="44.1px" viewBox="0 0 43.8 44.1" style="overflow:visible;enable-background:new 0 0 43.8 44.1;" xml:space="preserve">
<style type="text/css">
	.st0{fill:#5FB9E4;}
</style>
<defs>
</defs>
<g>
	<path class="st0" d="M15.3,35.6h4.5c0.8,0,0.8-1.3,0-1.3h-4.5C14.5,34.3,14.4,35.6,15.3,35.6z"/>
	<path class="st0" d="M8.5,35.6c0.8,0,0.8-1.3,0-1.3H4c-0.8,0-0.8,1.3,0,1.3H8.5z"/>
	<path class="st0" d="M43.3,36.4c-0.7-0.8-2-0.9-2.8-0.2l-2,1.8l-5.3-6.1l1.2-1.1c0.6-0.5-0.2-1.5-0.9-1l-6.9,6
		c-0.7,0.6-1.6-0.5-0.9-1.1L36,25.7c0.7-0.6,1.6,0.5,0.9,1.1l-1,0.9c-0.6,0.5,0.2,1.5,0.9,1l1-0.9c1.9-1.7-0.7-4.7-2.6-3l-1.1,1
		l-2.8-3.2l-0.9-1c0,0,0,0,0,0L18.8,8.2c-0.7-0.8-2-0.9-2.8-0.2l-0.5,0.4L14,6.7c-0.7-0.8-2-0.9-2.8-0.2l-0.1,0.1L5.6,0.2
		c-0.5-0.6-1.5,0.2-1,0.8l5.5,6.4L10,7.6c-0.8,0.7-0.9,2-0.2,2.8l1.5,1.7l-0.5,0.4c-0.8,0.7-0.9,2-0.2,2.8l3.2,3.7
		c-0.2,0.1-0.3,0.3-0.3,0.5v2.4c0,0.4,0.3,0.6,0.6,0.6H15V24l-3,3.5c-0.1,0.2-0.2,0.2-0.3,0l-3-3.5v-1.5h0.7c0.4,0,0.6-0.3,0.6-0.6
		v-2.4c0-0.4-0.3-0.6-0.6-0.6H3c-0.4,0-0.6,0.3-0.6,0.6v2.4c0,0.4,0.3,0.6,0.6,0.6h0.7V24l-3,3.5C0.3,28.1,0,28.8,0,29.6v3.6
		c0,0.8,1.3,0.8,1.3,0v-1.5h10v6h-10v-1.1c0-0.8-1.3-0.8-1.3,0v5.2c0,1.3,1,2.3,2.3,2.3h8c0.6,0,1.2-0.3,1.6-0.7
		c0.4,0.4,1,0.7,1.6,0.7h8c1.3,0,2.3-1,2.3-2.3V30.3l2.2,2.5l-1.1,1c-1.9,1.7,0.7,4.7,2.6,3l4.7-4.1l5.3,6.1l-2,1.8
		c-1.9,1.7,0.7,4.7,2.6,3l5.1-4.4C43.9,38.5,44,37.2,43.3,36.4L43.3,36.4z M30.5,28.9l-1.8-2l2.6-2.3l1.8,2L30.5,28.9z M23.6,28.2
		l6.1-5.4l0.7,0.8L24.3,29L23.6,28.2z M10.8,9.5c-0.2-0.3-0.2-0.7,0.1-1l1.2-1.1c0.3-0.2,0.7-0.2,0.9,0.1l1.5,1.7l-2.2,2L10.8,9.5z
		 M11.7,13.5L16.9,9c0.3-0.2,0.6-0.2,0.9,0.1l1.2,1.4l-0.8,0.7c-0.6,0.5,0.2,1.5,0.9,1l0.8-0.7l1.5,1.8l-1.9,1.7
		c-0.6,0.5,0.2,1.5,0.9,1l1.9-1.6l1.5,1.8L23,16.6c-0.6,0.5,0.2,1.5,0.9,1l0.8-0.7l1.5,1.8l-1.9,1.7c-0.6,0.5,0.2,1.5,0.9,1l1.9-1.6
		l1.9,2.2l-6.1,5.4L20,24v-1.5h0.7c0.4,0,0.6-0.3,0.6-0.6v-2.4c0-0.4-0.3-0.6-0.6-0.6h-5.3l-3.8-4.4C11.4,14.1,11.5,13.7,11.7,13.5
		L11.7,13.5z M14.9,20.1h5.2v1.1h-0.7h-3.7h-0.7L14.9,20.1z M18.7,22.5v1.1h-2.5v-1.1H18.7z M22.5,37.8h-10v-6h10V37.8z M3.7,20.1
		h5.2v1.1H8.1H4.4H3.7V20.1z M7.5,22.5v1.1H5v-1.1H7.5z M1.3,30.5c0-0.7,0-1.5,0.5-2.1l2.9-3.5h3.2l2.9,3.5c0.5,0.6,0.5,1.4,0.5,2.1
		H1.3z M10.3,42.8h-8c-0.5,0-1-0.4-1-1v-2.8h10v2.8C11.2,42.4,10.8,42.8,10.3,42.8z M21.5,42.8h-8c-0.5,0-1-0.4-1-1v-2.8h10v2.8
		C22.5,42.4,22.1,42.8,21.5,42.8z M22,28.3c0.5,0.6,0.5,1.4,0.5,2.1h-10c0-0.7,0-1.5,0.5-2.1l2.9-3.5h3.1L22,28.3z M25.2,29.9
		l2.6-2.3l1.8,2L26.9,32L25.2,29.9z M42.2,38.2l-5.1,4.4c-0.7,0.6-1.6-0.5-0.9-1.1l5.1-4.4C42,36.6,42.9,37.6,42.2,38.2L42.2,38.2z"
		/>
</g>
</svg>
