<!-- Generator: Adobe Illustrator 25.0.1, SVG Export Plug-In  -->
<svg version="1.1" xmlns="http://www.w3.org/2000/svg" xmlns:xlink="http://www.w3.org/1999/xlink" x="0px" y="0px" width="712.2px"
	 height="367.8px" viewBox="0 0 712.2 367.8" style="overflow:visible;enable-background:new 0 0 712.2 367.8;"
	 xml:space="preserve">
<style type="text/css">
	.st0{opacity:0.3;}
	.st1{opacity:0.3;fill:#FFFFFF;}
</style>
<defs>
</defs>
<g class="st0">
	<path class="st1" d="M173.8,29.1c0-13.5,10.9-24.4,24.4-24.4c13.5,0,24.4,10.9,24.4,24.4s-10.9,24.4-24.4,24.4
		C184.8,53.5,173.8,42.6,173.8,29.1z"/>
	<circle class="st1" cx="51.7" cy="81.1" r="24.4"/>
	<path class="st1" d="M667.4,101.5c0-7,5.7-12.7,12.7-12.7c7,0,12.7,5.7,12.7,12.7c0,7-5.7,12.7-12.7,12.7
		C673.1,114.2,667.4,108.5,667.4,101.5z"/>
	<path class="st1" d="M686.7,95.8c0-7,5.7-12.7,12.7-12.7c7,0,12.7,5.7,12.7,12.7c0,7-5.7,12.7-12.7,12.7
		C692.4,108.5,686.7,102.8,686.7,95.8z"/>
	<path class="st1" d="M195.5,81.8c0-7,5.7-12.7,12.7-12.7c7,0,12.7,5.7,12.7,12.7c0,7-5.7,12.7-12.7,12.7
		C201.2,94.5,195.5,88.8,195.5,81.8z"/>
	<path class="st1" d="M231.1,176.3c0-7,5.7-12.7,12.7-12.7c7,0,12.7,5.7,12.7,12.7c0,7-5.7,12.7-12.7,12.7
		C236.8,189.1,231.1,183.4,231.1,176.3z"/>
	<circle class="st1" cx="362.9" cy="201.8" r="12.7"/>
	<path class="st1" d="M108.7,12.7c0-7,5.7-12.7,12.7-12.7c7,0,12.7,5.7,12.7,12.7c0,7-5.7,12.7-12.7,12.7
		C114.4,25.5,108.7,19.8,108.7,12.7z"/>
	<path class="st1" d="M516.2,315.2c0-7,5.7-12.7,12.7-12.7c7,0,12.7,5.7,12.7,12.7c0,7-5.7,12.7-12.7,12.7
		C521.9,327.9,516.2,322.2,516.2,315.2z"/>
	<path class="st1" d="M503.5,355.1c0-7,5.7-12.7,12.7-12.7c7,0,12.7,5.7,12.7,12.7c0,7-5.7,12.7-12.7,12.7
		C509.2,367.8,503.5,362.1,503.5,355.1z"/>
	<path class="st1" d="M587.1,296.2c0-7,5.7-12.7,12.7-12.7c7,0,12.7,5.7,12.7,12.7c0,7-5.7,12.7-12.7,12.7
		C592.8,308.9,587.1,303.2,587.1,296.2z"/>
	<circle class="st1" cx="366.8" cy="120.8" r="12.7"/>
	<path class="st1" d="M220.2,112.9c0-7,5.7-12.7,12.7-12.7c7,0,12.7,5.7,12.7,12.7c0,7-5.7,12.7-12.7,12.7
		C225.9,125.7,220.2,120,220.2,112.9z"/>
	<path class="st1" d="M188,280.8c0-7,5.7-12.7,12.7-12.7c7,0,12.7,5.7,12.7,12.7c0,7-5.7,12.7-12.7,12.7
		C193.7,293.5,188,287.8,188,280.8z"/>
	<circle class="st1" cx="145.3" cy="194.6" r="12.7"/>
	<path class="st1" d="M216.9,192.8c0-7,5.7-12.7,12.7-12.7c7,0,12.7,5.7,12.7,12.7s-5.7,12.7-12.7,12.7
		C222.6,205.5,216.9,199.8,216.9,192.8z"/>
	<circle class="st1" cx="207.1" cy="164.3" r="12.7"/>
	<path class="st1" d="M0,280.8c0-7,5.7-12.7,12.7-12.7c7,0,12.7,5.7,12.7,12.7c0,7-5.7,12.7-12.7,12.7C5.7,293.5,0,287.8,0,280.8z"
		/>
	<circle class="st1" cx="226.4" cy="73.9" r="12.7"/>
	<path class="st1" d="M374.8,50.9c0-7,5.7-12.7,12.7-12.7c7,0,12.7,5.7,12.7,12.7c0,7-5.7,12.7-12.7,12.7
		C380.5,63.6,374.8,57.9,374.8,50.9z"/>
	<path class="st1" d="M618.4,25.5c0-7,5.7-12.7,12.7-12.7c7,0,12.7,5.7,12.7,12.7c0,7-5.7,12.7-12.7,12.7
		C624.1,38.2,618.4,32.5,618.4,25.5z"/>
	<path class="st1" d="M660.6,81.1c0-7,5.7-12.7,12.7-12.7c7,0,12.7,5.7,12.7,12.7c0,7-5.7,12.7-12.7,12.7
		C666.3,93.8,660.6,88.2,660.6,81.1z"/>
	<circle class="st1" cx="520" cy="221.3" r="12.7"/>
	<path class="st1" d="M305.2,227.7c0-7,5.7-12.7,12.7-12.7c7,0,12.7,5.7,12.7,12.7c0,7-5.7,12.7-12.7,12.7
		C310.9,240.4,305.2,234.7,305.2,227.7z"/>
	<path class="st1" d="M254.6,213.2c0-7,5.7-12.7,12.7-12.7c7,0,12.7,5.7,12.7,12.7c0,7-5.7,12.7-12.7,12.7
		C260.3,225.9,254.6,220.2,254.6,213.2z"/>
	<path class="st1" d="M163.3,311.5c0-7,5.7-12.7,12.7-12.7c7,0,12.7,5.7,12.7,12.7c0,7-5.7,12.7-12.7,12.7
		C169,324.2,163.3,318.5,163.3,311.5z"/>
	<path class="st1" d="M163.3,355.1c0-7,5.7-12.7,12.7-12.7c7,0,12.7,5.7,12.7,12.7c0,7-5.7,12.7-12.7,12.7
		C169,367.8,163.3,362.1,163.3,355.1z"/>
</g>
</svg>
