<?xml version="1.0" encoding="UTF-8"?><svg id="Text" xmlns="http://www.w3.org/2000/svg" viewBox="0 0 63 63"><defs><style>.cls-1{stroke-dasharray:0 0 3.14 3.14;}.cls-1,.cls-2,.cls-3{fill:none;stroke:#2251ff;stroke-miterlimit:10;}.cls-2{stroke-dasharray:0 0 4 4;}</style></defs><circle class="cls-3" cx="31.5" cy="31.5" r="31"/><polyline class="cls-3" points="31.5 .5 31.5 31.5 62.5 31.5"/><line class="cls-3" x1="31.5" y1="31.5" x2="10.8" y2="54.5"/><circle class="cls-3" cx="39.5" cy="23.1" r="1.8"/><circle class="cls-3" cx="38.8" cy="10.2" r="1.7"/><circle class="cls-3" cx="47.1" cy="15.2" r="1.7"/><circle class="cls-3" cx="52.2" cy="23.2" r="1.8"/><path class="cls-3" d="m43.4,36.4c-.3.6-.6,1.2-.9,1.8"/><path class="cls-1" d="m40.6,40.6c-2.3,2.3-5.5,3.7-9.1,3.7h-.9"/><path class="cls-3" d="m29,44.2c-.7-.1-1.3-.3-1.9-.5"/><path class="cls-3" d="m53.2,37.2c-.2.6-.4,1.3-.6,1.9"/><path class="cls-2" d="m50.9,42.8c-3.9,6.6-11,11-19.4,11-2.3,0-4.6-.4-6.7-1"/><path class="cls-3" d="m23,52.2c-.6-.3-1.2-.5-1.8-.8"/></svg>