<svg xmlns="http://www.w3.org/2000/svg" xmlns:xlink="http://www.w3.org/1999/xlink" version="1.1" x="0px" y="0px" viewBox="0 0 600 600" enable-background="new 0 0 600 600" xml:space="preserve" width="600px" height="600px"><g><path d="M48.133,462.688v112.311h503.734V462.688H48.133z M80.361,494.915h362.268v47.844H80.361V494.915z M519.633,542.759   h-44.775v-47.844h44.775V542.759z"/><g><path d="M485.363,445.36h-32.229v-32.131c0-24.652-16.244-39.379-43.449-39.379H278.541c-72.627,0-87.869-40.691-87.869-74.835    c0-13.687,2.395-25.379,7.142-34.97c-18.119-4.118-38.069-12.029-54.915-26.973c-24.854-22.042-37.457-54.085-37.457-95.231    c0-92.415,77.742-116.84,118.85-116.84l0.054,32.239c-8.87,0.054-86.676,2.926-86.676,84.602c0,31.534,8.957,55.451,26.62,71.109    c22.919,20.34,55.749,23.028,71.722,23.017c7.602-1.247,13.345-0.628,14.5-0.488l-0.119,31.979    c-0.629,0.087-4.633,0.531-10.939,0.672c-2.704,0.661-5.765,1.918-8.36,4.27c-6.773,6.155-8.193,17.87-8.193,26.615    c0,20.608,4.302,42.607,55.641,42.607h131.145c44.561,0,75.678,29.443,75.678,71.607V445.36z"/></g><g><path d="M548.947,445.36h-32.234v-54.41c0-15.703-4.254-94.005-88.193-94.005c-7.012,0-16.434-0.195-27.01-0.4    c-21.002-0.434-46.799-0.954-66.641-0.206c-1.686,0.13-3.305,0.206-4.85,0.206l-0.834-32.217c0.889-0.043,1.789-0.087,2.703-0.12    c9.889-0.813,47.168-7.563,47.168-63.329c0-24.61-7.066-43.108-21.598-56.545c-29.34-27.124-80.403-23.938-80.917-23.905    l-2.525-32.131c2.655-0.206,65.28-4.66,105.321,32.369c21.195,19.592,31.945,46.586,31.945,80.212    c0,28.197-7.412,48.667-18.162,63.253c3.09,0.054,6.107,0.119,9.039,0.173c10.326,0.217,19.516,0.401,26.359,0.401    c95.059,0,120.428,79.353,120.428,126.244V445.36z"/></g></g></svg>