<!-- Generator: Adobe Illustrator 25.2.0, SVG Export Plug-In  -->
<svg version="1.1" xmlns="http://www.w3.org/2000/svg" xmlns:xlink="http://www.w3.org/1999/xlink" x="0px" y="0px" width="79.7px"
	 height="113.2px" viewBox="0 0 79.7 113.2" style="overflow:visible;enable-background:new 0 0 79.7 113.2;" xml:space="preserve">
<style type="text/css">
	.st0{fill:none;stroke:#4BBBEB;stroke-width:2;stroke-miterlimit:10;}
</style>
<defs>
</defs>
<g>
	<g>
		<path class="st0" d="M1,37.4C1,34,5.9,24.6,13.3,24.6h53.1c4.4,0,12.3,4.4,12.3,12.3v63.5c0,4.9-4.4,11.8-10.8,11.8H12.8
			C8,112.2,1,107.7,1,101.3V37.4 M54.7,64.4h-9.8v-9.8h-8.2v9.8h-9.8v8.2h9.8v9.8h8.2v-9.8h9.8V64.4L54.7,64.4z M18.8,34.7h-5.2
			c-1.2,0-2.5,1.2-2.5,3.4v65.4 M16.1,23.6V4c0,0,0-3,3.4-3h41.6c2.5,0,3.7,1.2,3.7,3.7v19.4 M31.3,1.5v10.6 M49.2,1.5v10.6"/>
	</g>
</g>
</svg>
