<!-- Generator: Adobe Illustrator 25.2.0, SVG Export Plug-In  -->
<svg version="1.1" xmlns="http://www.w3.org/2000/svg" xmlns:xlink="http://www.w3.org/1999/xlink" x="0px" y="0px" width="65.9px"
	 height="65.9px" viewBox="0 0 65.9 65.9" style="overflow:visible;enable-background:new 0 0 65.9 65.9;" xml:space="preserve">
<style type="text/css">
	.st0{fill:#4BBBEB;}
	.st1{fill:#132F3B;}
</style>
<defs>
</defs>
<g>
	<path class="st0" d="M61.3,65.9H4.5c-2.5,0-4.5-2-4.5-4.5V4.5C0,2,2,0,4.5,0h56.8c2.5,0,4.5,2,4.5,4.5v56.8
		C65.9,63.8,63.8,65.9,61.3,65.9z"/>
	<g>
		<g>
			<path class="st1" d="M54,29.2c0-5.2-4-9.6-9.2-10.1v-1.6c0-0.2-0.1-0.4-0.3-0.6l-9.6-8.3c-0.2-0.1-0.3-0.2-0.5-0.2H12.6
				c-0.4,0-0.8,0.4-0.8,0.8v42.7c0,0.4,0.4,0.8,0.8,0.8h26.7c0.1,2.5,2.2,4.5,4.7,4.4c2.8-0.1,4.7-2.6,4.3-5.2l-1.2-7.9
				c-0.1-0.7-0.4-1.3-0.9-1.8v-3.2C50.8,38.1,54.1,33.9,54,29.2L54,29.2z M44.7,39.5v2c-0.6-0.2-1.2-0.2-1.7,0v-2
				C43.6,39.5,44.1,39.5,44.7,39.5z M52.5,29.2c0,4.8-3.9,8.7-8.7,8.7c-4.7,0-8.7-3.9-8.7-8.6c0-4.8,4-8.7,8.8-8.7
				C48.7,20.7,52.5,24.5,52.5,29.2z M35.2,11l6.7,5.8h-6.7V11z M13.4,10.1h20.2v7.5c0,0.4,0.4,0.8,0.8,0.8h8.8v0.8
				c-5.6,0.3-9.9,5.1-9.6,10.8c0.3,4.5,3.4,8.3,7.8,9.3v3.2c-0.5,0.5-0.8,1.1-0.9,1.8c-0.3,1.9-0.7,4.7-1.1,7.1h-26L13.4,10.1z
				 M46.1,54.6c-1.1,1.2-3,1.4-4.3,0.3c-1.3-1.1-1-2.6-1-2.8c0.4-2.6,0.9-5.7,1.2-7.8c0.1-1,1.1-1.6,2-1.5c0.8,0.1,1.4,0.7,1.5,1.5
				l1.2,7.8C46.9,53.1,46.7,54,46.1,54.6L46.1,54.6z"/>
			<path class="st1" d="M43.8,57.5c-1.2,0-2.4-0.5-3.3-1.3c-0.9-0.8-1.4-1.9-1.5-3.1H12.6c-0.6,0-1-0.5-1-1V9.4c0-0.6,0.5-1,1-1
				h21.7c0.3,0,0.4,0.1,0.7,0.2l9.6,8.3c0.2,0.2,0.3,0.4,0.3,0.7v1.3c5.3,0.6,9.2,5,9.2,10.3c0,4.7-3.2,8.9-7.8,10.1v2.9
				c0.5,0.5,0.8,1.1,0.9,1.8l1.2,7.9c0.2,1.4-0.2,2.7-1.1,3.8c-0.9,1-2.1,1.7-3.5,1.7C43.9,57.5,43.9,57.5,43.8,57.5z M12.6,8.8
				c-0.3,0-0.6,0.3-0.6,0.6v42.7c0,0.3,0.3,0.6,0.6,0.6h26.9l0,0.2c0,1.2,0.5,2.2,1.4,3c0.8,0.8,1.9,1.2,3.1,1.2
				c1.2,0,2.4-0.6,3.2-1.5c0.8-1,1.1-2.2,1-3.4l-1.2-7.9c-0.1-0.6-0.4-1.2-0.8-1.6L46,42.5V39l0.2,0c4.4-1.1,7.6-5.2,7.6-9.7v0
				c0-5.2-3.9-9.4-9-9.9l-0.2,0v-1.8c0-0.2-0.1-0.3-0.2-0.4l-9.6-8.3c-0.1-0.1-0.2-0.1-0.4-0.1H12.6z M43.8,55.9
				c-0.8,0-1.5-0.3-2.1-0.8c-1.2-1-1.1-2.3-1.1-2.8c0-0.1,0-0.1,0-0.1l0,0l0,0c0.4-2.6,0.9-5.7,1.2-7.8c0.1-1.1,1.2-1.9,2.3-1.7
				c0.9,0.2,1.6,0.8,1.7,1.7l1.2,7.8c0.1,1-0.1,1.9-0.7,2.6c-0.6,0.7-1.3,1.1-2.2,1.1C44,55.9,43.9,55.9,43.8,55.9z M41.1,52.1
				c0,0,0,0.1,0,0.2c0,0.5-0.1,1.6,0.9,2.4c0.6,0.5,1.3,0.7,2,0.7c0.7-0.1,1.4-0.4,1.9-1l0,0c0.5-0.6,0.7-1.4,0.6-2.3l-1.2-7.8
				c-0.1-0.7-0.6-1.2-1.3-1.3c-0.9-0.1-1.7,0.5-1.8,1.3C42,46.4,41.5,49.6,41.1,52.1z M39.7,51.6H13.2V9.9h20.7v7.7
				c0,0.3,0.3,0.6,0.6,0.6h9.1v1.2l-0.2,0c-2.7,0.1-5.1,1.3-6.9,3.3c-1.8,2-2.7,4.6-2.5,7.2c0.3,4.4,3.3,8.1,7.6,9.1l0.2,0v3.5
				l-0.1,0.1c-0.5,0.5-0.7,1-0.8,1.6c-0.1,0.9-0.3,2-0.5,3.1c-0.2,1.3-0.4,2.7-0.6,4.1L39.7,51.6z M13.7,51.1h25.6
				c0.2-1.3,0.4-2.6,0.6-3.9c0.2-1.1,0.3-2.2,0.5-3.1c0.1-0.7,0.4-1.3,0.9-1.8v-2.9c-4.4-1.2-7.5-4.9-7.8-9.5
				c-0.2-2.8,0.7-5.5,2.6-7.5c1.8-2,4.3-3.3,7-3.5v-0.3h-8.6c-0.6,0-1-0.5-1-1v-7.2H13.7V51.1z M42.8,41.8v-2.5l0.2,0
				c0.6,0,1.1,0,1.7,0l0.2,0v2.5l-0.3-0.1c-0.5-0.2-1.1-0.2-1.6,0L42.8,41.8z M43.8,41.1c0.2,0,0.4,0,0.6,0.1v-1.5
				c-0.4,0-0.9,0-1.3,0v1.5C43.4,41.1,43.6,41.1,43.8,41.1z M43.7,38.1c-2.3,0-4.5-0.9-6.2-2.6c-1.7-1.7-2.6-3.9-2.6-6.3
				c0-2.4,0.9-4.6,2.7-6.3c1.7-1.7,3.9-2.6,6.2-2.6c0.1,0,0.1,0,0.2,0c2.3,0,4.5,1,6.2,2.6c1.6,1.7,2.5,3.9,2.5,6.2
				C52.7,34.1,48.7,38.1,43.7,38.1C43.8,38.1,43.8,38.1,43.7,38.1z M43.8,20.9c-2.2,0-4.3,0.9-5.9,2.4c-1.6,1.6-2.5,3.7-2.5,6
				c0,2.2,0.9,4.4,2.5,6c1.6,1.6,3.7,2.4,5.9,2.4c4.6,0,8.4-3.8,8.4-8.4v0c0-2.2-0.8-4.3-2.4-5.9c-1.6-1.6-3.6-2.5-5.9-2.5
				C43.9,20.9,43.9,20.9,43.8,20.9z M42.5,17h-7.6v-6.5L42.5,17z M35.4,16.6h5.9l-5.9-5V16.6z"/>
		</g>
		<g>
			<path class="st1" d="M44.1,35.7c3.5-0.1,6.3-3.1,6.2-6.6c-0.1-3.4-2.8-6.1-6.2-6.2c-3.5-0.1-6.5,2.7-6.6,6.2
				C37.3,33,40.8,36,44.1,35.7z M43.2,24.5v9.6c-2.7-0.3-4.5-2.8-4.2-5.4C39.3,26.5,41,24.7,43.2,24.5z M48.7,29.2
				c0,2.3-1.6,4.3-3.9,4.7v-9.5C47.1,24.9,48.7,26.9,48.7,29.2L48.7,29.2z"/>
			<path class="st1" d="M43.6,35.9c-1.5,0-3-0.6-4.2-1.8c-1.4-1.3-2.2-3.2-2.1-5c0.1-3.6,3-6.4,6.6-6.4c0.1,0,0.1,0,0.2,0
				c3.5,0.1,6.3,2.9,6.4,6.4c0.1,1.8-0.6,3.4-1.8,4.7c-1.2,1.3-2.8,2-4.6,2.1C43.9,35.9,43.8,35.9,43.6,35.9z M43.9,23.1
				c-3.3,0-6.1,2.7-6.2,6c-0.1,1.7,0.7,3.5,2,4.7c1.2,1.2,2.9,1.8,4.4,1.6l0,0c1.7-0.1,3.2-0.8,4.3-2c1.1-1.2,1.7-2.8,1.6-4.4
				c-0.1-3.3-2.8-5.9-6-5.9C44,23.1,43.9,23.1,43.9,23.1z M43.5,34.3l-0.3,0c-2.8-0.3-4.7-2.9-4.4-5.7c0.3-2.3,2.1-4.1,4.4-4.4
				l0.3,0V34.3z M43,24.7c-2,0.4-3.5,2-3.8,4c-0.3,2.5,1.4,4.7,3.8,5.1V24.7z M44.6,34.3v-10l0.3,0.1c2.4,0.5,4.1,2.6,4.1,5
				s-1.7,4.5-4.1,5L44.6,34.3z M45,24.8v8.9c2-0.5,3.5-2.4,3.5-4.5S47,25.3,45,24.8z"/>
		</g>
		<g>
			<path class="st1" d="M29.7,12.7H17.6c-0.4,0-0.8,0.4-0.8,0.8V27c0,0.4,0.4,0.8,0.8,0.8h12.2c0.4,0,0.8-0.4,0.8-0.8V13.5
				C30.5,13,30.2,12.7,29.7,12.7z M29,26.2H18.3v-12H29V26.2z"/>
			<path class="st1" d="M29.8,28H17.6c-0.6-0.1-1-0.5-1-1V13.5c0-0.6,0.5-1,1-1h12.2c0.6,0,1,0.4,1.1,1l0,13.6
				C30.7,27.6,30.3,28,29.8,28z M17.6,12.9c-0.3,0-0.6,0.3-0.6,0.6V27c0,0.4,0.3,0.5,0.6,0.6l12.2,0c0.4,0,0.5-0.3,0.6-0.6l0-13.5
				c0-0.3-0.3-0.6-0.6-0.6H17.6z M29.2,26.4H18.1V14h11.1V26.4z M18.5,26h10.2V14.4H18.5V26z"/>
		</g>
		<g>
			<path class="st1" d="M29.7,32H17.6c-0.4,0-0.8,0.4-0.8,0.8s0.4,0.8,0.8,0.8h12.2c0.4,0,0.8-0.4,0.8-0.8S30.2,32,29.7,32z"/>
			<path class="st1" d="M29.8,33.8H17.6c-0.6,0-1-0.5-1-1c0-0.6,0.5-1,1-1h12.2c0.6,0,1.1,0.5,1.1,1C30.8,33.4,30.3,33.8,29.8,33.8z
				 M17.6,32.2c-0.3,0-0.6,0.3-0.6,0.6s0.3,0.6,0.6,0.6h12.2c0.3,0,0.6-0.3,0.6-0.6c0-0.3-0.3-0.6-0.6-0.6H17.6z"/>
		</g>
		<g>
			<path class="st1" d="M29.7,36.7H17.6c-0.4,0-0.8,0.4-0.8,0.8c0,0.4,0.4,0.8,0.8,0.8h12.2c0.4,0,0.8-0.4,0.8-0.8
				C30.6,37.1,30.2,36.7,29.7,36.7z"/>
			<path class="st1" d="M29.8,38.6H17.6c-0.6,0-1-0.5-1-1c0-0.6,0.5-1,1-1h12.2c0.6,0,1.1,0.5,1.1,1C30.8,38.1,30.3,38.6,29.8,38.6z
				 M17.6,37c-0.3,0-0.6,0.3-0.6,0.6s0.3,0.6,0.6,0.6h12.2c0.3,0,0.6-0.3,0.6-0.6c0-0.3-0.3-0.6-0.6-0.6H17.6z"/>
		</g>
		<g>
			<path class="st1" d="M29.7,41.5H17.6c-0.4,0-0.8,0.4-0.8,0.8s0.4,0.8,0.8,0.8h12.2c0.4,0,0.8-0.4,0.8-0.8S30.2,41.5,29.7,41.5z"
				/>
			<path class="st1" d="M29.8,43.4H17.6c-0.6,0-1-0.5-1-1c0-0.6,0.5-1,1-1h12.2c0.6,0,1.1,0.5,1.1,1C30.8,42.9,30.3,43.4,29.8,43.4z
				 M17.6,41.8c-0.3,0-0.6,0.3-0.6,0.6c0,0.3,0.3,0.6,0.6,0.6h12.2c0.3,0,0.6-0.3,0.6-0.6c0-0.3-0.3-0.6-0.6-0.6H17.6z"/>
		</g>
		<g>
			<path class="st1" d="M25.3,46.3h-7.8c-0.4,0-0.8,0.4-0.8,0.8s0.4,0.8,0.8,0.8h7.8c0.4,0,0.8-0.4,0.8-0.8S25.8,46.3,25.3,46.3z"/>
			<path class="st1" d="M25.4,48.1h-7.8c-0.6,0-1-0.5-1-1c0-0.6,0.5-1,1-1h7.8c0.6,0,1.1,0.5,1.1,1C26.4,47.6,25.9,48.1,25.4,48.1z
				 M17.6,46.5c-0.3,0-0.6,0.3-0.6,0.6s0.3,0.6,0.6,0.6h7.8c0.3,0,0.6-0.3,0.6-0.6c0-0.3-0.3-0.6-0.6-0.6H17.6z"/>
		</g>
	</g>
</g>
</svg>
