<!-- Generator: Adobe Illustrator 25.0.1, SVG Export Plug-In  -->
<svg version="1.1" xmlns="http://www.w3.org/2000/svg" xmlns:xlink="http://www.w3.org/1999/xlink" x="0px" y="0px" width="165.7px"
	 height="174.4px" viewBox="0 0 165.7 174.4" style="overflow:visible;enable-background:new 0 0 165.7 174.4;"
	 xml:space="preserve">
<style type="text/css">
	.st0{fill:#FFFFFF;}
</style>
<defs>
</defs>
<g>
	<path class="st0" d="M32,52.3h58.1v5.8H32V52.3z"/>
	<path class="st0" d="M142.4,125v26.2H46.5c-1.6,0-2.9,1.3-2.9,2.9v2.9c0,6.4-5.2,11.6-11.6,11.6s-11.6-5.2-11.6-11.6v-23.3h-5.8
		v23.3c0,9.6,7.8,17.4,17.4,17.4h113.3c11.2,0,20.3-9.1,20.3-20.3c0-1.6-1.3-2.9-2.9-2.9h-14.5V125H142.4z M145.3,168.6H45
		c2.8-3.1,4.5-7.2,4.5-11.6h110.1C158.2,163.6,152.3,168.6,145.3,168.6L145.3,168.6z"/>
	<path class="st0" d="M2.9,5.8c6.4,0,11.6,5.2,11.6,11.6v84.3h5.8V17.4c0-4.5-1.7-8.5-4.5-11.6h94.5V0H2.9C1.3,0,0,1.3,0,2.9
		S1.3,5.8,2.9,5.8z"/>
	<path class="st0" d="M32,23.3h58.1v5.8H32V23.3z"/>
	<path class="st0" d="M32,37.8h58.1v5.8H32V37.8z"/>
	<path class="st0" d="M32,127.9h98.8v5.8H32V127.9z"/>
	<path class="st0" d="M40.7,139.5h11.6v5.8H40.7V139.5z"/>
	<path class="st0" d="M75.6,139.5h11.6v5.8H75.6V139.5z"/>
	<path class="st0" d="M110.4,139.5h11.6v5.8h-11.6V139.5z"/>
</g>
</svg>
