<!-- Generator: Adobe Illustrator 25.2.1, SVG Export Plug-In  -->
<svg version="1.1" xmlns="http://www.w3.org/2000/svg" xmlns:xlink="http://www.w3.org/1999/xlink" x="0px" y="0px" width="71.3px"
	 height="71.3px" viewBox="0 0 71.3 71.3" style="overflow:visible;enable-background:new 0 0 71.3 71.3;" xml:space="preserve">
<style type="text/css">
	.st0{fill:none;stroke:#5FB9E4;stroke-width:1.6;stroke-linecap:round;stroke-linejoin:round;stroke-miterlimit:10;}
</style>
<defs>
</defs>
<g>
	<path class="st0" d="M69.4,27c0.7,2.8,1.1,5.7,1.1,8.7c0,19.3-15.6,34.9-34.9,34.9c-19.3,0-34.9-15.6-34.9-34.9S16.4,0.8,35.7,0.8
		c7.2,0,13.9,2.2,19.5,6 M34.9,54.5c0,0.4-0.4,0.8-0.8,0.8c-0.4,0-0.8-0.4-0.8-0.8c0-0.4,0.4-0.8,0.8-0.8
		C34.5,53.7,34.9,54.1,34.9,54.5L34.9,54.5z M24.4,23c0,0,5-5.9,12.5-5c9.1,1.1,10.9,9,8.3,14.2c-2.9,5.7-11.1,5.6-11.1,5.6v7.6"/>
</g>
</svg>
