<!-- Generator: Adobe Illustrator 25.2.0, SVG Export Plug-In  -->
<svg version="1.1" xmlns="http://www.w3.org/2000/svg" xmlns:xlink="http://www.w3.org/1999/xlink" x="0px" y="0px" width="254.8px"
	 height="222.6px" viewBox="0 0 254.8 222.6" style="overflow:visible;enable-background:new 0 0 254.8 222.6;"
	 xml:space="preserve">
<style type="text/css">
	.st0{fill:none;stroke:#E6E6E6;stroke-width:2;stroke-miterlimit:10;}
</style>
<defs>
</defs>
<g>
	<line class="st0" x1="95.4" y1="95.4" x2="95.4" y2="221.6"/>
	<polyline class="st0" points="1,64.1 95.4,95.4 113.3,89.7 	"/>
	<polyline class="st0" points="123.1,41.3 95.4,32.3 48.2,48.2 48.2,48.2 1,64.1 1,190.2 95.4,221.6 190.2,190.7 190.2,190.2 
		190.2,190.2 190.2,156.9 	"/>
	<polyline class="st0" points="48.2,48.2 48.2,48.2 113.3,70.2 	"/>
	<line class="st0" x1="190.2" y1="16.5" x2="190.2" y2="1"/>
	<circle class="st0" cx="190.2" cy="79.5" r="63.1"/>
	<path class="st0" d="M148.3,79.5c0,23.2,18.7,41.9,41.9,41.9s41.9-18.7,41.9-41.9s-18.7-41.9-41.9-41.9l0,0"/>
	<line class="st0" x1="158.9" y1="48.2" x2="183.3" y2="72.6"/>
	<line class="st0" x1="174.8" y1="1" x2="206.1" y2="1"/>
	<polyline class="st0" points="226.5,27.9 237.5,16.9 253.3,32.3 241.9,43.7 	"/>
	<circle class="st0" cx="190.2" cy="80" r="10.2"/>
</g>
</svg>
