<svg xmlns="http://www.w3.org/2000/svg" xmlns:xlink="http://www.w3.org/1999/xlink" version="1.1" x="0px" y="0px" viewBox="0 0 40 40" enable-background="new 0 0 40 40" xml:space="preserve" width="40px" height="40px"><g><path d="M30,29.9c-1,0-1.9,0.6-2.3,1.5H11v-9c0-0.6-0.4-1-1-1s-1,0.4-1,1v9c0,1.1,0.9,2,2,2h16.7c0.4,0.9,1.3,1.5,2.3,1.5   c1.4,0,2.5-1.1,2.5-2.5S31.4,29.9,30,29.9z"/><path d="M12.5,16.9c0-0.3-0.1-0.6-0.2-0.9L20,8.6l8.6,8.3c0.2,0.2,0.4,0.7,0.4,1v8.6c0,0.6,0.4,1,1,1s1-0.4,1-1v-8.6   c0-0.8-0.4-1.8-1-2.4l-8.6-8.3c-0.8-0.8-2-0.8-2.8,0L11,14.5c-0.3-0.1-0.6-0.2-1-0.2c-1.4,0-2.5,1.1-2.5,2.5s1.1,2.5,2.5,2.5   S12.5,18.2,12.5,16.9z"/></g></svg>