<!-- Generator: Adobe Illustrator 25.1.0, SVG Export Plug-In  -->
<svg version="1.1" xmlns="http://www.w3.org/2000/svg" xmlns:xlink="http://www.w3.org/1999/xlink" x="0px" y="0px" width="53.3px"
	 height="53.3px" viewBox="0 0 53.3 53.3" style="overflow:visible;enable-background:new 0 0 53.3 53.3;" xml:space="preserve">
<style type="text/css">
	.st0{fill:#FFFFFF;}
</style>
<defs>
</defs>
<g>
	<path class="st0" d="M51.3,44.4L41.6,37c7.6-10.1,5.6-24.5-4.4-32.2c-4.9-3.8-11-5.4-17.1-4.6C14,1,8.5,4.2,4.8,9.1
		C-3,19.2-1.1,33.7,9,41.5c8.2,6.3,19.7,6.4,28,0.2l7.4,9.7c0.9,1.1,2.2,1.8,3.6,1.9c0.1,0,0.2,0,0.3,0c1.3,0,2.6-0.5,3.5-1.4
		c0.9-0.9,1.4-2.2,1.4-3.5C53.3,46.8,52.6,45.4,51.3,44.4z M44,23.2C44,34.7,34.6,44,23.2,44C11.7,44,2.3,34.6,2.3,23.2
		c0-11.5,9.3-20.8,20.8-20.8C34.6,2.3,44,11.7,44,23.2z M40.2,38.8l9.8,7.5c1.2,0.9,1.4,2.6,0.5,3.8c-0.1,0.1-0.1,0.2-0.2,0.3
		c-0.5,0.5-1.3,0.8-2.1,0.8c-0.8-0.1-1.5-0.4-2-1l-7.5-9.8C39.2,39.7,39.7,39.3,40.2,38.8z"/>
	<path class="st0" d="M11,30.8c0.5,0.9,1.4,1.4,2.4,1.4c0,0,0,0,0,0h19.5c0,0,0,0,0,0c1,0,1.9-0.5,2.4-1.4c0.5-0.9,0.5-2,0-2.9
		l-9.7-16.7c-0.8-1.3-2.5-1.8-3.8-1.1c-0.4,0.2-0.8,0.6-1.1,1.1L11,27.9C10.5,28.8,10.5,29.9,11,30.8z M22.7,12.3
		c0.1-0.1,0.2-0.2,0.3-0.3c0.1,0,0.1,0,0.2,0c0.1,0,0.2,0,0.3,0.1c0.1,0,0.2,0.1,0.2,0.2L33.4,29c0.1,0.2,0.1,0.5,0,0.7
		c-0.1,0.2-0.3,0.3-0.5,0.3H13.4c-0.2,0-0.4-0.1-0.5-0.3c-0.1-0.2-0.1-0.5,0-0.7L22.7,12.3z"/>
	<path class="st0" d="M23.2,3.6c-0.6,0-1.1,0.5-1.1,1.1c0,0.6,0.5,1.1,1.1,1.1c4.6,0,9,1.8,12.2,5.1c3.3,3.3,5.1,7.6,5.1,12.2
		s-1.8,9-5.1,12.2c-3.3,3.3-7.6,5.1-12.2,5.1c0,0,0,0,0,0c-9.5,0-17.3-7.8-17.3-17.3c0-8,5.4-14.9,13.2-16.8c0.6-0.1,1-0.8,0.8-1.4
		c-0.1-0.3-0.3-0.5-0.5-0.7c-0.3-0.2-0.6-0.2-0.9-0.1C13.4,5.4,9.1,8.5,6.4,13c-2.7,4.5-3.5,9.7-2.3,14.8s4.4,9.4,8.9,12.1
		c3.1,1.9,6.6,2.9,10.1,2.9c1.6,0,3.1-0.2,4.7-0.6c5.1-1.2,9.4-4.4,12.1-8.9s3.5-9.7,2.3-14.8C40,9.7,32.2,3.6,23.2,3.6z"/>
	<path class="st0" d="M47.8,49.5c0.2,0.2,0.5,0.3,0.8,0.3c0,0,0,0,0,0c0.3,0,0.6-0.1,0.8-0.3c0.4-0.4,0.4-1.1,0-1.6L48.6,47l0,0
		c-0.2-0.2-0.5-0.3-0.8-0.3c-0.3,0-0.6,0.1-0.8,0.3c-0.4,0.4-0.4,1.1,0,1.6L47.8,49.5z"/>
	<path class="st0" d="M23.2,24.3c0.6,0,1.1-0.5,1.1-1.1V17c0-0.6-0.5-1.1-1.1-1.1c-0.6,0-1.1,0.5-1.1,1.1v6.1
		C22,23.8,22.5,24.3,23.2,24.3z"/>
	<path class="st0" d="M23.2,28.7c0.6,0,1.1-0.5,1.1-1.1v-0.9c0-0.6-0.5-1.1-1.1-1.1c-0.6,0-1.1,0.5-1.1,1.1v0.9
		C22,28.2,22.5,28.7,23.2,28.7z"/>
</g>
</svg>
