<!-- Generator: Adobe Illustrator 25.2.1, SVG Export Plug-In  -->
<svg version="1.1" xmlns="http://www.w3.org/2000/svg" xmlns:xlink="http://www.w3.org/1999/xlink" x="0px" y="0px" width="139px"
	 height="175.7px" viewBox="0 0 139 175.7" style="overflow:visible;enable-background:new 0 0 139 175.7;" xml:space="preserve">
<style type="text/css">
	.st0{fill:#5FB9E4;}
</style>
<defs>
</defs>
<g>
	<g>
		<path class="st0" d="M16.7,108.5C6.6,113,0,123.1,0,134.2l0,31.5c0,5.5,4.5,10,10,10h119c5.5,0,10-4.5,10-10v-11.3
			c0-1.4-1.2-2.6-2.6-2.6s-2.6,1.2-2.6,2.6v11.3c0,2.7-2.2,4.8-4.8,4.8h-12.1v-10.1c0-1.4-1.2-2.6-2.6-2.6c-1.4,0-2.6,1.2-2.6,2.6
			v10.1h-36l30.4-29.5c0,0,0.1-0.1,0.1-0.1c2.7-2.8,3.1-7.1,1.2-10.5c-4.4-8.4-7.2-10-5.7-12.9l2.1-4.1c0.7-1.4,1-3.1,0.9-4.6
			c6.7,1.4,12,2.9,15.4,4.4c8.3,3.7,13.7,11.9,13.7,21v8.2c0,1.4,1.2,2.6,2.6,2.6c1.4,0,2.6-1.2,2.6-2.6v-8.2
			c0-11.1-6.6-21.2-16.7-25.7c-4.5-2-11.3-3.8-20.3-5.4c-1.5-1.4-3-1.8-3.3-1.9c8-7.8,12.6-18.5,12.6-29.9c0-6.1,0-34.1,0-34.6
			C111.3,16.4,95,0.1,74.9,0c-0.6,0-5.7,0-10.5,0C44.1,0,27.7,16.4,27.7,36.7c0,4.7,0,41,0,45.4c0,1.4,1.2,2.6,2.6,2.6
			c1.4,0,2.6-1.2,2.6-2.6v-20c0.9,0.3,1.8,0.5,2.8,0.5h2.6c1.4,8.5,6.5,15.7,13.7,21v21.8c0,9.6-7.8,17.4-17.4,17.4
			c-0.9,0-1.6-0.7-1.6-1.6V107v0v0V94.1c0-1.4-1.2-2.6-2.6-2.6c-1.4,0-2.6,1.2-2.6,2.6V105C23.2,106.1,19.5,107.3,16.7,108.5
			L16.7,108.5z M39.3,127.4c4.2-0.9,7.9-3,10.9-5.9c-0.1,12.1,2.8,23.6,8.8,36l1.7,3.6l-24.3-23.6c-1.1-1.2-1.3-2.9-0.5-4.3
			L39.3,127.4L39.3,127.4z M63.6,155.2c-5.4-11.1-8.1-21.1-8.3-31.7c4.5,1.5,9.3,2.3,14.1,2.3c4.9,0,9.6-0.8,14.2-2.3
			c-0.2,10.6-2.9,20.6-8.3,31.7l-5.9,12L63.6,155.2z M57,86.8c4.7,2.5,9.3,3.8,12.4,3.8c0,0,0,0,0.1,0c0,0,0,0,0.1,0
			c3.1-0.1,7.7-1.3,12.4-3.8v11.6c0,4.1,0.3,8.3,0.9,12.4c0.4,2.5,0.6,4.9,0.7,7.3c-4.5,1.7-9.2,2.6-14.1,2.6c-4.8,0-9.6-0.9-14-2.5
			c0.1-1.9,0.3-3.9,0.5-6c0.7-2.1,1.1-4.4,1.1-6.8L57,86.8z M69.5,85.5C60.5,85.3,43,74.2,43,57.8l0-12.3h13
			c10.5,0,19.9-5.1,25.7-13c2.1,4.3,6.5,7.3,11.5,7.3c1.6,0,2.9,1.3,2.9,2.9L96,57.8C96,73.8,78.9,85.3,69.5,85.5L69.5,85.5z
			 M106.1,54.7c0,1.5-1.3,2.7-2.8,2.7h-2.1l0.1-12h2.1c1.5,0,2.8,1.2,2.8,2.7L106.1,54.7z M35.7,57.4c-1.5,0-2.8-1.3-2.8-2.8v-6.4
			c0-1.5,1.3-2.8,2.8-2.8h2.1l0,12L35.7,57.4L35.7,57.4z M64.3,5.1c4.9,0,9.5,0,10.9,0c4.2,0.2,7.6,3.8,7.6,8.1v0.2
			c0,14.8-12,26.8-26.8,26.8c-4.8,0-18.7,0-23.1,0v-3.6C32.8,19.2,46.9,5.1,64.3,5.1z M86.6,7.5c11.4,4.7,19.6,15.9,19.5,29.2l0,4.2
			c-0.9-0.3-1.8-0.5-2.8-0.5h-2.4c-0.9-3.2-4-5.8-7.7-5.8c-4.2,0-7.6-3.4-7.6-7.6v-1.4C87.7,20.2,89.1,12.6,86.6,7.5L86.6,7.5z
			 M106.1,71.3c0,10.8-4.7,20.8-12.8,27.8l-6.2-2.4V83.6c7.1-5.3,12.2-12.5,13.7-21h2.6c1,0,1.9-0.2,2.8-0.5L106.1,71.3L106.1,71.3z
			 M78.2,161l1.7-3.6c7.6-15.7,10.4-30.3,8-47.4c-0.4-2.6-0.6-5.2-0.7-7.9l10.1,3.9c1,0.4,1.7,1.1,2.1,2.1c0.4,1,0.3,2-0.1,2.9
			l-2.1,4.1c-3.3,6.5,2.6,11.1,5.8,17.9c0.8,1.4,0.6,3.1-0.5,4.3L78.2,161z M5.1,165.7v-31.5c0-9.1,5.4-17.3,13.7-21
			c2.2-1,5.2-2,8.9-2.9v10.9c0,3.3,2.3,6,5.4,6.6l-1.6,2.7c-2,3.3-1.5,7.7,1.2,10.5c0,0,0.1,0.1,0.1,0.1l30.4,29.5h-36v-10.1
			c0-1.4-1.2-2.6-2.6-2.6c-1.4,0-2.6,1.2-2.6,2.6v10.1H10C7.3,170.5,5.1,168.4,5.1,165.7L5.1,165.7z"/>
	</g>
</g>
</svg>
