<!-- Generator: Adobe Illustrator 25.2.0, SVG Export Plug-In  --><svg xmlns="http://www.w3.org/2000/svg" xmlns:xlink="http://www.w3.org/1999/xlink" version="1.1" x="0px" y="0px" width="186px" height="210px" viewBox="0 0 186.5 210.7" style="overflow:visible;enable-background:new 0 0 186.5 210.7;" xml:space="preserve" aria-hidden="true">
<style type="text/css">
	.st0-605a3a367a5be{fill:none;stroke:#E6E6E6;stroke-width:2;stroke-miterlimit:10;}
</style>
<defs><linearGradient class="cerosgradient" data-cerosgradient="true" id="CerosGradient_id2a327d600" gradientUnits="userSpaceOnUse" x1="50%" y1="100%" x2="50%" y2="0%"><stop offset="0%" stop-color="#d1d1d1"/><stop offset="100%" stop-color="#d1d1d1"/></linearGradient><linearGradient/>
</defs>
<g>
	<circle class="st0-605a3a367a5be" cx="95.1" cy="21.4" r="20.4"/>
	<path class="st0-605a3a367a5be" d="M64.5,117.6h-7.5v-52c0-8.2,6.5-14.6,14.6-14.6l0,0h42.5c8.2,0,14.6,6.5,14.6,14.6v52.7H121"/>
	<circle class="st0-605a3a367a5be" cx="42.1" cy="26.5" r="18.7"/>
	<path class="st0-605a3a367a5be" d="M17.7,130.5H1V69.3C1,61.5,7.5,55,15.3,55l0,0h28.5"/>
	<polyline class="st0-605a3a367a5be" points="73.7,70.7 56.1,163.1 130.1,163.1 112.1,70.7  "/>
	<polyline class="st0-605a3a367a5be" points="71.3,163.1 71.3,209.7 113.5,209.7 113.5,163.1  "/>
	<line class="st0-605a3a367a5be" x1="92.4" y1="163.1" x2="92.4" y2="210"/>
	<polyline class="st0-605a3a367a5be" points="17.7,78.8 17.7,203.2 58.8,203.2  "/>
	<line class="st0-605a3a367a5be" x1="40.1" y1="126.1" x2="40.1" y2="203.2"/>
	<circle class="st0-605a3a367a5be" cx="144.7" cy="26.5" r="18.7"/>
	<path class="st0-605a3a367a5be" d="M168.9,130.5h16.7V69.3c0-7.8-6.5-14.3-14.3-14.3h-28.5"/>
	<polyline class="st0-605a3a367a5be" points="168.9,78.8 168.9,203.2 127.8,203.2  "/>
	<line class="st0-605a3a367a5be" x1="146.4" y1="126.1" x2="146.4" y2="203.2"/>
</g>
</svg>