<!-- Generator: Adobe Illustrator 25.2.0, SVG Export Plug-In  --><svg xmlns="http://www.w3.org/2000/svg" xmlns:xlink="http://www.w3.org/1999/xlink" version="1.1" x="0px" y="0px" width="241px" height="237px" viewBox="0 0 241.5 237.5" style="overflow:visible;enable-background:new 0 0 241.5 237.5;" xml:space="preserve" aria-hidden="true">
<style type="text/css">
	.st0-605a3a367a5e0{fill:none;stroke:#E6E6E6;stroke-width:2;stroke-miterlimit:10;}
</style>
<defs><linearGradient class="cerosgradient" data-cerosgradient="true" id="CerosGradient_ide64f5fcbf" gradientUnits="userSpaceOnUse" x1="50%" y1="100%" x2="50%" y2="0%"><stop offset="0%" stop-color="#d1d1d1"/><stop offset="100%" stop-color="#d1d1d1"/></linearGradient><linearGradient/>
</defs>
<g>
	<path class="st0-605a3a367a5e0" d="M157.5,54.1L188.6,1H52.9L84,54.1c-47.9,8-83,49.5-83,97.8v5.6c0,43.5,35.1,79,79,79l0,0h81.4   c43.5,0,79-35.1,79-79l0,0v-5.6C240.5,103.6,205.4,62.1,157.5,54.1z"/>
	<path class="st0-605a3a367a5e0" d="M96.8,166.7c0,11.2,10.8,20,24,20"/>
	<path class="st0-605a3a367a5e0" d="M144.7,166.7c0,11.2-10.8,20-24,20"/>
	<path class="st0-605a3a367a5e0" d="M144.7,126.8c0-11.2-10.8-20-24-20"/>
	<path class="st0-605a3a367a5e0" d="M96.8,126.8c0-11.2,10.8-20,24-20"/>
	<path class="st0-605a3a367a5e0" d="M120.8,146.7c13.2,0,24,8.8,24,20"/>
	<path class="st0-605a3a367a5e0" d="M120.8,146.7c-13.2,0-24-8.8-24-20"/>
	<line class="st0-605a3a367a5e0" x1="120.8" y1="106.8" x2="120.8" y2="90.8"/>
	<line class="st0-605a3a367a5e0" x1="120.8" y1="202.6" x2="120.8" y2="186.6"/>
</g>
</svg>