<!-- Generator: Adobe Illustrator 25.2.3, SVG Export Plug-In  -->
<svg version="1.1" xmlns="http://www.w3.org/2000/svg" xmlns:xlink="http://www.w3.org/1999/xlink" x="0px" y="0px" width="47.1px"
	 height="54.4px" viewBox="0 0 47.1 54.4" style="overflow:visible;enable-background:new 0 0 47.1 54.4;" xml:space="preserve">
<style type="text/css">
	.st0{fill:#FFFFFF;stroke:#E11B22;stroke-width:1.5;stroke-miterlimit:10;}
	.st1{fill:#E11B22;}
</style>
<defs>
</defs>
<polygon class="st0" points="46.3,40.4 46.3,14 23.5,0.9 0.8,14 0.8,40.4 23.5,53.5 "/>
<g>
	<path class="st1" d="M35.3,35V23.1c0.1,0,0.2,0,0.3-0.1c0.2-0.1,0.3-0.3,0.3-0.5c-0.1-0.2-0.3-0.3-0.5-0.3c-0.2,0-0.3,0.1-0.5,0.1
		H12.2c-0.4,0-0.9-0.2-1.2-0.5c-0.3-0.3-0.5-0.7-0.5-1.2c0-0.9,0.7-1.7,1.7-1.7h22.7c0.4,0,0.9,0.2,1.2,0.5c0.3,0.3,0.5,0.7,0.5,1.2
		c0,0.3-0.1,0.5-0.2,0.8c-0.1,0.2,0,0.4,0.2,0.5c0.2,0.1,0.4,0,0.5-0.2c0.2-0.4,0.3-0.7,0.3-1.1c0-0.7-0.3-1.3-0.7-1.8
		c-0.5-0.5-1.1-0.7-1.8-0.7h-0.8l-0.5-1.6c-0.1-0.5-0.6-0.8-1.1-0.8h-0.1v-2c0-0.7-0.6-1.2-1.2-1.2H30c-0.7,0-1.2,0.6-1.2,1.2v2
		h-0.1c-0.5,0-0.9,0.3-1.1,0.8L27,18.1h-6.9l-0.5-1.6c-0.1-0.5-0.6-0.8-1.1-0.8h-0.1v-2c0-0.7-0.6-1.2-1.2-1.2H16
		c-0.7,0-1.2,0.6-1.2,1.2v2h-0.1c-0.5,0-0.9,0.3-1.1,0.8L13,18.1h-0.8c-1.4,0-2.5,1.1-2.5,2.5c0,0.7,0.3,1.3,0.7,1.8
		c0.4,0.4,0.8,0.6,1.3,0.7V35c-1.2,0.2-2.1,1.2-2.1,2.4c0,0.7,0.3,1.3,0.7,1.8c0.5,0.5,1.1,0.7,1.8,0.7H15c0.2,0,0.4-0.2,0.4-0.4
		s-0.2-0.4-0.4-0.4h-2.8c-0.4,0-0.9-0.2-1.2-0.5c-0.3-0.3-0.5-0.7-0.5-1.2c0-0.9,0.7-1.7,1.7-1.7h22.7c0.4,0,0.9,0.2,1.2,0.5
		c0.3,0.3,0.5,0.7,0.5,1.2c0,0.9-0.7,1.7-1.7,1.7H16.6c-0.2,0-0.4,0.2-0.4,0.4s0.2,0.4,0.4,0.4h18.3c1.4,0,2.5-1.1,2.5-2.5
		c0-0.7-0.3-1.3-0.7-1.8C36.3,35.3,35.8,35,35.3,35L35.3,35z M29.6,13.7c0-0.2,0.2-0.4,0.4-0.4h1.1c0.2,0,0.4,0.2,0.4,0.4v2h-2
		L29.6,13.7L29.6,13.7z M28.3,16.8c0-0.1,0.2-0.2,0.3-0.2h3.9c0.1,0,0.2,0.1,0.3,0.2l0.4,1.4h-5.3L28.3,16.8z M15.6,13.7
		c0-0.2,0.2-0.4,0.4-0.4h1.1c0.2,0,0.4,0.2,0.4,0.4v2h-2L15.6,13.7L15.6,13.7z M14.3,16.8c0-0.1,0.2-0.2,0.3-0.2h3.9
		c0.1,0,0.2,0.1,0.3,0.2l0.4,1.4h-5.3L14.3,16.8z M34.5,34.9H12.6V23.1h21.9L34.5,34.9L34.5,34.9z"/>
	<path class="st1" d="M29.2,28.1c0,0.7,0.6,1.3,1.3,1.3s1.3-0.6,1.3-1.3c0.7,0,1.3-0.6,1.3-1.3c0-0.7-0.6-1.3-1.3-1.3
		c0-0.7-0.6-1.3-1.3-1.3s-1.3,0.6-1.3,1.3c-0.7,0-1.3,0.6-1.3,1.3C27.9,27.4,28.5,28,29.2,28.1z M29.3,26.2h0.3
		c0.2,0,0.4-0.2,0.4-0.4v-0.3c0-0.3,0.2-0.5,0.5-0.5s0.5,0.2,0.5,0.5v0.3c0,0.2,0.2,0.4,0.4,0.4h0.3c0.3,0,0.5,0.2,0.5,0.5
		c0,0.3-0.2,0.5-0.5,0.5h-0.3c-0.2,0-0.4,0.2-0.4,0.4V28c0,0.3-0.2,0.5-0.5,0.5S30,28.3,30,28v-0.3c0-0.2-0.2-0.4-0.4-0.4h-0.3
		c-0.3,0-0.5-0.2-0.5-0.5C28.7,26.4,29,26.2,29.3,26.2z"/>
	<path class="st1" d="M15.3,28.1h2.5c0.7,0,1.3-0.6,1.3-1.3s-0.6-1.3-1.3-1.3h-2.5c-0.7,0-1.3,0.6-1.3,1.3
		C13.9,27.5,14.5,28.1,15.3,28.1L15.3,28.1z M15.3,26.2h2.5c0.3,0,0.5,0.2,0.5,0.5c0,0.3-0.2,0.5-0.5,0.5h-2.5
		c-0.3,0-0.5-0.2-0.5-0.5C14.7,26.4,15,26.2,15.3,26.2L15.3,26.2z"/>
	<path class="st1" d="M21.4,30H22L21.5,33c-0.1,0.4,0.1,0.8,0.5,1c0.1,0.1,0.3,0.1,0.5,0.1c0.2,0,0.5-0.1,0.7-0.3l3.5-3.3
		c0.3-0.3,0.4-0.8,0.3-1.2c-0.2-0.4-0.5-0.7-1-0.7h-0.7l1.2-3.1c0.1-0.4,0.1-0.7-0.1-1.1c-0.2-0.3-0.6-0.5-0.9-0.5h-2.5
		c-0.5,0-0.9,0.3-1.1,0.8l-1.3,3.9c-0.1,0.3,0,0.6,0.1,0.8C20.8,29.9,21.1,30,21.4,30L21.4,30z M21.3,29.1l1.3-3.9
		c0-0.1,0.2-0.2,0.3-0.2h2.5c0.1,0,0.2,0.1,0.3,0.1c0.1,0.1,0.1,0.2,0,0.3L24.2,29c0,0.1,0,0.3,0,0.4c0.1,0.1,0.2,0.2,0.3,0.2h1.3
		c0.2,0,0.2,0.1,0.2,0.2c0,0,0.1,0.2-0.1,0.3l-3.5,3.3c-0.1,0.1-0.2,0-0.2,0c0,0-0.1-0.1-0.1-0.2l0.5-3.4c0-0.1,0-0.2-0.1-0.3
		c-0.1-0.1-0.2-0.1-0.3-0.1h-1.1c-0.1,0-0.1,0-0.1,0C21.3,29.2,21.2,29.1,21.3,29.1L21.3,29.1z"/>
</g>
</svg>
