<!-- Generator: Adobe Illustrator 25.2.0, SVG Export Plug-In  -->
<svg version="1.1" xmlns="http://www.w3.org/2000/svg" xmlns:xlink="http://www.w3.org/1999/xlink" x="0px" y="0px" width="247.5px"
	 height="479.2px" viewBox="0 0 247.5 479.2" style="overflow:visible;enable-background:new 0 0 247.5 479.2;"
	 xml:space="preserve">
<style type="text/css">
	.st0{fill:#4BBBEB;}
	.st1{fill:#404041;}
	.st2{fill:#E5E6E7;}
	.st3{fill:#919396;}
	.st4{fill:#58595B;}
	.st5{fill:#132F3B;}
</style>
<defs>
</defs>
<g>
	
		<rect x="183.5" y="85.7" transform="matrix(0.7071 0.7071 -0.7071 0.7071 119.3078 -106.7024)" class="st0" width="9.9" height="9.9"/>
	<g>
		<path class="st1" d="M4.6,86L4.6,86C2.1,86,0,83.9,0,81.4V55c0-2.6,2.1-4.6,4.6-4.6l0,0c2.6,0,4.6,2.1,4.6,4.6v26.4
			C9.2,83.9,7.2,86,4.6,86z"/>
		<path class="st1" d="M4.6,126L4.6,126C2.1,126,0,124,0,121.4V95c0-2.6,2.1-4.6,4.6-4.6l0,0c2.6,0,4.6,2.1,4.6,4.6v26.4
			C9.2,124,7.2,126,4.6,126z"/>
	</g>
	<g>
		<path class="st1" d="M220.4,479.2H31c-15,0-27.1-12.1-27.1-27.1v-425C3.9,12.1,16,0,31,0h189.4c15,0,27.1,12.1,27.1,27.1v425
			C247.5,467.1,235.4,479.2,220.4,479.2z"/>
		<path class="st2" d="M7.3,27.1v418.4h236.8V27.1c0-5.8-1.8-11.2-4.8-15.6H12.1C9.1,15.9,7.3,21.3,7.3,27.1z"/>
		<path class="st1" d="M181.3,25.6H70.1c-6.8,0-12.2-5.5-12.2-12.2l0,0c0-6.8,5.5-12.2,12.2-12.2h111.1c6.8,0,12.2,5.5,12.2,12.2
			l0,0C193.5,20.1,188,25.6,181.3,25.6z"/>
	</g>
	<path class="st3" d="M192.6,219.9h-56.8c-2.5,0-4.5-2-4.5-4.5v-56.8c0-2.5,2-4.5,4.5-4.5h56.8c2.5,0,4.5,2,4.5,4.5v56.8
		C197.1,217.9,195.1,219.9,192.6,219.9z"/>
	<g>
		<g>
			<g>
				<path class="st4" d="M178.9,211.3h-6.7c-0.4,0-0.8-0.3-1-0.7l-1.7-4.8c-0.2-0.5,0.1-1.1,0.6-1.3c0.5-0.2,1.1,0.1,1.3,0.6
					l1.5,4.1h4.5l-2.4-6.6c-0.1-0.4,0-0.9,0.3-1.1c2.6-2.1,3.4-3.4,5.2-6.2l0.6-1c0.2-0.3,0.5-0.5,0.9-0.5h3
					c0.2-0.3,0.6-1.4,0.6-3.2c0-1.9-0.4-3-0.6-3.2h-2.6c0,0,0,0,0,0c-0.6,0.1-1.1-0.3-1.2-0.8c-0.4-1.9-1.1-3.6-2.1-5.3
					c-0.1-0.2-0.2-0.4-0.2-0.6l0.2-4.4c-1.1,0.5-2.3,1.1-2.4,1.1c-0.1,0-0.1,0.1-0.2,0.1c-0.3,0.1-0.7,0-1-0.2
					c-1.6-1.3-3.4-2.4-5.3-3.2c-0.6,1.9-1.8,3.5-3.4,4.7c-0.5,0.3-1.1,0.2-1.4-0.2c-0.3-0.5-0.2-1.1,0.2-1.4
					c1.5-1.1,2.5-2.7,2.8-4.5c0,0,0,0,0,0c0.1-0.4,0.1-0.7,0.1-1.1c0-3.8-3.1-6.9-6.9-6.9s-6.9,3.1-6.9,6.9c0,2.4,1.2,4.6,3.2,5.9
					c0.5,0.3,0.6,0.9,0.3,1.4c-0.3,0.5-0.9,0.6-1.4,0.3c-2.6-1.6-4.2-4.5-4.2-7.6c0-4.9,4-8.9,8.9-8.9c4.9,0,8.9,4,8.9,8.9
					c0,0.2,0,0.4,0,0.6c2.1,0.8,4,1.9,5.8,3.2c0.7-0.3,1.7-0.8,3.4-1.6c0.3-0.1,0.7-0.1,1,0.1c0.3,0.2,0.5,0.5,0.4,0.9l-0.3,5.8
					c0.9,1.5,1.6,3.2,2.1,4.9h2.1c1.9,0,2.6,2.7,2.6,5.3c0,2.5-0.7,5.3-2.6,5.3h-2.5l-0.3,0.5c-1.7,2.7-2.7,4.2-5,6.2l2.6,7.3
					c0.1,0.3,0.1,0.7-0.1,0.9C179.5,211.2,179.2,211.3,178.9,211.3z M153.3,211.3h-6.7c-0.4,0-0.8-0.3-1-0.7
					c-0.2-0.7-2.1-6.4-2.3-7.2c-0.2-0.8-0.4-1.6-0.6-2.4c-2.2-8.7-4.7-18.6,3.7-25.4c0.7-0.6,1.6-1.2,2.5-1.7
					c0.5-0.3,1.1-0.1,1.4,0.4c0.3,0.5,0.1,1.1-0.4,1.4c-0.8,0.5-1.6,1-2.2,1.5c-7.4,6-5.2,14.8-3,23.3c0.2,0.8,0.4,1.6,0.6,2.5
					c0.1,0.5,1.2,3.8,2,6.3h4.5l-1.3-4.1c-0.1-0.4,0-0.8,0.3-1.1c0.3-0.3,0.7-0.3,1.1-0.1c4.4,2.2,9.8,2.8,14.7,1.7
					c0.6-0.1,1.1,0.2,1.2,0.8c0.1,0.5-0.2,1.1-0.8,1.2c-4.6,1-9.6,0.7-14-0.9l1.1,3.3c0.1,0.3,0,0.6-0.1,0.9
					C153.9,211.2,153.6,211.3,153.3,211.3z M161.9,176.1c-2.5,0-3.6-1.9-3.6-2c-0.3-0.5-0.1-1.1,0.4-1.4c0.5-0.3,1.1-0.1,1.4,0.4
					c0,0.1,0.6,0.9,2,0.9c0.5,0,1-0.5,1-0.9c0-0.5-0.9-0.7-1.3-0.7c-1-0.1-2.4-0.5-3.1-1.6c-0.4-0.6-0.5-1.4-0.2-2.1
					c0.4-1,1.4-1.7,2.6-1.8c1.5-0.1,3,0.5,3.6,1.6c0.3,0.5,0.1,1.1-0.4,1.4c-0.5,0.3-1.1,0.1-1.4-0.4c-0.2-0.4-0.9-0.7-1.7-0.6
					c-0.3,0-0.8,0.1-0.9,0.5c-0.1,0.2,0,0.3,0,0.3c0.2,0.3,0.9,0.6,1.5,0.6c2,0.1,3.3,1.3,3.2,2.8c-0.1,1.4-1.4,2.8-2.9,2.9
					C162.1,176.1,162,176.1,161.9,176.1z"/>
				<path class="st4" d="M178.9,211.4h-6.7c-0.5,0-0.9-0.3-1.1-0.7l-1.7-4.8c-0.1-0.3-0.1-0.6,0-0.9s0.4-0.5,0.6-0.6
					c0.6-0.2,1.2,0.1,1.4,0.7l1.4,4h4.3l-2.3-6.5c-0.2-0.4,0-0.9,0.3-1.2c2.5-2.1,3.4-3.4,5.1-6.2l0.6-1c0.2-0.3,0.6-0.5,0.9-0.5
					h2.9c0.2-0.3,0.6-1.3,0.6-3.1c0-1.8-0.4-2.9-0.6-3.1h-2.5c-0.6,0.1-1.2-0.3-1.3-0.9c-0.4-1.8-1.1-3.6-2.1-5.2
					c-0.1-0.2-0.2-0.4-0.2-0.7l0.2-4.2c-1.4,0.6-2.1,1-2.3,1.1c-0.1,0-0.1,0.1-0.2,0.1c-0.4,0.1-0.8,0-1.1-0.2
					c-1.5-1.3-3.3-2.3-5.2-3.1c-0.6,1.9-1.8,3.5-3.4,4.6c-0.2,0.2-0.5,0.2-0.8,0.2c-0.3-0.1-0.6-0.2-0.7-0.5
					c-0.2-0.2-0.2-0.5-0.2-0.8c0.1-0.3,0.2-0.6,0.5-0.7c1.5-1,2.5-2.7,2.8-4.5c0.1-0.4,0.1-0.7,0.1-1.1c0-3.8-3.1-6.8-6.8-6.8
					c-3.8,0-6.8,3.1-6.8,6.8c0,2.4,1.2,4.5,3.2,5.8c0.5,0.3,0.7,1,0.4,1.5c-0.3,0.5-1,0.7-1.5,0.4c-2.7-1.7-4.2-4.5-4.2-7.7
					c0-5,4.1-9,9-9c5,0,9,4.1,9,9c0,0.2,0,0.4,0,0.5c2.1,0.8,4,1.9,5.7,3.2c0.7-0.3,1.8-0.8,3.4-1.6c0.4-0.2,0.8-0.1,1.1,0.1
					c0.3,0.2,0.5,0.6,0.5,1l-0.3,5.7c0.9,1.5,1.6,3.1,2,4.8h2c2,0,2.7,2.8,2.7,5.4c0,2.6-0.7,5.4-2.7,5.4h-2.5l-0.3,0.5
					c-1.7,2.7-2.6,4.2-5,6.2l2.6,7.2c0.1,0.3,0.1,0.7-0.1,1C179.6,211.3,179.2,211.4,178.9,211.4z M170.5,204.7
					c-0.1,0-0.2,0-0.3,0.1c-0.2,0.1-0.4,0.2-0.5,0.5c-0.1,0.2-0.1,0.5,0,0.7l1.7,4.8c0.1,0.4,0.5,0.6,0.9,0.6h6.7
					c0.3,0,0.6-0.1,0.7-0.4c0.2-0.2,0.2-0.6,0.1-0.8l-2.7-7.4l0.1,0c2.4-2,3.3-3.5,5-6.2l0.4-0.6h2.6c1.8,0,2.5-2.7,2.5-5.2
					c0-2.5-0.7-5.2-2.5-5.2h-2.2l0-0.1c-0.4-1.7-1.1-3.3-2.1-4.8l0,0l0,0l0.3-5.8c0-0.3-0.1-0.6-0.4-0.8c-0.3-0.2-0.6-0.2-0.9-0.1
					c-1.7,0.8-2.8,1.3-3.4,1.6l-0.1,0l-0.1,0c-1.7-1.3-3.6-2.4-5.7-3.2l-0.1,0l0-0.1c0-0.2,0-0.4,0-0.6c0-4.9-4-8.8-8.8-8.8
					c-4.9,0-8.8,4-8.8,8.8c0,3.1,1.6,5.9,4.2,7.5c0.4,0.3,1,0.1,1.3-0.3c0.3-0.4,0.1-1-0.3-1.3c-2.1-1.3-3.3-3.5-3.3-5.9
					c0-3.9,3.1-7,7-7c3.9,0,7,3.1,7,7c0,0.4,0,0.8-0.1,1.1l0,0c-0.3,1.8-1.4,3.5-2.9,4.6c-0.2,0.1-0.3,0.3-0.4,0.6
					c0,0.2,0,0.5,0.2,0.7c0.1,0.2,0.3,0.3,0.6,0.4c0.2,0,0.5,0,0.7-0.2c1.6-1.1,2.8-2.8,3.4-4.6l0-0.1l0.1,0c2,0.8,3.8,1.9,5.4,3.2
					c0.2,0.2,0.6,0.3,0.9,0.2c0.1,0,0.1,0,0.1-0.1c0.2-0.1,1-0.5,2.4-1.1l0.2-0.1l-0.2,4.6c0,0.2,0,0.4,0.1,0.5
					c1.1,1.7,1.8,3.4,2.2,5.3c0.1,0.5,0.6,0.8,1.1,0.7l0,0h2.6l0,0c0.3,0.3,0.7,1.4,0.7,3.3c0,1.9-0.4,3-0.7,3.3l0,0h-3
					c-0.3,0-0.6,0.2-0.8,0.4l-0.6,1c-1.8,2.9-2.6,4.1-5.2,6.2c-0.3,0.2-0.4,0.7-0.3,1l2.4,6.7h-4.7l0-0.1l-1.5-4.1
					C171.2,204.9,170.9,204.7,170.5,204.7z M153.3,211.4h-6.7c-0.5,0-0.9-0.3-1.1-0.8l0,0c-0.6-1.9-2.1-6.5-2.2-7.1
					c-0.2-0.7-0.4-1.5-0.6-2.3l0-0.2c-2.2-8.7-4.7-18.6,3.8-25.5c0.8-0.6,1.6-1.2,2.5-1.7c0.3-0.2,0.6-0.2,0.8-0.1
					c0.3,0.1,0.5,0.3,0.7,0.5c0.1,0.3,0.2,0.6,0.1,0.8c-0.1,0.3-0.3,0.5-0.5,0.7c-0.8,0.5-1.6,1-2.2,1.5c-7.4,5.9-5.2,14.7-3,23.2
					l0.1,0.2c0.2,0.8,0.4,1.5,0.6,2.2c0.1,0.5,1.1,3.6,2,6.2h4.3l-1.3-3.9c-0.1-0.4,0-0.9,0.3-1.2c0.3-0.3,0.8-0.4,1.2-0.2
					c4.4,2.1,9.8,2.7,14.7,1.6c0.3-0.1,0.6,0,0.8,0.1c0.3,0.2,0.4,0.4,0.5,0.7c0.1,0.3,0,0.6-0.1,0.8c-0.2,0.3-0.4,0.4-0.7,0.5
					c-4.6,1-9.5,0.7-13.8-0.8l1,3.1c0.1,0.3,0,0.7-0.2,1C154,211.3,153.7,211.4,153.3,211.4z M149.6,174c-0.2,0-0.3,0-0.5,0.1
					c-0.9,0.5-1.7,1.1-2.5,1.7c-8.4,6.8-5.9,16.6-3.7,25.3l0,0.2c0.2,0.8,0.4,1.5,0.6,2.3c0.2,0.7,1.6,5.2,2.2,7.1l0,0
					c0.1,0.4,0.5,0.6,0.9,0.6h6.7c0.3,0,0.6-0.1,0.7-0.4c0.2-0.2,0.2-0.5,0.1-0.8l-1.1-3.5l0.2,0.1c4.4,1.6,9.3,1.9,13.9,0.9
					c0.2-0.1,0.4-0.2,0.6-0.4c0.1-0.2,0.2-0.5,0.1-0.7s-0.2-0.4-0.4-0.6c-0.2-0.1-0.5-0.2-0.7-0.1c-5,1.1-10.4,0.5-14.8-1.7
					c-0.3-0.2-0.7-0.1-1,0.1c-0.3,0.2-0.4,0.6-0.3,1l1.4,4.2h-4.7l0-0.1c-0.8-2.6-1.9-5.9-2-6.3c-0.2-0.7-0.4-1.5-0.6-2.2l-0.1-0.2
					c-2.2-8.5-4.4-17.4,3.1-23.4c0.7-0.5,1.4-1.1,2.3-1.5c0.2-0.1,0.4-0.3,0.4-0.6c0.1-0.2,0-0.5-0.1-0.7c-0.1-0.2-0.3-0.4-0.6-0.4
					C149.7,174,149.6,174,149.6,174z M161.9,176.2c-2.6,0-3.6-1.9-3.7-2c-0.1-0.3-0.2-0.6-0.1-0.9c0.1-0.3,0.3-0.5,0.6-0.7
					c0.3-0.1,0.6-0.2,0.9-0.1c0.3,0.1,0.5,0.3,0.7,0.6c0,0,0.5,0.8,1.7,0.8c0.1,0,0.1,0,0.2,0c0.4,0,0.9-0.5,0.9-0.8
					c0-0.4-0.8-0.6-1.2-0.6c-1-0.1-2.5-0.5-3.2-1.6c-0.4-0.7-0.5-1.4-0.2-2.2c0.4-1.1,1.4-1.8,2.7-1.9c0.1,0,0.2,0,0.4,0
					c1.4,0,2.8,0.7,3.4,1.7c0.1,0.3,0.2,0.6,0.1,0.8c-0.1,0.3-0.3,0.5-0.5,0.7c-0.3,0.1-0.6,0.2-0.8,0.1c-0.3-0.1-0.5-0.3-0.7-0.5
					c-0.2-0.3-0.9-0.6-1.6-0.6c-0.2,0-0.7,0.1-0.8,0.4c-0.1,0.2,0,0.2,0,0.2c0.2,0.3,0.9,0.5,1.5,0.6c2,0.1,3.4,1.3,3.3,2.9
					c-0.1,1.5-1.5,2.9-3,3C162.1,176.2,162,176.2,161.9,176.2z M159.2,172.7c-0.1,0-0.3,0-0.4,0.1c-0.2,0.1-0.4,0.3-0.4,0.5
					c-0.1,0.2-0.1,0.5,0.1,0.7c0,0.1,1,1.9,3.5,1.9c0.1,0,0.2,0,0.3,0c1.5-0.1,2.8-1.4,2.8-2.8c0.1-1.5-1.2-2.5-3.1-2.7
					c-0.7,0-1.4-0.4-1.6-0.7c-0.1-0.1-0.1-0.2,0-0.4c0.2-0.4,0.7-0.5,1-0.6c0.8-0.1,1.6,0.3,1.8,0.7c0.1,0.2,0.3,0.4,0.6,0.4
					c0.2,0.1,0.5,0,0.7-0.1c0.2-0.1,0.4-0.3,0.4-0.6c0.1-0.2,0-0.5-0.1-0.7c-0.6-1.1-2.1-1.7-3.5-1.6c-1.2,0.1-2.2,0.8-2.5,1.8
					c-0.3,0.7-0.2,1.4,0.2,2c0.6,1,2,1.4,3,1.5c0.5,0,1.4,0.3,1.4,0.8c0,0.5-0.6,1-1.1,1c-0.1,0-0.1,0-0.2,0c-1.4,0-1.9-0.9-1.9-0.9
					c-0.1-0.2-0.3-0.4-0.5-0.5C159.4,172.7,159.3,172.7,159.2,172.7z"/>
			</g>
		</g>
		<g>
			<path class="st4" d="M161.7,168.7c-0.6,0-1-0.5-1-1v-1.3c0-0.6,0.5-1,1-1s1,0.5,1,1v1.3C162.7,168.3,162.2,168.7,161.7,168.7z"/>
			<path class="st4" d="M161.7,168.8c-0.6,0-1.1-0.5-1.1-1.1v-1.3c0-0.6,0.5-1.1,1.1-1.1c0.6,0,1.1,0.5,1.1,1.1v1.3
				C162.8,168.3,162.3,168.8,161.7,168.8z M161.7,165.5c-0.5,0-0.9,0.4-0.9,0.9v1.3c0,0.5,0.4,0.9,0.9,0.9c0.5,0,0.9-0.4,0.9-0.9
				v-1.3C162.6,165.9,162.2,165.5,161.7,165.5z"/>
		</g>
		<g>
			<path class="st4" d="M173.6,182.1c-0.2,0-0.4-0.1-0.6-0.2c-1.9-1.4-5.7-2.9-10.3-2.9c-5.5,0-9.4,1.4-10.8,2.8
				c-0.4,0.4-1,0.4-1.4,0c-0.4-0.4-0.4-1,0-1.4c1.8-1.8,5.7-3.1,10.1-3.4c0-0.1,0-0.2,0-0.3v-1.6c0-0.6,0.5-1,1-1s1,0.5,1,1v1.6
				c0,0.1,0,0.1,0,0.2c0,0,0.1,0,0.1,0c5.1,0,9.3,1.8,11.5,3.3c0.5,0.3,0.6,1,0.2,1.4C174.3,181.9,173.9,182.1,173.6,182.1z"/>
			<path class="st4" d="M173.6,182.2c-0.2,0-0.5-0.1-0.7-0.2c-1.9-1.3-5.6-2.9-10.2-2.9c-5.4,0-9.3,1.4-10.7,2.8
				c-0.4,0.4-1.2,0.4-1.6,0c-0.4-0.4-0.4-1.1,0-1.6c1.8-1.8,5.6-3.1,10.1-3.4c0-0.1,0-0.1,0-0.2v-1.6c0-0.6,0.5-1.1,1.1-1.1
				c0.6,0,1.1,0.5,1.1,1.1v1.6c0,0,0,0.1,0,0.1c5.1,0,9.4,1.8,11.5,3.3c0.2,0.2,0.4,0.4,0.4,0.7c0,0.3,0,0.6-0.2,0.8
				C174.3,182,174,182.2,173.6,182.2z M162.8,178.8c4.6,0,8.4,1.6,10.3,3c0.2,0.1,0.3,0.2,0.5,0.2c0.3,0,0.6-0.1,0.7-0.4
				c0.1-0.2,0.2-0.4,0.2-0.7c0-0.2-0.2-0.5-0.4-0.6c-2.1-1.5-6.4-3.3-11.4-3.3h-0.2l0-0.1c0-0.1,0-0.1,0-0.2v-1.6
				c0-0.5-0.4-0.9-0.9-0.9c-0.5,0-0.9,0.4-0.9,0.9v1.6c0,0.1,0,0.2,0,0.2l0,0.1l-0.1,0c-4.5,0.3-8.3,1.5-10.1,3.3
				c-0.4,0.4-0.4,0.9,0,1.3c0.4,0.4,0.9,0.4,1.3,0C153.3,180.3,157.3,178.8,162.8,178.8z"/>
		</g>
	</g>
	<path class="st3" d="M192.6,139.1h-56.8c-2.5,0-4.5-2-4.5-4.5V77.7c0-2.5,2-4.5,4.5-4.5h56.8c2.5,0,4.5,2,4.5,4.5v56.8
		C197.1,137,195.1,139.1,192.6,139.1z"/>
	<g id="Pray_open_hand_1_">
		<g>
			<path class="st4" d="M182.1,116.4c0-2.7,5.3-5.9,5.3-9.5c0-4.3-2.8-6.4-5.6-9.2l-1.4-7.9c-0.3-1.7-1.9-2.8-3.6-2.5c0,0,0,0,0,0
				c-1.3,0.2-1,0.8-1.2,0.1c-0.3-1.7-1.9-2.8-3.6-2.5c-1.4,0.3-2.4,1.4-2.5,2.8c-1.7-0.4-3.3,0.6-3.7,2.3c-0.1,0.4-0.1,0.8,0,1.3
				l0.3,1.9c-0.7,0-1.4,0.3-1.9,0.8c-0.5-0.5-1.2-0.8-1.9-0.8l0.3-1.9c0.3-1.7-0.8-3.3-2.5-3.6c-0.4-0.1-0.9-0.1-1.3,0
				c-0.1-1.7-1.6-3-3.3-2.9c-1.4,0.1-2.6,1.1-2.8,2.5c-0.1,0.6,0.1,0.1-1.2-0.1c-1.7-0.3-3.3,0.8-3.6,2.5l-1.4,7.9
				c-2.8,2.8-5.6,4.9-5.6,9.2c0,3.6,5.3,6.9,5.3,9.5c0,0.7-0.4,2.9-2.9,9.7c-0.2,0.5,0.1,1.1,0.6,1.2c0.5,0.2,1.1-0.1,1.2-0.6
				c4.2-11.1,3.8-11.4,0.2-15.7c-1.2-1.4-2.5-2.9-2.5-4.1c0-1.7,0.7-3.3,1.8-4.6c3.8-3.8,3.6-3.7,3.7-3.6c1,0.7,1.4,2.1,1,3.2
				c-1.1,2.7-1.2,2.9-1,3.4c0.5,0.9,2,0.2,4.8,2.3c1.2,0.9,2.2,2.1,2.9,3.5c0.3,0.5,0.9,0.6,1.3,0.3c0.4-0.2,0.6-0.8,0.4-1.2
				c-1.5-3-4.1-5.2-7.3-6.1l0.6-1.5c1.1-2.8-0.8-5.6-2.5-5.8l1.2-6.6c0.1-0.6,0.8-1,1.4-0.9c0.3,0.1,0.5,0.2,0.7,0.5
				c0.4,0.5,0.3,0.4-0.7,5.7c-0.1,0.5,0.3,1,0.8,1.1c0.5,0.1,1-0.3,1.1-0.8l1.4-7.9c0.1-0.6,0.7-1,1.3-0.9s1,0.7,0.9,1.3L155,98.6
				c-0.1,0.5,0.3,1,0.8,1.1c0.1,0,0.2,0,0.3,0c1-0.1,0.8-0.4,2.3-9.1c0.1-0.6,0.8-1,1.4-0.9c0.6,0.1,1,0.7,0.9,1.3l-2,11.3
				c-0.1,0.5,0.3,1,0.8,1.1c0.5,0.1,1-0.3,1.1-0.8l1.3-7.4c0.6-0.1,1.2,0.4,1.3,1c0,0,0,0,0,0.1v14.1c0,6.1-4,5.7-5.1,15.9
				c-0.1,0.5,0.3,1,0.9,1.1s1-0.3,1.1-0.9c0.3-3.4,1.4-6.6,3.2-9.5c1.7-2.4,0.3-2.4,2,0c1.8,2.9,2.9,6.1,3.2,9.5
				c0.1,0.5,0.5,0.9,1.1,0.9s0.9-0.5,0.9-1.1l0,0c-1.2-10.3-5.2-9.8-5.2-15.9V96.3c0-0.6,0.5-1.1,1.2-1.1c0,0,0.1,0,0.1,0l1.3,7.4
				c0.1,0.5,0.6,0.9,1.1,0.8c0.5-0.1,0.9-0.6,0.8-1.1l-2-11.2c-0.1-0.6,0.3-1.2,0.9-1.4s1.2,0.3,1.4,0.9l0,0l1.5,8.4
				c0.1,0.5,0.6,0.9,1.1,0.8c0.5-0.1,0.9-0.6,0.8-1.1l-1.9-10.4c-0.1-0.6,0.3-1.2,0.9-1.3c0.6-0.1,1.2,0.3,1.3,0.9l0,0l1.4,7.9
				c0.1,0.5,0.6,0.9,1.1,0.8c0.5-0.1,0.9-0.6,0.8-1.1c-1-5.3-1-5.2-0.7-5.7c0.4-0.5,1.1-0.6,1.6-0.3c0.2,0.2,0.4,0.4,0.5,0.7
				l1.2,6.6c-1.7,0.3-3.6,3-2.5,5.8l0.6,1.6c-3.2,1-5.8,3.2-7.3,6.1c-0.2,0.5,0,1.1,0.5,1.3c0.4,0.2,1,0,1.2-0.4
				c0.7-1.4,1.7-2.6,2.9-3.5c2.9-2.2,4.3-1.5,4.8-2.4c0.3-0.5,0.1-0.7-1-3.4c-0.5-1.2-0.1-2.5,1-3.2c0.1-0.1-0.1-0.3,3.7,3.6
				c1.1,1.3,1.8,2.9,1.8,4.6c0,1.2-1.2,2.7-2.4,4.1c-3.7,4.5-3.9,4.8,0.2,15.7c0.2,0.5,0.7,0.8,1.2,0.6c0.5-0.2,0.8-0.7,0.6-1.2l0,0
				C182.5,119.3,182.1,117.1,182.1,116.4z"/>
			<path class="st4" d="M159,127.7c0,0-0.1,0-0.1,0c-0.7-0.1-1.2-0.7-1.1-1.4c0.6-5.6,2.1-8.1,3.3-10.1c1-1.7,1.8-3.1,1.8-5.8V96.3
				c0-0.3-0.1-0.5-0.3-0.6c-0.1-0.1-0.3-0.2-0.4-0.2l-1.3,7.1c-0.1,0.3-0.2,0.6-0.5,0.8c-0.3,0.2-0.6,0.3-1,0.2
				c-0.7-0.1-1.2-0.8-1-1.5l2-11.3c0.1-0.4-0.2-0.8-0.7-0.9c-0.5-0.1-0.9,0.2-1,0.6c-0.3,1.8-0.6,3.3-0.8,4.5
				c-0.8,4.6-0.8,4.8-1.8,4.9c-0.1,0-0.2,0-0.4,0c-0.7-0.1-1.2-0.8-1-1.4l1.8-10.4c0-0.2,0-0.5-0.1-0.6c-0.1-0.2-0.3-0.3-0.6-0.4
				c-0.2,0-0.5,0-0.6,0.1c-0.2,0.1-0.3,0.3-0.4,0.6l-1.4,7.9c-0.1,0.3-0.2,0.6-0.5,0.8c-0.3,0.2-0.6,0.3-1,0.2
				c-0.7-0.1-1.2-0.8-1-1.5c0.2-1.1,0.3-1.9,0.5-2.6c0.5-2.5,0.5-2.5,0.2-2.8c-0.1-0.2-0.3-0.3-0.5-0.3c-0.2,0-0.5,0-0.7,0.1
				c-0.2,0.1-0.3,0.3-0.4,0.6l-1.1,6.3c0.8,0.2,1.6,0.9,2.1,1.9c0.8,1.3,0.9,2.9,0.3,4.3l-0.5,1.2c3.1,1,5.7,3.2,7.2,6.2
				c0.3,0.6,0,1.3-0.5,1.6c-0.6,0.4-1.4,0.2-1.7-0.4c-0.7-1.3-1.7-2.5-2.8-3.4c-1.6-1.2-2.7-1.5-3.5-1.7c-0.6-0.2-1.1-0.3-1.4-0.8
				c-0.3-0.6-0.2-0.8,0.5-2.4c0.1-0.3,0.3-0.7,0.5-1.2c0.4-1,0.1-2.1-0.7-2.8c-0.2,0.1-0.5,0.5-1,1c-0.5,0.5-1.3,1.3-2.5,2.5
				c-1.1,1.2-1.7,2.8-1.8,4.4c0,1.1,1.1,2.5,2.4,3.9l0.1,0.2c3.7,4.4,3.8,5-0.3,15.9c-0.1,0.3-0.4,0.6-0.7,0.7c-0.3,0.1-0.7,0.2-1,0
				c-0.7-0.2-1-1-0.7-1.6c2.5-6.7,2.9-8.9,2.9-9.6c0-1.1-1.1-2.5-2.3-3.9c-1.4-1.7-3-3.6-3-5.7c0-3.9,2.2-6,4.6-8.3
				c0.3-0.3,0.7-0.6,1-1l1.4-7.8c0.3-1.8,2.1-3,3.9-2.8c0.4,0.1,0.7,0.2,0.8,0.3c0.3-1.5,1.6-2.6,3.1-2.7c0.9-0.1,1.8,0.2,2.4,0.8
				c0.6,0.5,1,1.2,1.1,2c0.4-0.1,0.7,0,1.1,0c0.9,0.2,1.7,0.6,2.2,1.4c0.5,0.7,0.7,1.6,0.6,2.5l-0.3,1.6c0.6,0.1,1.1,0.3,1.6,0.7
				c0.5-0.4,1-0.6,1.6-0.7l-0.3-1.6c-0.1-0.5-0.1-0.9,0-1.4c0.2-0.9,0.8-1.6,1.5-2.1c0.7-0.4,1.5-0.6,2.2-0.5
				c0.2-1.4,1.3-2.5,2.7-2.8c0.9-0.2,1.8,0,2.5,0.5c0.7,0.5,1.2,1.2,1.4,2.1c0.2-0.1,0.5-0.2,0.8-0.3c1.8-0.3,3.6,0.9,3.9,2.7
				l1.4,7.8c0.3,0.3,0.7,0.7,1,1c2.4,2.3,4.6,4.5,4.6,8.3c0,2.1-1.6,4-3,5.7c-1.2,1.4-2.3,2.7-2.3,3.9c0,0.7,0.4,2.9,2.9,9.6
				c0.1,0.3,0.1,0.7,0,1c-0.1,0.3-0.4,0.5-0.7,0.7c-0.3,0.1-0.7,0.1-1,0c-0.3-0.1-0.5-0.4-0.7-0.7c-4.2-11.2-3.9-11.5-0.1-16
				c1.1-1.3,2.4-2.8,2.4-4c0-1.6-0.6-3.2-1.7-4.4l-2.1-2.1c-0.8-0.8-1.2-1.2-1.4-1.4c-0.8,0.7-1.1,1.8-0.7,2.8
				c0.2,0.5,0.4,0.9,0.5,1.3c0.6,1.6,0.7,1.8,0.4,2.3c-0.3,0.5-0.8,0.6-1.4,0.8c-0.8,0.2-1.9,0.5-3.5,1.7c-1.2,0.9-2.1,2.1-2.8,3.4
				c-0.3,0.6-1,0.8-1.6,0.5c-0.3-0.1-0.6-0.4-0.7-0.7c-0.1-0.3-0.1-0.7,0-1c1.5-2.9,4.1-5.2,7.1-6.2l-0.5-1.3
				c-0.6-1.4-0.4-3,0.3-4.3c0.5-0.9,1.3-1.6,2.1-1.9l-1.1-6.3c0-0.2-0.2-0.4-0.3-0.5c-0.4-0.3-0.9-0.2-1.2,0.2
				c-0.2,0.3-0.2,0.3,0.3,3.4l0.4,2c0.1,0.7-0.3,1.4-1,1.5c-0.3,0.1-0.7,0-1-0.2c-0.3-0.2-0.5-0.5-0.5-0.8l-1.4-7.9
				c-0.1-0.5-0.5-0.8-1-0.7c-0.5,0.1-0.8,0.5-0.7,1l1.9,10.4c0.1,0.7-0.3,1.4-1,1.5c-0.7,0.1-1.4-0.3-1.5-1l-1.5-8.4
				c0-0.2-0.2-0.4-0.4-0.6c-0.2-0.1-0.4-0.2-0.7-0.1c-0.2,0-0.4,0.2-0.6,0.4c-0.1,0.2-0.2,0.4-0.1,0.7l2,11.2c0.1,0.3,0,0.7-0.2,1
				c-0.2,0.3-0.5,0.5-0.8,0.5c-0.3,0.1-0.7,0-1-0.2c-0.3-0.2-0.5-0.5-0.5-0.8l-1.3-7.1c-0.4,0-0.8,0.4-0.8,0.8v14.1
				c0,2.7,0.8,4.1,1.8,5.8c1.2,2,2.7,4.5,3.4,10.1c0,0.3-0.1,0.7-0.3,0.9c-0.2,0.3-0.5,0.4-0.8,0.5c-0.7,0.1-1.3-0.4-1.4-1.1
				c-0.3-3.3-1.4-6.5-3.1-9.4c-0.4-0.6-0.6-1-0.8-1.3c-0.1,0.3-0.4,0.7-0.8,1.3c-1.8,2.8-2.9,6-3.1,9.3
				C160.2,127.2,159.7,127.7,159,127.7z M164.2,114.9c0.2,0,0.3,0.2,0.4,0.4c0.1,0.3,0.3,0.8,0.9,1.6c1.8,2.9,2.9,6.2,3.2,9.6
				c0,0.4,0.4,0.6,0.7,0.6c0.4,0,0.6-0.4,0.6-0.7c-0.7-5.5-2.1-7.9-3.3-9.8c-1-1.7-1.9-3.2-1.9-6.1V96.3c0-0.8,0.7-1.4,1.4-1.4
				c0.1,0,0.1,0,0.2,0l0.2,0l1.3,7.6c0,0.2,0.1,0.3,0.3,0.4c0.2,0.1,0.3,0.1,0.5,0.1c0.2,0,0.3-0.1,0.4-0.3c0.1-0.1,0.1-0.3,0.1-0.5
				l-2-11.2c-0.1-0.4,0-0.8,0.2-1.1c0.2-0.3,0.6-0.5,0.9-0.6c0.4-0.1,0.8,0,1.1,0.2c0.3,0.2,0.5,0.6,0.6,0.9l1.5,8.4
				c0.1,0.4,0.4,0.6,0.8,0.6c0.4-0.1,0.6-0.4,0.6-0.8l-1.9-10.4c-0.1-0.8,0.4-1.5,1.2-1.7c0.8-0.1,1.5,0.4,1.7,1.2l1.4,7.9
				c0,0.2,0.1,0.3,0.3,0.4c0.1,0.1,0.3,0.1,0.5,0.1c0.4-0.1,0.6-0.4,0.6-0.8l-0.4-2c-0.6-3.3-0.6-3.3-0.3-3.9
				c0.5-0.7,1.4-0.8,2.1-0.3c0.3,0.2,0.5,0.5,0.6,0.9l1.2,6.9l-0.3,0c-0.7,0.1-1.5,0.7-2,1.6c-0.7,1.2-0.8,2.5-0.3,3.8l0.7,1.9
				l-0.3,0.1c-3.1,0.9-5.6,3.1-7.1,6c-0.1,0.1-0.1,0.3,0,0.5c0.1,0.2,0.2,0.3,0.4,0.4c0.3,0.1,0.7,0,0.8-0.3c0.7-1.4,1.7-2.6,3-3.6
				c1.7-1.3,2.9-1.6,3.8-1.8c0.6-0.1,0.8-0.2,1-0.5c0.2-0.3,0.1-0.3-0.5-1.8c-0.1-0.3-0.3-0.8-0.5-1.3c-0.5-1.3-0.1-2.8,1.1-3.6
				c0.2-0.2,0.2-0.2,2,1.6l2.1,2.1c1.2,1.3,1.8,3,1.9,4.8c0,1.4-1.3,2.9-2.5,4.3c-3.6,4.4-3.8,4.6,0.2,15.5c0.1,0.2,0.2,0.3,0.4,0.4
				c0.2,0.1,0.3,0.1,0.5,0c0.2-0.1,0.3-0.2,0.4-0.4c0.1-0.2,0.1-0.3,0-0.5c-2.4-6.4-2.9-8.9-2.9-9.8c0-1.3,1.2-2.8,2.4-4.2
				c1.4-1.7,2.9-3.4,2.9-5.3c0-3.6-2.1-5.6-4.5-7.9c-0.4-0.3-0.7-0.7-1.1-1.1l-0.1-0.1l0-0.1l-1.4-7.9c-0.3-1.5-1.7-2.5-3.2-2.3
				c-0.6,0.1-0.8,0.3-0.9,0.3c-0.1,0.1-0.2,0.1-0.4,0.1c-0.2-0.1-0.2-0.2-0.2-0.4l0-0.2c-0.1-0.7-0.5-1.4-1.2-1.8
				c-0.6-0.4-1.4-0.6-2.1-0.4c-1.3,0.2-2.2,1.3-2.3,2.6l0,0.3l-0.3-0.1c-0.7-0.2-1.5-0.1-2.1,0.3c-0.6,0.4-1.1,1-1.3,1.7
				c-0.1,0.4-0.1,0.8,0,1.1l0.4,2.3l-0.3,0c-0.7,0-1.3,0.3-1.8,0.8l-0.2,0.2l-0.2-0.2c-0.5-0.4-1.1-0.7-1.7-0.8l-0.3,0l0.4-2.3
				c0.1-0.7,0-1.5-0.5-2.1c-0.4-0.6-1.1-1-1.8-1.1c-0.4-0.1-0.8-0.1-1.1,0l-0.3,0.1l0-0.3c0-0.7-0.4-1.4-0.9-1.9
				c-0.6-0.5-1.3-0.7-2-0.7c-1.3,0.1-2.3,1-2.6,2.3l0,0.1c0,0.1,0,0.3-0.2,0.4c-0.2,0.1-0.3,0-0.4-0.1c-0.1-0.1-0.3-0.2-0.9-0.3
				c-1.5-0.2-3,0.8-3.2,2.3l-1.4,8l-0.1,0.1c-0.4,0.4-0.7,0.7-1.1,1.1c-2.4,2.3-4.5,4.3-4.5,7.9c0,1.8,1.5,3.6,2.9,5.3
				c1.2,1.5,2.4,2.9,2.4,4.2c0,0.9-0.5,3.3-2.9,9.8c-0.1,0.3,0,0.7,0.4,0.9c0.2,0.1,0.4,0.1,0.5,0c0.2-0.1,0.3-0.2,0.4-0.4
				c4.1-10.8,3.8-11.2,0.4-15.3l-0.1-0.2c-1.4-1.6-2.5-3-2.5-4.3c0-1.8,0.7-3.5,1.9-4.8c1.2-1.2,2-2,2.5-2.5
				c1.3-1.3,1.3-1.3,1.6-1.2c1.2,0.8,1.6,2.3,1.1,3.6c-0.2,0.5-0.4,0.9-0.5,1.2c-0.6,1.5-0.6,1.6-0.5,1.9c0.1,0.3,0.4,0.3,1,0.5
				c0.8,0.2,2.1,0.5,3.7,1.8c1.2,1,2.3,2.2,3,3.6c0.2,0.3,0.6,0.4,0.9,0.2c0.3-0.2,0.4-0.5,0.3-0.8c-1.4-2.9-4-5-7.1-5.9l-0.3-0.1
				l0.7-1.8c0.5-1.2,0.4-2.6-0.3-3.8c-0.5-0.9-1.3-1.5-2-1.6l-0.3,0l1.2-6.9c0.1-0.4,0.3-0.7,0.6-0.9c0.3-0.2,0.7-0.3,1.1-0.2
				c0.4,0.1,0.7,0.3,0.9,0.6c0.4,0.5,0.3,0.6-0.1,3.3c-0.1,0.7-0.3,1.5-0.5,2.6c-0.1,0.4,0.2,0.7,0.6,0.8c0.2,0,0.4,0,0.5-0.1
				c0.2-0.1,0.3-0.3,0.3-0.4l1.4-7.9c0.1-0.4,0.3-0.7,0.6-0.9c0.3-0.2,0.7-0.3,1.1-0.2c0.4,0.1,0.7,0.3,0.9,0.6
				c0.2,0.3,0.3,0.7,0.2,1.1l-1.8,10.4c-0.1,0.4,0.2,0.7,0.6,0.8c0.1,0,0.1,0,0.2,0c0.5-0.1,0.5-0.1,1.3-4.4
				c0.2-1.2,0.4-2.6,0.8-4.5c0.2-0.8,1-1.3,1.7-1.1c0.7,0.2,1.2,0.9,1.1,1.6l-2,11.3c-0.1,0.4,0.2,0.7,0.6,0.8c0.2,0,0.4,0,0.5-0.1
				c0.2-0.1,0.3-0.3,0.3-0.4l1.3-7.6l0.2,0c0.4,0,0.8,0.1,1.1,0.3c0.3,0.2,0.5,0.6,0.5,1l0,0.1v14.1c0,2.9-0.9,4.4-1.9,6.1
				c-1.2,2-2.6,4.4-3.2,9.9c0,0.4,0.2,0.7,0.6,0.7c0.4,0,0.7-0.2,0.7-0.6c0.3-3.4,1.4-6.7,3.2-9.6c0.6-0.8,0.8-1.3,0.9-1.6
				C163.9,115.1,164,114.9,164.2,114.9z"/>
		</g>
	</g>
	<g>
		<path class="st0" d="M111.7,381.6H54.9c-2.5,0-4.5-2-4.5-4.5v-56.8c0-2.5,2-4.5,4.5-4.5h56.8c2.5,0,4.5,2,4.5,4.5v56.8
			C116.2,379.6,114.2,381.6,111.7,381.6z"/>
		<g>
			<g>
				<path class="st5" d="M104.4,345c0-5.2-4-9.6-9.2-10.1v-1.6c0-0.2-0.1-0.4-0.3-0.6l-9.6-8.3c-0.2-0.1-0.3-0.2-0.5-0.2H63
					c-0.4,0-0.8,0.4-0.8,0.8v42.7c0,0.4,0.4,0.8,0.8,0.8h26.7c0.1,2.5,2.2,4.5,4.7,4.4c2.8-0.1,4.7-2.6,4.3-5.2l-1.2-7.9
					c-0.1-0.7-0.4-1.3-0.9-1.8V355C101.2,353.8,104.5,349.7,104.4,345L104.4,345z M95.1,355.2v2c-0.6-0.2-1.2-0.2-1.7,0v-2
					C93.9,355.3,94.5,355.3,95.1,355.2z M102.9,345c0,4.8-3.9,8.7-8.7,8.7c-4.7,0-8.7-3.9-8.7-8.6c0-4.8,4-8.7,8.8-8.7
					C99.1,336.5,102.9,340.3,102.9,345z M85.6,326.8l6.7,5.8h-6.7V326.8z M63.8,325.9h20.2v7.5c0,0.4,0.4,0.8,0.8,0.8h8.8v0.8
					c-5.6,0.3-9.9,5.1-9.6,10.8c0.3,4.5,3.4,8.3,7.8,9.3v3.2c-0.5,0.5-0.8,1.1-0.9,1.8c-0.3,1.9-0.7,4.7-1.1,7.1h-26L63.8,325.9z
					 M96.5,370.4c-1.1,1.2-3,1.4-4.3,0.3c-1.3-1.1-1-2.6-1-2.8c0.4-2.6,0.9-5.7,1.2-7.8c0.1-1,1.1-1.6,2-1.5
					c0.8,0.1,1.4,0.7,1.5,1.5l1.2,7.8C97.3,368.8,97.1,369.7,96.5,370.4L96.5,370.4z"/>
				<path class="st5" d="M94.2,373.3c-1.2,0-2.4-0.5-3.3-1.3c-0.9-0.8-1.4-1.9-1.5-3.1H63c-0.6,0-1-0.5-1-1v-42.7c0-0.6,0.5-1,1-1
					h21.7c0.3,0,0.4,0.1,0.7,0.2l9.6,8.3c0.2,0.2,0.3,0.4,0.3,0.7v1.3c5.3,0.6,9.2,5,9.2,10.3c0,4.7-3.2,8.9-7.8,10.1v2.9
					c0.5,0.5,0.8,1.1,0.9,1.8l1.2,7.9c0.2,1.4-0.2,2.7-1.1,3.8c-0.9,1-2.1,1.7-3.5,1.7C94.3,373.3,94.3,373.3,94.2,373.3z M63,324.6
					c-0.3,0-0.6,0.3-0.6,0.6v42.7c0,0.3,0.3,0.6,0.6,0.6h26.9l0,0.2c0,1.2,0.5,2.2,1.4,3c0.8,0.8,1.9,1.2,3.1,1.2
					c1.2,0,2.4-0.6,3.2-1.5c0.8-1,1.1-2.2,1-3.4l-1.2-7.9c-0.1-0.6-0.4-1.2-0.8-1.6l-0.1-0.1v-3.5l0.2,0c4.4-1.1,7.6-5.2,7.6-9.7v0
					c0-5.2-3.9-9.4-9-9.9l-0.2,0v-1.8c0-0.2-0.1-0.3-0.2-0.4l-9.6-8.3c-0.1-0.1-0.2-0.1-0.4-0.1H63z M94.2,371.7
					c-0.8,0-1.5-0.3-2.1-0.8c-1.2-1-1.1-2.3-1.1-2.8c0-0.1,0-0.1,0-0.1l0,0l0,0c0.4-2.6,0.9-5.7,1.2-7.8c0.1-1.1,1.2-1.9,2.3-1.7
					c0.9,0.2,1.6,0.8,1.7,1.7l1.2,7.8c0.1,1-0.1,1.9-0.7,2.6c-0.6,0.7-1.3,1.1-2.2,1.1C94.4,371.7,94.3,371.7,94.2,371.7z
					 M91.5,367.9c0,0,0,0.1,0,0.2c0,0.5-0.1,1.6,0.9,2.4c0.6,0.5,1.3,0.7,2,0.7c0.7-0.1,1.4-0.4,1.9-1l0,0c0.5-0.6,0.7-1.4,0.6-2.3
					l-1.2-7.8c-0.1-0.7-0.6-1.2-1.3-1.3c-0.9-0.1-1.7,0.5-1.8,1.3C92.4,362.2,91.9,365.3,91.5,367.9z M90.1,367.3H63.6v-41.7h20.7
					v7.7c0,0.3,0.3,0.6,0.6,0.6h9.1v1.2l-0.2,0c-2.7,0.1-5.1,1.3-6.9,3.3c-1.8,2-2.7,4.6-2.5,7.2c0.3,4.4,3.3,8.1,7.6,9.1l0.2,0v3.5
					l-0.1,0.1c-0.5,0.5-0.7,1-0.8,1.6c-0.1,0.9-0.3,2-0.5,3.1c-0.2,1.3-0.4,2.7-0.6,4.1L90.1,367.3z M64,366.9h25.6
					c0.2-1.3,0.4-2.6,0.6-3.9c0.2-1.1,0.3-2.2,0.5-3.1c0.1-0.7,0.4-1.3,0.9-1.8v-2.9c-4.4-1.2-7.5-4.9-7.8-9.5
					c-0.2-2.8,0.7-5.5,2.6-7.5c1.8-2,4.3-3.3,7-3.5v-0.3h-8.6c-0.6,0-1-0.5-1-1v-7.2H64V366.9z M93.1,357.5V355l0.2,0
					c0.6,0,1.1,0,1.7,0l0.2,0v2.5l-0.3-0.1c-0.5-0.2-1.1-0.2-1.6,0L93.1,357.5z M94.2,356.9c0.2,0,0.4,0,0.6,0.1v-1.5
					c-0.4,0-0.9,0-1.3,0v1.5C93.8,356.9,94,356.9,94.2,356.9z M94.1,353.9c-2.3,0-4.5-0.9-6.2-2.6c-1.7-1.7-2.6-3.9-2.6-6.3
					c0-2.4,0.9-4.6,2.7-6.3c1.7-1.7,3.9-2.6,6.2-2.6c0.1,0,0.1,0,0.2,0c2.3,0,4.5,1,6.2,2.6c1.6,1.7,2.5,3.9,2.5,6.2
					C103.1,349.9,99.1,353.9,94.1,353.9C94.2,353.9,94.2,353.9,94.1,353.9z M94.2,336.6c-2.2,0-4.3,0.9-5.9,2.4
					c-1.6,1.6-2.5,3.7-2.5,6c0,2.2,0.9,4.4,2.5,6c1.6,1.6,3.7,2.4,5.9,2.4c4.6,0,8.4-3.8,8.4-8.4v0c0-2.2-0.8-4.3-2.4-5.9
					c-1.6-1.6-3.6-2.5-5.9-2.5C94.3,336.6,94.3,336.6,94.2,336.6z M92.9,332.8h-7.6v-6.5L92.9,332.8z M85.8,332.3h5.9l-5.9-5V332.3z
					"/>
			</g>
			<g>
				<path class="st5" d="M94.5,351.5c3.5-0.1,6.3-3.1,6.2-6.6c-0.1-3.4-2.8-6.1-6.2-6.2c-3.5-0.1-6.5,2.7-6.6,6.2
					C87.7,348.7,91.2,351.8,94.5,351.5z M93.6,340.2v9.6c-2.7-0.3-4.5-2.8-4.2-5.4C89.7,342.2,91.4,340.5,93.6,340.2z M99.1,345
					c0,2.3-1.6,4.3-3.9,4.7v-9.5C97.4,340.7,99.1,342.7,99.1,345L99.1,345z"/>
				<path class="st5" d="M94,351.7c-1.5,0-3-0.6-4.2-1.8c-1.4-1.3-2.2-3.2-2.1-5c0.1-3.6,3-6.4,6.6-6.4c0.1,0,0.1,0,0.2,0
					c3.5,0.1,6.3,2.9,6.4,6.4c0.1,1.8-0.6,3.4-1.8,4.7c-1.2,1.3-2.8,2-4.6,2.1C94.3,351.7,94.2,351.7,94,351.7z M94.3,338.9
					c-3.3,0-6.1,2.7-6.2,6c-0.1,1.7,0.7,3.5,2,4.7c1.2,1.2,2.9,1.8,4.4,1.6l0,0c1.7-0.1,3.2-0.8,4.3-2c1.1-1.2,1.7-2.8,1.6-4.4
					c-0.1-3.3-2.8-5.9-6-5.9C94.4,338.9,94.3,338.9,94.3,338.9z M93.9,350.1l-0.3,0c-2.8-0.3-4.7-2.9-4.4-5.7
					c0.3-2.3,2.1-4.1,4.4-4.4l0.3,0V350.1z M93.4,340.5c-2,0.4-3.5,2-3.8,4c-0.3,2.5,1.4,4.7,3.8,5.1V340.5z M95,350v-10l0.3,0.1
					c2.4,0.5,4.1,2.6,4.1,5c0,2.4-1.7,4.5-4.1,5L95,350z M95.4,340.6v8.9c2-0.5,3.5-2.4,3.5-4.5C98.9,342.9,97.4,341.1,95.4,340.6z"
					/>
			</g>
			<g>
				<path class="st5" d="M80.1,328.4H67.9c-0.4,0-0.8,0.4-0.8,0.8v13.5c0,0.4,0.4,0.8,0.8,0.8h12.2c0.4,0,0.8-0.4,0.8-0.8v-13.5
					C80.9,328.8,80.5,328.4,80.1,328.4z M79.3,342H68.7v-12h10.6V342z"/>
				<path class="st5" d="M80.1,343.8H67.9c-0.6-0.1-1-0.5-1-1v-13.5c0-0.6,0.5-1,1-1h12.2c0.6,0,1,0.4,1.1,1l0,13.6
					C81.1,343.4,80.7,343.8,80.1,343.8z M67.9,328.7c-0.3,0-0.6,0.3-0.6,0.6v13.5c0,0.4,0.3,0.5,0.6,0.6l12.2,0
					c0.4,0,0.5-0.3,0.6-0.6l0-13.5c0-0.3-0.3-0.6-0.6-0.6H67.9z M79.6,342.2H68.5v-12.4h11.1V342.2z M68.9,341.7h10.2v-11.5H68.9
					V341.7z"/>
			</g>
			<g>
				<path class="st5" d="M80.1,347.8H67.9c-0.4,0-0.8,0.4-0.8,0.8s0.4,0.8,0.8,0.8h12.2c0.4,0,0.8-0.4,0.8-0.8
					S80.5,347.8,80.1,347.8z"/>
				<path class="st5" d="M80.1,349.6H67.9c-0.6,0-1-0.5-1-1c0-0.6,0.5-1,1-1h12.2c0.6,0,1.1,0.5,1.1,1
					C81.2,349.1,80.7,349.6,80.1,349.6z M67.9,348c-0.3,0-0.6,0.3-0.6,0.6s0.3,0.6,0.6,0.6h12.2c0.3,0,0.6-0.3,0.6-0.6
					c0-0.3-0.3-0.6-0.6-0.6H67.9z"/>
			</g>
			<g>
				<path class="st5" d="M80.1,352.5H67.9c-0.4,0-0.8,0.4-0.8,0.8s0.4,0.8,0.8,0.8h12.2c0.4,0,0.8-0.4,0.8-0.8
					S80.5,352.5,80.1,352.5z"/>
				<path class="st5" d="M80.1,354.3H67.9c-0.6,0-1-0.5-1-1s0.5-1,1-1h12.2c0.6,0,1.1,0.5,1.1,1C81.2,353.9,80.7,354.3,80.1,354.3z
					 M67.9,352.7c-0.3,0-0.6,0.3-0.6,0.6s0.3,0.6,0.6,0.6h12.2c0.3,0,0.6-0.3,0.6-0.6c0-0.3-0.3-0.6-0.6-0.6H67.9z"/>
			</g>
			<g>
				<path class="st5" d="M80.1,357.3H67.9c-0.4,0-0.8,0.4-0.8,0.8c0,0.4,0.4,0.8,0.8,0.8h12.2c0.4,0,0.8-0.4,0.8-0.8
					C80.9,357.7,80.5,357.3,80.1,357.3z"/>
				<path class="st5" d="M80.1,359.1H67.9c-0.6,0-1-0.5-1-1c0-0.6,0.5-1,1-1h12.2c0.6,0,1.1,0.5,1.1,1
					C81.2,358.7,80.7,359.1,80.1,359.1z M67.9,357.5c-0.3,0-0.6,0.3-0.6,0.6c0,0.3,0.3,0.6,0.6,0.6h12.2c0.3,0,0.6-0.3,0.6-0.6
					c0-0.3-0.3-0.6-0.6-0.6H67.9z"/>
			</g>
			<g>
				<path class="st5" d="M75.7,362.1h-7.8c-0.4,0-0.8,0.4-0.8,0.8s0.4,0.8,0.8,0.8h7.8c0.4,0,0.8-0.4,0.8-0.8S76.2,362.1,75.7,362.1
					z"/>
				<path class="st5" d="M75.8,363.9h-7.8c-0.6,0-1-0.5-1-1s0.5-1,1-1h7.8c0.6,0,1.1,0.5,1.1,1C76.8,363.4,76.3,363.9,75.8,363.9z
					 M67.9,362.3c-0.3,0-0.6,0.3-0.6,0.6s0.3,0.6,0.6,0.6h7.8c0.3,0,0.6-0.3,0.6-0.6c0-0.3-0.3-0.6-0.6-0.6H67.9z"/>
			</g>
		</g>
	</g>
	<g>
		<path class="st3" d="M111.7,300.8H54.9c-2.5,0-4.5-2-4.5-4.5v-56.8c0-2.5,2-4.5,4.5-4.5h56.8c2.5,0,4.5,2,4.5,4.5v56.8
			C116.2,298.7,114.2,300.8,111.7,300.8z"/>
		<g>
			<path class="st4" d="M89.1,271.5C89.1,271.4,89.1,271.4,89.1,271.5c0-0.1,0.1-0.2,0.3-0.3c0.2-0.2,0.4-0.3,0.5-0.5
				c0.4-0.5,0.3-1.1-0.2-1.5c-0.5-0.4-1.1-0.3-1.5,0.1c-0.1,0.1-0.2,0.2-0.3,0.3c-0.6,0.4-1,1.1-1.1,1.8c0,0.4,0.1,0.8,0.3,1.1
				c0.8,1.6,1.7,3.2,2.8,4.6c0.1,0.1,0.2,0.3,0.3,0.4c0,0-0.1,0-0.1,0.1c-0.1,0.1-0.3,0.2-0.4,0.2c-0.8,0.3-1.4,0.9-1.7,1.7
				c-0.1,0.6,0,1.1,0.2,1.6c0.1,0.2,0.1,0.3,0.2,0.4c-0.1,0.1-0.3,0.2-0.4,0.3c-0.2,0.2-0.4,0.4-0.4,0.7c0,0.3,0,0.5,0.2,0.7
				c-0.5,0.3-0.9,0.8-1,1.4c-0.1,0.5-0.1,1,0.1,1.5c0.1,0.4,0.1,0.8-0.1,1.2c-0.1,0.3-0.4,0.5-0.7,0.5c-1.7-0.4-3.5-1-5.2-1.6
				c-0.6-0.2-1.1-0.4-1.6-0.5l-0.2-0.1c-0.4-0.1-0.7-0.2-0.8-0.3c-2.5-0.8-2.7-1.6-2.7-1.9c0-0.3-0.1-0.6-0.3-0.8
				c-0.2-0.2-0.5-0.3-0.8-0.3c-0.3,0-0.6,0.1-0.8,0.3c-0.2,0.2-0.3,0.5-0.3,0.8c0,1.8,1.4,3.1,4.2,4c0.1,0,0.4,0.1,0.7,0.3l0,0
				c-0.7,1-1.3,2-1.7,3.2l-12.6,0c0.9-1.9,1.5-3.9,1.7-6.1c0.3-2.1-0.1-4.3-0.9-6.2c-0.5-1-1.1-2-1.8-2.9c-1.2-1.6-2.2-3-2.3-5.6
				c0-1.6,0.2-3.1,0.6-4.7c1.4-4.8,6.9-6.5,8.5-6.9c0.4-0.1,0.8-0.2,1.1-0.2c0.6-0.1,1-0.7,0.9-1.2c-0.1-0.6-0.7-1-1.2-0.9
				c-0.4,0.1-0.9,0.2-1.3,0.3c-5.2,1.3-9,4.5-10.1,8.5c-0.5,1.7-0.7,3.5-0.7,5.3c0,3.3,1.5,5.2,2.7,6.9c0.6,0.8,1.1,1.6,1.5,2.4
				c0.7,1.6,1,3.4,0.8,5.1c-0.2,2-0.7,3.9-1.6,5.6c-0.3,0.6-0.3,1.3,0,1.9c0.3,0.6,1,0.9,1.6,0.9c0,0,0,0,0,0H77
				c0.8,0,1.6-0.5,1.8-1.3c0.3-1.2,1-2.4,1.9-3.2c1.6,0.6,3.3,1.1,4.9,1.5c0.2,0,0.4,0.1,0.6,0.1c1.2,0,2.3-0.8,2.6-2
				c0.3-0.8,0.3-1.7,0.1-2.5c-0.1-0.1-0.1-0.3-0.1-0.4c0,0,0.2-0.2,0.3-0.2c0.2-0.1,0.3-0.2,0.5-0.3c0.3-0.2,0.5-0.5,0.6-0.9
				c0-0.3,0-0.5-0.1-0.8c0.1-0.1,0.2-0.2,0.3-0.2c0.9-0.7,0.3-1.8,0.1-2.2c-0.1-0.1-0.2-0.3-0.2-0.4c0-0.1,0-0.1,0-0.2
				c0.1-0.1,0.3-0.2,0.5-0.3c0.2-0.1,0.5-0.3,0.7-0.4c0.6-0.3,1-0.9,1.1-1.5c0-0.8-0.4-1.6-0.9-2.1C90.6,274.4,89.8,273,89.1,271.5z
				"/>
			<path class="st4" d="M76.5,275.6c2,0,3.6-1.6,3.6-3.6s-1.6-3.6-3.6-3.6c-2,0-3.6,1.6-3.6,3.6S74.5,275.6,76.5,275.6z M75.1,272
				c0-0.8,0.6-1.4,1.4-1.4s1.4,0.6,1.4,1.4s-0.6,1.4-1.4,1.4S75.1,272.8,75.1,272z"/>
			<path class="st4" d="M69.8,271.8c-1.5,0-2.8,1.2-2.8,2.8c0,1.5,1.2,2.8,2.8,2.8s2.8-1.2,2.8-2.8C72.6,273,71.3,271.8,69.8,271.8z
				 M70.4,274.5c0,0.3-0.3,0.6-0.6,0.6s-0.6-0.3-0.6-0.6c0-0.3,0.3-0.6,0.6-0.6S70.4,274.2,70.4,274.5z"/>
			<path class="st4" d="M104.1,250.9c0-0.1,0-0.2,0-0.3c-0.3-2.6-1.9-4.8-4.3-5.9c-2.3-1.1-4.9-0.9-7.1,0.4
				c-1.9-1.9-4.6-2.8-7.2-2.5c-3.4,0.4-6.2,2.8-7.2,6c-2.5,0.4-4.5,2.3-5.2,4.7c-0.7,2.5,0.2,5.1,2.1,6.7c0,0.6,0,1.1,0,1.7
				c0.3,2.1,1.4,4,3,5.3c1.4,1.1,3.1,1.7,4.9,1.7c0.3,0,0.7,0,1-0.1c1.4-0.2,2.7-0.7,3.8-1.6c3.9,2.2,9,1.2,11.8-2.3
				c1,0.4,2.1,0.5,3.2,0.3c3.4-0.4,6.1-3.2,6.3-6.7C109.5,255,107.4,251.9,104.1,250.9z M77,258.6c-1.5-1-2.2-2.8-1.8-4.6
				c0.4-1.8,1.9-3.1,3.7-3.3c0.1,0,0.2,0,0.3,0c0.5,0,0.9-0.4,1-0.9c0.6-2.7,2.8-4.7,5.5-5.1c0.3,0,0.5,0,0.8,0c2,0,3.9,0.9,5.2,2.5
				c0.2,0.2,0.4,0.4,0.7,0.4c0.3,0,0.6-0.1,0.8-0.2c1.5-1.2,3.6-1.5,5.4-0.8c1.8,0.7,3.1,2.4,3.3,4.3c0,0.3,0,0.6,0,0.8
				c0,0.5,0.4,1,0.9,1.1c2.5,0.4,4.3,2.6,4.2,5.1c0,2.5-1.9,4.6-4.3,4.9l0,0l-0.1,0c-1,0.1-2,0-2.8-0.5c-0.5-0.2-1.1-0.1-1.4,0.4
				c-1,1.6-2.7,2.7-4.6,3.1c-1.9,0.4-3.8,0-5.4-1.1c-0.4-0.3-1-0.2-1.4,0.1c-0.9,0.8-2,1.4-3.2,1.5c-3.2,0.4-6.1-1.9-6.5-5
				c-0.1-0.6-0.1-1.1,0-1.7C77.6,259.3,77.4,258.8,77,258.6z"/>
			<path class="st4" d="M84.1,261.9c3.1,0,5.6-2.5,5.6-5.6c0-3.1-2.5-5.6-5.6-5.6s-5.6,2.5-5.6,5.6C78.5,259.3,81,261.9,84.1,261.9z
				 M84.1,252.1c2.3,0,4.1,1.8,4.1,4.1c0,2.3-1.8,4.1-4.1,4.1s-4.1-1.8-4.1-4.1C80,254,81.9,252.1,84.1,252.1z"/>
			<path class="st4" d="M82,257.6c0,0.2,0.1,0.4,0.2,0.6c0.2,0.2,0.4,0.2,0.6,0.2h0c0.2,0,0.4-0.1,0.6-0.2l0.8-0.8l0.8,0.8
				c0.3,0.3,0.9,0.3,1.2,0c0.2-0.2,0.2-0.4,0.2-0.6s-0.1-0.4-0.2-0.6l-0.8-0.8l0.8-0.8c0.2-0.2,0.2-0.4,0.2-0.6
				c0-0.2-0.1-0.4-0.2-0.6c-0.3-0.3-0.8-0.3-1.2,0l-0.8,0.8l-0.8-0.8c-0.3-0.3-0.8-0.3-1.2,0c-0.2,0.2-0.2,0.4-0.2,0.6
				c0,0.2,0.1,0.4,0.2,0.6l0.8,0.8l-0.8,0.8C82,257.2,82,257.4,82,257.6z"/>
			<path class="st4" d="M95.2,258.1c0.2,0.2,0.4,0.2,0.6,0.2s0.4-0.1,0.6-0.2l2.6-2.6c0.2-0.2,0.2-0.4,0.2-0.6
				c0-0.2-0.1-0.4-0.2-0.6c-0.3-0.3-0.9-0.3-1.2,0l-2.1,2.1l-0.8-0.8c-0.3-0.3-0.8-0.3-1.2,0c-0.3,0.3-0.3,0.8,0,1.2L95.2,258.1z"/>
			<path class="st4" d="M96.4,261.8c3.1,0,5.6-2.5,5.6-5.6c0-3.1-2.5-5.6-5.6-5.6s-5.6,2.5-5.6,5.6
				C90.8,259.3,93.3,261.8,96.4,261.8z M96.4,252.1c2.3,0,4.1,1.8,4.1,4.1c0,2.3-1.8,4.1-4.1,4.1s-4.1-1.8-4.1-4.1
				C92.3,253.9,94.2,252.1,96.4,252.1z"/>
		</g>
	</g>
	<g>
		<path class="st3" d="M192.6,300.8h-56.8c-2.5,0-4.5-2-4.5-4.5v-56.8c0-2.5,2-4.5,4.5-4.5h56.8c2.5,0,4.5,2,4.5,4.5v56.8
			C197.1,298.7,195.1,300.8,192.6,300.8z"/>
		<path class="st4" d="M173,266.1L173,266.1L173,266.1c-1-0.7-1.9-1.2-2.9-1.5c-1-0.3-2.3-0.5-4.1-0.7c-1.7-0.1-2.9-0.3-3.5-0.4
			c-0.4-0.1-0.8-0.3-1.1-0.6c-0.1-0.1-0.3-0.3-0.3-0.8v-1c0-1.7,0.3-2.1,0.4-2.1c0.1-0.1,0.4-0.4,1.8-0.4h1.6c1.5,0,1.8,0.3,1.9,0.3
			c0.1,0.1,0.3,0.4,0.3,1.7v0.3c0,1.4,0.9,2.2,2.2,2.2h4.2c1.4,0,2.2-0.9,2.2-2.2v-0.9c0-2.8-0.8-5-2.3-6.7
			c-1.3-1.4-3.1-2.3-5.3-2.5v-2.7c0-1.4-0.9-2.2-2.2-2.2h-2.9c-1.4,0-2.2,0.9-2.2,2.2v2.7c-1.5,0.1-2.7,0.4-3.6,0.8
			c0,0-0.1,0-0.1,0.1c-2.8,1.3-3.5,3.4-3.5,3.4s0,0,0,0c-0.7,1.4-1.1,3-1.1,4.9v1.8c0,3.9,1.1,6.5,3.3,7.9c1,0.7,2,1.1,2.9,1.4
			c0.9,0.3,2.3,0.5,4.1,0.7c1.6,0.2,2.8,0.3,3.3,0.4c0.5,0.1,0.8,0.3,1.2,0.6c0.2,0.2,0.4,0.6,0.4,1v0.7c0,1.4-0.3,1.8-0.4,1.9
			c-0.1,0.1-0.5,0.4-1.8,0.4h-2c-1.4,0-1.8-0.3-1.9-0.4c-0.1-0.1-0.4-0.4-0.4-1.7v-0.3c0-1.4-0.9-2.2-2.2-2.2h-4.2
			c-1.4,0-2.2,0.9-2.2,2.2v0.9c0,2.8,0.8,5.1,2.4,6.8c1.4,1.5,3.4,2.3,5.8,2.5v2.6c0,1.4,0.9,2.2,2.2,2.2h2.9c1.4,0,2.2-0.9,2.2-2.2
			v-2.6c2.3-0.2,4.1-1,5.5-2.4c1.7-1.6,2.5-3.9,2.5-6.8v-1.9C176.1,270.2,175,267.6,173,266.1z M173.6,275.6c0,2.2-0.6,3.9-1.8,5.1
			c-1.2,1.2-2.8,1.8-5,1.8h-0.1c-0.7,0-1.2,0.5-1.2,1.2l0,3.6l-2.6,0v-3.6c0-0.7-0.5-1.2-1.2-1.2h-0.3c-2.2,0-3.8-0.6-4.9-1.8
			c-1.2-1.2-1.7-2.9-1.7-5.1l0-0.7l3.8,0v0.2c0,1.6,0.4,2.7,1.1,3.4c0.7,0.7,1.9,1,3.5,1h2c1.6,0,2.8-0.4,3.5-1.1
			c0.8-0.7,1.1-1.9,1.1-3.6v-0.7c0-1.2-0.4-2.1-1.1-2.8c-0.6-0.6-1.4-1-2.3-1.2c-0.6-0.1-1.8-0.3-3.6-0.5c-1.6-0.2-2.9-0.3-3.6-0.6
			c-0.7-0.2-1.5-0.6-2.3-1.1c-1.5-0.9-2.2-2.9-2.2-5.9v-1.8c0-1.7,0.3-3.1,1-4.1c1.7-2.5,5-2.7,5.9-2.7h0.2c0.7,0,1.2-0.5,1.2-1.2
			l0-3.7l2.6,0v3.7c0,0.7,0.5,1.2,1.2,1.2h0.1c2,0,3.5,0.6,4.6,1.8c1.1,1.2,1.7,2.9,1.7,5.1l0,0.7l-3.8,0v-0.2
			c0-1.6-0.4-2.7-1.1-3.4c-0.7-0.7-1.9-1-3.6-1h-1.6c-1.7,0-2.9,0.4-3.6,1.1c-0.7,0.7-1,2-1,3.8v1c0,1.1,0.4,2,1.2,2.6
			c0.6,0.5,1.4,0.9,2.2,1.1c0.8,0.1,2,0.3,3.8,0.4c1.6,0.1,2.8,0.3,3.6,0.6c0.7,0.2,1.5,0.6,2.2,1.1c1.4,1,2.1,2.9,2.1,5.7V275.6z"
			/>
	</g>
	<g>
		<path class="st3" d="M111.7,219.9H54.9c-2.5,0-4.5-2-4.5-4.5v-56.8c0-2.5,2-4.5,4.5-4.5h56.8c2.5,0,4.5,2,4.5,4.5v56.8
			C116.2,217.9,114.2,219.9,111.7,219.9z"/>
		<g>
			<path class="st4" d="M83.3,165.9c-5.8,0-10.5,4.7-10.5,10.5v4.7h-1.6c-2.4,0-4.4,2-4.4,4.4v18.2c0,2.4,2,4.4,4.4,4.4h24.2
				c2.4,0,4.4-2,4.4-4.4v-18.2c0-2.4-2-4.4-4.4-4.4h-1.6v-4.7C93.8,170.6,89.1,165.9,83.3,165.9z M75.6,176.4c0-4.2,3.5-7.7,7.7-7.7
				s7.7,3.5,7.7,7.7v4.7H75.6V176.4z M95.4,183.8c0.9,0,1.6,0.7,1.6,1.6v18.2c0,0.9-0.7,1.6-1.6,1.6H71.2c-0.9,0-1.6-0.7-1.6-1.6
				v-18.2c0-0.9,0.7-1.6,1.6-1.6H95.4z"/>
			<path class="st4" d="M83.3,202c0.8,0,1.4-0.6,1.4-1.4v-4.9l0.1,0c1.8-0.6,2.9-2.3,2.9-4.2c0-2.4-2-4.4-4.4-4.4s-4.4,2-4.4,4.4
				c0,1.9,1.2,3.5,2.9,4.2l0.1,0v4.9C81.9,201.4,82.6,202,83.3,202z M81.7,191.5c0-0.9,0.7-1.6,1.6-1.6s1.6,0.7,1.6,1.6
				s-0.7,1.6-1.6,1.6S81.7,192.4,81.7,191.5z"/>
		</g>
	</g>
	<g>
		<path class="st3" d="M111.7,139.1H54.9c-2.5,0-4.5-2-4.5-4.5V77.7c0-2.5,2-4.5,4.5-4.5h56.8c2.5,0,4.5,2,4.5,4.5v56.8
			C116.2,137,114.2,139.1,111.7,139.1z"/>
		<g>
			<path class="st4" d="M107.3,99.3c0-3.5-1.1-6.7-3-9.1c-0.4-0.5-0.9-1.1-1.4-1.5c-0.4-0.4-0.8-0.7-1.3-1c-0.3-0.2-0.6-0.4-0.9-0.6
				c-0.4-0.2-0.8-0.5-1.3-0.7c0,0,0,0,0,0c-0.3-0.2-0.7-0.3-1-0.4c-0.4-0.1-0.7-0.3-1.1-0.4c-0.1,0-0.2-0.1-0.4-0.1
				c-0.3-0.1-0.5-0.1-0.8-0.2c-0.1,0-0.3,0-0.4-0.1c-0.3,0-0.5-0.1-0.8-0.1c-0.1,0-0.3,0-0.4,0c-0.3,0-0.6,0-0.9,0
				c-0.1,0-0.1,0-0.2,0c0,0,0,0,0,0c-0.4,0-0.8,0-1.2,0.1c-0.1,0-0.2,0-0.3,0c-0.3,0-0.6,0.1-0.9,0.1c-0.1,0-0.2,0-0.3,0.1
				c-0.4,0.1-0.8,0.2-1.2,0.3c-0.1,0-0.1,0-0.1,0.1c-0.3,0.1-0.7,0.2-1,0.4c-0.1,0-0.2,0.1-0.3,0.1c-0.3,0.1-0.6,0.3-0.9,0.4
				c-0.1,0-0.2,0.1-0.2,0.1c-0.4,0.2-0.7,0.4-1.1,0.6c-0.1,0.1-0.2,0.1-0.3,0.2c-0.3,0.2-0.5,0.4-0.8,0.6c-0.1,0.1-0.2,0.2-0.3,0.2
				c-0.3,0.3-0.7,0.6-1,0.9c0,0,0,0,0,0c-0.3-0.3-0.6-0.6-1-0.9c-0.1-0.1-0.2-0.2-0.3-0.2c-0.3-0.2-0.5-0.4-0.8-0.6
				c-0.1-0.1-0.2-0.1-0.3-0.2c-0.4-0.2-0.7-0.4-1.1-0.6c-0.1,0-0.2-0.1-0.2-0.1c-0.3-0.2-0.6-0.3-0.9-0.4c-0.1,0-0.2-0.1-0.3-0.1
				c-0.3-0.1-0.7-0.3-1-0.4c0,0-0.1,0-0.1,0c-0.4-0.1-0.8-0.2-1.2-0.3c-0.1,0-0.2,0-0.3-0.1c-0.3-0.1-0.6-0.1-0.9-0.1
				c-0.1,0-0.2,0-0.3,0c-0.4,0-0.8-0.1-1.2-0.1c0,0,0,0,0,0c-0.1,0-0.1,0-0.2,0c-0.3,0-0.6,0-0.9,0c-0.1,0-0.3,0-0.4,0
				c-0.3,0-0.5,0.1-0.8,0.1c-0.1,0-0.3,0-0.4,0.1c-0.3,0.1-0.5,0.1-0.8,0.2c-0.1,0-0.2,0.1-0.4,0.1c-0.4,0.1-0.7,0.2-1.1,0.4
				c-1.7,0.6-3.2,1.6-4.5,2.8c-0.5,0.5-1,1-1.4,1.5c-1.3,1.6-2.2,3.6-2.7,5.8c-0.2,1.1-0.4,2.2-0.4,3.4c0,0.7,0,1.3,0.1,2
				s0.2,1.3,0.3,1.9l0,0l0,0l2.1-0.5c-0.1-0.5-0.2-0.9-0.2-1.4c-0.1-0.7-0.1-1.3-0.1-2c0-4.3,1.9-8,5.1-10.2
				c0.7-0.5,1.6-0.9,2.4-1.2c0.3-0.1,0.6-0.2,1-0.3c0.1,0,0.2-0.1,0.3-0.1c0.2-0.1,0.4-0.1,0.7-0.1c0.1,0,0.3,0,0.4-0.1
				c0.2,0,0.4-0.1,0.6-0.1c0.1,0,0.3,0,0.4,0c0.2,0,0.4,0,0.6,0c0.1,0,0.2,0,0.4,0c0.4,0,0.8,0,1.1,0.1c0,0,0,0,0,0
				c0.4,0,0.8,0.1,1.1,0.2c0.1,0,0.2,0,0.3,0.1c0.3,0.1,0.6,0.2,0.9,0.3c0.1,0,0.1,0,0.2,0.1c0.4,0.1,0.7,0.3,1.1,0.4
				c0.1,0,0.2,0.1,0.3,0.1c0.3,0.1,0.6,0.3,0.8,0.4c0.1,0,0.2,0.1,0.3,0.1c0.3,0.2,0.7,0.4,1,0.7c0.1,0,0.1,0.1,0.2,0.1
				c0.3,0.2,0.5,0.4,0.8,0.7c0.1,0.1,0.2,0.1,0.2,0.2c0.3,0.3,0.6,0.6,0.9,0.9l0.5,0.6l0.3,0.3v0v0l0.8-0.9c0.3-0.3,0.6-0.6,0.9-0.9
				c0.1-0.1,0.2-0.2,0.2-0.2c0.3-0.2,0.5-0.4,0.8-0.7c0.1,0,0.1-0.1,0.2-0.1c0.3-0.2,0.6-0.5,1-0.7c0.1,0,0.2-0.1,0.2-0.1
				c0.3-0.2,0.6-0.3,0.8-0.4c0.1,0,0.2-0.1,0.3-0.1c0.4-0.2,0.7-0.3,1.1-0.4c0.1,0,0.1,0,0.2-0.1c0.3-0.1,0.6-0.2,0.9-0.3
				c0.1,0,0.2,0,0.3-0.1c0.4-0.1,0.8-0.1,1.1-0.2c0,0,0,0,0,0c0.4,0,0.8-0.1,1.2-0.1c0.1,0,0.2,0,0.4,0c0.2,0,0.4,0,0.6,0
				c0.1,0,0.3,0,0.4,0c0.2,0,0.4,0,0.6,0.1c0.1,0,0.3,0,0.4,0.1c0.2,0,0.4,0.1,0.7,0.1c0.1,0,0.2,0,0.3,0.1c0.3,0.1,0.6,0.2,1,0.3
				c1.6,0.6,3,1.5,4.1,2.7c0.8,0.8,1.5,1.8,2.1,2.9c0.4,0.9,0.8,1.8,1,2.8c0,0.1,0.1,0.2,0.1,0.4c0.2,0.9,0.3,1.8,0.3,2.7
				c0,3.7-1.2,6.8-3.1,9.6c-0.7,1-1.5,2-2.3,3c-0.4,0.4-0.7,0.8-1.1,1.2c-2.3,2.3-5,4.5-7.8,6.8c-2.5,2-5.1,4.1-7.4,6.4
				c-0.7-0.6-1.4-1.3-2-1.9c-1.8-1.6-3.6-3-5.4-4.5c-2.2-1.7-4.2-3.4-6.1-5.2c-0.7-0.7-1.4-1.3-2-2c-1.1-1.1-2.1-2.3-2.9-3.5
				l-1.8,1.2l0,0l0,0c0.7,1,1.5,2,2.4,3c0.4,0.5,0.9,0.9,1.3,1.4c1.4,1.4,2.9,2.7,4.5,4.1c0.5,0.4,1.1,0.9,1.6,1.3
				c0.5,0.4,1.1,0.9,1.6,1.3c1.7,1.4,3.4,2.8,5.1,4.2c1,0.9,2,1.8,3,2.8l0.4,0.4l0.4,0.4l0,0l0,0l0.8-0.8c1.8-1.8,3.9-3.6,6-5.3
				c0.7-0.6,1.4-1.1,2.1-1.7c2.3-1.9,4.6-3.7,6.7-5.7c0.5-0.4,0.9-0.9,1.4-1.3c0,0,0.1-0.1,0.1-0.1c0.6-0.6,1.1-1.2,1.6-1.8
				C105.1,108.9,107.3,104.6,107.3,99.3z"/>
			<path class="st4" d="M77.3,107.2L77.3,107.2l1.6-6.8l3.6,23.4v0v0l2.6-13.9l1-5.2l0.5,2.4h8.9c0.2,0.4,0.4,0.9,0.8,1.2
				c0,0,0.1,0.1,0.1,0.1c0.3,0.3,0.7,0.5,1.1,0.7c0.2,0.1,0.3,0.1,0.5,0.1s0.3,0,0.5,0c0.2,0,0.3,0,0.5,0c0.8-0.1,1.6-0.6,2.1-1.3
				c0.1-0.1,0.2-0.3,0.3-0.4c0.1-0.2,0.1-0.3,0.2-0.5c0.3-1,0.1-2.2-0.5-3c-0.1-0.2-0.3-0.3-0.4-0.5c-0.3-0.3-0.7-0.5-1.1-0.6
				c0,0,0,0,0,0c-0.2-0.1-0.4-0.1-0.6-0.1c-0.1,0-0.1,0-0.2,0c-0.1,0-0.2,0-0.2,0c-0.1,0-0.1,0-0.1,0c-0.1,0-0.1,0-0.2,0
				c-0.1,0-0.3,0-0.4,0.1c-0.1,0-0.1,0-0.2,0c-0.2,0.1-0.4,0.1-0.5,0.2c0,0,0,0,0,0c-0.2,0.1-0.3,0.2-0.5,0.3c0,0-0.1,0.1-0.1,0.1
				c-0.1,0.1-0.2,0.2-0.3,0.3c0,0-0.1,0.1-0.1,0.1c-0.1,0.1-0.2,0.2-0.2,0.3c0,0-0.1,0.1-0.1,0.1c-0.1,0.2-0.2,0.3-0.2,0.5h-7.2
				l-1.2-5.5L85.8,94v0l0,0l-0.9,4.9l-2.2,12L81.1,100l-1.7-10.9v0v0l-3.8,16H61.8v0l0,0v2.2L77.3,107.2L77.3,107.2z M99.3,106.7
				C99.3,106.8,99.2,106.8,99.3,106.7c-0.1,0.1-0.2,0.2-0.3,0.2c0,0-0.1,0-0.1,0.1c-0.1,0-0.2,0.1-0.2,0.1c0,0-0.1,0-0.1,0
				c-0.1,0-0.3,0-0.4,0c-0.5-0.2-0.8-0.7-0.7-1.3c0,0,0,0,0,0c0.1-0.4,0.6-0.7,1-0.7c0.1,0,0.2,0,0.3,0.1c0.3,0.1,0.5,0.3,0.6,0.5
				c0.1,0.3,0.1,0.5,0.1,0.8C99.4,106.5,99.4,106.6,99.3,106.7z"/>
		</g>
	</g>
</g>
</svg>
