<svg xmlns="http://www.w3.org/2000/svg" xmlns:xlink="http://www.w3.org/1999/xlink" version="1.1" x="0px" y="0px" viewBox="0 0 160 160" style="enable-background:new 0 0 160 160;" xml:space="preserve" width="160px" height="160px"><g><path d="M9,106.4V80.1c0-3.7,2.6-6.9,6.1-7.6l7.1-2l4.1-1.2c0.5-0.1,0.9-0.6,0.9-1.1v-4.8L27,63.2c-2.1-1.6-3.4-4.1-3.7-6.7   c-0.1-0.9-0.1-1.6-0.2-2h-0.8c-0.8,0-1.5-0.6-1.6-1.3L20,49c-0.2-1.2,0.8-2.3,2-2.3l0.2-7.7c0-4.7,3.9-8.6,8.7-8.6h5.6   c4.8,0,8.7,3.8,8.7,8.6l0.2,7.7c1.2,0,2.2,1.1,2,2.3l-0.6,4c-0.1,0.8-0.8,1.3-1.6,1.3h-0.8c-0.1,0.4-0.1,1.2-0.2,2   c-0.2,2.6-1.6,5.1-3.7,6.7l-0.3,0.2v4.8c0,0.6,0.4,1,0.9,1.1l3.2,0.9c1.8-1.1,3.7-2,5.8-2.4l0.1,0l-6.1-1.7v-0.9   c2.1-2.1,3.4-4.7,3.8-7.5c1.4-0.8,2.5-2.3,2.7-3.9l0.6-4c0.3-1.7-0.2-3.5-1.4-4.8c-0.2-0.2-0.4-0.5-0.6-0.6L49.3,39   c0-6.9-5.7-12.5-12.7-12.5h-5.6c-7,0-12.7,5.6-12.7,12.5l-0.1,5.2c-0.2,0.2-0.4,0.4-0.7,0.7c-1.1,1.3-1.6,3.1-1.4,4.8l0.6,4   c0.3,1.7,1.3,3.1,2.7,4c0.4,2.9,1.8,5.5,3.8,7.5V66l-2.1,0.6l-7,2C8.8,69.8,5,74.6,5,80.1v26.3v2.3l2,1.2l28.6,16.9v-4.6L9,106.4z"/><path d="M145.8,68.7l-9.1-2.6v-0.9c2-2,3.4-4.7,3.8-7.5c1.4-0.8,2.4-2.2,2.7-4l0.6-4c0.3-1.7-0.2-3.5-1.4-4.8   c-0.2-0.2-0.4-0.5-0.6-0.7l-0.1-5.2c0-6.9-5.7-12.5-12.7-12.5h-5.6c-7,0-12.7,5.6-12.7,12.5l-0.1,5.2c-0.2,0.2-0.4,0.4-0.6,0.6   c-1.1,1.3-1.6,3.1-1.4,4.8l0.6,4c0.3,1.7,1.3,3.2,2.7,4c0.4,2.8,1.8,5.5,3.8,7.5v0.9l-2.1,0.6l-3.8,1.1l0,0   c2.1,0.5,4.1,1.3,5.9,2.5l3-0.9c0.5-0.1,0.9-0.6,0.9-1.1v-4.8l-0.3-0.2c-2.1-1.6-3.5-4.1-3.7-6.7c-0.1-0.9-0.2-1.7-0.2-2h-0.8   c-0.8,0-1.5-0.6-1.6-1.3l-0.6-4c-0.2-1.2,0.8-2.3,2-2.3l0.2-7.7c0-4.7,3.9-8.5,8.7-8.5h5.6c4.8,0,8.7,3.8,8.7,8.5l0.2,7.7   c1.2,0,2.2,1.1,2,2.3l-0.6,4c-0.1,0.8-0.8,1.3-1.6,1.3h-0.8c-0.1,0.4-0.1,1.2-0.2,2c-0.2,2.6-1.6,5.1-3.7,6.7l-0.3,0.2v4.8   c0,0.5,0.4,1,0.9,1.1l11.2,3.2c3.6,0.7,6.1,3.9,6.1,7.6v26.3l-26.5,15.6v4.6l28.5-16.8l2-1.2v-2.3V80.2   C155,74.7,151.2,69.9,145.8,68.7z"/><path d="M67.4,30c2.8,0,5.2-1.5,6.5-4l0.1-0.2c2.5,2.6,6,4.1,9.7,4.1h10.9v-3.6l0-0.4H83.7c-3.4,0-6.6-1.9-8.2-4.8l-1.8-3.3   l-3.3,6.3c-0.6,1.1-1.7,1.8-3,1.8h-1.9L65.4,30V30H67.4z"/><path d="M109.1,70.7l-15.3-4.4v-1.2v-2.6c3.4-3.1,5.5-7.3,5.9-11.9c2.1-0.8,3.6-2.7,4-5l1-6.1c0.3-2-0.3-4.1-1.6-5.6   c-0.4-0.5-0.9-0.9-1.4-1.3l-0.2-8.9c0-9.3-7.7-16.9-17.2-16.9h-8.5c-9.5,0-17.2,7.6-17.2,16.9l-0.2,8.9c-0.5,0.4-1,0.8-1.4,1.3   c-1.3,1.5-1.9,3.6-1.6,5.6l1,6.1c0.4,2.3,1.9,4.1,4,4.9c0.4,4.6,2.6,8.8,5.9,11.9v3.8l-4.7,1.3l-10.6,3c-7.2,1.5-12.3,8-12.3,15.4   v39.8v2.3l2,1.2l38,22.5l2.1,1.2l2-1.2l37-22.5l1.9-1.2v-2.3V86.1C121.5,78.7,116.3,72.3,109.1,70.7z M117.5,125.9l-37,22.5   l-38-22.5V86.1c0-5.6,3.9-10.4,9.3-11.5l10.8-3.1l6.2-1.8c0.8-0.2,1.4-0.9,1.4-1.7v-2.5l0.3,0.2c2.1,1.4,4.5,2.2,7,2.2h2v-4h-2   c-1.7,0-3.3-0.5-4.7-1.5l-2.6-1.8v0l-0.4-0.3c-3.2-2.5-5.2-6.2-5.6-10.2c-0.1-1.3-0.2-2.5-0.3-3.1h-1.3c-1.2,0-2.2-0.9-2.4-2   l-1-6.1c-0.3-1.8,1.1-3.5,3-3.5l0.3-11.7c0-7.2,5.9-13,13.2-13h8.5c7.3,0,13.2,5.8,13.2,13l0.3,11.7c1.9,0,3.3,1.6,3,3.5l-1,6.1   c-0.2,1.2-1.2,2-2.4,2h-1.3c-0.1,0.6-0.2,1.8-0.3,3.1c-0.3,4-2.4,7.7-5.6,10.2l-0.4,0.3v4.5v2.9v7.5h4v-5.1l14.3,4.1   c5.4,1.1,9.3,5.9,9.3,11.5V125.9z"/><path d="M80.1,82.7C80.1,82.7,80.1,82.7,80.1,82.7C80.1,82.7,80.1,82.7,80.1,82.7C80,82.7,80,82.7,80.1,82.7c-0.1,0-0.1,0-0.1,0   c-14.2,0-25.7,11.5-25.7,25.7c0,14.2,11.5,25.7,25.7,25.7c0,0,0,0,0,0c0,0,0,0,0,0c0,0,0,0,0,0c14.2,0,25.7-11.5,25.7-25.7   C105.7,94.3,94.2,82.8,80.1,82.7z M101.6,106.4h-6.3C94.9,99.4,92,92.9,87.3,88C95.1,90.7,100.8,97.9,101.6,106.4z M78,88.5v17.9   h-9.3C69.2,99.3,72.6,92.9,78,88.5z M78,110.4v17.9c-5.4-4.4-8.8-10.8-9.3-17.9H78z M82,128.3v-17.9h9.3   C90.8,117.5,87.4,123.9,82,128.3z M82,106.4V88.5c5.4,4.4,8.8,10.8,9.3,17.9H82z M72.7,88c-4.7,4.9-7.6,11.4-8.1,18.5h-6.3   C59.2,97.9,64.9,90.7,72.7,88z M58.4,110.4h6.3c0.5,7.1,3.3,13.5,8.1,18.5C64.9,126.1,59.2,119,58.4,110.4z M87.3,128.9   c4.7-4.9,7.6-11.4,8.1-18.5h6.3C100.8,119,95.1,126.1,87.3,128.9z"/></g></svg>