<?xml version="1.0" encoding="UTF-8"?><svg xmlns="http://www.w3.org/2000/svg" id="Exhibit_631f5f27ee9fe" viewBox="0 0 55.88 50.5" aria-hidden="true" width="55px" height="50px"><defs><linearGradient class="cerosgradient" data-cerosgradient="true" id="CerosGradient_idfd0ca3b6f" gradientUnits="userSpaceOnUse" x1="50%" y1="100%" x2="50%" y2="0%"><stop offset="0%" stop-color="#d1d1d1"/><stop offset="100%" stop-color="#d1d1d1"/></linearGradient><linearGradient/><style>.cls-1-631f5f27ee9fe{fill:none;stroke:#2251ff;stroke-miterlimit:10;}</style></defs><rect class="cls-1-631f5f27ee9fe" x="39.23" y="11.23" width="4.7" height="13.48"/><path class="cls-1-631f5f27ee9fe" d="M41.63,11.23v-3.55c0-1.51-1.24-2.84-2.84-2.84"/><line class="cls-1-631f5f27ee9fe" x1="41.63" y1="29.15" x2="41.63" y2="24.72"/><circle class="cls-1-631f5f27ee9fe" cx="14.13" cy="36.16" r="13.13"/><circle class="cls-1-631f5f27ee9fe" cx="47.75" cy="42.37" r="7.63"/><path class="cls-1-631f5f27ee9fe" d="M.38,24.9c3.28-3.81,8.07-6.21,13.4-6.21,9.76,0,17.65,7.9,17.65,17.65,0,1.77-.27,3.46-.71,5.06h9.49"/><polyline class="cls-1-631f5f27ee9fe" points="53.16 37.05 53.16 21.08 44.02 21.08"/><polyline class="cls-1-631f5f27ee9fe" points="39.23 21.08 32.67 21.08 25.22 .5"/><line class="cls-1-631f5f27ee9fe" x1="8.54" y1=".5" x2="3.75" y2="21.88"/><line class="cls-1-631f5f27ee9fe" x1="5.88" y1=".5" x2="28.06" y2=".5"/><line class="cls-1-631f5f27ee9fe" x1="17.06" y1=".5" x2="17.06" y2="14.87"/><line class="cls-1-631f5f27ee9fe" x1="30.54" y1="14.87" x2="5.44" y2="14.87"/></svg>