<!-- Generator: Adobe Illustrator 25.2.3, SVG Export Plug-In  -->
<svg version="1.1" xmlns="http://www.w3.org/2000/svg" xmlns:xlink="http://www.w3.org/1999/xlink" x="0px" y="0px" width="44px"
	 height="44px" viewBox="0 0 44 44" style="overflow:visible;enable-background:new 0 0 44 44;" xml:space="preserve">
<style type="text/css">
	.st0{fill:#5FB9E4;}
</style>
<defs>
</defs>
<g>
	<path class="st0" d="M14.7,33.6c0,0,0-0.1-0.1-0.1c0,0-0.1-0.1-0.1-0.1c0,0-0.1-0.1-0.1-0.1c0,0-0.1-0.1-0.1-0.1c0,0-0.1,0-0.1,0
		c-0.1,0-0.1,0-0.2,0c-0.1,0-0.1,0-0.2,0c0,0-0.1,0-0.1,0c0,0-0.1,0-0.1,0.1c0,0-0.1,0.1-0.1,0.1c0,0-0.1,0.1-0.1,0.1
		c0,0-0.1,0.1-0.1,0.1c0,0.1,0,0.1,0,0.1c0,0.1,0,0.1,0,0.2s0,0.1,0,0.2c0,0,0,0.1,0,0.1c0,0.1,0,0.1,0.1,0.1c0,0,0.1,0.1,0.1,0.1
		c0,0,0.1,0.1,0.1,0.1c0,0,0.1,0.1,0.1,0.1c0.1,0,0.1,0,0.1,0c0.1,0,0.2,0,0.3,0c0,0,0.1,0,0.1,0c0,0,0.1,0,0.1-0.1
		c0,0,0.1-0.1,0.1-0.1c0,0,0.1-0.1,0.1-0.1c0,0,0.1-0.1,0.1-0.1c0,0,0-0.1,0-0.1c0-0.1,0-0.1,0-0.2s0-0.1,0-0.2v0
		C14.7,33.7,14.7,33.6,14.7,33.6z"/>
	<path class="st0" d="M19.6,29.2L19.6,29.2c-0.6-0.8-2.3-2.5-5.4-2.5c-2.3,0-4.3,1.6-5.3,3.2l0,0h-8c-0.4,0-0.8,0.3-0.8,0.8v10.9
		c0,0.4,0.3,0.8,0.8,0.8h5.1c0.4,0,0.8-0.3,0.8-0.8v-0.8h2.5c0.4,0,0.8-0.3,0.8-0.8v-0.3l0.1,0c1.4,0.1,1.9,0.4,3.2,1.1
		c1,0.6,2.5,1.4,5.2,2.6c0,0,0,0,0,0c0.5,0.2,1.5,0.5,2.7,0.5c1,0,1.9-0.2,2.8-0.6l13.3-4.8c0,0,0,0,0.1,0c1.2-0.6,3.1-2.2,2.2-4.6
		l0,0c-0.8-1.8-2.6-2.5-4.8-1.7l-6.1,1.7l0-0.1c-0.3-1.1-1.2-1.9-2.4-2.3l0-0.1l0,0l0,0l0,0.1L19.6,29.2z M5.1,40.8H1.6v-9.3h3.6
		V40.8z M8.4,39.2H6.7v-7.7h1.7V39.2z M27.2,35.3c-0.1,0.5-0.4,0.8-0.8,1.1c-0.4,0.2-0.9,0.3-1.3,0.2l-7.7-2.4
		c-0.2-0.1-0.4,0-0.6,0.1c-0.2,0.1-0.3,0.3-0.4,0.5c-0.1,0.2,0,0.4,0.1,0.6c0.1,0.2,0.3,0.3,0.5,0.4l7.8,2.5
		c0.8,0.2,1.8,0.1,2.5-0.3c0.8-0.4,1.3-1.1,1.6-2c0-0.1,0-0.1,0.1-0.2l0-0.1l0,0l6.5-1.8c1-0.3,2.2-0.4,2.8,0.9
		c0.6,1.6-1,2.4-1.3,2.6l0,0l-13.3,4.8c0,0,0,0,0,0l0,0c-0.8,0.4-1.5,0.5-2.2,0.5c-1,0-1.7-0.2-2.1-0.4c-2.6-1.2-4-2-5-2.6
		c-1.4-0.8-2.1-1.2-4-1.4l-0.1,0v-7l0,0c0.8-1.4,2.5-2.8,4.2-2.8c3,0,4.2,1.9,4.3,2c0.1,0.2,0.2,0.3,0.4,0.3l6.9,2.3
		C26.8,33.4,27.4,34.4,27.2,35.3z"/>
	<path class="st0" d="M30.7,11.1c0,0,0-0.1-0.1-0.1c0,0-0.1-0.1-0.1-0.1c0,0-0.1-0.1-0.1-0.1c0,0-0.1-0.1-0.1-0.1
		c-0.1,0-0.1,0-0.1,0c-0.1,0-0.1,0-0.2,0c-0.1,0-0.1,0-0.2,0c0,0-0.1,0-0.1,0c0,0-0.1,0-0.1,0.1c0,0-0.1,0.1-0.1,0.1
		c0,0-0.1,0.1-0.1,0.1c0,0-0.1,0.1-0.1,0.1c0,0.1,0,0.1,0,0.1c0,0.1,0,0.1,0,0.2s0,0.1,0,0.2c0,0,0,0.1,0,0.1c0,0,0,0.1,0.1,0.1
		c0,0,0.1,0.1,0.1,0.1c0,0,0.1,0.1,0.1,0.1c0,0,0.1,0.1,0.1,0.1c0,0,0.1,0,0.1,0c0.1,0,0.2,0,0.3,0c0,0,0.1,0,0.1,0
		c0,0,0.1,0,0.1-0.1c0,0,0.1-0.1,0.1-0.1c0,0,0.1-0.1,0.1-0.1c0,0,0.1-0.1,0.1-0.1c0,0,0-0.1,0-0.1c0,0,0-0.1,0-0.2s0-0.1,0-0.2v0
		C30.8,11.2,30.8,11.2,30.7,11.1z"/>
	<path class="st0" d="M43.2,2.9h-5.1c-0.4,0-0.8,0.3-0.8,0.8v0.8h-2.5c-0.4,0-0.8,0.3-0.8,0.8v0.3l-0.1,0c-1.4-0.1-1.9-0.4-3.2-1.1
		c-1-0.6-2.5-1.4-5.2-2.6l0,0c-0.9-0.3-3.1-1-5.6,0.1l-3.5,1.3l0,0l-2.9-2.9C13.3,0.1,13.1,0,12.9,0c-0.2,0-0.4,0.1-0.5,0.2L2.8,9.8
		c-0.3,0.3-0.3,0.8,0,1.1l16.4,16.4c0.1,0.1,0.3,0.2,0.6,0.2c0.2,0,0.4-0.1,0.5-0.2l8.8-8.8l0,0c0.2,0,0.5,0,0.7,0
		c2.3,0,4.3-1.6,5.3-3.2l0,0h8c0.4,0,0.8-0.3,0.8-0.8V3.7C44,3.3,43.6,2.9,43.2,2.9z M10.9,3.9l2-2L13,1.9l2,2L14.9,4
		c-0.6,0.4-1.3,0.6-2,0.6c-0.7,0-1.4-0.2-2-0.6L10.9,3.9L10.9,3.9z M6.6,12.4L6.6,12.4l-0.1,0l-2-2l0.1-0.1l2-2l0.1,0.1
		C7,9,7.2,9.7,7.2,10.4C7.2,11.1,7,11.8,6.6,12.4z M19.7,25.7L19.7,25.7l-2.1-2.1l0.1-0.1c1.2-0.8,2.8-0.8,4,0l0.1,0.1L19.7,25.7z
		 M25,20.4l-2,2l-0.1,0c-1.9-1.4-4.4-1.4-6.3,0l-0.1,0l-0.1-0.1l-8.8-8.8l0-0.1c0.7-0.9,1-2,1-3.2c0-1.1-0.4-2.2-1-3.2l0-0.1
		l0.1-0.1l2-2l0.1,0c0.9,0.7,2,1,3.2,1s2.2-0.4,3.2-1l0.1,0l0.1,0.1l2,2l-0.2,0c-0.4,0.1-0.8,0.2-1.1,0.4c-0.6,0.3-1.1,0.8-1.4,1.4
		l0,0l0,0c-1,0.2-1.8,0.6-2.5,1.3c-1.9,1.9-1.9,4.9,0,6.8c0.9,0.9,2.1,1.4,3.4,1.4s2.5-0.5,3.4-1.4c0.6-0.6,1-1.4,1.3-2.2l0-0.1
		l3.1,1l0,0.1c-0.3,1.5,0,3.1,0.9,4.3L25,20.4L25,20.4z M17.7,13.8L17.7,13.8l1.8,0.6l0,0.1c-0.1,0.6-0.4,1.2-0.9,1.6
		c-0.6,0.6-1.5,1-2.3,1c-0.8,0-1.7-0.3-2.3-1c-1.3-1.3-1.3-3.4,0-4.6c0.3-0.3,0.7-0.5,1.1-0.7l0.1,0l0,0.1
		C15.4,12.1,16.3,13.3,17.7,13.8z M26.1,19.3L26.1,19.3c-0.4-0.6-0.6-1.3-0.6-1.9l0-0.2l0.1,0.1c0.5,0.3,1,0.6,1.5,0.8l0.1,0
		L26.1,19.3z M34,14.2L34,14.2c-0.8,1.4-2.5,2.8-4.2,2.8c-0.3,0-0.6,0-0.9-0.1l0,0c-1.9-0.3-2.9-1.3-3.2-1.8c0,0,0-0.1-0.1-0.1
		l0-0.1c-0.1-0.2-0.3-0.3-0.4-0.4l-6.9-2.3c-1.1-0.4-1.7-1.4-1.5-2.4l0,0c0.1-0.4,0.4-0.8,0.8-1c0.4-0.2,0.9-0.3,1.3-0.2l7.7,2.4
		c0.2,0.1,0.4,0,0.6-0.1c0.2-0.1,0.3-0.3,0.4-0.5c0.1-0.2,0-0.4-0.1-0.6c-0.1-0.2-0.3-0.3-0.5-0.4l-6.2-2l-0.1-0.1l-3.3-3.3l0.1,0
		l2.7-1l0.1,0.1v0l0-0.1l0.1,0C22.5,2.5,24.3,3,25,3.3c2.6,1.2,4,2,5,2.6c1.4,0.8,2.1,1.2,4,1.4l0.1,0V14.2z M37.3,13.8h-1.7V6.1
		h1.7V13.8z M42.4,13.8h-3.6V4.5h3.6V13.8z"/>
</g>
</svg>
