<svg xmlns="http://www.w3.org/2000/svg" xmlns:xlink="http://www.w3.org/1999/xlink" version="1.1" x="0px" y="0px" viewBox="0 0 100 100" enable-background="new 0 0 100 100" xml:space="preserve" width="100px" height="100px"><path d="M26.484,13.458c2.983,2.457,7.566,11.883,7.612,11.978L34.37,26h17.507h0.691l0.244-0.646  c0.032-0.087,3.328-8.709,7.542-11.869c2.195-1.646,2.96-3.108,2.274-4.347c-0.837-1.508-3.451-1.485-5.485-0.699l-0.179,0.068  c-2.954,1.144-5.013,1.774-6.631,0.153c-2.621-2.621-7.157-4.028-11.383-1.263c-2.91,1.903-5.789,1.56-8.221,0.974  c-2.837-0.688-5.133-0.206-5.846,1.224C24.549,10.269,24.31,11.667,26.484,13.458z M26.675,10.487  c0.136-0.272,1.36-0.71,3.586-0.173c1.725,0.418,5.758,1.391,9.786-1.243c3.512-2.297,6.974-0.895,8.873,1.003  c2.659,2.662,6.046,1.352,8.768,0.298l0.177-0.068c1.55-0.598,2.824-0.396,2.995-0.261c0,0.006-0.052,0.602-1.704,1.842  c-4.009,3.006-7.071,9.947-7.957,12.115H35.619c-1.074-2.151-4.967-9.699-7.863-12.085C26.706,11.05,26.644,10.55,26.675,10.487z   M39.036,22.266C39.158,22.709,39.561,23,39.999,23c0.089,0,0.178-0.012,0.267-0.036c0.533-0.146,0.846-0.697,0.698-1.229  c-0.687-2.489-2.019-5.084-2.075-5.193c-0.254-0.49-0.854-0.683-1.348-0.43c-0.49,0.253-0.683,0.856-0.43,1.348  C37.124,17.483,38.404,19.976,39.036,22.266z M46.862,22.99c0.047,0.007,0.093,0.01,0.139,0.01c0.491,0,0.92-0.362,0.989-0.862  c0.294-2.114,1.388-4.824,1.867-5.623c0.284-0.474,0.131-1.088-0.343-1.372s-1.088-0.131-1.372,0.343  c-0.583,0.971-1.794,3.933-2.133,6.377C45.934,22.409,46.315,22.914,46.862,22.99z M94,90c0-1.105-0.895-2-2-2H75  c-1.105,0-2,0.895-2,2v2c0,1.105,0.895,2,2,2h17c1.105,0,2-0.895,2-2V90z M92,92H75v-2h17V92z M94,62c0-1.105-0.895-2-2-2H75  c-1.105,0-2,0.895-2,2v2c0,1.105,0.895,2,2,2h17c1.105,0,2-0.895,2-2V62z M92,64H75v-2h17V64z M94,69c0-1.105-0.895-2-2-2H75  c-1.105,0-2,0.895-2,2v2c0,1.105,0.895,2,2,2h17c1.105,0,2-0.895,2-2V69z M92,71H75v-2h17V71z M94,76c0-1.105-0.895-2-2-2H75  c-1.105,0-2,0.895-2,2v2c0,1.105,0.895,2,2,2h17c1.105,0,2-0.895,2-2V76z M92,78H75v-2h17V78z M94,83c0-1.105-0.895-2-2-2H75  c-1.105,0-2,0.895-2,2v2c0,1.105,0.895,2,2,2h17c1.105,0,2-0.895,2-2V83z M92,85H75v-2h17V85z M72,69c0-1.105-0.895-2-2-2H53  c-1.105,0-2,0.895-2,2v2c0,1.105,0.895,2,2,2h17c1.105,0,2-0.895,2-2V69z M70,71H53v-2h17V71z M72,76c0-1.105-0.895-2-2-2H53  c-1.105,0-2,0.895-2,2v2c0,1.105,0.895,2,2,2h17c1.105,0,2-0.895,2-2V76z M70,78H53v-2h17V78z M72,83c0-1.105-0.895-2-2-2H53  c-1.105,0-2,0.895-2,2v2c0,1.105,0.895,2,2,2h17c1.105,0,2-0.895,2-2V83z M70,85H53v-2h17V85z M92,53H77.935  C73.456,40,64.84,32.052,52.294,28.195L35,28.076l-0.268-0.002C21.468,31.756,11.524,43.379,8.133,59.2  c-1.998,9.329-0.791,16.795,3.586,22.208c5.635,6.969,16.594,10.497,32.38,10.497c2.325,0,4.901-0.124,6.901-0.345V92  c0,1.103,0.699,2,1.802,2H70c1.103,0,2-0.897,2-2v-2c0-1.103-0.897-2-2-2H52.802c-0.927,0-1.698,0.958-1.716,1.749  C48.805,89.999,46.432,90.02,44,90.02c-15.152,0-25.49-3.343-30.726-9.82C9.295,75.28,8.224,68.339,10.088,59.63  C13.31,44.603,22.669,33.519,35.138,30h16.711c11.605,3.608,19.65,11,23.954,23H75c-1.103,0-2,0.595-2,1.697v2.478  C73,58.277,73.897,59,75,59h17c1.103,0,2-0.723,2-1.825v-2.478C94,53.595,93.103,53,92,53z M70,92H53v-2h17V92z M92,57H75v-2h17V57z  "/></svg>