<!-- Generator: Adobe Illustrator 25.2.0, SVG Export Plug-In  -->
<svg version="1.1" xmlns="http://www.w3.org/2000/svg" xmlns:xlink="http://www.w3.org/1999/xlink" x="0px" y="0px" width="251.1px"
	 height="208.2px" viewBox="0 0 251.1 208.2" style="overflow:visible;enable-background:new 0 0 251.1 208.2;"
	 xml:space="preserve">
<style type="text/css">
	.st0{fill:none;stroke:#E6E6E6;stroke-width:2;stroke-miterlimit:10;}
</style>
<defs>
</defs>
<g>
	<polyline class="st0" points="100.5,90.9 100.5,1 151.4,1 151.4,90.9 	"/>
	<line class="st0" x1="68.9" y1="27.7" x2="68.9" y2="77.4"/>
	<path class="st0" d="M151,14.5c8.6,2.1,16.8,5.3,24.2,9.4c17.2,8.6,32.4,21.3,43.1,37.4c5.7,8.2,10.3,17.7,13.1,27.1
		c1.6,5.3,2.9,11.1,3.7,16.8c1.2,7,0.4,14.4,2.5,21.3c1.2,4.5,3.3,8.2,7,11.1c5.7,4.5,5.7,12.7,5.3,19.7c-0.4,2.5-0.8,4.9-1.2,7.4
		c-0.8,3.7-3.3,3.3-6.6,3.7s-7.4,0.8-11.1,1.6c-6.2,1.2-12.3,2.9-18.1,5.3c-10.3,4.1-16.4,13.5-25.9,18.9
		c-10.7,6.2-22.6,10.3-34.9,11.5c-8.6,0.8-17.2,1.2-26.3,1.2c-9,0.4-17.7,0-26.7-1.2c-12.3-1.6-24.2-5.3-34.9-11.5
		c-9.4-5.7-16-14.8-25.9-18.9c-5.7-2.5-11.9-4.1-18.1-5.3c-3.7-0.8-7.4-1.2-11.1-1.6s-6.2,0.4-7-3.3c-0.4-2.5-0.8-4.9-1.2-7.4
		c-0.4-7-0.4-15.2,5.3-19.7c3.3-2.9,5.7-7,7-11.1c2.1-7.4,1.2-14.4,2.5-21.3c0.8-5.7,2.1-11.1,3.7-16.8C22.5,79,27,70,32.8,61.8
		c11.1-16,25.9-28.7,43.1-37.4c7.8-4.1,16-7.4,24.2-9.4"/>
	<line class="st0" x1="182.2" y1="27.7" x2="182.2" y2="77.4"/>
	<path class="st0" d="M38.9,148.4c57.5,20.5,120.3,21.3,178.6,2.5"/>
</g>
</svg>
