<!-- Generator: Adobe Illustrator 25.2.0, SVG Export Plug-In  -->
<svg version="1.1" xmlns="http://www.w3.org/2000/svg" xmlns:xlink="http://www.w3.org/1999/xlink" x="0px" y="0px" width="65.9px"
	 height="65.9px" viewBox="0 0 65.9 65.9" style="overflow:visible;enable-background:new 0 0 65.9 65.9;" xml:space="preserve">
<style type="text/css">
	.st0{fill:#4BBBEB;}
	.st1{fill:#132F3B;}
</style>
<defs>
</defs>
<g>
	<path class="st0" d="M61.3,65.9H4.5c-2.5,0-4.5-2-4.5-4.5V4.5C0,2,2,0,4.5,0h56.8c2.5,0,4.5,2,4.5,4.5v56.8
		C65.9,63.8,63.8,65.9,61.3,65.9z"/>
	<g>
		<path class="st1" d="M38.7,36.5C38.7,36.5,38.7,36.5,38.7,36.5c0-0.1,0.1-0.2,0.3-0.3c0.2-0.2,0.4-0.3,0.5-0.5
			c0.4-0.5,0.3-1.1-0.2-1.5c-0.5-0.4-1.1-0.3-1.5,0.1c-0.1,0.1-0.2,0.2-0.3,0.3c-0.6,0.4-1,1.1-1.1,1.8c0,0.4,0.1,0.8,0.3,1.1
			c0.8,1.6,1.7,3.2,2.8,4.6c0.1,0.1,0.2,0.3,0.3,0.4c0,0-0.1,0-0.1,0.1c-0.1,0.1-0.3,0.2-0.4,0.2c-0.8,0.3-1.4,0.9-1.7,1.7
			c-0.1,0.6,0,1.1,0.2,1.6c0.1,0.2,0.1,0.3,0.2,0.4c-0.1,0.1-0.3,0.2-0.4,0.3c-0.2,0.2-0.4,0.4-0.4,0.7c0,0.3,0,0.5,0.2,0.7
			c-0.5,0.3-0.9,0.8-1,1.4c-0.1,0.5-0.1,1,0.1,1.5c0.1,0.4,0.1,0.8-0.1,1.2c-0.1,0.3-0.4,0.5-0.7,0.5c-1.7-0.4-3.5-1-5.2-1.6
			c-0.6-0.2-1.1-0.4-1.6-0.5l-0.2-0.1c-0.4-0.1-0.7-0.2-0.8-0.3c-2.5-0.8-2.7-1.6-2.7-1.9c0-0.3-0.1-0.6-0.3-0.8
			c-0.2-0.2-0.5-0.3-0.8-0.3c-0.3,0-0.6,0.1-0.8,0.3c-0.2,0.2-0.3,0.5-0.3,0.8c0,1.8,1.4,3.1,4.2,4c0.1,0,0.4,0.1,0.7,0.3l0,0
			c-0.7,1-1.3,2-1.7,3.2l-12.6,0c0.9-1.9,1.5-3.9,1.7-6.1c0.3-2.1-0.1-4.3-0.9-6.2c-0.5-1-1.1-2-1.8-2.9c-1.2-1.6-2.2-3-2.3-5.6
			c0-1.6,0.2-3.1,0.6-4.7c1.4-4.8,6.9-6.5,8.5-6.9c0.4-0.1,0.8-0.2,1.1-0.2c0.6-0.1,1-0.7,0.9-1.2c-0.1-0.6-0.7-1-1.2-0.9
			c-0.4,0.1-0.9,0.2-1.3,0.3C13.9,22.9,10.1,26,9,30c-0.5,1.7-0.7,3.5-0.7,5.3c0,3.3,1.5,5.2,2.7,6.9c0.6,0.8,1.1,1.6,1.5,2.4
			c0.7,1.6,1,3.4,0.8,5.1c-0.2,2-0.7,3.9-1.6,5.6c-0.3,0.6-0.3,1.3,0,1.9c0.3,0.6,1,0.9,1.6,0.9c0,0,0,0,0,0h13.2
			c0.8,0,1.6-0.5,1.8-1.3c0.3-1.2,1-2.4,1.9-3.2c1.6,0.6,3.3,1.1,4.9,1.5c0.2,0,0.4,0.1,0.6,0.1c1.2,0,2.3-0.8,2.6-2
			c0.3-0.8,0.3-1.7,0.1-2.5c-0.1-0.1-0.1-0.3-0.1-0.4c0,0,0.2-0.2,0.3-0.2c0.2-0.1,0.3-0.2,0.5-0.3c0.3-0.2,0.5-0.5,0.6-0.9
			c0-0.3,0-0.5-0.1-0.8c0.1-0.1,0.2-0.2,0.3-0.2c0.9-0.7,0.3-1.8,0.1-2.2c-0.1-0.1-0.2-0.3-0.2-0.4c0-0.1,0-0.1,0-0.2
			c0.1-0.1,0.3-0.2,0.5-0.3c0.2-0.1,0.5-0.3,0.7-0.4c0.6-0.3,1-0.9,1.1-1.5c0-0.8-0.4-1.6-0.9-2.1C40.3,39.5,39.4,38,38.7,36.5z"/>
		<path class="st1" d="M26.1,40.7c2,0,3.6-1.6,3.6-3.6s-1.6-3.6-3.6-3.6c-2,0-3.6,1.6-3.6,3.6S24.1,40.7,26.1,40.7z M24.7,37.1
			c0-0.8,0.6-1.4,1.4-1.4s1.4,0.6,1.4,1.4s-0.6,1.4-1.4,1.4S24.7,37.9,24.7,37.1z"/>
		<path class="st1" d="M19.4,36.8c-1.5,0-2.8,1.2-2.8,2.8c0,1.5,1.2,2.8,2.8,2.8s2.8-1.2,2.8-2.8C22.2,38.1,21,36.8,19.4,36.8z
			 M20,39.6c0,0.3-0.3,0.6-0.6,0.6s-0.6-0.3-0.6-0.6c0-0.3,0.3-0.6,0.6-0.6S20,39.3,20,39.6z"/>
		<path class="st1" d="M53.8,16c0-0.1,0-0.2,0-0.3c-0.3-2.6-1.9-4.8-4.3-5.9c-2.3-1.1-4.9-0.9-7.1,0.4c-1.9-1.9-4.6-2.8-7.2-2.5
			c-3.4,0.4-6.2,2.8-7.2,6c-2.5,0.4-4.5,2.3-5.2,4.7c-0.7,2.5,0.2,5.1,2.1,6.7c0,0.6,0,1.1,0,1.7c0.3,2.1,1.4,4,3,5.3
			c1.4,1.1,3.1,1.7,4.9,1.7c0.3,0,0.7,0,1-0.1c1.4-0.2,2.7-0.7,3.8-1.6c3.9,2.2,9,1.2,11.8-2.3c1,0.4,2.1,0.5,3.2,0.3
			c3.4-0.4,6.1-3.2,6.3-6.7C59.1,20.1,57,17,53.8,16z M26.6,23.7c-1.5-1-2.2-2.8-1.8-4.6c0.4-1.8,1.9-3.1,3.7-3.3c0.1,0,0.2,0,0.3,0
			c0.5,0,0.9-0.4,1-0.9c0.6-2.7,2.8-4.7,5.5-5.1c0.3,0,0.5,0,0.8,0c2,0,3.9,0.9,5.2,2.5c0.2,0.2,0.4,0.4,0.7,0.4
			c0.3,0,0.6-0.1,0.8-0.2c1.5-1.2,3.6-1.5,5.4-0.8c1.8,0.7,3.1,2.4,3.3,4.3c0,0.3,0,0.6,0,0.8c0,0.5,0.4,1,0.9,1.1
			c2.5,0.4,4.3,2.6,4.2,5.1c0,2.5-1.9,4.6-4.3,4.9l0,0l-0.1,0c-1,0.1-2,0-2.8-0.5c-0.5-0.2-1.1-0.1-1.4,0.4c-1,1.6-2.7,2.7-4.6,3.1
			c-1.9,0.4-3.8,0-5.4-1.1c-0.4-0.3-1-0.2-1.4,0.1c-0.9,0.8-2,1.4-3.2,1.5c-3.2,0.4-6.1-1.9-6.5-5c-0.1-0.6-0.1-1.1,0-1.7
			C27.2,24.4,27,23.9,26.6,23.7z"/>
		<path class="st1" d="M33.7,26.9c3.1,0,5.6-2.5,5.6-5.6c0-3.1-2.5-5.6-5.6-5.6s-5.6,2.5-5.6,5.6C28.1,24.4,30.6,26.9,33.7,26.9z
			 M33.7,17.2c2.3,0,4.1,1.8,4.1,4.1c0,2.3-1.8,4.1-4.1,4.1s-4.1-1.8-4.1-4.1C29.6,19.1,31.5,17.2,33.7,17.2z"/>
		<path class="st1" d="M31.6,22.7c0,0.2,0.1,0.4,0.2,0.6c0.2,0.2,0.4,0.2,0.6,0.2h0c0.2,0,0.4-0.1,0.6-0.2l0.8-0.8l0.8,0.8
			c0.3,0.3,0.9,0.3,1.2,0c0.2-0.2,0.2-0.4,0.2-0.6s-0.1-0.4-0.2-0.6l-0.8-0.8l0.8-0.8c0.2-0.2,0.2-0.4,0.2-0.6
			c0-0.2-0.1-0.4-0.2-0.6c-0.3-0.3-0.8-0.3-1.2,0l-0.8,0.8L33,19.4c-0.3-0.3-0.8-0.3-1.2,0c-0.2,0.2-0.2,0.4-0.2,0.6
			c0,0.2,0.1,0.4,0.2,0.6l0.8,0.8l-0.8,0.8C31.6,22.3,31.6,22.5,31.6,22.7z"/>
		<path class="st1" d="M44.8,23.2c0.2,0.2,0.4,0.2,0.6,0.2s0.4-0.1,0.6-0.2l2.6-2.6c0.2-0.2,0.2-0.4,0.2-0.6c0-0.2-0.1-0.4-0.2-0.6
			c-0.3-0.3-0.9-0.3-1.2,0l-2.1,2.1l-0.8-0.8c-0.3-0.3-0.8-0.3-1.2,0c-0.3,0.3-0.3,0.8,0,1.2L44.8,23.2z"/>
		<path class="st1" d="M46,26.9c3.1,0,5.6-2.5,5.6-5.6s-2.5-5.6-5.6-5.6s-5.6,2.5-5.6,5.6S43,26.9,46,26.9z M46,17.2
			c2.3,0,4.1,1.8,4.1,4.1s-1.8,4.1-4.1,4.1s-4.1-1.8-4.1-4.1S43.8,17.2,46,17.2z"/>
	</g>
</g>
</svg>
