<?xml version="1.0" encoding="UTF-8"?><svg xmlns="http://www.w3.org/2000/svg" id="Text63ed48fd94bc7" viewBox="0 0 64.38 69.63" aria-hidden="true" width="64px" height="69px"><defs><linearGradient class="cerosgradient" data-cerosgradient="true" id="CerosGradient_idcdaf6251c" gradientUnits="userSpaceOnUse" x1="50%" y1="100%" x2="50%" y2="0%"><stop offset="0%" stop-color="#d1d1d1"/><stop offset="100%" stop-color="#d1d1d1"/></linearGradient><linearGradient/><style>.cls-1-63ed48fd94bc7{fill:none;stroke:#051c2c;stroke-miterlimit:10;}</style></defs><path class="cls-1-63ed48fd94bc7" d="m53.45,42.72c5.93-.51,10.43-5.52,10.43-11.55s-4.6-11.04-10.63-11.65C52.23,8.88,43.23.5,32.19.5,22.68.5,14.61,6.84,12.05,15.53,5.51,16.55.5,22.17.5,29.02s5.62,13.19,12.68,13.7h40.28Z"/><g><g><line class="cls-1-63ed48fd94bc7" x1="31.68" y1="52.18" x2="31.68" y2="68.92"/><polyline class="cls-1-63ed48fd94bc7" points="38.09 62.45 31.68 68.92 25.27 62.45"/></g><g><line class="cls-1-63ed48fd94bc7" x1="51.1" y1="46.05" x2="51.1" y2="62.79"/><polyline class="cls-1-63ed48fd94bc7" points="57.51 56.32 51.1 62.79 44.69 56.32"/></g><g><line class="cls-1-63ed48fd94bc7" x1="13.28" y1="46.05" x2="13.28" y2="62.79"/><polyline class="cls-1-63ed48fd94bc7" points="19.69 56.32 13.28 62.79 6.87 56.32"/></g></g></svg>