<!-- Generator: Adobe Illustrator 25.0.1, SVG Export Plug-In  -->
<svg version="1.1" xmlns="http://www.w3.org/2000/svg" xmlns:xlink="http://www.w3.org/1999/xlink" x="0px" y="0px" width="182.6px"
	 height="182.6px" viewBox="0 0 182.6 182.6" style="overflow:visible;enable-background:new 0 0 182.6 182.6;"
	 xml:space="preserve">
<style type="text/css">
	.st0{fill:#FFFFFF;}
</style>
<defs>
</defs>
<g>
	<path class="st0" d="M40.7,26.1c-1,0-1.9-0.4-2.5-1.3c-1-1.4-0.7-3.4,0.7-4.4C54.1,9.1,72.2,3.1,91.2,3.1c17.3,0,34.5,5,47.3,13.5
		V3.1c0-1.7,1.4-3.1,3.1-3.1s3.1,1.4,3.1,3.1v19.8c0,1.2-0.7,2.3-1.8,2.8c-1.1,0.5-2.4,0.3-3.3-0.4c-12-10-30.1-15.9-48.5-15.9
		c-17.6,0-34.4,5.5-48.6,16C42,25.9,41.3,26.1,40.7,26.1z"/>
	<path class="st0" d="M23,145c-1,0-1.9-0.4-2.5-1.3C9.1,128.5,3.1,110.4,3.1,91.4c0-17.3,5-34.5,13.5-47.3H3.1
		c-1.7,0-3.1-1.4-3.1-3.1c0-1.7,1.4-3.1,3.1-3.1h19.8c1.2,0,2.3,0.7,2.8,1.8c0.5,1.1,0.4,2.4-0.4,3.3c-10,12-15.9,30.1-15.9,48.5
		c0,17.6,5.5,34.4,16,48.6c1,1.4,0.7,3.4-0.7,4.4C24.3,144.8,23.6,145,23,145z"/>
	<path class="st0" d="M40.9,182.6c-1.7,0-3.1-1.4-3.1-3.1v-19.8c0-1.2,0.7-2.3,1.8-2.8c1.1-0.5,2.4-0.3,3.3,0.4
		c12,10,30.1,15.9,48.5,15.9c17.6,0,34.4-5.5,48.6-16c1.4-1,3.4-0.7,4.4,0.7c1,1.4,0.7,3.4-0.7,4.4c-15.3,11.3-33.4,17.3-52.4,17.3
		c-17.3,0-34.5-5-47.3-13.5v13.5C44.1,181.2,42.7,182.6,40.9,182.6z"/>
	<path class="st0" d="M179.4,144.8h-19.8c-1.2,0-2.3-0.7-2.8-1.8s-0.4-2.4,0.4-3.3c10-12,15.9-30.1,15.9-48.5
		c0-17.6-5.5-34.4-16-48.6c-1-1.4-0.7-3.4,0.7-4.4c1.4-1,3.4-0.7,4.4,0.7c11.3,15.3,17.3,33.4,17.3,52.4c0,17.3-5,34.5-13.5,47.3
		h13.5c1.7,0,3.1,1.4,3.1,3.1S181.2,144.8,179.4,144.8z"/>
</g>
</svg>
