<!-- Generator: Adobe Illustrator 25.1.0, SVG Export Plug-In  -->
<svg version="1.1" xmlns="http://www.w3.org/2000/svg" xmlns:xlink="http://www.w3.org/1999/xlink" x="0px" y="0px" width="14.3px"
	 height="10px" viewBox="0 0 14.3 10" style="overflow:visible;enable-background:new 0 0 14.3 10;" xml:space="preserve">
<style type="text/css">
	.st0{fill:#E11B22;}
</style>
<defs>
</defs>
<g>
	<path class="st0" d="M14.1,0.2c-0.3-0.3-0.8-0.3-1,0l-8,8L1.3,4.3C1,4,0.5,4,0.2,4.3c-0.3,0.3-0.3,0.8,0,1l4.3,4.3c0,0,0,0,0,0
		c0,0,0,0,0,0C4.7,9.9,4.9,10,5.1,10s0.4-0.1,0.5-0.2l8.5-8.5C14.4,1,14.4,0.5,14.1,0.2z"/>
</g>
</svg>
