<!-- Generator: Adobe Illustrator 25.2.0, SVG Export Plug-In  -->
<svg version="1.1" xmlns="http://www.w3.org/2000/svg" xmlns:xlink="http://www.w3.org/1999/xlink" x="0px" y="0px" width="65.9px"
	 height="65.9px" viewBox="0 0 65.9 65.9" style="overflow:visible;enable-background:new 0 0 65.9 65.9;" xml:space="preserve">
<style type="text/css">
	.st0{fill:#4BBBEB;}
	.st1{fill:#132F3B;}
</style>
<defs>
</defs>
<g>
	<path class="st0" d="M61.3,65.9H4.5c-2.5,0-4.5-2-4.5-4.5V4.5C0,2,2,0,4.5,0h56.8c2.5,0,4.5,2,4.5,4.5v56.8
		C65.9,63.8,63.8,65.9,61.3,65.9z"/>
	<g>
		<path class="st1" d="M56.9,26.1c0-3.5-1.1-6.7-3-9.1c-0.4-0.5-0.9-1.1-1.4-1.5c-0.4-0.4-0.8-0.7-1.3-1c-0.3-0.2-0.6-0.4-0.9-0.6
			c-0.4-0.2-0.8-0.5-1.3-0.7c0,0,0,0,0,0c-0.3-0.2-0.7-0.3-1-0.4c-0.4-0.1-0.7-0.3-1.1-0.4c-0.1,0-0.2-0.1-0.4-0.1
			c-0.3-0.1-0.5-0.1-0.8-0.2c-0.1,0-0.3,0-0.4-0.1c-0.3,0-0.5-0.1-0.8-0.1c-0.1,0-0.3,0-0.4,0c-0.3,0-0.6,0-0.9,0
			c-0.1,0-0.1,0-0.2,0c0,0,0,0,0,0c-0.4,0-0.8,0-1.2,0.1c-0.1,0-0.2,0-0.3,0c-0.3,0-0.6,0.1-0.9,0.1c-0.1,0-0.2,0-0.3,0.1
			c-0.4,0.1-0.8,0.2-1.2,0.3c-0.1,0-0.1,0-0.1,0.1c-0.3,0.1-0.7,0.2-1,0.4c-0.1,0-0.2,0.1-0.3,0.1c-0.3,0.1-0.6,0.3-0.9,0.4
			c-0.1,0-0.2,0.1-0.2,0.1c-0.4,0.2-0.7,0.4-1.1,0.6c-0.1,0.1-0.2,0.1-0.3,0.2c-0.3,0.2-0.5,0.4-0.8,0.6c-0.1,0.1-0.2,0.2-0.3,0.2
			c-0.3,0.3-0.7,0.6-1,0.9c0,0,0,0,0,0c-0.3-0.3-0.6-0.6-1-0.9c-0.1-0.1-0.2-0.2-0.3-0.2c-0.3-0.2-0.5-0.4-0.8-0.6
			c-0.1-0.1-0.2-0.1-0.3-0.2c-0.4-0.2-0.7-0.4-1.1-0.6c-0.1,0-0.2-0.1-0.2-0.1c-0.3-0.2-0.6-0.3-0.9-0.4c-0.1,0-0.2-0.1-0.3-0.1
			c-0.3-0.1-0.7-0.3-1-0.4c0,0-0.1,0-0.1,0c-0.4-0.1-0.8-0.2-1.2-0.3c-0.1,0-0.2,0-0.3-0.1c-0.3-0.1-0.6-0.1-0.9-0.1
			c-0.1,0-0.2,0-0.3,0c-0.4,0-0.8-0.1-1.2-0.1c0,0,0,0,0,0c-0.1,0-0.1,0-0.2,0c-0.3,0-0.6,0-0.9,0c-0.1,0-0.3,0-0.4,0
			c-0.3,0-0.5,0.1-0.8,0.1c-0.1,0-0.3,0-0.4,0.1c-0.3,0.1-0.5,0.1-0.8,0.2c-0.1,0-0.2,0.1-0.4,0.1c-0.4,0.1-0.7,0.2-1.1,0.4
			c-1.7,0.6-3.2,1.6-4.5,2.8c-0.5,0.5-1,1-1.4,1.5c-1.3,1.6-2.2,3.6-2.7,5.8C9.1,23.8,9,25,9,26.1c0,0.7,0,1.3,0.1,2
			s0.2,1.3,0.3,1.9l0,0l0,0l2.1-0.5c-0.1-0.5-0.2-0.9-0.2-1.4c-0.1-0.7-0.1-1.3-0.1-2c0-4.3,1.9-8,5.1-10.2c0.7-0.5,1.6-0.9,2.4-1.2
			c0.3-0.1,0.6-0.2,1-0.3c0.1,0,0.2-0.1,0.3-0.1c0.2-0.1,0.4-0.1,0.7-0.1c0.1,0,0.3,0,0.4-0.1c0.2,0,0.4-0.1,0.6-0.1
			c0.1,0,0.3,0,0.4,0c0.2,0,0.4,0,0.6,0c0.1,0,0.2,0,0.4,0c0.4,0,0.8,0,1.1,0.1c0,0,0,0,0,0c0.4,0,0.8,0.1,1.1,0.2
			c0.1,0,0.2,0,0.3,0.1c0.3,0.1,0.6,0.2,0.9,0.3c0.1,0,0.1,0,0.2,0.1c0.4,0.1,0.7,0.3,1.1,0.4c0.1,0,0.2,0.1,0.3,0.1
			c0.3,0.1,0.6,0.3,0.8,0.4c0.1,0,0.2,0.1,0.3,0.1c0.3,0.2,0.7,0.4,1,0.7c0.1,0,0.1,0.1,0.2,0.1c0.3,0.2,0.5,0.4,0.8,0.7
			c0.1,0.1,0.2,0.1,0.2,0.2c0.3,0.3,0.6,0.6,0.9,0.9l0.5,0.6l0.3,0.3v0v0l0.8-0.9c0.3-0.3,0.6-0.6,0.9-0.9c0.1-0.1,0.2-0.2,0.2-0.2
			c0.3-0.2,0.5-0.4,0.8-0.7c0.1,0,0.1-0.1,0.2-0.1c0.3-0.2,0.6-0.5,1-0.7c0.1,0,0.2-0.1,0.2-0.1c0.3-0.2,0.6-0.3,0.8-0.4
			c0.1,0,0.2-0.1,0.3-0.1c0.4-0.2,0.7-0.3,1.1-0.4c0.1,0,0.1,0,0.2-0.1c0.3-0.1,0.6-0.2,0.9-0.3c0.1,0,0.2,0,0.3-0.1
			c0.4-0.1,0.8-0.1,1.1-0.2c0,0,0,0,0,0c0.4,0,0.8-0.1,1.2-0.1c0.1,0,0.2,0,0.4,0c0.2,0,0.4,0,0.6,0c0.1,0,0.3,0,0.4,0
			c0.2,0,0.4,0,0.6,0.1c0.1,0,0.3,0,0.4,0.1c0.2,0,0.4,0.1,0.7,0.1c0.1,0,0.2,0,0.3,0.1c0.3,0.1,0.6,0.2,1,0.3
			c1.6,0.6,3,1.5,4.1,2.7c0.8,0.8,1.5,1.8,2.1,2.9c0.4,0.9,0.8,1.8,1,2.8c0,0.1,0.1,0.2,0.1,0.4c0.2,0.9,0.3,1.8,0.3,2.7
			c0,3.7-1.2,6.8-3.1,9.6c-0.7,1-1.5,2-2.3,3c-0.4,0.4-0.7,0.8-1.1,1.2c-2.3,2.3-5,4.5-7.8,6.8c-2.5,2-5.1,4.1-7.4,6.4
			c-0.7-0.6-1.4-1.3-2-1.9c-1.8-1.6-3.6-3-5.4-4.5c-2.2-1.7-4.2-3.4-6.1-5.2c-0.7-0.7-1.4-1.3-2-2c-1.1-1.1-2.1-2.3-2.9-3.5
			l-1.8,1.2l0,0l0,0c0.7,1,1.5,2,2.4,3c0.4,0.5,0.9,0.9,1.3,1.4c1.4,1.4,2.9,2.7,4.5,4.1c0.5,0.4,1.1,0.9,1.6,1.3
			c0.5,0.4,1.1,0.9,1.6,1.3c1.7,1.4,3.4,2.8,5.1,4.2c1,0.9,2,1.8,3,2.8l0.4,0.4l0.4,0.4l0,0l0,0l0.8-0.8c1.8-1.8,3.9-3.6,6-5.3
			c0.7-0.6,1.4-1.1,2.1-1.7c2.3-1.9,4.6-3.7,6.7-5.7c0.5-0.4,0.9-0.9,1.4-1.3c0,0,0.1-0.1,0.1-0.1c0.6-0.6,1.1-1.2,1.6-1.8
			C54.7,35.7,56.9,31.4,56.9,26.1z"/>
		<path class="st1" d="M26.9,34.1L26.9,34.1l1.6-6.8l3.6,23.4v0v0l2.6-13.9l1-5.2l0.5,2.4h8.9c0.2,0.4,0.4,0.9,0.8,1.2
			c0,0,0.1,0.1,0.1,0.1c0.3,0.3,0.7,0.5,1.1,0.7c0.2,0.1,0.3,0.1,0.5,0.1s0.3,0,0.5,0c0.2,0,0.3,0,0.5,0c0.8-0.1,1.6-0.6,2.1-1.3
			c0.1-0.1,0.2-0.3,0.3-0.4c0.1-0.2,0.1-0.3,0.2-0.5c0.3-1,0.1-2.2-0.5-3c-0.1-0.2-0.3-0.3-0.4-0.5c-0.3-0.3-0.7-0.5-1.1-0.6
			c0,0,0,0,0,0c-0.2-0.1-0.4-0.1-0.6-0.1c-0.1,0-0.1,0-0.2,0c-0.1,0-0.2,0-0.2,0c-0.1,0-0.1,0-0.1,0c-0.1,0-0.1,0-0.2,0
			c-0.1,0-0.3,0-0.4,0.1c-0.1,0-0.1,0-0.2,0c-0.2,0.1-0.4,0.1-0.5,0.2c0,0,0,0,0,0c-0.2,0.1-0.3,0.2-0.5,0.3c0,0-0.1,0.1-0.1,0.1
			c-0.1,0.1-0.2,0.2-0.3,0.3c0,0-0.1,0.1-0.1,0.1c-0.1,0.1-0.2,0.2-0.2,0.3c0,0-0.1,0.1-0.1,0.1c-0.1,0.2-0.2,0.3-0.2,0.5h-7.2
			l-1.2-5.5l-1.2-5.5v0l0,0l-0.9,4.9l-2.2,12l-1.7-10.9L29,15.9v0v0l-3.8,16H11.4v0l0,0v2.2L26.9,34.1L26.9,34.1z M48.9,33.5
			C48.9,33.6,48.8,33.6,48.9,33.5c-0.1,0.1-0.2,0.2-0.3,0.2c0,0-0.1,0-0.1,0.1c-0.1,0-0.2,0.1-0.2,0.1c0,0-0.1,0-0.1,0
			c-0.1,0-0.3,0-0.4,0c-0.5-0.2-0.8-0.7-0.7-1.3c0,0,0,0,0,0c0.1-0.4,0.6-0.7,1-0.7c0.1,0,0.2,0,0.3,0.1c0.3,0.1,0.5,0.3,0.6,0.5
			c0.1,0.3,0.1,0.5,0.1,0.8C49.1,33.3,49,33.4,48.9,33.5z"/>
	</g>
</g>
</svg>
