<!-- Generator: Adobe Illustrator 25.0.1, SVG Export Plug-In  -->
<svg version="1.1" xmlns="http://www.w3.org/2000/svg" xmlns:xlink="http://www.w3.org/1999/xlink" x="0px" y="0px" width="969.9px"
	 height="1005.1px" viewBox="0 0 969.9 1005.1" style="overflow:visible;enable-background:new 0 0 969.9 1005.1;"
	 xml:space="preserve">
<style type="text/css">
	.st0{fill:none;stroke:#14A2DC;stroke-width:3;stroke-miterlimit:10;}
</style>
<defs>
</defs>
<path class="st0" d="M520.1,96.6V13.2c0-6.4-5.2-11.7-11.7-11.7H169.8c-6.4,0-11.7,5.2-11.7,11.7v84.7c0,6.4-5.2,11.7-11.7,11.7
	H99.7H13.2c-6.4,0-11.7,5.2-11.7,11.7V992c0,6.4,5.2,11.7,11.7,11.7h938c6.4,0,11.6-5.2,11.7-11.6l5.6-872.1
	c0-6.5-5.2-11.7-11.7-11.7H531.8l0,0C525.4,108.3,520.1,103.1,520.1,96.6z"/>
</svg>
