<!-- Generator: Adobe Illustrator 25.2.0, SVG Export Plug-In  -->
<svg version="1.1" xmlns="http://www.w3.org/2000/svg" xmlns:xlink="http://www.w3.org/1999/xlink" x="0px" y="0px" width="97.3px"
	 height="97.3px" viewBox="0 0 97.3 97.3" style="overflow:visible;enable-background:new 0 0 97.3 97.3;" xml:space="preserve">
<style type="text/css">
	.st0{fill:none;stroke:#E7484E;stroke-width:2;stroke-miterlimit:10;}
</style>
<defs>
</defs>
<g>
	<path class="st0" d="M48.1,21.1l15-15.5c5.7-5.9,15-6.1,20.9-0.4l6.8,6.5c5.9,5.7,6.1,15,0.4,20.9L84.1,40 M49.1,76.3L34.2,91.8
		c-5.7,5.9-15,6.1-20.9,0.4l-6.8-6.5C3.7,82.9,2,79.2,2,75.3c-0.1-3.9,1.4-7.7,4.1-10.6L21,49.2 M8.1,36.6l-2.5-2.4
		C2.7,31.5,1.1,27.7,1,23.8c-0.1-3.9,1.4-7.7,4.1-10.6l6.5-6.8C14.4,3.7,18.1,2,22,2c3.9-0.1,7.7,1.4,10.6,4.1l59.2,57
		c5.9,5.7,6.1,15,0.4,20.9l-6.5,6.8c-5.7,5.9-15,6.1-20.9,0.4l-48-46.1 M49.6,58.6c0,0.6-0.5,1.1-1.1,1.1c-0.6,0-1.1-0.5-1.1-1.1
		c0-0.6,0.5-1.1,1.1-1.1C49.1,57.5,49.6,58,49.6,58.6L49.6,58.6z M39.3,48.7c0,0.6-0.5,1.1-1.1,1.1c-0.6,0-1.1-0.5-1.1-1.1
		c0-0.6,0.5-1.1,1.1-1.1C38.8,47.6,39.3,48.1,39.3,48.7L39.3,48.7z M59.7,48.2c0,0.6-0.5,1.1-1.1,1.1c-0.6,0-1.1-0.5-1.1-1.1
		c0-0.6,0.5-1.1,1.1-1.1C59.2,47.1,59.7,47.6,59.7,48.2L59.7,48.2z M49.3,38.2c0,0.6-0.5,1.1-1.1,1.1c-0.6,0-1.1-0.5-1.1-1.1
		c0-0.6,0.5-1.1,1.1-1.1C48.9,37.2,49.3,37.6,49.3,38.2L49.3,38.2z"/>
</g>
</svg>
