<?xml version="1.0" encoding="UTF-8"?><svg xmlns="http://www.w3.org/2000/svg" id="Text63ed48a894bb1" viewBox="0 0 51.57 70.36" aria-hidden="true" width="51px" height="70px"><defs><linearGradient class="cerosgradient" data-cerosgradient="true" id="CerosGradient_id024b8c500" gradientUnits="userSpaceOnUse" x1="50%" y1="100%" x2="50%" y2="0%"><stop offset="0%" stop-color="#d1d1d1"/><stop offset="100%" stop-color="#d1d1d1"/></linearGradient><linearGradient/><style>.cls-1-63ed48a894bb1{fill:none;stroke:#051c2c;stroke-miterlimit:10;}</style></defs><polygon class="cls-1-63ed48a894bb1" points="21.53 6.76 29.59 6.76 44.47 69.86 6.65 69.86 21.53 6.76"/><line class="cls-1-63ed48a894bb1" x1="19.74" y1="14.26" x2="31.38" y2="14.26"/><circle class="cls-1-63ed48a894bb1" cx="8.89" cy="5.42" r="4.92"/><line class="cls-1-63ed48a894bb1" x1="8.89" y1="10.34" x2="8.89" y2="14.26"/><polyline class="cls-1-63ed48a894bb1" points="19.74 14.26 .5 14.26 .5 19.85 16.27 29.14"/><circle class="cls-1-63ed48a894bb1" cx="42.56" cy="5.42" r="4.92"/><line class="cls-1-63ed48a894bb1" x1="42.56" y1="10.34" x2="42.56" y2="14.26"/><polyline class="cls-1-63ed48a894bb1" points="31.38 14.26 51.07 14.26 51.07 19.85 34.96 29.36"/><line class="cls-1-63ed48a894bb1" x1="12.58" y1="44.69" x2="44.47" y2="69.86"/><line class="cls-1-63ed48a894bb1" x1="38.54" y1="44.8" x2="6.65" y2="69.86"/><line class="cls-1-63ed48a894bb1" x1="18.4" y1="19.85" x2="38.54" y2="44.69"/><line class="cls-1-63ed48a894bb1" x1="32.72" y1="19.85" x2="12.58" y2="44.69"/><line class="cls-1-63ed48a894bb1" x1=".5" y1="19.85" x2="51.07" y2="19.85"/></svg>