<!-- Generator: Adobe Illustrator 25.1.0, SVG Export Plug-In  -->
<svg version="1.1" xmlns="http://www.w3.org/2000/svg" xmlns:xlink="http://www.w3.org/1999/xlink" x="0px" y="0px" width="135.1px"
	 height="135.1px" viewBox="0 0 135.1 135.1" style="overflow:visible;enable-background:new 0 0 135.1 135.1;"
	 xml:space="preserve">
<style type="text/css">
	.st0{fill:#5FB9E4;}
	.st1{fill:none;stroke:#5FB9E4;stroke-width:3;stroke-miterlimit:10;}
</style>
<defs>
</defs>
<g>
	<path class="st0" d="M68.6,38c-7,0-12.7,5.7-12.7,12.7c0,7,5.7,12.7,12.7,12.7c7,0,12.7-5.7,12.7-12.7C81.3,43.7,75.6,38,68.6,38z
		 M68.6,59.7c-4.9,0-9-4-9-9s4-9,9-9s9,4,9,9S73.5,59.7,68.6,59.7z"/>
	<path class="st0" d="M100.3,89.3h-4.7v-2.6c0-3.2-2.6-5.9-5.9-5.9H70.2v-5.3h0.5c1.1-0.1,2.1-0.8,2.5-1.9l1.2-3l0.2-0.1
		c1.3-0.4,2.5-0.9,3.7-1.5l0.2-0.1l3,1.3c1,0.4,2.2,0.3,3.1-0.4c0.5-0.4,1.1-0.9,1.6-1.5c0.5-0.5,1-1.1,1.5-1.6
		c0.7-0.9,0.9-2,0.4-3.1l-1.3-3l0.1-0.2c0.6-1.2,1.2-2.4,1.5-3.7l0.1-0.2l3-1.2c1.1-0.4,1.8-1.4,1.9-2.5c0.1-0.7,0.1-1.4,0.1-2.1
		c0-0.7,0-1.5-0.1-2.1c-0.1-1.1-0.8-2.1-1.9-2.5l-3-1.2l-0.1-0.2c-0.4-1.3-0.9-2.5-1.5-3.7l-0.1-0.2l1.3-3c0.4-1,0.3-2.2-0.4-3.1
		c-0.4-0.5-0.9-1.1-1.4-1.6c-0.5-0.5-1.1-1-1.6-1.5c-0.9-0.7-2-0.9-3.1-0.4l-3,1.3l-0.2-0.1c-1.2-0.6-2.4-1.2-3.7-1.5l-0.2-0.1
		l-1.2-3c-0.4-1-1.4-1.8-2.5-1.9c-1.4-0.1-2.9-0.1-4.3,0c-1.1,0.1-2.1,0.8-2.5,1.9l-1.2,3l-0.2,0.1c-1.3,0.4-2.5,0.9-3.7,1.5
		l-0.2,0.1l-3-1.3c-1-0.4-2.2-0.3-3.1,0.4c-0.5,0.4-1.1,0.9-1.6,1.4c-0.5,0.5-1,1.1-1.5,1.6c-0.7,0.9-0.9,2-0.4,3.1l1.3,3L50.2,41
		c-0.6,1.2-1.2,2.4-1.5,3.7l-0.1,0.2l-3,1.2c-1,0.4-1.8,1.4-1.9,2.5c-0.1,0.7-0.1,1.4-0.1,2.1c0,0.7,0,1.5,0.1,2.1
		c0.1,1.1,0.8,2.1,1.9,2.5l3,1.2l0.1,0.2c0.4,1.3,0.9,2.5,1.5,3.7l0.1,0.2l-1.3,3c-0.4,1-0.3,2.2,0.4,3.1c0.4,0.5,0.9,1.1,1.5,1.6
		c0.5,0.5,1.1,1,1.6,1.5c0.9,0.7,2,0.9,3.1,0.4l3-1.3l0.2,0.1c1.2,0.6,2.4,1.2,3.7,1.5l0.2,0.1l1.2,3c0.4,1,1.4,1.8,2.5,1.9l0.5,0
		l0.1,0.5v4.8H47.4c-3.2,0-5.9,2.6-5.9,5.9v2.6h-4.7c-2.1,0-3.7,1.7-3.7,3.7v8.5c0,2.1,1.7,3.7,3.7,3.7h12.7c2.1,0,3.7-1.7,3.7-3.7
		v-8.5c0-2.1-1.7-3.7-3.7-3.7h-4.7v-2.6c0-1.4,1.2-2.6,2.6-2.6h19.6v5.2h-4.7c-2.1,0-3.7,1.7-3.7,3.7v8.5c0,2.1,1.7,3.7,3.7,3.7
		h12.7c2.1,0,3.7-1.7,3.7-3.7v-8.5c0-2.1-1.7-3.7-3.7-3.7h-4.7v-5.2h19.6c1.4,0,2.6,1.2,2.6,2.6v2.6h-4.7c-2.1,0-3.7,1.7-3.7,3.7
		v8.5c0,2.1,1.7,3.7,3.7,3.7h12.7c2.1,0,3.7-1.7,3.7-3.7v-8.5C104.1,91,102.4,89.3,100.3,89.3z M50,92.6v9.5H36.3v-9.5H50z
		 M75.4,92.6v9.5H61.7v-9.5H75.4z M69.9,72.4c-0.4,0-0.9,0-1.4,0s-0.9,0-1.4,0l-0.3,0l-1.4-3.6c-0.2-0.5-0.6-0.8-1.1-1
		c-1.7-0.4-3.3-1.1-4.8-2c-0.4-0.3-1-0.3-1.5-0.1l-3.6,1.5L54.2,67c-0.3-0.3-0.7-0.6-1-0.9c-0.3-0.3-0.6-0.6-0.9-1l-0.2-0.2l1.5-3.6
		c0.2-0.5,0.2-1-0.1-1.5c-0.9-1.5-1.6-3.1-2-4.8c-0.1-0.5-0.5-0.9-1-1.1l-3.6-1.4l0-0.3c0-0.4,0-0.9,0-1.4c0-0.5,0-0.9,0-1.4l0-0.3
		l3.6-1.4c0.5-0.2,0.8-0.6,1-1.1c0.4-1.7,1.1-3.3,2-4.8c0.3-0.4,0.3-1,0.1-1.5l-1.5-3.6l0.2-0.2c0.3-0.3,0.6-0.7,0.9-1
		c0.3-0.3,0.6-0.6,1-0.9l0.2-0.2l3.6,1.5c0.5,0.2,1,0.2,1.5-0.1c1.5-0.9,3.1-1.6,4.8-2c0.5-0.1,0.9-0.5,1.1-1l1.4-3.6l0.3,0
		c0.9-0.1,1.8-0.1,2.7,0l0.3,0l1.4,3.6c0.2,0.5,0.6,0.8,1.1,1c1.7,0.4,3.3,1.1,4.8,2c0.4,0.3,1,0.3,1.5,0.1l3.6-1.5l0.2,0.2
		c0.3,0.3,0.7,0.6,1,0.9c0.3,0.3,0.6,0.6,0.9,1l0.2,0.2l-1.5,3.6c-0.2,0.5-0.2,1,0.1,1.5c0.9,1.5,1.6,3.1,2,4.8
		c0.1,0.5,0.5,0.9,1,1.1l3.6,1.4l0,0.3c0,0.4,0,0.9,0,1.4s0,0.9,0,1.4l0,0.3l-3.6,1.4c-0.5,0.2-0.8,0.6-1,1.1
		c-0.4,1.7-1.1,3.3-2,4.8c-0.3,0.4-0.3,1-0.1,1.5l1.5,3.6l-0.2,0.2c-0.3,0.3-0.6,0.7-0.9,1c-0.3,0.3-0.6,0.6-1,0.9l-0.2,0.2
		l-3.6-1.5c-0.5-0.2-1-0.2-1.5,0.1c-1.5,0.9-3.1,1.6-4.8,2c-0.5,0.1-0.9,0.5-1.1,1l-1.4,3.6L69.9,72.4z M100.8,102.1H87.1v-9.5h13.7
		V102.1z"/>
</g>
<circle class="st1" cx="67.6" cy="67.6" r="66.1"/>
</svg>
