<?xml version="1.0" encoding="UTF-8"?><svg id="Layer_1" xmlns="http://www.w3.org/2000/svg" xmlns:xlink="http://www.w3.org/1999/xlink" viewBox="0 0 160 173.21"><defs><style>.cls-1{fill:none;}.cls-2{fill:url(#linear-gradient);}.cls-2,.cls-3,.cls-4,.cls-5,.cls-6{opacity:.2;}.cls-7{clip-path:url(#clippath);}.cls-8{fill:#f8fdf9;}.cls-9{fill:#eb0017;}.cls-10{fill:#fff;}.cls-11{fill:#e5eff0;}.cls-12{fill:#e8bdba;}.cls-13{fill:#b2b2b2;}.cls-14{fill:#acc0c4;}.cls-15{fill:#47535e;}.cls-16{fill:#30201e;}.cls-17{fill:#262836;}.cls-18{fill:#4d3633;}.cls-19{fill:#5d6d78;}.cls-20{fill:#82939a;}.cls-3{fill:url(#linear-gradient-3);}.cls-4{fill:url(#linear-gradient-4);}.cls-5{fill:url(#linear-gradient-2);}.cls-6{fill:url(#linear-gradient-5);}</style><clipPath id="clippath"><circle class="cls-1" cx="80" cy="80" r="80"/></clipPath><linearGradient id="linear-gradient" x1="22.44" y1="68.16" x2="36.04" y2="68.16" gradientUnits="userSpaceOnUse"><stop offset="0" stop-color="#161630"/><stop offset="1" stop-color="#2d2d4d"/></linearGradient><linearGradient id="linear-gradient-2" x1="24.57" y1="78.79" x2="36.99" y2="78.79" xlink:href="#linear-gradient"/><linearGradient id="linear-gradient-3" x1="39.1" y1="61.2" x2="48.65" y2="61.2" xlink:href="#linear-gradient"/><linearGradient id="linear-gradient-4" x1="118.69" y1="107.16" x2="120.9" y2="107.16" xlink:href="#linear-gradient"/><linearGradient id="linear-gradient-5" x1="101.71" y1="117.11" x2="103.99" y2="117.11" xlink:href="#linear-gradient"/></defs><circle class="cls-10" cx="80" cy="80" r="80"/><g class="cls-7"><path class="cls-19" d="m82.41,86.49l.76.33s-.33.06-.76-.33Z"/><path class="cls-19" d="m65.84,34.85l.02-.02s0,.02-.01.02h-.01Z"/><g><polygon class="cls-19" points="62.62 101.98 113.32 126 113.32 49.6 62.62 25.58 62.62 101.98"/><polygon class="cls-8" points="64.58 100.74 64.58 28.67 111.36 50.84 111.36 122.91 64.58 100.74"/><polygon class="cls-19" points="62.62 34.03 113.32 58.05 113.32 49.6 62.62 25.58 62.62 34.03"/><g><path class="cls-11" d="m129.05,39.88l-15.73,9.72-27.3-12.94-23.38-11.07s.01-.02.01-.03h0c.55-.94,6.89-11.52,14.5-10.01.47.1.94.23,1.41.42l.05.02.99.47h.02s49.43,23.42,49.43,23.42Z"/><path class="cls-13" d="m113.32,49.63h-.01s-50.72-24.04-50.72-24.04l.03-.03s0,0,0,0h0s.01-.02.01-.02c.64-1.1,6.15-10.15,13.02-10.15.5,0,1,.05,1.51.15.48.1.95.24,1.42.42l.05.02.99.47.02.02,49.47,23.43-.04.03-15.75,9.72Zm-50.64-24.06l50.64,23.99,15.67-9.68-49.38-23.38-.02-.02-1.03-.49c-.47-.18-.93-.32-1.41-.42-7.51-1.49-13.78,8.81-14.47,9.98h0s0,0,0,0Z"/></g><g><path class="cls-15" d="m113.32,49.6s7.99-14.14,17-9.14c13.14,7.3,2.19,65.49,2.93,71.82.48,4.1,2.98,5.97,2.98,5.97l-22.91-10.18v-58.47Z"/><path class="cls-13" d="m136.45,118.38l-23.16-10.29v-58.5h0s2.04-3.58,5.13-6.46c1.82-1.69,3.64-2.83,5.43-3.38,2.24-.69,4.42-.46,6.48.69,2.33,1.29,4.05,4.3,5.13,8.93.92,3.96,1.39,9.23,1.39,15.67.01,11.77-1.47,25.14-2.56,34.9-.7,6.28-1.2,10.81-1.02,12.35.25,2.11,1.04,3.62,1.66,4.51.68.97,1.3,1.44,1.31,1.44l.2.15Zm-23.1-10.33l22.71,10.09c-.23-.2-.68-.64-1.16-1.32-.63-.9-1.43-2.41-1.68-4.53-.18-1.55.32-6.08,1.02-12.36,1.08-9.76,2.57-23.13,2.56-34.89,0-6.43-.48-11.7-1.39-15.66-1.07-4.62-2.79-7.61-5.1-8.89-2.05-1.14-4.21-1.37-6.43-.68-1.78.55-3.6,1.68-5.41,3.37-3.02,2.82-5.01,6.26-5.11,6.43v58.45Z"/></g><g><path class="cls-15" d="m79.97,68.03l-12.15-5.59v-7.08l12.15,5.59v7.08Zm-11.04-6.3l9.94,4.58v-4.65l-9.94-4.58v4.65Z"/><path class="cls-15" d="m94.62,74.78l-12.15-5.59v-7.08l12.15,5.59v7.08Zm-11.04-6.3l9.94,4.58v-4.65l-9.94-4.58v4.65Z"/><path class="cls-15" d="m109.27,81.52l-12.15-5.59v-7.08l12.15,5.59v7.08Zm-11.04-6.3l9.94,4.58v-4.65l-9.94-4.58v4.65Z"/><path class="cls-15" d="m79.97,77.82l-12.15-5.59v-7.08l12.15,5.59v7.08Zm-11.04-6.3l9.94,4.58v-4.65l-9.94-4.58v4.65Z"/><path class="cls-15" d="m109.27,91.31l-12.15-5.59v-7.08l12.15,5.59v7.08Zm-11.04-6.3l9.94,4.58v-4.65l-9.94-4.58v4.65Z"/><path class="cls-15" d="m79.97,87.61l-12.15-5.59v-7.08l12.15,5.59v7.08Zm-11.04-6.3l9.94,4.58v-4.65l-9.94-4.58v4.65Z"/><path class="cls-15" d="m109.27,101.1l-12.15-5.59v-7.08l12.15,5.59v7.08Zm-11.04-6.3l9.94,4.58v-4.65l-9.94-4.58v4.65Z"/><path class="cls-15" d="m79.97,97.4l-12.15-5.59v-7.08l12.15,5.59v7.08Zm-11.04-6.3l9.94,4.58v-4.65l-9.94-4.58v4.65Z"/><path class="cls-15" d="m94.62,104.15l-12.15-5.59v-7.08l12.15,5.59v7.08Zm-11.04-6.3l9.94,4.58v-4.65l-9.94-4.58v4.65Z"/><path class="cls-15" d="m109.27,110.89l-12.15-5.59v-7.08l12.15,5.59v7.08Zm-11.04-6.3l9.94,4.58v-4.65l-9.94-4.58v4.65Z"/><polygon class="cls-15" points="68.15 89.03 64.66 87.42 64.66 66.23 68.61 68.05 68.15 69.06 65.76 67.96 65.76 86.71 68.61 88.02 68.15 89.03"/><rect class="cls-15" x="66.24" y="76.07" width="1.1" height="3.49" transform="translate(-31.82 105.94) rotate(-65.27)"/><rect class="cls-15" x="102.64" y="87.91" width="1.1" height="3.93"/><rect class="cls-15" x="101.96" y="97.38" width="1.1" height="3.93"/><polygon class="cls-15" points="103.06 71.94 101.96 71.94 101.96 68.1 73.33 54.92 73.33 57.82 72.22 57.82 72.22 53.19 103.06 67.39 103.06 71.94"/><rect class="cls-15" x="87.47" y="61.08" width="1.1" height="4.19"/><polygon class="cls-15" points="97.44 92.73 88 88.38 88 71.37 89.1 71.37 89.1 87.67 97.91 91.72 97.44 92.73"/><rect class="cls-15" x="92.56" y="74.92" width="1.1" height="10.05" transform="translate(-18.45 131.08) rotate(-65.28)"/><polygon class="cls-15" points="88.57 94.64 87.47 94.64 87.47 89.85 91.85 91.87 91.85 89.8 92.95 89.8 92.95 93.59 88.57 91.57 88.57 94.64"/><path class="cls-19" d="m97.89,60.08l-18.9-8.7c-.26-.12-.48-.44-.48-.7h0c0-.26.22-.38.48-.26l18.9,8.7c.26.12.48.44.48.7h0c0,.26-.22.38-.48.26Z"/><path class="cls-9" d="m77.26,63.73l-6.46-2.98c-.16-.07-.29-.26-.29-.42v-.39c0-.16.13-.23.29-.15l6.46,2.98c.16.07.29.26.29.42v.39c0,.16-.13.23-.29.15Z"/><path class="cls-19" d="m77.26,73.91l-6.46-2.98c-.16-.07-.29-.26-.29-.42v-.39c0-.16.13-.23.29-.15l6.46,2.98c.16.07.29.26.29.42v.39c0,.16-.13.23-.29.15Z"/><path class="cls-19" d="m77.26,84.09l-6.46-2.98c-.16-.07-.29-.26-.29-.42v-.39c0-.16.13-.23.29-.15l6.46,2.98c.16.07.29.26.29.42v.39c0,.16-.13.23-.29.15Z"/><path class="cls-19" d="m77.26,94.27l-6.46-2.98c-.16-.07-.29-.26-.29-.42v-.39c0-.16.13-.23.29-.15l6.46,2.98c.16.07.29.26.29.42v.39c0,.16-.13.23-.29.15Z"/><path class="cls-19" d="m106.08,86.55l-6.46-2.98c-.16-.07-.29-.26-.29-.42v-.39c0-.16.13-.23.29-.15l6.46,2.98c.16.07.29.26.29.42v.39c0,.16-.13.23-.29.15Z"/><path class="cls-19" d="m106.08,96.74l-6.46-2.98c-.16-.07-.29-.26-.29-.42v-.39c0-.16.13-.23.29-.15l6.46,2.98c.16.07.29.26.29.42v.39c0,.16-.13.23-.29.15Z"/><path class="cls-19" d="m106.08,106.92l-6.46-2.98c-.16-.07-.29-.26-.29-.42v-.39c0-.16.13-.23.29-.15l6.46,2.98c.16.07.29.26.29.42v.39c0,.16-.13.23-.29.15Z"/><path class="cls-19" d="m91.78,70.41l-6.46-2.98c-.16-.07-.29-.26-.29-.42v-.39c0-.16.13-.23.29-.15l6.46,2.98c.16.07.29.26.29.42v.39c0,.16-.13.23-.29.15Z"/><path class="cls-19" d="m106.3,77.1l-6.46-2.98c-.16-.07-.29-.26-.29-.42v-.39c0-.16.13-.23.29-.15l6.46,2.98c.16.07.29.26.29.42v.39c0,.16-.13.23-.29.15Z"/><path class="cls-19" d="m90.87,99.78l-6.46-2.98c-.16-.07-.29-.26-.29-.42v-.39c0-.16.13-.23.29-.15l6.46,2.98c.16.07.29.26.29.42v.39c0,.16-.13.23-.29.15Z"/></g></g><g><path class="cls-17" d="m24.57,82.48s-.89,2.84.36,6.16c1.25,3.31,2.38,14.57,2.38,14.57,0,0-1.73,1.44-1.52,6.94.21,5.5.71,10.76.71,10.76,0,0,.06,1.31,2.56.88,2.5-.44,2.38-2,2.38-2,0,0-1.5-10.26.5-13.88,2-3.63,2.56-16.21,2.56-16.21l2,10.14s-1.06,3.44-.44,7.88c.63,4.44.88,7.38.88,7.38,0,0,.72,1.63,2.77,1.06,2.05-.56,2.17-2.12,2.17-2.12,0,0-.69-10.14,0-13.64.69-3.5-1.5-22.12-1.5-22.12l-15.81,4.21Z"/><path class="cls-9" d="m38.55,53.14c-2.51-1.73-16.01,3.82-18.82,6.75-2.81,2.93,3.23,18.4,3.76,19,.54.6,1.08.6,1.08.6v2.99s3.82,2.95,10.63.7c6.81-2.25,5.32-5.24,5.32-5.24v-13.42s6.03,2.37,6.99,2.37,12.91-4.37,12.91-4.37c0,0-1.19-.63-1.79-2.07l-.6-1.44s-10.16,2.99-10.99,2.51c-.84-.48-8.48-8.36-8.48-8.36Z"/><path class="cls-18" d="m59.53,61.81s1.2.49,2.75-.14c1.56-.64,2.74-.11,2.74-.11,0,0,.57-.66-.35-1.12-.92-.46-2.31-.37-2.31-.37,0,0,1.02-1.56,2.2-1.4,1.18.15,2.02.35,1.78-.11-.24-.46-2.54-1.84-3.79-1.62s-4.38,2.42-4.38,2.42c0,0,.32,2.17,1.36,2.46Z"/><path class="cls-18" d="m36.04,71.66s-.04.63.49,1.65c.54,1.03.94,1.16.94,1.16,0,0,2.99,0,4.78-2.1,1.79-2.1,2.41-3.97,1.7-4.33s-4.15,3.97-4.91,3.44c-.76-.54.13-1.49.67-2.13.54-.64,0-1.33,0-1.33,0,0-1.47.87-2.19,2.08-.71,1.21-1.47,1.56-1.47,1.56Z"/><path class="cls-17" d="m31.33,120.31s.89,1.25,3.7,2.25c2.81,1,2.49,1.45,1.09,2.22-1.4.77-3.35-.27-4.98-.45-1.63-.18-2.9.32-3.53-.59-.63-.91-.52-2.08-.52-2.08,0,0,3.63-.29,4.25-1.35Z"/><path class="cls-17" d="m41.61,114.79s.26,1.7,2.2,2.52c1.95.81,3.53,1.09,3.08,1.58-.45.5-1.22,1.58-3.03,1.13-1.81-.45-2.49-1.54-3.89-1.54s-2.31-.41-2.53-1.31c-.23-.91-.26-1.73-.26-1.73,0,0,3.24,1,4.44-.65Z"/><path class="cls-2" d="m22.44,61.32s1.21.66,2.09,2.69c.88,2.03,2.53,8.62,2.2,9.28s-1.04,1.7-1.04,1.7c0,0,.99-1.21,2.42-1.7,1.43-.49,7.94-1.63,7.94-1.63,0,0-8,.92-8.44.81s-1.54-10.21-5.16-11.15Z"/><path class="cls-5" d="m24.57,79.49l12.42-4.82s-11.25,5.09-11.49,5.42-.56,2.82-.56,2.82l-.37-.43v-2.99Z"/><path class="cls-3" d="m40.52,64.52s-.22-4.72-.82-6.84l-.6-2.12s1.51,2.71,1.74,4.88c.24,2.18,1.65,3.43,3.06,4.08,1.41.65,4.75,2.09,4.75,2.09,0,0-1.1.33-1.53.22-.43-.11-6.6-2.31-6.6-2.31Z"/><path class="cls-18" d="m32.76,45.36s.36,1.31.19,1.95l-.17.64s.5.37.53,1.19c.03.82-.02,4.15-.92,4.94s-1.54.62-1.54.62l.13,1.1s0,.25-1.66.71c-1.66.46-3.41-.63-3.41-.63,0,0-.97-5.47-.89-6.79.08-1.32,1.7-4.97,1.7-4.97l6.04,1.23Z"/><path class="cls-16" d="m28.7,46.02s1.86.68,3.56.23c1.7-.45,1.36-2.43,1.2-2.56-.17-.14-5.87-1.61-8.34-1.24-2.46.38-1.88,2.46-1.88,2.46,0,0-1.58.73-.66,3.38.91,2.65,2.8,4.45,3.19,4.07.39-.39.05-2.59.84-2.69.79-.1.74,1.02,1.03,1.04.29.01-.37-1.53.43-2.15.8-.62.64-2.54.64-2.54Z"/><g><polygon class="cls-14" points="68.9 58.68 71.79 59.48 69.1 60.24 68.9 58.68"/><path class="cls-14" d="m68.9,58.68h-11.68v1.61h11.68c.33,0,.59-.36.59-.81s-.27-.81-.59-.81Z"/><ellipse class="cls-20" cx="57.32" cy="59.48" rx=".59" ry=".81"/></g><path class="cls-20" d="m25.69,56.06l4.09.27-.98,2.24-4.12-1.82s.45-.74,1.01-.7Z"/><path class="cls-20" d="m30.71,54.46s.58-.06.91-.34l.32-.28,1.51,2.92-2.89-.7.14-1.6Z"/></g><g><path class="cls-17" d="m110.52,168.26s1.72,3.11.4,4.11c-1.32,1-2.59,1.25-5.74-.03-3.15-1.27-7.15-2.26-6.68-3.43.47-1.17,1.02-1.47,2.54-1.24,1.52.23,4.03.29,4.03.29,0,0,2.71,1.9,5.46.3Z"/><path class="cls-17" d="m121.03,161.62s1.37,2.71.35,3.59c-1.02.89-1.79,1.09-5.26-.03-3.47-1.12-6.33-1.92-6.28-3.09.05-1.17.23-2.39,2.97-1.49,2.74.9,3.84.67,3.84.67,0,0,3.01.55,4.38.35Z"/><path class="cls-17" d="m119.02,121.96s.7,3.81-.24,6.79c-.94,2.98-.95,12.87-.95,12.87,0,0,2.57,3.08,2.79,9.01.22,5.93.65,10.53.65,10.53,0,0-.3,1.25-2.37,1.54-2.07.29-2.42-.64-2.42-.64,0,0-.74-13.83-3.43-17.25-2.69-3.42-1.06-13.21-2.28-13.09-1.21.12-3.12,15-3.12,15,0,0,1.81,1.58,2.08,6.1.26,4.53,1.07,14.69,1.07,14.69,0,0,.13,1.39-2.22,1.53-2.35.14-3.52-1.06-3.52-1.06,0,0-1.07-12.94-3.33-17.27-2.26-4.33.52-26.54.52-26.54,0,0,10.62,3.8,16.76-2.19Z"/><polygon class="cls-14" points="106.37 93.39 97.34 99.18 99.24 118.8 109.12 111.78 106.37 93.39"/><path class="cls-9" d="m113.45,93.56s4.53-2.34,6.57.28c2.04,2.62,2.94,14.33,2.66,15.44-.28,1.11-3.57,2.52-3.57,2.52l-.1,8.45s1.91,2.55-5.03,4.85c-6.94,2.31-11.72-.94-11.72-.94l-.55-10.36s-3.54,4.37-5.58,3.8c-2.04-.57-2.77-3.56-1.05-7.54,1.73-3.97,2.78-5.51,2.78-5.51l.38,3.9s4.57-9.13,6-10.23c1.43-1.1,9.22-4.65,9.22-4.65Z"/><g><path class="cls-12" d="m104.2,85.73s-1.4,2.02-1.34,3.01c.06.98.43,3.77.9,4.01.47.24,2.31.38,2.62.64.31.26.52,3.26.52,3.26l4.69-1.28-.94-9.74-6.44.11Z"/><path class="cls-11" d="m105.95,87.35c1.05.29,2.12,1.08,1.23,2.51-.89,1.43-1.71,3.2.22,4.13,1.93.93.29,1.47,1.49,3.95,1.2,2.47,4.43,3.05,8.5,1.4,4.07-1.65,2.62-4.41.82-5.47-1.8-1.06-2.26-1.91-2.24-5.04.02-3.13-.75-7.18-4.86-7.97-4.1-.79-7.51-.11-8.27,1.12-2.05,3.3,2.06,5.1,3.11,5.39Z"/></g><polygon class="cls-4" points="119.12 111.79 118.69 102.53 120.9 110.89 119.12 111.79"/><polygon class="cls-6" points="101.71 113.79 103.68 109.23 103.99 125 101.97 124.28 101.71 113.79"/></g></g></svg>