<!-- Generator: Adobe Illustrator 25.2.0, SVG Export Plug-In  -->
<svg version="1.1" xmlns="http://www.w3.org/2000/svg" xmlns:xlink="http://www.w3.org/1999/xlink" x="0px" y="0px" width="247.5px"
	 height="479.2px" viewBox="0 0 247.5 479.2" style="overflow:visible;enable-background:new 0 0 247.5 479.2;"
	 xml:space="preserve">
<style type="text/css">
	.st0{fill:#2B3575;}
	.st1{fill:#DBF1FB;}
	.st2{fill:#4BBBEB;}
</style>
<defs>
</defs>
<g>
	<g>
		<path class="st0" d="M4.6,86L4.6,86C2.1,86,0,83.9,0,81.4V55c0-2.6,2.1-4.6,4.6-4.6l0,0c2.6,0,4.6,2.1,4.6,4.6v26.4
			C9.2,83.9,7.2,86,4.6,86z"/>
		<path class="st0" d="M4.6,126L4.6,126C2.1,126,0,124,0,121.4V95c0-2.6,2.1-4.6,4.6-4.6l0,0c2.6,0,4.6,2.1,4.6,4.6v26.4
			C9.2,124,7.2,126,4.6,126z"/>
	</g>
</g>
<g>
	<path class="st0" d="M220.4,479.2H31c-15,0-27.1-12.1-27.1-27.1v-425C3.9,12.1,16,0,31,0h189.4c15,0,27.1,12.1,27.1,27.1v425
		C247.5,467.1,235.4,479.2,220.4,479.2z"/>
	<path class="st1" d="M7.3,27.1v418.4h236.8V27.1c0-5.8-1.8-11.2-4.8-15.6H12.1C9.1,15.9,7.3,21.3,7.3,27.1z"/>
	<path class="st0" d="M181.3,25.6H70.1c-6.8,0-12.2-5.5-12.2-12.2l0,0c0-6.8,5.5-12.2,12.2-12.2h111.1c6.8,0,12.2,5.5,12.2,12.2l0,0
		C193.5,20.1,188,25.6,181.3,25.6z"/>
</g>
<path class="st2" d="M214.9,431.6H36.5c-11.2,0-20.2-9.1-20.2-20.2V60c0-11.2,9.1-20.2,20.2-20.2h178.5c11.2,0,20.2,9.1,20.2,20.2
	v351.4C235.2,422.6,226.1,431.6,214.9,431.6z"/>
</svg>
