<svg xmlns="http://www.w3.org/2000/svg" xmlns:xlink="http://www.w3.org/1999/xlink" version="1.1" x="0px" y="0px" viewBox="0 0 24 24" enable-background="new 0 0 24 24" xml:space="preserve" width="24px" height="24px"><g><path d="M22.377,3.64c-0.464-0.262-1.46-0.5-2.304-0.084c-0.424,0.21-0.959,0.669-1.102,1.694c-0.009,0.118-0.068,1.17,0.516,1.777   c0.269,0.279,0.645,0.43,1.054,0.405c0.221-0.007,0.394-0.192,0.387-0.413c-0.008-0.221-0.22-0.437-0.413-0.386   c-0.205-0.006-0.338-0.044-0.449-0.16c-0.288-0.298-0.311-0.942-0.299-1.139c0.074-0.524,0.296-0.882,0.661-1.062   c0.526-0.26,1.24-0.116,1.557,0.063c0.921,0.52,0.929,1.738,0.921,1.977c-0.112,3.396-3.301,3.452-3.436,3.452H0.693   c-0.221,0-0.4,0.18-0.4,0.4s0.179,0.4,0.4,0.4h18.776c0.041,0,4.098-0.049,4.236-4.227C23.735,5.415,23.402,4.218,22.377,3.64z"/><path d="M0.293,8.339c0,0.221,0.179,0.4,0.4,0.4h13.883c0.922,0,2.684-0.574,2.756-2.746c0.02-0.614-0.205-1.409-0.894-1.798   c-0.313-0.177-0.987-0.337-1.56-0.056c-0.293,0.146-0.664,0.461-0.762,1.168c-0.006,0.079-0.045,0.788,0.359,1.21   c0.196,0.203,0.453,0.315,0.764,0.296c0.221-0.007,0.394-0.192,0.387-0.413s-0.18-0.428-0.413-0.386   c-0.093,0.001-0.142-0.033-0.16-0.051c-0.113-0.118-0.15-0.427-0.142-0.571c0.039-0.272,0.144-0.447,0.321-0.535   c0.285-0.139,0.668-0.046,0.813,0.035c0.488,0.275,0.492,0.943,0.487,1.074c-0.063,1.901-1.764,1.971-1.956,1.972H0.693   C0.472,7.939,0.293,8.119,0.293,8.339z"/><path d="M19.36,13.433H0.693c-0.221,0-0.4,0.18-0.4,0.4s0.179,0.4,0.4,0.4H19.36c0.136,0,3.323,0.039,3.436,3.452   c0.008,0.239,0,1.457-0.921,1.977c-0.316,0.18-1.031,0.323-1.557,0.063c-0.365-0.18-0.587-0.537-0.658-1.035   c-0.015-0.207,0.006-0.864,0.295-1.164c0.111-0.116,0.255-0.161,0.45-0.161c0.19,0.023,0.405-0.165,0.413-0.386   c0.007-0.221-0.166-0.406-0.387-0.413c-0.407-0.021-0.785,0.126-1.054,0.405c-0.583,0.607-0.524,1.659-0.513,1.804   c0.14,0.999,0.675,1.458,1.099,1.668c0.331,0.163,0.685,0.226,1.021,0.226c0.521,0,1-0.15,1.282-0.31   c1.025-0.578,1.358-1.773,1.328-2.7C23.457,13.482,19.401,13.433,19.36,13.433z"/><path d="M14.576,15.256H0.693c-0.221,0-0.4,0.18-0.4,0.4s0.179,0.4,0.4,0.4h13.881c0.193,0.001,1.895,0.07,1.958,1.971   c0.004,0.132,0.001,0.8-0.487,1.075c-0.143,0.081-0.529,0.176-0.813,0.034c-0.178-0.088-0.283-0.263-0.318-0.508   c-0.011-0.172,0.025-0.48,0.139-0.598c0.017-0.018,0.049-0.05,0.16-0.051c0.187,0.022,0.405-0.165,0.414-0.386   c0.007-0.221-0.166-0.406-0.386-0.413c-0.304-0.021-0.568,0.091-0.764,0.296c-0.405,0.421-0.365,1.13-0.356,1.235   c0.095,0.68,0.465,0.996,0.758,1.141c0.225,0.111,0.466,0.154,0.695,0.154c0.352,0,0.675-0.101,0.865-0.208   c0.69-0.389,0.915-1.184,0.895-1.799C17.26,15.831,15.498,15.256,14.576,15.256z"/><path d="M0.693,12.395h17.406c0.221,0,0.4-0.18,0.4-0.4s-0.179-0.4-0.4-0.4H0.693c-0.221,0-0.4,0.18-0.4,0.4   S0.472,12.395,0.693,12.395z"/></g></svg>