<?xml version="1.0" encoding="UTF-8"?>
<svg width="210px" height="64px" viewBox="0 0 210 64" version="1.1" xmlns="http://www.w3.org/2000/svg" xmlns:xlink="http://www.w3.org/1999/xlink">
    <!-- Generator: Sketch 52.6 (67491) - http://www.bohemiancoding.com/sketch -->
    <title>Fill 1 Copy 4</title>
    <desc>Created with Sketch.</desc>
    <g id="Design-Jan-25" stroke="none" stroke-width="1" fill="none" fill-rule="evenodd">
        <g id="energy-interactive-design_V2" transform="translate(-172.000000, -4557.000000)" fill="#CBEEFC">
            <g id="Emissions" transform="translate(-66.000000, 4557.000000)">
                <path d="M447.6696,64 C447.985517,61.7929143 448.084127,59.5145143 447.925255,57.1858286 C446.832331,41.1236571 433.666102,28.2322286 417.60732,27.4660571 C413.643756,27.2768 409.829932,27.8116571 406.285459,28.9490286 C398.68703,31.3892571 390.520681,28.2916571 386.292331,21.5158857 C378.229157,8.5952 363.903351,0 347.566088,0 C333.040323,0 320.105096,6.79588571 311.747006,17.3842286 C306.698735,23.7796571 297.973597,25.6594286 290.673736,22.048 C285.080371,19.2813714 278.677129,17.9062857 271.915056,18.3771429 C253.912384,19.6278857 239.330922,34.2345143 238.08917,52.2624 C237.807949,56.3382857 238.199649,60.2834286 239.154703,64 L447.6696,64 Z" id="Fill-1-Copy-4"></path>
            </g>
        </g>
    </g>
</svg>